<?xml version="1.0" standalone="no"?>
<!DOCTYPE svg PUBLIC "-//W3C//DTD SVG 20010904//EN"
 "http://www.w3.org/TR/2001/REC-SVG-20010904/DTD/svg10.dtd">
<svg version="1.0" xmlns="http://www.w3.org/2000/svg"
 width="1584.000000pt" height="1584.000000pt" viewBox="0 0 1584.000000 1584.000000"
 preserveAspectRatio="xMidYMid meet">
<metadata>
Created by potrace 1.11, written by Peter Selinger 2001-2013
</metadata>
<g transform="translate(0.000000,1584.000000) scale(0.100000,-0.100000)"
fill="#000000" stroke="none">
<path d="M8960 14553 c-144 -36 -385 -94 -450 -108 -8 -2 -76 -17 -150 -34
-529 -118 -1192 -232 -1605 -276 -27 -3 -63 -7 -80 -10 -16 -2 -100 -11 -185
-20 -85 -8 -168 -17 -185 -19 -16 -3 -66 -8 -110 -11 -44 -4 -90 -8 -103 -10
-13 -2 -69 -7 -125 -11 -56 -3 -105 -8 -108 -10 -4 -2 -82 -6 -175 -10 l-169
-7 -305 -306 c-376 -377 -613 -602 -891 -842 -148 -128 -217 -187 -264 -224
-27 -22 -54 -45 -60 -51 -24 -26 -438 -357 -755 -603 -129 -101 -238 -189
-243 -196 -6 -12 -46 -309 -62 -470 -3 -27 -8 -66 -10 -85 -2 -19 -7 -60 -10
-90 -3 -30 -10 -89 -15 -130 -9 -76 -16 -134 -25 -212 -22 -192 -81 -630 -101
-748 -58 -340 -157 -647 -298 -929 -32 -62 -54 -117 -49 -122 4 -4 125 -83
268 -175 288 -185 1085 -698 1210 -779 92 -60 492 -317 640 -412 55 -36 119
-78 143 -94 l42 -29 173 54 c175 55 835 258 917 281 25 8 162 50 305 93 143
44 373 115 510 157 426 130 474 145 490 161 8 9 15 30 15 47 0 18 11 75 25
128 44 174 122 347 230 509 80 121 108 154 221 267 286 285 722 500 1229 607
205 43 424 76 600 92 39 3 81 8 95 11 46 9 624 12 705 3 44 -5 105 -11 135
-15 452 -49 919 -225 1251 -472 472 -350 810 -847 1034 -1518 135 -404 162
-774 85 -1155 -84 -413 -318 -872 -615 -1207 -494 -558 -1116 -915 -1770
-1019 -138 -21 -415 -26 -540 -10 -335 45 -617 163 -861 360 -145 116 -328
331 -446 522 -402 650 -506 1295 -313 1950 106 360 306 724 578 1054 77 93
452 470 467 470 5 0 16 10 25 23 14 22 12 37 -20 183 -48 214 -42 205 -90 152
-147 -163 -205 -225 -297 -318 -205 -206 -331 -317 -501 -444 -218 -162 -574
-357 -760 -417 -108 -35 -149 -41 -296 -48 l-144 -6 -79 -180 c-255 -581 -476
-1030 -631 -1280 -164 -266 -488 -721 -747 -1050 -69 -89 -129 -165 -133 -171
-3 -6 12 -74 33 -151 103 -376 230 -1000 265 -1308 4 -32 8 -67 10 -76 2 -10
6 -46 10 -81 3 -34 8 -76 10 -93 17 -130 48 -471 61 -670 3 -49 7 -95 9 -102
2 -6 140 -80 307 -163 167 -84 326 -165 353 -180 28 -15 86 -46 130 -70 524
-282 1101 -652 1745 -1120 63 -46 126 -91 140 -101 24 -18 27 -18 95 1 62 17
482 126 524 135 9 2 108 27 221 55 665 166 1335 300 1915 385 22 3 83 12 135
20 112 17 373 52 445 60 28 3 82 10 120 15 39 5 115 14 170 20 55 6 114 12
130 15 17 2 62 7 100 11 39 3 81 11 95 16 25 9 33 17 105 104 265 320 561 665
680 794 29 30 84 91 125 135 122 133 547 553 685 676 181 161 371 319 563 466
90 69 166 131 168 137 3 9 96 487 120 616 57 305 198 942 290 1310 111 445
194 728 359 1231 l94 286 -58 184 c-134 420 -195 621 -265 874 -20 72 -40 144
-45 160 -17 53 -92 345 -132 515 -106 445 -215 1018 -254 1335 -4 28 -10 77
-15 110 -5 33 -12 82 -16 108 -6 49 -7 50 -453 495 -453 453 -631 636 -821
841 -58 63 -120 130 -139 150 -29 32 -130 145 -171 191 -8 9 -44 50 -80 91
-126 142 -156 176 -215 244 -33 38 -78 90 -100 115 -78 90 -119 138 -340 402
-124 146 -229 270 -236 273 -14 9 -87 24 -444 89 -673 124 -1154 225 -1590
336 -401 102 -652 173 -1010 285 -294 92 -244 88 -445 38z"/>
<path d="M2143 8132 c-111 -284 -285 -728 -386 -987 -102 -258 -341 -868 -532
-1355 -191 -487 -359 -916 -375 -955 -24 -61 -157 -399 -355 -905 -31 -80
-109 -278 -172 -440 -279 -711 -273 -694 -260 -706 16 -14 243 -212 281 -244
16 -14 34 -30 40 -35 6 -6 108 -93 226 -195 118 -101 235 -202 260 -224 61
-54 90 -80 255 -221 151 -129 192 -164 209 -180 6 -6 46 -40 88 -77 70 -60 80
-66 105 -58 15 4 150 49 298 100 149 50 302 102 340 115 39 13 338 114 665
225 327 111 712 241 855 290 143 48 415 140 605 205 190 64 383 129 430 145
626 211 857 293 868 307 6 9 13 33 13 52 1 20 3 52 5 71 7 69 7 517 0 610 -33
437 -132 893 -342 1568 -24 79 -44 154 -44 166 0 13 43 76 107 157 251 314
658 868 780 1059 125 197 289 525 398 800 70 175 143 380 136 384 -6 3 -427
-132 -1672 -535 -152 -49 -281 -89 -288 -89 -15 0 -77 36 -201 115 -52 34
-203 131 -335 215 -254 162 -290 185 -425 272 -47 30 -211 135 -365 233 -154
98 -309 197 -345 220 -373 240 -650 415 -657 415 -4 0 -99 -233 -210 -518z"/>
</g>
</svg>
