<?xml version="1.0" encoding="utf-8"?>
<!-- Generator: Adobe Illustrator 22.0.1, SVG Export Plug-In . SVG Version: 6.00 Build 0)  -->
<svg version="1.1" xmlns="http://www.w3.org/2000/svg" xmlns:xlink="http://www.w3.org/1999/xlink" x="0px" y="0px"
	 viewBox="0 0 400 488" style="enable-background:new 0 0 400 488;" xml:space="preserve">
<style type="text/css">
	.st0{fill:#F8C331;}
</style>
<g id="Layer_2">
	<path class="st0" d="M390.7,343c0-4.6-1.7-7.6-5.7-10c-20.4-11.9-40.8-23.9-61.3-35.7c-1-0.6-2.1-1.3-3-2.2c-0.3-1.6-0.2-3.4-0.2-5
		c0.3-10,0.1-20,0.4-30c0.4-15,0.8-29.8-0.9-44.7c10.3-10.9,20.9-22.3,29.8-34.4c1.9-2.8,4.6-6.2,4.4-9.8c-0.1-5-1.4-10-2.5-14.8
		c-4.2-17.5-9.6-34.8-14.9-52c-0.9-2.7-1.8-6.1-4.1-7.9c-3.1-2.6-7.1-4.5-10.8-6.2c-10.6-4.9-21.7-8.9-33.2-11.5
		c-1.8-7.9,0-15,2.1-22.6c1.4-1,4-1.6,4.4-3.5c1.2-3.8,1-8.1,0.5-12.1c-0.6-4.7-0.6-9.6-1.4-14.2c-1.1-6.4-7.1-11.3-13.4-11.8
		c-5.5-0.5-10.5,0.9-15.7,2.5c-3.2-1.9-7.5-4.5-11.3-3.1c-4.5,1.8-6.7,8-10.1,11.1c-2.9,1.5-6.4,1.9-9.5,3c2.3,8,6.8,15,15.4,16.8
		c0.7,6.4,1.5,12.7,3.5,18.8c1.6,5.6,5.9,9.4,7.9,14.9c-9.1,2.6-17.8,4.2-26.5,8.3c-3.8,1.9-8,3.9-10.3,7.7
		c-2.9,4.8-4.7,10.2-6.7,15.4c-5,14-9.2,28.3-13.5,42.5c-11-0.2-23.2-0.1-30.6,9.5c-0.3,5.7-1.2,11.1-1.9,16.8
		c-9.5,3.4-18.3,7-24.2,15.7c-1.3-5.3-3.7-10-6.4-14.7c1.3,0.8,2.6,1.5,3.9,2.2c0.8-0.4,1.6-0.8,2.4-1.2
		c-3.1-6.7-8.2-11.9-15.5-13.9c-5-10.9-9.9-21.9-14.9-32.9c-7-15-11.2-31.2-17.1-46.8c-3.2-8.5-6.3-17.4-10.9-25.2
		c-2.2-3.9-5.8-4.6-9.6-6c2.1-7.4,3.9-14.8,4-22.6c5.6-2,10-6,9.8-12.4c-0.3-4-4.7-5.7-7.5-7.8C81.2,10.4,80,5,76.4,1.6
		c-2-1.3-5-1.2-7.3-1.6L69,0h-0.6l-0.2,0.1C64.5,0.9,60.7,2.3,57,2.3c-5.1-0.7-9.5-3.2-14.8-1.1c-4.6,2.1-5.9,7.5-7,12
		c-1.1,3.8-1.2,9-3.9,12.1c-3.9,4.1-8.2,6.9-11,12.1c-1.8,3.3-2.3,7.2,0,10.3c2.5,3.1,6.7,4.9,10,7.1c-2.1,5.3-3.7,10.4-4,16.1
		C18.8,75.6,11.7,80.2,5.9,87C3,90.1,3.8,95.1,4.1,99c1.4,10.9,4.7,21.6,7.8,32c2.8,9.1,5.7,18.1,9.5,27
		c-6.5,12.5-13.6,23.5-14.7,38c-0.6,12.9,0.7,26.1,1.7,39c1,11.8,1.8,23.5,3,35.3C7,273.8,1,276.6,0.5,283
		c-0.4,3.8-1.2,9.2,1.1,12.5c3.2,3.5,8,5.5,12,8.1c0.2,6,0.7,11.5,0,17.5c-1.5,12.4-3.2,24.8-4.3,37.2c-0.6,6.2,1.1,11.7-0.3,17.7
		c-1.1,5.4-2.9,10.4-3.4,16c-0.5,6-0.5,12.1,0.1,18c0.5,3.9,1.2,8.2,4.4,10.9c3,2.6,6.5,3.1,10.2,4c0.1,8.7-0.1,17.5,0.2,26.2
		c-0.2,4.2,5.2,6.2,8.3,3.7c2.2-1.7,1.9-4.2,2.1-6.7c0-24.7,0-49.4,0-74c0-4.5,1.9-7.9,3.1-12c3.7-13.4,6.9-27,10.3-40.5
		c2.2,1.2,4.5,2.5,6.7,3.8c-0.5,5.6-1.2,11.2-1.2,16.8c-0.1,4.3,2.2,7.8,1.8,12c-0.4,5.3-1.6,10.4-0.9,15.9c0.2,1.8,0.9,3.4,2.5,4.3
		c4.2,1.8,10.4,0,14.2,2.7c5.4,3.5,10.4,8.9,16.9,10.3c3.9,0.8,8.5,0.1,10.2-4c1.9-5-0.4-9.9-4-13.4c-6.4-6.3-14.3-10.8-20.7-17.1
		c2.6-4.4,3.7-8.8,4.4-13.8c20.9,12.1,41.7,24.2,62.5,36.4c0.1,2.6,0.1,5.2,0.5,7.8c0.5,3.1,4.6,4.7,7.2,3.1
		c1.5-1.1,2.6-2.8,3.7-4.3c24.8,14.5,49.6,29,74.5,43.5c-3.6,4.7-7.8,9-11.1,13.9c-1.6,2.5-3.5,6.7-2,9.5c2.4,3.5,8.2,3.1,11.9,2.6
		c6.5-0.8,11.6-4.2,16.4-8.4c0,5.5-0.2,11.2,0.5,16.6c1,2,4.1,3.4,5.9,4.8c-0.2,7.9-0.2,15.8-0.2,23.7h2.2c0-7.2,0-14.4-0.1-21.5
		c2-0.2,3.9-0.4,5.9-0.5c0,7.3-0.1,14.7,0,22h2.3c-0.1-7.9-0.1-15.8-0.1-23.7c1.8-1.2,3.9-2.3,5.5-3.8c0.4-2.1,0.3-4.4,0.4-6.5
		c-0.1-7.6,0.1-15.2,0.2-22.7c12.7-7,25.2-14.4,37.8-21.7c1,5.1,3.1,9.7,4.7,14.6c0.6,5.2-0.5,10.6-0.1,15.9
		c-0.1,5.3,4.3,8.5,5.9,13.7c1.6,5.5,2.3,10.6,5.8,15.3c3.3,4.5,8.1,9.1,14.2,8.3c4.5-0.4,7.4-4.2,8-8.4c0.3-3.3-0.4-6.8-1.2-10
		c-2.8-11.4-7.1-21.8-10.9-32.8c4.3-10.3,2.3-22.1,2.6-33.4c9.3-5.5,18.8-10.8,28.1-16.3c-0.1,4.1,0,8.2,0.1,12.2
		c2.1,1.3,4.1,2.6,6.2,4c-0.5,31.7-0.2,63.5-0.3,95.2h2.3c0-31,0.1-62.1,0.1-93.2c0.9,0.2,1.9,0.3,2.8,0.5c0.9-0.2,1.9-0.5,2.8-0.7
		c-0.1,31.1,0,62.3,0,93.4h2.4c-0.1-31.7,0.2-63.5-0.3-95.2c2.1-1.2,4.3-2.5,6.4-3.7c0-8.5,0.2-17,0.2-25.5
		c3.8-2.4,8.4-4.4,11.5-7.6C391.6,352.8,390.6,346.9,390.7,343z M380.3,332.7c2.5,1.5,5.6,3.2,7.1,5.9c1.6,2.7,0.7,7-1.9,8.8
		c-2.5,1.9-5.4,3.3-8.2,4.9c-40.8,23.5-81.6,47.2-122.6,70.4c-4.4,2.5-9.9,3.3-14.6,1.3c-3.8-1.7-7.3-4.1-11-6.1
		c-30.9-17.7-61.6-35.5-92.5-53.1c20.1-11.9,40.5-23.5,60.6-35.3c18.9,10.8,37.6,22,56.5,32.8c1.9,1,4.1,2.3,6.2,2.5
		c4.2-1,8.1-3.9,11.8-6c12.4-7.2,24.9-14.4,37.3-21.7c2-1.3,4.1-2.3,4.2-5c0.6-9.7,0.1-19.4,0.5-29.1c-0.2-2.5,0.6-5.2-1.7-6.9
		c-4.2-3.5-8.6-6.5-12.5-10.4C326.5,301.2,353.4,317,380.3,332.7z M132.6,363.1c-14.1-8.1-28.2-16.3-42.2-24.6
		c-2.8-1.7-6.1-3.2-8.5-5.5c-0.6-2.2-0.4-4.8-0.5-7.1c0.1-8.3,0-16.6,0.1-24.9c16.9,10.1,34,19.7,51,29.6
		C132.7,341.5,132.5,352.3,132.6,363.1z M132.5,328.3c-17-9.8-33.9-19.8-51.1-29.4c7.5-7.7,15.6-14.8,23.7-21.8
		c9.6-7.8,18.8-15.9,28.1-24c2.8-2.4,5.5-4.9,8.1-7.6c-3.3-1.5-6.8-2.8-10.3-3.8c-9.3-2.8-18.4-5.9-27.8-8.6
		c12.2-6.3,24.4-12.8,36.5-19.3c1-0.5,2-1.1,3-1.6c-0.2,1.5-0.4,3-0.5,4.5c-3,0.9-6.4,1.7-8.9,3.6c-3.2,2.7-4.4,8.2-1.4,11.5
		c2.4,2.8,6.7,3.5,10,4.5c-0.1,5.1-0.7,10.4,0.2,15.4c1.7,7.8,7.4,14.5,13.9,19c11.6,8,25.3,10.9,39.2,11.4
		c-18.8,13.6-37.7,26.9-56.5,40.5C136.6,324.5,134.5,326.3,132.5,328.3z M101.7,270.4c-0.6-2-0.4-4.3-0.5-6.4
		c0.1-9.8,0-19.5,0.1-29.2c12.1,3.8,24.2,7.5,36.3,11.1c-10.7,9.3-21.3,18.6-31.8,28C104.3,272.8,102.8,271.8,101.7,270.4z
		 M142.4,206.2c0.4,1.2-0.2,3.6-1.8,2.9C139.6,207.8,141,206.2,142.4,206.2z M142.1,230.8c0,1.3,0.1,2.5,0.1,3.8
		c-2.9-1.5-7.2-2.7-8-6.4c1.3-3.7,5-4.3,8.2-5.7c-0.1,1.1-0.1,2.1-0.2,3.1c-1,0.4-2,0.8-3,1.2c-0.7,0.3-0.9,1.3-0.3,1.9
		C139.8,229.6,140.9,230,142.1,230.8z M132.4,224.4c3.5-3.1,6.2-4.4,10.9-5.2C139.8,221.3,136.1,222.8,132.4,224.4z M301.8,203.6
		c-2,2.8-3.7,6.3-6.3,8.7c-2.8,1.2-5.8,1.5-8.7,2.5c-4.6,1.6-8.4,4.5-12.2,7.5c-7.4-3.7-14.6-7.5-22-11.2c-0.2-2.9-0.4-5.7-1-8.5
		c-0.3-1.1-0.7-2.3-1-3.4C266.4,205.3,285,205,301.8,203.6z M244.2,190.9c-0.7-0.8-1.4-1.6-2.2-2.4c1.1,0.4,2.2,0.9,3.3,1.3
		c10.1,4.2,20.9,4.4,31.7,5.2c10.5,0.7,20.8,0,31-2.3c-0.7,1.4-1.4,2.8-2.1,4.2c-0.9,1.3-1.7,2.9-3,3.9c-1.5,0.7-3.3,0.7-4.9,0.9
		c-15.9,0.8-31.2,0.9-46.4-4.5C248.4,196.3,246.5,193.2,244.2,190.9z M292.5,271.5c1.7-5.6,0-12.2,1.3-17.9c1.9-4,4.4-7.7,6-11.9
		c2.2-4.7,3.5-11,7.4-14.5c3.5-3.3,7.2-6.3,10.8-9.5c0.4,7.5,1.2,14.8,1,22.3c-0.3,17.9-0.5,35.7-0.8,53.6
		c-10.1-6.2-21.1-11.4-30.8-18.2C289.1,274.2,291.1,273.1,292.5,271.5z M285.8,273.7c-9.8-7.8-19.5-16-29.2-24
		c11.5-4.7,23.1-9.1,34.6-13.7c0.5,11.4-0.1,22.7-0.4,34C289.2,271.3,287.5,272.5,285.8,273.7z M299.9,234.8
		c-2,5.2-3.9,10.3-6.7,15.2c0.4-1.1,0.8-2.3,1.2-3.4c-0.4-0.6-0.9-1.2-1.3-1.9c0.1-3.6,1-8.1-0.4-11.4c-1.8-2.2-4.2-3.8-6.2-5.8
		c-2.2-2.8-6.9-2.4-10.2-3.3c4.1-3.2,7.8-6.3,12.9-7.7c3.8-0.9,7.7-1.8,11.5-3c1.9,2.7,4,5,3.9,8.5
		C304.5,226.3,301.5,230.8,299.9,234.8z M251.6,228.7c0.2-1.4,0.3-2.8,0.5-4.2c2.2,0.5,4.6,0.8,6.8,1.6c1.4,0.7,2.6,2,3.7,3.3
		c0.6,0.7,0.6,1.7-0.1,2.3c-1.3,1.4-2.5,2.6-4.3,3.5c-2.3,1.1-5.1,1.2-7.7,1.5 M251.3,239.1c2.6-0.5,5.5-0.8,7.9-1.8
		c3.2-1.2,5.6-4.2,6.6-7.4c0.8-3-0.9-5.6-3.3-7.3c-3.2-2.4-6.7-2.6-10.5-3.3c0.1-1.9,0.2-3.8,0.2-5.6c12.8,6.9,26,13.1,38.8,20.1
		c-12.7,5-25.6,9.7-38.1,15.3c3.4,3.7,7.3,6.7,11.1,9.9c15,12.5,30,25,44.9,37.6c-14.5,7.9-29,15.9-43.5,24
		c-2.1,1.2-4.1,2.6-6.1,4.1c-19.1-14.3-38.5-28.4-57.8-42.5c12.4-0.6,23.6-5.1,34.3-11.1c5.5-2.9,9.8-8,12.6-13.4
		C251.4,252.1,251.1,245.1,251.3,239.1z M311.3,297.8c0.3,11.7,0.1,23.5-0.3,35.2c-16.5,10.3-33.7,19.7-50.5,29.4
		c-0.1-11.1-0.2-22.2,0-33.3c0-3.3,3-4.6,5.4-6.2C281,314.4,296.1,306.1,311.3,297.8z M258.5,333c-0.2,9.8-0.2,19.6-0.3,29.5
		c-20.1-11.6-40-23.5-60.1-34.9c0.5-14.7,1.3-29.4,1.9-44.1c18.2,13.3,36.4,26.7,54.7,40c1.2,1,2.8,2.2,3.5,3.7
		C258.5,329,258.5,331.1,258.5,333z M249,242c-0.1,5.9-0.3,11.3-3.6,16.4c-5.5,9.4-14.4,13.1-24,17c-15.8,6-32.9,5.8-49,1
		c-9.5-3-19.2-8.6-24.8-17.1c-2.9-4.3-4-9.2-3.8-14.3c0.3-8.4,1-16.8,0.9-25.2c2.8,4.3,5.9,8.2,10.2,11.2
		c11.8,8.6,27.6,11.9,42,11.8c14.3,0.4,28.8-3.4,40.9-11c5-3.2,8.7-7.6,12-12.5C249.2,226.9,249.3,234.4,249,242z M136.1,328.1
		c2.5-2.7,6-4.8,9-7c17.6-12.6,35.3-25.1,52.9-37.8c-0.7,10.6-0.9,21.2-1.5,31.7c-0.3,4,0,8.4-1,12.3c-2.3,2.1-5.3,3.5-8,5.1
		c-17.5,10.2-35.1,20.3-52.7,30.5c0-9.6,0-19.3-0.1-29C134.8,332,134.6,329.7,136.1,328.1z M293.2,53c-1.1,0.2-2.1,0.3-3.2,0.5
		c0.3-3.9,0.7-7.8,1.1-11.7c1.1,0.1,2.1,0.2,3.2,0.3C294.1,45.7,293.8,49.3,293.2,53z M246.1,40.9c-4.4-2.3-6.8-7.3-9.2-11.4
		c2.9-0.7,5.7-1.4,8.6-2c2.7-3.6,5.1-8.5,8.8-11.1c3.1-1.6,7.8,1.8,10.6,3.1c4.9-1.1,10.1-2.7,15.1-2.6c5,0.1,10.1,3.6,11.6,8.5
		c1.3,4.4,1.1,9.4,1.3,14c-1.1,0-2.2,0.1-3.3,0.1c-1,4-1.4,8-1.7,12.1c-0.7-3.8-1.1-7.7-2.2-11.3c-0.2-1-0.9-1.8-1.9-2.3
		c-3,0-5.9,1-8.8,1.2c-1.7-2.1-2.5-6.1-5-7.2c-5.1,1.6-9.3,5.7-14.2,8C252.8,41.2,249.3,42.7,246.1,40.9z M258.2,68.8
		c-4.4-7-5.4-16.7-6.3-24.8c6.6-2.3,11.8-6.5,17.8-10c1.2,2.2,2.2,5.7,4.4,6.9c2.9,0.7,6.4-0.6,9.2-1.2c1.7,5.6,1,12.8,5.1,17
		c-0.9,4-2.2,8.1-2.6,12.2c-0.4,4.2,0.7,8.8,1.4,12.9c-5,2.8-9.4,5.4-15.3,5.4c-3.7,0-6.3-1.9-9.3-3.8c0-2.2-0.1-4.5-0.2-6.8
		c2.5-0.2,5.8,0.4,7.9-1.3c3.9-2.9,7.8-6,11.1-9.5c-5.7,0.3-9.4,6.9-14.7,8.7C263.1,75.6,260,71.5,258.2,68.8z M221.5,106.5
		c1.4-3.5,2.7-7.2,4.7-10.3c1.9-3.1,5.1-4.9,8.3-6.7c7.8-4.3,16.1-6.1,24.8-7.7c1.9,3.4,4.2,5.9,7.9,7c8.1,2.9,17.9-1.2,23.4-7.4
		c7.5,2.5,14.9,5.3,22.4,7.7c4.8,1.5,9.4,3.7,13.8,6.1c1.8,1,3.8,2.2,5.2,3.8c1.3,1.8,2,4.1,2.7,6.2c4.7,15.1,9.4,30.4,13.4,45.7
		c1.3,5.3,2.7,10.7,3.5,16.1c0.2,2.6,0.7,5.4-0.6,7.8c-2.2,4-5.2,7.6-8,11.1c-7.2,9.1-15.1,17.5-23,26c-3.9,4.8-8.7,8.7-13,13
		c0.2-6.2-1.2-11.8-7.5-14.4c4.7-6.4,8.9-13.2,13.4-19.8c5-7.9,11.4-14.5,16-22.7c-1.5-6.4-2.9-12.8-4.8-19.1
		c-1.7-5.7-2.7-11.8-5.2-17.1c-2.2,0.8-1.5,3.2-1.9,5.1c-0.3,8.4-1.1,16.8-1.8,25.2c-0.7,7.3-0.1,14.4-1.1,21.6
		c-0.4,2.3-2.2,4.5-3.4,6.5c-7.3,1.1-14.2,2.4-21.6,2.6c-10.4,0.2-20.8-0.5-31-2c-6.4-0.9-12.2-3.2-18.1-5.8c0-12-0.3-24.1-1.3-36.1
		c-0.5-5.4-0.7-10.6-2-15.9c-1.6,2.4-2.9,4.9-3.8,7.7c-1.9,5.8-3.8,11.5-5.8,17.2c-2.5,6.6-1.3,13.5-2.8,20.7
		c-1.5-5.8-1.1-12.2-3.2-17.7c-2.5-4.9-9.4-7.2-14.3-8.9C211.5,137,215.9,121.4,221.5,106.5z M316.4,181.6c0.2-13.7,2-27.2,2.7-40.9
		c0.3,1.1,0.7,2.1,1,3.2c1.9,6.6,3.7,13.4,5.2,20.1c0.3,1.8,0.9,3.4-0.1,5.2C322.7,173.5,319.4,177.5,316.4,181.6z M237.5,185.3
		c-3.4-2.3-6.9-4.2-10.7-5.8c0.3-4.5,0.6-9,0.9-13.5c0.3-4.1,1.8-8.3,3.2-12.2c1.6-4.4,2.9-8.9,4.5-13.3
		C236.8,155.4,237.5,170.3,237.5,185.3z M221.3,178.3c-3.7-1.2-7.4-2-11.3-2.5c3.8-1.7,7.2-3.8,10.4-6.5
		C220.6,172.2,220.9,175.3,221.3,178.3z M205.9,154.7c3.7,1,7.6,2.5,10.6,4.8c2.2,1.7,2.8,4.4,3.8,7c-2.2,1.8-4.2,3.7-6.8,5.1
		c-3.5,1.9-7.1,2.6-10.9,3.5C203.1,168,203.3,161.3,205.9,154.7z M207,182.9c0,2.6-2.1,4.7-4.7,4.7c-2.6,0-4.7-2.1-4.7-4.7
		c0-2.6,2.1-4.7,4.7-4.7C204.8,178.2,207,180.3,207,182.9z M179.2,159.2c7.4-5.1,15.9-4.5,24.5-4.6c-2.7,6.7-3,13.5-3.2,20.6
		c-6,0.3-11.7,0-17.2-2.5c-3.4-1.4-5.6-4.1-8.2-6.6C176,163.4,176.5,160.9,179.2,159.2z M175,169.3c3.1,3.2,5.9,5.2,10.1,6.7
		c-3.8,0.5-7.4,1.3-11.1,2C174.4,175.1,174.7,172.2,175,169.3z M173.8,180.3c8-1.7,15.4-2.7,23.5-2.8c-2,4-1.8,5.9-0.5,10.1
		c-1.3,2.7-2.6,5.3-3.9,8c-3.3-0.2-6.4-1-9.2,1.2c-4.2,3.2-3.9,10.2,0.5,13.1c3.9,2.7,9.6,1.5,11.8-2.8c1.7-3.1,0.4-6.1-0.4-9.2
		c1.3-2.8,2.6-5.6,4-8.4c1.7,0,3.5-0.1,5.2-0.1c0.4,0.9,0.8,1.8,1.2,2.6c-0.2,1.9-0.8,4.4-0.1,6.2c1.3,3.5,6.9,3.6,8.9,0.7
		c1.6-2,1.4-5.2-0.8-6.6c-1.5-0.9-3.2-1.3-4.8-1.9c-0.4-0.7-0.9-1.4-1.3-2.1c1.4-4.1,1.5-6.4,0.1-10.5c4.6,0.9,9.2,1.9,13.7,3.2
		c0.5,6.5,1,13,1.8,19.5c0.2,3.7,1,7.5-1.9,10.4c-5.7,5.8-14.7,8.3-22.6,8.4c-7.6-0.2-14.7-0.7-21.3-4.7c-4-2.4-7.5-6.2-6.9-11.2
		C171.5,195.4,172.8,187.8,173.8,180.3z M191.5,208.5c-3.4,2.1-8.1-0.8-8.6-4.5c-0.4-2.8,1.1-5.3,3.6-6.5c3.1-1.2,6.5,0,7.9,3.1
		C195.8,203.7,194.3,206.9,191.5,208.5z M207.5,195.6c0-1.7,1.4-3.1,3.1-3.1s3.1,1.4,3.1,3.1s-1.4,3.1-3.1,3.1
		S207.5,197.3,207.5,195.6z M151.7,192.6c5.3-6.3,12.3-8.9,19.8-11.8c-0.8,7.4-2.1,14.8-2.8,22.2c-0.6,5.3,2.8,9.6,6.9,12.4
		c7.3,4.8,15.9,5.8,24.5,5.8c8.3-0.1,17.1-3.2,23.1-9.1c2.8-2.7,2.9-6,2.7-9.6c-0.6-7.2-1.5-14.5-2.1-21.7
		c7.9,3.1,16.1,7.4,21.4,14.2c3.9,4.9,5.8,11.5,4.7,17.8c-2,8.2-8.4,14.4-15.4,18.7c-11.5,6.8-25.1,9.7-38.4,9.1
		c-12.3,0.2-24.4-2.2-35.2-8.3c-6.5-3.7-12.7-9.6-15.3-16.7C143.3,207,146.4,199.2,151.7,192.6z M134,169.9c3.7,1.2,6.5,4.2,9,7.1
		c0.4,0.5-0.1,1.1-0.7,0.8c-1.6-0.9-3.3-1.8-5-2.5c1.7,5.4,4.7,10.1,6.8,15.3c0.2,0.5-0.4,0.8-0.7,0.4c-1.9-2.5-3.6-5.2-6.8-6.2
		c0.8,2.6,0.9,2.5,2.6,9.1c0.1,0.3-0.4,0.5-0.5,0.2c-1.4-2.8-2.7-5.6-4.4-8.2c-0.6,3.7,0.1,7.2,0.7,10.8c0,0.2-0.3,0.4-0.4,0.1
		c-1.1-2.6-2.3-5-4.2-7.2c-0.1,2.1-0.2,4.1-0.2,6.2c0,0.3-0.4,0.4-0.5,0.1c-1.3-4.4-3-8.5-5.1-12.7c-1.3-3.1-3.6-6.8-1.6-10
		C125.3,169.7,130.4,168.3,134,169.9z M145.1,197.6c-0.9-0.1-1.8-0.2-2.7-0.3c-0.4-1.9-0.8-3.8-1.2-5.7
		C142.5,193.6,143.8,195.6,145.1,197.6z M133.8,201.1c-1.6,0.9-2.8-1.3-1.6-2.5C133.8,197.7,135,199.9,133.8,201.1z M81.4,177.3
		c0.6,1.9,1.1,3.8,1.7,5.8c-1.3,0.6-2.5,1.1-3.8,1.7c-1.3-1.7-2.6-3.4-3.9-5.1C77.4,178.9,79.4,178.1,81.4,177.3z M74.6,177.8
		c-1.6-1.9-3.1-3.8-4.7-5.7c3-1.3,5.9-2.6,8.8-4c0.7,2.2,1.4,4.5,2.2,6.7C78.8,175.8,76.7,176.8,74.6,177.8z M79.7,187.6
		c2.1-2,5.6-2.7,8.4-3.2c4.7-0.7,9.5-1.1,14.3-1.4c0.5,0,0.6,0.7,0.2,0.9c-2.7,1-5.4,2-7.9,3.3c0.7,1,1.3,1.9,2.4,2.5
		c4.5,2.7,9.9,4.4,14.9,6.2c0.5,0.2,0.3,0.9-0.2,0.9c-2.9-0.2-5.8-0.4-8.7-0.2c2.4,1.9,5,2.8,7.7,3.6c0.8,0.2,0.6,1.4-0.2,1.4
		c-3.5,0.1-7.1-0.5-10.5,0.7c3,1.9,6.2,2.7,9.6,3.3c0.3,0.1,0.3,0.5,0,0.5c-3.6,0.2-7.2,0.2-10.8,0.6c1.8,1.3,3.7,2.4,5.7,3.3
		c0.5,0.2,0.3,0.9-0.2,0.8c-2.3-0.2-4.5-0.4-6.7-1.7c-7.2-4-14.1-8.8-21-13.4C77.5,193.3,77.9,189.9,79.7,187.6z M86.5,205
		c3.6,2.3,7.1,4.8,11,6.6c3.4,1.7,7.8,1.5,11.4,0.9c1.6-0.1,2.2-2.4,3.1-3.5c0.8-1.5,1.4-3.1,1.9-4.7c1-1.6,2-3.1,2.8-4.8
		c0.2-0.4,0.3-0.8,0.5-1.2c0.4-0.9,0-2-0.9-2.4c-6-3-12.5-4.7-18.4-7.8c4-1.3,7.8-2.8,11.1-5.5c-1.9-0.8-3.6-1.7-5.8-1.7
		c-5.9,0-11.8,0.9-17.7,1.6c-1.8-7.3-4.2-14.4-6.4-21.5c-1.5-4.9-0.7-9.7,0.5-14.5c1.9-7.5,4.3-14.9,6.4-22.4
		c1.2,3.8,2.2,7.8,3.6,11.5c1.7,4.6,5.1,9,8,13c6.7,8.9,13.5,17.8,20.5,26.5c3.2,3.9,4.6,8.4,6.9,13.1c2.3,4.8,3.4,9.7,5,14.7
		c-5.9,3.2-11.8,6.2-17.5,9.5c-8.6,5.1-17.5,9.6-26.1,14.6C86.4,219.7,86.5,212.3,86.5,205z M77.2,56.2c-1.1,3.2-2.8,6.7-6.4,7.5
		c-4.8,1.3-8.9-2.4-13.3-3.7c1,1.2,1.3,2.9,2.4,4.2c-0.1,2,0.2,4.3-0.7,6.1c-1.7,2.2-5.1,3.4-7.7,2.1c-2.1-0.9-4-2.3-5.9-3.6
		c1.4-1,4.3-1.8,4.5-3.8c0.2-3.3-1.2-6.7-1.4-10.1c0.7-2.1,1.9-3.9,2.6-6c-0.1-3-1.2-6-1.5-9c4.8-3,12-0.6,17-3.1
		c2.3-2.4,2.8-6.7,3.8-9.7c3.3,2.6,6.7,4.7,10.7,6.2C81,41.1,79.5,48.8,77.2,56.2z M32.3,55c0.2-2.3-3-3.6-4.6-4.7
		c-2.6-1.7-6.7-3.6-6.6-7.3c0.1-4.3,3.7-8.3,6.7-11.1c2.5-2.5,6.4-5,7.4-8.5c1.7-5.2,2-11.6,4.6-16.5c1.2-2.4,3.4-4,6.1-4.2
		c4.1-0.1,8.8,2.9,13,2.2c4.9-0.7,10-3.4,15-1.7c4.1,2.5,5.2,8.7,9.5,11.5c2.3,1.8,6.7,3.5,7.5,6.5c0.2,4.9-4.9,10.2-10,9.3
		c-3.6-0.8-6.7-3.9-10.1-5.3C67,26,68,33.2,65.1,35c-4.9,1.6-11.8,0.1-16.2,2.9c-2.9,2.5,0.7,7.8,0,10.8c-0.7,2.1-2.1,4-2.3,6.2
		c0.2,3.4,1.1,6.8,1.7,10.2c-6.8,0.3-13.4,1.1-19.8,3.8C29.4,64.2,31.5,59.7,32.3,55z M17.4,140.5C13,127.3,8.8,113.7,6.6,100
		c-0.3-3.9-1.7-8.7,1.6-11.8c6-6.4,13.2-11.9,20.8-16.3c3.8-2.3,9-2.6,13.4-3.5c2.4,2.2,5.1,4.8,8.2,6.1c3.1,1.3,7,0.6,9.6-1.5
		c2.1-1.8,1.9-5.4,2.3-8c3.5,0.8,6.7,2,10.2,0.6c3.1-0.8,4.4-5,6.3-7.3c4.8,0.9,7.9,3.5,9.9,7.9c6.9,14.4,11.8,29.8,17,44.9
		c5.9,19,15.5,37.1,23.4,55.5c-2,0.8-4.1,1.4-5.9,2.6c-1.3,1.3-2.2,3.1-3.2,4.7c-5.8-7.8-12-15.4-17.8-23.2c-3-4-6.2-8-8.7-12.4
		c-3.8-7.2-5.1-16-8-23.1c-1.8,3.7-1.9,7.5-2.9,11.4c-2.3,8.6-5.8,17.4-6.8,26.2c-0.5,4.6,0.7,8.7,2,13c-3.1,1.5-6.2,3-9.3,4.6
		C66,166.8,63,163.4,60,160c-5.5-6.2-10.1-13.1-16.1-19c-2.9-2.9-3.5-6.5-4.8-10.2c-1.7-5.3-3.2-10.8-5-16.1
		c-0.5-1.7-1.2-2.4-2.7-3.5c0.5,5.3,2.8,10.6,4.3,15.8c2,5.6,2.5,12,7.1,16c5,4.9,8.8,10.5,13.3,15.7c7.6,8.7,14.5,17.9,21.3,27.1
		c-1.4,3-2.4,5.9-3.1,9.1c-8-5.8-16.1-11.7-24.3-17.2c-8.3-5.6-15.7-12.3-23.6-18.4c-1.7-1.4-3.2-2.9-4-4.9
		C20.5,150,19,145.2,17.4,140.5z M23.3,159.5c5.9,5,12.1,9.6,17.9,14.7c-8-1.2-14.9-3.2-22.3-6.5C20.4,165,21.8,162.3,23.3,159.5z
		 M17.7,169.6c6.1,2.6,12.2,5.2,18.8,6c2.5,0.4,5.3,0.4,7.7,1.2c3.1,1.4,5.9,3.7,8.7,5.5c-8.2-0.1-16.1-0.5-24.1-2.3
		c-4.8-1.1-9.6-2.9-14.3-4.6C15.7,173.5,16.7,171.5,17.7,169.6z M8.8,205c-0.5-9.5,1.3-18.7,5.1-27.4c10.9,4.3,22.3,7,34.1,6.9
		c2.5,0,5.1-0.2,7.6,0.2c3.2,1.3,6.1,3.9,8.9,5.8c6.4,4.7,13.1,9,19.8,13.3c-0.3,8.1,0.3,16.2-0.4,24.3c-2.2,2.1-5.2,3.4-7.8,5
		c-6.9,4-13.9,7.8-20.7,11.9c-0.1-3.7-0.2-7.3-0.4-11c-0.7-0.2-1.4-0.5-2.1-0.8c-0.9,4.6-0.7,9.9-2.3,14.2
		c-3.2,2.6-7.1,4.4-10.6,6.5c-8.7,5.1-17.6,10-26.3,15.2C11.8,247.8,9.7,226.4,8.8,205z M5,278c3.4-3.5,8.3-6.1,12.6-8.4
		c15.4-8.5,30.2-18,45.7-26.3c5.9-3.5,11.8-6.9,17.7-10.3c14-8.9,28.9-16.4,43.4-24.6c3.6-2,7.2-4.2,11-6c3.2-1.6,6.5-2,9.9-2.5
		c-1.8,2-4,3.7-5.7,5.8c-1.5,1.5-0.6,4.5-0.6,6.4c-13.2,7-26.5,14-39.8,21.1c-0.1,12.7,0,25.4-0.1,38c1.7,1.4,3.4,2.8,5.1,4.1
		c-5.9,5.1-11.7,10.2-17.4,15.5c-2.2,2.1-4.8,4-6.4,6.6c-1,2.3-0.7,5.2-0.8,7.6c0.1,9,0,18.1,0.2,27.1c-23.7-14-47.7-27.5-71.5-41.5
		c-2.3-1.4-4.3-3.2-6.3-5C2.7,283.1,3.1,280,5,278z M20.1,422.6c-2.9-0.9-6.6-1.7-8.9-3.8c-2-1.9-2.6-5.2-3-7.8
		c-1.2-9.1-1-18.6,1.3-27.5c1-4,1.7-8.1,2.7-12.1c2.8,1.2,5.4,2.6,8.2,3.8C20.2,391,20.3,406.8,20.1,422.6z M20.2,372.8
		c-2.7-1.2-6.3-2.5-8.1-4.9c-0.9-2.4-0.6-5.3-0.6-7.8c0.6-9.4,1.9-18.7,3-28c1.9,1.2,3.9,2.5,5.8,3.7C20,348,20.7,360.4,20.2,372.8z
		 M28.4,372.3c-0.2,24.6-0.1,49.1-0.1,73.7c-0.1,2.1,0,4.6-0.8,6.6c-1.4,1.9-4.6,1-4.7-1.3c-0.8-6.7-0.1-13.5-0.3-20.3
		c-0.2-19.8-0.1-39.5,0-59.3c-0.2-11.5-0.1-23,0.1-34.5c1,0.2,2,0.5,3,0.7c1-0.3,2-0.6,2.9-0.9C28.4,348.7,28.8,360.5,28.4,372.3z
		 M25.4,335.8c-2.9-1.8-5.9-3.5-8.9-5.2c0.1-8.6-0.3-17.3-0.9-25.9c6.2,3.8,12.5,7.3,18.8,11c0,5,0,9.9,0.1,14.8
		C31.5,332.2,28.5,334,25.4,335.8z M30.8,363.5c-0.2-9.3,0-18.6-0.1-27.8c2-1.2,4-2.5,6-3.7c0.1-5,0.1-10,0.2-15
		c1.7,1,3.4,2,5.1,3.1C38.1,334.5,34.9,349.1,30.8,363.5z M88.1,370.9c3.1,2.9,5.6,6.9,4.1,11.3c-1.4,2.6-5.4,3.7-8.1,2.8
		c-6.6-1.9-11.8-7.8-17.2-10.9c-3.6-1.7-8.5-0.7-12.3-1.7c-1.9-0.4-1.8-2.7-2-4.3c-0.2-5.5,0.9-11,1.3-16.5c4.5,1.5,8.6,2.2,13.4,2
		C73.7,360,81.5,364.7,88.1,370.9z M67,351c-3.9,0.7-8.9,0.1-12.5-1.7c-2-1.1-2.4-4.2-2.5-6.2c-0.1-5.5,0.8-11,1.2-16.5
		c6.1,3.7,12.5,7.2,18.6,10.9C71,341.8,70.7,348,67,351z M140.2,384c-1.8-1.8-1.2-5.5-1.6-7.8c0.9,0.5,1.8,1.1,2.7,1.7
		c1.4,0.9,2.8,1.8,4.2,2.7C144,382.4,143.2,385.6,140.2,384z M214,449.1c-2.6-0.8-3.8-2-2.7-4.8c2.8-6.7,9-12.1,13.2-17.9
		c4.2,2.6,8.4,5,12.7,7.4c0.1,1.9,0.1,3.8,0.2,5.6C231.5,446.1,223,450.1,214,449.1z M257.4,459.6c-3,1.6-6,3.1-8.9,4.8
		c-3-1.7-5.9-3.5-8.7-5.3c-0.1-7.9-0.2-15.8-0.3-23.6c3.5,0.5,7.1,1.4,10.5,0.6c2.7-0.6,5.2-2,7.6-3.3
		C257.5,441.6,257.5,450.6,257.4,459.6z M330.8,453.1c1.4,4.8,3.1,10,3,15c0.1,4.7-5.3,8.5-9.7,6.8c-3.7-1.3-6.8-4.8-9-8
		c-4.1-6-3.3-12.8-7.2-18.8c-1.4-2.5-3.4-5-3.5-8c-0.3-4.7,0.2-9.4,0.4-14.1c2.6,1,5.4,2.3,8.2,2.6c3,0.2,6.1-0.3,9-0.7
		C325.2,436.1,328.2,444.6,330.8,453.1z M321.7,425.7c-5.8,0.8-12,1.8-16.6-2.7c-3.1-3.9-4-9.9-5.3-14.6c8.1-4.7,16.3-9.4,24.3-14.1
		C324.2,405.1,325.8,415.3,321.7,425.7z M375.1,387.9c-3.2,1.6-6.4,3.2-9.5,5c-2.9-1.7-5.8-3.5-8.7-5.2c0-4.1,0-8.2,0-12.4
		c6.1-3.5,12.3-7,18.4-10.6C375.2,372.4,375.2,380.2,375.1,387.9z M385.8,355.7c-2.7,2.1-5.8,3.6-8.7,5.3
		c-15.4,8.9-30.9,17.8-46.3,26.7c-24.2,14.2-48.7,27.9-72.8,42.1c-3.8,2.2-7.4,4.1-11.9,4c-4.5,0.1-8-2-11.7-4.2
		c-5.8-3.6-11.9-6.7-17.8-10.2c-27.2-16.2-54.7-31.9-81.9-48.1C94.3,348.1,54.2,324.5,14,301c-4.1-2.5-8.4-4.4-11.4-8.3
		c-0.3-1.2-0.6-2.3-0.9-3.5c3.9,2.4,7.8,4.9,11.8,7.2c21.3,12.4,42.7,24.6,64,37c16.1,9.6,32.4,19,48.6,28.5
		c3.6,2.2,7.6,3.6,11.3,5.7c32.1,18.7,64.2,37.1,96.3,55.7c4.4,2.7,9,4.6,14.3,4.1c5.1-0.2,8.6-3,12.9-5.4
		c42.8-24.6,85.5-49.1,128.2-73.9C388.3,350.5,388.1,354.1,385.8,355.7z"/>
	<path class="st0" d="M256.7,227.9l-6,4.5c-1.1,0.8-1.3,2.3-0.5,3.3v0c0,0,0.1,0.1,0.2,0l7.8-5.9c0.4-0.3,0.5-0.9,0.2-1.3L258,228
		C257.7,227.6,257.1,227.6,256.7,227.9z"/>
</g>
<g id="Layer_3">
	<path class="st0" d="M279.4,287.6c-5.8-6.3-15.1-7.1-23-5.1c-5.7,1.5-11.6,5.9-11.1,12.5c0.6,6,6,8.7,11.2,10.3
		c7.9,1.6,16.3,1.6,22.5-4.3C282.8,297.6,283,291.2,279.4,287.6z M275.1,301.1c-3.7,2.7-8.8,2.9-13.1,2.7c-3.8-0.1-7.5-0.9-10.6-3.3
		c-1.2-1.1-2.1-2.7-1.3-4.3c1.3-2.6,4.7-4,7.3-4.8c4-1,8.4-0.9,12.4-0.1c3.1,0.8,6.3,2.4,7.5,5.6C277.3,298.8,276.6,300,275.1,301.1
		z M271.5,289.4c-5.2-1.4-11-1.4-16.1,0.2c-3.7,1.2-5.9,3.7-8.7,6.1c1.1-3.2,1.8-6.1,4.7-8.2c6.1-4.6,15.8-4.6,22.5-1.3
		c4,2,5.3,5.5,6.6,9.5C277.6,293.2,275.3,290.4,271.5,289.4z"/>
	<path class="st0" d="M148.5,285.5c-5.5-6.2-13.2-6.9-21-5.8c-5,0.8-10.2,3.7-12.5,8.4c-1.8,4-0.4,8.5,2.8,11.2
		c5,4.7,11.7,5.5,18.3,4.9c4.3-0.3,8.5-2.7,11.8-5.4C151.5,295.3,152.1,289.2,148.5,285.5z M120.4,298.5c-1.3-1.5-2.5-3.4-1.1-5.2
		c2.1-3.3,7.5-4.2,11-5.3c0,4.8,0,9.6,0.1,14.4C127.1,301.6,123,301.1,120.4,298.5z M144.5,298.4c-3,2.1-6.3,3-9.8,4
		c0-4.7,0-9.4-0.1-14.1c3.7,0.9,8.7,1.8,11.1,5.1C147.1,295.1,146.1,297.1,144.5,298.4z M139.2,286.7c-4.1-0.8-9.3-0.9-13.5,0
		c-4.3,1-6.9,3.8-10.1,6.5c0.9-2.5,1.5-5.3,3.4-7.1c3.2-3,7.5-4.4,11.8-4.5c5.2-0.1,10.3,0.5,14.4,4c2.3,2,3,5,4,7.8
		C146.1,290.6,143.7,287.6,139.2,286.7z"/>
	<path class="st0" d="M376.9,337.1c-2.5-4.9-10-5.4-14.6-3.8c-3.5,1.2-6.7,4.2-4.8,8.2c2.6,4.8,10.2,5.5,14.8,3.8
		C375.5,344.2,378.9,340.8,376.9,337.1z M374.5,341c-1.6,2.2-4.7,2.7-7.5,2.9c-1.8,0-3.6-0.3-5.1-1.1c-2.9-1.6-2.5-5.9,0.5-7.1l0,0
		c3.4-1.4,8.9-1.2,11.7,1.6C375.2,338.3,375.3,339.9,374.5,341z"/>
	<path class="st0" d="M257.4,408.6c-2.5-5.2-10.2-5.7-15-4c-3.4,1.1-6.7,4.8-4.5,8.4c2.9,4.6,10.2,5.3,14.9,3.6
		C255.8,415.5,259.2,411.9,257.4,408.6z M255,412.2c-0.8,1.1-2.2,1.8-3.7,2.3c-3.5,1.1-7.9,0.8-10.7-1.7c-1.1-1-1.3-2.6-0.4-3.8
		c1.1-1.6,2.9-2.4,5-2.8c3.2-0.5,6.8,0,9.3,2.1C255.6,409.3,255.8,411,255,412.2z"/>
	<path class="st0" d="M38.8,277.3c-2.4-4.9-9.8-5-14.3-3.8c-3.6,1.1-6.8,4.2-5.2,8.2c2.5,4.9,9.9,5.5,14.6,4.1
		C37.2,284.9,40.9,280.9,38.8,277.3z M26,283.8c-1.8-0.4-3.7-1.4-4.6-3c-0.6-1-0.3-2.3,0.4-3.1c0.9-1.1,2.2-1.8,3.6-2.2
		c3.1-0.8,8.1-0.6,10.6,2c1.2,1.2,1,3.2-0.2,4.4C33.3,284.2,29.4,284.5,26,283.8z"/>
	<circle class="st0" cx="74.9" cy="40.2" r="2.8"/>
	<circle class="st0" cx="65.8" cy="42" r="2.8"/>
	<circle class="st0" cx="267.6" cy="49.2" r="2.8"/>
	<circle class="st0" cx="257" cy="49" r="2.8"/>
	<path class="st0" d="M272.6,300.8l-16-4.5c-1-0.3-1.5-1.3-1.2-2.2l0,0c0.3-1,1.3-1.5,2.2-1.2l16,4.5c1,0.3,1.5,1.3,1.2,2.2v0
		C274.5,300.5,273.5,301.1,272.6,300.8z"/>
</g>
</svg>
