<?xml version="1.0" encoding="utf-8"?>
<!-- Generator: Adobe Illustrator 22.0.1, SVG Export Plug-In . SVG Version: 6.00 Build 0)  -->
<svg version="1.1" id="Layer_1" xmlns="http://www.w3.org/2000/svg" xmlns:xlink="http://www.w3.org/1999/xlink" x="0px" y="0px"
	 viewBox="0 0 482.1 515.6" style="enable-background:new 0 0 482.1 515.6;" xml:space="preserve">
<style type="text/css">
	.st0{fill:#F8C22C;}
	.st1{fill:#3D0941;}
</style>
<path class="st0" d="M144.5,0h8.7l2.4,0.5c16.1,3.2,28.3,13.4,38.4,25.8c3.4,4.4,6.7,8.2,8.9,13.3c4.4,8.7,8.6,17.4,12.3,26.4
	c10.7-1.1,21.3-2.7,32.1-3.3c3.2-0.1,6.3,0.8,9.4,1.6c0.4,3.5,1.3,7.2,0.8,10.7c-0.6,1.9-2.9,2.8-4.5,3.7c-6.2,3-12.2,6.2-18.4,9.3
	c1,5.3,2.6,10.6,3.1,15.9c0.4,2.8-1,4.8-2.7,6.8c-3.1,3.3-6.6,6.4-10.2,9.3c-0.2-0.5-0.5-1.1-0.7-1.6c3.6-3.1,7.5-6.2,10.5-10
	c2.1-2.6,0.9-6.4,0.5-9.4c-0.7-3-0.9-6.5-2.2-9.3c-5.1,1.3-9.8,4.2-14.6,6.4c-0.9-0.4-1.8-0.8-2.8-1.2c1.2,7.8,1.8,15.6,1.6,23.4
	c3.9-3.2,7.9-6.3,11.8-9.6c1-1,2.7-2.3,2.8-3.9c0.3-3-0.2-6.2-0.3-9.2c-0.1-1.1-0.2-3.3,1.4-3.4c1,3.7,1.1,7.9,1.1,11.8
	c-0.1,4-3.1,5.8-5.8,8.1c-19.6,15.6-38.9,31.7-58.7,47.1c-1.1-3-2.1-6.1-2.7-9.2c-2.3-10.6-4.9-21.2-7.1-31.9
	c-1.3-0.1-2.5-0.2-3.8-0.3c2.5,10.7,4.9,21.4,7.5,32c1.6,6.9,3,13.8,5.1,20.5c2.6-0.3,4.6-0.6,6.5-2.7
	c16.1-16.2,32.3-32.3,48.5-48.4c0.2,2.5,0.1,5,0,7.5c-1.1,11-2.5,21.8-6.2,32.3c-3.9,11.6-10.3,23.3-19.4,31.5
	c-7.3,6.7-16.8,10.3-26.6,10.7c-4.7,0.1-9.3-0.8-14-0.8c-15-0.2-29.9-3.2-43.1-10.4c-9.2-4.8-16.7-11.7-23.4-19.6
	c-4.5-5.4-7.6-11.2-11-17.2c-1.7,0.9-3.5,1.8-5.2,2.7c9,24.8,18.5,49.4,27.5,74.2c2.1,6,5.2,12,2.9,18.5c-1.3,4.1-4.3,6.2-7.2,9.1
	c-1.3,1-0.9,2.7-1.1,4.1c0,21.6-0.1,43.4-0.1,65c-0.7,4.3,4.5,7.2,6.9,10.2c3.8-0.9,7.6-1.7,11.5-2.1c1.8-2.4,4.2-5.1,4.9-8.1
	c-0.3-5.1-2.9-9.7-1.8-15.1c1.3-5.8,3.5-11.4,5.2-17.1c2.2-7.5,5.4-14.5,8.4-21.8c1.8-4.2,3.8-8.7,6.8-12.1c2.9-3,7.6-3.8,11.5-4.6
	c10.9-2.3,21.8-2.9,32.8-3.4c1.1-5.5,2.4-11.1,4.6-16.3c1.6-3.5,4.5-5.3,7.7-7.2c4-2.2,8.1-4.1,12.4-5.6c3.8-1.3,7.8-0.9,11.7-0.7
	c5.7-3.6,11.6-5.4,17.8-8.1c7.4-3.1,14.9-5.6,22.5-8.3c8.1-3,16.6-5.3,25.1-6.9c6.7-1.3,13.4,1.1,19.9,2.6
	c5.8-7.4,12.3-14.1,18.5-21.2c6.2-7.1,13.9-12.3,20.7-18.8c0.3-4.6,1.2-9.1,1.9-13.6c1.1-6.7,0.4-12.9,2.5-19.5
	c1.7-5.1,1.5-10.4,3.4-15.5c3-8,5.5-15.5,11.6-21.7c1.3-9.4,2.3-18.8,2.6-28.3c-0.2-5,4.3-8.2,7.8-10.9c7.5-5,15.2-10,23.5-13.6
	c2.8-1.1,7.1-2,9.3,0.6c3.7,4.4,2.6,11.6-0.8,15.9c-4.1,5.2-9.1,9.6-13.7,14.3c-3.4,3.4-5.1,8.9-6.6,13.4c-2.2,7-2.1,14-1.4,21.2
	c0.6,6,0.5,12,1.1,18c1,8.9-0.6,18-0.5,27c0.1,7.4-0.6,14.7-0.4,22c0,3.8-0.9,7.5-2.9,10.7c-6.1,9.6-14.2,17.1-21.1,25.6
	c7.9-2.6,15.7-5.9,23.1-9.6c4.9-2.4,9.8-6.6,11-12.2c1.5-6.1,2.2-12.7,4.3-18.6c4.4-11.2,10-21.7,15.8-32.2
	c3.3-5.7,6.2-11.6,10.4-16.6c2.5-3,5.2-5.4,6.5-9.3c2-6.6,2.4-13,2.9-19.8c0.3-3,0.6-6.4,2.7-8.8c4.5-5.2,10.3-8.1,16.7-10.4
	c5.9-2.1,8.3-7.8,14.7-9.4c4.1-1.2,11.3-0.6,13.6,3.6c2.2,5.3-1.6,12-4.8,16.2c-5.7,7-16,13.1-20.5,21.5c-2.2,5.2-3,10.9-4.7,16.3
	c-1.4,4.4-0.5,8.5-0.9,13c-0.4,4.7-1.4,9.3-2,14c-1.1,9.7-4.2,19.5-6.4,29c-1.1,4.8-2.1,9.5-3.6,14.2c-2.4,7.6-4.2,15.6-7,23
	c-1.1,2.8-2.5,5.2-4.5,7.4c-5.7,6.6-12.5,12.2-19.4,17.6c-6.4,3.9-13.1,7.2-20,10.1c-9.1,3.8-18.2,7.7-27.4,11.5
	c-6.7,2.8-13.6,4.9-20.5,7.3c-4.7,5.9-10.5,10.3-16.3,15c-11.9,9.4-24.6,17.7-37.3,26.1c-1.2,7-4.6,12.7-7.7,18.9
	c-1.2,2.4-2.6,4.6-4.3,6.7c-5.6,7.4-10.2,15.7-15.8,23.2c-1.7,2.1-3.3,4.1-6,4.7c-5.9,1.5-12,2.2-18,3.2
	c-12.2,1.9-24.6,2.2-36.9,3.9c4.4,2.2,8.9,3.6,13.8,4.2c4.3,0.8,9.8,1.6,12.9,5c2.4,2.6,2.4,5.6,3,8.9c6.2,3.5,12.6,6.4,17.5,11.6
	c6.6,6.7,10.5,16,10.3,25.4c0,12.4,0.1,24.8,0,37.1c3.5,1.7,7.6,3,9.8,6.4c2.3,3.1,1.8,7.7,1.9,11.4c-0.1,5.4,0.3,10.8-0.2,16.1
	c-0.4,3.5-3.5,6-6.6,7.1c-5.3,1.5-10.3,0.4-15-2.1c0,3,0.2,6-0.2,9c-0.7,3.9-4.5,6.4-8.2,7.1c-5,1.1-11.5-0.3-14.8-4.5
	c-1.3-3.9,0.1-8.8-1.3-12.6c-1.9-2.2-5.1-3.5-7.8-4.4c-2.4-0.9-4,0.3-6.1,1.3c-8,4.3-15.9,9-24.2,12.5c-13-7-25.6-14.7-38.5-22
	c-4.2-2.3-8.3-5.3-12.8-7.1c-2.8-0.5-6.1,0.8-8.9,1.3c-5.4,1.2-11.3,2.6-16.9,2.3c-3.7-1.2-7.1-3.7-10.5-5.6
	c-26.5-15.1-53-30.4-79.5-45.5c-1.1-0.7-2.2-1.4-3.1-2.2c-0.6-2.6-0.3-5.4-0.3-8.1c9.6-1.6,20.1-3.6,28.8-8.2
	c-5.1-3.5-11.5-5.4-15-10.7c-2.8-3.8-3.4-8.2-3.4-12.9c0-9.7,0.2-19.3,0.5-29c0-9.6,4.7-18.8,10.9-25.9c2.2-2.6,5.5-4.5,7.4-7.2
	c0.5-3.5,0.2-7.2,0.2-10.8c0-13.7,0-27.3,0-41c0-3.9,0.3-7.9-0.2-11.8c-0.8-3.7-2.5-7.2-3.8-10.8C25.8,221.7,14.5,191,3.1,160.3
	c-2.4-6.9-4-13.9-2.7-21.3c1.8-14.5,12.2-27.9,26-32.8c8.3-2.9,17-1,24.5,3.2c4.4,2.5,7.2,6.3,10.1,10.3c2.3-1.2,4.6-2.5,6.9-3.7
	c-2.8-16-3.5-33.4,1.6-49c2.4-6.9,4-13.6,8.3-19.6c7.4-12.5,18-22,29.9-30.1c7-4.8,14.9-8.6,22.4-12.5C134.7,2.4,139.5,1,144.5,0z"
	/>
<path class="st1" d="M169.6,7.8c3.8,2.5,7.3,5.2,11,7.9c9.4,6.6,16,16.6,21.9,26.2c4.6,7.5,7.4,15.5,10.6,23.6
	c-1.2,0.8-2.3,1.6-3.5,2.3c-5.5-15-12.8-29.6-24-41.1c-6.2-6.3-13.5-12.1-22-15.1c-8.6-3.1-18.6-3.1-27.1,0.4
	c-7.3,3.2-13.5,8.4-18.1,14.9c-10.6,14.4-15.1,33.3-15.6,51c-1.1,27.6,5.6,55.9,20,79.5c7.3,11.2,17.4,22.5,29.6,28.4
	c8.5,3.9,19.2,5.5,28.2,2.4c8.9-2.9,16-9.3,21.4-16.7c8.7-12.2,13.2-27.5,14.6-42.3c1.8-1.8,3.5-3.5,5.2-5.3
	c-0.8,12.3-2.5,25-6.8,36.6c-3.5,9.6-8.7,18.9-15.6,26.4c-8.2,8.6-20.1,13.2-32,12.4c-10.1-0.3-19.6-5.9-27.4-12
	c-14.8-11.9-24.8-28.9-31.5-46.4c-6.1-15-9.3-31.2-10.6-47.3c-0.8-9.9,0-20,1.1-29.9c2.9-18.1,8.5-36.2,21.8-49.5
	c4.9-5.6,11.6-9.1,18.7-11.1C149.6,0.5,160.6,2.5,169.6,7.8z"/>
<path class="st1" d="M162.8,13.6c8.3,2.9,15.3,8.4,21.4,14.7c10.4,10.5,17.6,24.5,22.8,38.2c1.5,3.3-0.6,5.3-1.8,8.2
	c-3.7,0.4-7.5,1-11.2,1.4c-3.8-9.8-8.9-18.8-16.1-26.5c-3.8-4.1-8-7.6-13.3-9.8c-6.7-2.8-14.1-3.5-20.8-0.6
	c-8.7,3.6-14.9,12.1-18.4,20.6c-5.1,13.3-6.8,28.1-4.9,42.2c2.1,18.4,8.5,36.2,20.5,50.5c6.1,7.4,14.6,12.7,24.1,14.2
	c1.5,2.4,2,5.6,5.4,5.7c2.7,0.3,4.4-1.5,6.3-3.2c12.6-12.6,25.1-25.3,37.9-37.8c-1.2,6.6-2.2,12.9-4.4,19.3
	c-3.6,10.9-9.3,21.4-18.1,28.8c-7.6,6.4-17.5,9.8-27.4,7.8c-11.3-1.5-20.1-7.8-27.9-15.7c-14.6-14.7-22.7-34-27.9-53.8
	c-2.8-13-4.6-26.6-3.9-40c0.7-17.4,4.9-35.9,15.4-50c4-5.7,9.4-10.2,15.6-13.3C144.4,10.7,154.1,10.5,162.8,13.6z"/>
<path class="st1" d="M120,12.1c-3.7,4-7.2,7.9-10,12.6c-4.9,7.7-7.8,16.1-10.3,24.9c-1.8,7.2-3.3,14.3-3.6,21.7
	c-2.1,21.3,1,43.1,7.7,63.3c5.2,14.8,11.8,29.1,21.8,41.3c7.7,10,17.8,17.7,29.1,23.1c-9-0.9-17.8-1.9-26.5-4.8
	c-16.9-5.4-31.5-16.8-41-31.9c-2.3-3.7-4.4-7.6-6.7-11.3c-3.9,2-7.9,4.8-12.1,6c-5.5,1.9-12.4-0.4-15.8-5.1
	c-5.6-8.2-4-20.5,3.8-26.8c4-3.4,9.1-5,13.1-8.1c0.2-3.9-0.9-8-1.1-11.9c-0.9-10.4-1-21.6,1.4-31.8c3.2-12.7,8.4-24.7,17-34.8
	C95.7,27.5,107.8,19,120,12.1z"/>
<path class="st1" d="M170,45.3c10.2,7.9,17.3,19.3,21.9,31.2c-11.9,1.5-23.8,3.4-35.8,5c-7,0.6-12.6,6.5-13.1,13.4
	c-0.4,5.5,0.5,11.2,3.5,15.9c1.8,3.1,4.6,4.7,7.5,6.6c3.6,15.8,7.3,31.5,10.9,47.2c-9.2-2-16.5-6.4-22.6-13.6
	c-13.6-16.3-19.6-37.1-20.6-58.1c-0.2-11.2,1.6-22.6,5.7-33.1c3.6-8.2,9.8-16.4,18.5-19.3C153.9,37.7,163.3,40.6,170,45.3z"/>
<path class="st1" d="M404.9,41.4c1.9,2.2,1.7,5.9,1.4,8.6c-0.8,4.5-5.3,8.3-8.3,11.5c-3.6,4-8.1,7.4-11.3,11.7
	c-2.6,4.7-3.6,10.4-4.7,15.6c-1.2,5.4-0.8,10.7-0.5,16.1c1,12.6,0.8,25.4,0.8,38c0,8.4-0.2,16.8-1,25.1c-0.4,4.5-0.8,9.2-2.5,13.4
	c-2.3,5.3-6.4,9.6-10.1,13.9c-4,4.8-8.6,8.9-12.5,13.8c0.8,0.6,1.5,1.2,2.3,1.7c11.4-4.4,23.9-8.8,33.9-15.9
	c5.1-6.5,4.6-17.9,7.4-25.6c4.9-13.1,12-25.9,18.9-38c3.5-6,6.5-11.7,12.4-15.8c1.6-4.5,3.2-9.1,4-13.8c0.9-5.6-0.3-13.4,2.4-18.7
	c3.7-5.4,11.2-8.5,17.1-10.8c3.6-1.4,5.8-4,8.7-6.4c3.8-3.3,9.6-3.9,14.1-2c1.7,0.7,2.7,2.2,2.8,4.1c0.1,3.1-1.5,6.3-3,8.9
	c-3.9,7-11,11.1-16.7,17.2c-3.2,3.2-5.9,6.5-7.2,10.9c-1.7,5.4-3.3,10.9-4.5,16.5c-0.7,3.6,0.1,7.3-0.3,11
	c-2,17.9-6.6,34.8-10.7,52.3c-2.6,8.4-4.8,16.9-7.6,25.1c-2.6,7.3-7.7,11.7-13.1,16.9c-4.2,4.1-9,7-13.8,10.3
	c-4.3,2.9-8.9,5.3-13.7,7.3c-16.9,7-33.3,14.7-50.9,20c-3.3,4.1-7,7.6-11.1,10.9c-9.1,7.7-19,14.5-28.8,21.3c-4.7,3.3-10,6-14.3,9.8
	c-2.7,10.3-7.7,20.3-14.3,28.7c-4.2,6.1-8.1,12.5-12.4,18.6c-1.3,1.7-2.8,4-4.8,5c-3.4,1.3-7.2,1.6-10.8,2.3
	c-13.8,2.5-28,3.3-42,4.8c-2.6,0.1-6.4,0.8-8.4-1.1c-2.3-2-4.4-4.5-6-7.1c-2.1-3.4-2.3-8.3,0.4-11.5c2.2-2.4,5.9-3.3,9-3.9
	c11.4-2.1,23.2-1.7,34.6-3.6c3.8-0.7,5.6-3.4,7.7-6.2c3.8-5.5,7.6-11,11.1-16.6c-6.3-2.6-12.5-3.1-19.1-4.7
	c-0.8-3.1-1.6-6.1-2.4-9.2c3.3-1.6,6.4-3.2,8.7-6.2c3-3.6,3.6-7.8,4.2-12.2c3.7-4,7.3-8.1,10.7-12.4c6.4,3.7,12.7,7.9,19.2,11.4
	c3.8,2.3,7.6-1.1,10.9-2.7c22.9-12.5,46-24.7,69-37.1c1.9-1.2,3.7-2.3,4.5-4.6c0.3-4.6-2.4-9.3-5.5-12.5
	c-5.1-5.2-11.8-8.3-18.2-11.7c-8-4.1-16.2-7.2-24.5-10.7c6-7.1,12.3-13.9,18.5-20.9c5.4-6,11.8-10.8,17.9-16c3.5-2.8,3-7.1,3.9-11.2
	c1.3-7.3,1.9-14.5,2.4-21.9c1.8-11.4,5.3-22.8,10.8-33c1.7-3.4,5.6-6.2,5.8-10c1.1-9,2-18,2.3-27.1c0.5-3.8,4.8-6.9,7.7-9
	c6.9-4.6,14-8.9,21.5-12.4C399.4,40.5,402.6,39.4,404.9,41.4z"/>
<path class="st1" d="M246.5,64.1c0.6,5.1,1.6,9.4,3.7,14.1c-10.5,5.6-21.2,10.6-31.9,15.9c-3.1-1.6-6.7-3.2-8.7-6.2
	c-2.2-3.4-3-7.8-2.5-11.8c0.3-3.4,3.1-5.6,5.3-7.9C223.8,67,235.2,65.6,246.5,64.1z"/>
<path class="st1" d="M249,63.9c1.9,0.7,4.2,1.3,5.6,2.8c1,1.9,1.3,4.2,1.2,6.3c0.3,2.2-2.4,3.3-3.8,4.6
	C250.4,73.1,248.7,68.7,249,63.9z"/>
<path class="st1" d="M204.7,76.8c0.3,6.1,1.5,10.5,5.5,15.1c-14.6,7-29.2,14-43.8,21.1c-3.3,1.5-6.3,3.6-10,2.7
	c-5.6-1.3-9.1-5.8-10.5-11.2c-1.1-4.5-1.7-10.1,0.6-14.4c2.1-3.8,5.6-6,9.9-6.5C172.5,81.4,188.6,79,204.7,76.8z"/>
<path class="st1" d="M233.2,89.7c1.3,2.8,1.5,6.3,2.2,9.3c0.4,3.1,1.6,6.8-0.5,9.4c-3,3.8-6.9,6.9-10.5,10c0.2,0.5,0.5,1.1,0.7,1.6
	c-1.3,2.2-1.1,4.4-1.4,6.8c0.1-2.5,0.1-5,0-7.5c-16.1,16.1-32.4,32.3-48.5,48.4c-1.9,2.1-3.8,2.4-6.5,2.7
	c-2.1-6.7-3.5-13.6-5.1-20.5c-2.5-10.7-4.9-21.4-7.5-32c1.3,0.1,2.5,0.2,3.8,0.3c2.2,10.7,4.9,21.2,7.1,31.9
	c0.7,3.1,1.6,6.2,2.7,9.2c19.8-15.4,39-31.5,58.7-47.1c2.7-2.3,5.7-4.1,5.8-8.1c0-3.8-0.1-8.1-1.1-11.8c-1.6,0.1-1.5,2.3-1.4,3.4
	c0.2,3,0.6,6.2,0.3,9.2c-0.2,1.5-1.8,2.9-2.8,3.9c-3.9,3.3-7.9,6.3-11.8,9.6c0.2-7.9-0.4-15.7-1.6-23.4c0.9,0.4,1.8,0.8,2.8,1.2
	C223.3,93.9,228.1,91,233.2,89.7z"/>
<path class="st1" d="M213.1,92.9c2.1,9,2.3,17.8,2.2,27.1c-5.6,4.6-11.2,9.1-16.8,13.7c3.1-11.4,2.6-22.9,1.5-34.5
	C204.4,97,208.7,94.8,213.1,92.9z"/>
<path class="st1" d="M198.2,100c0.5,11.7,1.4,22.5-1.9,34.1c-0.5,2-2.6,3.5-4.1,4.8c-7.3,5.7-14.4,11.6-21.6,17.3
	c-3-12.8-5.7-25.7-8.8-38.6C173.9,111.7,186.1,105.9,198.2,100z"/>
<path class="st1" d="M38.4,106.5c-4.2,1.7-8.3,2.7-12,5.5c-7.6,5.4-12.2,14.6-11.6,23.9c0.3,6.1,2.7,11.2,4.8,16.8
	c11.8,30.6,23.5,61.2,35.2,91.8c1.4,3.6,3.1,7.3,3.8,11c0.8,6.4-1.4,12.2-5.7,17c-2.7-1.3-5.9-2.8-7.8-5.2c-1.6-2.2-2.5-5-3.5-7.5
	c-12.1-32.9-24.2-65.8-36.4-98.7c-2.6-6.8-4-13.8-3.1-21.1c1.3-13.6,10.4-25.8,22.8-31.3C29.4,106.8,33.8,106.7,38.4,106.5z"/>
<path class="st1" d="M44.2,108.6c6.9,1.6,11.3,6.3,15.2,11.8c-3.6,2.4-6.4,5-9.2,8.3c-5.2,0.1-10,0.7-14.2,4
	c-7.3,5.4-9.9,15.6-6,23.8c3.2,6,8.7,9.6,15.2,11.2c9.3,23,18.2,46.2,27.3,69.3c2.2,5.6,4.1,11,3.7,17.1c-0.3,6-1.8,13.1-7.2,16.6
	c-4.3,2.9-8.8,2.6-13.7,2.6c2.8-3.7,5-7.4,5.4-12.2c1.1-6.6-1.7-11.5-3.9-17.4c-12.5-32.5-25-65.1-37.5-97.6
	c-2.7-6.7-3.3-14.1-0.7-20.9C22.5,115.1,33.4,108.1,44.2,108.6z"/>
<path class="st1" d="M49.3,130.4c-2.9,7.8-3.1,15.9,1.8,22.8c2.9,4.1,7.1,5.2,11.6,6.7c-3.5,2.6-7.8,6.2-12.3,6.1
	c-5.7,0-11.7-2.2-15.6-6.4c-6.8-6.5-5.7-18.9,1.5-24.7C40.1,131.6,44.5,131,49.3,130.4z"/>
<path class="st1" d="M73.1,157.7c9.8,25.5,19.2,51.2,28.7,76.8c1.5,4.2,2.9,8.2,1.8,12.7c-1,3.9-3.6,6.4-6.4,9.1
	c-0.6-6.5-1.3-12.6-4.7-18.4c-2.7-4.5-6.2-7.2-7.9-12c-7.7-20.8-15.5-41.6-23.3-62.4C64.7,159.8,68.3,158.7,73.1,157.7z"/>
<path class="st1" d="M59.7,165.2c7.8,20.4,15.2,40.9,23,61.2c-4.4-3.1-9.1-5.5-13.9-8c-1.9-0.9-2.4-2.7-3.2-4.6
	c-5.7-14.9-11.6-29.7-17.4-44.6C52.1,168.2,55.9,166.8,59.7,165.2z"/>
<path class="st1" d="M283.4,202.2c7.9-1.5,16.7,1.1,24.2,3.7c13.4,5.4,27.7,11.2,39.2,20c-23.2,10.7-46.3,21.4-69.5,32.2
	c-13.1-7.3-26.6-14-40-21c-3.6-1.9-5.5-4.9-8.5-7.5c-2.5-2.3-5.2-3.8-8-5.5c7.8-3.5,15.8-6.6,23.8-9.8
	C257.6,209.7,269.8,204.7,283.4,202.2z"/>
<path class="st1" d="M68.3,220.5c6.8,3.3,14.3,7.3,19,13.5c5.4,6.4,8.3,15.5,7.3,23.9c-5.6,2.1-11.7,2.8-17.5,4.2
	c1.2-5.8,1.9-11.4,0.3-17.2C75.1,236.6,71.1,228.7,68.3,220.5z"/>
<path class="st1" d="M210.4,225.2c6.2-1.4,12.4,1.9,17,5.8c5.6,4.7,7.6,10.7,11.5,16.5c3.5,5.4,8.8,9.1,12.3,14.5
	c-0.9,3.4-1.3,6.6-3.5,9.5c-3.7,4.9-8.1,9.2-12.3,13.6c-0.7-4.6-1.4-8.9-4.4-12.7c-3.2-3.9-7.9-5.5-12-8.1c-3.6-2.3-6.2-6-9.9-8
	c-4-2.1-8.7-2.2-13.1-2.6c-2.3,6-4.3,11.8-4.1,18.4c0.1,7.6,3.7,14.2,8.2,20.1c-3.1-1.9-6-3.9-8-6.9c-4.6-6.8-7.1-15.1-7.9-23.2
	c-0.2-8.3,1.6-16.8,4.8-24.5c1.6-3.5,4.8-5.1,8-6.9C201.3,228.5,205.7,226.3,210.4,225.2z"/>
<path class="st1" d="M348.3,227.4c1.9,3.2,4.2,6.5,4,10.4c-1.6,2.3-4.8,3.6-7.1,4.9c-19.4,10.2-38.6,20.7-57.9,31
	c-3.6,1.9-7.2,3.9-10.8,6.1c3.2-7,3.8-12.6,2.2-20.1C301.9,248.9,325.1,238.2,348.3,227.4z"/>
<path class="st1" d="M236.1,238.8c13.5,7,26.9,13.9,40.3,21.1c1,4.3,1.4,8.6,0.4,12.9c-0.7,3.1-2.2,5.9-3.6,8.8
	c-7.4-3.6-14.3-8.3-21.4-12.5c0.4-2.6,1.3-5.5,0.8-8c-1.2-3.3-4.4-6-6.8-8.5C241.7,248.6,238.9,243.8,236.1,238.8z"/>
<path class="st1" d="M182.2,255c-0.8,10.7,2.1,21.7,8,30.7c-2.5-1.7-4.6-3.4-7.7-3.6c-6-0.6-12.1-0.2-18.1,0c-2.4,0.4-5.4,0-6.1,2.9
	c-3.4,10.5-6.9,21-10.6,31.4c-1.8,5.1-5.4,8.5-10.2,10.9c-3.8,2.4-7.8,1.6-11.9,0.5c-1.4-0.5-3-0.6-3.5-2.2
	c-1.8-4.5-3.1-10-1.8-14.7c1.3-4.9,3.1-9.7,4.6-14.6c2.5-8.6,6.3-16.8,9.7-25.1c2.4-4.9,4.4-10.1,10.3-11.6
	C156.9,256.5,169.8,255.4,182.2,255z"/>
<path class="st1" d="M197.7,256.1c3.8-0.3,7.9,0.4,11.2,2.4c2.7,1.8,4.9,4.4,7.5,6.4c3.8,2.9,8.8,4.4,12.2,7.9
	c2.7,2.7,3.6,6.6,4.7,10.2c-2,3.6-3.8,7.2-7.2,9.8c-3.8,2.8-8.7,3.9-13.3,2.6c-3.6-1-6.9-3.1-10.1-4.9c-3.9-2.2-5.4-6-7-10
	C192.6,272.9,194.1,263.4,197.7,256.1z"/>
<path class="st1" d="M94.9,260.4c-0.1,22.2-0.1,44.4-0.3,66.6c-0.5,5.2,3.7,7.1,6.8,10.4c-14.3,5.2-27.8,14.6-35.7,27.9
	c-6.6,10.7-9.1,24.3-8.7,36.8c-4.5,3.8-9.2,6.8-14.5,9.4c-3.9-2.3-8-4.3-11.7-6.9c-4.1-3-6.5-7.5-6.6-12.6c-0.2-6.6,0.2-13.3,0.2-20
	c0.2-7.6-0.8-15,1.8-22.2c2.5-7,6.9-13.6,12.7-18.3c1.3-1.2,3.1-2.4,3.9-3.9c0.5-2.8,0.3-5.7,0.3-8.5c-0.2-16.9,0.2-33.9-0.2-50.8
	c3.3,2.9,6.6,5.6,11,6.6c6.9,1.5,15.1,0.3,19.5-5.7c1.5-1.6,2.6-4.6,5-5C83.8,262.6,89.4,261.7,94.9,260.4z"/>
<path class="st1" d="M160.9,284.6c4.7-1,9.7-0.6,14.4-0.9c4,0.1,9.4-0.3,12.4,2.8c3.3,3.4,3.4,9.7,6.8,13.1c4,4,9.8,5,13.8,9.2
	c3.2,3.5,7.4,4.2,11.9,5c4.1,0.6,7.7-1,11.8-0.4c4.6,0.8,9.1,2,13.7,2.8c-3.4,5-6.7,10.1-10.2,15c-1.8,2.4-3.4,4.6-6.5,5.1
	c-11.8,1.9-24.9,1.2-36.9,4.1c-3.1,0.7-5.5,2.4-8.1,4.2c-7.6,1-14.4,0.5-21.4,4.1c-8.3-4.5-16-9.6-25.3-12.2c-0.3-2-0.7-4.1-1-6.1
	c3.2-2.5,7.3-4.5,9.8-7.7c2.6-3.2,3.8-7.1,5.1-11c2.4-7.3,5.1-14.4,7.3-21.8C159.3,288.3,159.9,286.3,160.9,284.6z"/>
<path class="st1" d="M238.3,285.5c-1.8,5.2-3.4,9.9-8.6,12.8c-5.1,2.5-12.1,1.7-17.5,0.7c-3.3-0.5-5.2-2.6-7.4-4.8
	c3.1,1.4,6,2.9,9.4,3.5c3.6,0.7,7.1-0.2,10.4-1.6c3.4-1.5,5.6-4.5,8.1-7.2C234.6,288,236.5,286.8,238.3,285.5z"/>
<path class="st1" d="M190.6,286.4c1.4,1.7,2.8,3.5,4.5,4.9c2.2,1.7,5.3,2.4,7.9,3.2c1.4,1.9,2.9,3.7,4.5,5.5
	c-0.2,1.6-0.5,3.2-0.7,4.8c-3.6-2-8.3-3.8-11-7C193.3,294.4,192.3,290.1,190.6,286.4z"/>
<path class="st1" d="M209.6,300.7c5.2,0.9,10.3,1.5,15.5,1.3c0.8,3.2,1.6,6.4,2.4,9.6c-6.5,1-15-0.1-19.3-5.7
	C208.7,304.2,209.2,302.5,209.6,300.7z"/>
<path class="st1" d="M121.8,329.2c4.3,0.5,8.5,1.6,12.9,1.8c0.4,3.7,0.8,7.4,1.2,11.1c-1.8,2.6-3.5,5.2-5.2,7.8
	c-0.3-2.5,1.6-8.4-2.4-8.5c-4.4,5.2-6,12.1-10.2,17.5c0.6-3.6,1.6-7.3,1.7-11c0.3-3.3-2.8-5.3-4.7-7.5
	C116,336,118.6,332.4,121.8,329.2z"/>
<path class="st1" d="M113.3,337c0,1.6,0.1,3.3,0.1,5c-4.6,1.5-9.2,3.2-13.5,5.6C89.8,353,81.6,362,76.8,372.4
	c-1.6,3.4-1.6,7-3.7,10.2c-3.9,6.4-8.7,12.3-14,17.5c-0.1-14.4,3.4-28.6,12.6-39.9C82.1,347.7,97.1,339.3,113.3,337z"/>
<path class="st1" d="M137.8,338.9c8.5,2.7,15.7,7.3,23.4,11.5c-2.1,2.1-4.2,4.3-6.2,6.5c-6.9,1.1-13.4,2.2-19.8,5
	c-4.1,1.8-7.4,4.5-11,7.2c1.8-5.4,3.5-10.8,5.6-16.2c3.4-2.8,6-6.2,8.1-10.1C137.8,341.5,137.8,340.2,137.8,338.9z"/>
<path class="st1" d="M115.5,343.5c0.9,1.2,2.4,2.9,2.2,4.5c-0.3,4-1.5,7.9-1.8,11.9c-0.4,5.3-2.1,10.3-3.7,15.4
	c-2.3,1.8-5.8,3.8-6.9,6.6c0.2,3,1.6,6.1,2.6,8.9c1.3-2.1,2.7-4.2,4-6.3c1.3,0.3,2.7,0.6,4,0.9c0.4,2.3,0.5,4.7,0.7,7.1
	c1.7-1,3.3-2.3,4.8-3.5c3.1-2.7,0.9-7,4-10.1c9.7-10.2,23.3-14.2,37.2-13.4c0.9,1.9,1.4,4.9,3.7,5.6c4.4,1.8,9.4,3,14.1,3.3
	c2.6,0.3,4.7-1.4,6.9-2.6c6,2.5,11.7,5.8,18.1,6.6c3.3,0.6,7.2,0.8,10.3,2.3c1.8,0.7,1.4,3.6,2.2,5.1c-2.4,1.3-4.5,2.7-7.4,2.7
	c-4.2,0.4-8.6-0.7-12,2.4c-3.3,2.7-2.9,8.3-3.3,12.1c-1.3,1.2-2.6,2.5-3.9,3.8c-0.4-1.2-0.9-2.4-1.4-3.6
	c-4.7-13.6-23.8-18.9-35.6-11.4c-8.5,4.9-13.2,12.6-18.4,20.5c-19.6-11.6-39.4-23.1-59-34.7c2.2-6,5.4-11.8,9.6-16.6
	C94.1,352.1,104.4,346.7,115.5,343.5z"/>
<path class="st1" d="M129.3,343.5c-1.3,10.6-6.1,21.1-9.2,31.3c-1.5,3.3,1.5,6.7,1.4,10.3c-0.4,1.6-1.8,2.9-2.7,4.3
	c-0.1-1.6-0.2-3.2-0.3-4.7c-2.3-0.9-4.4-2.4-7-1.7c-1.2,0.7-2.2,2-3.2,2.9c-0.4-1.3-0.7-2.6-0.9-4c2.2-1.8,4.6-3.5,6.9-5.2
	c2-6.1,2.7-13.3,6.6-18.3C124.2,353.7,125.9,348.2,129.3,343.5z"/>
<path class="st1" d="M183,347c-0.4,2.7-1,5.6-0.2,8.3c1,3.6,3.6,6.3,6,9.1c-1.5,2.5-3.4,7.4-6.5,8.1c-5.5,0.2-11.3-1.8-16.5-3.6
	c-0.6-3.9-0.8-8.1-2.2-11.8c-1.8-0.4-3.7-0.6-5.5-0.8c3.3-3.1,7-6.9,11.6-7.7C174,347.8,178.5,347.4,183,347z"/>
<path class="st1" d="M162.2,358.5c0.2,1.7,0.3,3.3,0.5,5c-9-0.3-17.8,0.8-26,4.8c-6,2.8-10.4,7.1-15.2,11.5c0.5-3.1,0.2-6.5,2.9-8.6
	c4.6-3.5,9.6-7.2,15.2-8.9C146.9,360,154.5,358.8,162.2,358.5z"/>
<path class="st1" d="M190,366.6c6.1,2.7,11.7,5.6,18.4,6.8c4.3,0.9,10,1.2,13.6,4c4.1,3.4,4.1,9.8,0.2,13.3
	c-4.6,4.4-9.9,3.3-15.6,4.4c-3.4,1.5-6.3,4-9.3,6.1c0.7-3.1,0.5-8.1,3.9-9.5c4.3-1.8,11.2,0.3,15.4-2.5c3.3-2,4.3-7,1.2-9.6
	c-3.1-2.4-8.1-2.6-11.8-3.2c-6.4-0.9-12.1-4-18-6.6C188.6,368.8,189.3,367.7,190,366.6z"/>
<path class="st1" d="M77.1,380.4c2.9,1.3,5.5,3.1,8.2,4.7c27.9,16.4,55.8,32.8,83.7,49.2c0.6,1.5,1.1,3.1,1.7,4.6
	c-4.1,6.6-8.2,13.4-13.5,19.1c-6,6.3-12.6,11.8-20.6,15.4c-6.7,3.2-13.6,4.6-20.8,5.9c-3.4,0.5-7.1,1.2-10.5,0.8
	c-3.3-1-6.3-3.1-9.3-4.8c-27.5-15.8-55.1-31.5-82.6-47.3c0-1.9,0.1-3.7,0.1-5.6c15.1-2.1,29.6-7.1,41.8-16.3
	c6.1-4.8,11.5-10.7,15.9-17C73.3,386.2,75,383.1,77.1,380.4z"/>
<path class="st1" d="M227.2,388.4c1.3,0.3,2.6,0.9,3.8,1.4c-2.2,0.1-4.4,0-6.5-0.2C225.4,389.2,226.3,388.8,227.2,388.4z"/>
<path class="st1" d="M183.4,396.9c3.3,3.1,4.8,7.6,6.4,11.8c-1.4,1.6-2.8,3.2-4.2,4.9c-1.1-4.1-1.9-7.8-4.7-11.2
	c-3.1-4-8.6-5.5-13.5-5.7c-4.9-0.2-9.3,2.1-13.1,5c-4.9,3.8-8.1,9.6-11.2,14.8c-1.8-1-3.5-2.1-5.3-3.1c4.7-7.2,9.3-14.7,16.8-19.2
	C163.2,388.4,175.8,390,183.4,396.9z"/>
<path class="st1" d="M224,392.1c3.5,0,7.5-0.5,10.9,0.4c4.3,1.7,7.9,5.7,11.1,8.9c-4.5-1.8-8.7-3.6-13.7-3.5
	c-7.5,0.1-14.3,4.5-20.1,8.8c-16,12.2-26.3,30.6-29.4,50.3c-0.9,8.1,0,16.6-0.1,24.8c-0.2,7.8-0.3,15.6-0.4,23.5
	c-16.6-9.2-32.9-19-49.4-28.3c8.1-3.1,15.1-7.4,21.3-13.4c8.1-7.1,13.4-15.8,18.9-25c-0.5-1.1-0.9-2.1-1.4-3.2
	c5.6-4.9,8.6-11.9,13.3-18.1c5.9-7.6,12.1-14.4,20.4-19.5c2.7-1.8,6.8-1.2,10-1.9C218.8,395.8,221.3,393.9,224,392.1z"/>
<path class="st1" d="M176.9,401.5c4.9,3.5,5.7,8.8,6.9,14.2c-4.1,5.8-7.7,12.1-12.2,17.6c-8.9-5.2-17.8-10.5-26.8-15.7
	c3.8-6.2,6.9-12.1,13.3-16C163.5,397.9,171.3,398.1,176.9,401.5z"/>
<path class="st1" d="M248.8,406.5c3.5,4.8,4.4,11.7,4.3,17.5c0,11.6,0,23.2,0.1,34.8c-1.6-0.7-3.1-1.4-4.7-2.2
	c-0.1-3,0.2-6.3-0.6-9.2c-1.1-3.4-5-5.3-8.4-4.3c-3.2,1.1-6.2,3.1-9.2,4.7c-8.8,4.9-17.6,9.7-26.5,14.5c-2,1.2-4.3,2.5-5.5,4.7
	c-1.1,2.4-1,5.3-1.1,7.9c0.1,7.6,0.1,15.3,0.1,22.9c-4.3,2.3-8.6,4.6-13,6.9c0.1-11.3,0.6-22.6,0.2-33.8c-0.1-5.7-0.3-11.4,0.9-17
	c1.4-6.6,3.7-13.2,6.5-19.4c6.6-13.3,17.5-25.3,30.8-32.1C231.2,398.1,242.2,400,248.8,406.5z"/>
<path class="st1" d="M245,446.4c1.9,2.2,1.2,6.5,1.5,9.3c-3.2-1.4-6.6-3.6-10.1-3.9c-3.6,0.7-6.8,3.4-8.9,6.3
	c-2.4,3.3-2.8,7.1-3.5,11c-3-1.5-5.9-2.9-8.9-4.3c-4.8,2.3-9,4.8-11.1,9.9c-2.7,5.9-2.4,14.3,4,17.8c-2.9,1.4-5.8,2.9-8.6,4.4
	c0-7.6,0-15.2,0-22.9c0.1-1.9,0-4.3,0.9-6c1.2-2,3.8-3.2,5.7-4.4c10.4-5.6,20.6-11.3,30.9-17C239.7,445.1,242.4,444,245,446.4z"/>
<path class="st1" d="M236.5,454c5.8,1.3,11.3,4.8,16.7,7.2c3.7,2,9.5,3.7,10.9,8.1c0.9,4.8,0.3,9.9,0.5,14.7
	c-0.1,3.8,0.4,8-0.5,11.7c-1.5,3.4-6.4,4.5-9.7,4.4c-3.5,0.1-6.2-1.4-9.3-2.9c0-5.9,1.3-14.1-3.2-18.7c-4.1-4-10.8-5.2-15.5-8.6
	C225.8,463.2,229.6,455.7,236.5,454z"/>
<path class="st1" d="M215,467.1c6.3,2.7,12.3,5.9,18.6,8.7c2.5,1.2,5.6,2.4,7.4,4.6c2.5,3.3,2.2,7.7,2.2,11.6c-0.1,5,0.1,10-0.3,15
	c-0.1,3-2.7,5.1-5.3,6c-4.6,1.6-10.7,0.7-14.1-3c-1-4.1,0.3-9.6-1.8-13.2c-3.6-4.1-10.8-4.8-15-8.1c-2.2-2.3-2.4-6.7-1.9-9.7
	C205.8,473.3,209.7,469.3,215,467.1z"/>
<circle class="st0" cx="200.1" cy="273.3" r="2.6"/>
<circle class="st0" cx="209.6" cy="267.9" r="2.6"/>
</svg>
