<svg xmlns="http://www.w3.org/2000/svg" viewBox="0 0 115.8 123.76"><defs><style>.a{fill:#f4bf30;}.b{fill:#3d0941;}.c{fill:#f3bd2d;}.d{fill:#f3be2d;}.e{fill:#f1c144;}.f{fill:#f1c140;}.g{fill:#f2c142;}.h{fill:#f0c044;}.i{fill:#a891aa;}.j{fill:#3d0a41;}.k{fill:#3e0a41;}.l{fill:#3f0b40;}.m{fill:#3f0b41;}.n{fill:#400c40;}.o{fill:#3e0b41;}.p{fill:#441040;}.q{fill:#410d40;}.r{fill:#d39e30;}.s{fill:#451140;}.t{fill:#dfaa2f;}.u{fill:#edb82d;}</style></defs><title>build</title><path class="a" d="M115.8,17c-.8,2.35-2.67,3.82-4.41,5.39a9.09,9.09,0,0,0-2.5,4.1c-.87,2.66-.64,5.42-1.13,8.11-.81,4.43-2.09,8.73-3.11,13.1a14,14,0,0,1-6,8.47,2.38,2.38,0,0,1-1.61.65c0-.59.47-.82.85-1.06a24.33,24.33,0,0,0,3.73-3.37A5.9,5.9,0,0,0,103.12,50a95.05,95.05,0,0,0,4.23-18.43,37.07,37.07,0,0,1,.93-5.64c.65-2.46,2.43-4,4.22-5.51a7.85,7.85,0,0,0,2.22-2.93c.52-1.22,0-1.94-1.28-2a2.8,2.8,0,0,0-2.2.77A7.46,7.46,0,0,1,108.4,18c-.42.15-.78.42-1.18.59a3.79,3.79,0,0,0-2.38,3.81,10,10,0,0,1-.16,2.5,9,9,0,0,1-2.18,4.29c-1.67,1.66-2.53,4-3.67,6a25.23,25.23,0,0,0-3.36,9.17A4.56,4.56,0,0,1,92.9,48,57.88,57.88,0,0,1,87,50.6c-.4.16-.87.31-1.19-.16s-.07-.92.26-1.29c.86-.94,1.68-1.94,2.61-2.8a8.65,8.65,0,0,0,2.56-5.87,96.41,96.41,0,0,0,.07-15.2,16.81,16.81,0,0,1,1-7.07,4.84,4.84,0,0,1,1.16-1.66c.89-.91,1.85-1.77,2.68-2.74a4.47,4.47,0,0,0,1-1.49,1.9,1.9,0,0,0-.2-2c-.56-.55-1.23-.17-1.79.1a33.2,33.2,0,0,0-5.59,3.47,2.38,2.38,0,0,0-1,2c0,1.88-.33,3.74-.5,5.6A3.15,3.15,0,0,1,87.39,23a20.28,20.28,0,0,0-3.43,10c-.19,1.95-.44,3.89-.78,5.82A2.06,2.06,0,0,1,82.53,40c-1.53,1.29-3,2.6-4.45,4a1,1,0,0,1-.64.3.48.48,0,0,1-.34-.16c1.16-1.72,2.87-2.87,4.41-4.2a3.06,3.06,0,0,0,1-1.77c.7-3,.37-6.15,1.31-9.11.74-2.36,1.35-4.76,3.08-6.65.43-.49.26-1.06.34-1.6a30.34,30.34,0,0,0,.44-5.12,2.5,2.5,0,0,1,.91-2.11,27.34,27.34,0,0,1,6.94-4.21,1.58,1.58,0,0,1,1.9.24,2.67,2.67,0,0,1,.45,2.7,5.8,5.8,0,0,1-1.71,2.41c-1.37,1.48-3,2.7-3.59,4.83A14.77,14.77,0,0,0,92.1,25c.15,1.39.17,2.79.2,4.19a23.31,23.31,0,0,1,0,4.42c-.07,2.39-.06,4.79-.24,7.17A7.75,7.75,0,0,1,90,45.91c-1.2,1.21-2.27,2.56-3.63,4.11a31,31,0,0,0,7.53-3.54c.65-.45.64-1.28.77-2,1.14-6.41,4.3-11.84,8.15-16.94a7.32,7.32,0,0,0,1.21-4.3c.13-3.68.62-4.57,4.59-6.2a5.26,5.26,0,0,0,1.86-1.25c1.29-1.37,4.09-1.89,5.34,0Z"/><path class="b" d="M77.43,44.18a47.43,47.43,0,0,1,4.71-4.25A2.36,2.36,0,0,0,83,38.41c.67-3.16.43-6.45,1.42-9.56.72-2.23,1.36-4.5,3-6.31a1.69,1.69,0,0,0,.33-1,56.43,56.43,0,0,0,.51-6.08,2.12,2.12,0,0,1,.92-1.73,27.48,27.48,0,0,1,6.56-3.92c1.16-.5,1.83,0,1.9,1.3a2.89,2.89,0,0,1-.77,2.31,18.43,18.43,0,0,1-2.07,2.16c-2.68,2.11-3.27,5.08-3.14,8.16q.29,7.19.14,14.38c0,1.23-.42,2.46-.48,3.63-.15,3.55-3.05,5.12-4.85,7.48-.25.33-.88.55-.59,1s.86.08,1.27-.07c2-.74,3.9-1.62,5.8-2.55a3.85,3.85,0,0,0,2.24-3.16c.8-5.8,3.74-10.68,7-15.29a11.2,11.2,0,0,0,2.42-7.06c-.07-2.5,1.61-3.59,3.57-4.39A7.37,7.37,0,0,0,111,15.94a2.61,2.61,0,0,1,1.13-.65c1-.34,2.13-.48,2.89.4s.07,1.74-.32,2.55a7.38,7.38,0,0,1-2.53,2.84,10.6,10.6,0,0,0-4.43,8.52c-.33,6.89-2.35,13.36-4.15,19.91-.8,2.92-3,4.62-5.2,6.35a14.16,14.16,0,0,0-1.31,1l-.69.53c-2.14,1.53-4.68,2.21-7,3.29a75.62,75.62,0,0,1-7.59,2.91,1.47,1.47,0,0,0-.66.46c-2.9,3.14-6.49,5.4-10,7.81-.32.23-.66.45-1,.65a4.18,4.18,0,0,0-2,2.47,18.06,18.06,0,0,1-2.61,5c-1.23,1.67-2.26,3.48-3.47,5.17a3.66,3.66,0,0,1-1,1.14A89.11,89.11,0,0,1,48,88a3.65,3.65,0,0,1-3.93-2.67c-.45-1.63.35-2.9,2.14-3.41a22.34,22.34,0,0,1,4.38-.55c1.23-.09,2.46-.25,3.7-.3a2.84,2.84,0,0,0,2.32-1.26c.7-1,1.39-2,2.07-3.08.36-.55.37-.94-.43-1.08s-1.4-.31-2.11-.42a2,2,0,0,1-1.69-1.75c-.23-.93.18-1.39.88-1.86a3.73,3.73,0,0,0,1.86-3,2,2,0,0,1,.62-1.27c.36-.37.75-.72,1.08-1.11,1.32-1.56,1.32-1.57,3-.54.85.52,1.72,1,2.56,1.55a1.78,1.78,0,0,0,2,.06c5.64-3.08,11.34-6.06,17-9.17,1.49-.82,1.65-1.43.68-2.86a7.8,7.8,0,0,0-3-2.57,66.19,66.19,0,0,0-6.72-3.14c-1.21-.47-1.3-.71-.46-1.67A21.63,21.63,0,0,1,77.43,44.18Z"/><path class="c" d="M77.43,44.18C76.3,45.47,75.22,46.8,74,48c-.62.66-.35.85.3,1.1a50.12,50.12,0,0,1,6.94,3.2,8.06,8.06,0,0,1,3.28,2.9c.88,1.55.7,2.25-.86,3.09-5.06,2.72-10.2,5.3-15.14,8.22-2.27,1.34-4.08,1.54-6.1-.19a3.83,3.83,0,0,0-2.15-1.19c-.74,0-1.08,1.15-1.68,1.72a3.36,3.36,0,0,0-1.2,2.23A3.85,3.85,0,0,1,55.34,72c-.35.2-1,.24-.7.85s0,1.71,1.08,1.92,2,.4,2.93.57,1,.54.51,1.24c-.32.45-.63.92-.94,1.38-2.68,3.93-1.83,3.07-6.36,3.58-1.7.19-3.42.23-5.11.54-1.9.36-2.66,1.22-2.46,2.76s1.9,3.07,3.24,3c4.53-.41,9.08-.65,13.51-1.76a.21.21,0,0,1,0,.34,32.63,32.63,0,0,1-7,1.24c-2.09.24-4.19.39-6.49.61a7.43,7.43,0,0,0,3.09,1.05c.7.16,1.41.29,2.09.51a2,2,0,0,1,1.56,1.65,2,2,0,0,0,1.4,1.83,9.39,9.39,0,0,1,5.54,9.62c-.1,2.19,0,4.4,0,6.59a1.19,1.19,0,0,0,.83,1.36,2.79,2.79,0,0,1,1.93,3c-.06,1.2,0,2.4,0,3.6,0,2.46-1.8,3.69-4.16,2.83-.3-.11-.58-.25-.88-.38-.37.28-.19.67-.2,1,0,2-.86,2.83-2.82,2.88a2.44,2.44,0,0,1-2.81-2.68c0-2.2-1.78-3.21-3.73-2.14-1.47.8-3,1.56-4.42,2.39a2.1,2.1,0,0,1-2.34-.11c-3.16-1.87-6.38-3.64-9.52-5.54-1.2-.73-2.32-1.16-3.66-.49a2.06,2.06,0,0,1-.71,0,2,2,0,0,1-.9.08c-.33-.77.4-.59.67-.66a19.15,19.15,0,0,0,5.19-1.8,18.31,18.31,0,0,0,6.67-7c.49-.86,0-1.42-.73-1.86-2.18-1.35-4.42-2.57-6.62-3.87-4.43-2.64-8.9-5.19-13.3-7.86-.83-.51-1.27-.42-1.8.43a17.33,17.33,0,0,1-7.6,6.9c-.33.15-.65.33-1,.14a.24.24,0,0,1-.1-.19c0-.08,0-.11.05-.11.42-.26.49-.54,0-.73-3.51-1.29-4.17-4-3.86-7.35a32.69,32.69,0,0,0,0-4,10.09,10.09,0,0,1,3.77-8.19,2,2,0,0,0,.78-1.73c0-4.44,0-8.88,0-13.32a4.57,4.57,0,0,0-.25-1.64.75.75,0,0,1,0-.53c.52-.18.6.27.75.55s.29.75.52,1.08c.38.56.77,1.26,1.54,1.17s1-.85,1.19-1.5a4.18,4.18,0,0,0-.15-3c-1.59-4-3.09-8.07-4.65-12.09-1.66-4.29-3.33-8.58-4.94-12.88-1.37-3.69-.32-6.94,2.79-8.89a2.33,2.33,0,0,1,1.13-.45c-.59,0-1.1.41-1.66.11a.23.23,0,0,1,0-.32c1.6-1,3.2-.35,4.79,0a.23.23,0,0,1,0,.33,4.31,4.31,0,0,1-1.48.45c-3.88.85-5.81,4.09-4.63,7.87.87,2.79,2,5.48,3.08,8.2,2.21,5.7,4.32,11.44,6.59,17.12a6.49,6.49,0,0,1-.3,5.33,2.94,2.94,0,0,0,3.6-2.24,7.48,7.48,0,0,0-.25-4.94C15.4,52.42,13.23,47,11.16,41.63a2.45,2.45,0,0,0-1.41-1.51,4.89,4.89,0,0,1-3.18-5.34,5.17,5.17,0,0,1,4.53-4.12A2.38,2.38,0,0,0,12.57,30a5.87,5.87,0,0,1,1.6-1.25,3.22,3.22,0,0,1,.93,0,.22.22,0,0,1,.19.26c-.24.51-.77.67-1.19,1a4.67,4.67,0,0,0-1.66,5.43,3.11,3.11,0,0,0,3.92,2c.51-.13,1-.56,1.59-.19a2.06,2.06,0,0,1,0,.89.39.39,0,0,1-.31.13c-2.34.2-2.7.8-1.9,3,1.6,4.31,3.2,8.61,4.83,12.91a3.73,3.73,0,0,0,.67,1.26,8.33,8.33,0,0,1,2.24,5.3,1.71,1.71,0,0,0,.2.69.39.39,0,0,1-.06.33A1.4,1.4,0,0,0,23.2,63q0,7.68,0,15.35A2.34,2.34,0,0,0,26,80.66c.54-.11,1.09-.18,1.64-.28a.24.24,0,0,1,.31,0,5.11,5.11,0,0,0,.81,2.53c.38.53.18,1.28.1,2,.38-.74.72-1.5,1.12-2.22.2-.35.44-.69.9-.69s.7.44.84.93c.72-.8.48-1.7.38-2.57,0-.42-.46-.48-.8-.61-.82-.3-1.72-.19-2.52-.56a1.13,1.13,0,0,1,.07-.7c-.39-1.48-1.17-3-.2-4.49A.22.22,0,0,1,29,74c.31.92-.09,1.88.21,2.83a2.37,2.37,0,0,0,3.35,1.57,4.6,4.6,0,0,0,2.71-2.86c.68-2.13,1.49-4.22,2.19-6.34.51-1.53.92-1.82,2.54-1.82a22,22,0,0,1,4.7.19,12.65,12.65,0,0,1-1.25-5.13c0-.78-.51-.93-1.13-.89a49.09,49.09,0,0,0-5,.54,2.32,2.32,0,0,1-1.64,0,.23.23,0,0,1-.07-.33,59.51,59.51,0,0,1,7.74-1c.46,0,.63-.25.65-.68a3.94,3.94,0,0,1,.15-.82,7.43,7.43,0,0,1,8-5.64c.6,0,.85-.35,1.26-.52A97.61,97.61,0,0,1,67.3,48.22a8.33,8.33,0,0,1,4.72.2,1.31,1.31,0,0,0,1.7-.56c1.06-1.3,2.24-2.49,3.38-3.72Z"/><path class="b" d="M17.86,37.15a5.07,5.07,0,0,1-3.08.64,3.52,3.52,0,0,1-2.87-3.12,4.79,4.79,0,0,1,1.77-4.79c.49-.39,1.05-.71,1.57-1.06,1.16-.55,1.21-1.37,1.05-2.6a21,21,0,0,1,.41-9c.5-.86.26-2,1-2.76.57-2.42,2.12-4.26,3.66-6.09a22.82,22.82,0,0,1,5.54-4.53c.31-.2.7-.56,1.05-.12s0,.68-.23,1c-2.84,3.87-3.94,8.28-4.3,13A36.63,36.63,0,0,0,29,40a18.66,18.66,0,0,0,7.38,7c.31.16.67.29.73.86a17.28,17.28,0,0,1-4.19-.41,18.51,18.51,0,0,1-13.09-10C19.2,36.21,18.54,37,17.86,37.15Z"/><path class="d" d="M32.77,47.24l4.15.52c-.38-.54-.91-.61-1.32-.85A20.88,20.88,0,0,1,28,39a36.87,36.87,0,0,1-5-18.38c0-6,1-11.76,4.9-16.65,0,0,0-.14,0-.22-.19-.16-.37-.07-.54,0a26.34,26.34,0,0,0-6,5.06,29.41,29.41,0,0,0-3.68,5.6,2.82,2.82,0,0,1,.59-2.24C20.9,7.42,25,4.34,29.71,2,31.45,1.07,33.15.09,35.18,0c3.6-.15,6.49,1.4,9,3.74a25,25,0,0,1,6.9,10.72c.34,1,.7,1.45,1.93,1.25a27.86,27.86,0,0,1,6.19-.55c.38,0,.8-.17,1.11.22a2.35,2.35,0,0,0,0,2c.07.22.15.5.45.45s.37-.35.39-.63c.06-.79-.75-1.17-.86-1.87a1.23,1.23,0,0,1,1.45,1.2c.1.78.37,1.65-.69,2.14-1.33.62-2.57,1.43-3.92,2-.9.37-1,.79-.63,1.57a1.21,1.21,0,0,1,.05.73c-.59.07-.45-.23-.39-.53-.18.47.12.92.24,1.37a2.59,2.59,0,0,1-1,2.87c-4.45,3.64-8.94,7.23-13.4,10.84-1.14.93-1.73.72-2.07-.73-.6-2.6-1.18-5.2-1.87-8a1.42,1.42,0,0,0,0,1.09c.71,3.07,1.43,6.14,2.13,9.21.18.8.44,1.46,1.38,1.55a.46.46,0,0,1,.31.42c-.79.71-1.5.73-2.08-.07a2.76,2.76,0,0,0-1.56-1c-3-.91-5-3.07-6.51-5.7a24.84,24.84,0,0,1-3.26-10.56,20.14,20.14,0,0,1,1.49-10c1.06-2.38,2.68-4.28,5.39-4.89s4.71.4,6.6,2.05a18.06,18.06,0,0,1,4.25,5.9c.54,1.12,1,1.31,2.31.83.8-.31,1.06-1,.65-2C47.65,11.59,45.5,7.91,42,5.16,37.63,1.81,32.35,2.5,29.11,6.9a19.75,19.75,0,0,0-3.43,9.36A32.66,32.66,0,0,0,28,33.17c1.6,3.9,3.78,7.43,7.39,9.82C40.2,46.16,45,45.11,48.15,40.3a19.66,19.66,0,0,0,3-8.41,4.17,4.17,0,0,1,0-.71c.64-1.05,1.28-2.09,2.62-2.36a.46.46,0,0,1,0,.5,29.67,29.67,0,0,1-.63,5c-.06.38-.09.76-.13,1.15a.22.22,0,0,1-.33-.06,2.21,2.21,0,0,1-.07-1.52,13.51,13.51,0,0,0,.33-3.29A4.31,4.31,0,0,0,52,33a19.82,19.82,0,0,1-3.78,9c-4,5.07-10,5-14.47,1.11-5.48-4.66-7.89-10.91-9-17.79A30.74,30.74,0,0,1,25,13.75a18.29,18.29,0,0,1,4.2-8.63A9.68,9.68,0,0,1,42.09,4a21.82,21.82,0,0,1,7.21,9.09c.38.83.73,1.67,1.09,2.5.31-.13.23-.31.19-.44C48.74,10,45.93,5.59,41.22,2.57s-9.48-2.2-12.9,2a19.61,19.61,0,0,0-3.83,8.58A35.69,35.69,0,0,0,29,39.26a18,18,0,0,0,8.8,7.84c1.36.55,2.84.38,4.22.79a.22.22,0,0,1,.06.32,8.07,8.07,0,0,1-2.64,0c-.88-.23-1.8.07-2.68-.17a9.51,9.51,0,0,1-4-.52.16.16,0,0,1,0-.18Q32.74,47.24,32.77,47.24Z"/><path class="e" d="M61.07,86.39l0-.34c2.41-3.37,5.2-6.57,6.57-10.5.71-2,2.07-2.92,3.56-4,3.48-2.4,7.08-4.66,9.93-7.85a1.7,1.7,0,0,1,.83-.43,123.69,123.69,0,0,0,14.23-5.92.49.49,0,0,1,.24,0,4.54,4.54,0,0,1-1.93,1.36c-4.06,1.67-8,3.54-12.23,4.92a2.08,2.08,0,0,0-.84.42C78,67.66,73.89,70.28,69.83,73a3.22,3.22,0,0,0-1.41,1.9A17.3,17.3,0,0,1,66.48,79c-1.43,2.27-3,4.44-4.53,6.64A1.82,1.82,0,0,1,61.07,86.39Z"/><path class="f" d="M32.77,47.24v.27c-5.65-1.06-9.74-4.29-12.68-9.12-.14-.24-.26-.49-.41-.73-.23-.4-.35-.94-1-.56-.54.3-.59.63-.38,1.17.67,1.71,1.29,3.43,1.93,5.15,1.65,4.48,3.32,8.95,4.93,13.44a3.78,3.78,0,0,1-1.47,4.82l0-.33a.87.87,0,0,1,.22-.66c1.14-1.39,1-2.84.36-4.39C22.07,50.78,20.08,45.21,18,39.68c-.18-.46-.54-.93-.15-1.46V37.15c1.43-1,1.46-1,2.24.43A19.05,19.05,0,0,0,32.77,47.24Z"/><path class="g" d="M9.74,61.87l-.06.61c-1.66-4.43-3.35-8.85-5-13.3C3.21,45,1.43,41,.27,36.7A9.79,9.79,0,0,1,5.55,25.82a2.62,2.62,0,0,1,.57-.12v.24c0,.57-.49.68-.85.88a9.12,9.12,0,0,0-4,10.76C4,45.13,6.76,52.65,9.54,60.17,9.74,60.71,10.14,61.25,9.74,61.87Z"/><path class="h" d="M9.25,99.4v.28c-.11.54-.59.6-1,.76a20.29,20.29,0,0,1-3.58.94c-.42.08-1,.08-1,.64s.34.78.72,1q2.75,1.61,5.51,3.15c4.62,2.61,9.19,5.3,13.8,7.93a5,5,0,0,0,2.82.81,1.36,1.36,0,0,1,1.13.26l1.1.06a6.3,6.3,0,0,1-5.55-.54c-6.4-3.83-12.91-7.49-19.41-11.16a1.68,1.68,0,0,1-1-1.93c.12-.86.81-.76,1.37-.84A49.89,49.89,0,0,0,9.25,99.4Z"/><path class="f" d="M52.6,35.5l.3,0c-1.15,5-3.1,9.51-8,12a7.71,7.71,0,0,1-2.75.71v-.27c.09-.46.5-.48.83-.56,3.34-.83,5.49-3.06,7.06-6a22.48,22.48,0,0,0,2-4.73C52.07,36.26,52,35.69,52.6,35.5Z"/><path class="h" d="M29,73.94h-.3a44.5,44.5,0,0,1,4.15-10.74,3,3,0,0,1,2.8-1.48V62a.45.45,0,0,1-.36.42c-1.59.4-2.24,1.67-2.83,3a58.72,58.72,0,0,0-2.7,7.27C29.62,73.16,29.61,73.75,29,73.94Z"/><path class="c" d="M16.71,17.17a30.67,30.67,0,0,0-.28,8.45,4.94,4.94,0,0,0,.12.95c.45,1.27,0,2-1.3,2.25l0,0c-.07-.05-.09-.11-.07-.16s0-.08.07-.08c1-.4,1.06-1.06.94-2.07-.37-3-.7-6,.32-8.89A2.82,2.82,0,0,1,16.71,17.17Z"/><path class="f" d="M53.66,29.32l0-.49c-.2-.56.28-.77.58-1s.91-.77,1.36-1.16a2.16,2.16,0,0,0,.83-2.42c-.11-.36-.25-.77.09-1.12,0-.27,0-.55,0-.82a10.35,10.35,0,0,1,.6,2.63,2,2,0,0,1-.75,1.79Z"/><path class="g" d="M15.22,28.54v.24l-.94,0c-.12.05-.27.05-.33,0-.78-1.19-2.15-1.72-3-2.76v-.3A5.44,5.44,0,0,1,14.1,28C14.39,28.35,14.64,28.74,15.22,28.54Z"/><path class="i" d="M92.32,33.6c0-1.48,0-3,0-4.42A9.43,9.43,0,0,1,92.32,33.6Z"/><path class="h" d="M28,80.43l-.35-.05,1.21-2,0,.76A1,1,0,0,1,28,80.43Z"/><path class="f" d="M36.79,48a6.23,6.23,0,0,1,2.68.17A10,10,0,0,1,36.79,48Z"/><path class="b" d="M27.64,115.17c-1.8.38-3.29-.3-4.82-1.2-6.19-3.63-12.43-7.17-18.67-10.71-.63-.36-1-.72-.89-1.48s.8-.55,1.22-.64a20,20,0,0,0,4.78-1.46,17.09,17.09,0,0,0,8.29-7c1-1.5,1-1.51,2.57-.57l19.59,11.51c1.46.86,1.54,1.31.66,2.76-2.09,3.42-4.74,6.23-8.6,7.62C30.43,114.54,29,114.8,27.64,115.17Z"/><path class="b" d="M10.35,64.34a5.22,5.22,0,0,0,5.51,1.45,2.82,2.82,0,0,0,1.75-1.2c1.08-2,3.19-1.43,4.82-2,.54-.19.4.46.4.76q0,4.74,0,9.48c0,1.88.05,3.76-.08,5.63-.1,1.3,1.09,1.67,1.55,2.57a16.9,16.9,0,0,0-8.17,6.23,13.89,13.89,0,0,0-2.31,7.67,2.62,2.62,0,0,1-1.49,2.69c-.82.38-1.48,1.46-2.54.9-1.66-.89-3.7-1.59-3.87-3.86A53.08,53.08,0,0,1,6,85.3a8.78,8.78,0,0,1,3.54-5.92,2,2,0,0,0,.84-1.7C10.33,73.28,10.35,68.89,10.35,64.34Z"/><path class="j" d="M83.25,54.24c-5.45,2.53-10.72,5-16,7.43a1.45,1.45,0,0,1-1.45-.07c-2-1.09-4-2.28-6-3.17-2.54-1.08-4.45-3-6.61-4.66A13.36,13.36,0,0,1,56,52.52c3.13-1.29,6.32-2.41,9.56-3.44a11.33,11.33,0,0,1,7.62,0,42.6,42.6,0,0,1,9.54,4.66Z"/><path class="b" d="M59.15,75.88c-1.09,1.56-2,2.93-3,4.27a2.21,2.21,0,0,1-1.69.73c-2.38.29-4.78.27-7.14.69a6.08,6.08,0,0,0-2.77,1c-.66.48-1.54.3-2.31.41a6.22,6.22,0,0,0-2.76.64c-.43.27-.69,0-1-.19a28.27,28.27,0,0,0-5-2.47,1.2,1.2,0,0,1-.11-2.09c1.84-.91,2.53-2.53,3.09-4.32s1.24-3.7,1.84-5.55c.16-.51.4-.84,1-.84,1.44,0,2.87,0,4.31,0a2.12,2.12,0,0,1,2.16,1.73,4.56,4.56,0,0,0,2.89,3.25,5.4,5.4,0,0,1,1.63,1.18,4.19,4.19,0,0,0,3.67,1C55.74,75,57.26,75.75,59.15,75.88Z"/><path class="b" d="M45.93,97.62C44.47,92.84,38.46,91.7,35,95.81a30.62,30.62,0,0,0-1.91,2.61c-.3.46-.55.54-1,.24q-6.44-3.81-12.9-7.58a.83.83,0,0,1-.38-1.27A13,13,0,0,1,27,82.66c.88-.28,1.54.25,1.33,1.17-.44,1.85-.45,3.78-1.07,5.61a2.61,2.61,0,0,1-1.12,1.32,1.32,1.32,0,0,0-.59,1.83c.14.31.08.81.48.87s.43-.37.54-.68.51-.44.89-.4.54.38.55.77-.12.56.13.88c.86-.43,1.66-.87,1.51-2.08-.08-.61.4-1,.76-1.28a11,11,0,0,1,8.09-3c.26,0,.53,0,.74.26a4.35,4.35,0,0,0,5.42,1.38.69.69,0,0,1,.75.06A15.85,15.85,0,0,0,50.74,91c.65.06,1.59.15,1.46,1.19s-.88,1-1.62,1.09c-.31,0-.63,0-.95,0-1.81,0-2.59.68-2.65,2.48A2,2,0,0,1,45.93,97.62Z"/><path class="b" d="M44.18,121.25c.6-5.29-.76-10.42,1.25-15.38a17.88,17.88,0,0,1,7.75-9.12A5.19,5.19,0,0,1,57,96.11a4.28,4.28,0,0,1,3.77,4.53c.11,3.11,0,6.22,0,9.36-.87,0-1.17-.43-1.16-1.3,0-2.28-1.13-2.92-3.15-1.81-2.45,1.34-4.87,2.73-7.35,4a2.85,2.85,0,0,0-1.72,3c.07,1.55,0,3.12,0,4.67a1.3,1.3,0,0,1-.89,1.46C45.81,120.32,45.13,120.74,44.18,121.25Z"/><path class="b" d="M10.9,26a7.65,7.65,0,0,1,3.38,2.81c-.6.68-1.48,1.07-2,1.88-.24.39-.65.22-1,.24a4.77,4.77,0,0,0-4.48,3.81A4.58,4.58,0,0,0,10,39.89a1.89,1.89,0,0,1,1.27,1.25q3.16,8.19,6.39,16.35a8.06,8.06,0,0,1,.46,4.8c-.55,2.51-2.08,3.59-4.82,3.18,1.78-2.21,1.31-4.45.37-6.84-3-7.67-5.92-15.38-8.89-23.07a7.26,7.26,0,0,1-.42-5.24Q5.91,26.14,10.9,26Z"/><path class="b" d="M9.74,61.87c-1.32-3.67-2.62-7.34-4-11C4.34,46.9,2.93,42.92,1.37,39c-2.14-5.4-.29-10.51,4.75-13.06l2.48-.41c.08,0,.18.07.47.18a6.82,6.82,0,0,0-4.84,9.55q3.49,9.14,7,18.26c.87,2.26,1.72,4.54,2.62,6.78a4.69,4.69,0,0,1-.34,4.13c-.44.86-1,1-1.92.42C10.46,64.12,10.39,62.84,9.74,61.87Z"/><path class="b" d="M58.91,96.06c-3.22-1.39-5.78-.15-8.13,1.79a18.32,18.32,0,0,0-6.92,16c.12,2.22,0,4.46,0,6.7,0,.71-.26.7-.78.4l-11.15-6.44a17.05,17.05,0,0,0,5.37-3.44,24.84,24.84,0,0,0,4-5.23,1.66,1.66,0,0,0,.17-.32c.88-3.16,5-8.38,8-10.09a2.34,2.34,0,0,1,1.15-.26A5,5,0,0,0,53,94.62a4,4,0,0,1,4.92.51Z"/><path class="b" d="M29,73.94c1-3,2-6,3.26-8.82.69-1.56,1.56-2.86,3.4-3.13a68.2,68.2,0,0,1,7.13-.8c.74,0,1,.08,1,1a12,12,0,0,0,1.72,6.2c-2.24-1.15-4.5-.62-6.73-.53-.6,0-.71.51-.86,1-.81,2.41-1.6,4.83-2.48,7.22A4.18,4.18,0,0,1,30,78.64a1.24,1.24,0,0,1-.92-.94A6.12,6.12,0,0,1,29,73.94Z"/><path class="b" d="M56.46,68.53a4.88,4.88,0,0,0-3.13-4.66,6.3,6.3,0,0,1-1.84-1.31,7.76,7.76,0,0,0-.79-.73,3.91,3.91,0,0,0-3.39-.76c-.77.25-.76,1.46-1,2.29-.54,2.26-.09,4.14,1.54,6.5a3.05,3.05,0,0,1-2-1.71,11.73,11.73,0,0,1-.63-11.07,2.22,2.22,0,0,1,1-1.16c.78-.4,1.54-.83,2.32-1.23,3.14-1.62,5.52-.32,7.19,2.13a27.27,27.27,0,0,0,3.78,5c.92.85.85,1.94,0,3.12A28.79,28.79,0,0,1,56.46,68.53Z"/><path class="b" d="M17.86,38.22Q19.92,43.88,22,49.53c.87,2.35,1.69,4.72,2.63,7a4,4,0,0,1-1,4.77c-.65,0-.36-.51-.39-.79a6,6,0,0,0-1-3.39c-1.77-2.1-2.51-4.66-3.45-7.14L15,40.19a1.32,1.32,0,0,1,1-1.93C16.61,38.16,17.25,37.41,17.86,38.22Z"/><path class="b" d="M66.32,67.16a5.91,5.91,0,0,0,.7-3.94c-.17-.8.07-1,.68-1.31,5-2.27,9.93-4.55,14.87-6.9.86-.41,1.33-.28,1.66.54s.76,1.63-.4,2.23c-2.45,1.27-4.86,2.6-7.28,3.9Z"/><path class="b" d="M58.39,119.18c0,.64,0,1.28,0,1.92a1.83,1.83,0,0,1-1.53,2.09c-1.12.32-2.76,0-3.21-.76a2.6,2.6,0,0,1-.15-1.63,2.13,2.13,0,0,0-1.57-2.37c-.45-.16-.88-.37-1.32-.56a2.25,2.25,0,0,1-1.51-2.73c.17-1.3,1.46-2.88,2.46-3a.66.66,0,0,1,.34,0c1.86.9,3.75,1.76,5.58,2.73a2.18,2.18,0,0,1,.92,2c0,.76,0,1.52,0,2.27Z"/><path class="b" d="M63.55,115.83c0,.68,0,1.36,0,2a1.74,1.74,0,0,1-1.28,2c-1.06.34-2.81.06-3.28-.56a1.3,1.3,0,0,1-.14-1,4,4,0,0,0-2.93-4.7c-.66-.23-1.75-.26-1.58-1.55A3.8,3.8,0,0,1,56.53,109a1.4,1.4,0,0,1,1,.15c1.54.74,3.1,1.46,4.64,2.21a2.13,2.13,0,0,1,1.33,2.08c0,.8,0,1.6,0,2.4Z"/><path class="b" d="M51.89,71c-3.08-.6-4.86-2-5.28-5.38a7,7,0,0,1,.15-2.14c.46-2.32,2-2.83,3.82-1.2A18.62,18.62,0,0,0,54,64.74c1.35.76,2.23,2.43,1.93,3.42A4.22,4.22,0,0,1,51.89,71Z"/><path class="b" d="M40.3,95.74a3.6,3.6,0,0,1,3.75,3.56,1.22,1.22,0,0,1-.18.9c-.72,1-1.43,2.11-2.11,3.19-.36.56-.71.59-1.28.25-1.66-1-3.34-2-5-3-.5-.29-.69-.49-.32-1.07a8.85,8.85,0,0,1,3-3.32A3.59,3.59,0,0,1,40.3,95.74Z"/><path class="b" d="M14.28,96c-.41-8.09,5.43-13.7,12.25-15,.28,0,.65-.24.71.31s0,.86-.63,1.06A12.63,12.63,0,0,0,20.8,86,13,13,0,0,0,18,90.89,12.62,12.62,0,0,1,14.28,96Z"/><path class="b" d="M19.68,54.22a21.94,21.94,0,0,0-3.23-1.76c-.38-.13-.46-.52-.59-.85-1.33-3.41-2.64-6.83-4-10.22-.27-.65-.23-1,.51-1l.35,0c.6-.12,1.19-.87,1.69-.47s.48,1.14.7,1.74c1.49,4,3,8,4.47,12C19.65,53.74,19.88,53.93,19.68,54.22Z"/><path class="b" d="M56.64,57.22c3.3,1.74,6.3,3.35,9.32,4.93a1,1,0,0,1,.6.83,6.76,6.76,0,0,1-.59,4c-.31.57-.63.62-1.14.31-1.29-.79-2.58-1.58-3.89-2.33a.68.68,0,0,1-.37-.95,2.47,2.47,0,0,0-1-2.74A13.27,13.27,0,0,1,56.64,57.22Z"/><path class="b" d="M11.82,31.45c-1.05,3.76-.09,5.86,3.09,6.87-1.34,1.68-3.18,2-5.3,1a4.21,4.21,0,0,1-2.23-4.83A4.16,4.16,0,0,1,11.82,31.45Z"/><path class="b" d="M16.37,52.9c3.54,1.6,5.95,3.76,6.43,7.56.12,1,.05,1.7-1.19,1.83-.94.09-2.07.8-2.75.48s.07-1.58,0-2.45a18.48,18.48,0,0,0-1.29-4.45C17.19,55,16.82,54.05,16.37,52.9Z"/><path class="j" d="M44.05,83.28a3,3,0,0,0,.66,3.35,1.14,1.14,0,0,1,.2,1.65c-.46.67-.86,1.39-1.88,1.12a10.39,10.39,0,0,0-1.64-.34,1.86,1.86,0,0,1-1.87-2.12c0-1-.33-1.51-1.54-1.29C39.5,83.34,41.73,83.45,44.05,83.28Z"/><path class="j" d="M38.67,84.07a4.2,4.2,0,0,1-3.25,2A10.35,10.35,0,0,0,30,88.4c.66-1.47.52-3.2,1.89-4.41a3,3,0,0,0,1.23-2.2c0-.76.47-.3.72-.22A26.42,26.42,0,0,1,38.67,84.07Z"/><path class="k" d="M59.17,109.31c-3.45-1.23-4.58-.53-5.4,3.19-.93,0-1.59-1.17-2.66-.65a4.19,4.19,0,0,0-1.92,1.73,3.49,3.49,0,0,0,.72,4.62l-2,1c0-2.21,0-4.27,0-6.33a1.41,1.41,0,0,1,.82-1.25c2.82-1.56,5.64-3.14,8.48-4.66,1.09-.58,1.88-.08,2,1.15C59.19,108.51,59.17,108.87,59.17,109.31Z"/><path class="k" d="M44.53,99.15c-.09-.28-.17-.5-.23-.73a4.16,4.16,0,0,0-5.94-2.75,7.85,7.85,0,0,0-3.47,3.51c-.29.51-.47.95-1.23.47s-.27-.89,0-1.31a12.12,12.12,0,0,1,2.77-3.28,5.68,5.68,0,0,1,8.74,1.8C45.56,97.77,45.66,98.53,44.53,99.15Z"/><path class="l" d="M47.46,96.32c0-2.06.45-2.53,2.29-2.53a4.88,4.88,0,0,0,1.66-.15,1.61,1.61,0,0,0,1.27-1.54c0-.84-.58-1.22-1.27-1.36a17.2,17.2,0,0,1-5.26-1.48c-.17-.1-.37-.15-.55-.24s-.49-.27-.25-.63.36-.43.68-.25a23.54,23.54,0,0,0,6.37,2,2,2,0,0,1,1.66,2,2.28,2.28,0,0,1-1.34,2.21,2,2,0,0,1-.9.32A6.22,6.22,0,0,0,47.46,96.32Z"/><path class="k" d="M28,80.43a3.09,3.09,0,0,0,.89-1.25,4.17,4.17,0,0,1,3.27.41c.68.3.52,1.76.32,2.65a2.54,2.54,0,0,1-1.09,1.53c-.28-.55.47-1.52-.45-1.63-.69-.09-.78.86-1.1,1.38A10.19,10.19,0,0,1,28.38,86c.14-.81.25-1.43.34-2a1.49,1.49,0,0,0-.44-1.52A1.35,1.35,0,0,1,28,80.43Z"/><path class="m" d="M28.6,93.21c-.36-1.64-1.79-1.68-2.54-.66-.52-.67-.19-1.15.38-1.46A2.62,2.62,0,0,0,27.79,89c.4-2.42,2.19-4.16,3.12-6.33-.18,2.4-1.2,4.55-1.87,6.79a2.15,2.15,0,0,0,0,2A1.15,1.15,0,0,1,28.6,93.21Z"/><path class="n" d="M29.26,91a1.72,1.72,0,0,1,.51-1.82A14.28,14.28,0,0,1,38.25,86c.57-.05.77.22.79.77s-.48.52-.82.51a11.09,11.09,0,0,0-8.66,3.62S29.41,90.93,29.26,91Z"/><path class="o" d="M51,72.24c.86.14,1.74.14,2.59.27,1,.15.78,1.25.9,1.93s-.62.58-1.07.5c-.75-.12-1.48-.31-2.21-.49a1.45,1.45,0,0,1-1.12-1.12C50,72.78,50.06,72.05,51,72.24Z"/><path class="p" d="M57.1,68.75c-.32,1.53-1.06,2.76-2.62,3.1A5.75,5.75,0,0,1,49.57,71a6,6,0,0,0,3.68.31,3.76,3.76,0,0,0,1.38-.7C55.37,69.91,55.93,69,57.1,68.75Z"/><path class="q" d="M46.07,69.1a4.08,4.08,0,0,0,2.31,1.44c.76.19,1,.94,1.4,1.52a.78.78,0,0,1-.18.88c-.22.18-.44-.07-.65-.15A4.15,4.15,0,0,1,46.07,69.1Z"/><path class="b" d="M51.47,31.71a20.7,20.7,0,0,1-3.08,8.84C45,45.67,39.5,46.6,34.64,42.85a23,23,0,0,1-7.32-10.6A33.74,33.74,0,0,1,25.15,19c.18-4.48,1.06-8.78,3.88-12.47A8.8,8.8,0,0,1,41.74,4.6c4,2.89,6.33,7,8,11.51A1.46,1.46,0,0,1,48.59,18c-.31,0-.63.1-.94.17-.75.17-1.17,0-1.51-.81a16.53,16.53,0,0,0-3.8-5.76c-4.19-4.12-9.4-3.27-11.91,2.05A19.49,19.49,0,0,0,28.91,24.3a22.4,22.4,0,0,0,5.15,12.53,8.68,8.68,0,0,0,5,3,.87.87,0,0,1,.8.58c.38,1.09,1.09,1.14,2,.59a2.68,2.68,0,0,1,.7-1c2.57-2.57,5.14-5.15,7.72-7.71C50.61,32.05,50.87,31.55,51.47,31.71Z"/><path class="b" d="M36.64,9.4a7.59,7.59,0,0,1,4.27,1.53,16.61,16.61,0,0,1,4.89,6.69c.26.62.2.8-.5.89-2.65.34-5.29.78-7.94,1.14a3.22,3.22,0,0,0-2.85,2.53c-.48,1.76.07,4.74,2,5.69a1.06,1.06,0,0,1,.56.84q1.13,4.95,2.33,9.89c.22.89-.17.94-.85.72A9.61,9.61,0,0,1,34,36.15,22.65,22.65,0,0,1,29.4,24.78a20.14,20.14,0,0,1,.76-9.22c1-2.92,2.48-5.38,5.82-6.05Z"/><path class="b" d="M52.6,35.5a24.94,24.94,0,0,1-3.4,7.81,11.07,11.07,0,0,1-7.1,4.63c-6,.28-9.75-3.26-12.8-7.72A34.62,34.62,0,0,1,23.63,24,30.27,30.27,0,0,1,25.78,8.19c1.37-3.09,3.3-5.78,6.62-7.07a9.34,9.34,0,0,1,8.67.95c5,3,7.84,7.56,9.8,12.84.3.81.3.81-.55,1.33a31.83,31.83,0,0,0-4.1-7.81c-2-2.63-4.36-4.94-7.7-5.8A8.75,8.75,0,0,0,29,5.85c-2.9,3.54-4,7.74-4.22,12.22-.36,8.42,1.49,16.19,7.06,22.74a12.24,12.24,0,0,0,7.73,4.64,8.27,8.27,0,0,0,7.05-2.22c3-2.76,4.4-6.38,5.09-10.31.2-1.15.15-2.41,1.51-3A38.11,38.11,0,0,1,52.6,35.5Z"/><path class="b" d="M50.56,22.05c-4,1.93-7.84,3.79-11.69,5.63a2.68,2.68,0,0,1-3.15-1.08,5.54,5.54,0,0,1-.93-3.76c.14-1.63,1.21-2.58,3-2.85,3.44-.5,6.88-1,10.31-1.48.8-.12,1.15,0,1.17.91A3.74,3.74,0,0,0,50.56,22.05Z"/><path class="b" d="M47.55,24a23.48,23.48,0,0,1-.21,7.55,2.63,2.63,0,0,1-1,1.67C44.56,34.57,42.85,36,41,37.51c-.58-2.52-1.14-4.9-1.68-7.28-.47-2-.47-2,1.39-2.92Z"/><path class="b" d="M49.66,19A2.41,2.41,0,0,1,52,16.26c2.17-.29,4.35-.53,6.53-.83.53-.07.82,0,.84.62a3.07,3.07,0,0,0,.29,1.39c.65,1.15.13,1.61-.9,2.06C57,20.26,55.3,21.18,53.58,22a2.42,2.42,0,0,1-3.37-1.09A5.32,5.32,0,0,1,49.66,19Z"/><path class="j" d="M56.5,23.09c.7,2.21-.39,3.66-2,4.9a7.24,7.24,0,0,0-.82.84l-2.4,2.37a2.11,2.11,0,0,1-.54.78l-8.21,8.21a2.07,2.07,0,0,1-.88.6c-.76.31-1.21.05-1.4-.75q-1.29-5.52-2.59-11c0-.23-.25-.59.19-.67s.63.1.73.56c.53,2.45,1.12,4.88,1.66,7.33.46,2.11.44,2.12,2.12.76,4.13-3.34,8.22-6.71,12.4-10a3,3,0,0,0,1.39-3.47,5.39,5.39,0,0,1,0-1.22Z"/><path class="j" d="M47.59,32.16a20.15,20.15,0,0,0,.49-7.5,1.08,1.08,0,0,1,.79-1.33,5.55,5.55,0,0,0,1.18-.56c.92-.61,1.3-.33,1.43.71a42.48,42.48,0,0,1,.25,4.65,1.27,1.27,0,0,1-.51,1.12C50.09,30.12,49,31,47.59,32.16Z"/><path class="k" d="M51.88,22.91c1.39.2,2.34-1,3.6-1.24.62,4,.38,4.51-3.2,6.53C52.15,26.47,52,24.74,51.88,22.91Z"/><path class="r" d="M41.61,40.79l9.63-9.59.23.51c-1.86,1.51-3.42,3.34-5.14,5-1.5,1.43-3,2.89-4.46,4.33Z"/><path class="s" d="M60.34,15.38a2.07,2.07,0,0,1,1.15,2.23.89.89,0,0,1-.74.82c-.51.14-.45-.39-.53-.62A13,13,0,0,1,59.73,16c-.12-.52.21-.61.62-.59Z"/><path class="t" d="M48.63,65.08c0,.43-.19.65-.55.69a.54.54,0,0,1-.58-.47.56.56,0,0,1,.49-.67C48.38,64.54,48.53,64.83,48.63,65.08Z"/><path class="u" d="M51.19,64.34c-.11.33-.32.54-.69.47a.51.51,0,0,1-.45-.58.52.52,0,0,1,.55-.5A.59.59,0,0,1,51.19,64.34Z"/></svg>