<?xml version="1.0" encoding="utf-8"?>
<!-- Generator: Adobe Illustrator 22.0.1, SVG Export Plug-In . SVG Version: 6.00 Build 0)  -->
<svg version="1.1" id="Layer_1" xmlns="http://www.w3.org/2000/svg" xmlns:xlink="http://www.w3.org/1999/xlink" x="0px" y="0px"
	 viewBox="0 0 150 150" style="enable-background:new 0 0 150 150;" xml:space="preserve">
<style type="text/css">
	.st0{stroke:#FFFFFF;stroke-miterlimit:10;}
</style>
<path class="st0" d="M21.8,110.5c0.3-1.3,1.6-2.2,2.9-1.9c1.3,0.3,2.2,1.6,1.9,2.9c-0.3,1.3-1.6,2.2-2.9,1.9c-1-0.2-1.7-1-1.9-1.9H0
	v-1H21.8z M100.7,134.2c0.3-1.3,1.6-2.2,2.9-1.9c1.3,0.3,2.2,1.6,1.9,2.9c-0.3,1.3-1.6,2.2-2.9,1.9c-1-0.2-1.7-1-1.9-1.9H40.5v-1
	H100.7z M129.2,111.5c-0.3,1.3-1.6,2.2-2.9,1.9s-2.2-1.6-1.9-2.9s1.6-2.2,2.9-1.9c1,0.2,1.7,1,1.9,1.9H150v1H129.2z M129.2,119.4
	c-0.3,1.3-1.6,2.2-2.9,1.9s-2.2-1.6-1.9-2.9s1.6-2.2,2.9-1.9c1,0.2,1.7,1,1.9,1.9H150v1H129.2z M132.3,63.2c0.3-1.3,1.6-2.2,2.9-1.9
	c1.3,0.3,2.2,1.6,1.9,2.9c-0.3,1.3-1.6,2.2-2.9,1.9c-1-0.2-1.7-1-1.9-1.9H89.8c-0.3,1.3-1.6,2.2-2.9,1.9c-1.3-0.3-2.2-1.6-1.9-2.9
	c0.3-1.3,1.6-2.2,2.9-1.9c1,0.2,1.7,1,1.9,1.9H132.3z M6,39.5c0.3-1.3,1.6-2.2,2.9-1.9c1.3,0.3,2.2,1.6,1.9,2.9
	c-0.3,1.3-1.6,2.2-2.9,1.9c-1-0.2-1.7-1-1.9-1.9H0v-1C0,39.5,6,39.5,6,39.5z M97.6,56.2c-0.3,1.3-1.6,2.2-2.9,1.9
	c-1.3-0.3-2.2-1.6-1.9-2.9c0.3-1.3,1.6-2.2,2.9-1.9c1,0.2,1.7,1,1.9,1.9h42.5c0.3-1.3,1.6-2.2,2.9-1.9c1.3,0.3,2.2,1.6,1.9,2.9
	s-1.6,2.2-2.9,1.9c-1-0.2-1.7-1-1.9-1.9H97.6z M127.3,6c1.3,0.3,2.2,1.6,1.9,2.9c-0.3,1.3-1.6,2.2-2.9,1.9c-1.3-0.3-2.2-1.6-1.9-2.9
	c0.2-1,1-1.7,1.9-1.9V0h1V6z M95.7,108.6c1.3,0.3,2.2,1.6,1.9,2.9c-0.3,1.3-1.6,2.2-2.9,1.9c-1.3-0.3-2.2-1.6-1.9-2.9
	c0.2-1,1-1.7,1.9-1.9V81.9c-1.3-0.3-2.2-1.6-1.9-2.9c0.3-1.3,1.6-2.2,2.9-1.9c1.3,0.3,2.2,1.6,1.9,2.9c-0.2,1-1,1.7-1.9,1.9V108.6z
	 M119.4,10.8v28.7H150v1h-31.6V10.8c-1.3-0.3-2.2-1.6-1.9-2.9c0.3-1.3,1.6-2.2,2.9-1.9c1.3,0.3,2.2,1.6,1.9,2.9
	C121.1,9.9,120.4,10.6,119.4,10.8z M127.3,18.7v12.9H150v1h-23.7V18.7c-1.3-0.3-2.2-1.6-1.9-2.9c0.3-1.3,1.6-2.2,2.9-1.9
	c1.3,0.3,2.2,1.6,1.9,2.9C129,17.7,128.3,18.5,127.3,18.7z M64.1,66.1v36.6H72v6c1.3,0.3,2.2,1.6,1.9,2.9c-0.3,1.3-1.6,2.2-2.9,1.9
	c-1.3-0.3-2.2-1.6-1.9-2.9c0.2-1,1-1.7,1.9-1.9v-5h-7.9V66.1c-1.3-0.3-2.2-1.6-1.9-2.9c0.3-1.3,1.6-2.2,2.9-1.9
	c1.3,0.3,2.2,1.6,1.9,2.9C65.9,65.1,65.1,65.9,64.1,66.1z M61.2,55.3c0.3-1.3,1.6-2.2,2.9-1.9c1.3,0.3,2.2,1.6,1.9,2.9
	c-0.3,1.3-1.6,2.2-2.9,1.9c-1-0.2-1.7-1-1.9-1.9h-5v23.7H42.4c-0.3,1.3-1.6,2.2-2.9,1.9c-1.3-0.3-2.2-1.6-1.9-2.9
	c0.3-1.3,1.6-2.2,2.9-1.9c1,0.2,1.7,1,1.9,1.9h12.9V55.3C55.3,55.3,61.2,55.3,61.2,55.3z M58.2,119.4c-0.3,1.3-1.6,2.2-2.9,1.9
	c-1.3-0.3-2.2-1.6-1.9-2.9c0.3-1.3,1.6-2.2,2.9-1.9c1,0.2,1.7,1,1.9,1.9h28.7V81.9c-1.3-0.3-2.2-1.6-1.9-2.9
	c0.3-1.3,1.6-2.2,2.9-1.9c1.3,0.3,2.2,1.6,1.9,2.9c-0.2,1-1,1.7-1.9,1.9v37.5H58.2z M50.3,87.8c-0.3,1.3-1.6,2.2-2.9,1.9
	c-1.3-0.3-2.2-1.6-1.9-2.9c0.3-1.3,1.6-2.2,2.9-1.9c1,0.2,1.7,1,1.9,1.9h6v23.7h5c0.3-1.3,1.6-2.2,2.9-1.9c1.3,0.3,2.2,1.6,1.9,2.9
	c-0.3,1.3-1.6,2.2-2.9,1.9c-1-0.2-1.7-1-1.9-1.9h-6V87.8H50.3z M32.6,140.2c1.3,0.3,2.2,1.6,1.9,2.9c-0.3,1.3-1.6,2.2-2.9,1.9
	s-2.2-1.6-1.9-2.9c0.2-1,1-1.7,1.9-1.9v-5h-6.9V150h-1v-15.8h8.9V140.2z M116.5,86.8c0.3-1.3,1.6-2.2,2.9-1.9
	c1.3,0.3,2.2,1.6,1.9,2.9c-0.3,1.3-1.6,2.2-2.9,1.9c-1-0.2-1.7-1-1.9-1.9h-5v46.4h23.7V150h-1v-14.8h-23.7V86.8H116.5z M129.2,72
	c-0.3,1.3-1.6,2.2-2.9,1.9c-1.3-0.3-2.2-1.6-1.9-2.9c0.3-1.3,1.6-2.2,2.9-1.9c1,0.2,1.7,1,1.9,1.9h6v21.8c1.3,0.3,2.2,1.6,1.9,2.9
	c-0.3,1.3-1.6,2.2-2.9,1.9c-1.3-0.3-2.2-1.6-1.9-2.9c0.2-1,1-1.7,1.9-1.9V72H129.2z M97.6,119.4c-0.3,1.3-1.6,2.2-2.9,1.9
	c-1.3-0.3-2.2-1.6-1.9-2.9c0.3-1.3,1.6-2.2,2.9-1.9c1,0.2,1.7,1,1.9,1.9h5V78.9h7.9V72H89.8c-0.3,1.3-1.6,2.2-2.9,1.9
	c-1.3-0.3-2.2-1.6-1.9-2.9c0.3-1.3,1.6-2.2,2.9-1.9c1,0.2,1.7,1,1.9,1.9h21.8v8.9h-7.9v39.5H97.6z M140.2,15.8
	c0.3-1.3,1.6-2.2,2.9-1.9c1.3,0.3,2.2,1.6,1.9,2.9s-1.6,2.2-2.9,1.9c-1-0.2-1.7-1-1.9-1.9h-6V0h1v15.8H140.2L140.2,15.8z M48.4,50.3
	V72H26.6c-0.3,1.3-1.6,2.2-2.9,1.9c-1.3-0.3-2.2-1.6-1.9-2.9c0.3-1.3,1.6-2.2,2.9-1.9c1,0.2,1.7,1,1.9,1.9h20.8V50.3
	c-1.3-0.3-2.2-1.6-1.9-2.9c0.3-1.3,1.6-2.2,2.9-1.9c1.3,0.3,2.2,1.6,1.9,2.9C50.1,49.3,49.3,50.1,48.4,50.3z M26.6,16.8
	c-0.3,1.3-1.6,2.2-2.9,1.9c-1.3-0.3-2.2-1.6-1.9-2.9s1.6-2.2,2.9-1.9c1,0.2,1.7,1,1.9,1.9h12.9V0h1v16.8H26.6z M56.2,18.7v13.9H40.5
	v31.6h-6c-0.3,1.3-1.6,2.2-2.9,1.9c-1.3-0.3-2.2-1.6-1.9-2.9c0.3-1.3,1.6-2.2,2.9-1.9c1,0.2,1.7,1,1.9,1.9h5V31.6h15.8V18.7
	c-1.3-0.3-2.2-1.6-1.9-2.9c0.3-1.3,1.6-2.2,2.9-1.9c1.3,0.3,2.2,1.6,1.9,2.9C58,17.7,57.2,18.5,56.2,18.7z M50.3,40.5
	c-0.3,1.3-1.6,2.2-2.9,1.9c-1.3-0.3-2.2-1.6-1.9-2.9c0.3-1.3,1.6-2.2,2.9-1.9c1,0.2,1.7,1,1.9,1.9h12.9V18.7
	c-1.3-0.3-2.2-1.6-1.9-2.9c0.3-1.3,1.6-2.2,2.9-1.9c1.3,0.3,2.2,1.6,1.9,2.9c-0.2,1-1,1.7-1.9,1.9v21.8H50.3z M58.2,8.9
	c-0.3,1.3-1.6,2.2-2.9,1.9c-1.3-0.3-2.2-1.6-1.9-2.9c0.3-1.3,1.6-2.2,2.9-1.9c1,0.2,1.7,1,1.9,1.9H72v21.8c1.3,0.3,2.2,1.6,1.9,2.9
	c-0.3,1.3-1.6,2.2-2.9,1.9c-1.3-0.3-2.2-1.6-1.9-2.9c0.2-1,1-1.7,1.9-1.9V8.9H58.2z M108.6,142.1c0.3-1.3,1.6-2.2,2.9-1.9
	c1.3,0.3,2.2,1.6,1.9,2.9c-0.3,1.3-1.6,2.2-2.9,1.9c-1-0.2-1.7-1-1.9-1.9H48.4v6.9h-1v-7.9H108.6z M119.4,74v5h7.9v16.8h-7.9v30.6
	h23.7V150h-1v-22.7h-23.7V94.7h7.9V79.9h-7.9v-6c-1.3-0.3-2.2-1.6-1.9-2.9c0.3-1.3,1.6-2.2,2.9-1.9c1.3,0.3,2.2,1.6,1.9,2.9
	C121.1,73,120.4,73.8,119.4,74z M26.6,8.9c-0.3,1.3-1.6,2.2-2.9,1.9c-1.3-0.3-2.2-1.6-1.9-2.9s1.6-2.2,2.9-1.9c1,0.2,1.7,1,1.9,1.9
	h5V1h-7.9V0h8.9v8.9H26.6z M81.9,24.7c-0.3,1.3-1.6,2.2-2.9,1.9S76.8,25,77,23.7c0.3-1.3,1.6-2.2,2.9-1.9c1,0.2,1.7,1,1.9,1.9h12.9
	V0h24.7v1H95.7v23.7H81.9z M58.2,1c-0.3,1.3-1.6,2.2-2.9,1.9S53.1,1.3,53.3,0h1c-0.3,0.8,0.1,1.6,0.9,1.9C56,2.2,56.9,1.8,57.2,1
	c0.1-0.3,0.1-0.7,0-1h30.7v16.8h-8.9v-6c-1.3-0.3-2.2-1.6-1.9-2.9s1.6-2.2,2.9-1.9c1.3,0.3,2.2,1.6,1.9,2.9c-0.2,1-1,1.7-1.9,1.9v5
	h6.9V1C86.8,1,58.2,1,58.2,1z M58.2,48.4c-0.3,1.3-1.6,2.2-2.9,1.9c-1.3-0.3-2.2-1.6-1.9-2.9c0.3-1.3,1.6-2.2,2.9-1.9
	c1,0.2,1.7,1,1.9,1.9h9.4l15.8-15.8h19.2V10.8c-1.3-0.3-2.2-1.6-1.9-2.9c0.3-1.3,1.6-2.2,2.9-1.9c1.3,0.3,2.2,1.6,1.9,2.9
	c-0.2,1-1,1.7-1.9,1.9v21.8H83.8L68,48.4C68,48.4,58.2,48.4,58.2,48.4z M72,92.8c1.3,0.3,2.2,1.6,1.9,2.9c-0.3,1.3-1.6,2.2-2.9,1.9
	c-1.3-0.3-2.2-1.6-1.9-2.9c0.2-1,1-1.7,1.9-1.9V55.1l15.6-15.6h23.9V10.8c-1.3-0.3-2.2-1.6-1.9-2.9c0.3-1.3,1.6-2.2,2.9-1.9
	c1.3,0.3,2.2,1.6,1.9,2.9c-0.2,1-1,1.7-1.9,1.9v29.7H87l-15,15V92.8z M79.9,108.6c1.3,0.3,2.2,1.6,1.9,2.9c-0.3,1.3-1.6,2.2-2.9,1.9
	c-1.3-0.3-2.2-1.6-1.9-2.9c0.2-1,1-1.7,1.9-1.9V59.5l12.1-12.1h57c0.2-1,1-1.7,1.9-1.9v1c-0.8,0.3-1.2,1.1-0.9,1.9
	c0.1,0.4,0.5,0.8,0.9,0.9v1c-1-0.2-1.7-1-1.9-1.9H91.5L79.9,59.9V108.6z M8.9,77c1.3,0.3,2.2,1.6,1.9,2.9c-0.3,1.3-1.6,2.2-2.9,1.9
	c-1.3-0.3-2.2-1.6-1.9-2.9c0.2-1,1-1.7,1.9-1.9v-1.7l23.7-23.7V23.7h15.8V0h1v24.7H32.6V52L8.9,75.7V77z M24.7,26.6v21.5L1,71.7
	v30.9h12.9c0.3-1.3,1.6-2.2,2.9-1.9c1.3,0.3,2.2,1.6,1.9,2.9c-0.3,1.3-1.6,2.2-2.9,1.9c-1-0.2-1.7-1-1.9-1.9H0V71.3l23.7-23.7V26.6
	c-1.3-0.3-2.2-1.6-1.9-2.9c0.3-1.3,1.6-2.2,2.9-1.9c1.3,0.3,2.2,1.6,1.9,2.9C26.4,25.6,25.6,26.4,24.7,26.6z M16.8,34.5v9.6L0,60.9
	v-1.4l15.8-15.8v-9.2c-1.3-0.3-2.2-1.6-1.9-2.9c0.3-1.3,1.6-2.2,2.9-1.9s2.2,1.6,1.9,2.9C18.5,33.5,17.7,34.3,16.8,34.5z M6,15.8
	c0.3-1.3,1.6-2.2,2.9-1.9c1.3,0.3,2.2,1.6,1.9,2.9c-0.3,1.3-1.6,2.2-2.9,1.9c-1-0.2-1.7-1-1.9-1.9H4.6L0,21.4V20l4.2-4.2H6z
	 M137.1,24.7c-0.3,1.3-1.6,2.2-2.9,1.9c-1.3-0.3-2.2-1.6-1.9-2.9c0.3-1.3,1.6-2.2,2.9-1.9c1,0.2,1.7,1,1.9,1.9h9.2L150,20v1.4
	l-3.3,3.3H137.1z M129.2,103.6c-0.3,1.3-1.6,2.2-2.9,1.9s-2.2-1.6-1.9-2.9s1.6-2.2,2.9-1.9c1,0.2,1.7,1,1.9,1.9h12.9V67.4l7.9-7.9
	v1.4l-6.9,6.9v35.8H129.2z M26.6,119.4c-0.3,1.3-1.6,2.2-2.9,1.9c-1.3-0.3-2.2-1.6-1.9-2.9s1.6-2.2,2.9-1.9c1,0.2,1.7,1,1.9,1.9h5
	v-11.1L20,95.7h-9.2c-0.3,1.3-1.6,2.2-2.9,1.9S5.7,96.1,6,94.7c0.3-1.3,1.6-2.2,2.9-1.9c1,0.2,1.7,1,1.9,1.9h9.6l12.1,12.1v12.5
	C32.6,119.4,26.6,119.4,26.6,119.4z M100.7,126.3c0.3-1.3,1.6-2.2,2.9-1.9c1.3,0.3,2.2,1.6,1.9,2.9c-0.3,1.3-1.6,2.2-2.9,1.9
	c-1-0.2-1.7-1-1.9-1.9H47.4V99.4L27.9,79.9h-9.2c-0.3,1.3-1.6,2.2-2.9,1.9c-1.3-0.3-2.2-1.6-1.9-2.9c0.3-1.3,1.6-2.2,2.9-1.9
	c1,0.2,1.7,1,1.9,1.9h9.6l20,20v27.3C48.4,126.3,100.7,126.3,100.7,126.3z M26.6,127.3c-0.3,1.3-1.6,2.2-2.9,1.9
	c-1.3-0.3-2.2-1.6-1.9-2.9s1.6-2.2,2.9-1.9c1,0.2,1.7,1,1.9,1.9h12.9v-23L24,87.8H10.8c-0.3,1.3-1.6,2.2-2.9,1.9
	c-1.3-0.3-2.2-1.6-1.9-2.9c0.3-1.3,1.6-2.2,2.9-1.9c1,0.2,1.7,1,1.9,1.9h13.6l16.1,16.1v24.4C40.5,127.3,26.6,127.3,26.6,127.3z
	 M16.8,19.6v0.8L4.6,32.6H0v-1h4.2L15.8,20V0h1V19.6z M1,148.1c1,0.2,1.7,1,1.9,1.9h-1c-0.3-0.8-1.1-1.2-1.9-0.9c0,0,0,0,0,0v-22.8
	h8.9V150h-1v-22.7H1V148.1z M16.8,118.9V150h-1v-30.6H0v-1h16.8V118.9z M8.4,8.9H0v-1h7.9V0h1v8.9H8.4z M143.1,7.9h6.9v1h-7.9V0h1
	V7.9z M127.3,142.6v7.4h-1v-6.9h-6.9v6.9h-1v-7.9h8.9V142.6z M0,45.4c1.3-0.3,2.6,0.6,2.9,1.9c0,0.2,0,0.3,0,0.5
	c0,1.4-1.1,2.5-2.5,2.5c-0.2,0-0.3,0-0.5,0v-1c0.8,0.3,1.6-0.1,1.9-0.9c0.3-0.8-0.1-1.6-0.9-1.9c-0.3-0.1-0.7-0.1-1,0V45.4z
	 M39.5,134.2h1V150h-1V134.2z M58.2,150h-1c-0.3-0.8-1.1-1.2-1.9-0.9c-0.4,0.1-0.8,0.5-0.9,0.9h-1c0.3-1.3,1.6-2.2,2.9-1.9
	C57.2,148.3,58,149,58.2,150z M2.9,0C3.2,1.3,2.3,2.6,1,2.9C0.6,3,0.3,3,0,2.9v-1C0.8,2.2,1.6,1.8,1.9,1C2,0.7,2,0.3,1.9,0H2.9z
	 M148.1,0h1c-0.3,0.8,0.1,1.6,0.9,1.9c0,0,0,0,0,0v1C148.7,2.6,147.8,1.3,148.1,0C148.1,0,148.1,0,148.1,0z M150,148.1v1
	c-0.4,0.1-0.8,0.5-0.9,0.9h-1C148.3,149,149,148.3,150,148.1z M47.9,49.3c0.8,0,1.5-0.7,1.5-1.5c0-0.8-0.7-1.5-1.5-1.5
	c-0.8,0-1.5,0.7-1.5,1.5C46.4,48.7,47,49.3,47.9,49.3z M47.9,41.4c0.8,0,1.5-0.7,1.5-1.5c0-0.8-0.7-1.5-1.5-1.5
	c-0.8,0-1.5,0.7-1.5,1.5C46.4,40.8,47,41.4,47.9,41.4z M55.8,49.3c0.8,0,1.5-0.7,1.5-1.5c0-0.8-0.7-1.5-1.5-1.5
	c-0.8,0-1.5,0.7-1.5,1.5C54.3,48.7,54.9,49.3,55.8,49.3z M63.7,57.2c0.8,0,1.5-0.7,1.5-1.5c0-0.8-0.7-1.5-1.5-1.5
	c-0.8,0-1.5,0.7-1.5,1.5C62.2,56.6,62.8,57.2,63.7,57.2z M63.7,65.1c0.8,0,1.5-0.7,1.5-1.5c0-0.8-0.7-1.5-1.5-1.5
	c-0.8,0-1.5,0.7-1.5,1.5C62.2,64.5,62.8,65.1,63.7,65.1z M40,80.9c0.8,0,1.5-0.7,1.5-1.5S40.8,78,40,78c-0.8,0-1.5,0.7-1.5,1.5
	S39.1,80.9,40,80.9z M47.9,88.8c0.8,0,1.5-0.7,1.5-1.5s-0.7-1.5-1.5-1.5c-0.8,0-1.5,0.7-1.5,1.5S47,88.8,47.9,88.8z M63.7,112.5
	c0.8,0,1.5-0.7,1.5-1.5s-0.7-1.5-1.5-1.5c-0.8,0-1.5,0.7-1.5,1.5S62.8,112.5,63.7,112.5z M55.8,120.4c0.8,0,1.5-0.7,1.5-1.5
	c0-0.8-0.7-1.5-1.5-1.5c-0.8,0-1.5,0.7-1.5,1.5C54.3,119.7,54.9,120.4,55.8,120.4z M71.5,112.5c0.8,0,1.5-0.7,1.5-1.5
	s-0.7-1.5-1.5-1.5s-1.5,0.7-1.5,1.5S70.7,112.5,71.5,112.5z M71.5,96.7c0.8,0,1.5-0.7,1.5-1.5s-0.7-1.5-1.5-1.5s-1.5,0.7-1.5,1.5
	S70.7,96.7,71.5,96.7z M79.4,112.5c0.8,0,1.5-0.7,1.5-1.5s-0.7-1.5-1.5-1.5S78,110.2,78,111S78.6,112.5,79.4,112.5z M95.2,120.4
	c0.8,0,1.5-0.7,1.5-1.5c0-0.8-0.7-1.5-1.5-1.5s-1.5,0.7-1.5,1.5C93.8,119.7,94.4,120.4,95.2,120.4z M95.2,112.5
	c0.8,0,1.5-0.7,1.5-1.5s-0.7-1.5-1.5-1.5s-1.5,0.7-1.5,1.5S94.4,112.5,95.2,112.5z M87.3,80.9c0.8,0,1.5-0.7,1.5-1.5
	S88.2,78,87.3,78s-1.5,0.7-1.5,1.5S86.5,80.9,87.3,80.9z M95.2,80.9c0.8,0,1.5-0.7,1.5-1.5S96,78,95.2,78s-1.5,0.7-1.5,1.5
	S94.4,80.9,95.2,80.9z M103.1,128.3c0.8,0,1.5-0.7,1.5-1.5c0-0.8-0.7-1.5-1.5-1.5s-1.5,0.7-1.5,1.5
	C101.6,127.6,102.3,128.3,103.1,128.3z M103.1,136.2c0.8,0,1.5-0.7,1.5-1.5c0-0.8-0.7-1.5-1.5-1.5s-1.5,0.7-1.5,1.5
	C101.6,135.5,102.3,136.2,103.1,136.2z M111,144.1c0.8,0,1.5-0.7,1.5-1.5c0-0.8-0.7-1.5-1.5-1.5l0,0c-0.8,0-1.5,0.7-1.5,1.5
	C109.5,143.4,110.2,144.1,111,144.1z M118.9,73c0.8,0,1.5-0.7,1.5-1.5s-0.7-1.5-1.5-1.5c-0.8,0-1.5,0.7-1.5,1.5S118.1,73,118.9,73z
	 M118.9,88.8c0.8,0,1.5-0.7,1.5-1.5s-0.7-1.5-1.5-1.5c-0.8,0-1.5,0.7-1.5,1.5S118.1,88.8,118.9,88.8z M126.8,73
	c0.8,0,1.5-0.7,1.5-1.5s-0.7-1.5-1.5-1.5c-0.8,0-1.5,0.7-1.5,1.5S126,73,126.8,73z M134.7,65.1c0.8,0,1.5-0.7,1.5-1.5
	c0-0.8-0.7-1.5-1.5-1.5c-0.8,0-1.5,0.7-1.5,1.5C133.2,64.5,133.9,65.1,134.7,65.1z M87.3,65.1c0.8,0,1.5-0.7,1.5-1.5
	c0-0.8-0.7-1.5-1.5-1.5s-1.5,0.7-1.5,1.5C85.9,64.5,86.5,65.1,87.3,65.1z M87.3,73c0.8,0,1.5-0.7,1.5-1.5s-0.7-1.5-1.5-1.5
	s-1.5,0.7-1.5,1.5S86.5,73,87.3,73z M95.2,57.2c0.8,0,1.5-0.7,1.5-1.5c0-0.8-0.7-1.5-1.5-1.5s-1.5,0.7-1.5,1.5
	C93.8,56.6,94.4,57.2,95.2,57.2z M142.6,57.2c0.8,0,1.5-0.7,1.5-1.5c0-0.8-0.7-1.5-1.5-1.5c-0.8,0-1.5,0.7-1.5,1.5
	C141.1,56.6,141.8,57.2,142.6,57.2z M134.7,25.7c0.8,0,1.5-0.7,1.5-1.5s-0.7-1.5-1.5-1.5c-0.8,0-1.5,0.7-1.5,1.5
	S133.9,25.7,134.7,25.7z M142.6,17.8c0.8,0,1.5-0.7,1.5-1.5c0-0.8-0.7-1.5-1.5-1.5c-0.8,0-1.5,0.7-1.5,1.5
	C141.1,17.1,141.8,17.8,142.6,17.8z M126.8,17.8c0.8,0,1.5-0.7,1.5-1.5c0-0.8-0.7-1.5-1.5-1.5c-0.8,0-1.5,0.7-1.5,1.5
	C125.3,17.1,126,17.8,126.8,17.8z M126.8,9.9c0.8,0,1.5-0.7,1.5-1.5s-0.7-1.5-1.5-1.5c-0.8,0-1.5,0.7-1.5,1.5S126,9.9,126.8,9.9z
	 M118.9,9.9c0.8,0,1.5-0.7,1.5-1.5s-0.7-1.5-1.5-1.5c-0.8,0-1.5,0.7-1.5,1.5S118.1,9.9,118.9,9.9z M111,9.9c0.8,0,1.5-0.7,1.5-1.5
	s-0.7-1.5-1.5-1.5l0,0c-0.8,0-1.5,0.7-1.5,1.5S110.2,9.9,111,9.9z M103.1,9.9c0.8,0,1.5-0.7,1.5-1.5s-0.7-1.5-1.5-1.5
	s-1.5,0.7-1.5,1.5S102.3,9.9,103.1,9.9z M24.2,17.8c0.8,0,1.5-0.7,1.5-1.5c0-0.8-0.7-1.5-1.5-1.5s-1.5,0.7-1.5,1.5
	C22.7,17.1,23.4,17.8,24.2,17.8z M8.4,17.8c0.8,0,1.5-0.7,1.5-1.5c0-0.8-0.7-1.5-1.5-1.5s-1.5,0.7-1.5,1.5
	C6.9,17.1,7.6,17.8,8.4,17.8z M24.2,25.7c0.8,0,1.5-0.7,1.5-1.5s-0.7-1.5-1.5-1.5s-1.5,0.7-1.5,1.5S23.4,25.7,24.2,25.7z M16.3,33.6
	c0.8,0,1.5-0.7,1.5-1.5c0-0.8-0.7-1.5-1.5-1.5c-0.8,0-1.5,0.7-1.5,1.5C14.8,32.9,15.5,33.6,16.3,33.6z M24.2,9.9
	c0.8,0,1.5-0.7,1.5-1.5S25,6.9,24.2,6.9s-1.5,0.7-1.5,1.5S23.4,9.9,24.2,9.9z M24.2,128.3c0.8,0,1.5-0.7,1.5-1.5
	c0-0.8-0.7-1.5-1.5-1.5s-1.5,0.7-1.5,1.5C22.7,127.6,23.4,128.3,24.2,128.3z M32.1,144.1c0.8,0,1.5-0.7,1.5-1.5
	c0-0.8-0.7-1.5-1.5-1.5c-0.8,0-1.5,0.7-1.5,1.5C30.6,143.4,31.3,144.1,32.1,144.1z M24.2,112.5c0.8,0,1.5-0.7,1.5-1.5
	s-0.7-1.5-1.5-1.5s-1.5,0.7-1.5,1.5S23.4,112.5,24.2,112.5z M24.2,120.4c0.8,0,1.5-0.7,1.5-1.5c0-0.8-0.7-1.5-1.5-1.5
	s-1.5,0.7-1.5,1.5C22.7,119.7,23.4,120.4,24.2,120.4z M16.3,104.6c0.8,0,1.5-0.7,1.5-1.5s-0.7-1.5-1.5-1.5c-0.8,0-1.5,0.7-1.5,1.5
	S15.5,104.6,16.3,104.6z M55.8,17.8c0.8,0,1.5-0.7,1.5-1.5c0-0.8-0.7-1.5-1.5-1.5c-0.8,0-1.5,0.7-1.5,1.5
	C54.3,17.1,54.9,17.8,55.8,17.8z M63.7,17.8c0.8,0,1.5-0.7,1.5-1.5c0-0.8-0.7-1.5-1.5-1.5c-0.8,0-1.5,0.7-1.5,1.5
	C62.2,17.1,62.8,17.8,63.7,17.8z M55.8,9.9c0.8,0,1.5-0.7,1.5-1.5s-0.7-1.5-1.5-1.5c-0.8,0-1.5,0.7-1.5,1.5S54.9,9.9,55.8,9.9z
	 M71.5,33.6c0.8,0,1.5-0.7,1.5-1.5c0-0.8-0.7-1.5-1.5-1.5s-1.5,0.7-1.5,1.5C70.1,32.9,70.7,33.6,71.5,33.6z M79.4,25.7
	c0.8,0,1.5-0.7,1.5-1.5s-0.7-1.5-1.5-1.5S78,23.4,78,24.2S78.6,25.7,79.4,25.7z M79.4,9.9c0.8,0,1.5-0.7,1.5-1.5s-0.7-1.5-1.5-1.5
	S78,7.6,78,8.4S78.6,9.9,79.4,9.9z M134.7,96.7c0.8,0,1.5-0.7,1.5-1.5s-0.7-1.5-1.5-1.5c-0.8,0-1.5,0.7-1.5,1.5
	S133.9,96.7,134.7,96.7z M126.8,104.6c0.8,0,1.5-0.7,1.5-1.5s-0.7-1.5-1.5-1.5c-0.8,0-1.5,0.7-1.5,1.5S126,104.6,126.8,104.6z
	 M126.8,112.5c0.8,0,1.5-0.7,1.5-1.5s-0.7-1.5-1.5-1.5c-0.8,0-1.5,0.7-1.5,1.5S126,112.5,126.8,112.5z M126.8,120.4
	c0.8,0,1.5-0.7,1.5-1.5c0-0.8-0.7-1.5-1.5-1.5c-0.8,0-1.5,0.7-1.5,1.5C125.3,119.7,126,120.4,126.8,120.4z M8.4,88.8
	c0.8,0,1.5-0.7,1.5-1.5s-0.7-1.5-1.5-1.5s-1.5,0.7-1.5,1.5S7.6,88.8,8.4,88.8z M8.4,96.7c0.8,0,1.5-0.7,1.5-1.5s-0.7-1.5-1.5-1.5
	s-1.5,0.7-1.5,1.5S7.6,96.7,8.4,96.7z M8.4,80.9c0.8,0,1.5-0.7,1.5-1.5S9.2,78,8.4,78s-1.5,0.7-1.5,1.5S7.6,80.9,8.4,80.9z
	 M16.3,80.9c0.8,0,1.5-0.7,1.5-1.5S17.1,78,16.3,78c-0.8,0-1.5,0.7-1.5,1.5S15.5,80.9,16.3,80.9z M8.4,41.4c0.8,0,1.5-0.7,1.5-1.5
	c0-0.8-0.7-1.5-1.5-1.5S6.9,39.1,6.9,40C6.9,40.8,7.6,41.4,8.4,41.4z M24.2,73c0.8,0,1.5-0.7,1.5-1.5s-0.7-1.5-1.5-1.5
	s-1.5,0.7-1.5,1.5S23.4,73,24.2,73z M32.1,65.1c0.8,0,1.5-0.7,1.5-1.5c0-0.8-0.7-1.5-1.5-1.5c-0.8,0-1.5,0.7-1.5,1.5
	C30.6,64.5,31.3,65.1,32.1,65.1z"/>
</svg>
