<svg xmlns="http://www.w3.org/2000/svg" viewBox="0 0 758.91 582.72"><defs><style>.a{fill:none;stroke:#f8c22c;stroke-miterlimit:10;stroke-width:7px;}.b{opacity:0.3;}</style></defs><title>computers</title><path class="a" d="M564.92,179.69l74.57,43.06a1.32,1.32,0,0,1,0,2.5l-62.22,35.92a4.79,4.79,0,0,1-4.33,0l-8-4.64v9.85l60.76,35.08a5.57,5.57,0,0,1,0,9.65l-60.76,35.08v47.68c0,.18,0,.35,0,.52L753,285.81c1.63-.94,2.45-2.18,2.45-3.42s-.82-2.47-2.45-3.41L561.57,168.48a13.06,13.06,0,0,1,3.35,8.08Z"/><path class="a" d="M753,285.81,564.9,394.39c0-.17,0-.34,0-.52V176.56a13.06,13.06,0,0,0-3.35-8.08,10.55,10.55,0,0,0-2.57-2.16L278.4,4.31c-1.64-.95-3.11-1-4.18-.42l-4.79,2.77a3,3,0,0,1,1.36-.39,4.44,4.44,0,0,1,1.63.25,7.33,7.33,0,0,1,1.19.55l280.6,162c.21.12.41.25.61.39a10.19,10.19,0,0,1,1.7,1.48,13.46,13.46,0,0,1,1.46,1.86c.29.45.56.92.8,1.39.12.24.23.48.34.73a12.21,12.21,0,0,1,.74,2.21,9.31,9.31,0,0,1,.27,2.19V396.64A6.71,6.71,0,0,1,560,398a3.61,3.61,0,0,1-1.61,2.52l1-.56v3.17A2.26,2.26,0,0,1,556,405l-36.91-21.28V193.1a13.09,13.09,0,0,0-5.92-10.25L267.69,41.13,232.56,20.84c-1.64-.94-3.12-1-4.19-.41l-4.79,2.76h0a3,3,0,0,1,1.37-.38,2.92,2.92,0,0,1,.51,0,4.61,4.61,0,0,1,1.11.24,6.35,6.35,0,0,1,1.2.55l280.6,162a8.41,8.41,0,0,1,1.19.82,12.17,12.17,0,0,1,1.57,1.56l.17.21a14.82,14.82,0,0,1,1.64,2.53c.12.24.23.48.34.72.17.41.33.82.46,1.23,0,.15.09.3.14.45a10.09,10.09,0,0,1,.41,2.72V413.17q0,.36,0,.69a3.84,3.84,0,0,1-1.7,3.14l4.78-2.76c1.08-.62,1.74-1.94,1.74-3.83V388.18l33.85,19.54a13,13,0,0,0,11.83,0L753,299.07c1.63-.94,2.45-2.18,2.45-3.42V282.39C755.41,283.63,754.59,284.87,753,285.81Z"/><path class="a" d="M577.27,261.17l62.22-35.92a1.32,1.32,0,0,0,0-2.5l-74.57-43.06v76.84l8,4.64A4.79,4.79,0,0,0,577.27,261.17Z"/><path class="a" d="M554.21,400.05l-35.13-20.28v4L556,405a2.26,2.26,0,0,0,3.38-1.95v-3.17l-1,.56C557.33,401.09,555.85,401,554.21,400.05Z"/><path class="a" d="M625.68,301.46l-60.76-35.08v79.81l60.76-35.08A5.57,5.57,0,0,0,625.68,301.46Z"/><path class="a" d="M519.08,193.1V379.77l35.13,20.28c1.64.95,3.12,1,4.19.42A3.61,3.61,0,0,0,560,398a6.71,6.71,0,0,0,.12-1.31V179.33a9.31,9.31,0,0,0-.27-2.19,12.21,12.21,0,0,0-.74-2.21c-.11-.25-.22-.49-.34-.73-.24-.47-.51-.94-.8-1.39a13.46,13.46,0,0,0-1.46-1.86,10.19,10.19,0,0,0-1.7-1.48c-.2-.14-.4-.27-.61-.39l-280.6-162a7.33,7.33,0,0,0-1.19-.55,4.44,4.44,0,0,0-1.63-.25,3,3,0,0,0-1.36.39c-1.08.62-1.74,1.94-1.74,3.83V41.13L513.16,182.85A13.09,13.09,0,0,1,519.08,193.1Z"/><path class="a" d="M511.84,418.59l-280.61-162a13.11,13.11,0,0,0-11.83,0L31.2,365.24c-1.63.94-2.45,2.18-2.45,3.41a3.14,3.14,0,0,0,.62,1.82,5.62,5.62,0,0,0,1.83,1.6l280.61,162a10.42,10.42,0,0,0,2.77,1.06,13.17,13.17,0,0,0,9.06-1.06l188.2-108.66c1.63-.94,2.45-2.18,2.45-3.41S513.47,419.53,511.84,418.59Zm-225,15.08-62.22,35.92a4.79,4.79,0,0,1-4.33,0l-77.4-44.68a1.32,1.32,0,0,1,0-2.5l62.21-35.92a4.79,4.79,0,0,1,4.33,0l77.4,44.68A1.32,1.32,0,0,1,286.84,433.67Zm168.38-26.06-89.1,51.44a5.58,5.58,0,0,1-5.56,0l-198.93-114a5.56,5.56,0,0,1,0-9.64l89.57-52.07a5.61,5.61,0,0,1,5.59,0L455.22,398A5.57,5.57,0,0,1,455.22,407.61Z"/><path class="a" d="M286.84,431.17l-77.4-44.68a4.79,4.79,0,0,0-4.33,0L142.9,422.41a1.32,1.32,0,0,0,0,2.5l77.4,44.68a4.79,4.79,0,0,0,4.33,0l62.22-35.92A1.32,1.32,0,0,0,286.84,431.17Z"/><path class="a" d="M511.84,425.42,323.64,534.08a13.17,13.17,0,0,1-9.06,1.06,10.42,10.42,0,0,1-2.77-1.06L31.2,372.07a5.62,5.62,0,0,1-1.83-1.6,3.14,3.14,0,0,1-.62-1.82v13.26c0,1.24.82,2.48,2.45,3.42l280.61,162a13.11,13.11,0,0,0,11.83,0l188.2-108.66c1.63-.94,2.45-2.18,2.45-3.41V422C514.29,423.24,513.47,424.48,511.84,425.42Z"/><path class="a" d="M514.26,413.86q0-.33,0-.69V195.86a10.09,10.09,0,0,0-.41-2.72c0-.15-.09-.3-.14-.45-.13-.41-.29-.82-.46-1.23-.11-.24-.22-.48-.34-.72a14.82,14.82,0,0,0-1.64-2.53l-.17-.21a12.17,12.17,0,0,0-1.57-1.56,8.41,8.41,0,0,0-1.19-.82l-280.6-162a6.35,6.35,0,0,0-1.2-.55,4.61,4.61,0,0,0-1.11-.24,2.92,2.92,0,0,0-.51,0,3,3,0,0,0-1.37.38c-1.07.62-1.73,1.95-1.73,3.84V244.34a13.06,13.06,0,0,0,5.92,10.24l280.6,162c1.64.94,3.11,1,4.19.41A3.84,3.84,0,0,0,514.26,413.86ZM368.07,109.32a3.75,3.75,0,0,1,1.69,2.93c0,1.08-.76,1.52-1.69,1a3.75,3.75,0,0,1-1.69-2.93C366.38,109.22,367.14,108.78,368.07,109.32Zm135,283.82a.39.39,0,0,1-.19.32.41.41,0,0,1-.19.05.45.45,0,0,1-.19-.05L233.27,238a.36.36,0,0,1-.19-.32V40.3a.37.37,0,0,1,.19-.33.42.42,0,0,1,.38,0L502.87,195.41a.39.39,0,0,1,.19.32Z"/><path class="a" d="M233.65,40a.42.42,0,0,0-.38,0,.37.37,0,0,0-.19.33V237.7a.36.36,0,0,0,.19.32L502.49,393.46a.45.45,0,0,0,.19.05.41.41,0,0,0,.19-.05.39.39,0,0,0,.19-.32V195.73a.39.39,0,0,0-.19-.32Zm269,353.16L233.47,237.7V40.3L502.69,195.73Z"/><polygon class="a" points="233.47 237.7 502.69 393.13 502.69 195.73 233.47 40.3 233.47 237.7"/><path class="a" d="M368.07,113.23c.93.54,1.69.1,1.69-1a3.75,3.75,0,0,0-1.69-2.93c-.93-.54-1.69-.1-1.69,1A3.75,3.75,0,0,0,368.07,113.23Z"/><path class="a" d="M455.22,398,256.76,283.38a5.61,5.61,0,0,0-5.59,0L161.6,335.46a5.56,5.56,0,0,0,0,9.64l198.93,114a5.58,5.58,0,0,0,5.56,0l89.1-51.44A5.57,5.57,0,0,0,455.22,398Z"/><g class="b"><path class="a" d="M539.67,210.16l74.57,43.05a1.32,1.32,0,0,1,0,2.5L552,291.64a4.79,4.79,0,0,1-4.33,0l-8-4.64v9.85l60.76,35.08a5.57,5.57,0,0,1,0,9.65l-60.76,35.08v47.68a4.41,4.41,0,0,1,0,.52L727.71,316.28c1.63-.95,2.45-2.18,2.45-3.42s-.82-2.47-2.45-3.41L536.31,199a13,13,0,0,1,3.36,8.08Z"/><path class="a" d="M727.71,316.28,539.64,424.86a4.41,4.41,0,0,0,0-.52V207a13,13,0,0,0-3.36-8.08,10.17,10.17,0,0,0-2.56-2.17l-280.6-162c-1.64-1-3.12-1-4.19-.42l-4.79,2.77a3,3,0,0,1,1.37-.39,4.17,4.17,0,0,1,1.62.25,7,7,0,0,1,1.2.55l280.6,162c.21.12.41.25.61.38a11.14,11.14,0,0,1,1.69,1.49,12.1,12.1,0,0,1,1.46,1.86,12.9,12.9,0,0,1,.81,1.39c.12.24.23.48.34.72a12.57,12.57,0,0,1,.74,2.22,9.86,9.86,0,0,1,.27,2.19V427.11a6.61,6.61,0,0,1-.12,1.3,3.61,3.61,0,0,1-1.61,2.53l1-.56v3.17a2.25,2.25,0,0,1-3.37,1.95l-36.92-21.28V223.57a13.06,13.06,0,0,0-5.91-10.25L242.44,71.6,207.3,51.31c-1.63-.94-3.11-1-4.18-.41l-4.79,2.76h0a3.08,3.08,0,0,1,1.36-.39,4.61,4.61,0,0,1,.52,0,4.72,4.72,0,0,1,1.11.24,6,6,0,0,1,1.19.55l280.61,162a8.41,8.41,0,0,1,1.19.82,11.56,11.56,0,0,1,1.57,1.56,1.63,1.63,0,0,0,.17.2,14.64,14.64,0,0,1,1.63,2.54c.13.24.24.48.35.72.17.4.32.81.46,1.23.05.15.09.29.13.44a9.85,9.85,0,0,1,.42,2.73V443.64a4.88,4.88,0,0,1,0,.68,3.82,3.82,0,0,1-1.7,3.15l4.79-2.76c1.07-.62,1.73-1.95,1.73-3.83V418.65l33.86,19.54a13,13,0,0,0,11.83,0l188.2-108.65c1.63-1,2.45-2.18,2.45-3.42V312.86C730.16,314.1,729.34,315.33,727.71,316.28Z"/><path class="a" d="M552,291.64l62.22-35.93a1.32,1.32,0,0,0,0-2.5l-74.57-43.05V287l8,4.64A4.79,4.79,0,0,0,552,291.64Z"/><path class="a" d="M529,430.52l-35.14-20.28v4l36.92,21.28a2.25,2.25,0,0,0,3.37-1.95v-3.17l-1,.56C532.07,431.56,530.6,431.47,529,430.52Z"/><path class="a" d="M600.43,331.93l-60.76-35.08v79.81l60.76-35.08A5.57,5.57,0,0,0,600.43,331.93Z"/><path class="a" d="M493.82,223.57V410.24L529,430.52c1.64,1,3.11,1,4.19.42a3.61,3.61,0,0,0,1.61-2.53,6.61,6.61,0,0,0,.12-1.3V209.8a9.86,9.86,0,0,0-.27-2.19,12.57,12.57,0,0,0-.74-2.22c-.11-.24-.22-.48-.34-.72a12.9,12.9,0,0,0-.81-1.39,12.1,12.1,0,0,0-1.46-1.86,11.14,11.14,0,0,0-1.69-1.49c-.2-.13-.4-.26-.61-.38l-280.6-162a7,7,0,0,0-1.2-.55,4.17,4.17,0,0,0-1.62-.25,3,3,0,0,0-1.37.39c-1.07.62-1.73,1.94-1.73,3.83V71.6L487.91,213.32A13.06,13.06,0,0,1,493.82,223.57Z"/><path class="a" d="M486.58,449.06,206,287.05a13.11,13.11,0,0,0-11.83,0L6,395.71c-1.63.94-2.45,2.18-2.45,3.41a3.13,3.13,0,0,0,.61,1.82A5.67,5.67,0,0,0,6,402.54l280.61,162a10.35,10.35,0,0,0,2.76,1.06,13.25,13.25,0,0,0,9.07-1.06L486.58,455.89c1.64-.94,2.46-2.18,2.46-3.41S488.22,450,486.58,449.06Zm-225,15.08-62.21,35.92a4.79,4.79,0,0,1-4.33,0l-77.4-44.68a1.32,1.32,0,0,1,0-2.5L179.86,417a4.79,4.79,0,0,1,4.33,0l77.39,44.68A1.32,1.32,0,0,1,261.58,464.14ZM430,438.08l-89.1,51.44a5.56,5.56,0,0,1-5.55,0l-198.93-114a5.56,5.56,0,0,1,0-9.64l89.57-52.07a5.56,5.56,0,0,1,5.58,0L430,428.43A5.57,5.57,0,0,1,430,438.08Z"/><path class="a" d="M261.58,461.64,184.19,417a4.79,4.79,0,0,0-4.33,0l-62.22,35.92a1.32,1.32,0,0,0,0,2.5L195,500.06a4.79,4.79,0,0,0,4.33,0l62.21-35.92A1.32,1.32,0,0,0,261.58,461.64Z"/><path class="a" d="M486.58,455.89,298.39,564.55a13.25,13.25,0,0,1-9.07,1.06,10.35,10.35,0,0,1-2.76-1.06L6,402.54a5.67,5.67,0,0,1-1.84-1.6,3.13,3.13,0,0,1-.61-1.82v13.26c0,1.24.82,2.48,2.45,3.42l280.61,162a13.11,13.11,0,0,0,11.83,0L486.58,469.15c1.64-.94,2.46-2.18,2.46-3.41V452.48C489,453.71,488.22,455,486.58,455.89Z"/><path class="a" d="M489,444.32a4.88,4.88,0,0,0,0-.68V226.33a9.85,9.85,0,0,0-.42-2.73c0-.15-.08-.29-.13-.44-.14-.42-.29-.83-.46-1.23-.11-.24-.22-.48-.35-.72a14.64,14.64,0,0,0-1.63-2.54,1.63,1.63,0,0,1-.17-.2,11.56,11.56,0,0,0-1.57-1.56,8.41,8.41,0,0,0-1.19-.82l-280.61-162a6,6,0,0,0-1.19-.55,4.72,4.72,0,0,0-1.11-.24,4.61,4.61,0,0,0-.52,0,3.08,3.08,0,0,0-1.36.39c-1.07.62-1.73,2-1.73,3.83V274.8a13.09,13.09,0,0,0,5.91,10.25l280.61,162c1.63.94,3.11,1,4.18.41A3.82,3.82,0,0,0,489,444.32ZM342.82,139.79a3.75,3.75,0,0,1,1.69,2.93c0,1.08-.76,1.51-1.69,1a3.72,3.72,0,0,1-1.69-2.93C341.13,139.69,341.88,139.25,342.82,139.79Zm135,283.81a.39.39,0,0,1-.18.33.45.45,0,0,1-.19.05.41.41,0,0,1-.19-.05L208,268.49a.36.36,0,0,1-.19-.32V70.77a.37.37,0,0,1,.19-.33.35.35,0,0,1,.37,0L477.62,225.88a.37.37,0,0,1,.18.32Z"/><path class="a" d="M208.39,70.44a.35.35,0,0,0-.37,0,.37.37,0,0,0-.19.33v197.4a.36.36,0,0,0,.19.32L477.24,423.93a.41.41,0,0,0,.19.05.45.45,0,0,0,.19-.05.39.39,0,0,0,.18-.33V226.2a.37.37,0,0,0-.18-.32ZM477.44,423.6,208.22,268.17V70.76L477.44,226.2Z"/><polygon class="a" points="208.22 268.17 477.44 423.6 477.44 226.2 208.22 70.77 208.22 268.17"/><path class="a" d="M342.82,143.7c.93.53,1.69.1,1.69-1a3.75,3.75,0,0,0-1.69-2.93c-.94-.54-1.69-.1-1.69,1A3.72,3.72,0,0,0,342.82,143.7Z"/><path class="a" d="M430,428.43,231.5,313.85a5.56,5.56,0,0,0-5.58,0l-89.57,52.07a5.56,5.56,0,0,0,0,9.64l198.93,114a5.56,5.56,0,0,0,5.55,0L430,438.08A5.57,5.57,0,0,0,430,428.43Z"/></g></svg>