<svg xmlns="http://www.w3.org/2000/svg" viewBox="0 0 86.06 113.79"><defs><style>.a{fill:#e6b235;}.b{fill:#3e0b41;}</style></defs><title>connect</title><path class="a" d="M3.33,49.71c.31-2,.2-4.1.82-6.1.19-.57.23-1.29-.82-1.49A8.94,8.94,0,0,1,1,41.06a1.44,1.44,0,0,1-.83-1.22,26.68,26.68,0,0,1,.46-8.17c.47-2.33,1-4.67,1.41-7,.57-3.12,2.51-4.73,5.11-5.94A26.14,26.14,0,0,1,11.93,17c-.56-.31-.87-.54-1.21-.68a3.13,3.13,0,0,1-2.23-3.49c.19-2.18,0-4.4.6-6.55a5.23,5.23,0,0,1,4.33-4,3.55,3.55,0,0,0,.47-.09c3.26-1.07,5-.3,6.93,3.85,1.11,2.4,1.34,5.08,1.87,7.65.14.67-.27.8-.71.82a2.25,2.25,0,0,0-2.09,1.6c1.89.39,4.11-.49,5.53,1.55l.3-.14c0-1.05,0-2.1,0-3.15a1.29,1.29,0,0,1,1-1.44c3.47-1.18,6.94-2.39,10.42-3.57,1-.34,1.35-.07,1.29,1-.29,4.88-.37,9.78-1,14.64,0,0,0,.08,0,.12-.18.85.48,1.87-.19,2.52a7.2,7.2,0,0,1-3.07,1.44c-1,.31-1.17.65-.67,1.59.66,1.24,1.44,2.45,1.3,4a4.14,4.14,0,0,1-2.65,3.62,65,65,0,0,1-9.93,3c-.71.16-.74.61-.58,1,1.06,2.93,1.25,6,1.91,9a39.79,39.79,0,0,1,.55,5.33c.32,3.76.72,7.53.69,11.32,0,3.11.24,6.26-.36,9.3-1,5-1,10-1.27,15-.13,2.52-.86,5-.81,7.58a9,9,0,0,0,2,5.18,7.52,7.52,0,0,1,1.83,3.3c.17,1.11-.23,1.79-1.33,2a3.3,3.3,0,0,1-3.08-.91c-1.38-1.44-2.84-2.8-4.23-4.24a2.86,2.86,0,0,1-.56-2.34c.06-1.24.58-2.42.47-3.68a2.74,2.74,0,0,0-.05-.71c-1.55-3.34-1.27-7-1.74-10.52a43.16,43.16,0,0,1,0-10.41,9.84,9.84,0,0,0-.46-3.9,3.38,3.38,0,0,1-.15-.82c0-2.46-.82-4.86-.63-7.35a4.35,4.35,0,0,0-.16-.77,14.43,14.43,0,0,0-.51,2.57c0,3.59-.91,7.07-1.39,10.59-.29,2.11-.78,4.24-1.16,6.36a30.28,30.28,0,0,0-.69,4.45A20.69,20.69,0,0,1,10,91.88c-.48,2.64-.46,5.4-1.27,7.93-.57,1.81-.08,3.31.18,5a3.71,3.71,0,0,1-1,3.73,2.79,2.79,0,0,0-.95,2,3.47,3.47,0,0,1-5,2.62c-1.33-.68-1.78-2.94-1.06-4.6s2-2.86,2.52-4.57a6.3,6.3,0,0,0,.15-4.3,2.55,2.55,0,0,1-.09-.83c-.13-4.35-.5-8.7-.41-13.05,0-.72-.36-1.4-.17-2.12-.13-1.29.2-2.61-.24-3.88a63,63,0,0,1,.27-8.9C3,68.39,3,66,3,63.52c0-1.23,0-2.47.07-3.7.31-.38.19-.84.19-1.26C3.31,55.61,3.32,52.66,3.33,49.71ZM13.72,18.57c-.14-.12-.29-.26-.48-.09a3.29,3.29,0,0,0,.23.32c.83.81,1.69,1.59,2.48,2.43a1.73,1.73,0,0,0,1.82.52C20,21.28,20.13,21,19,19c-.21-.37-.37-.43-.74-.26A5.12,5.12,0,0,1,13.72,18.57ZM28,23.22c-.25-1.46-1.31-2.45-2.08-3.62-.21,4-.41,8.1-.61,12.07.44.24.68,0,.92-.08,1.7-.69,3.39-1.41,5.09-2.09.56-.22.33-.51.14-.83-.59-1-1.22-2.05-1.76-3.12-.34-.66-.71-1-1.49-.72-.39.13-1,.17-1.09-.38a.79.79,0,0,1,.66-1c.16.32-.42.63-.11.84a1.09,1.09,0,0,0,1.22-.13C28.61,23.78,28.62,23.23,28,23.22ZM19.41,8.8h0A2.89,2.89,0,0,0,18.28,7.2c-1.12-1-1.16-1-1.71.36-.23.58-.88,1.23.25,1.78.51.24.25.95-.38.94s-.59.26-.62.69c-.11,1.35-.21,2.71-.41,4s-.53,2.46-2.3,2.32a4.32,4.32,0,0,0,4.59,1.11,1.07,1.07,0,0,0,.86-1.33c-.14-.82-.27-1.64,1-1.69a.68.68,0,0,0,.55-.58C20.48,12.76,20.81,10.68,19.41,8.8ZM29.49,34.24c.58-.17.6.36.67.64s-.34.39-.58.47c-1.58.51-3.18,1-4.74,1.53-1.14.41-2.23.73-3.22-.29a.33.33,0,0,0-.5-.1l.32.3c1.55,2,1.47,2.89-.35,4-.28-.41.13-.58.31-.72.85-.63.66-1.34.26-2.11a2.31,2.31,0,0,0-1.81-1.22A3.75,3.75,0,0,0,15.39,39a1.7,1.7,0,0,0,.53,2.23,3.62,3.62,0,0,0,4.06,0c.33-.24.53-.82,1.12-.55.32.48.72.17,1.07.08q3.6-.86,7.13-2a13.7,13.7,0,0,0,3.18-1.35c1.45-.95,2.19-2.74,1.59-4-.5-1-1.09-2-1.64-3.06-.15-.27-.28-.64-.7-.47l-5.35,2.16a14.62,14.62,0,0,1,2,1c.41.3,1.18.33,1.08,1.13l-4.58,1.27c-.56.15-1.14.28-1.12,1.16,1.76-.57,3.48-1.14,5.22-1.66C29.49,34.88,29.5,34.6,29.49,34.24ZM35.5,22c0,.75-.69.76-1.12,1a29.86,29.86,0,0,1-4.64,1.61c.23.41.41.76.62,1.09.69,1.1,1,2.9,2.09,3.16s2.39-.84,3.64-1.25a1.21,1.21,0,0,0,.9-1.33c.07-1.63.22-3.27.31-4.9.21-3.59.39-7.18.58-10.76,0-.6,0-1-.83-.65-3.34,1.2-6.72,2.3-10.08,3.43a1,1,0,0,0-.79,1c-.18,2.41-.24,4.74,1.48,6.79.55.65.9,1.25,1.84,1,0,.45-1,.31-.53,1.15s.92.68,1.56.5A28.41,28.41,0,0,0,35.5,22ZM14,60.16c.42.16.32.49.37.74.73,3.37.74,6.82,1.18,10.23a27.44,27.44,0,0,1,.58,6.55,54.76,54.76,0,0,0,.21,12.67c.34,2.71.27,5.53,1.72,8a1.8,1.8,0,0,1,0,1.06c-.17,1.26-.36,2.53-.58,3.78a1.42,1.42,0,0,0,.57,1.59,14,14,0,0,1,3.62,3.77,3,3,0,0,0,2.68,1.33c1.24-.09,1.64-.74,1-1.84s-1.55-2.42-2.28-3.66c-1.16-2-2.07-4.17-1.47-6.38a36.53,36.53,0,0,0,.82-6.62c.33-3.66.34-7.35,1-11a61.43,61.43,0,0,0,.75-13.61c-.25-4.35-.67-8.69-1.06-13-.2-2.26-.57-4.51-.9-6.76,0-.27,0-1-.53-.61a6.39,6.39,0,0,1-3.12.7A41.34,41.34,0,0,1,5,46.69c-.62-.14-.72,0-.8.55a32.42,32.42,0,0,0-.35,5c.16,11.51-1.14,23-.28,34.52.35,4.58,0,9.2,1,13.73a3,3,0,0,1-.1,1.18A28,28,0,0,1,1.6,108.9a2.48,2.48,0,0,0,.1,3,2.47,2.47,0,0,0,2.85.64,2.4,2.4,0,0,0,1.91-2.32,3.47,3.47,0,0,1,1.07-2.58,2.85,2.85,0,0,0,.82-3.06,11.45,11.45,0,0,1,0-5.7C9.11,95.65,9.41,92.28,10,89c.7-4.25,1.49-8.49,2.21-12.74a137.2,137.2,0,0,0,1.54-15A1.42,1.42,0,0,1,14,60.16Zm-3.84-23A13.18,13.18,0,0,1,6,41.44a3.17,3.17,0,0,0-1.21,1.87c-.39,1.16.14,1.43,1.09,1.65a34.35,34.35,0,0,0,13.44.1c2.18-.37,2.17-.46,2-2.6-.08-1.07-.33-1.2-1.22-.66a3.53,3.53,0,0,1-5.4-2,2.71,2.71,0,0,0-.44-.69,1.07,1.07,0,0,1,.38-1.71A6.91,6.91,0,0,1,16,36.79c.66-.18,1-.39.82-1.22-.23-1.48.3-2.16,1.76-2.5,1.82-.42,3.66-.81,5.5-1.16.57-.1.79-.26.81-.89.14-3.79.34-7.59.51-11.38a2.51,2.51,0,0,0-2.5-2.84c-1-.07-2.08,0-3.12-.07-.6,0-.72.22-.72.77a7.61,7.61,0,0,0,1,2.91c.27.68.19,1.14-.57,1.4-1.68.58-3.28,1-4.57-.82a10.36,10.36,0,0,0-1.81-1.75c-.61-.52-1-1.06-.42-2a25.28,25.28,0,0,0-7.46,3c-.64.4-1.07.68-.17,1.41,2,1.6,3.1,3.59,2.42,6.3a24.84,24.84,0,0,0-.39,3.57c1.69-1.4,3.05-3,4.8-3.81A5.52,5.52,0,0,0,14.82,25c1.32-2.53,3.92-2.41,6.25-2.8.27-.05.59,0,.7.31s-.1.54-.33.7c-.48.36-1,.71-1.48,1a2,2,0,0,0-1.06,2.58c.51,1.51-.3,3.21-1.39,3.46-1.61.37-2,1.36-2.76,2.43a29,29,0,0,1-2.93,3.16c-.26.27-.46.7-1.06.43,1.22-1.3,2.43-2.56,3.61-3.85a1.62,1.62,0,0,0,.2-2.32,4.87,4.87,0,0,1-.93-1.79c-.16-.79-.68-.69-1.17-.45a5.92,5.92,0,0,0-1.17.83c-1.16,1-2.31,2-3.46,3-.27.23-.54.55-.93.4s-.25-.63-.23-.95a23.34,23.34,0,0,1,.38-3.45c.55-2.29-.42-3.95-2-5.42-1.1-1-1.54-1-1.93.46a73,73,0,0,0-2.71,15c-.12,1.76.86,2.67,2.18,3.36a3.1,3.1,0,0,0,3.66-.45C7.61,39.56,8.82,38.3,10.18,37.19ZM9.05,11.1c-.12,3.9.3,4.51,3.59,5.52,1.34.41,1.83.16,2.18-1.17a25.3,25.3,0,0,0,.49-4.51A10.65,10.65,0,0,1,16.49,6.6c.39-.73.81-.91,1.49-.33a9.19,9.19,0,0,1,2.1,2.42,8.27,8.27,0,0,1,.79,4.53c0,.49-.14,1,.67.89s.59-.55.51-1-.15-1-.26-1.53c-.54-2.41-.88-4.87-2.31-7s-2.55-2.59-5.07-2c-.31.08-.62.12-.94.18A4.65,4.65,0,0,0,9.61,6.28,17.48,17.48,0,0,0,9.05,11.1Zm12,11.78L21,22.69c-1.19.22-2.4.38-3.57.66-1.48.37-3.53,3.34-3.27,4.8.15.8.46,1.84,1.29,2a2.21,2.21,0,0,0,2.57-1,3,3,0,0,0,.36-2.49,2.06,2.06,0,0,1,1-2.55C19.92,23.7,20.48,23.28,21.06,22.88ZM28.7,34c-3-2.84-6.22-1-9.35-.56a18.88,18.88,0,0,1,4.34,1.62,1.13,1.13,0,0,0,.7.09C25.81,34.79,27.22,34.4,28.7,34ZM12.75,47a38.37,38.37,0,0,0,5.51-.32c1.07-.1,2.26.08,3.22-.7.22-.18.48-.34.33-.67s-.44-.06-.66,0-.68.22-1,.33c-3.08.93-6.25.64-9.39.71a18,18,0,0,1-5.65-.83c-.25-.08-.62-.43-.76.11s.33.49.61.58a7.82,7.82,0,0,0,1.27.3A42.39,42.39,0,0,0,12.75,47ZM18.84,34a5,5,0,0,0-.92.14,1,1,0,0,0-.58,1.28c.13.56.58.16.89.11a5.75,5.75,0,0,1,4.21,1c.49.32.62,0,.82-.27s.44-.56-.09-.84A11.1,11.1,0,0,0,18.84,34Zm-3.31,3.67c-.49.08-1,.16-1.08.72,0,.12.15.38.21.38C15.31,38.75,15.27,38.08,15.53,37.68Zm2.71-1.59a13,13,0,0,1,2.41.23A3.31,3.31,0,0,0,18.24,36.09Z"/><path class="a" d="M59.9,18.19C61.67,16.68,64,16.87,66,16.25c.52-.15,1.13-.06,1.36-.92-2.41.37-2.78-1.45-3.33-3.06a14.62,14.62,0,0,1-.63-2.55c-.15-1.05.06-2.14-1.37-2.66-.72-.26-1-2.47-.62-3.23a1,1,0,0,1,1.11-.54c.64.08.87-.24.95-.78a1.74,1.74,0,0,1,2-1.54A11,11,0,0,0,69.9.15a1.56,1.56,0,0,1,2.2,1A2.27,2.27,0,0,0,73.17,2.5a2.16,2.16,0,0,1,1.19,1.4c.33,2.11.8,4.22-.39,6.26-.62,1.06-.22,2.27-.36,3.41A2.88,2.88,0,0,0,75.45,17a34,34,0,0,1,4.63,3,3,3,0,0,0,.93.53c2.63.55,3.31,2.54,3.66,4.82.55,3.6.74,7.22.93,10.84a3.87,3.87,0,0,0,.05.84c1,3.6-.11,7-.86,10.46-.12.55-.21,1.1-.33,1.64-.29,1.24-.48,2.49-1.59,3.37A2.19,2.19,0,0,0,82.33,55,12.42,12.42,0,0,1,82,62.33a2.16,2.16,0,0,1-1.44,1.35,1.72,1.72,0,0,0-1.2,1.93c0,1.08,0,2.16,0,3.24A26.54,26.54,0,0,1,79,74.32c-.45,1.73.25,3.47.52,5.2.56,3.61,1.21,7.21,1.83,10.82a34.54,34.54,0,0,0,.62,3.52,5.51,5.51,0,0,1-1.37,5.52,1.72,1.72,0,0,0-.48,1.81,26.11,26.11,0,0,1,.8,9.72,3,3,0,0,1-2.15,2.75,2.85,2.85,0,0,1-3.37-1.44c-.65-1-.28-2.24-.23-3.37a3.84,3.84,0,0,0,0-2.83c-.44-1.62.42-3.13.38-4.73A2.76,2.76,0,0,0,74,98.63c-1.56-.87-1.8-2.53-2.07-4.17-.39-2.35-1-4.67-1.44-7A63.68,63.68,0,0,1,68.62,74V67.63l-.3,0L68,69.07c-.53,4.31-1.43,8.61-1,13,.24,2.45.08,4.94.72,7.36A6,6,0,0,1,67.53,93c-.5,1.43-.11,2.93-.14,4.4,0,1.86-.12,2-1.81,2.69a6.47,6.47,0,0,0-2.28,1.88c-1.83,2-4.16,2.08-6.57,1.7-1-.17-1.22-1.48-.43-2.34,1.44-1.6,2.89-3.19,4.3-4.82.81-.94,1-3.25.26-4.17-1.47-1.82-1.26-4.11-1.86-6.17A69.7,69.7,0,0,1,57.39,79a20.32,20.32,0,0,1-.22-3.82A86,86,0,0,1,58,65.4a20.65,20.65,0,0,0,.31-3.69c-.11-2.23.57-4.4.6-6.62A11.88,11.88,0,0,1,59,53a10.3,10.3,0,0,1,1.23-3.79A4,4,0,0,0,60.16,45a3.32,3.32,0,0,1-.48-1.66,2.08,2.08,0,0,0-1.8-2.4A16.09,16.09,0,0,1,53.66,39a3.58,3.58,0,0,0-1-.44,3.05,3.05,0,0,1-2.38-2.67c-.42-2.25-.31-4.45,1.31-6.28a3,3,0,0,0,.62-1.3c-2.08-.68-4.15-1.44-6.27-2a2.42,2.42,0,0,1-2.1-2.55A24.67,24.67,0,0,0,42.71,17a.27.27,0,0,1,0-.12c.72-3-.56-5.91-.71-8.88-.06-1.27.09-1.41,1.36-1,3.44,1,6.87,2.13,10.31,3.15A1.71,1.71,0,0,1,55,11.71c.31,1.8.13,3.67.84,5.4a33.92,33.92,0,0,0,.58,5.71Zm.27,20.42s.14.14.15.13.07-.18,0-.25a1.68,1.68,0,0,0-1-1.23c-1.5-.63-3-1.32-4.48-2-.23-.1-.56-.47-.8,0s.13.55.43.68Zm3.31-21.26a5.41,5.41,0,0,0-4.29,2.49C58.47,20.9,57.73,21.94,57,23a2,2,0,0,0-.39,1.55c.21,1.34.36,2.69.52,4,.1.84-.26,1.11-1.05.85s-1.52-.49-2.27-.76c-.31-.1-.58-.26-.84.1-1.22,1.69-2.51,3.35-2.33,5.61.14,1.67.61,3,2.43,3.73,2.09.78,4.09,1.79,6.12,2.74a6.75,6.75,0,0,0,1.94.57c.87.11,2,.07,2.33-.73a7,7,0,0,1,2-2.85c-1.67.08-3.08.21-4.06,1.52-.29.39-.64.15-1,0-2.13-1-4.26-2-6.4-3-.69-.31-.71-.74-.44-1.34A4.42,4.42,0,0,1,57,32.36c1.34-.23,1.57-.77,1.81-2.08a35.37,35.37,0,0,1,4.79-12.79c.05,0,.15-.14.14-.15S63.57,17.26,63.48,17.35ZM75.85,56.26a9.13,9.13,0,0,1,.79-1.06c1.16-1.18.94-2.44.22-3.72a1.71,1.71,0,0,1-.35-1.11c.15-1-.38-.93-1.1-.72a22.45,22.45,0,0,1-13.78-.21c-.61-.21-.76.12-1,.51a10.76,10.76,0,0,0-1.12,4.61c-.49,4.89-.91,9.79-1.4,14.67-.31,3.14-.72,6.25-.09,9.42.73,3.76,1.84,7.44,2.39,11.24a4.21,4.21,0,0,0,.87,1.82,4.2,4.2,0,0,1-.1,4.76c-1.13,1.35-2.32,2.64-3.51,3.94a4.58,4.58,0,0,0-1,1.73c-.16.51,0,.9.56,1,1.88.24,3.69.21,5.1-1.34a8.67,8.67,0,0,1,3.78-2.64,1.1,1.1,0,0,0,.81-1.29c-.11-1.28-.17-2.56-.3-3.83a1.64,1.64,0,0,1,.22-1.24A3.46,3.46,0,0,0,67.29,90c-.19-1-.45-2-.54-3.06a68.49,68.49,0,0,1,1.39-21.08,1.66,1.66,0,0,1,.67-1.29c.11,2.49.21,4.78.32,7.07s.07,4.48.37,6.69c.74,5.5,2,10.91,3.13,16.34a5,5,0,0,0,2.15,3.45,3.2,3.2,0,0,1,1.46,3A11.21,11.21,0,0,1,75.8,104a3.85,3.85,0,0,0,0,2.35,3.22,3.22,0,0,1,.08,1.42,18.61,18.61,0,0,0-.17,3.34,2,2,0,0,0,1.58,2,2.2,2.2,0,0,0,2.59-1,6.31,6.31,0,0,0,.66-3.71,28,28,0,0,0-1-7.1c-.24-.76-.49-1.63.38-2.29a4.28,4.28,0,0,0,1.57-4.49q-1.14-6.6-2.26-13.22a31,31,0,0,1-.67-9,64.8,64.8,0,0,0,.06-7.64c-.15,0-.32.25-.55.39-1.31.76-1.76.56-1.75-.91a16.45,16.45,0,0,1,.31-2.61c.13-.75.43-1.79,0-2.15s-1.2.49-1.81.84c-.23.13-.43.46-.72.27a.85.85,0,0,1-.41-.82,3.73,3.73,0,0,1,1.55-2.55c-.16,1-1.18,1.64-1,2.78a2,2,0,0,0,.3-.1c.77-.44,1.6-1.53,2.35-1s.37,1.84.23,2.82-.22,1.82-.27,2.73c0,.52.24.79.73.42a22.73,22.73,0,0,1,3.31-1.91,1.35,1.35,0,0,0,.73-1,23.53,23.53,0,0,0,.4-2.35,35.62,35.62,0,0,0-.32-5c-.12-1.78-1-1.84-2.18-2.1-.27-.06-.54-.08-.82-.13-.68-.12-1-.06-.81.83A3,3,0,0,1,75.85,56.26Zm4.33-35.61A60.9,60.9,0,0,0,74,16.73c-.57-.31-.84-.13-1.18.31C72,18.21,71,19.36,70.08,20.5c-.52.63-3.29.49-3.72-.16-.19-.28,0-.52,0-.79.19-.74.37-1.47.53-2.21.06-.28.1-.6-.36-.54a3.58,3.58,0,0,0-3,1.7A42,42,0,0,0,60.72,25a32.09,32.09,0,0,0-1.44,5.18c-.3,1.49,0,2,1.36,2.45s2.4,1.1,3.65,1.49a3,3,0,0,1,2.37,3.16c0,.7.22.84.85.49a5,5,0,0,1,3.27-.42c.42.07,1,.32.89.63A3,3,0,0,0,72,40.24a1.06,1.06,0,0,1-.18.68c-1.61,3.22-3.72,3.72-6.51,1.53-.25-.19-.52-.36-.77-.56a1.32,1.32,0,0,0-1.12-.32,4.9,4.9,0,0,1-3.42,0c.29,1.2.2,2.22.78,3a3.62,3.62,0,0,1,.65,3.07c-.26,1.08.33,1.38,1.09,1.57a24.53,24.53,0,0,0,13.14-.16c.78-.23.87-.72.86-1.34a24.73,24.73,0,0,1,.6-6.07,12.36,12.36,0,0,0,0-6.5c-.54-1.83-.95-3.71-1.34-5.58a10.42,10.42,0,0,1-.17-4.16C76,23,77.7,21.5,80.18,20.65ZM77,47.58c0,.91,0,1.83,0,2.75s.4,1.4,1.39,1.43a9.61,9.61,0,0,1,2.11.36,2.24,2.24,0,0,0,3.09-1.83c.27-1,.5-2.09.76-3.13.6-2.45,1.36-4.95,1.14-7.42-.3-3.5-.46-7-.84-10.5A27.5,27.5,0,0,0,83.51,23a3.15,3.15,0,0,0-3.1-1.92A5.63,5.63,0,0,0,76,27a22.4,22.4,0,0,0,1,5.52c.73,2.86,1.61,5.69.83,8.7A21.57,21.57,0,0,0,77,47.58ZM55.93,23.2q-.76-5.88-1.51-11.76c-.08-.6-.56-.73-1-.87-3.32-1-6.65-2-10-3.07-1-.33-1,.11-.95.88.71,5.34,1.43,10.69,2.11,16a1,1,0,0,0,.8,1c1.3.4,2.58.86,3.88,1.25s2.57,1.39,3.6.95,1.58-1.9,2.31-2.95C55.5,24.22,56,23.85,55.93,23.2Zm17.19-10h0c0-.72,0-1.44,0-2.15a1,1,0,0,0-.4-.94A2.71,2.71,0,0,1,71.63,8c0-.36,0-.85-.59-.9s-.62.34-.77.74,0,1-.58.86-.44-.62-.54-1a5.53,5.53,0,0,1,0-.71c-.1-1-.48-1.25-1.42-.89-1.12.42-2.22.87-3.34,1.29-.57.21-.79.43-.15.85.31.19.47.48.15.78-.52.47-.33,1.06-.24,1.57a15.72,15.72,0,0,0,1,3.17,1.47,1.47,0,0,0,1.77,1c.93-.19,1.19.26,1,1s.12.76.61.81A13.41,13.41,0,0,0,72,16.43c.87-.13,1.35-.54,1.18-1.52A9.42,9.42,0,0,1,73.12,13.23ZM69.7,7.65c.36-.59.65-1.23,1.52-1s.8,1,1,1.61a3,3,0,0,0,.3.89c.22.37.55.85,1,.78s.6-.62.66-1A15.51,15.51,0,0,0,74,4.44a1.87,1.87,0,0,0-.89-1.35,3.27,3.27,0,0,1-1.5-1.78A1.07,1.07,0,0,0,70.08.65a9.66,9.66,0,0,1-4.41.79c-1,0-1.72.32-1.67,1.54,0,.46-.3.77-.86.78s-1.08-.22-1.22.43a2.76,2.76,0,0,0,.41,2.5A1.31,1.31,0,0,0,64,7c1-.41,2-.73,3-1.14C69,5.05,69.59,5.42,69.7,7.65ZM68.34,43.4a3.84,3.84,0,0,0,2.32-1.76c1.21-1.53.94-2.14-.89-2.93-1-.44-2,0-3-.24-1.17-.25-1.89.25-2.49,1.44s.28,1.36.89,1.81c.29.21.54.47.84.66A4.82,4.82,0,0,0,68.34,43.4Zm-2.85-7.93v-.32l-4.73-2a5.4,5.4,0,0,0-5.83.72c-.43.35-.74.64.06,1,1.54.64,3.06,1.34,4.59,2a.89.89,0,0,0,1,0A6.59,6.59,0,0,1,65.49,35.47ZM72.27,17a12.75,12.75,0,0,1-3.09.13c-1.56-.33-2,.37-2.11,1.69,0,.45-.64,1.12,0,1.31s1.78.9,2.56.09C70.59,19.25,71.35,18.14,72.27,17ZM61.14,38.71a6,6,0,0,1,4.17-1.39c.31,0,.91.3.82-.45-.06-.49-.1-.95-.87-1a7.15,7.15,0,0,0-3.75,1C60.63,37.32,60.11,37.77,61.14,38.71ZM56.06,24.3,53.48,28a14.9,14.9,0,0,0,3.16,1C56.45,27.42,56.27,26,56.06,24.3ZM68.7,37.87c.83.29,1.38.5,1.94.67a.4.4,0,0,0,.55-.31c0-.23-.15-.33-.35-.38A3.7,3.7,0,0,0,68.7,37.87Z"/><path class="a" d="M32.92,42.66c.8-3.44,3.65-4.35,6.51-4.83a13.39,13.39,0,0,1,6.94.51c2.73,1,4.32,2.13,4.31,5.58,0,12.4,0,24.8,0,37.2a4,4,0,0,0,1.12,3A4.39,4.39,0,0,1,53,87.4c0,2-.12,4,0,6,.25,3.54-1.83,5.52-4.41,6.59a16.21,16.21,0,0,1-11.16.74,9.78,9.78,0,0,1-6-4.27,3.81,3.81,0,0,1-.59-2c0-2.36,0-4.72,0-7.07a4.36,4.36,0,0,1,1.89-3.88c.4-.35.21-.83.21-1.24Q33,63,33,43.85C33,43.45,33,43.06,32.92,42.66ZM47.16,91.05c-.23.07-.5,0-.64.31-.19,0-.39,0-.47.24a14.85,14.85,0,0,1-8.85-.27A3.72,3.72,0,0,0,36,90.61c-.15-.32-.69-.39-.61-.9.5,0,.75.36,1.06.56,3.06,2,8.4,1.89,11.23-.22a3.62,3.62,0,0,0,1.55-3.53c-1.08.51-1.08.51-2.18-.56l1.46-.79c-.76-.74-1.41-1.58-2.48-.53l0,0c-.08-.42.69-1-.31-1.28a11,11,0,0,0-9.14.61c-1.71,1-2.93,2.93-1.45,5.15a.28.28,0,0,1,0,.42c-.51-.1-.64-.56-.81-.94-.81-1.86,0-3.93,2.13-5.11a11,11,0,0,1,6.94-1.2c1.22.15,2.49,1.09,3.71-.06.06,0,.23,0,.35,0,.24.32.56.62.29,1.06s-.06.45.18.67c2.21,2.1,2.3,2.53,1.2,5.38-.14.12-.39.27-.22.43s.29-.12.42-.23c1.16-1.21.75-2.75.93-4.19a2.61,2.61,0,0,0-2-3.07l-.67-.25A15.4,15.4,0,0,0,36.55,82c-3,1.07-3,1.11-3,4.31v.24a4.25,4.25,0,0,0,2.31,4.25,2.87,2.87,0,0,0,1.26.65,5,5,0,0,0,2.13.74,10.76,10.76,0,0,0,6.83-.57.5.5,0,0,0,.55-.17c.26,0,.51,0,.66-.31l.31-.18a1.21,1.21,0,0,0,.74-.42c.12-.12.46-.17.27-.39s-.3.08-.41.22a1.07,1.07,0,0,0-.7.51Zm3.71-6.9-.14-.08.07.15a17.59,17.59,0,0,0,0,1.92c.23,2.78-1.14,4.58-3.56,5.64a12.46,12.46,0,0,1-11.1-.24A5,5,0,0,1,33,86.43c.06-.65,0-1.31,0-2.19a4.43,4.43,0,0,0-1.58,3.42c0,2,.07,4.08,0,6.11a5.13,5.13,0,0,0,2.17,4.44c4.15,3.33,12.4,3.38,16.61.14a5.29,5.29,0,0,0,2.37-4.7c-.11-2,0-4.08,0-6.12A4,4,0,0,0,50.87,84.15ZM36,40a3.8,3.8,0,0,0-2.43,3.84q0,19,0,38v1c5.57-2.94,11.08-3.18,16.61-.08a3.12,3.12,0,0,0,.07-.47q0-19.36,0-38.72a3.87,3.87,0,0,0-1.72-3.25,11.28,11.28,0,0,0-8.78-1.82A6.19,6.19,0,0,0,36,40Z"/><path class="b" d="M59.9,18.19l-3.5,4.63a33.92,33.92,0,0,1-.58-5.71C56.87,18.64,58.41,18.34,59.9,18.19Z"/><path class="b" d="M32.92,42.66c0,.4.08.79.08,1.19Q33,63,33,82.23c0,.41.19.89-.21,1.24l.09-.67q.2-8.1,0-16.2,0-11.19,0-22.38C32.87,43.7,32.9,43.18,32.92,42.66Z"/><path class="a" d="M32.86,66.6q.2,8.1,0,16.2a9.92,9.92,0,0,1-.1-2.72q0-6.17,0-12.33C32.76,67.37,32.62,67,32.86,66.6Z"/><path class="b" d="M3.33,49.71c0,2.95,0,5.9-.05,8.85,0,.42.12.88-.19,1.26,0-3,0-6.09,0-9.14C3.05,50.33,3,50,3.33,49.71Z"/><path class="b" d="M68,69.07l.29-1.46.3,0V74c-.52-1.22-.12-2.51-.25-3.76C68.33,69.82,68.6,69.31,68,69.07Z"/><path class="b" d="M75.13,106a3.84,3.84,0,0,1,0,2.83Z"/><path class="b" d="M2.61,79.71c.44,1.27.11,2.59.24,3.88C2.24,82.33,2.69,81,2.61,79.71Z"/><path class="b" d="M14,60.16a1.42,1.42,0,0,0-.32,1.05,137.2,137.2,0,0,1-1.54,15C11.44,80.48,10.65,84.72,10,89c-.54,3.31-.84,6.68-1.65,9.92a11.45,11.45,0,0,0,0,5.7,2.85,2.85,0,0,1-.82,3.06,3.47,3.47,0,0,0-1.07,2.58,2.4,2.4,0,0,1-1.91,2.32,2.47,2.47,0,0,1-2.85-.64,2.48,2.48,0,0,1-.1-3,28,28,0,0,0,2.84-7.21,3,3,0,0,0,.1-1.18c-1-4.53-.61-9.15-1-13.73-.86-11.51.44-23,.28-34.52a32.42,32.42,0,0,1,.35-5c.08-.55.18-.69.8-.55a41.34,41.34,0,0,0,13.59.41,6.39,6.39,0,0,0,3.12-.7c.54-.35.49.34.53.61.33,2.25.7,4.5.9,6.76.39,4.34.81,8.68,1.06,13a61.43,61.43,0,0,1-.75,13.61c-.62,3.63-.63,7.32-1,11A36.53,36.53,0,0,1,21.68,98c-.6,2.21.31,4.41,1.47,6.38.73,1.24,1.56,2.42,2.28,3.66s.22,1.75-1,1.84a3,3,0,0,1-2.68-1.33,14,14,0,0,0-3.62-3.77,1.42,1.42,0,0,1-.57-1.59c.22-1.25.41-2.52.58-3.78a1.8,1.8,0,0,0,0-1.06c-1.45-2.48-1.38-5.3-1.72-8a54.76,54.76,0,0,1-.21-12.67,27.44,27.44,0,0,0-.58-6.55c-.44-3.41-.45-6.86-1.18-10.23C14.34,60.65,14.44,60.32,14,60.16Z"/><path class="b" d="M10.18,37.19c-1.36,1.11-2.57,2.37-3.92,3.48a3.1,3.1,0,0,1-3.66.45C1.28,40.43.3,39.52.42,37.76a73,73,0,0,1,2.71-15c.39-1.41.83-1.48,1.93-.46,1.58,1.47,2.55,3.13,2,5.42a23.34,23.34,0,0,0-.38,3.45c0,.32-.24.77.23.95s.66-.17.93-.4c1.15-1,2.3-2,3.46-3a5.92,5.92,0,0,1,1.17-.83c.49-.24,1-.34,1.17.45a4.87,4.87,0,0,0,.93,1.79,1.62,1.62,0,0,1-.2,2.32C13.19,33.73,12,35,10.76,36.29c.6.27.8-.16,1.06-.43a29,29,0,0,0,2.93-3.16c.75-1.07,1.15-2.06,2.76-2.43,1.09-.25,1.9-1.95,1.39-3.46A2,2,0,0,1,20,24.23c.51-.31,1-.66,1.48-1,.23-.16.44-.38.33-.7s-.43-.36-.7-.31c-2.33.39-4.93.27-6.25,2.8a5.52,5.52,0,0,1-2.88,2.76c-1.75.77-3.11,2.41-4.8,3.81A24.84,24.84,0,0,1,7.53,28c.68-2.71-.43-4.7-2.42-6.3-.9-.73-.47-1,.17-1.41a25.28,25.28,0,0,1,7.46-3c-.62.9-.19,1.44.42,2A10.36,10.36,0,0,1,15,21c1.29,1.78,2.89,1.4,4.57.82.76-.26.84-.72.57-1.4a7.61,7.61,0,0,1-1-2.91c0-.55.12-.8.72-.77,1,.05,2.08,0,3.12.07a2.51,2.51,0,0,1,2.5,2.84c-.17,3.79-.37,7.59-.51,11.38,0,.63-.24.79-.81.89-1.84.35-3.68.74-5.5,1.16-1.46.34-2,1-1.76,2.5.14.83-.16,1-.82,1.22a6.91,6.91,0,0,0-1.42.63,1.07,1.07,0,0,0-.38,1.71,2.71,2.71,0,0,1,.44.69,3.53,3.53,0,0,0,5.4,2c.89-.54,1.14-.41,1.22.66.16,2.14.17,2.23-2,2.6A34.35,34.35,0,0,1,5.84,45c-1-.22-1.48-.49-1.09-1.65A3.17,3.17,0,0,1,6,41.44,13.18,13.18,0,0,0,10.18,37.19Z"/><path class="b" d="M29.5,22.24c-.94.21-1.29-.39-1.84-1-1.72-2.05-1.66-4.38-1.48-6.79a1,1,0,0,1,.79-1c3.36-1.13,6.74-2.23,10.08-3.43.88-.32.86.05.83.65-.19,3.58-.37,7.17-.58,10.76-.09,1.63-.24,3.27-.31,4.9a1.21,1.21,0,0,1-.9,1.33c-1.25.41-2.6,1.51-3.64,1.25s-1.4-2.06-2.09-3.16c-.21-.33-.39-.68-.62-1.09A29.86,29.86,0,0,0,34.38,23c.43-.22,1.13-.23,1.12-1h0c.51,0,.46-.3.35-.59a1.23,1.23,0,0,0-1.06-.84c-1.64-.24-1.64-.25-.81-1.79a3.5,3.5,0,0,0,.24-.42,3.31,3.31,0,0,0-.5-3.12c-.74-.53-2.1-.22-3,.7a3.93,3.93,0,0,0-.74,4.72,5.83,5.83,0,0,1,.28,1.11v0c-.44-.12-.7,0-.73.49Z"/><path class="b" d="M9.05,11.1a17.48,17.48,0,0,1,.56-4.82,4.65,4.65,0,0,1,3.86-3.46c.32-.06.63-.1.94-.18,2.52-.63,3.59-.22,5.07,2s1.77,4.57,2.31,7c.11.5.18,1,.26,1.53s.32.93-.51,1-.69-.4-.67-.89a8.27,8.27,0,0,0-.79-4.53A9.19,9.19,0,0,0,18,6.27c-.68-.58-1.1-.4-1.49.33a10.65,10.65,0,0,0-1.18,4.34,25.3,25.3,0,0,1-.49,4.51c-.35,1.33-.84,1.58-2.18,1.17C9.35,15.61,8.93,15,9.05,11.1Z"/><path class="b" d="M21.62,36.59c1,1,2.08.7,3.22.29,1.56-.56,3.16-1,4.74-1.53.24-.08.66-.13.58-.47s-.09-.81-.67-.64h0c.1-.8-.67-.83-1.08-1.13a14.62,14.62,0,0,0-2-1l5.35-2.16c.42-.17.55.2.7.47.55,1,1.14,2,1.64,3.06.6,1.25-.14,3-1.59,4a13.7,13.7,0,0,1-3.18,1.35q-3.53,1.17-7.13,2c-.35.09-.75.4-1.07-.08h0c1.82-1.06,1.9-1.91.35-4Z"/><path class="b" d="M19.41,8.8c1.4,1.88,1.07,4,.68,6a.68.68,0,0,1-.55.58c-1.25.05-1.12.87-1,1.69a1.07,1.07,0,0,1-.86,1.33,4.32,4.32,0,0,1-4.59-1.11c1.77.14,2.11-1.07,2.3-2.32s.3-2.7.41-4c0-.43,0-.7.62-.69s.89-.7.38-.94c-1.13-.55-.48-1.2-.25-1.78.55-1.39.59-1.38,1.71-.36a2.89,2.89,0,0,1,1.15,1.61c-.23.12-.35-.11-.53-.16-.44-.14-.68.11-.78.48a.51.51,0,0,0,.36.65.59.59,0,0,0,.79-.32A2.87,2.87,0,0,0,19.41,8.8Z"/><path class="b" d="M27.82,23.44a.79.79,0,0,0-.66,1c.1.55.7.51,1.09.38.78-.25,1.15.06,1.49.72.54,1.07,1.17,2.09,1.76,3.12.19.32.42.61-.14.83-1.7.68-3.39,1.4-5.09,2.09-.24.1-.48.32-.92.08.2-4,.4-8,.61-12.07.77,1.17,1.83,2.16,2.08,3.62l0,0c-.31-.14-.34,0-.25.25Z"/><path class="b" d="M21.1,40.73c-.59-.27-.79.31-1.12.55a3.62,3.62,0,0,1-4.06,0A1.7,1.7,0,0,1,15.39,39a3.75,3.75,0,0,1,4.46-2.32,2.31,2.31,0,0,1,1.81,1.22c.4.77.59,1.48-.26,2.11-.18.14-.59.31-.31.72Z"/><path class="b" d="M21.06,22.88c-.58.4-1.14.82-1.73,1.2a2.06,2.06,0,0,0-1,2.55A3,3,0,0,1,18,29.12a2.21,2.21,0,0,1-2.57,1c-.83-.13-1.14-1.17-1.29-2-.26-1.46,1.79-4.43,3.27-4.8,1.17-.28,2.38-.44,3.57-.66Z"/><path class="b" d="M28.7,34c-1.48.4-2.89.79-4.31,1.15a1.13,1.13,0,0,1-.7-.09,18.88,18.88,0,0,0-4.34-1.62C22.48,33,25.66,31.16,28.7,34Z"/><path class="b" d="M12.75,47a42.39,42.39,0,0,1-6.54-.48,7.82,7.82,0,0,1-1.27-.3c-.28-.09-.72-.13-.61-.58s.51-.19.76-.11a18,18,0,0,0,5.65.83c3.14-.07,6.31.22,9.39-.71.34-.11.68-.23,1-.33s.45-.49.66,0-.11.49-.33.67c-1,.78-2.15.6-3.22.7A38.37,38.37,0,0,1,12.75,47Z"/><path class="b" d="M35.5,22a28.41,28.41,0,0,1-5,1.89c-.64.18-1.11.25-1.56-.5s.54-.7.53-1.15h0a.6.6,0,0,0,.73-.49v0c.61-.58,1.71-.06,2.17-1v0a3.52,3.52,0,0,0,1.84.27,1,1,0,0,1,1.27.92Z"/><path class="b" d="M13.72,18.57a5.12,5.12,0,0,0,4.5.2c.37-.17.53-.11.74.26,1.17,2,1.05,2.25-1.19,2.72A1.73,1.73,0,0,1,16,21.23c-.79-.84-1.65-1.62-2.48-2.43Z"/><path class="b" d="M18.84,34a11.1,11.1,0,0,1,4.33,1.37c.53.28.29.54.09.84s-.33.59-.82.27a5.75,5.75,0,0,0-4.21-1c-.31.05-.76.45-.89-.11a1,1,0,0,1,.58-1.28A5,5,0,0,1,18.84,34Z"/><path class="b" d="M29.49,34.24c0,.36,0,.64-.47.78-1.74.52-3.46,1.09-5.22,1.66,0-.88.56-1,1.12-1.16l4.58-1.27Z"/><path class="b" d="M28,23.22c.58,0,.57.56.89.93a1.09,1.09,0,0,1-1.22.13c-.31-.21.27-.52.11-.84h0c.2,0,.23-.1.25-.25Z"/><path class="b" d="M15.53,37.68c-.26.4-.22,1.07-.87,1.1-.06,0-.22-.26-.21-.38C14.55,37.84,15,37.76,15.53,37.68Z"/><path class="b" d="M18.24,36.09a3.31,3.31,0,0,1,2.41.23A13,13,0,0,0,18.24,36.09Z"/><path class="b" d="M21.44,36.79l-.32-.3a.33.33,0,0,1,.5.1Z"/><path class="b" d="M13.47,18.8a3.29,3.29,0,0,1-.23-.32c.19-.17.34,0,.48.09Z"/><path class="b" d="M75.85,56.26a3,3,0,0,0,2-3.17c-.19-.89.13-1,.81-.83.28.05.55.07.82.13,1.14.26,2.06.32,2.18,2.1a35.62,35.62,0,0,1,.32,5,23.53,23.53,0,0,1-.4,2.35,1.35,1.35,0,0,1-.73,1,22.73,22.73,0,0,0-3.31,1.91c-.49.37-.76.1-.73-.42q.08-1.36.27-2.73c.14-1,.59-2.25-.23-2.82s-1.58.57-2.35,1a2,2,0,0,1-.3.1c-.21-1.14.81-1.79,1-2.78a3.73,3.73,0,0,0-1.55,2.55.85.85,0,0,0,.41.82c.29.19.49-.14.72-.27.61-.35,1.3-1.23,1.81-.84s.17,1.4,0,2.15a16.45,16.45,0,0,0-.31,2.61c0,1.47.44,1.67,1.75.91.23-.14.4-.41.55-.39a64.8,64.8,0,0,1-.06,7.64,31,31,0,0,0,.67,9q1.11,6.61,2.26,13.22A4.28,4.28,0,0,1,79.93,99c-.87.66-.62,1.53-.38,2.29a28,28,0,0,1,1,7.1,6.31,6.31,0,0,1-.66,3.71,2.2,2.2,0,0,1-2.59,1,2,2,0,0,1-1.58-2,18.61,18.61,0,0,1,.17-3.34,3.22,3.22,0,0,0-.08-1.42,3.85,3.85,0,0,1,0-2.35,11.21,11.21,0,0,0,.44-2.83,3.2,3.2,0,0,0-1.46-3,5,5,0,0,1-2.15-3.45c-1.14-5.43-2.39-10.84-3.13-16.34-.3-2.21-.27-4.46-.37-6.69s-.21-4.58-.32-7.07a1.66,1.66,0,0,0-.67,1.29A68.49,68.49,0,0,0,66.75,87c.09,1,.35,2,.54,3.06a3.46,3.46,0,0,1-.48,2.75A1.64,1.64,0,0,0,66.59,94c.13,1.27.19,2.55.3,3.83a1.1,1.1,0,0,1-.81,1.29,8.67,8.67,0,0,0-3.78,2.64c-1.41,1.55-3.22,1.58-5.1,1.34-.55-.07-.72-.46-.56-1a4.58,4.58,0,0,1,1-1.73c1.19-1.3,2.38-2.59,3.51-3.94a4.2,4.2,0,0,0,.1-4.76,4.21,4.21,0,0,1-.87-1.82c-.55-3.8-1.66-7.48-2.39-11.24-.63-3.17-.22-6.28.09-9.42.49-4.88.91-9.78,1.4-14.67A10.76,10.76,0,0,1,60.64,50c.23-.39.38-.72,1-.51a22.45,22.45,0,0,0,13.78.21c.72-.21,1.25-.32,1.1.72a1.71,1.71,0,0,0,.35,1.11c.72,1.28.94,2.54-.22,3.72A9.13,9.13,0,0,0,75.85,56.26Z"/><path class="b" d="M80.18,20.65C77.7,21.5,76,23,75.56,25.47a10.42,10.42,0,0,0,.17,4.16c.39,1.87.8,3.75,1.34,5.58a12.36,12.36,0,0,1,0,6.5,24.73,24.73,0,0,0-.6,6.07c0,.62-.08,1.11-.86,1.34a24.53,24.53,0,0,1-13.14.16c-.76-.19-1.35-.49-1.09-1.57a3.62,3.62,0,0,0-.65-3.07c-.58-.81-.49-1.83-.78-3a4.9,4.9,0,0,0,3.42,0,1.32,1.32,0,0,1,1.12.32c.25.2.52.37.77.56,2.79,2.19,4.9,1.69,6.51-1.53a1.06,1.06,0,0,0,.18-.68A3,3,0,0,1,71.67,38c.12-.31-.47-.56-.89-.63a5,5,0,0,0-3.27.42c-.63.35-.85.21-.85-.49a3,3,0,0,0-2.37-3.16c-1.25-.39-2.42-1-3.65-1.49s-1.66-1-1.36-2.45A32.09,32.09,0,0,1,60.72,25a42,42,0,0,1,2.8-6.47,3.58,3.58,0,0,1,3-1.7c.46-.06.42.26.36.54-.16.74-.34,1.47-.53,2.21-.07.27-.21.51,0,.79.43.65,3.2.79,3.72.16C71,19.36,72,18.21,72.85,17c.34-.44.61-.62,1.18-.31A60.9,60.9,0,0,1,80.18,20.65Z"/><path class="b" d="M77,47.58a21.57,21.57,0,0,1,.74-6.4c.78-3-.1-5.84-.83-8.7A22.4,22.4,0,0,1,76,27a5.63,5.63,0,0,1,4.45-5.86A3.15,3.15,0,0,1,83.51,23a27.5,27.5,0,0,1,1.15,6.22c.38,3.49.54,7,.84,10.5.22,2.47-.54,5-1.14,7.42-.26,1-.49,2.09-.76,3.13a2.24,2.24,0,0,1-3.09,1.83,9.61,9.61,0,0,0-2.11-.36c-1,0-1.35-.57-1.39-1.43S77,48.49,77,47.58Z"/><path class="b" d="M55.93,23.2c.06.65-.43,1-.74,1.46-.73,1.05-1.31,2.53-2.31,2.95s-2.38-.59-3.6-.95-2.58-.85-3.88-1.25a1,1,0,0,1-.8-1c-.68-5.34-1.4-10.69-2.11-16-.1-.77-.09-1.21.95-.88,3.31,1.08,6.64,2.05,10,3.07.46.14.94.27,1,.87Q55.17,17.32,55.93,23.2Zm-2.86-2a.74.74,0,0,0-.5-.47c-.88-.88-.82-2-.84-3.13A3.9,3.9,0,0,0,50.9,15a2.41,2.41,0,0,0-2.49-.82c-.94.26-.88,1.16-.91,2a18.91,18.91,0,0,0,.22,2.14c0,.55.13,1-.63,1.31a.85.85,0,0,0-.45,1.36,11.27,11.27,0,0,0,6.27,1.8c.82.05.91-.46.48-1.09Z"/><path class="b" d="M63.62,17.49a35.37,35.37,0,0,0-4.79,12.79c-.24,1.31-.47,1.85-1.81,2.08A4.42,4.42,0,0,0,53.56,35c-.27.6-.25,1,.44,1.34,2.14,1,4.27,2,6.4,3,.32.15.67.39,1,0,1-1.31,2.39-1.44,4.06-1.52a7,7,0,0,0-2,2.85c-.33.8-1.46.84-2.33.73a6.75,6.75,0,0,1-1.94-.57c-2-.95-4-2-6.12-2.74-1.82-.68-2.29-2.06-2.43-3.73-.18-2.26,1.11-3.92,2.33-5.61.26-.36.53-.2.84-.1.75.27,1.52.5,2.27.76s1.15,0,1.05-.85c-.16-1.35-.31-2.7-.52-4A2,2,0,0,1,57,23c.76-1,1.5-2.07,2.22-3.13a5.41,5.41,0,0,1,4.29-2.49Z"/><path class="b" d="M73.12,13.23a9.42,9.42,0,0,0,0,1.68c.17,1-.31,1.39-1.18,1.52a13.41,13.41,0,0,1-3.46.22c-.49,0-.79-.18-.61-.81.23-.78,0-1.23-1-1a1.47,1.47,0,0,1-1.77-1,15.72,15.72,0,0,1-1-3.17c-.09-.51-.28-1.1.24-1.57.32-.3.16-.59-.15-.78-.64-.42-.42-.64.15-.85,1.12-.42,2.22-.87,3.34-1.29C68.63,5.75,69,6,69.11,7a5.53,5.53,0,0,0,0,.71c.1.38.14.94.54,1s.46-.54.58-.86.23-.79.77-.74.57.54.59.9a2.71,2.71,0,0,0,1.15,2.13,1,1,0,0,1,.4.94c0,.71,0,1.43,0,2.15ZM66.88,8.54A.5.5,0,0,0,66.34,8a.49.49,0,1,0,0,1C66.61,9,66.79,8.83,66.88,8.54Z"/><path class="b" d="M69.7,7.65C69.59,5.42,69,5.05,67,5.88c-1,.41-2,.73-3,1.14a1.31,1.31,0,0,1-1.63-.33,2.76,2.76,0,0,1-.41-2.5c.14-.65.78-.43,1.22-.43S64,3.44,64,3c0-1.22.72-1.57,1.67-1.54A9.66,9.66,0,0,0,70.08.65a1.07,1.07,0,0,1,1.55.66,3.27,3.27,0,0,0,1.5,1.78A1.87,1.87,0,0,1,74,4.44a15.51,15.51,0,0,1,.07,4.41c-.06.42-.28,1-.66,1s-.74-.41-1-.78a3,3,0,0,1-.3-.89c-.15-.64,0-1.4-1-1.61S70.06,7.06,69.7,7.65Z"/><path class="b" d="M68.34,43.4a4.82,4.82,0,0,1-2.37-1c-.3-.19-.55-.45-.84-.66-.61-.45-1.45-.72-.89-1.81s1.32-1.69,2.49-1.44c1,.21,2-.2,3,.24,1.83.79,2.1,1.4.89,2.93A3.84,3.84,0,0,1,68.34,43.4Z"/><path class="b" d="M65.49,35.47a6.59,6.59,0,0,0-4.91,1.4.89.89,0,0,1-1,0c-1.53-.68-3.05-1.38-4.59-2-.8-.33-.49-.62-.06-1a5.4,5.4,0,0,1,5.83-.72l4.73,2Z"/><path class="b" d="M72.27,17c-.92,1.15-1.68,2.26-2.61,3.22-.78.81-1.75.14-2.56-.09s-.06-.86,0-1.31c.07-1.32.55-2,2.11-1.69A12.75,12.75,0,0,0,72.27,17Z"/><path class="b" d="M61.14,38.71c-1-.94-.51-1.39.37-1.87a7.15,7.15,0,0,1,3.75-1c.77,0,.81.49.87,1,.09.75-.51.45-.82.45A6,6,0,0,0,61.14,38.71Z"/><path class="b" d="M56.06,24.3c.21,1.71.39,3.12.58,4.66a14.9,14.9,0,0,1-3.16-1Z"/><path class="b" d="M60.17,38.61,54.43,36c-.3-.13-.64-.26-.43-.68s.57-.12.8,0c1.5.65,3,1.34,4.48,2a1.68,1.68,0,0,1,1,1.23Z"/><path class="b" d="M68.7,37.87a3.7,3.7,0,0,1,2.14,0c.2,0,.4.15.35.38a.4.4,0,0,1-.55.31C70.08,38.37,69.53,38.16,68.7,37.87Z"/><path class="b" d="M63.48,17.35c.09-.09.19-.14.28,0s-.09.1-.14.15Z"/><path class="b" d="M60.29,38.49c.1.07.19.15,0,.25s-.1-.08-.15-.13Z"/><path class="b" d="M36,40a6.19,6.19,0,0,1,3.77-1.53,11.28,11.28,0,0,1,8.78,1.82,3.87,3.87,0,0,1,1.72,3.25q0,19.37,0,38.72a3.12,3.12,0,0,1-.07.47c-5.53-3.1-11-2.86-16.61.08v-1q0-19,0-38A3.8,3.8,0,0,1,36,40c.26.22,0,.34-.1.46-2.25,2.53-1.92,4.59,1,6.25a10.32,10.32,0,0,0,6.61,1.1c.53-.07,1-.28,1.3.5.24.58,1.27.38,1.23-.23-.07-1,.63-1.15,1.2-1.5,2.85-1.77,3-4.32.3-6.34a6.07,6.07,0,0,0-1.24-.7,11.41,11.41,0,0,0-9.28.21C36.68,39.89,36.42,40.37,36,40Zm1.45,12.71c-.09.06-.24.11-.27.19-.28,1-.73,1.57-1.87.85-.31-.21-.65.15-.85.47s0,.61.2.84a.66.66,0,0,0,1,.1c.28-.21.45-.52.76-.73.84-.54,1.24.35,1.86.5.38.1.25.64.1.92-.31.57-.24,1,.32,1.3a.63.63,0,0,0,.9-.32c.31-.51.07-.88-.39-1.19s-.69-.66-.33-.88c1.26-.77.62-1.64.29-2.53.51-.17.77-.7,1.31-.88a.6.6,0,0,0,.25-.91.79.79,0,0,0-.91-.4c-.37.1-.74.46-.58.75.32.56-.17,1-.06,1.46-.56.15-1.32-.36-1.7.47ZM39.1,75.3c-.56.15-1.32-.36-1.7.47h0c-.51,1-1,1.89-2.37,1-.2-.13-.56.27-.67.58s.09.6.34.8a.63.63,0,0,0,.87,0c.21-.18.37-.41.58-.6.77-.68,1.32.14,1.94.35s.34.66.19,1c-.29.58-.24,1,.35,1.28a.67.67,0,0,0,.91-.34c.32-.54,0-.87-.43-1.17s-.68-.66-.33-.88c1.27-.76.63-1.64.3-2.53.51-.17.77-.7,1.31-.88a.59.59,0,0,0,.25-.91.77.77,0,0,0-.9-.4c-.38.1-.75.46-.59.75C39.48,74.4,39,74.82,39.1,75.3Zm5.26-12.23c0-.35-.12-.69-.15-1a.75.75,0,0,0-.85-.78.7.7,0,0,0-.68.71c0,.52.28.77.79.85a7.43,7.43,0,0,1,.9.23c-.39.61-.21,2-1.62,1.26a.77.77,0,0,0-1.14.23.67.67,0,0,0,.16,1c.48.39.83.18,1.21-.23a1.14,1.14,0,0,1,1.8-.19,1,1,0,0,0,1.49-.24c.44-.71.84-.7,1.35-.17a.82.82,0,0,0,1.25.12.63.63,0,0,0,.07-1c-.39-.46-.79-.41-1.24-.06s-.72.47-1,0-.64-.89,0-1.43c.28-.26.64-.32.9-.56a.68.68,0,0,0,.22-.85.77.77,0,0,0-.87-.48c-.34.06-.69.31-.6.64.32,1.3-.38,1.63-1.46,1.71C44.69,62.78,44.52,63,44.36,63.07ZM39.8,53.72c.35.22.61.55.9.7,1,.49,1.59,0,1.1-.94S40.52,53.67,39.8,53.72ZM42,77c0-.5-.29-.82-.71-.81a2.74,2.74,0,0,0-1.43.62c.49.27.77.88,1.38.91S41.91,77.37,42,77Zm3.69-11.47c.1.7-1.08,1.42.06,2.05a.64.64,0,0,0,.92-.29C47.19,66.2,45.92,66.14,45.67,65.49Zm-9-13.07c.43.19.43-.16.46-.57a.8.8,0,0,0-.74-1,.75.75,0,0,0-.84.79C35.55,52.18,36,52.43,36.64,52.42Zm-.37,21.43c-.44.16-.84.41-.74.92s.54.66,1.08.7.48-.39.5-.68C37.14,74.22,36.8,73.94,36.27,73.85Z"/><path class="b" d="M50.87,84.15a4,4,0,0,1,1.67,3.38c0,2-.08,4.09,0,6.12a5.29,5.29,0,0,1-2.37,4.7c-4.21,3.24-12.46,3.19-16.61-.14a5.13,5.13,0,0,1-2.17-4.44c.1-2,0-4.08,0-6.11A4.43,4.43,0,0,1,33,84.24c0,.88,0,1.54,0,2.19a5,5,0,0,0,3.07,5.11,12.46,12.46,0,0,0,11.1.24c2.42-1.06,3.79-2.86,3.56-5.64a17.59,17.59,0,0,1,0-1.92Z"/><path class="b" d="M47.45,82.29c-.12,0-.29-.09-.35,0-1.22,1.15-2.49.21-3.71.06a11,11,0,0,0-6.94,1.2c-2.1,1.18-2.94,3.25-2.13,5.11.17.38.3.84.81.94a.28.28,0,0,0,0-.42C33.68,86.92,34.9,85,36.61,84a11,11,0,0,1,9.14-.61c1,.32.23.86.31,1.28a1.6,1.6,0,0,0-1.7.24c-.06-.38-.1-.77-.17-1.15a.69.69,0,0,0-.79-.57.65.65,0,0,0-.72.63.71.71,0,0,0,.55.81c.37.11.76.18,1.15.27-.32,1-.57,2-2,1.18-.33-.18-.71.07-.87.44a.69.69,0,0,0,.23.86.74.74,0,0,0,1.07-.07c.45-.45.86-1,1.64-.58a1.2,1.2,0,0,0,2-.29c.19-.47.34-.94-.12-1.36l-.25-.24a.22.22,0,0,0-.06-.19c1.07-1,1.72-.21,2.48.53L47.06,86c1.1,1.07,1.1,1.07,2.18.56a3.62,3.62,0,0,1-1.55,3.53c-2.83,2.11-8.17,2.22-11.23.22-.31-.2-.56-.57-1.06-.56-.08.51.46.58.61.9l-.17.19a4.25,4.25,0,0,1-2.31-4.25v-.24c0-3.2,0-3.24,3-4.31a15.4,15.4,0,0,1,11.08.09Zm-1.78,5.1c0,.69-1,1.4,0,2a.66.66,0,0,0,.94-.25C47.23,88.1,46,88,45.67,87.39Z"/><path class="b" d="M47.63,82.09l.67.25a2.61,2.61,0,0,1,2,3.07c-.18,1.44.23,3-.93,4.19l-.2-.2c1.1-2.85,1-3.28-1.2-5.38-.24-.22-.38-.35-.18-.67s-.05-.74-.29-1.06Z"/><path class="b" d="M46.06,91.62a10.76,10.76,0,0,1-6.83.57,5,5,0,0,1-2.13-.74l.1-.12a14.85,14.85,0,0,0,8.85.27Z"/><path class="b" d="M36,90.61a3.72,3.72,0,0,1,1.19.72l-.1.12a2.87,2.87,0,0,1-1.26-.65Z"/><path class="b" d="M47.48,90.88a1.07,1.07,0,0,1,.7-.51l.14.17a1.21,1.21,0,0,1-.74.42Z"/><path class="b" d="M46.52,91.36c.14-.26.41-.24.64-.31l.11.09c-.15.26-.4.28-.66.31Z"/><path class="b" d="M46.61,91.45a.5.5,0,0,1-.55.17v0c.08-.23.28-.23.47-.24Z"/><path class="b" d="M48.18,90.37c.11-.14.26-.4.41-.22s-.15.27-.27.39Z"/><path class="b" d="M49.32,89.6c-.13.11-.22.43-.42.23s.08-.31.22-.43Z"/><path class="b" d="M47.16,91.05l.32-.17.1.08-.31.18Z"/><path class="b" d="M50.8,84.22l-.07-.15.14.08Z"/><path class="a" d="M32.38,20.8c-.46.92-1.56.4-2.17,1a5.83,5.83,0,0,0-.28-1.11A3.93,3.93,0,0,1,30.67,16c.93-.92,2.29-1.23,3-.7a3.31,3.31,0,0,1,.5,3.12,3.5,3.5,0,0,1-.24.42c-.83,1.54-.83,1.55.81,1.79a1.23,1.23,0,0,1,1.06.84c.11.29.16.62-.35.59a1,1,0,0,0-1.27-.92,3.52,3.52,0,0,1-1.84-.27c.39-.72.77-1.46,1.19-2.16.17-.29.41-.62.23-.87s-.6-.18-.87,0a1.46,1.46,0,0,1-1.26,0c-.37-.1-.93-.61-1.09,0s-1.05,1-.6,1.94A1.81,1.81,0,0,0,32.38,20.8Z"/><path class="a" d="M30.22,21.76a.6.6,0,0,1-.73.49C29.52,21.77,29.78,21.64,30.22,21.76Z"/><path class="a" d="M19.41,8.8a2.87,2.87,0,0,1-.14.66.59.59,0,0,1-.79.32.51.51,0,0,1-.36-.65c.1-.37.34-.62.78-.48.18,0,.3.28.53.16Z"/><path class="a" d="M28.06,23.2c0,.15,0,.29-.25.25C27.72,23.19,27.75,23.06,28.06,23.2Z"/><path class="a" d="M46.64,20.93a.85.85,0,0,1,.45-1.36c.76-.26.67-.76.63-1.31a18.91,18.91,0,0,1-.22-2.14c0-.83,0-1.73.91-2A2.41,2.41,0,0,1,50.9,15a3.9,3.9,0,0,1,.83,2.68c0,1.11,0,2.25.84,3.13l-.2.22a12.7,12.7,0,0,0-2.93-1.32,2.81,2.81,0,0,0-2.61,1.09Zm3.57-4.82c-.65.61-1.71.31-2.18.93-.34.45,1.35,2.42,2,2.38,1-.06,1.12-1.05,1.2-1.66S50.74,16.58,50.21,16.11Z"/><path class="a" d="M53.39,21.64c.43.63.34,1.14-.48,1.09a11.27,11.27,0,0,1-6.27-1.8l.19-.18a14.09,14.09,0,0,0,5.53,1.51c.3,0,.86.28.83-.44Z"/><path class="a" d="M52.57,20.76a.74.74,0,0,1,.5.47l-.2.19-.5-.44Z"/><path class="a" d="M53.07,21.23l.32.41-.2.18-.32-.4Z"/><path class="a" d="M66.88,8.54c-.09.29-.27.5-.59.46a.49.49,0,1,1,0-1A.5.5,0,0,1,66.88,8.54Z"/><path class="a" d="M36,40c.46.36.72-.12,1-.26a11.41,11.41,0,0,1,9.28-.21,6.07,6.07,0,0,1,1.24.7c2.68,2,2.55,4.57-.3,6.34-.57.35-1.27.5-1.2,1.5,0,.61-1,.81-1.23.23-.32-.78-.77-.57-1.3-.5a10.32,10.32,0,0,1-6.61-1.1c-2.92-1.66-3.25-3.72-1-6.25.11-.12.36-.24.1-.46Zm10.21,5.06c.71,0,1.08-.75,1.66-.5,1,.44,1-.39,1.06-.87a3.38,3.38,0,0,0-2.19-3.39,10.3,10.3,0,0,0-10,.18c-2.48,1.37-2.51,3.87-.15,5.45a9.51,9.51,0,0,0,7.7,1.18,7.48,7.48,0,0,1,1.66-.48c.42,0,1-.22,1.13-.73S46.58,45.46,46.17,45.07Z"/><path class="a" d="M44.35,63.07c.17-.11.34-.29.51-.3,1.08-.08,1.78-.41,1.46-1.71-.09-.33.26-.58.6-.64a.77.77,0,0,1,.87.48.68.68,0,0,1-.22.85c-.26.24-.62.3-.9.56-.6.54-.2,1,0,1.43s.68.27,1,0,.85-.4,1.24.06a.63.63,0,0,1-.07,1,.82.82,0,0,1-1.25-.12c-.51-.53-.91-.54-1.35.17a1,1,0,0,1-1.49.24,1.14,1.14,0,0,0-1.8.19c-.38.41-.73.62-1.21.23a.67.67,0,0,1-.16-1,.77.77,0,0,1,1.14-.23c1.41.72,1.23-.65,1.62-1.26Zm1,1.74c.54-.06.92-.34.89-.89a.89.89,0,0,0-1.78,0C44.44,64.44,44.82,64.75,45.36,64.81Z"/><path class="a" d="M37.4,75.77c.38-.83,1.14-.32,1.7-.47v0c.33.89,1,1.77-.3,2.53-.35.22,0,.68.33.88s.75.63.43,1.17a.67.67,0,0,1-.91.34c-.59-.29-.64-.7-.35-1.28.15-.32.34-.81-.19-1s-1.17-1-1.94-.35c-.21.19-.37.42-.58.6a.63.63,0,0,1-.87,0c-.25-.2-.48-.44-.34-.8s.47-.71.67-.58c1.35.85,1.86-.07,2.37-1,.29.29-.06.57,0,.87.07.52.32.8.83.81a.77.77,0,0,0,.87-.88c0-.52-.3-.75-.82-.82C38,75.7,37.7,76.05,37.4,75.77Z"/><path class="a" d="M39.09,52.24c.33.89,1,1.76-.29,2.53-.36.22,0,.68.33.88s.7.68.39,1.19a.63.63,0,0,1-.9.32c-.56-.31-.63-.73-.32-1.3.15-.28.28-.82-.1-.92-.62-.15-1-1-1.86-.5-.31.21-.48.52-.76.73a.66.66,0,0,1-1-.1c-.23-.23-.42-.49-.2-.84s.54-.68.85-.47c1.14.72,1.59.19,1.87-.85,0-.08.18-.13.27-.19.29.29-.06.57,0,.87.07.52.32.8.83.81a.77.77,0,0,0,.87-.88c0-.52-.3-.75-.82-.82-.3,0-.57.31-.87,0,.38-.83,1.14-.32,1.7-.47Z"/><path class="a" d="M39.1,75.3c-.11-.48.38-.9.06-1.46-.16-.29.21-.65.59-.75a.77.77,0,0,1,.9.4.59.59,0,0,1-.25.91c-.54.18-.8.71-1.31.88Z"/><path class="a" d="M39.8,53.72c.72,0,1.42-1.3,2-.24s-.11,1.43-1.1.94C40.41,54.27,40.15,53.94,39.8,53.72Z"/><path class="a" d="M42,77c-.07.41-.3.74-.76.72s-.89-.64-1.38-.91a2.74,2.74,0,0,1,1.43-.62C41.69,76.14,42,76.46,42,77Z"/><path class="a" d="M39.1,52.26c-.11-.48.38-.9.06-1.46-.16-.29.21-.65.58-.75a.79.79,0,0,1,.91.4.6.6,0,0,1-.25.91c-.54.18-.8.71-1.31.88Z"/><path class="a" d="M45.67,65.49c.25.65,1.52.71,1,1.76a.64.64,0,0,1-.92.29C44.59,66.91,45.77,66.19,45.67,65.49Z"/><path class="a" d="M36.64,52.42c-.67,0-1.09-.24-1.12-.78a.75.75,0,0,1,.84-.79.8.8,0,0,1,.74,1C37.07,52.26,37.07,52.61,36.64,52.42Z"/><path class="a" d="M36.27,73.85c.53.09.87.37.84.94,0,.29.14.73-.5.68s-1-.17-1.08-.7S35.83,74,36.27,73.85Z"/><path class="a" d="M44.37,63.05a7.43,7.43,0,0,0-.9-.23c-.51-.08-.81-.33-.79-.85a.7.7,0,0,1,.68-.71.75.75,0,0,1,.85.78c0,.34.1.68.15,1Z"/><path class="a" d="M44.48,86.72c-.78-.46-1.19.13-1.64.58a.74.74,0,0,1-1.07.07.69.69,0,0,1-.23-.86c.16-.37.54-.62.87-.44,1.4.78,1.65-.23,2-1.18h0a1.6,1.6,0,0,1,1.7-.24l0,0a.22.22,0,0,1,.06.19l-.21.25a.87.87,0,0,0-1.16.13c-.42.41-.26.84,0,1.27Z"/><path class="a" d="M45.67,87.39c.28.62,1.56.71,1,1.75a.66.66,0,0,1-.94.25C44.66,88.79,45.7,88.08,45.67,87.39Z"/><path class="a" d="M44.38,84.89c-.39-.09-.78-.16-1.15-.27a.71.71,0,0,1-.55-.81.65.65,0,0,1,.72-.63.69.69,0,0,1,.79.57c.07.38.11.77.17,1.15Z"/><path class="a" d="M46.47,86.43a1.2,1.2,0,0,1-2,.29l.21-.24a1.1,1.1,0,0,0,1.51-.23Z"/><path class="a" d="M46.35,85.07c.46.42.31.89.12,1.36l-.27-.18a1.11,1.11,0,0,0-.09-1Z"/><path class="a" d="M46.1,84.83l.25.24-.24.21-.22-.2Z"/><path class="b" d="M32.38,20.8A1.81,1.81,0,0,1,30,19.75c-.45-1,.43-1.3.6-1.94s.72-.14,1.09,0a1.46,1.46,0,0,0,1.26,0c.27-.16.69-.24.87,0s-.06.58-.23.87c-.42.7-.8,1.44-1.19,2.16Z"/><path class="b" d="M52.87,21.42l.32.4c0,.72-.53.47-.83.44a14.09,14.09,0,0,1-5.53-1.51,2.81,2.81,0,0,1,2.61-1.09A12.7,12.7,0,0,1,52.37,21Z"/><path class="b" d="M50.21,16.11c.53.47,1.07,1.12,1,1.65S51,19.36,50,19.42c-.63,0-2.32-1.93-2-2.38C48.5,16.42,49.56,16.72,50.21,16.11Z"/><path class="b" d="M46.17,45.07c.41.39,1,.44.89.84s-.71.72-1.13.73a7.48,7.48,0,0,0-1.66.48,9.51,9.51,0,0,1-7.7-1.18c-2.36-1.58-2.33-4.08.15-5.45a10.3,10.3,0,0,1,10-.18,3.38,3.38,0,0,1,2.19,3.39c-.1.48,0,1.31-1.06.87C47.25,44.32,46.88,45,46.17,45.07Zm-2.52-1.23a3.44,3.44,0,0,1-.11-.91.73.73,0,0,0-.83-.68.78.78,0,0,0-.09,1.55,4.59,4.59,0,0,0,1.05,0c-.08.26-.17.52-.24.78a1.29,1.29,0,0,0,.68,1.51,1.15,1.15,0,0,0,1.51-.26,1.11,1.11,0,0,0,.21-1.51,1.26,1.26,0,0,0-1.51-.65C44.1,43.76,43.91,44,43.65,43.84Zm-.41,1.72c-.52-.14-1,0-1.4-.34s-.74.06-1,.41,0,.6.19.84.76.39,1,0S42.83,45.94,43.24,45.56Zm2.33-1.93c.48-.21.72-.64,1.18-.8a.64.64,0,0,0,.33-1,.73.73,0,0,0-.91-.38c-.41.13-.77.49-.54.89S45.48,43.16,45.57,43.63Z"/><path class="b" d="M45.36,64.81c-.54-.06-.92-.37-.89-.9a.89.89,0,0,1,1.78,0C46.28,64.47,45.9,64.75,45.36,64.81Z"/><path class="b" d="M37.4,75.77c.3.28.57-.07.87,0,.52.07.81.3.82.82a.77.77,0,0,1-.87.88c-.51,0-.76-.29-.83-.81,0-.3.31-.58,0-.87Z"/><path class="b" d="M37.4,52.73c.3.28.57-.07.87,0,.52.07.81.3.82.82a.77.77,0,0,1-.87.88c-.51,0-.76-.29-.83-.81,0-.3.31-.58,0-.87Z"/><path class="b" d="M45.89,85.08l.22.2a.93.93,0,0,1-1.42,1.2c-.22-.43-.38-.86,0-1.27A.87.87,0,0,1,45.89,85.08Z"/><path class="a" d="M43.65,43.84c.26.12.45-.08.67-.15a1.26,1.26,0,0,1,1.51.65,1.11,1.11,0,0,1-.21,1.51,1.15,1.15,0,0,1-1.51.26,1.29,1.29,0,0,1-.68-1.51c.07-.26.16-.52.24-.78Zm1,.25a.8.8,0,0,0-.82.86.85.85,0,0,0,1.7,0C45.55,44.38,45.19,44.13,44.67,44.09Z"/><path class="a" d="M43.24,45.56c-.41.38-.86.54-1.15.93s-.69.32-1,0-.4-.51-.19-.84.57-.69,1-.41S42.72,45.42,43.24,45.56Z"/><path class="a" d="M45.57,43.63c-.09-.47.34-.81.06-1.28s.13-.76.54-.89a.73.73,0,0,1,.91.38.64.64,0,0,1-.33,1C46.29,43,46.05,43.42,45.57,43.63Z"/><path class="a" d="M43.67,43.82a4.59,4.59,0,0,1-1.05,0,.78.78,0,0,1,.09-1.55.73.73,0,0,1,.83.68,3.44,3.44,0,0,0,.11.91Z"/><path class="b" d="M44.67,44.09c.52,0,.88.29.88.87a.85.85,0,0,1-1.7,0A.8.8,0,0,1,44.67,44.09Z"/></svg>