<?xml version="1.0" encoding="utf-8"?>
<!-- Generator: Adobe Illustrator 22.0.1, SVG Export Plug-In . SVG Version: 6.00 Build 0)  -->
<svg version="1.1" xmlns="http://www.w3.org/2000/svg" xmlns:xlink="http://www.w3.org/1999/xlink" x="0px" y="0px"
	 viewBox="0 0 358.7 473.6" style="enable-background:new 0 0 358.7 473.6;" xml:space="preserve">
<style type="text/css">
	.st0{fill:#EFBB31;}
	.st1{fill:#3D0941;}
	.st2{fill:none;stroke:#EFBB31;stroke-width:0.8788;stroke-miterlimit:10;}
	.st3{fill:none;stroke:#EFBB31;stroke-width:1.5;stroke-miterlimit:10;}
	.st4{fill:none;stroke:#EFBB31;stroke-width:0.8181;stroke-miterlimit:10;}
	.st5{fill:none;stroke:#EFBB31;stroke-width:1.3964;stroke-miterlimit:10;}
</style>
<g id="Layer_1">
	<path class="st0" d="M294.2,0c3.3,0,5.3,2.3,6.7,5c1.8,4,6.2,5.2,8.2,8.8c1.3,2.4,2.2,5.1,2.3,7.9c0.2,5,0.4,10.1-0.2,15.1
		c-0.2,3.3-3.7,5.6-3.8,8.9c-0.6,7-0.5,14-0.1,21.1c10,4.8,19.2,11.3,28.3,17.6c3.3,2.2,7,2.3,10.2,4.8c1.7,1.3,3.4,2.6,4.7,4.3
		c3.9,15.6,5.2,31.2,6,47.2c0.1,2.9,0.4,5.7,1,8.5c1.1,4.8,0.3,9.6,1.1,14.5c0.7,4.5-0.4,8.5-1,13c-1.2,11.2-4.6,22.2-6.9,33.2
		c-0.8,6.1-6.6,7.2-8.4,12.9c-1.3,3.7,1.9,7.9,2.1,11.9c0.5,7,0,14.6-1.5,21.5c-0.5,2-0.9,4.3-2.4,5.7c-2.4,2.5-6.3,3.8-9.4,5.3
		c-0.2,12.2-0.8,24.4-1.4,36.6c-0.4,5.4-1.4,10.5-0.5,16c3.7,21.7,7.6,43.3,11.1,65c1.2,6.3,2.5,13.5,1.4,19.8
		c-1.9,4.4-4.9,8.3-8.9,11.1c0.1,7,3.3,13.2,4,20.1c0.8,7.7,1.3,15.3,1,23c-0.1,4.3-1.9,8.6-4.7,11.9c-5,5-15.7,3.7-18.3-3.3
		c-2.1-5.6-0.8-12.8-0.1-18.6c0.6-3.9-1.4-7.2-1.3-10.9c0.3-3.1,1.4-6,1.9-9.1c1-4.7,0.5-9.6,0.2-14.3c-3.7-3.2-7.6-5.5-10.5-9.6
		c-3.4-4.2-3.9-10.5-5.1-15.7c-4.2-19.1-8.1-38.2-11.4-57.5c-1.9-11.4-1.8-23.4-2.1-35c-0.2-4.7-0.7-9.3-0.6-14
		c-0.6,0.1-1.2,0.2-1.8,0.2c-1.6,11.9-3.5,23.8-4.6,35.8c-0.5,14.6-0.1,29.4,0.9,44c0.2,6.2,3,11.6,2.3,18c0,3.2-1.6,5.6-3.3,8.1
		c0.8,6.9,1.5,13.9,1.3,20.9c0,2.1-1.3,3.6-3.1,4.4c-3,1.4-6,2.3-8.8,4.2c-3.8,2.6-6.4,6.1-9.8,9.1c-3.3,2.9-7.6,4-11.8,4.5
		c-5,0.3-9.6,0.5-13.5-3.1c0.7-7,4.9-11.4,9.6-16.1c4.1-4.2,8.2-8.6,11.6-13.4c2.8-3.4,1.2-9.3,1.4-13.5c-1.9-2.3-3.7-4.6-4.9-7.4
		c-1.9-3.8-1.9-8.4-2.8-12.7c-1.5-7.3-3.3-14.5-5-21.7c-1.9-7.7-3.1-15.7-4.6-23.5c-0.8-9-0.5-18.1,1.1-27
		c0.9-8.1,1.5-16.3,2.4-24.5c1.3-11.1,1.7-22.4,3-33.5c0.7-7.4,1.3-14.7,2.9-21.9c1.2-4.7,4.6-8.4,5.7-13.3c0.5-2.6,0.7-5.3,0.3-7.9
		c-0.7-3.6-3.6-6.3-4.5-9.9c-0.8-3.2-1.1-6.6-1.6-9.8c-10.2-4.6-20.3-9.3-30.5-13.8c-1.8-0.9-3.5-1.5-4.6-3.3
		c-5-7.8-5.1-17.9-1.1-26.1c2.3-4.2,5.3-8,7.9-12c-9.8-2.9-19.5-6.3-29.3-9.4c-1.9-0.7-4.1-1.2-5.7-2.5c-1.3-5.2-1.4-10.8-2.3-16.1
		c-1-7-1.8-13.9-2.4-21c-2.2-12.3-3.7-24.7-5.2-37.1c-0.3-1.8,0.1-3.1,2.1-3.5c2.8,0.4,5.6,1.5,8.3,2.3c12.7,3.9,25.5,7.9,38.2,11.7
		c1.4,0.5,3,0.9,4.2,1.8c1.1,1.1,1.1,3.2,1.5,4.7c2.1,15.8,3.8,31.5,5.8,47.3c5.3-6.7,9.3-14.2,15.3-20c4.8-5,12-5,18.2-6.8
		c3.9-1.2,8-1.4,11.9-2.6l0.2-0.1l0.1-0.3l0.4-2.5c-2.4-0.1-5.3,0.4-7.6-0.6c-3.4-2.6-5-7.8-6.3-11.6c-2.3-6.2-3.2-12.7-3.2-19.2
		c-1.9-0.8-4.3-1.2-5.6-2.9c-3.2-3.6-3.3-9.9-1.9-14.3c2.3-1.5,5.4-1.7,8-2.7c0.3-3.1,1-5.8,3.9-7.4c3.8-1.5,8.7-0.7,12.7-1.2
		C285.7,3.4,289.9,0.6,294.2,0z"/>
	<path class="st1" d="M295.1,1.8c2.6,1.6,3.5,2.7,4.6,5.6c1.2,3.5,5.1,4.8,7.5,7.3c2.1,2.9,2,6.5,2.3,10c0.2,6.3,1,12.1-3.1,17.4
		c-2.5-2.3-5.1-3.8-5.4-7.5c-0.8-3.3-0.3-7.1-4.8-7.3c-3.5-0.7-4.4,3.4-5.9,5.7c0-2.1,0.1-4.2-0.2-6.3c-0.8-1.7-2.2-3.8-4-4.5
		c-2.6,0-5.4,1.6-7.8,2.5c-4.6,2.1-9.4,3.6-14.1,5.4c-1.6-0.8-3.8-1.3-4.8-2.9c-2.1-3.3-1.8-7.8-1.2-11.5c2.6-0.3,5.2-0.4,7.8-0.5
		c1-2.5,0.6-6.4,2.7-8.2c4.6-2.5,11.2-0.2,16.1-1.9C288.3,4.3,291.6,2.8,295.1,1.8z"/>
	<path class="st0" d="M73.9,9c5.7,3.3,10.2,9.3,12.9,15.2c4.4,11.1,6.3,23.9,8.5,35.6c-2.9,0.8-5.7,1.4-8.6,2c-1,1.5-2.1,3-3.2,4.4
		c-1.3-0.1-3.3-0.3-4.1,0.9c-0.2,1.6,2.5,0.8,3.3,0.6c5.1-0.1,10.3,0,15.4,0.6c3.8,0.4,6.3,3.5,9,5.8c0.1-5.7,0.3-11.4,0.7-17.1
		c0.1-1.8,2.3-2.3,3.7-2.9c14.9-5.1,29.9-10.3,44.9-15.4c2.2-0.9,4.5,0.4,4.2,2.9c-0.3,8.7-0.9,17.4-1.8,26.1
		c-0.1,9.7-1.1,19.3-1.5,29c-0.7,5.8-0.1,12-1.5,17.6c-1.2,1.1-3,1.8-4.5,2.4c-5.1,2-10.1,4.2-15.3,6.2c2.3,5.7,5.9,10.9,8.5,16.4
		c1.4,4.6,0.2,9.3-2.5,13.1c-3.3,5.1-9.1,7.5-14.5,9.5c-12.1,4.2-24.5,7.7-36.9,10.6c0.1,9.5,4,17.8,5.1,27.1
		c0.6,4.4,1.5,8.6,1.9,13c1.9,18.7,3.7,37.3,5.1,56c0.6,14.8,1.8,29,0.5,44c-0.6,7-2.2,13.8-3,20.8c-3,22.6-3.4,45.5-5.4,68.2
		c-0.2,2.8-2.1,5.3-2.6,7.9c0,3.5,0.4,7.1,0.9,10.6c2.6,11.5,9.2,19,15,28.8c1.1,2.1,3.1,5.2,1,7.3c-3.2,4.8-9.6,4.4-14.1,1.8
		c-6.9-3.7-9-11.7-15.4-16.6c-2.5-1.9-6.1-3.6-7.3-6.6c-1.2-2.4-0.4-4.7,0-7.3c1-5.5,1.9-11.3,1.9-16.9c-0.6-2.6-2.7-4.6-3.3-7.3
		c-3.8-18.8-5.2-37.7-6.3-56.8c-0.1-10.8,2.4-21.4,1.2-32c-1-10-2.5-20-3.5-30c-0.5-8-1.4-16-2.1-24c-0.5,0.4-1,0.8-1.4,1.2
		c0.2,8.4-1.1,16.5-1.6,24.8c-0.6,10.4-2.9,20.6-3.8,31c-1.6,9.4-4,18.6-5.3,28c-1.2,9.1-3,18-4.5,27c-1.7,12.7-4.2,25.3-5.8,38
		c-0.4,3.9-1.9,7.3-3,11c0.5,6.8,3.7,14.2,3.1,21.1c-0.7,4.4-6.1,7.5-7.6,11.7c-0.9,3.6-0.3,7.4-2.4,10.6
		c-3.4,5.9-11.3,7.7-17.4,5.7c-4.4-2-7.7-7.2-6.8-12.1c0.5-4.1,3.4-8,5.1-11.8c3.8-8.4,7.9-17.2,9-26.4c0-3.2-1.6-6.4-1.9-9.7
		c-0.8-7.3-0.7-14.7-1.1-22c-0.9-10.6-0.4-21.2-1.3-31.8c-0.7-8.4-0.3-16.8-1.1-25.2c-0.5-7.6-0.1-15.3,0-23
		c1.2-19.3,1.7-38.8,1.9-58c0.9-13.7,0.6-27.3,0.7-41c0.2-5.7,1.3-11.3,1.6-17c0.3-6.1,2.1-11.7,3.3-17.6
		c-6.9,0.3-12.9-3.3-17.2-8.4c-3.6-4.9-2-10.4-1.7-16c0.3-6,1.8-11.7,3.2-17.5c1.1-4.6,0.1-9,1.2-13.6c0.9-3.9,2.5-7.1,2.9-11
		c0.2-2.9,0.7-5.7,1.6-8.5c1.2-4,2.3-8.8,4.9-12.2c10-8.6,23.3-14.1,35.9-17.4c-4-1.9-8.1-3.8-11.6-6.5c-1.1-0.9-2.5-2-2.6-3.4
		c-0.7-4.2-0.4-8.7-0.3-13c0.2-7.6,0.5-15.5,2.7-22.8C40.9,17,48,10.8,56.2,9.8C62,8.9,68.3,5.7,73.9,9z"/>
	<path class="st1" d="M63.4,10.3c3.9-1,7.5-1,10.9,1.4c7.4,5.3,11.4,13.7,13.6,22.3c2.4,8,3.4,16.2,5.3,24.4c-2,0.3-4.1,0.7-6.1,1
		c0.6-6.2,0.7-13.1-1.2-19.1c-2.6-6.6-7.8-13.4-14.5-16c-2.4,3.5-4.4,7.2-5.4,11.4c-2.9,9.6-1.2,20.5-4.1,30
		c-0.9,2.2-1.5,5.1-4.6,4.7c-4.9-0.4-9.8-3-14.1-5.4c-2.5-1.6-5.1-2.6-5.2-6c-0.6-7.3,0-14.8,0.4-22c0.8-7,1.9-15.4,7.7-20.1
		C51.1,11.8,57,12,63.4,10.3z"/>
	<path class="st1" d="M266,33.6c0.2-0.7,0.4-1.3,0.6-2c6.7-2,12.9-5.3,19.5-7.3c0.8,1.1,1.5,2.3,2.2,3.4c-0.1,3.9,0,6.9,2.8,9.8
		c1.2-2.6,2.2-5.2,3-7.9c1.3,0.1,2.6,0.2,3.9,0.2c0.5,2.7,0.8,5.6,1.8,8.2c1.1,2.4,3.7,4.2,5.6,5.9c-0.5,7.6-0.8,15.2-0.3,22.9
		c-7,3.1-15.3,3.2-22.7,2.2c0.9-2.5,1.1-4.8,1.1-7.5c-2.8,0.1-6.1,0.8-8.9-0.1c-1.5-1.3-2.4-3.1-3.2-4.8c-2.4-5.6-4.3-11.4-4.6-17.6
		"/>
	<path class="st1" d="M67.1,37.9c1.3-4.1,2.5-8.1,5-11.6c6.8,4.8,12.4,11.8,12.9,20.4c0.3,5,0.8,11-1.1,15.7
		c-1.2,2.9-4.7,1.8-6.4,3.6c-0.1,3,0.3,6.1,0.5,9.1c-2.8,1.4-5.6,2.7-8.8,2.9c-4.1,0.7-8.5-1.5-12.1-3.2c-1.5-0.8-1.8-1-2.3-2.6
		c2.6-0.3,5.2,0.6,6.8-1.9c2.4-3.5,3.2-8.4,3.6-12.5c0.3-5.2,1-10.3,1-15.6"/>
	<path class="st1" d="M177.2,30.1c15.8,4.7,31.5,9.6,47.2,14.5c2.8,0.6,2.5,2.9,3,5.2c2.2,16.1,3.8,32.2,6.2,48.3
		c-4.1,6.2-8.5,12.1-12.7,18.2c-11.5-3.9-23.1-7.4-34.5-11.4c-2.6-21.1-5.5-42.1-8.1-63.1C177.9,37.8,177.1,34.1,177.2,30.1z"/>
	<path class="st1" d="M158.3,41.1c0.2,6.9-1,13.7-1,20.6c-1.1,17.2-1.6,34.5-3.1,51.8c-6.4,2.7-12.8,5.2-19.2,7.9
		c-3.6-6.4-7.3-12.8-10.9-19.2c6.1-1.4,12.2-3.4,18-5.7c2.4-1.1,5.1-2.2,6.9-4.2c2.5-2.1-0.3-6-2.8-6.4c-2.6-0.2-5.2,0.1-7.8,0.2
		c0.8-3.3,2.6-6.1,4.2-9.1c1.6-2.6,0.9-6.4,0.7-9.3c-0.2-3-3-5.4-5.9-5.4c-4.2,0.4-8,2.4-10.6,5.8c-2.9,3.5-3.3,7.5-4.2,11.8
		c-0.6,3.2,4,6.5,3.6,9.5c-1.9,1.9-4.7,3-7,4.4c-3.4-5.7-6.7-11.5-10.3-17.1c0.4-6.6,0.8-13.2,0.9-19.8c13.4-5,27.1-9.4,40.6-14.1
		C152.8,41.9,155.5,41.4,158.3,41.1z"/>
	<path class="st0" d="M203.2,58.5c1.7,0.1,3.4,0.5,5.1,1.1c4.2,1.2,6.9,6.1,7.3,10.2c0.3,4.5-0.1,8.8,1.4,13.2
		c0.5,2.1,2.2,3,3.7,4.4c1.7,1.6,2.7,3.6,3.8,5.6c-1.4,1-2.3,2.1-4.2,1.9c-6.8-0.4-13.5-2.1-19.9-4.2c-3.2-1.1-5-2.3-7-4.9
		c0.7-1.3,1.4-2.6,2.2-3.8c1.2-0.7,2.6-1.1,3.9-1.6c-0.1-6.1-1.8-11.4-0.9-17.6C199,60.6,200.8,58.7,203.2,58.5z"/>
	<path class="st1" d="M83.4,66.2l-0.8,1.5c-0.8,0.2-3.5,1-3.3-0.6C80.1,65.9,82.1,66.1,83.4,66.2z"/>
	<path class="st1" d="M280.8,66.3l-0.1,0.3l-0.2,0.1L280.8,66.3z"/>
	<path class="st1" d="M210.2,66.9c1.3,2.3,2.5,4.6,4.1,6.8c-0.8,1.9-1.5,3.8-2.5,5.6c-1,1.6-2.7,2.5-4.5,1.5
		c-4.1-1.8-6.1-7.9-7.9-11.8C202.8,71.3,207,68.5,210.2,66.9z"/>
	<path class="st1" d="M280.3,68.9c-1.4,4.1-2.3,8.3-3.4,12.6c-0.2,1.6-1.1,2.9,0.5,4.1c3.5,1.2,7.3,1.6,10.9,2.2
		c2.1,0.6,3-1.3,4.3-2.6c4.5-5.6,8.9-11.2,13.5-16.8c3.5,1.6,6.9,3.3,10.1,5.4c6.3,4.1,12.6,7.7,18.5,12.4
		c-5.2,1.3-8.2,3.1-12.1,6.7c-4.5,3.4-6.1,8.5-7.4,13.8c-1.5,12.3,2.2,22.3,4.9,34.1c1.4,5.8,3.1,11,3.6,16.9
		c0.3,9.4-2.7,17.4-3.8,26.5c-1,6.4-0.5,12.9-1,19.4c-4.8,1.5-9.6,2.9-14.6,3.8c-9,1.8-18.8,1.2-28,1c-7-1-14.4-2-20.8-5.1
		c0.8-3.7,1.5-7.7,0.7-11.5c-0.9-3.7-3.7-6.3-4.5-10.2c-0.5-2.6-0.9-5.3-1.4-8c2.3,0.5,4.7,1.2,7,1.3c3.3-0.8,6.4-1.9,9.9-1.9
		c4,2.9,7.9,6.3,12.3,8.5c2.3,1,5.2,2.1,7.6,1.1c4.5-1.7,7.8-5.7,10.6-9.4c1.4-2,3-3.8,2.6-6.4c-0.2-1.8-2.1-3.1-3.2-4.3
		c0.7-0.6,1.5-1.2,2.2-1.7c0.1-1,0.1-2,0.2-3c-1.4-0.9-2.4-1.9-4.1-2.2c-5.4-0.7-10.9-0.3-15.4,2.9c-0.7,0-1.4,0-2.1,0
		c0.6-4.4,0.1-12.4-5-14.2c-4.9-2.2-9.7-4.6-14.6-6.5c-4.3-1.8-8.5-1.9-11.4-6.1c0.8-12.4,5.6-25,9.9-36.5c3-7.6,6.1-16.1,11.8-22.2
		C271.1,69.2,276.4,71.8,280.3,68.9z"/>
	<path class="st1" d="M79.7,69.7c5.2,0.1,10.4,0,15.6,0.3c4.7-0.3,9.6,3.5,11.3,7.6c-0.6,18.3-2.2,36.5-2.5,54.8
		c-8,1.6-16.1,3.2-24.1,4.9c-2.4,0.6-5.5,1.1-7.4,2.8c-2.9,3-2.1,8.1-1.5,11.8c-3.8,1.4-9.1,2.7-11.9,5.8c-1.8,2.9,0.3,5.2,2.1,7.3
		c0.3,2.4,0.7,4.5,2.2,6.5c1.8,3.2,5.7,3.8,8.9,4.7c5.1,1.1,9.3,0.2,13.3-3.3c1,0.1,2.1,0.3,3.1,0.4c0.1,3.9,0.5,7.7,1.1,11.6
		c-7.4,3.8-16.4,4.9-24.7,5.1c-10.8,0.2-21.2,0.7-32-0.5c-4.8-0.9-9.5-2.3-14.1-3.7c0.8-3.6,1.5-7.1,2.2-10.7
		c7.4-4.1,14-10.2,19.7-16.5c7.1-7.6,14.3-15.1,21.4-22.7c2.2-1.9,2.1-5.4,2.7-8.2c2.6-0.2,5.1-0.2,7.7-0.5c2.5-2,4.4-5.2,5.9-7.9
		c2.2-4-0.8-9.2-0.3-13.5c2.5-4.5,9.2-6.6,12.6-10.4c0.8-1.1-0.3-3.3-1.8-3c-3.9,0.1-7.8,1.3-11.6,1.9c-3.4,0.7-7,0.8-9.7,3.2
		c-2.8,2.5-5.2,5.6-7.5,8.6c-1.6,2.2-1.3,4.4-1.4,6.9c-2.1,0.6-4,0.5-6.1,0.3c-2.8,1.6-5.4,3.4-7.8,5.4c-5.1,4.4-10.3,8.8-15.4,13.3
		c0.9-7.4,1.7-14.9,2.6-22.4c0.3-3.2-0.4-6.3-2.1-9.1c-3.2-5.1-7.1-9.7-12.2-13c10.7-8.4,22.5-12.1,35.3-15.9
		c-0.5,1.9-2.6,4.6-0.5,6.2c4.4,4.3,9,8.4,13.4,12.7c1.3,1.1,3.1,3.2,4.9,2.6c3.9-0.8,8-1.4,11.7-2.9c1.5-0.4,2.3-2.4,1.7-3.7
		c-1.2-3.8-3.4-7.3-4.6-11.1C79.6,73.7,79.7,71.7,79.7,69.7z"/>
	<path class="st1" d="M281.5,70.8c6.9,1.1,13.9,0.9,20.8-0.7c-4.5,5.1-8.5,10.7-13,15.8c-3.7-0.6-7.3-1.3-11-2
		c0.9-3.4,1.8-6.9,2.6-10.4C281.1,72.6,281.3,71.7,281.5,70.8z"/>
	<path class="st1" d="M135.7,71.9c1.1,0.6,2.3,1.2,3.4,1.8c1-0.2,2-0.4,3-0.6c-1.4,3.9-3.2,7.7-5.6,11c-2,2.3-5.2,4.7-8.3,2.7
		c-1.5-1.6-3.3-4.7-4-6.8c1.8-2.4,2.7-5.1,4.5-7.4c2.8,1.4,5.4,2.1,8.5,2.5C136.8,74,136.2,73,135.7,71.9z"/>
	<path class="st1" d="M266.8,71.6c-6.1,7-9.1,14.9-12.3,23.4c-2.4,6.6-5.1,13.3-6.8,20.2c-1.4,5.6-3,10.9-3,16.7
		c0.6,0.8,1.3,1.6,1.9,2.5c-5.3-1.9-10.9,0.8-15.6,3.2c-4.8,2.5-7.5,7.2-8.7,12.3c10.8,5.3,21.7,10.5,32.7,15.3
		c3.9-7,11.7-7.4,18.8-7.8c-5.7,3.6-8,6.9-9.3,13.5c-2.5,0.6-4.9,1.4-7.4,1.8c-3.8-0.1-7.7-1.4-11.1-2.9
		c-9.1-4.2-18.3-8.4-27.5-12.5c-1.6-0.8-3.1-1.4-4.1-3c-3-4.9-4.1-11-3-16.7c0.8-6.9,6.1-13.4,10.1-18.9c5.1,0.7,10.6,3.6,15.9,4.6
		c0.5-1.6,0.9-3,0.6-4.7c-0.9-6.7-1.6-13.3-2.6-20c5.2-7,9.7-14.8,15.6-21.1c3.4-3.7,8-4.3,12.6-5.5
		C264.8,72.1,265.8,71.8,266.8,71.6z"/>
	<path class="st1" d="M53.2,75.3c1.5,0.7,3.1,1.3,4.6,2c3,1.3,6,2.8,9.4,2.9c4,0.1,7.7-1.2,11.2-2.9c1.5,3.6,3.1,7.2,4.8,10.8
		c-4.2,2-8.6,2.5-13.1,3.5c-4.6-4.3-9.1-8.7-13.7-12.9C55.3,77.5,54.2,76.4,53.2,75.3z"/>
	<path class="st1" d="M108.4,80.3c3.3,4.6,5.8,9.7,8.9,14.5c-1.4,1.9-4.7,5.3-4,7.8c1.8,2.1,6.4,0.5,8.7,0.3
		c3.8,6.4,7.3,12.9,11.2,19.3c-9.1,3.6-18,7.5-27.2,10.9C106.3,115.5,107.9,97.9,108.4,80.3z"/>
	<path class="st1" d="M204.9,81.4c2.3,1,3.7,1.7,6.4,1.3c2.1,2.6,5,3.5,7.7,5.2c1.8,1.2,2.6,3.1,3.5,5c-5,0.4-9.8-0.7-14.7-1.8
		c-4.6-1.2-9.1-2.3-13-5.1c1-1.1,1.7-3,3.4-3C200.6,82.7,202.8,82.4,204.9,81.4z"/>
	<path class="st1" d="M136.1,86.9c0.7,0.3,1.4,0.7,2.1,1c2.6,0.2,5.2-0.2,7.7,0.2c1,0.8,1.9,1.8,2.7,2.8c-7.1,5.3-16.9,7.4-25.4,9.8
		c-1.1-1.8-2.2-3.5-3.4-5.3c3.1-1.8,6.2-3.1,8.4-6.1C131.5,89.7,133.4,88.6,136.1,86.9z"/>
	<path class="st1" d="M336.5,87.5c3.7,1,8.8,2.5,10.8,6.1c2.7,5.4,3.4,12.2,4.4,18.1c2.5,14.5,2.4,29.6,3.8,44.2
		c0.4,3.6,1.2,7.2,1.3,10.8c-0.2,4.1-1.1,8.1-1.5,12.2c-0.6,6.7-2.7,13.2-4.1,19.9c-1.2,4.5-1.8,9.2-3.4,13.6
		c-1.6,2.5-4.2,4.6-6.3,6.8c-5.9-2.5-11.7-3.6-18.1-3.8c-0.8-1.4-2.1-2.9-2.3-4.6c-0.8-6.5-0.1-13.5,0-20.1c0.3-9.9,3.6-19.1,4.3-29
		c0.5-4.7-0.5-9.3-1.6-13.8c-2-8-4-16-5.9-24c-1.6-9.4-2.6-18.2,2.9-26.6c3.6-4,7.9-7.4,13.1-8.9C334.8,88.1,335.7,87.8,336.5,87.5z
		"/>
	<path class="st1" d="M16.8,88.9c3.2,2.5,6.2,5.2,8.7,8.4c2.4,3.2,4.8,6.2,4.8,10.5c-0.4,8.8-2.2,17.6-2.5,26.4
		c1.6-0.3,3-0.3,4.3-1.5c5-4.3,10-8.6,15-12.9c3-2.3,5.2-5,9.4-4.1c0.8,5.1,3.7,8.7,6.3,12.8c-0.4,1.6-0.7,3.3-1,4.9
		c-8.5,9.2-17.2,18.2-25.7,27.4c-3.3,3.6-7.4,6.7-11.2,9.8c-2,1.6-4.1,2.7-6.8,2.6c-5.5,0.2-10-3-13.7-6.7c-2-2.1-2.6-4.8-2.5-7.7
		c0.2-7.6,1.1-15.3,2.3-22.8c2.4-13.8,4.9-27.8,8.9-41.2C13.9,92.4,15.3,90.7,16.8,88.9z"/>
	<path class="st1" d="M89.6,94.3c-3.9,3.5-9.9,5.8-12.7,10.2c-1.6,3.5,1.1,8.6,0.7,12.3c-0.9,3-3,5.8-5.1,8.1
		c-2.7,0.7-5.8,0.5-8.6,1.2c-2.2-3.2-4.2-6.4-5.2-10.3c4-2.8,1.4-6.9,4.6-10.2c2.7-3.1,5.8-8,10.1-8.6c3.8-0.7,7.6-1.4,11.3-2.2
		C86.3,94.7,87.9,94.5,89.6,94.3z"/>
	<path class="st1" d="M118.1,96.2c1.1,1.6,2.1,3.3,3.2,5c-2.1,0.2-4.3,0.3-6.4,0.4C115.7,99.6,116.7,97.9,118.1,96.2z"/>
	<path class="st1" d="M233.9,101.2c1,6.6,1.6,13.3,2.5,19.9c-4.5-1.4-9-2.9-13.5-4.4C226.6,111.7,230.2,106.4,233.9,101.2z"/>
	<path class="st1" d="M134,124c2.6,4.8,5.2,9.5,7.8,14.2c2.6,4.3,1.2,9.8-1.6,13.6c-3.4,4.8-8.9,6.8-14.2,8.7
		c-12.6,4.3-25.4,7.9-38.4,10.9c2.1-2.3,4.7-4.4,6.5-6.9c0.5-3.8-1.8-8.4-4.6-11c-4.9-3.5-10-2.4-15.6-2.4
		c6.8-2.7,16.7-0.5,21.5,5.2c8.5-2.5,16.8-5.3,25.3-7.9c2.1-0.6,4-1.4,5.9-2.3c-2.9-6.5-10.5-9.7-16.8-11.9
		C117.8,130.4,126,127.3,134,124z"/>
	<path class="st1" d="M107.8,135.3c4.5,1.5,8.9,3.4,12.6,6.3c-6.1,1.6-12.1,3.6-18.3,4.9c-2.6,0.7-5.2-1.3-7.4-2.3
		c-5.1-2.7-10.7-3.9-16.4-4.4c5.9-1.5,11.9-2.4,17.9-3.7C100.3,135.2,103.7,134,107.8,135.3z"/>
	<path class="st1" d="M243.2,135.8c7,0.9,14,3.6,20.5,6.6c3.7,1.7,7.4,3.1,10.9,5.3c-4.3,0.1-9.1-0.4-13.1,1.4
		c-3.6,1.6-7.2,3.6-10.5,5.8c-8.2-3.5-16.4-7.1-24.5-10.9C230.6,139.2,237,136.1,243.2,135.8z"/>
	<path class="st1" d="M77.2,141.9c7.7-0.4,15.2,3.1,21.8,6.6c-1.1,1.7-2.2,3.4-3.4,5.1c-6.1-5.4-15.7-7-23.3-4.2
		c0.2-2,0.3-4,0.5-5.9C74.2,142.5,75.5,141.9,77.2,141.9z"/>
	<path class="st1" d="M122.2,143.1c0.7,0.6,1.4,1.2,2,1.8c-8.8,3-17.6,5.6-26.4,8.5c1.1-1.6,2.1-3.1,3.2-4.6
		C108.2,147.2,115.2,145,122.2,143.1z"/>
	<path class="st1" d="M225.8,146c7.3,2.9,14.4,6.4,21.7,9.5c3.1,1,3.7,4.2,5.3,6.7c-9.5-4.4-19-8.9-28.4-13.4
		C224.8,147.8,225.3,146.9,225.8,146z"/>
	<path class="st1" d="M275.1,149.7c0.4,2,0.7,4,1.1,6c-7.6-0.3-15.9,0.2-21.4,6.2c-1-1.8-1.9-3.6-2.9-5.4c3.5-2.3,7.2-4.5,11.1-6
		C266.7,149.3,271.2,149.7,275.1,149.7z"/>
	<path class="st1" d="M72.7,153.4c3.1-0.6,6.4-0.8,9.6-0.6c3.1,0.4,6.1,1.2,7.8,4.2c1.3,2.3,3.6,6.4,0.9,8.4
		c-2.6,2.7-5.4,5.4-8.5,7.5c-4.3,2.8-9.6,1.6-14.1,0c-2.6-0.7-4.1-3.8-4.8-6.2c0-3.4,2.2-6,4.1-8.6C69,156.2,70.1,153.8,72.7,153.4z
		"/>
	<path class="st1" d="M67.4,155c-2,2.6-3.9,5.1-5.7,7.9c-0.4-1.1-1.8-2.7-1.2-3.8C62.3,157.2,65.1,156.1,67.4,155z"/>
	<path class="st1" d="M297,158.1c0.7,1.6-0.1,2.5-1.7,2.6c-3.6-0.9-6.6-2.6-10.4-2.6C288.7,156.7,293.1,156.8,297,158.1z"/>
	<path class="st0" d="M202.4,165.5c4.1,2.8,7.3,6.6,8.6,11.4c0.8,3.4,0.5,7.3,0.5,10.8c0,52.7,0,105.4,0,158
		c-0.2,1.3,1.5,2.4,2.3,3.3c4.7,4.1,7.7,10.4,7.5,16.6c-0.1,9,0,18,0,27c0.1,8.8-6.5,16.1-13.5,20.6c-13.3,8.2-29.4,9.7-44.6,7.4
		c-7.6-1.5-15.2-4.1-21.8-8.3c-4.5-2.9-7.9-7-10.4-11.6c-1.8-3.2-1.5-6.6-1.5-10.1c0.1-9.3-0.1-18.7,0.1-28
		c0.3-6.1,4.4-10.7,8.3-14.9c-0.1-55.3,0.1-110.7,0-166c-0.1-5.1,2.2-9.8,5.9-13.3c6.4-6.2,15.1-9.1,23.8-10.3
		C179.5,156.5,192.5,158.8,202.4,165.5z"/>
	<path class="st1" d="M184,160.2c7.1,1.3,14.4,4.1,19.9,8.9c3.7,3.3,6,7.6,5.8,12.6c0,54.7-0.1,109.4,0,164.1
		c-4.2-3.1-8.6-5.4-13.6-6.9c-15-4.9-31.5-4.1-46.1,1.6c-3.7,1.4-7,3.1-10.2,5.5c0.2-55,0-110.2,0.2-165.3
		c0.1-6.1,4.2-10.9,9.1-14.1C159.4,159.9,172,158.5,184,160.2z"/>
	<path class="st1" d="M274.3,159.7c3,0.1,5.8,1.1,8.9,0.6c4-0.6,8.2,0.9,11.5,2.9c1.7,1.4,4.1,2.8,3.4,5.4c-1.6,3.1-4.1,5.9-6.5,8.5
		c-2.1,2-5.4,4.6-8.5,3.6c-6.6-1.7-10.3-6.9-16.7-10.1C267.8,166,269.7,161.8,274.3,159.7z"/>
	<path class="st0" d="M164.6,162.2c8.6-1.5,18.1-1.3,26.4,1.8c4.9,1.6,9.1,4.7,12.4,8.7c2.3,3.2,3.7,7.1,2.5,11
		c-1.6,5.1-5.7,9-10.4,11.4c-6,3.6-13.5,4.3-20.3,4.6c-9.6,0.3-19-2.3-26.3-8.6c-3.7-3.3-6.3-8-5.2-13.1c1.3-4.6,4.6-8.7,8.7-11.1
		C156.1,164.7,160.4,163.2,164.6,162.2z"/>
	<path class="st1" d="M165.4,164c4.8-0.9,9.9-1,14.8-0.6c7.5,1,15.1,3.3,20.4,9c3.1,3.1,4.6,7.5,3,11.8c-1.5,3.4-4.5,6.3-7.6,8.4
		c-5.7,4.1-14,4.9-20.8,5.1c-9.5,0.4-19-2.3-26-8.9c-3.4-3.4-5-8.2-2.8-12.7C149.9,168.7,158.1,165.7,165.4,164z"/>
	<path class="st1" d="M90.9,187.2c0.4,0.9,0.7,1.9,0.9,2.8c-2,1.3-4.3,3.2-6.7,3.4c-7.8,1-15.7,1.5-23.5,2
		c-10.9,0.7-21.6-0.2-32.5-1.3c-3.8-0.4-7.4-1.5-11-2.6c0-1,0.1-2.1,0.1-3.2c5,1.5,10,3,15.1,3.9c12.7,1.2,25.1,0.7,37.8,0.1
		C77.8,191.7,85.1,190.7,90.9,187.2z"/>
	<path class="st1" d="M92.4,192.2c1.1,6.2,2.2,12.5,3.1,18.8c2.1,19.9,3.9,39.8,5.4,59.8c0.6,17.4,2.2,33.6-0.9,51
		c-4.7,26.8-4.8,52.6-7.2,80c-0.3,2.4-1.8,4.7-2.4,7c-0.6,8.6,1.4,16.9,5.5,24.4c3.3,6.2,7.8,11.7,11.1,18c0.5,1.1,1.6,2.7,0.7,3.9
		c-1.9,3.8-7.4,3.7-10.7,2.1c-7.3-3.2-9.6-11.8-16.1-16.8c-2.2-1.9-5.7-3.4-7-6.1c-0.8-1.5-0.4-2.9-0.1-4.5c1.2-5.9,2-12,2.4-18
		c0.3-2-1.3-3.8-2.2-5.5c-1.5-2.3-1.8-4.8-2.2-7.4c-2.1-13.3-4-26.5-4.5-40c-1.3-10.7-0.7-21.3,0.5-32c0.8-10.4-1.4-21.2-2.5-31.5
		c-1.9-14.6-1.8-31.4-5.8-45.6c-2,2.5-1.5,5.1-1.8,8.1c-0.5,9.3-1.7,18.6-2.3,28c-0.5,8-1.8,15.9-3,23.8c-0.8,11.9-4.4,23.3-6,35.2
		c-1.2,9.4-3.2,18.7-4.6,28c-1.8,13-4.3,25.9-6,39c-0.3,3.6-2.1,6.6-2.9,10c0.6,6.8,3.8,14.2,3.1,21c-0.7,3.2-4.3,5.6-6,8.4
		c-3.3,4.2-0.9,9.6-4.2,13.8c-2.7,3.8-7.8,5.2-12.2,4.7c-5-0.4-9.1-6-8.1-10.9c0.7-3.9,3.4-7.5,5-11.1c3.9-8.4,8-17.7,9.2-26.9
		c0.1-3.7-1.8-7.3-2-11c-1.1-17.7-1.5-35.3-2.3-53c-0.9-8.7-0.4-17.3-1.1-26c-0.6-7.3-0.2-14.7,0-22c1-17.3,1.5-34.6,1.8-52
		c0.7-15,0.8-30,0.7-45c0-6,1.1-12,1.7-18c8.2,2.8,16.5,3,25.1,3.7c13.6,1,27.5-0.5,41-1.8C87.5,195.5,89.8,193.8,92.4,192.2z"/>
	<path class="st1" d="M254.7,205c2.1,1,4.2,2,6.5,2.6c7.6,1.8,15.1,3.3,23,3c11.8,0.7,23.5-1.3,34.7-5c0.2,3.2-0.3,6,1.6,8.8
		c2,3.1,2.8,6.6,2.5,10.2c-3.7,8.8-13.1,13.4-15.5,22.3c-1,2.5,0.5,3.8,1.5,6c3.6-2.5,7-5.1,11.1-6.7c0.7,7.1-1.3,13.6-1.7,20.6
		c0,1.8,0,5.4,1.8,6.4c3.6-0.5,6-2.6,9-4.5c-0.8,14.7-0.8,29.5-2.3,44.1c-0.4,5.1,0.9,9.7,1.8,14.8c3.1,18.7,6.5,37.4,9.6,56.2
		c1,6.3,2.7,13.5,1.7,19.8c-1.7,4.9-5.1,7.8-8.7,11.2c-0.9,6.7,3,14.1,3.6,20.9c0.7,7.6,1.4,15.4,1,23c-0.1,3.9-1.6,7.6-4.1,10.6
		c-4.1,4.1-13.1,3-15.3-2.7c-1.8-5.8-0.3-12.9,0.2-18.9c0.3-3.4-1.4-6.7-1.3-9.9c0.5-3.7,1.8-7.3,2.2-11c0.7-4.4,0.2-8.6-0.2-13
		c-3.4-3.5-7.5-5.6-10.5-9.5c-3.4-4-3.6-9.1-4.8-14c-4.2-18.6-7.9-37.4-11.2-56.2c-2.9-15.8-1.9-33.3-3.1-49.3
		c-0.4-4.8-0.2-9.7-0.8-14.5l-1.5-1c-3.8,16.2-6,32.6-7.7,49.1c-0.7,14.7,0,29.7,0.8,44.4c0.3,6.3,3.1,11.5,2.4,18
		c0,3.2-1.8,5.3-3.4,7.9c1,7,1.5,14.1,1.5,21.1c0,1.9-1.7,2.7-3.2,3.4c-3.5,1.4-6.9,2.8-9.8,5.3c-5,3.9-7.5,9.2-14.1,10.8
		c-4.9,1.3-12,2.1-16.2-1.2c1.2-4.3,2.9-7.7,6.2-10.8c5-5.1,9.9-10.2,14.1-15.9c1.4-2,2.7-3.9,2.6-6.5c-0.1-3.2,0.1-6.5-0.5-9.6
		c-1.6-2.5-3.6-4.5-4.8-7.3c-1.8-3.8-1.7-7.9-2.6-12.1c-2.6-13-6.4-25.6-8.4-38.8c-2.4-10.4-1.9-21.6-0.2-32
		c1.1-9.1,1.7-18.2,2.8-27.2c1.3-11.3,1.7-22.7,3-34c0.5-6.5,1.2-12.8,2.5-19.2C251,211.2,253.1,208,254.7,205z"/>
	<path class="st1" d="M324.1,217.3c5.9,0.4,11.1,1.5,16.6,3.5c-0.5,2.9-1.1,5.4,0.2,8.2c2.1,5.2,1.7,10.2,1.5,15.7
		c-0.3,4.9-0.8,10.1-2.6,14.7c-1.8,3.4-7.4,4.4-10.4,6.5c-2.8,2-5.4,4.1-8.8,5.1c-1.2-7.8,2-14.8,1.6-22.4c0-1.9-0.9-3.3-1.6-5
		c-4.2,1.6-7.8,4.2-11.6,6.4c0.3-4.9,3-8.8,6.3-12.2c3.4-3.3,6.4-7.1,8.9-11.1c1.1-1.7,0.7-4.3,0.5-6.2
		C324.6,219.5,324.4,218.4,324.1,217.3z"/>
	<path class="st1" d="M209.6,347.8c0.1,5.3,0.2,10.6,0.1,15.9c0,6.9-5.2,12.4-10.8,15.6c-8.2,4.9-17.3,6-26.6,5.9
		c-8.1-0.4-16.6-2.6-23.3-7.2c-4.4-3.1-8.5-7.6-8.9-13.3c-0.3-5.4,0-10.8-0.2-16.1c5-4.5,11.2-6.6,17.6-8.6
		C174.7,335.5,194.8,337.2,209.6,347.8z"/>
	<path class="st0" d="M167.4,342.9c8.4-1.2,18.5,0.2,26.4,3.5c5.5,2.5,11.3,6.5,13.2,12.5c1.7,4.1,0.4,8.3-1.5,12.1
		c-1.8,3.6-5.5,6.2-8.9,8.1c-8.4,4.7-19,5.4-28.4,4.7c-7.8-1.1-16.4-4.2-22-10c-4.8-5-5.6-12.9-1.7-18.7
		C149.2,347.8,159.1,344.1,167.4,342.9z"/>
	<path class="st1" d="M165.7,345.3c10.8-1.9,22.9-0.2,32.3,5.7c2.3,1.5,4.5,2.9,5.6,5.6c1,2.2,2.6,4.7,2.2,7.2
		c-0.5,4.3-2.8,8.7-6.4,11.3c-6.8,5.2-14.9,6.8-23.2,7.1c-9.6,0.6-20.4-2.2-27.6-8.8c-4.9-4.3-6.1-12.1-2.2-17.5
		C150.4,349.8,158.7,346.6,165.7,345.3z"/>
	<path class="st1" d="M211.6,349.4c4.3,3.8,7.9,9.5,7.8,15.4c0,9.7,0,19.4,0,29c0.1,5.3-3.5,10.3-7.1,13.9
		c-7.7,7.1-17.8,10.2-28,11.7c-12.9,1.4-25.9-0.2-37.6-6.1c-3.9-2-7.5-4.3-10.2-7.8c-2.8-3.5-5.2-7-5.1-11.8c0-10,0-20,0.1-30.1
		c0.1-5.4,3-9.4,6.5-13.2c0.1,5.4-0.5,10.9,0.3,16.2c1.2,6.2,6.4,11.2,11.7,14.3c6,3.4,13.4,5.6,20.3,6c9.8,0.4,19.3-0.5,28.1-5.2
		c5.9-2.9,11.8-8.4,13.1-15.1C212,361,211.4,355.1,211.6,349.4z"/>
	<circle class="st0" cx="68" cy="40.4" r="2.6"/>
	<circle class="st0" cx="78.4" cy="38.6" r="2.6"/>
	<circle class="st0" cx="266.8" cy="36.4" r="2.4"/>
	<circle class="st0" cx="276.8" cy="35.5" r="2.3"/>
	<g>
		<g>
			<circle class="st2" cx="205.3" cy="264.7" r="3"/>
			<line class="st2" x1="197.4" y1="267.4" x2="202.5" y2="265.6"/>
		</g>
		<g>
			<circle class="st2" cx="200.2" cy="280.8" r="3"/>
			<line class="st2" x1="195.7" y1="273.2" x2="198.5" y2="278.3"/>
		</g>
		<g>
			<circle class="st2" cx="194.1" cy="256.9" r="3"/>
			<line class="st2" x1="193" y1="263.8" x2="193.5" y2="259.8"/>
		</g>
		<g>
			<circle class="st2" cx="186.1" cy="279.8" r="3"/>
			<line class="st2" x1="189.8" y1="273" x2="187.3" y2="277.2"/>
		</g>
		<circle class="st2" cx="178.8" cy="265.6" r="3"/>
		<line class="st2" x1="181.7" y1="266.4" x2="187.6" y2="268"/>
		<circle class="st1" cx="192.5" cy="268.9" r="6.1"/>
		<circle class="st3" cx="192.6" cy="268.8" r="5"/>
	</g>
	<g>
		<g>
			<circle class="st4" cx="164.7" cy="215.2" r="2.7"/>
			<line class="st4" x1="158.5" y1="219.8" x2="162.4" y2="216.7"/>
		</g>
		<g>
			<circle class="st4" cx="164.8" cy="230.8" r="2.7"/>
			<line class="st4" x1="158.7" y1="225.5" x2="162.6" y2="229.1"/>
		</g>
		<g>
			<circle class="st4" cx="152.5" cy="211.5" r="2.7"/>
			<line class="st4" x1="153.5" y1="217.9" x2="152.8" y2="214.2"/>
		</g>
		<g>
			<circle class="st4" cx="152.1" cy="234" r="2.7"/>
			<line class="st4" x1="153.3" y1="227" x2="152.3" y2="231.4"/>
		</g>
		<circle class="st4" cx="141.5" cy="223.6" r="2.7"/>
		<line class="st4" x1="144.2" y1="223.5" x2="149.9" y2="223.2"/>
		<circle class="st1" cx="154.6" cy="222.5" r="5.7"/>
		<circle class="st5" cx="154.6" cy="222.5" r="4.7"/>
	</g>
	<g>
		<g>
			<circle class="st2" cx="162.3" cy="311.6" r="3"/>
			<line class="st2" x1="158.4" y1="319" x2="160.8" y2="314.2"/>
		</g>
		<g>
			<circle class="st2" cx="169.7" cy="326.8" r="3"/>
			<line class="st2" x1="161.2" y1="324.4" x2="166.8" y2="326.1"/>
		</g>
		<g>
			<circle class="st2" cx="148.8" cy="313.8" r="3"/>
			<line class="st2" x1="152.8" y1="319.4" x2="150.3" y2="316.3"/>
		</g>
		<g>
			<circle class="st2" cx="158.8" cy="335.8" r="3"/>
			<line class="st2" x1="156.8" y1="328.4" x2="157.9" y2="333.1"/>
		</g>
		<circle class="st2" cx="143.8" cy="330.6" r="3"/>
		<line class="st2" x1="146.4" y1="329.2" x2="151.8" y2="326.3"/>
		<circle class="st1" cx="155.9" cy="323.5" r="6.1"/>
		<circle class="st3" cx="155.9" cy="323.4" r="5"/>
	</g>
	<g>
		<g>
			<circle class="st2" cx="196.8" cy="346" r="3"/>
			<line class="st2" x1="192.3" y1="353.1" x2="195.1" y2="348.4"/>
		</g>
		<g>
			<circle class="st2" cx="202.9" cy="361.7" r="3"/>
			<line class="st2" x1="194.7" y1="358.7" x2="200.1" y2="360.8"/>
		</g>
		<g>
			<circle class="st2" cx="183.1" cy="347.1" r="3"/>
			<line class="st2" x1="186.6" y1="353.1" x2="184.4" y2="349.7"/>
		</g>
		<g>
			<circle class="st2" cx="191.4" cy="369.8" r="3"/>
			<line class="st2" x1="189.9" y1="362.3" x2="190.7" y2="367.1"/>
		</g>
		<circle class="st2" cx="176.8" cy="363.5" r="3"/>
		<line class="st2" x1="179.5" y1="362.3" x2="185.1" y2="359.8"/>
		<circle class="st1" cx="189.5" cy="357.3" r="6.1"/>
		<circle class="st3" cx="189.4" cy="357.3" r="5"/>
	</g>
</g>
<g id="Layer_2">
	<g>
		<g>
			<circle class="st2" cx="186" cy="184.3" r="3"/>
			<line class="st2" x1="186.3" y1="192.6" x2="186" y2="187.2"/>
		</g>
		<g>
			<circle class="st2" cx="199.9" cy="193.6" r="3"/>
			<line class="st2" x1="191.5" y1="195.8" x2="197.1" y2="194.5"/>
		</g>
		<g>
			<circle class="st2" cx="175.3" cy="192.9" r="3"/>
			<line class="st2" x1="181.6" y1="195.8" x2="177.9" y2="194.3"/>
		</g>
		<g>
			<circle class="st2" cx="195.1" cy="206.9" r="3"/>
			<line class="st2" x1="189.6" y1="201.5" x2="193" y2="205"/>
		</g>
		<circle class="st2" cx="179.5" cy="210" r="3"/>
		<line class="st2" x1="181" y1="207.5" x2="184.2" y2="202.2"/>
		<circle class="st1" cx="186.4" cy="197.7" r="6.1"/>
		<circle class="st3" cx="186.3" cy="197.7" r="5"/>
	</g>
</g>
</svg>
