<?xml version="1.0" encoding="utf-8"?>
<!-- Generator: Adobe Illustrator 22.0.1, SVG Export Plug-In . SVG Version: 6.00 Build 0)  -->
<svg version="1.1" id="Layer_1" xmlns="http://www.w3.org/2000/svg" xmlns:xlink="http://www.w3.org/1999/xlink" x="0px" y="0px"
	 viewBox="0 0 1257.6 299" style="enable-background:new 0 0 1257.6 299;" xml:space="preserve">
<style type="text/css">
	.st0{fill:#FFFFFF;}
	.st1{fill:#FBC510;}
	.st2{fill:#FFDC55;}
	.st3{fill:#5A264D;}
	.st4{fill:#602E54;}
	.st5{fill:#FDC70E;}
	.st6{fill:#684676;}
</style>
<g>
	<path class="st0" d="M650.3,93c1.5-2.8,2.6-5.6,3.7-8.3c3-7.8,5.2-15.8,7.3-23.8c0.6-2.3,0.1-4.6-0.9-6.8c-0.7-1.6-1.6-3.2-2.4-4.8
		c-0.2-0.5-0.7-1-0.5-1.6c6.4,0,12.8,0,19.2,0c0,0.3,0.1,0.5,0,0.6c-6.3,8.3-9.8,17.9-12.6,27.8c-3.2,11.3-6.9,22.4-11,33.3
		c-0.4,1.1-0.9,1.5-2.1,1.5c-3-0.1-6-0.1-8.9,0.1c-1.3,0.1-1.7-0.4-2-1.6c-2.5-10.7-5-21.4-7.5-32.2c-0.4-1.9-0.9-3.8-1.5-6
		c-1.9,3.5-3.3,6.8-4.3,10.3c-2.3,8-4.5,16-6.8,24c-0.5,1.8-0.8,4.1-2.1,5.2c-1.3,1.1-3.6,0.2-5.4,0.2c-1.8,0-3.7-0.1-5.5-0.1
		c-1,0-1.4-0.4-1.6-1.4c-3-15.4-7.4-30.5-11.5-45.7c-1.4-5.3-4-10-6.5-14.8c-0.2-0.4-0.4-0.7-0.6-1.2c5.7-0.2,11.2-0.3,16.7-0.2
		c2.2,0.1,4.3,0.1,6.5,0.1c0.8,0,1.1,0.2,0.7,1c-0.8,1.5-1.4,3-2.1,4.5c-1.3,2.6-1.5,5.3-0.9,8.2c2.4,10.6,5.2,21.2,7.9,31.7
		c0,0.1,0.2,0.2,0.4,0.5c1.6-4.4,2.8-8.7,4.1-13c3-10.2,5.6-20.5,8.8-30.7c0.4-1.3,0.8-2.1,2.4-2.1c2.3,0,4.6-0.3,6.9-0.6
		c1.1-0.2,1.4,0.2,1.7,1.2c2,6.8,3.7,13.6,5.2,20.6C646.7,77,648.2,84.9,650.3,93z"/>
	<path class="st0" d="M422.1,111.1c-2,0-3.9,0-5.8,0c-3.7-0.1-7.5-0.3-11.2-0.4c-1,0-1.5-0.4-2-1.3c-3.9-7.4-7.3-14.9-11.4-22.2
		c-0.6-1.1-1.3-1.7-2.6-1.7c-1.1,0-2.3-0.3-3.4-0.5c-1-0.2-1.4,0.1-1.4,1.1c-0.4,8.5-0.8,16.9,3.3,24.8c0,0.1,0,0.2,0,0.2
		c-7.1,0-14.2,0-21.2,0c-0.8,0-0.9-0.3-0.7-1c3-10.1,2.7-20.5,2.6-30.9c-0.1-6.7,0.2-13.3-0.7-20c-0.5-3.4-0.9-6.9-1.3-10.3
		c-0.1-0.8,0.1-1.1,1-1.1c8,0,16-0.7,24-0.3c5.3,0.3,10.4,1.1,15.3,3.2c5.2,2.2,7.8,6.1,8.1,11.6c0.1,2.1,0.1,4.2,0,6.3
		c-0.3,3.2-2.1,5.8-4.3,8c-1.7,1.8-3.6,3.5-5.4,5.2c-0.6,0.5-0.7,0.9-0.2,1.6c6.2,8.7,11,18.4,17.2,27.1
		C422.1,110.6,422.1,110.8,422.1,111.1z M384.3,66.3C384.3,66.3,384.3,66.3,384.3,66.3c0,4,0,8,0,12c0,0.6-0.1,1.3,0.9,1.2
		c2.8-0.2,5.6-0.1,8.3-1c2.3-0.8,4.5-2.1,5.4-4.4c2.2-5.7,2.2-11.4-0.8-16.9c-0.5-1-1.3-1.6-2.4-2c-3.4-1.1-7-1.3-10.5-1.9
		c-1-0.2-0.9,0.5-0.9,1.1C384.3,58.4,384.3,62.4,384.3,66.3z"/>
	<path class="st0" d="M1087.6,194.3c-2.9,0.2-5.3,0.4-7.8,0.5c-3.3,0.1-6.6,0-9.9-0.2c-1,0-1.3-0.6-1.7-1.2
		c-3.3-6.3-6.4-12.7-9.7-19.1c-2.1-4.2-5.6-6.2-9.7-7.8c-1.3,9.7-1,19.2,3.9,28.2c-8,0-15.8,0-23.7,0c1.3-2.8,2.4-5.5,3.1-8.4
		c0.9-3.7,1.2-7.4,1.1-11.1c-0.3-8.6,0.2-17.1-0.1-25.7c-0.2-6.1-1.2-12-3.4-17.7c-0.1-0.2-0.1-0.4-0.2-0.8c0.7,0,1.3,0,1.9,0
		c8.9-0.1,17.9-0.2,26.8,0.4c3.7,0.2,7.5,0.6,11,1.7c6.3,1.9,8.4,4.8,9.4,11.4c0.5,3.2,0.2,6.4-0.3,9.5c-0.4,2.1-1.3,3.9-2.7,5.4
		c-1.9,2.1-4,3.8-6.2,5.5c-0.5,0.4-0.8,0.8-0.2,1.5c2.8,3.4,4.9,7.2,7,11.1C1079.3,183.4,1082.3,189.3,1087.6,194.3z M1048.5,149.9
		c0,0-0.1,0-0.1,0c0,3.8,0,7.6,0,11.4c0,1.2,0.4,1.4,1.5,1.3c2.4-0.3,4.7-0.5,7.1-0.6c2.2-0.1,3.8-0.9,5.1-2.7
		c4.6-6.3,4.4-14.6-0.6-20c-1-1.1-2.2-1.7-3.7-2c-2.5-0.5-5.1-0.2-7.6-0.3c-1.2,0-1.6,0.4-1.6,1.6
		C1048.5,142.3,1048.5,146.1,1048.5,149.9z"/>
	<path class="st0" d="M1093.8,111.2c-3.6,0-7.1,0-10.5,0c-1.2,0-2.5-0.2-3.7-0.4c-1.9-0.3-3.3-1.2-4.4-2.9
		c-2.8-4.5-5.1-9.4-7.5-14.1c-1.2-2.2-2.4-4.4-3.6-6.7c-0.5-1-1.2-1.4-2.3-1.5c-1.3-0.1-2.7-0.4-4-0.6c-0.5-0.1-1.1-0.2-1.1,0.7
		c-0.1,6.6-0.8,13.3,1.2,19.8c0.5,1.5,1.1,3,1.7,4.5c0.3,0.7,0.5,1.1-0.5,1.1c-7.1,0.2-14.2,0.1-21.3,0c-0.8,0-0.9-0.3-0.5-1
		c3.3-6.4,4-13.3,4-20.3c0-7.4-0.3-14.8,0-22.2c0.3-6.7-1.4-13-4.4-18.9c-0.1-0.2-0.2-0.5-0.3-0.8c8.7-0.3,17.2-0.5,25.7-0.2
		c3.9,0.1,7.8,0,11.6,1.1c8.4,2.5,13.6,9.3,13.3,17.7c-0.1,3.2-1.5,5.8-3.3,8.3c-1.8,2.5-4,4.7-6.1,6.9c-0.9,0.9-1,1.5-0.3,2.6
		c5.5,8.6,10.3,17.7,16.2,26.2C1093.6,110.6,1093.7,110.8,1093.8,111.2z M1056.7,66.2C1056.7,66.2,1056.6,66.2,1056.7,66.2
		c-0.1,4-0.1,8-0.1,12c0,0.7-0.1,1.3,1,1.2c2.3-0.2,4.7-0.1,7-0.5c3.3-0.6,5.9-2.2,7-5.3c1.8-4.9,1.7-10-0.1-14.9
		c-0.5-1.5-1.5-2.4-2.9-3c-3.4-1.6-7.1-1.9-10.7-2.3c-1-0.1-1.3,0.2-1.3,1.2C1056.7,58.4,1056.7,62.3,1056.7,66.2z"/>
	<path class="st0" d="M497,194.7c1.4-3.2,3.1-6.2,3.9-9.5c1-4.3,0.7-8.6,0.9-12.9c0.3-9,0-18-0.2-27c-0.1-4.3-1.9-8.3-3.3-12.3
		c-0.7-1.9-0.7-1.9,1.3-1.9c7.5,0,14.9-0.3,22.4,0c5.4,0.2,10.7,0.7,15.9,2c5,1.2,7.8,4.8,8.9,9.7c0.6,3,0.6,6.1,0.3,9.2
		c-0.4,3.7-2.4,6.7-5,9.2c-1.4,1.4-2.8,2.7-4.3,4c-0.4,0.3-0.8,0.6-0.3,1.3c3.7,4.5,6.2,9.7,9,14.8c2.5,4.6,5.3,8.9,9.1,12.7
		c-2.3,0.6-4.5,0.6-6.7,0.7c-3.5,0.2-7,0.2-10.6-0.1c-1-0.1-1.4-0.4-1.8-1.2c-3.1-6.3-6.4-12.5-9.5-18.8c-1.5-3.1-3.8-5.3-7-6.7
		c-1-0.4-1.9-1-3-1.5c-1.3,9.8-1.1,19.3,3.9,28.3C513,194.7,505.1,194.7,497,194.7z M517,149.8c0,0-0.1,0-0.1,0c0,4,0,8,0,12
		c0,0.4-0.2,1.1,0.6,1c3.8-0.6,7.7-0.7,11.3-2.1c0.5-0.2,0.9-0.3,1.2-0.8c4.8-6.2,5.1-12.8,0.8-19.4c-1.2-1.9-2.9-3.1-5.1-3.3
		c-2.4-0.3-4.9-0.4-7.3-0.7c-1.1-0.1-1.4,0.2-1.4,1.2C517,141.8,517,145.8,517,149.8z"/>
	<path class="st0" d="M769,277.4c-7.6,0-15.1,0-22.8,0c1.2-2.4,2.4-4.7,3.1-7.2c2.1-7,1.7-14.2,1.4-21.4c0-0.6-0.2-0.9-0.8-0.9
		c-6.7,0-13.4-0.1-20.2-0.1c-0.6,0-0.8,0.2-0.9,0.8c-0.4,7-0.7,14.1,1,21c0.7,2.7,1.7,5.2,2.9,7.8c-7.2,0-14.3,0-21.6,0
		c1.2-2.6,2.3-5.1,3-7.7c1.9-6.6,1.7-13.4,1.6-20.1c-0.1-5.4-0.3-10.8,0-16.2c0.3-6.2-1.6-11.9-4-17.5c-0.2-0.5-0.6-1-0.5-1.7
		c7.3-0.3,14.5-0.1,21.7,0c0.2,0.2,0.1,0.4,0,0.6c-3.2,5.8-4.5,12.1-4.5,18.7c0,2.4,0.2,4.9,0.2,7.3c0,1,0.4,1.2,1.4,1.2
		c6.5,0.1,13,0.3,19.5,0c0.4,0,1,0.2,1-0.6c0.6-8,0.5-15.9-2.9-23.4c-0.6-1.3-1.2-2.5-1.9-4c1.6,0,3.1,0,4.6,0c5.6,0,11.2,0,16.7,0
		c0.8,0,1.2,0,0.9,1c-3.1,9.2-3.3,18.7-3.2,28.2c0.1,5.4,0.3,10.7,0,16.1c-0.2,5.8,1,11.1,3.5,16.3c0.2,0.5,0.4,1,0.7,1.5
		C769.1,277.1,769,277.2,769,277.4z"/>
	<path class="st0" d="M1253,277.4c-4.6,0.1-8.9,0.1-13.2-0.1c-1.7-0.1-3.4-0.4-5.2-0.4c-1,0-1.5-0.5-1.9-1.4
		c-3.4-7.3-6.9-14.5-10.4-21.8c-0.4-0.9-0.9-1.3-1.9-1.4c-2.2-0.3-4.5-0.8-6.8-1.2c-0.7,9-0.5,17.7,3.4,26.2c-7.3,0-14.4,0-21.7,0
		c0.9-2.4,1.9-4.7,2.5-7.2c1.8-7.7,1.7-15.5,1.5-23.3c-0.1-4-0.2-7.9,0-11.9c0.4-6.7-1.1-13-3.5-19.1c-0.2-0.5-0.4-1-0.6-1.5
		c0,0,0-0.1,0.1-0.5c2.3,0,4.6,0,7,0c8,0,15.9-0.2,23.9,0.4c4.6,0.3,9.1,1.1,13,4c3,2.2,4.3,5.3,4.8,8.8c0.4,2.9,0.3,5.8,0,8.8
		c-0.3,2.5-1.6,4.7-3.3,6.6c-1.8,2-3.6,3.9-5.5,5.8c-0.5,0.5-0.7,0.8-0.2,1.5c5.4,8.3,10,17.2,16,25.2
		C1251.7,275.6,1252.2,276.3,1253,277.4z M1213.6,235c0,2.3,0,4.5,0,6.8c0,3.2,0,3.2,3.3,3c0.3,0,0.6,0,1,0c2.4-0.2,4.7-0.3,7-1
		c2.2-0.7,3.8-1.9,4.2-4.2c0.7-3.5,1-6.9,0.7-10.5c-0.4-5.5-2.7-8.3-8.2-9.2c-1.9-0.3-3.9-0.2-5.8-0.5c-1.5-0.2-1.8,0.5-1.9,1.7
		C1213.4,225.8,1213.2,230.4,1213.6,235z"/>
	<path class="st0" d="M717,194.4c-7.8,0.2-15.3,0.5-23,0.4c1-2.4,2-4.6,2.7-7c1.5-5.3,1.7-10.7,1.6-16.1c-0.1-6.6-0.1-13.2,0-19.8
		c0.1-7-0.6-13.8-3.7-20.2c-0.1-0.1-0.1-0.3-0.1-0.7c7.1,0,14.1,0,21.1,0c5.9,0,11.7,0.6,17.4,1.9c5.5,1.2,9,5.2,9.9,10.9
		c1.1,7-0.4,13.1-5.4,18.2c-1.1,1.1-2,2.4-3,3.6c-0.6,0.7-0.6,1.2-0.1,1.9c5.9,8.9,10.9,18.3,17.4,26.7c0.1,0.1,0,0.2,0,0.3
		c-5.8,0-11.6,0-17.5,0c-0.8,0-1-0.7-1.4-1.2c-3.3-4.9-5.7-10.1-8.3-15.4c-0.9-1.9-2-3.9-2.8-5.8c-1-2.4-2.8-3.8-5.3-4.4
		c-1.3-0.3-2.8-1.5-3.7-0.8c-0.7,0.6-0.4,2.4-0.5,3.7c-0.4,6.2-0.4,12.3,1.9,18.2C714.9,190.8,715.8,192.5,717,194.4z M716.3,136.7
		c-1-0.1-2-0.1-2.9-0.2c-0.7-0.1-0.8,0.2-0.8,0.8c-0.5,8.3-0.5,16.6,0,24.8c0,0.6,0.1,0.9,0.8,0.8c3.1-0.5,6.4-0.5,9.4-1.7
		c2.9-1.1,4.8-3,5.4-6.1c0.9-4.3,0.5-8.5-0.2-12.7c-0.4-2.5-1.8-3.8-4-4.5C721.5,137,718.9,136.9,716.3,136.7z"/>
	<path class="st0" d="M525.3,47.8c9.3-0.4,18.4-0.5,27.5,0c5.1,0.2,10.1,1.2,14.7,3.4c7.5,3.5,12.1,9.4,13.2,17.6
		c1,7.6,1.1,15.4-0.5,22.9c-2.1,9.7-8.2,15.6-18.1,17.6c-11,2.2-22.2,2-33.3,1.8c-0.9,0-1.8-0.1-2.8-0.1c-0.1,0-0.2-0.1-0.4-0.2
		c3.6-6.6,3.9-13.9,3.9-21.2c-0.1-6.8-0.1-13.5,0-20.3C529.7,61.8,529.1,54.6,525.3,47.8z M544.4,80C544.5,80,544.5,80,544.4,80
		c0.1,8.3,0.1,16.7,0,25c0,1,0.2,1.5,1.3,1.4c1.2-0.1,2.5-0.1,3.7-0.1c7.2-0.3,13.6-5.1,15.4-12.1c2.3-8.8,3-17.7,0.4-26.6
		c-1.6-5.4-4.2-10-9.7-12.3c-3.1-1.2-6.3-1.3-9.6-1.6c-1.3-0.1-1.6,0.3-1.6,1.6C544.5,63.6,544.4,71.8,544.4,80z"/>
	<path class="st0" d="M298.5,47.8c9.4,0,18.7-0.8,27.9,0.1c6,0.6,11.8,1.9,17.2,4.9c5.6,3.1,9.1,7.8,10.4,14c1.8,8.1,2,16.2,0,24.3
		c-0.9,3.5-2.5,6.8-4.6,9.8c-3.7,5.3-9.1,7.7-15.3,8.9c-9.8,1.9-19.6,1.7-29.4,1.5c-1.6,0-3.2-0.1-4.9-0.1c-0.8,0-0.9-0.2-0.6-1
		c2.6-5.7,3.2-11.7,3.1-17.9c-0.1-9.2,0-18.3-0.1-27.5c0-5.6-1.1-11-3.6-16.2C298.6,48.4,298.6,48.2,298.5,47.8z M316.9,79.9
		c0,0,0.1,0,0.1,0c0,8.4,0,16.9,0,25.3c0,1,0.2,1.4,1.3,1.3c2.4-0.1,4.9-0.2,7.3-0.7c6.8-1.4,10.7-5.9,12.8-12.2
		c2.8-8.2,2.7-16.6,0.7-24.9c-2.5-10-10.7-15.9-20.9-15.1c-1.1,0.1-1.3,0.5-1.3,1.4C316.9,63.3,316.9,71.6,316.9,79.9z"/>
	<path class="st0" d="M619.9,277.4c-7.2,0-14.3,0-21.5,0c0-0.2-0.1-0.4,0-0.5c4-8.3,4-17.2,3.8-26.1c-0.1-4.9-0.2-9.9,0-14.8
		c0.3-7-0.7-13.8-3.4-20.3c-0.2-0.5-0.4-1-0.6-1.5c0,0,0-0.1,0.1-0.3c2.2,0,4.5,0,6.7,0c7.5-0.1,15.1-0.3,22.6,0.4
		c3.1,0.3,6.2,0.4,9.2,1.5c10.1,3.6,14.2,16,7.6,24.6c-2.1,2.7-4.4,5-6.6,7.6c-0.4,0.5-0.9,0.8-0.4,1.6c4.9,7.5,8.9,15.5,14.2,22.6
		c1.3,1.7,2.6,3.3,3.9,4.9c-0.1,0.4-0.4,0.2-0.7,0.2c-6,0-11.9-0.1-17.9-0.5c-1-0.1-1.4-0.5-1.8-1.3c-3.4-7.3-6.9-14.5-10.4-21.8
		c-0.4-0.9-1-1.4-2-1.5c-2.1-0.2-4.2-0.6-6.2-1c-0.9-0.2-1.1,0-1.2,0.9c-0.9,8.6,0.2,16.8,4.3,24.5
		C619.7,276.9,619.8,277,619.9,277.4z M621.7,220.1c0-0.1,0-0.2,0-0.3c-1.8,0-3.6,0-5.4,0c-0.8,0-1,0.3-1,1
		c-0.4,7.8-0.4,15.6,0,23.4c0,0.8,0.2,1,1,0.9c2.4-0.2,4.8-0.6,7.3-0.5c3.7,0,6-1.9,7.6-4.9c3.1-5.8,1.7-14.3-3.1-19.1
		c-0.4-0.4-0.8-0.5-1.3-0.5C625.2,220.1,623.4,220.1,621.7,220.1z"/>
	<path class="st0" d="M837.7,149.4c0.1,10.2-0.7,20.3,0.1,30.5c0.4,4.6,1.1,9.1,2.4,13.5c0.3,1.1,0.3,1.5-1,1.5
		c-4.7-0.1-9.4,0-14.2,0c0-0.9,0.6-1.5,1-2.1c2.2-4.3,3.3-8.8,3.3-13.6c0.1-10.3,0.1-20.6,0-30.9c0-5.6-1-11.1-3.2-16.3
		c-0.1-0.3-0.2-0.6-0.3-1c4.1,0,8.1,0.3,12.1-0.1c3.5-0.3,5.4,1,7.2,3.9c6.9,10.9,13.1,22.3,19.4,33.5c1,1.8,2,3.5,3.2,5.2
		c0-3.7,0.3-7.4,0.4-11.1c0.1-6.2,0.5-12.3-0.3-18.5c-0.5-4-1.4-7.9-3.1-11.5c-0.2-0.5-0.4-1-0.7-1.5c5.4,0,10.6,0,16,0
		c-1,2.7-2,5.3-2.7,7.9c-1.1,3.9-0.9,8.1-1,12.1c-0.2,12.6,0.3,25.2-0.1,37.9c-0.1,1.8-0.2,3.6-0.3,5.4c0,0.9-0.4,0.9-1.1,0.8
		c-3.2-0.2-6.5-0.4-9.7-0.5c-1.1,0-1.7-0.4-2.3-1.4c-8.3-14.2-16.7-28.3-24.5-42.7C838,150.1,837.9,149.8,837.7,149.4z"/>
	<path class="st0" d="M472.7,277.3c0.9-2.1,1.8-4.3,2.6-6.4c1-2.4,1.4-5,1.4-7.6c0-11.3,0.1-22.6,0.1-34c0-4.4-1.7-8.4-3.3-12.4
		c-1.2-2.9-1.2-2.9,1.9-3c6.9-0.1,13.8-0.2,20.6,0c4.6,0.2,9.4,0.3,13.9,1.5c8.7,2.2,14.9,7.6,17.7,16.2c3.4,10.5,2.9,21-1.8,31
		c-3.9,8.5-10.8,13.1-20.3,14.1c-10.9,1.1-21.7,0.5-32.6,0.7C472.9,277.4,472.8,277.4,472.7,277.3z M513.9,246.3
		c0.2-2.2-0.1-4.3-0.3-6.5c-0.2-2.2-0.5-4.4-1-6.6c-1.6-7.6-6.2-12.2-13.6-13.3c-2.5-0.4-5.1-0.2-7.6-0.3c-0.8,0-0.9,0.4-0.9,1
		c-0.1,2.2-0.2,4.3-0.4,6.5c-0.9,14.7-0.2,29.3,0,44c0,0.9,0.3,1.1,1.2,1c2-0.2,4-0.2,6-0.4c8.2-0.5,12.1-3.5,14.6-11.4
		C513.5,255.8,513.7,251.1,513.9,246.3z"/>
	<path class="st0" d="M1021.8,231.9c0.1,7.9-0.7,15.3-0.7,22.7c0,7.8,0.7,15.4,4.3,22.7c-4.9,0-9.6,0-14.4,0
		c1.2-2.9,2.1-5.8,2.6-8.8c0.7-3.9,0.9-7.9,0.8-11.8c-0.3-8.9,0.3-17.8-0.1-26.6c-0.2-5.1-1.1-10-3.1-14.7c-0.2-0.4-0.3-0.9-0.5-1.4
		c5.7-0.2,11.2,0,16.7,0.3c0.8,0,1,0.7,1.3,1.3c6.9,10.8,13.2,22,19.4,33.3c1.6,2.9,3.1,5.7,4.8,8.8c1.5-13.8,0.1-32-3.4-43.7
		c1,0,2,0,3,0c3.8,0,7.6,0,11.4-0.1c1.1,0,1.3,0.2,0.9,1.3c-1.2,3-2.5,6-3,9.2c-0.5,3.4-0.4,6.9-0.5,10.4c-0.1,7.4,0,14.7,0.1,22.1
		c0.1,6.6-0.2,13.2-0.2,19.8c0,0.6,0.1,1.2-0.9,1.1c-3,0-5.9-0.3-8.9-0.5c-2.4-0.2-3.7-1.7-4.9-3.5c-3-4.5-5.5-9.2-8.1-13.9
		c-4.9-8.8-9.8-17.7-15.3-26.2C1022.7,233.2,1022.4,232.8,1021.8,231.9z"/>
	<path class="st0" d="M715.1,47.6c5.7-0.3,11.2,0.1,16.7,0.5c0.6,0,0.8,0.4,1.1,0.8c7.8,14,16.6,27.5,23.4,42
		c0.4,0.9,0.8,1.7,1.3,2.6c-0.9-6.9-0.9-13.9-0.9-20.8c0-4.4-0.1-8.9-0.3-13.3c-0.1-3.3-1.5-6.3-2.9-9.2c-1.2-2.5-1.2-2.5,1.6-2.5
		c4.8,0,9.6,0,14.6,0c-0.7,1.7-1.4,3.3-2.1,4.9c-1.8,4.1-2.7,8.4-2.7,12.9c0.1,14.6,0,29.1,0.1,43.7c0,1.6-0.5,2-2,1.9
		c-2.9-0.2-5.8-0.2-8.8-0.1c-1,0-1.5-0.3-2.1-1.1c-6.7-10.2-12.4-20.9-18.4-31.5c-2.2-3.9-4.5-7.7-6.8-11.6c-0.5,0.5-0.3,1-0.3,1.5
		c0.1,5.6-0.3,11.3-0.5,16.9c-0.3,8.9,0,17.7,3.9,26.1c-5,0-9.8,0-14.9,0c0.7-1.7,1.3-3.3,2-4.8c1.1-2.6,1.7-5.3,1.8-8.2
		c0.5-12,0.2-24.1,0.1-36.1c-0.1-4.3-1.7-8.1-3.1-12C715.7,49.3,715.4,48.5,715.1,47.6z"/>
	<path class="st0" d="M397.1,130.8c5.3,0,10.3,0,15.3,0c1.3,0,1.1,0.5,0.8,1.3c-1.6,3.8-3.1,7.6-3.7,11.7c-0.3,1.9-0.4,3.8-0.4,5.7
		c-0.1,14.5-0.1,29-0.1,43.6c0,1.4-0.4,1.8-1.8,1.7c-2.8-0.2-5.6-0.2-8.4-0.2c-1,0-1.6-0.3-2.2-1.2c-5.2-8.3-9.8-17.1-14.7-25.6
		c-3.2-5.6-6.6-11.2-10.5-16.5c-0.6,1.4-0.5,2.8-0.6,4.2c-0.8,9.4-0.8,18.8-0.2,28.2c0.1,2.4,1.3,4.4,2.3,6.5
		c0.7,1.4,1.5,2.7,2.3,4.3c-5.6,0.2-11,0.4-16.6,0.6c1.5-2.8,2.7-5.6,3.4-8.6c1-4.1,1.2-8.3,1.2-12.6c0-8.7-0.1-17.3-0.2-26
		c-0.1-5.7-1.1-11.2-3.5-16.3c-0.1-0.2-0.1-0.4-0.2-0.8c4.4,0.2,8.7,0.6,13,0.4c3.4-0.1,5.2,1.2,6.9,4.2c7.5,13.1,15.2,26,22.3,39.3
		c0.2,0.4,0.3,0.9,0.9,1.2c-0.6-5.8-0.6-11.5-0.8-17.2c-0.2-5.2-0.3-10.4-1.1-15.5C399.8,139.1,398.8,135.1,397.1,130.8z"/>
	<path class="st0" d="M852.4,80.7c0.1-5,0.5-9.9,1.7-14.8c2.3-9.2,8.5-14.9,17.2-17.6c7.7-2.4,15.5-1.7,23.2,1.3
		c5.9,2.3,9,7,11.2,12.5c1.6,3.9,2.2,8.1,2.3,12.4c0.1,6.1,0.3,12.2-1.3,18.2c-0.8,3.1-2.1,6.1-3.6,9c-2.3,4.5-6.1,7-10.8,8.2
		c-5.4,1.4-10.9,1.5-16.4,1.2c-2.7-0.1-5.4-0.3-8-1.2c-7.8-2.4-12.5-7.6-14.1-15.6C852.8,89.9,852.6,85.3,852.4,80.7z M867.3,80.2
		c-0.1,3,0,6.2,0.3,9.4c0.6,5.4,2,10.5,5.8,14.6c2.7,3,6.5,3.9,10.4,2.5c3.8-1.4,5.9-4.2,7.2-8c4.3-12.6,3.5-25.1-0.2-37.6
		c-1.2-4.1-4-6.6-7.7-8.2c-2.2-0.9-4.3-0.8-6.4,0.3c-4.4,2.2-6.9,5.9-8.1,10.6C867.4,69.2,867.3,74.6,867.3,80.2z"/>
	<path class="st0" d="M1013.4,131c-2.3,4.6-3.5,9.2-4,14.1c-0.5,5-0.5,10-0.4,15.1c0.2,7.2,0.4,14.4-0.8,21.5
		c-1,6.2-4.6,10.1-10.3,12.1c-5.6,2-11.4,1.7-17.2,1.5c-2.6-0.1-5.2-0.5-7.6-1.4c-7.3-2.8-11.3-8.8-11.5-17
		c-0.2-7.7,0.1-15.4,0-23.1c0-7.3-0.6-14.5-2.5-21.5c-0.3-0.9-0.2-1.3,1-1.3c5.8,0.1,11.6,0,17.4,0c0.7,0,1.2-0.1,0.9,1
		c-2.3,8.3-2.8,16.8-2.8,25.4c0,6.3,0.1,12.7,0.3,19c0.1,4.2,1.9,8,3.3,12c0.1,0.3,0.4,0.5,0.7,0.5c3.6,0.2,7.2,1,10.8,0.3
		c3.5-0.6,5.4-2.3,6.2-5.7c1.1-4.8,1.7-9.6,1.7-14.5c0-6.8,0-13.6,0-20.5c0-5.6-1.8-10.7-3.7-15.8c-0.7-1.7-0.7-1.8,1.2-1.8
		C1001.8,131,1007.5,131,1013.4,131z"/>
	<path class="st0" d="M1139,213.9c7.5,0,15.1-0.1,22.7,0c7.1,0.1,14.2,0.3,21.3,0.4c1.1,0,1.4,0.4,1.4,1.5c0,4.8-0.3,9.6-0.4,14.6
		c-1.5-0.1-2.7-0.9-3.9-1.6c-2.3-1.4-4.3-3.2-5.9-5.3c-2-2.5-4.7-3.4-7.7-3.5c-2.6-0.1-5.3-0.1-8-0.3c-1.1-0.1-0.9,0.7-1,1.3
		c-0.2,2.4-0.3,4.8-0.4,7.1c-0.1,4.5,0.1,9,0.5,13.5c0.1,1.1,0.5,1.2,1.4,1.1c3.1-0.5,6-1.7,8.7-3.3c2.3-1.4,4.6-3,7.1-4.6
		c0.3,6.6,0.1,13,0.1,19.6c-1.2-0.6-2.1-1.1-3.1-1.7c-4-2.2-8.2-4-12.7-5.1c-1-0.3-1.2,0.1-1.3,0.9c-0.9,7.6-0.8,15.2-0.3,22.9
		c0.1,1,0.4,1.3,1.4,1.2c3.8-0.3,7.7-0.5,11.5-0.7c1.1-0.1,1.9-0.4,2.6-1.5c1.6-2.7,3.4-5.3,5-7.9c0.5-0.9,1.1-1.3,2.2-1.2
		c1.3,0.1,3.2-0.5,3.8,0.1c0.7,0.7,0.2,2.6,0.3,3.9c0,3.6,0,7.2,0,10.7c0,0.8-0.1,1.2-1.1,1.3c-14.5,0.7-28.9,0.3-43.4,0.3
		c-0.2,0-0.3-0.1-0.6-0.1c0.7-3,1.4-6,1.9-9c0.5-3.3,0.8-6.5,0.8-9.9c0-7.3,0-14.5,0-21.8c0-7.3-0.8-14.5-2.9-21.5
		C1139,214.8,1138.8,214.4,1139,213.9z"/>
	<path class="st0" d="M941.5,147c-2.8-0.9-4.9-2.6-7.1-4.4c-0.7-0.6-1.4-1.2-2-1.9c-2.6-3.3-6.1-4.2-10.1-4.1
		c-1.7,0.1-3.5,0.1-5.2,0.1c-0.7,0-0.9,0.2-1,0.9c-0.1,7-0.3,14.1,0.3,21.1c6-1.1,10.8-4.4,15.8-7.9c0.2,7,0.1,13.7,0,20.7
		c-1.8-1.2-3.5-2.3-5.1-3.4c-2.9-1.9-6.1-3.3-9.5-3.9c-0.9-0.2-1.2,0-1.3,0.9c-0.5,7.5-0.4,15-0.3,22.6c0,1,0.3,1.3,1.3,1.3
		c2.2,0,4.3,0.2,6.5,0.3c3,0.2,5.4-0.9,7.3-3.3c2.3-2.9,4.9-5.7,7.6-8.2c0.7-0.6,1.4-1.2,2.2-1.9c0.8,6,0.8,11.7,0.8,17.5
		c0,1.1-0.7,0.9-1.3,0.9c-5.1,0.1-10.3,0.2-15.4,0.2c-9.5,0-19.1,0-28.6,0c-0.2-0.2,0-0.4,0.2-0.6c3.2-5.4,4.3-11.2,4.5-17.4
		c0.1-2.8,0-5.5-0.1-8.3c-0.2-4.1-0.1-8.2,0.1-12.3c0.4-10.2-0.2-13.2-4-24.9c0.5-0.4,1-0.2,1.5-0.2c13.9,0,27.7,0,41.6,0
		c1.2,0,1.5,0.2,1.6,1.5C941.8,137.3,941.9,142.1,941.5,147z"/>
	<path class="st0" d="M342.3,147.4c-3.2-1.4-5.4-3.2-7.6-5c-1.2-1-2.5-2-3.5-3.2c-2.1-2.4-4.9-2.3-7.6-2.5c-2-0.1-4-0.1-6-0.1
		c-0.6,0-1,0-1.1,0.8c-0.1,6.9-0.3,13.9,0.3,20.8c0,0.2,0.1,0.4,0.2,0.7c6-1,10.8-4.3,15.7-7.9c0,7,0,13.7,0,20.7
		c-0.8-0.5-1.5-1-2.3-1.5c-3.8-2.6-7.8-4.9-12.4-5.8c-1-0.2-1.2,0-1.2,0.9c-0.5,7.1-0.7,14.2-0.3,21.3c0.1,2.7,0.1,2.7,2.7,2.7
		c3,0,6.1-0.1,9.1,0c1.3,0.1,2.1-0.4,2.7-1.5c1.2-2.1,2.4-4.2,3.7-6.3c1.5-2.4,3.6-3.8,6.5-4c1.1-0.1,1.4,0.3,1.3,1.4
		c-0.2,4.8-0.4,9.5-0.5,14.3c0,1.2-0.5,1.4-1.5,1.4c-10.4,0.1-20.8,0.3-31.2,0.1c-4.2-0.1-8.3,0-12.6,0c0.9-1.9,1.8-3.9,2.6-5.8
		c1.4-3.1,2-6.4,1.9-9.8c-0.2-9,0.3-18,0-27c-0.2-6.5-0.8-12.8-2.4-19.1c-0.3-1.4-0.2-1.8,1.3-1.8c12.9-0.1,25.8-0.2,38.7,0.1
		c1.1,0,2.6-0.5,3.2,0.3c0.5,0.7,0.2,2.2,0.2,3.3C342.3,138.9,342.3,142.9,342.3,147.4z"/>
	<path class="st0" d="M1099.5,47.5c8.1,0,15.8-0.1,23.4,0c7.1,0.1,14.2,0.3,21.3,0.4c1.2,0,1.4,0.4,1.4,1.5
		c-0.1,4.1-0.2,8.2-0.1,12.3c0,1.3-0.5,1.4-1.6,1.2c-2.4-0.5-4.4-1.5-6.1-3.1c-0.6-0.5-1.2-1-1.7-1.5c-3.5-4.1-8.1-5.3-13.3-5
		c-0.2,0-0.4,0-0.7,0c-3.6,0-3.7,0-3.7,3.7c-0.1,6,0,11.9-0.1,17.9c0,1,0.2,1.4,1.4,1.2c3.8-0.4,7.3-1.9,10.6-3.8
		c1.9-1.1,3.7-2.3,5.9-3.6c0.1,7.1,0.2,14-0.4,21.1c-1.8-1.4-3.4-2.8-5.1-4c-3.3-2.5-6.8-4.6-11-5.3c-0.8-0.1-1.2,0-1.2,0.9
		c-0.3,8-0.5,15.9-0.1,23.9c0,0.7,0.3,0.8,0.9,0.8c4.3,0.1,8.7,0.1,13,0.2c0.9,0,1.1-0.5,1.4-1.1c1.7-3.1,3.5-6.1,5.2-9.2
		c0.5-0.9,1.1-1.3,2-1.4c0.4,0,0.9,0,1.3-0.1c3.7-0.4,3.6-0.4,3.5,3.2c-0.2,3.7-0.4,7.5-0.4,11.2c0,1.3-0.4,1.6-1.6,1.6
		c-12.5,0.8-24.9,0.5-37.4,0.4c-1.7,0-3.4,0-5,0c-0.8,0-1.2-0.1-0.8-1.1c2.4-5.3,3-11,3-16.8c0-8.9,0-17.8,0-26.7
		C1103.4,60.1,1102.4,53.9,1099.5,47.5z"/>
	<path class="st0" d="M585.4,259.7c0.5,5.6,0.4,11,0.4,16.4c0,1.3-0.8,1-1.5,1c-9.7,0.4-19.5,0.3-29.2,0.3c-4,0-7.9,0-11.9,0
		c-0.9,0-1.2-0.1-0.8-1.1c2.9-8.5,3.1-17.4,2.9-26.3c-0.1-6.2,0-12.5-0.1-18.7c-0.1-5.3-1.7-10.3-3.1-15.4c-0.2-0.6-0.3-1.1-0.5-1.7
		c0.5-0.3,1-0.2,1.4-0.2c13.9-0.1,27.7-0.2,41.6,0.1c1.1,0,1.3,0.4,1.3,1.4c-0.1,4.4-0.1,8.8-0.1,13.2c0,1-0.3,1-1.1,0.7
		c-2.3-0.9-4.3-2.3-6.1-3.9c-0.7-0.6-1.4-1.2-2-1.9c-2.5-3-5.8-3.9-9.5-3.8c-1.8,0.1-3.7-0.1-5.5-0.2c-0.8-0.1-1.1,0.1-1.2,1
		c-0.5,7.1-0.4,14.2,0,21.3c0.1,0.9,0.3,0.9,1.1,0.7c3-0.6,5.6-1.9,8.1-3.6c2.4-1.6,4.7-3.3,7-4.9c0.4,0.5,0.3,1.1,0.3,1.6
		c0,5.7,0,11.4,0,17.1c0,1.3-0.2,1.6-1.5,0.9c-4.3-2.4-8.8-4.7-13.5-6.3c-1-0.4-1.4-0.3-1.5,0.9c-0.6,7.6-0.7,15.2-0.1,22.9
		c0,0.6-0.1,1.3,1,1.2c3.1-0.3,6.3-0.2,9.4-0.6c1.6-0.2,2.8-1,3.9-2.1c1.6-1.7,3.2-3.5,4.9-5.2C581.2,262.6,582.9,260.9,585.4,259.7
		z"/>
	<path class="st0" d="M604.6,151.7c0.1,6.7-0.3,13.2-0.7,19.9c-1.2-0.4-2.1-1.1-3.1-1.7c-4.2-2.5-8.5-4.7-13.4-5.3
		c-1-0.1-1.3,0-1.4,1.1c-0.4,7.4-0.3,14.8-0.3,22.3c0,1.2,0.4,1.4,1.5,1.4c3.7,0,7.4,0,11,0.1c0.9,0,1.4-0.3,2-1.1
		c2.9-4.2,5.9-8.3,10-11.4c0.2-0.1,0.3-0.2,0.7-0.5c0.1,1.4,0.3,2.6,0.3,3.8c0.2,4.4,0.1,8.8,0,13.2c0,1-0.3,1.3-1.3,1.3
		c-12,0.3-23.9,0.4-35.9,0.1c-2.4-0.1-4.9,0-7.4,0c0.2-1.4,1-2.4,1.4-3.4c2.1-4.6,3.2-9.5,3.1-14.6c-0.1-8.6,0-17.2,0-25.8
		c0-6.2-1-12.3-3.3-18.1c-0.4-1.2-0.3-1.4,1-1.5c13.7-0.3,27.4-0.3,41.1,0.1c1,0,1.4,0.3,1.3,1.4c-0.2,4.8,0,9.6-0.5,14.8
		c-1.3-1.1-2.5-2-3.6-3c-2.5-2.2-4.9-4.5-7.5-6.5c-0.7-0.5-1.5-0.9-2.4-0.9c-3.5-0.2-7-0.4-10.6-0.3c-0.8,0-1,0.3-1,1
		c-0.3,6.7-0.4,13.4,0,20.1c0,0.8,0.3,0.9,1,0.8c2.5-0.1,4.8-1.1,7.1-2.2c2.9-1.5,5.6-3.4,8.8-4.3C603.5,152,604,151.8,604.6,151.7z
		"/>
	<path class="st0" d="M652.8,194.8c-8.1,0-16.2,0-24.5,0c1-2.2,2.1-4.3,3.1-6.5c1.4-3,2.1-6.2,2.1-9.6c0-9.2-0.1-18.3,0.1-27.5
		c0.1-6.3-1-12.2-3.8-17.9c-1-2.1-0.9-2.2,1.4-2.2c7.9-0.1,15.8-0.4,23.7-0.1c4.7,0.2,9.4,0.7,13.9,2.1c5.8,1.7,8.7,6.1,9.5,11.7
		c0.8,5.6-0.4,11-3.6,15.7c-2.9,4.2-7.3,5.7-12,6.5c-4.4,0.8-8.9,1.2-13.4,1.6c-0.7,0.1-1.4,0-1.4,1.1c-0.2,5.1-0.6,10.2,0.6,15.2
		c0.7,3,2,5.8,3.6,8.4C652.4,193.8,652.8,194.1,652.8,194.8z M648,149.6C648,149.6,648,149.6,648,149.6c0,4,0,8,0,12
		c0,1.1,0.3,1.2,1.3,1.1c3.7-0.5,7.4-1,11.1-1.5c0.8-0.1,1.2-0.4,1.5-1.2c2.6-7.1,2.4-14.1,0-21.1c-0.2-0.7-0.5-1-1.2-1.1
		c-3.7-0.4-7.4-0.8-11.1-1.3c-1.2-0.2-1.6,0.1-1.6,1.4C648.1,141.8,648,145.7,648,149.6z"/>
	<path class="st0" d="M1194.5,194.7c-8.3,0-16.4,0-24.8,0c0.6-1.4,1.2-2.8,1.9-4.1c2.4-4.8,1.9-9.5,0-14.3c-0.2-0.6-0.5-0.8-1.2-0.8
		c-5.8-0.1-11.6-0.2-17.4-0.3c-0.4,0-0.9-0.1-1.1,0.4c-1.1,2.7-2.7,5.2-3.3,8.1c-0.2,1.1-0.2,2.1,0.2,3.2c1,2.7,2.5,5.3,3.5,7.8
		c-6.2,0-12.3,0-18.8,0c1-1.6,1.7-2.8,2.5-4c5.7-9.6,9.5-20.1,13.3-30.5c3.4-9.4,6.6-18.9,10.8-28.1c0.5-1.1,1.1-1.8,2.5-1.8
		c2.9,0,5.7-0.2,8.6-0.5c1.3-0.1,1.8,0.3,2.2,1.6c4.3,14.8,8.6,29.5,13,44.3c1.8,6.1,4.3,11.8,7.5,17.4
		C1194,193.4,1194.5,193.9,1194.5,194.7z M1162.7,145.3c-0.2,0.2-0.4,0.3-0.4,0.4c-3.4,7.4-6.1,15.1-8.7,22.8
		c-0.3,0.8-0.1,1.2,0.8,1.1c4.7-0.1,9.4-0.2,14.1-0.2c0.9,0,1-0.3,0.8-1C1167.3,160.7,1165.4,152.9,1162.7,145.3z"/>
	<path class="st0" d="M800,151c0.1,7,0.1,13.8-0.5,20.7c-3.3-2.1-6.2-4.3-9.7-5.7c-2.1-0.8-4.2-1.3-6.4-1.5c-1-0.1-1.3,0.2-1.3,1.2
		c-0.3,5.8-0.5,11.7-0.3,17.5c0.1,1.6,0.1,3.3,0.1,4.9c0,0.8,0.2,1.2,1.1,1.2c4.2-0.1,8.3-0.1,12.5,0c0.9,0,1.3-0.4,1.7-1
		c1.4-2.1,2.7-4.3,4.1-6.4c1.7-2.5,3.9-4.1,7-4.3c1-0.1,1.3,0.2,1.3,1.2c-0.1,4.9-0.5,9.7-0.9,14.6c-0.1,1-0.5,1.2-1.4,1.2
		c-5.9,0.2-11.8,0.3-17.7,0.2c-8.3,0-16.7,0-25.1,0c-0.2-0.4,0.1-0.8,0.3-1.1c2.6-5.4,3.7-11.2,3.7-17.1c0.1-8.7,0.1-17.3,0-26
		c-0.1-6.2-1-12.3-3.5-18c-0.4-1-0.4-1.4,0.9-1.4c12.5-0.1,24.9-0.3,37.4,0.1c1.6,0,3.2,0.1,4.9,0.1c0.8,0,1.1,0.2,1.1,1.1
		c-0.2,4.5-0.3,9.1-0.3,13.6c0,1-0.4,1-1.2,0.8c-3.4-0.7-6.2-2.6-8-5.4c-2.4-3.8-5.5-5.1-9.8-4.6c-2.2,0.3-4.5,0.1-6.8,0.1
		c-0.8,0-1.2,0.1-1.2,1.1c-0.3,6.4,0,12.9,0.1,19.3c0,1.3,0.5,1.5,1.6,1.3c3.9-0.6,7.5-2,10.8-4.1C796.2,153.5,798,152.3,800,151z"
		/>
	<path class="st0" d="M839.7,277.3c-7.9,0-15.6,0-23.5,0c0.9-2.3,1.8-4.5,2.4-6.8c1.6-6.5,1.7-13.1,1.5-19.7
		c-0.2-4.9-0.2-9.7,0-14.6c0.4-7.2-0.7-14.1-3.6-20.7c-0.5-1.2-0.6-1.6,1-1.6c8,0,15.9-0.4,23.9,0.1c4.9,0.3,10,0.3,14.7,2.2
		c5.3,2.1,8.2,5.9,8.5,11.7c0.2,2.9,0.2,5.7-0.1,8.6c-0.8,6.3-4.6,10.3-10.3,12.6c-4.2,1.7-8.5,2.3-13,2.6c-2,0.1-4,0.2-6,0.3
		c-0.6,0-1.1,0-1.1,0.8c-0.1,6.1-0.6,12.2,1.8,18.1C836.7,273.2,838.1,275.2,839.7,277.3z M834.2,233.3c-0.1,0-0.3,0-0.4,0
		c0.2,4.3,0.4,8.5,0.5,12.8c0,0.9,0.2,1.3,1.2,1c3-0.9,6-1.8,9-2.7c3.5-1,5.1-3.3,5.5-6.7c0.1-0.4,0.1-0.7,0.2-1.1
		c0.8-5.4-0.8-10.4-2.2-15.4c-0.2-0.6-0.6-0.6-1.1-0.7c-3.9-0.2-7.8-0.4-11.7-0.6c-0.8,0-1,0.2-1,1
		C834.2,225,834.2,229.1,834.2,233.3z"/>
	<path class="st0" d="M389.7,234.1c0.5,6.9,0.3,13.6,0.2,20.5c-1.2-0.2-2-0.8-2.9-1.3c-4.4-2.4-8.8-4.5-13.8-5.6
		c-1.4-0.3-1.7,0.1-1.7,1.3c-0.2,7.5-0.4,15.1,0.2,22.6c0,0.4-0.1,0.9,0.6,0.9c3.9-0.4,7.8,0.1,11.6-0.9c1.7-0.4,3-1.3,4.1-2.7
		c1.8-2.3,3.3-4.8,4.9-7.3c0.4-0.7,0.9-1.1,1.8-1c1.2,0.2,2.4,0.1,3.6,0.2c0.8,0,1.1,0.3,1,1.2c-0.5,4.8-0.9,9.7-1.3,14.5
		c-0.1,1-0.7,0.8-1.3,0.8c-3.3,0-6.6,0.1-9.9,0.1c-10.8,0-21.7,0-32.7,0c1.1-2.6,2.2-5.1,2.8-7.7c1-4.1,1.4-8.2,1.4-12.4
		c0-8-0.2-15.9,0-23.9c0.1-6.3-1.4-12.2-3.7-18c-0.2-0.4-0.3-0.8-0.5-1.2c0,0,0-0.1,0-0.2c0.3-0.3,0.7-0.1,1-0.1
		c13.9,0,27.7-0.2,41.6,0.2c1.2,0,1.6,0.3,1.6,1.6c0,4.1,0,8.2,0.2,12.3c0.1,1.4-0.5,1.5-1.6,1.4c-2.7-0.3-4.9-1.6-6.7-3.6
		c-1.2-1.4-2.5-2.8-3.8-4.2c-1-1.1-2.2-1.4-3.6-1.6c-3.2-0.4-6.5-0.2-9.7-0.5c-0.9-0.1-1.1,0.4-1.2,1.1c-0.7,4.6-1,9.3-0.9,13.9
		c0.1,2.4,0,4.9,0.3,7.3c0.1,0.9,0.4,1,1.2,0.9c3.2-0.7,6.2-2,8.9-3.7C384.5,237.5,387,235.8,389.7,234.1z"/>
	<path class="st0" d="M954.3,277.3c1.4-2.9,2.7-5.9,3.4-9c1.3-5.8,1.4-11.7,1.1-17.6c-0.2-4.6-0.2-9.2,0-13.8
		c0.4-7.5-0.7-14.8-4.1-21.6c-0.1-0.3-0.3-0.6-0.4-0.9c0-0.1,0-0.2,0-0.4c5.6,0,11.2,0,16.9,0c8.9,0,17.8,0,26.7,0.3
		c1.1,0,1.5,0.2,1.4,1.4c-0.1,4.9,0,9.7,0,14.9c-2-0.6-3.2-1.4-4.5-2.3c-2.4-1.8-4.6-3.8-6.6-6c-1.2-1.3-2.6-1.8-4.3-2
		c-3.5-0.5-7-0.3-10.5-0.4c-0.9,0-1,0.4-1,1.1c-0.2,6.6-0.3,13.1,0.1,19.7c0,0.8,0.1,1.5,0.2,2.3c6.6-0.9,11.9-4.7,17.5-8.3
		c0.2,6.7,0.2,13.2,0.1,19.8c-1.9-1.1-3.7-2.1-5.4-3c-3.5-1.9-7.2-3.3-11.2-3.5c-1-0.1-1.3,0.2-1.3,1.2c-0.1,7-0.2,14.1,0.1,21.1
		c0.1,2.2,0.1,2.2,2.4,2.1c3.4-0.1,6.8,0,10.2-0.7c1.1-0.2,2-0.7,2.7-1.6c1.4-1.8,2.8-3.6,4.2-5.4c1.5-1.9,3.2-3.6,5.7-4.1
		c1-0.2,1.8-0.3,1.8,1.3c-0.1,4.6-0.1,9.2-0.1,13.8c0,0.9-0.1,1.4-1.2,1.4c-14.5,0.7-28.9,0.2-43.4,0.4
		C954.6,277.4,954.5,277.3,954.3,277.3z"/>
	<path class="st0" d="M471.5,111.1c3.4-7.4,4.1-14.9,4.1-22.5c0-7.1-0.3-14.3,0-21.4c0.3-6.2-1.6-12-3.7-17.8
		c-0.2-0.5-0.3-0.9-0.5-1.3c0.4-0.4,0.9-0.3,1.3-0.3c14-0.4,28-0.1,41.9,0c1.1,0,1.4,0.3,1.4,1.3c-0.1,4.2-0.1,8.5,0,12.7
		c0,1.2-0.5,1.4-1.5,1.3c-2.2-0.2-4.1-1.1-5.7-2.6c-1-1-2.1-1.9-2.9-3c-2.2-2.9-5.2-4.1-8.8-4.1c-2.4,0-4.9,0-7.3-0.1
		c-0.8,0-1,0.3-1,1c-0.1,6.9-0.1,13.8,0,20.6c0,1,0.4,1.1,1.3,1.1c3.3-0.2,6.4-1.1,9.3-2.7c2.6-1.4,5.2-3,7.9-4.6
		c0.4,7,0.2,13.9-0.1,21.1c-1.9-1.1-3.4-2.5-5-3.7c-3.1-2.4-6.3-4.5-10.3-5.3c-0.3,0-0.5-0.1-0.8-0.2c-2.2-0.3-2.2-0.3-2.2,1.9
		c-0.1,7.4-0.1,14.7-0.1,22.1c0,1.1,0.3,1.5,1.4,1.4c3.9-0.1,7.8-0.1,11.7-0.1c1,0,1.5-0.3,2-1.1c1.3-2.1,2.7-4.2,4.1-6.3
		c1.7-2.5,3.9-4.5,7.1-4.8c1.1-0.1,1.4,0.2,1.4,1.3c-0.3,4.9-0.5,9.7-0.7,14.6c0,1.3-0.9,1.1-1.7,1.1c-11.2,0.4-22.4,0.3-33.6,0.2
		C477.4,111.1,474.6,111.1,471.5,111.1z"/>
	<path class="st0" d="M463.8,277.4c-8,0-15.7,0-23.6,0c0.5-1.4,1-2.8,1.6-4.2c2.1-5,1.3-9.8-0.8-14.6c-0.3-0.7-0.7-0.8-1.4-0.8
		c-5.5,0-11.1,0.1-16.6,0.1c-0.8,0-1.3,0.3-1.5,1.1c-0.3,1.1-0.6,2.2-1.1,3.2c-1.8,4-1.5,7.8,0.7,11.6c0.6,1.1,1.1,2.3,1.7,3.6
		c-6.4,0-12.6,0-18.9,0c0-0.2,0-0.4,0.1-0.5c6.9-9.7,11.1-20.6,14.9-31.7c3.4-9.8,6.3-19.7,10.3-29.3c0.5-1.1,1.1-1.5,2.2-1.6
		c3.1-0.3,6.2-0.3,9.2-0.4c1.3,0,1.9,0.3,2.3,1.6c3.1,8.9,5.5,17.9,8.1,27c2.9,10.3,5.9,20.6,10.4,30.4
		C462.3,274.3,463,275.7,463.8,277.4z M432.3,225.9c-3.2,8.7-6.4,17-8.4,25.6c-0.3,1.1,0.5,1,1.1,1c4.3,0,8.5,0,12.8,0.1
		c1.3,0,1.6-0.3,1.3-1.6C436.8,242.8,434.7,234.5,432.3,225.9z"/>
	<path class="st0" d="M661.2,260.9c2.1,1.9,4,4,5.9,6.1c2.3,2.5,4.8,5,8.3,5.6c2.6,0.5,5.2,0.2,7.6-0.9c3.7-1.7,5.3-6.1,4.1-10.5
		c-0.7-2.5-2.4-4.3-4.4-5.8c-3.3-2.4-6.9-4.3-10.3-6.5c-1.7-1.1-3.4-2.3-5.1-3.5c-5.9-4.6-7.1-10.8-6.2-17.7
		c0.5-4.1,2.2-7.8,5.6-10.4c2.5-2,5.6-2.3,8.5-2.8c8-1.2,16-0.3,24,0.3c0.7,0.1,1,0.4,1,1.1c0.2,4.1,0.4,8.2,0.7,12.3
		c0.1,1.5-0.6,1.6-1.7,1.5c-2.9-0.3-5.1-1.6-6.9-3.9c-1.1-1.4-2.3-2.8-3.3-4.2c-1.9-2.4-4.3-3.1-7.2-2.6c-1.1,0.2-2.2,0.5-3.3,0.9
		c-5.9,2.6-7,9.4-2.1,13.7c3.3,3,7.2,5.1,11,7.4c3,1.9,6.1,3.8,8.6,6.3c7.4,7.4,6.4,21.4-2.2,27.4c-2.9,2-6.4,2.8-9.9,3.4
		c-6.6,1.1-13.2,0.2-19.7-0.8c-1.2-0.2-2.9,0.1-3.5-0.8c-0.6-0.9-0.2-2.4-0.2-3.6c0-3.9,0-7.9,0-11.8
		C660.8,260.9,661,260.9,661.2,260.9z"/>
	<path class="st0" d="M1013.4,111.1c-7.7,0-15.5,0-23.3,0c0-0.9,0.5-1.6,0.9-2.3c2.4-4.7,3.5-9.6,3.4-14.8
		c-0.1-13.1,0.1-26.1-0.4-39.2c-0.1-2-0.2-2-2.2-1.7c-3,0.5-5.3,2-7.3,4.2c-1.4,1.6-2.9,3.2-4.4,4.8c-1.2,1.3-2.7,2.1-4.4,2.7
		c-0.8,0.3-1.2,0.2-1.2-0.8c-0.1-5.1-0.2-10.3-0.4-15.4c0-0.9,0.5-0.9,1.1-0.9c11.7,0,23.4-0.5,35.1-0.2c5.6,0.1,11.3,0.2,16.9,0.2
		c1.3,0,1.6,0.4,1.6,1.7c-0.1,4.7-0.1,9.4,0,14.1c0,1.4-0.5,1.5-1.6,1.4c-2.3-0.2-4.1-1.2-5.5-3.1c-1-1.4-1.8-2.8-2.7-4.2
		c-1.3-2.1-2.9-3.9-5.7-3.8c-1.3,0-3-0.9-3.7-0.3c-0.8,0.6-0.2,2.4-0.3,3.7c-0.3,12.7-0.3,25.3-0.1,38c0.1,4.8,1.1,9.3,3.2,13.6
		c0.3,0.6,0.6,1.3,0.9,1.9C1013.5,110.8,1013.4,111,1013.4,111.1z"/>
	<path class="st0" d="M481.8,149c-4.2-2.9-7.4-6.4-10.4-10.1c-1-1.2-2-1.8-3.5-1.9c-1.5-0.1-3-0.2-4.5-0.4c-0.1,1.4-0.3,2.9-0.3,4.3
		c-0.3,11.7-0.6,23.4-0.3,35.1c0,0.5,0.1,1.1,0.1,1.6c-0.5,5.6,1.2,10.6,4,15.3c0.3,0.5,0.6,1.1,0.9,1.9c-8.2,0-16.2,0-24.5,0
		c0.9-1.9,1.7-3.7,2.5-5.5c1.7-3.8,2.5-7.8,2.5-11.9c0.3-12.8,0.1-25.7-0.2-38.5c-0.1-2.6-0.1-2.6-2.6-2.2c-0.7,0.1-1.5,0.4-2.2,0.4
		c-2.8,0.3-4.8,1.8-6.6,4c-2.1,2.6-4.3,5.2-6.5,7.8c-1.2-2.1-1.7-4.4-2.1-6.6c-0.5-3.2-0.3-6.5-0.4-9.7c0-1,0.4-1.1,1.2-1.1
		c16.3-0.4,32.5-0.4,48.8-0.1c1.4,0,2.8,0.1,4.2,0.1c0.7,0,1,0.2,0.9,0.9C482.8,137.7,482.5,143.2,481.8,149z"/>
	<path class="st0" d="M928,110.9c1.1-1.3,2.1-2.4,3.1-3.4c2.4-2.5,3.6-5.3,3.6-8.9c-0.1-12.1,0.2-24.2-0.1-36.2
		c-0.1-2.9-0.4-5.8-0.5-8.8c0-1-0.3-1.1-1.1-0.7c-0.5,0.2-1,0.3-1.6,0.4c-3.9,0.8-6.9,2.8-9,6.2c-1.3,2.1-2.8,4-5.3,4.8
		c-0.4,0.1-0.7,0.2-1.1,0.3c-1.8,0.3-2,0.2-2-1.7c-0.1-4.4-0.1-8.9-0.4-13.3c-0.1-1.5,0.5-1.8,1.8-1.8c15-0.3,30-0.5,45-0.1
		c2,0.1,4,0.1,6,0.1c0.9,0,1.2,0.2,1.2,1.2c0,5.4,0.1,10.8-0.1,16.4c-2.8-1-4.7-3.1-6.5-5.2c-1-1.2-2-2.5-3-3.8
		c-1.1-1.5-2.5-2.3-4.4-2.5c-4.7-0.5-4.7-0.6-4.6,4c0.1,11.8-0.2,23.6,0,35.4c0.1,5.8,1,11.2,3.6,16.3c0.6,1.1,0.5,1.5-0.9,1.5
		c-7.4,0.1-14.7,0.2-22.1,0C929,111,928.7,110.9,928,110.9z"/>
	<path class="st0" d="M1114.8,277.3c-9,0-17.6,0-26.5,0c0.9-1.3,1.7-2.4,2.5-3.5c2.1-2.8,3.1-6,3.1-9.5c0.1-14.4,0.2-28.8-0.2-43.2
		c0-1.1-0.3-1.5-1.5-1.5c-3.6,0-6.4,1.6-8.8,4.2c-1.3,1.5-2.5,3-3.9,4.4c-1.1,1.2-2.3,2.3-3.7,3.2c-0.5-0.4-0.4-1-0.4-1.5
		c-0.2-4.8-0.4-9.6-0.4-14.5c0-1,0.3-1.2,1.3-1.2c17.1-0.3,34.2-0.4,51.4,0.1c0.7,0,1.4-0.2,1.4,1c-0.1,5,0.1,10-0.2,14.9
		c-0.1,1.2-0.6,1.2-1.4,1c-2.3-0.6-4.2-2-5.6-3.9c-1.2-1.6-2.3-3.2-3.4-4.9c-0.7-1-1.6-1.6-2.7-1.8c-2-0.4-4-0.7-6-1.2
		c-0.9-0.2-1.1,0.1-1.1,0.9c-0.5,11.5-0.7,23-0.6,34.4c0.1,3.7,0.2,7.5,0.2,11.2c0,2.4,1,4.4,2.4,6.2
		C1111.9,273.8,1113.3,275.4,1114.8,277.3z"/>
	<path class="st0" d="M1250.7,174c0.7,2.2,1,4.5,1.2,6.8c0.4,4,0.4,8,0.3,12c0,1.3-0.4,1.7-1.7,1.7c-12.3,0.3-24.7,0-37,0.2
		c-2.1,0-4.2,0-6.3,0c0-0.1-0.1-0.2-0.1-0.2c3.7-6.7,4.3-14,4.1-21.4c-0.1-6.3-0.2-12.7,0-19c0.2-7.8-0.3-15.5-3.7-22.7
		c0-0.1,0-0.2,0-0.4c7.9,0,15.7,0,23.7,0c-0.9,2.1-1.8,4.2-2.7,6.3c-1.3,3.1-1.9,6.3-1.9,9.6c-0.1,12.8-0.1,25.7,0.1,38.5
		c0,0.5,0.1,1.1,0.1,1.6c0.2,2.4,0.2,2.5,2.6,2.3c2.6-0.2,5.3,0.1,7.9-0.5c1.8-0.4,3.2-1.2,4.3-2.9c2.3-3.9,4.5-7.9,7.9-11.1
		C1249.8,174.6,1250.1,174.1,1250.7,174z"/>
	<path class="st0" d="M926.5,213.7c6.3,0.1,11.2,0.7,16.2,1.1c0.8,0.1,1.1,0.3,1.2,1.1c0.2,4.1,0.3,8.2,0.6,12.3
		c0.1,1.1-0.4,1.3-1.3,1.3c-2.2-0.1-4.1-0.6-5.8-2.2c-1.6-1.5-2.8-3.3-4.1-5c-3.5-4.3-9-4.8-13.2-1.1c-4.2,3.7-6.4,8.7-7.1,14
		c-1,7.7-1.3,15.5,0.2,23.3c0.7,3.6,1.9,7,3.7,10.1c1.5,2.6,4.1,3.4,6.8,3.8c1.3,0.2,2.7,0.1,4.1,0c2-0.1,3.7-0.9,4.8-2.6
		c1.2-1.7,2.4-3.3,3.7-5c1.8-2.3,4.1-3.4,7.1-3.1c0.8,0.1,1.2,0.3,1.1,1.3c-0.3,4.1-0.6,8.2-0.8,12.3c0,0.7-0.3,0.9-0.9,1
		c-5.4,0.9-10.9,1.9-16.4,2.2c-6.3,0.3-12.4-0.9-18-3.9c-3.9-2.1-6-5.7-7.5-9.7c-2.2-5.7-3.3-11.8-3.6-17.9c-0.2-5,1.2-9.8,2.6-14.6
		c0.8-2.9,2-5.6,3.3-8.2c2.8-5.3,7.7-7.7,13.1-9.3C920.1,213.9,923.9,213.7,926.5,213.7z"/>
	<path class="st0" d="M1250.6,92.7c0.5,5.7,0.4,11.3,0.5,17c0,1.1-0.4,1.2-1.3,1.2c-12.9,0.2-25.8,0.4-38.7,0.2c-1.7,0-3.4,0-5.4,0
		c1.8-3,3.2-5.8,3.8-9c0.6-2.7,0.9-5.4,0.9-8.2c0-9.3,0-18.6,0-28c0-6-1.2-11.8-4.2-17.1c-0.6-1.1-0.1-1.2,0.8-1.2
		c5.4-0.1,10.8-0.1,16.2,0c2.1,0.1,4.2,0,6.6,0c-0.8,1.7-1.4,3-2,4.4c-1.7,3.5-2.5,7.1-2.6,11.1c-0.2,13.5-0.1,27,0.2,40.5
		c0.1,2.9,0.1,2.9,2.9,2.8c3-0.1,6-0.3,8.9-0.3c0.9,0,1.5-0.3,1.9-1.1c1.8-3.2,3.7-6.3,5.4-9.6c0.6-1.1,1.3-1.7,2.5-1.9
		C1248.2,93.2,1249.3,93,1250.6,92.7z"/>
	<path class="st0" d="M844.6,56.5c0,2.2-0.1,4.3,0,6.5c0.1,1.2-0.5,1.2-1.3,1.1c-2.1-0.4-3.6-1.8-4.8-3.4c-1.1-1.5-2.1-3-3.2-4.5
		c-3-4.1-7-4.9-11.4-2.4c-3.3,1.9-5.4,4.8-6.9,8.2c-1.7,3.8-2.5,7.8-2.8,11.9c-0.4,7.6-0.6,15.2,1.8,22.5c1.5,4.8,4.4,8.5,9.2,10.4
		c2.5,1,4.7,0.7,6.9-0.8c2.4-1.7,4.2-3.9,6-6.2c1-1.3,2-2.5,3-3.8c0.5-0.6,0.9-0.6,1.4,0c1.1,1.3,1.8,2.8,2.1,4.5
		c0.4,2.9-0.1,5.7,0.1,8.6c0,0.6-0.2,0.7-0.8,0.8c-8.2,0.9-16.3,2.1-24.6,1c-2.8-0.4-5.5-1.1-8.1-2.1c-5.9-2.5-8.4-7.5-10.2-13.1
		c-2-6.5-1.8-13.2-1.5-20c0.1-4,0.6-7.9,2.2-11.5c4-9.5,11.4-14.7,21.3-16.6c6.9-1.3,13.8-0.2,20.6,1.1c0.9,0.2,1,0.6,1,1.3
		C844.5,52.1,844.5,54.3,844.6,56.5C844.6,56.5,844.6,56.5,844.6,56.5z"/>
	<path class="st0" d="M1177.8,47.9c-1,2.9-2.5,5.6-3.3,8.6c-0.5,1.9-0.8,3.8-0.8,5.8c-0.2,14.2-0.2,28.5,0.2,42.7
		c0,1,0.2,1.4,1.3,1.3c3.4-0.2,6.8-0.3,10.2-0.4c0.9,0,1.4-0.3,1.8-1c1.3-2.4,2.7-4.7,4.1-7c1.7-2.7,4-4.8,7.3-5.9
		c0.1,3.4-0.4,6.6-0.7,9.8c-0.3,2.7-0.8,5.5-1.1,8.2c-0.1,0.6-0.3,0.9-1,0.9c-13.9,0.3-27.8,0.3-41.8,0.1c-0.1,0-0.1,0-0.2-0.1
		c0.3-1.2,1-2.1,1.6-3.1c2.5-4,3.7-8.3,3.7-13.1c0-11.2,0.2-22.3-0.2-33.5c-0.1-2.6-1-4.8-2.3-7c-1.1-1.9-2.2-3.7-3.3-5.6
		c-0.4-0.6-0.5-0.9,0.5-1c7.9-0.4,15.8-0.2,23.7,0.1C1177.6,47.8,1177.7,47.8,1177.8,47.9z"/>
	<path class="st0" d="M300.5,277.4c2-4.4,3.2-8.6,3.8-13.1c0.7-5.7,0.6-11.3,0.4-17c-0.1-4.2-0.3-8.3,0-12.5
		c0.5-6.5-1.1-12.7-3.5-18.6c-0.3-0.6-0.5-1.3-0.8-2.1c7.3-0.3,14.5-0.2,21.9-0.1c-0.6,1.3-1.1,2.5-1.6,3.6
		c-2.2,4.6-3.2,9.5-3.1,14.6c0.2,11.5,0.1,23,0.2,34.5c0,1.7-0.5,3.8,0.4,4.9c0.9,1.1,3.1,0.2,4.7,0.2c2.4,0,4.9-0.2,7.3-0.2
		c1,0,1.6-0.4,2-1.2c1.3-2.4,2.6-4.8,4-7.2c1.5-2.7,3.8-4.5,6.9-5.2c1-0.2,1.7-0.2,1.7,1.2c-0.1,5.7-0.9,11.3-2.2,16.9
		c-0.2,0.7-0.3,1.1-1.2,1.1C327.7,277.7,314.3,277.3,300.5,277.4z"/>
	<path class="st0" d="M804,277.4c-7.7,0-15.2,0-22.9,0c1.1-2.6,2.1-5.1,2.7-7.7c1.1-5.1,1.2-10.2,1.1-15.3c-0.1-5.3-0.1-10.5,0-15.8
		c0.1-7.5-0.1-15-3-22.2c-0.3-0.7-0.6-1.5-1-2.4c0.7,0,1.4-0.1,2.1-0.1c6.4-0.2,12.9-0.1,19.3,0c0.5,0,1.4-0.2,0.9,0.8
		c-3.9,9.8-3.7,20-3.5,30.2c0.1,4.8,0.1,9.5,0,14.3c-0.2,6.1,1,11.8,3.9,17.2C803.7,276.7,803.8,276.9,804,277.4z"/>
	<path class="st0" d="M681.6,47.8c7.8-0.2,15.4-0.2,23,0c0.1,0.1,0.1,0.3,0.1,0.3c-3.6,6.2-4.5,13.1-4.3,20c0.2,9,0,18,0.1,27
		c0.1,5.3,1,10.3,3.3,15.1c0.1,0.2,0.2,0.4,0.2,0.6c0,0.1,0,0.2-0.1,0.4c-7.6,0-15.2,0-22.8,0c-0.2-0.3-0.1-0.5,0-0.7
		c3.7-5,5.1-10.7,5.2-16.7c0.1-5.6-0.5-11.1-0.2-16.7c0.3-5,0.3-9.9-0.3-14.9c-0.5-4.6-1.8-8.9-3.7-13
		C682.1,48.7,681.9,48.3,681.6,47.8z"/>
	<path class="st0" d="M1121.7,131c-3.7,7.4-4.4,15-4.3,22.8c0.1,7.9,0,15.8,0,23.7c0,5.8,1.3,11.4,4.1,16.5c0.2,0.3,0.2,0.6,0.4,0.9
		c-8.2-0.2-16.2-0.3-24.5-0.5c2.6-3,4.4-6.1,5.2-9.7c0.5-2,0.8-3.9,0.8-5.9c0-9.6,0.1-19.2,0-28.8c-0.1-6.1-1.2-12-3.6-17.7
		c-0.5-1.1,0-1.2,0.8-1.2c3.2-0.1,6.5-0.2,9.7-0.2C1114,130.9,1117.7,131,1121.7,131z"/>
	<path class="st0" d="M432.8,111.1c-1.9,0-3.8-0.1-5.7,0c-0.9,0-1.1-0.2-1.1-1.1c0.1-3.7,0.4-7.3,0.7-11c0.1-1,0.5-1.2,1.5-1.2
		c3.3,0,6.6,0,9.9,0.2c0.7,0.1,1,0.2,1.1,1c0.1,3.6,0.3,7.2,0.5,10.8c0.1,0.9-0.4,0.9-1.1,0.9c-1.9,0-3.9,0-5.8,0
		C432.8,110.9,432.8,111,432.8,111.1z"/>
	<rect x="294.2" y="28.9" class="st0" width="962.2" height="8.2"/>
	<rect x="295.9" y="288.9" class="st0" width="962.2" height="8.2"/>
</g>
<g>
	<path class="st1" d="M1.4,29.1c1.5,0,3-0.1,4.5-0.1c51,0,101.9,0,152.9,0c2.8,0,4.9-0.7,6.9-2.8c8.8-9,17.9-17.8,26.6-26.9
		c2.1-2.1,3-1.8,4.9,0.1c8.8,9,17.8,17.8,26.7,26.9c1.9,2,3.9,2.7,6.6,2.7c12.6-0.1,25.2,0,37.8-0.1c2.7,0,3.3,0.8,3.3,3.4
		c-0.1,12.9,0,25.7-0.1,38.6c0,2.2,0.6,3.7,2.2,5.3c9.3,9.1,18.3,18.4,27.6,27.5c2,1.9,1.8,2.8-0.1,4.6c-9.1,8.9-18,18-27.1,26.9
		c-1.8,1.8-2.7,3.6-2.7,6.2c0.1,52.6,0.1,105.2,0.1,157.8c-90.1,0-180.2,0-270.3,0c0-11.9,0-23.7,0-35.6
		C1.4,185.4,1.4,107.3,1.4,29.1z M136.9,296.8c20.4,0,40.9,0,61.3,0c0.5,0,1,0,1.5,0c1.5,0,3,0,4.5,0c0.5,0,1,0,1.5,0
		c7.3,0,14.7,0,22,0c0.5,0,1,0,1.5,0c11.8,0.1,23.7,0,35.5,0.2c3.2,0.1,3.9-0.9,3.9-4c-0.1-42.5-0.1-85-0.1-127.5
		c0-1.1-0.1-2.3-0.2-3.4c0-0.5,0-1,0-1.5c0-5.8,0-11.6,0-17.4c0-0.9,0.6-2.7-1.2-0.9c-5.3,5.3-10.5,10.7-15.7,16
		c-5.4-0.7-10.9-1.3-16.3-2.3c-6.8-1.2-13.8-0.2-20.6-1.2c9.6-9.7,19.2-19.3,28.8-29c0.6-0.7,2.2-1.4,1.6-2.2
		c-1.5-2-3.2-3.9-5.3-5.4c-1.2-0.9-2.4,0.9-3.5,1.5c-7.9,5-12.1,4.9-19.6-0.7c-1-0.8-2-1.5-2.9-2.4c-8.8-8.7-17.6-17.4-26.4-26
		c-1.2-1.2-1.4-2-0.1-3.3C198,76.6,208.8,65.8,219.6,55c2.5-2.5,5.1-3,7.9-0.3c10.2,10.1,21,19.7,29.9,31
		c8.4,10.5,8.8,17.9,1.4,29.3c-2.2,3.4-2.4,5.6,1,7.9c0.2,0.1,0.4,0.3,0.5,0.5c1.4,2.1,2.5,1.6,4,0c6-6.2,12-12.3,18.2-18.2
		c2.1-2,1.8-3.1-0.1-5c-12.1-11.9-24.1-24-36.2-36.1c-16.9-16.9-33.9-33.9-50.8-50.8c-1.3-1.3-2.2-2.5-4.1-0.5
		c-1.7,1.8-2.3,2.8-0.3,4.8c2.5,2.5,4.8,5.2,6.9,8c4.7,6,4.5,8.1-0.9,13.5C182.6,53.8,168,68.4,153.3,83c-8,8-16,16.1-24.1,24.1
		c-5.3,5.3-7.3,5.4-13.2,0.8c-3-2.3-5.8-4.8-8.6-7.4c-1.4-1.3-2.2-1.4-3.7,0c-2,1.8-2.3,2.9-0.1,5c11.3,11.1,22.4,22.5,33.6,33.7
		c-1.8,4.1-2.8,8.5-6.1,11.9c-14.4-14.4-28.9-28.8-43.4-43.2c-1.2-1.2-1.9-1.9-0.3-3.6c15.2-15,30.4-30.2,45.6-45.3
		c2.4,3.3,3.5,7.1,4.6,11c1.1,4.1,4.4,1.6,6.6,2c2.3,0.5,1.7-1.6,1.7-2.8c0.1-7.9,0.2-15.8,0.2-23.7c4-4,7.9-7.9,11.9-11.9
		c1.4-1,1.3-1.4-0.4-1.4c-16,0.1-32,0.1-47.9,0.2c-0.6,0-1.1,0-1.7,0c-0.5-0.1-1-0.2-1.5-0.2c-33.3,0-66.5,0-99.8,0
		c-0.8,0-1.8-0.5-2.3,0.7c-0.1,1.2-0.3,2.5-0.3,3.7c0,85.3,0,170.6,0,255.9c0,1.3,0.1,2.5,0.2,3.8c1,1.6,2.5,0.7,3.7,0.8
		c28.3,0.1,56.7,0.1,85,0C107.7,296.9,122.3,296.8,136.9,296.8z M231.2,32.1c12.4,12.5,24.9,25,37.3,37.6c0-11.6,0-23.4,0-35.2
		c0-1.8-0.6-2.4-2.4-2.4C254.4,32.1,242.6,32.1,231.2,32.1z"/>
	<path class="st2" d="M1.4,29.1c0,78.2,0,156.4,0,234.6c0,11.9,0,23.7,0,35.6c-1.6-0.8-0.7-2.3-0.7-3.4c-0.1-54.4,0-108.8,0-163.1
		c0-34.6,0-69.1,0-103.7C0.9,29,1.1,29,1.4,29.1z"/>
	<path class="st0" d="M146.2,45.4c-0.1,7.9-0.1,15.8-0.2,23.7c0,1.2,0.6,3.3-1.7,2.8c-2.2-0.5-5.5,2.1-6.6-2c-1-3.9-2.1-7.7-4.6-11
		c-2.2-4.6-5.7-8-9.8-10.7c-7.1-4.7-15.1-6.5-23.5-7.1c-4.5-0.4-9.1-0.4-13.6,0c-22.8,1.7-39.4,12.3-47.4,34.2
		c-6.7,18.5-6.7,37.3-0.2,55.9c5.6,16.3,16.8,27.4,33.4,32.2c13.1,3.8,26.4,3.9,39.6,0.6c8-2,15-5.9,19.6-13.1
		c3.3-3.3,4.3-7.8,6.1-11.9c2.9,3,5.9,5.9,8.8,8.9c0,6-0.1,12-0.1,18c-9.6,4.1-19.8,5.5-30,6.7c-12.4,1.4-24.9,1.5-37.3,0.3
		c-1.1-0.1-2.7-0.5-2.3,1.4c0.9,4.6-1.9,4.4-5,4.4c-2.5,0-5.1,0.1-7.5,0.4c-3.4,0.5-7.1,0.1-9.5,3.3c-1.8,2-1.3,4.5-1.3,6.8
		c0,28.1,0,56.2,0,84.2c0,1.7-0.3,3.5,0.5,5.2c0.6,5.6,4.7,7.5,9.4,8.3c13.6,2.3,27.3,2.2,41,0.1c12-1.8,19.7-8.8,22.9-20.2
		c1.3-4.5,2.9-7.2,8-6.2c0.1,0,0.3-0.3,0.6-0.6c-1-2.1-2.1-4.2-3.1-6.3c-10-22.4-9.9-58.6,19.7-81.8c3.8-2.3,7.6-4.6,11.4-6.9
		c2.2-1,4.4-1.9,6.6-2.9c8.4-2.5,16.9-4.6,25.6-5.9c6-0.9,12-0.4,18-1.5c0.3,0,0.7,0,1,0c6.8,1,13.7,0,20.6,1.2
		c5.4,0.9,10.9,1.5,16.3,2.3c4.5,1.2,9,2.3,13.5,3.5c1.4,0.4,2.4,1,2.4,2.8c-0.2,9.8-0.2,19.6-0.3,29.4c-1,0-2-0.1-3,0
		c-3.5,0.6-5-0.7-6-4.4c-2.5-9.4-7.8-16.9-16.8-21.4c-2.4-1.8-5.1-2.6-7.9-3.4c-11.7-3.1-23.6-3.3-35.4-0.7
		c-5.9,1.3-11.7,2.8-16.4,6.7c-2.9,0.9-5,2.9-7.2,4.9c-3.6,2.7-6.5,6.1-8.7,10c-0.8,1.3-1.7,2.5-2.3,3.9
		c-10.5,21.7-10.9,43.9-2.4,66.2c5.8,15.2,16.9,25.1,32.6,29.6c12.8,3.6,25.9,3.7,38.9,0.6c10.1-2.4,18-8.1,23-17.5
		c1.9-3.7,2.8-7.8,4.2-11.7c1.3,0,2.6,0.2,3.8,0c3.5-0.6,4.1,1,4,4.1c-0.2,7.9-0.2,15.9,0,23.8c0.1,2.7-0.9,3.8-3.3,4.5
		c-8.9,2.7-18.1,4.2-27.3,5.3c-10.3,1.2-20.6,1.1-31,0.8c-5.9-0.3-11.7-1.1-17.5-2.2c-16.1-3.1-31-8.5-42.8-20.5
		c-2.9-2.9-5.4-6.1-8.5-9.5c0,9.8-0.2,19.1,0.1,28.4c0.1,3.3-0.7,4.1-4.1,4.1c-41.3-0.1-82.6-0.1-124-0.1c-1.3,0-2.5-0.1-3.8-0.2
		c0-1.9,0.1-3.8,0.1-5.7c5.1-0.4,10.3-0.4,15.4-1.4c4.9-1,6.3-2.6,6.3-7.4c0-31.2,0.1-62.4,0-93.7c0-4.9-1.7-6.8-6.6-7.4
		c-5-0.6-10-0.8-15-1.2c0-2.1,0-4.1,0-6.2c20.7,0,41.4,0,62.1,0c-4.6-1.8-9.2-2.9-13.7-4.3c-19.2-6-33.8-17.4-42.5-35.9
		c-3.2-6.9-4.5-14.3-5.9-21.7c0-4.6,0-9.3,0-13.9c0.2-0.7,0.5-1.4,0.6-2.2c3-23.4,15.3-40.3,36.2-50.7c14.5-7.2,30.3-9.6,46.4-10.3
		c4.6,0,9.1,0,13.7,0c13.4,0.5,26.5,2.3,39.5,5.9C145,40.2,146.8,41.7,146.2,45.4z"/>
	<path class="st3" d="M4.3,296.1c0.3,0,0.5,0,0.8,0c41.6,0,83.3,0,124.9,0.1c2.3,0,4.5,0,6.8,0.1c0,0.2,0,0.3,0,0.5
		c-14.6,0-29.2,0.1-43.8,0.1c-28.3,0-56.7,0-85,0C6.8,296.9,5.3,297.7,4.3,296.1z"/>
	<path class="st4" d="M136.9,296.8c0-0.2,0-0.3,0-0.5c19.7,0,39.5-0.1,59.2-0.1c0.8,0,1.5,0,2.1,0.6
		C177.8,296.7,157.3,296.8,136.9,296.8z"/>
	<path class="st4" d="M205.8,296.1c6.1,0,12.2,0,18.4,0.1c1.2,0,2.5-0.4,3.6,0.5c-7.3,0-14.7,0-22,0
		C205.7,296.5,205.7,296.3,205.8,296.1z"/>
	<path class="st4" d="M268.4,160.7c-1-5.8-1-11.6,0-17.4C268.4,149,268.4,154.9,268.4,160.7z"/>
	<path class="st4" d="M199.7,296.7c1.5-0.9,3-0.9,4.5,0C202.7,296.7,201.2,296.7,199.7,296.7z"/>
	<path class="st5" d="M170,162.3c-7.2-7.1-14.3-14.2-21.4-21.3c-1.7-1.7-3.1-3.6-4.6-5.4c-1.3-1.5-1.2-3,0-4.4
		c1.2-1.5,2.5-2.9,3.8-4.2c9.9-9.9,19.8-19.8,29.7-29.7c0.9-0.9,1.6-2.4,3.2-0.6c9.4,10,19.9,18.9,28.7,29.6
		c5.5,6.7,5.9,11.7,1.1,18.9c-2.1,3.1-2.2,5.1,0.9,7.3c0.9,0.6,1.5,1.6,2.3,2.5c-5.9,1.1-12,0.6-18,1.5
		C186.9,157.7,178.4,159.8,170,162.3z"/>
	<path class="st5" d="M241.3,168.2c-14.8,14.9-29.7,29.7-44.5,44.7c-1.8,1.8-2.6,1.3-4.1-0.2c-9-9-18-17.9-27-26.9
		c2.2-3.9,5-7.3,8.7-10c5.7,5.7,11.4,11.4,16.9,17.2c1.4,1.4,2.2,1.4,3.6,0c6.3-6.5,12.8-12.8,19.2-19.2c0.5-0.5,1.6-1.1,1.1-1.7
		c-1.6-1.9-3.2-3.9-5.2-5.4c-1.4-1.1-2.4,0.7-3.4,1.4c-7.9,5-16,8.2-25,2.9c4.8-4,10.6-5.4,16.4-6.7c11.9-2.6,23.7-2.4,35.4,0.7
		C236.1,165.5,238.9,166.4,241.3,168.2z"/>
	<path class="st1" d="M152,172c-2-2-4-4-6-6c0-6,0.1-12,0.1-18c5.8,5.7,11.5,11.4,17.3,17.1C159.6,167.4,155.8,169.7,152,172z"/>
	<path class="st6" d="M54.3,182.5c0,30.6,0,61.3-0.1,91.9c0,1.5,0.5,3.1-0.7,4.3c-0.8-1.7-0.5-3.5-0.5-5.2c0-28.1,0-56.2,0-84.2
		C53,187,52.5,184.5,54.3,182.5z"/>
</g>
</svg>
