<?xml version="1.0" encoding="utf-8"?>
<!-- Generator: Adobe Illustrator 22.0.1, SVG Export Plug-In . SVG Version: 6.00 Build 0)  -->
<svg version="1.1" xmlns="http://www.w3.org/2000/svg" xmlns:xlink="http://www.w3.org/1999/xlink" x="0px" y="0px"
	 viewBox="0 0 377 487" style="enable-background:new 0 0 377 487;" xml:space="preserve">
<style type="text/css">
	.st0{fill:#F8C22E;}
</style>
<g id="Layer_1">
	<circle class="st0" cx="174.4" cy="41.7" r="3.7"/>
	<path class="st0" d="M157.2,41.2c2.6-1.8,6.4,1.4,5.4,4.3c-1,2.8-4.6,3.7-6.5,1.3C154.4,45,155.1,42.4,157.2,41.2z"/>
</g>
<g id="Layer_2">
	<path class="st0" d="M229.6,262c-0.2-1.8-0.1-3.6-2.1-4.3c-5.5-2.4-11.2-4.2-16.7-6.5c-1.7,1-3.5,1.4-3.4,3.8
		c-0.1,4.7-0.5,9.6,0.3,14.2c2.4,2.1,5.9,3.1,8.8,4.3c3.1,1.1,6.2,2.8,9.5,3.4c1.9,0.2,3.4-1.1,3.6-3
		C229.9,269.9,229.6,265.9,229.6,262z M209.9,253.7c2.5,0.7,4.9,1.5,7.4,2.4c-2.9,1.1-5.1,2.4-7.5,4.3
		C209.8,258.2,209.8,256,209.9,253.7z M213.1,267.9c-2.8-2.9-1.3-7.2,2.2-8.6c3.8-1.7,9.6,1.2,9.2,5.7
		C223.2,269.9,216.6,271.7,213.1,267.9z M227,274.9c-2.4-0.8-4.7-1.6-7.1-2.4c2.1-1.2,5-2.2,6-4.6c1.5-3,0.1-5.8-0.5-8.9
		c1,1,2.1,1.5,2.1,3.1C227.7,266.3,227.2,270.7,227,274.9z"/>
	<path class="st0" d="M222.4,338.9c0.4-2.1-2.6-1.9-3.9-2.3c-9.3-1.2-18.1-3.2-26.4-7.8c-3.4-2-5.9-4.9-9.2-7c-0.8,2-0.7,4-0.7,6.1
		c0,6.6-0.1,13.3-0.1,19.9c6.6,7.9,15.6,11.2,25.4,13.7c4.8,1.2,9.7,2,14.7,2.4C222.8,355.7,222.4,347.3,222.4,338.9z M220.2,361.6
		c-7.7-0.9-15.1-2.4-22.3-5.4c-4.8-2-10.2-4.9-13.3-9.2c-0.2-7-0.1-14.2-0.3-21.2c8.6,8.1,20.4,10.9,31.7,12.8
		c1.3,0.3,3.3,0.3,4.3,1.3C220.6,347,220.2,354.3,220.2,361.6z"/>
	<path class="st0" d="M353.4,427.5c-1.5-4.9-6.4-6.6-11-5c-7.8,2.4-13.1,9.5-13.7,17.6c0.1,3.5,1.7,6.9,5,8.4
		c3.2,1.7,7.2,0.2,10.3-1.3C350.5,443.1,355.4,435.2,353.4,427.5z M351.1,434c-1.4,5.1-5.3,9.8-10.2,11.9c-3.8,1.3-8.1,0.9-9.4-3.5
		c-1.3-7,3.6-14.3,9.9-17.1c2.5-1,6.6-1.7,8.5,0.7C352,428.2,351.5,431.4,351.1,434z"/>
	<path class="st0" d="M346.6,431.4c-0.9-2.2-3.3-2.6-5.4-2c-3.7,1.2-6.2,4.8-5.9,8.7c0,2.6,3.1,4.2,5.5,3.5
		C345,440.4,348.1,435.6,346.6,431.4z M338.1,438.9c-1.1-2.6,0.3-5,2.3-6.5c1.4-0.9,3.6-2,4,0.5
		C345.5,435.6,340.7,440.6,338.1,438.9z"/>
	<path class="st0" d="M321.7,438.3c-2.2-1.4-4.7-1.4-7.2-0.7c-8.2,2.2-14.4,11-13.7,19.4c0.1,4.5,4.8,8.5,9.2,7.4
		c8.8-1.3,15.6-9.7,15.8-18.4C325.7,443.1,324.4,439.7,321.7,438.3z M322.8,449.9c-1.8,5.5-6.2,10.4-11.8,12
		c-3.4,0.8-6.7-0.7-7.7-4.1c-1.1-7.2,3.6-14.4,10.2-17.2c2.6-1,5.3-1.8,7.5,0.3C323.9,443.3,323.5,446.7,322.8,449.9z"/>
	<path class="st0" d="M317.6,445.4c-1.8-1.4-4.3-1.1-6.2,0c-3.3,1.8-6.4,8.1-2.7,10.8C314.6,459.7,321.7,450.4,317.6,445.4z
		 M314.7,452.7c-1.6,1.5-4.2,3.5-5.4,0.4c0.3-4,2.9-6.1,6.8-6.3C316.3,449.1,316.5,451,314.7,452.7z"/>
	<path class="st0" d="M296.7,455.3c-1.7-4-6.6-5.4-10.5-4.1c-5.8,1.3-10.5,7-12.7,12.2c-1.9,5-1.5,11.7,4.2,14
		c6.3,2.1,12.2-2.1,16-6.8C296.7,466.6,299,460.2,296.7,455.3z M294.8,462.8c-1.8,6.2-7.1,12.1-13.8,12.7c-3.8,0.4-6.3-3.1-6.3-6.5
		c0.6-6.8,5.1-13.2,11.8-15.4c2.1-0.5,4.4-0.9,6.2,0.6C295.6,456.3,295.5,459.7,294.8,462.8z"/>
	<path class="st0" d="M290.2,460c-1.1-2.5-4.5-2.3-6.7-1.5c-3.2,1.9-6.3,7.2-3.7,10.6c1.2,2,3.3,1.5,5.2,1.1
		C288.9,468.7,291.7,464.1,290.2,460z M282,468c-1.6-3,0.5-6.4,3.5-7.5c0.8-0.3,1.7-0.1,2.6,0.6C289,464.3,285.3,468.8,282,468z"/>
</g>
<g id="Layer_3">
	<path class="st0" d="M355.2,397.6c0.2-13.5-0.3-27.1,0-40.6c-0.2-2.3,0.4-6-1.8-7.4c-4.4-3.1-9.6-5-14.2-7.6
		c0.2-10.7-0.1-21.3,0-32c0-2.5,0.1-5.2-0.7-7.6c-1.1-1.5-3.1-2.4-4.7-3.3c-6.7-3.4-12.7-7.1-19.7-9.6c-0.9-7.5-1-15-1.9-22.5
		c-0.6-5.2-2.2-9.9-3.6-14.8c-2.7-9.7-7.6-19-14.2-26.6c-2.8-3.2-6.2-5.7-9.3-8.6c-3.6-3.7-6.6-9.1-10.8-12.2
		c-7.3-4.5-15.3-6.4-23.9-5.9c-5-7.5-11.1-13.4-17.5-19.7c-9.5-9.5-19.5-18.5-29.4-27.7c-2.3-2-2.4-4.4-3-7.2
		c-3.4-18-7.6-35.8-12.1-53.6c-1.3-4.9-4-9.1-7.2-12.8c-2.4-2.7-5.5-3.9-8.6-5.4c4.8-14,8-29.5,6.3-44.3c0.7-1.3,1.6-2.6,2.1-4
		c-0.5-5.5-2.7-11.3-6.9-15c-5.9-5.4-13.4-8-21.3-8.9L151.8,0h-4.4c-7.1,0.9-13.7,2.5-19.5,6.9c-7.7,5.8-11.3,15.7-11.4,25.1
		c0.2,8.8,3.5,16.2,7.6,23.8c1.7,2.8,1.7,5.8,1.9,9c-7.1-0.4-14,0.6-21.1,0.7c-5.7,0.1-11.4,1.2-17,2.2c-4.7,0.7-8.4,3.6-13,4.2
		C65.3,73.7,56.9,82,55.8,92c-0.7,4.6,0.6,8.7,1.7,13.1c-12.8,22-24.5,44.8-35.8,67.7c-3.7,8-7.9,15.2-8.8,24.2
		c-1,6.1,1,11.8,3.8,17.2c4.8,8.7,11.8,16.3,18.5,23.5c12.2,14.1,28.7,25.5,43.9,36.1c1.7,1.2,2.2,3.2,3,5.1
		c1.6,4.4,3.2,8.8,4.9,13.1c-0.8,1.7-1.5,3.3-2.3,4.9c-12.7-4.3-25.3-8.6-38-12.7c-4.5-1.4-9.1-3.3-13.8-4.1c-2.2-0.3-4,0.6-6,1.3
		c-4.8-1.3-9.5-2.9-14.2-4c-2-0.5-3.9-0.3-5.6,0.7c-4.4,2.7-6.8,7.8-7,12.9c-0.3,11.5,0.7,23.1,2.5,34.5c0.6,4.5,3.2,7.6,7.2,9.6
		c6.9,3.6,17.4,5.8,25.1,5.3c4.8,0,9-4.1,10.2-8.5c0.8-4.1-5-6.6-7.7-8.5c-2.3-1.2-2.5-3.2-3.4-5.5c7,3,13.5,7.1,20.3,10.6
		c6.4,3.3,12.8,6.6,19.1,10.2c-1.2,7.6-2.2,15.5-2.1,23.3c0,4.7,0.2,9.3,0,14c0.1,4.1-3.3,7.8-4.7,11.8c-1.9,5.1-3.8,10.7-3.9,16.2
		c0.3,4.5,4.2,8.9,6.9,12.4c6.9,8.2,14.9,16,23.3,22.6c4.7,3.7,10,6.3,16,6.4c5.3,0.1,11.4,0,15.1-4.4c2-2,0-5.1-0.8-7.2
		c-7.8-15.2-16.9-29.7-25.2-44.6c4.5-4.8,9-9.3,11.7-15.5c2.7-6.4,4.8-13,7.5-19.4c5.7-1.8,12.2-4.6,14.2-10.8
		c2.2-8.1,2-17.4,2.6-25.6c1.3-4.8,4.7-9.3,7.3-13.6c4.5-6.4,6.2-14.3,7.3-21.9c0.6-4.8,1.1-9.7,0.7-14.5c-0.2-2.5-1.8-4.3-3.2-6.2
		c-4-5-7.9-10.1-11.9-15.2c-1.3-1.8-2.7-3.2-2.7-5.6c-0.6-11.8-1.5-23.6-2.2-35.4c9.6,7.1,19.2,14.2,29.4,20.6
		c2.4,1.5,5.1,2.2,7.6,3.4c2.1,1.5,3.7,3.6,5.7,5.2c2.6,2.1,5.5,3.8,8.1,6c-3.5,6.6-4.8,13.8-4.9,21.2c-0.1,25,0,50-0.1,75
		c-8.1,3.9-16.1,8.2-24.1,12.3c-9.8,4.8-19.8,9.6-26.3,18.7c-10.2,13.2-10,32.5,0.4,45.6c11.8,15.7,33.2,20.9,51.8,16.2
		c4.2,8.1,11.2,13.8,19.2,17.9c10.6,5.8,21.8,8.1,33.7,9.5c2.7,9.2,9.6,17.2,17.6,22.3c6.4,4.3,13.4,5.9,20.8,7.5h14
		c4.7-1.4,9.4-2.7,13.8-4.9c15.6-7.7,31-15.6,46.4-23.6c8.1-4.1,14.8-11,18.8-19.2C368,425.7,365.5,408.8,355.2,397.6z M174.3,339.2
		c1.8-0.4,2.4,1.5,0.7,2.2C173.1,341.8,172.6,339.9,174.3,339.2z M168,343.3c2.5,0.4,5.1,1.1,7.6,1.8c-0.2,9.5,0.1,19-0.2,28.5
		c-6.2,0.1-11.5-1.6-15.6-6.3c-2.9-2.8-1-6.5-1.7-10.2c-1.4-2.8-4.7-3.6-7.4-4.8C156.5,349.2,162.2,346.1,168,343.3z M144.4,355.5
		c3.4-1.1,7.4,1.1,10.5,2.5c-0.3,2.8-1.2,6.2,0.3,8.7c1.7,3.1,4.6,5.6,7.6,7.4c3.7,2.2,8.5,2.5,12.6,3.1c-0.1,4.2,0,8.4,0.1,12.6
		c-4.9,2.3-9.4,4.7-13.3,8.6c-2-2.7-3.7-5.6-7.1-6.7c-4.3-1-9.3,0-13.8-2.2c-2.9-1.5-5.9-3.7-7.4-6.6c-0.9-2.6,0.5-5.9-0.4-8.5
		c-1.6-2.2-4.9-3.4-7.3-4.5C131.1,363.7,137.2,358.7,144.4,355.5z M175.5,418c0,1.6,0,3.4-0.5,4.9c-5.4,2.4-12.4,0.6-14.9-5
		c-1.7-4.7-0.4-10.5,2-14.8c2.5-4.4,6.4-6.9,10.8-9.2c0.8-0.4,1.7-0.9,2.5-1.3C175.2,401,175.5,409.5,175.5,418z M124.6,406.4
		c-2.8-2.4-3.6-5.9-4.2-9.4c-1.6-8-0.1-16.8,4.1-23.8c2.1,0.4,4.2,1.6,6.1,2.5c-0.2,3.2-1.3,7.1,0.9,9.8c2.3,3.2,5.9,6,9.6,7.5
		c4.4,1.8,9.5,1.1,13.7,2.3c2.4,1.1,4,4.2,5.5,6.3c-1.1,2.3-2.1,4.6-3,6.9c-2.9-1.1-6.1-2.7-9.2-2.7c-3.4,0.4-6.5,2.5-9.9,3.2
		C133.5,410.2,128.1,409.8,124.6,406.4z M146,426.1c-7.5-2.8-13.7-7.6-18.8-13.7c3.6,0.5,7.2,1.3,10.9,0.6c3.6-0.7,6.5-2.6,10-3.5
		c3.1,0,6.3,2,8.9,3.4c0.5,3.4,0.7,6.4,3.2,9c2.7,3.1,6.1,3.7,9.8,4.8C162,430.5,153.8,428.8,146,426.1z M174.6,427.9
		c-0.5-0.8-0.2-1.4,0.9-1.8C177.4,426.3,176,428.8,174.6,427.9z M353.9,395.6c-4.4-3.6-8.7-7.1-14-9.4c-6.8-3.4-14-4.4-21.5-4.6
		c0-3.1,0-6.2,0-9.4c11.6-5.6,23-11.6,34.5-17.3c0.2,11.3,0.3,22.7,0.4,34c-0.5,0.6-1.1,1.2-1.6,1.8
		C352.8,392.3,353.4,393.7,353.9,395.6z M314.6,292.2c1,0.4,2.1,0.8,3.1,1.2c5.5,2.7,11,5.7,16.5,8.5c-6.7,2.8-13.1,6.2-19.6,9.3
		C314.6,304.9,314.6,298.6,314.6,292.2z M314.5,313.8c5-2.5,10.1-4.8,15-7.3c2.3-1.2,4.7-2.1,7.2-2.8c0.4,12.8,0.1,25.5,0.2,38.3
		c0,2.9,0.2,5.8-0.4,8.6c-4.1,3.3-9.3,5.4-13.9,8.1c-0.1-6.9,0-13.8,0-20.7c-0.1-1.7,0.1-4.2-1.1-5.5c-2.2-1.8-4.8,0-7.1,0.6
		C314.6,326.7,314.5,320.3,314.5,313.8z M314.5,335.8c1.8-0.8,3.7-1.5,5.6-2.2c0.5,8.6,0.2,17.3,0.2,26c-2-1-3.9-2.1-5.9-3.2
		C314.7,349.5,314.4,342.6,314.5,335.8z M314.5,359.1c2.3,1,5,2.8,7.6,2.2c3.6-0.8,7-3.2,10.3-5c2.1-1.3,5-2.5,6.4-4.6
		c0.7-2.1,0.5-4.7,0.6-6.9c4.7,2.3,9.2,4.8,13.7,7.4c-10.8,5.5-21.7,10.8-32.5,16.3c-2.2,1.2-3.7,1.4-6.1,1.2
		C314.5,366.2,314.6,362.6,314.5,359.1z M314.4,372.2l1.6-0.2c0.1,3.5,0.1,7.1-0.2,10.6C313.3,380.4,314.8,375.3,314.4,372.2z
		 M349.2,394.8c3.2,3.1,5.2,7.9,6.2,12.2c0.8,4.6-1.1,7.9-3.8,11.4c-4.3-2.3-4.7-7.3-8.8-10.2c-4.1-3-10.2-1-15-3
		c-3.5-1.4-7-4-8.7-7.3c-0.8-2.4,0.3-5.3-0.1-7.8c-2.1-3.6-5.4-3.9-9-5.2C323.4,382.4,338.7,385.7,349.2,394.8z M245.4,430.9
		c-1.1-3-5.6-4.3-8.3-5.6c5.2-5.9,10.5-11.1,18-14c3.5-0.4,7.4,0.8,10.3,2.7c0.3,2.6-0.4,5.7,0.4,8.2c1.8,4.1,6,7.2,10,9
		c4.6,2,9,1.3,13.7,2.4c2.9,1,4.8,4.9,6.4,7.4c-5.2,2.5-10.4,5-15.5,7.6c-2.6,1.3-4.7,3.3-6.8,5.3c-1.8-2.1-3.7-4.9-6.2-6.1
		c-4.2-1.3-9.1-0.5-13.3-2c-3.1-1.2-6-3.3-8-6C244.2,437.5,245.6,433.8,245.4,430.9z M292.8,431.2c-2.9-2-7.4-1.5-10.8-2
		c-4.8-0.3-9.4-3.2-12.2-7c-2.1-2.5,0.2-6.4-0.8-9.1c-1.7-3.2-5.1-3.8-8.2-5c6.2-2.8,12.1-6.4,18.4-9.2c4.6,0.9,8.9,1.2,12.9,3.9
		c-0.4,2.8-1.4,5.5,0,8.2c2.1,4,6.1,7.1,10.2,8.8c4.4,1.9,9.3,1.2,13.7,2.4c2.4,1.2,4.1,4,5.7,6.1c-7.4,4-15.1,7.3-22.5,11.2
		C297.3,436.6,295.5,433.1,292.8,431.2z M317.9,419.1c-2.6-1.2-6.1-1-8.9-1.3c-5-0.2-9.8-2.9-12.9-6.9c-2.4-2.6-0.1-7-1.2-9.7
		c-2.5-3.8-7-4.1-11-4.9c6.2-3.1,12.4-6.8,18.9-9.2c4,1.4,9.4,1.2,12.6,4c0.2,2.5-0.4,5.1,0.2,7.5c1.6,4.1,5.7,7.4,9.6,9.3
		c4.8,2.3,9.6,1.5,14.4,2.7c2.6,1.1,4.3,4.4,5.9,6.5c-7.2,2.9-14,6.4-21,9.9C322.8,424.2,320.8,420.7,317.9,419.1z M309.3,263.7
		c0.8,3.5,0.1,7.7,0.2,11.3c0.1,5.4-3.1,10.1-6.6,13.8c-6.6,6.7-16.1,11-25,13.8c-18.9,5.8-39.8,5.8-59,1.8
		c-12.6-2.9-27-8.6-34.9-19.4c-4.4-5.8-4-12.2-3.8-19c0-2.4,2-4.6,3.4-6.4c4.3-4.5,8.6-8.6,15-9.9c0,2.4,0.2,4.8-0.1,7.2
		c-2.1,3.5-5.1,6-6.2,10.3c-2,6.6,1.4,13,6.1,17.5c7.5,7.1,18.5,10.9,28.5,12.9c8.7,1.8,17.3,1.6,26.1,1.4c6-0.2,12.1-1.4,17.8-3.2
		c7.9-2.5,16-6.1,21.8-12.1c3.6-3.7,5.9-8.4,5.6-13.6c-0.2-4.8-2.8-8.8-6.2-12c-6.3-6.1-14.7-9.6-23-12c-12.5-3.7-26.2-3.3-39.1-2.1
		c-3.6,0.1-7.3-1.2-10.6-2.5c5.5-1.3,11-1.8,16.6-2.3c19.2-1.2,38.8,1,56.2,9.8C298.7,252.2,305.6,257.2,309.3,263.7z M199,273.9
		c1,1.8,3.8,2.6,5.5,3.5c11.4,5,22.8,9.8,34.2,14.8c2,0.7,4.3,2.1,6.4,0.9c4.4-2.1,8.4-4.9,12.6-7.4c9.2-5.4,18.3-11,27.6-16.4
		c2.2-1.3,4.4-2.8,6.5-4.3c-6.9-3.4-14.3-5.6-21.6-8.4c-6.8-2.5-13.5-5-20.3-7.5c-3.7-1.4-7.5-1.8-11.2-3.3
		c15.6-1.1,32.5,1,46.1,9.4c5.2,3.4,11.1,9.1,11,15.8c0.3,5.5-3.8,10.6-7.9,13.8c-7.8,6.1-18.2,9.3-27.8,10.9
		c-7.5,1.3-14.5,0.8-22,0.7c-11.8-0.5-24.2-3.6-34.1-10.2c-4.6-3.2-9.3-8.3-9.7-14.1c-0.4-4.5,1.7-8.1,4.5-11.4
		C198.8,265,198.2,269.6,199,273.9z M214.5,249.2c1.1,1.4,2.2,2.7,3.3,4.1c1-0.8,2-1.6,3.1-2.4c6.1,2.3,12.5,4,18.7,6
		c-0.4,11-0.2,22.1,0,33.1c-12.9-5.6-25.8-11.1-38.6-17c0-8-0.3-16.1,0-24.2c1.7-0.9,3.3-1.8,5.2-2.3
		C209,246.9,211.9,248.2,214.5,249.2z M208,244.9c0.1-1.8,0.2-3.7,0.3-5.5c1.9,2.2,3.5,4.5,5,7.1C211.5,246,209.8,245.4,208,244.9z
		 M241.8,275c0.2-5.9-0.3-11.9,0.4-17.8c2.6,0.1,5.1,0.6,7.7,1.2c12.3,2.6,24.6,4.7,36.8,7.5c-14.7,8.8-29.4,17.6-44.2,26.2
		C241.2,286.6,241.8,280.6,241.8,275z M246.5,255.5c-3.5-0.4-6.9-0.4-10.3-1.6c-5.2-1.9-10.6-3.4-15.9-5.1c0-1.5,0-3,0.1-4.4
		c5.3,0.8,10.5,2.6,15.7,3.7c13.4,2.4,25.6,8.7,38.7,12.8C265.3,259.7,256,256.8,246.5,255.5z M285.8,220c4.5,4.4,9.2,8.3,12.5,13.7
		c5.1,7.6,7.5,15.9,10.3,24.5c-3.1-2.9-6.1-5.8-9.6-8.1c-8-5.3-17.6-8.7-26.9-11c-17.6-4.1-35.2-3.4-52.9-0.5
		c-3.5-5.1-7.4-9.8-11.3-14.5c-1.9-2.3-4.4-3.9-6.9-5.5c5.7-3.5,12.2-8,18.8-9.4c3.4,1.9,6.6,5.3,10.3,6.6c1.8,0.5,3.8,0.4,5.6,0.5
		c2.9,3.4,5.4,7.2,8.6,10.3c3.3,2.8,7.3,4.9,11.2,6.8c4,2.1,9.1,2,13.1-0.1c1.7-0.9,1.9-3.3-0.1-3.8c-4.2-1.7-8.2-3.2-11.4-6.7
		c4,0.4,7.7,0.5,11.1,2.9c3.4,2.1,7.7,5.7,11.8,5.6c2.4-1.5-0.1-4.2-1-5.9c1.6,0.2,3.1,0.5,4.8,0.3c0.9-1.8,0.1-3.2-0.3-5
		C284.2,220.5,285,220.3,285.8,220z M199,217.8c-4.3-2.3-8.8-3.8-13.4-5.2c-1.1-5.1-4.7-7.5-8.1-11c-9.9-9.3-20.3-18-30.7-26.7
		c3.5-4.9,6.9-9.8,10.1-14.8c2.7-4.2,4.9-8.5,7.9-12.6c2.8,6.8,3.4,15.8,8.9,20.9c13.6,14.1,28.6,27,44,39.1
		C211.2,210.5,204.8,213.3,199,217.8z M272.7,206.3c4.1,3.2,7.2,7.8,10.3,11.9c-2.4-1.3-4-3-6.9-2.8c2.2,2.9,4.6,5.6,6.3,8.8
		c-4.2-1.5-7.4-4.6-11.4-6.2c-0.4,1.9,1.2,3.2,2.3,4.5c2.1,2.1,4,4.3,5.5,6.9c-5.8-2.1-10-7.1-15.9-7.8c-3-0.6-6.1-0.4-9.1,0.1
		c2.7,5.9,7.9,7.5,13.4,10c-2.4,0.8-4.7,1.8-7.3,1.2c-3.8-0.9-7.3-3.2-10.7-5.2c-5.4-3-8.8-9.1-12.9-13.8c0.3-3.3,0.2-6.7,1.9-9.7
		c1-1.8,2.5-3.2,4.6-3.4C253.4,200.4,263.5,200.8,272.7,206.3z M185.5,88.8v-0.2l0,0.1l0.1,0.2c2.4,6.5,3.4,13.5,5,20.3
		c2.7,12,5.6,23.9,7.8,36c0.7,2.9,0.5,5.5,3,7.5c11.3,10.4,22.6,20.7,33.4,31.6c4.4,4.5,8.9,9,12.6,14.1c-3,0.3-6.6-0.3-8.9,2
		c-3.8,3.8-4.5,8.6-4.5,13.8c-5.7-0.6-9-4.6-13.5-7.8c-15.8-12.4-31.1-25.5-45.1-39.9c-1.7-1.7-3.3-3.5-4-5.9
		c-1.7-5.3-3.3-10.6-5.2-15.9c1.8-3.1,3.7-6.2,5.6-9.2c5.2-7.9,9.2-16.8,12.1-25.8C186,102.9,185.8,96,185.5,88.8z M124.2,40.2
		c-1.1,3.4,0.2,7.7,0.5,11.2c-4-6.9-6.5-15.5-5.4-23.5c0.8-7,3.9-13.9,9.3-18.4c6-5,13.7-7.2,21.5-6.8c8.3,0,16.8,2.7,22.8,8.5
		c3.7,3.6,5,8,6.1,12.9c-2.9,3.3-6.3,8.3-10.9,9.1c-7.4,1.3-15.5-0.6-23,0.1c-3.3,0.4-4.8,3.2-5.2,6.2c-0.6,5.1-0.3,10.2-0.9,15.3
		c-3.6-4.4-4.4-10.5-8.2-14.5C128.7,38.6,125.7,37.1,124.2,40.2z M126.2,40.3c6.5,2.7,6.3,11.2,10.6,15.9c1.6,1.3,3.6,1,4.3-1.1
		c1.4-5.5,0.1-11.8,1.7-17.3c0.8-2.3,3.1-2.4,5.2-2.4c7,0.1,13.7,1.7,20.9,0.2c3.1-0.7,5.7-3.3,8.1-5.3c0.1,3,0.3,6,0.5,9l-0.4,5.1
		c-1.3,8.1-2.8,16.4-5.5,24.2c-1.1,2.8-2.4,6.2-4.6,8.3c-2,2.1-5.4,1.1-8,0.8c-2.9-0.4-5.5-2.5-8.4-2.7c-0.5,3.5,0.3,8.6-1.9,11.5
		c-3.6,4.1-9.1,3.5-13.6,1.4c-3.6-1.8-8.3-4.3-10.2-8c2.8-7.3,3.2-15,3.5-22.7C127.4,51.6,125.8,46.2,126.2,40.3z M158.8,87.7
		c-2.3,3.2-5.9,5.2-9.8,5.8c-4.3,0.6-8.7,0.8-13,0.8c-7.2,0.1-15-3.1-19.3-9c-1.6-2.2-2.9-5.2-2.3-8c1.8-4,7.2-5.8,10.9-7.4
		c-0.5,3.5-2.1,6.6-2.6,10.1c0.8,4,6,7,9.4,8.9c5,2.7,11.5,4.4,16.5,0.7c3.8-3.1,3.6-7.3,3.9-11.9c2.3,1.1,6.1,1.3,6.6,4.2
		C159.7,83.7,160,86.2,158.8,87.7z M107,67.7c6.4-0.1,12.6-1.3,19-0.5c-4.4,2.4-9.4,3.3-12.5,7.4c-2.3,2.6-1.4,6.3-0.2,9.2
		c2.5,5.2,7.5,9,13,11c6.6,2.6,14.8,1.7,21.8,1.1c5.3-0.4,10.3-3.2,13.2-7.7c1.2-2.2,0-5.6-0.5-7.9c2.1,0.1,4,0.5,6-0.5
		c1.9-0.9,3.2-3.1,4.5-4.7c6.3,2.2,11.5,7.8,12.2,14.5c0.7,6.7,0,13.6-1.9,20c-5.1,16.6-14.3,29.3-23,44.1c-1.8,3.2-4.5,5.5-6.6,8.4
		c-2.7,3.6-5,7.3-7.2,11.1c-6.5-5.1-12.6-10.6-19.1-15.7c-1.9-1.6-3.8-2.9-4.6-5.4c-2.4-7-4.4-14.2-6.9-21.1
		c-5.9-16.3-11.6-33.8-19.9-49.1c-2.7-4.9-5.6-9-11.3-10.6C90.6,68.9,98.8,67.7,107,67.7z M58.4,107.8c7.3,20.6,18.8,40.6,28.7,60.1
		c1.5,3,3.6,5.6,6.1,7.9c9.8,9.2,20.8,17.7,31.3,26.1c-2.3,3.2-4.4,6.5-6.5,9.9c-3.3-3.8-6.8-6.9-11.1-9.7c-9.1-6.6-19-11.9-29-17.1
		c-15.6-8.8-34.8-12.6-52.2-15.8C36.2,148.5,46.7,127.7,58.4,107.8z M126.9,202.6c0.9,12.4,1.6,24.9,2.5,37.3
		c-5.2-6.3-9.9-13.1-14.6-19.8C119,214.4,122.5,208.2,126.9,202.6z M83.9,277c3,1.8,5.8,3.8,8.6,5.8c-1.4,2.1-2.8,4.2-4.1,6.4
		C87,285.1,85.3,281.1,83.9,277z M43.1,331c-0.6,4.1-4.9,7.2-9,7.2c-6.8,0.1-14-1.3-20.4-3.8c-3.9-1.7-7.7-3.8-8.5-8.4
		C3,313.9,2,301.4,2.6,289.2c0.6-4.6,5-11.5,10.4-9.3c4.6,1.2,9.1,2.6,13.7,3.6c-0.4,1.7-0.7,3.8-0.2,8.1l0.1,0.7
		c0.2,1.5,0.4,3.3,0.8,5.3l0,0c1.1,7.8,4.2,14.6,5.5,22.5C33,326,41.4,326.3,43.1,331z M37.2,316.8c-1.5-0.9-3.1-1.4-3.7-3.3
		c-2-5.7-3.4-11.6-4.5-17.6c0-0.1,0-0.2-0.1-0.3c-0.2-1.3-0.3-2.5-0.5-3.5l-0.1-0.8c0-0.4-0.1-0.7-0.1-1l0-5c0-0.1,0-0.2,0-0.2
		c0.4-0.7,0.8-1.5,1.2-2.2c1.6-0.2,3-0.5,4.6,0c16.8,5,33.3,10.8,49.9,16.4c-4.6,11.9-8,24.4-10.1,37
		C61.7,329.6,49.6,323,37.2,316.8z M117.2,426.9c2.3,4,4.2,8,5.9,12.3c-4.8,4.3-11,4.5-17.1,3.7c-6.1-1-11.2-5.2-15.8-9
		c-7.8-6.8-15.3-14.2-21.5-22.5c-1.6-2.4-3.9-5.3-3.5-8.3c0.5-7.1,3.1-14.2,6.5-20.5c6.1,3.8,12.3,6.8,19.3,7.5
		c0.9,0.1,1.6,0.2,2.2,0.2c0.2,0,0.4,0,0.6,0c0.1,0,0.1,0,0.2,0c0,0,0,0,0,0c0.5,0,1-0.1,1.4-0.2c0.2,0,0.4-0.1,0.5-0.1
		C103,402.2,110.2,414.5,117.2,426.9z M129.4,342.2c-1.4,5.2-6.5,7.6-11.1,9.5c2.2-5.8,4.8-11.4,7.3-17.1c2-4.1,3.5-8.3,6-12.1
		C131.2,329,131,335.8,129.4,342.2z M145.5,264.5c1,1.4,1.8,2.7,1.7,4.5c0.2,8.9-0.9,18-3.8,26.5c-1.6,4.9-4.5,8.5-7.2,12.8
		c-2.9,4.6-5.1,9.6-7.6,14.5c-5.8,12.1-11.2,24.4-16.1,36.9c-2.3,5.8-4,12.4-7.4,17.5c-2.6,4.1-5.9,7.2-9.2,10.7
		c-0.4,0-0.7,0.1-1,0.2c-1.1,0.2-2.1,0.4-4.9-0.2l0,0c-0.8-0.2-1.7-0.3-2.6-0.6c-5.1-1.2-9.8-3.7-14.4-6.2
		c1.5-8.9,0.1-18.1,0.9-27.1c1.8-21.4,6.4-42.8,15.8-62.2c1.6-3.3,3.9-6.3,5.4-9.7c-4.4-3.7-9.6-6.6-14.3-9.9
		c-15.1-10.5-31.2-21.8-43.5-35.6c-7.9-8.6-17.5-18.6-21.3-29.8c-2.5-7.1,0-13.1,1.7-20c2.3-5.2,4.4-10.7,7.4-15.6
		c2.5,0.1,5.2,0.8,7.7,1.3c14,2.8,29,6.2,41.7,13c10.7,5.5,21.2,11,31,18c4.3,2.8,8.2,5.8,11.5,9.7c-1.7,2.3-3.5,4.6-5.2,6.9
		c5.3,6.8,10.2,13.9,15.4,20.7C133,248.9,139.5,256.5,145.5,264.5z M160.5,224.5c-8.2-5.1-15.8-10.7-23.5-16.5
		c-12.5-9-24.7-18.5-36.4-28.6c-4.6-4.2-9-7.5-11.8-13.2c-9.6-18.7-20.3-37.7-27.6-57.3c-2.1-5.9-4.5-13.2-2.6-19.4
		C61.3,79.9,72,72.2,82,73.8c6.4,1,9,7.2,11.8,12.3c9.3,18.9,16,39.4,22.6,59.4c1.1,3.2,1.9,6.7,3.4,9.8c2.2,2.7,5.4,4.7,8,6.9
		c14.6,12,29.2,24,43.3,36.6c4.3,3.9,8.5,7.9,12.2,12.3c-3.5,6.5-9.4,12.3-16.3,15C164.6,227.2,162.6,225.5,160.5,224.5z
		 M174.9,234.1c-2.4-1.7-4.3-3.7-6.3-5.8c3.2-1.6,6.2-3.4,8.8-5.9c2.8-2.3,4.6-5.7,7.4-7.8c7.5,2.4,16.9,5.3,21.9,11.7
		c3.3,4,6.8,8,9.7,12.3c2.4,3.3,1.8,8.2,2,12.1c-3.1-4.3-5.6-9.1-8.9-13.3c-1.1-1.3-2-2.7-3.9-2.9c0,2.9,1,6.4,0.2,9.2
		c-5,4.4-13.6,5.4-20,6.4c-1-3.3-2-7.2-3.9-10.2C180.3,237.3,177.4,235.9,174.9,234.1z M229.2,455.1c-15.4-1.4-32.5-6.4-44-17.4
		c-4.9-4.3-7.5-10.2-7.5-16.7c0-25.7-0.2-51.3-0.1-77c-0.9-21.6-0.2-43.4-0.5-65c0.3-12.7-1.3-24,3.9-36.1c1.2,2.9,2.2,5.9,3.1,8.8
		c1.3,0.1,2.6,0.3,3.9,0.4c-3.4,2.9-6.9,6-9.1,10c-1.4,2.3-1.1,5.3-1.1,7.9c0.3,4.9,0.1,9.8,2.7,14.2c4.8,8.5,13.1,13.4,21.7,17.3
		c16.3,7,34.9,8.9,52.5,7.8c15.4-1.2,31.9-5.6,44.6-14.7c5.5-3.8,9.1-8.9,11.9-14.8c0.3,4.4,0.8,8.8,0.8,13.2c0,29.7,0,59.4,0,89.1
		c-5.1,1-10,2.2-14.7,4.5c-16.2,8-32,16.7-48.1,24.9c-9,5.1-16.3,13.5-19.4,23.5C228,441.6,228,448.3,229.2,455.1z M231.2,452
		c-1.3-7.9,0-16.2,4.1-23.1c2.7,0,4.6,1.4,6.8,2.8c-0.3,2.8-1.5,6.4,0.4,8.9c2.4,3.6,6.5,6.9,10.6,8.3c4.1,1.5,8.2,1,12.2,1.8
		c2.7,0.6,4.5,4,6.1,6c-1.2,2.4-2.3,4.8-3.3,7.3c-2.7-1.1-6-2.8-9-2.5c-4.1,0.8-7.7,3.4-12,3.7c-4.3,0.4-8.5-0.6-11.6-3.7
		C232.4,459,231.8,455.7,231.2,452z M258,482c-8.2-2.6-15-7.9-20.3-14.5c3.8,0.9,7.4,1.8,11.3,1.2c3.6-0.5,6.7-2.6,10-3.4
		c2.8-0.4,6.1,1.6,8.6,2.8c0.4,2.4,0.5,5.3,1.8,7.4c1.3,2,3.4,3.7,5.1,5.3C269,482.8,263.7,483.6,258,482z M292.2,481.2
		c-5.3,2.1-11,3.2-16.7,3.3c3.2-4,7.2-1.9,11.3-3.8c5.1-2.3,10-5,15.1-7.2C299,476.3,295.9,479.7,292.2,481.2z M305.5,474.6
		c1.3-2.3,2-4.5,4.5-5.6c5.5-2.8,11.1-5.5,16.6-8.2C320.8,467.6,313.4,470.9,305.5,474.6z M338.1,458.1c-2.7,1.5-5.5,2.8-8.3,4.1
		c1.2-2,1.9-4,4.2-5.2c3.7-2.1,7.5-4,11.3-5.9C343.2,453.7,341.1,456.5,338.1,458.1z M348,446.1c-3.6,3.2-7.7,5-11.9,7
		c-10.2,5.1-20.2,10.6-30.6,15.5c-6.6,3.5-13.2,6.9-20,10c-5.4,2.5-12.5,0.2-14.6-5.5c-1.8-5,0-11.2,2.8-15.4
		c3.2-4.7,7.7-6.8,12.6-9.4c18.5-9.1,37.2-18.2,55.7-27.4c2.2-0.9,4.7-1.8,7.1-1.3c3.4,0.7,6.7,3,7.5,6.5
		C357.2,433.8,353.8,441.1,348,446.1z M349.1,451.1c1.1-3.4,3.2-5.9,5.3-8.6c2-2.5,2.9-5.4,4-8.4c1-0.6,2.1-1.2,3.1-1.7
		C359.4,439.6,355,446.2,349.1,451.1z M359.3,429.9c-0.3-2-0.4-4.2-1-6.1c-0.8-1.5-2-2.8-3.1-4.1c3.2-3.7,3.9-6.9,4.4-11.7
		c2.5,6.1,3.7,12.6,2.7,19.2C361.7,428.3,360.2,429,359.3,429.9z"/>
</g>
</svg>
