<svg xmlns="http://www.w3.org/2000/svg" viewBox="0 0 257.39 267.64"><defs><style>.a{fill:#f8c22c;}.b{opacity:0.2;}.c{fill:#fff;}</style></defs><title>cube</title><path class="a" d="M154.21,43.23l-1.37.55v4.37l2-.8v-5A1,1,0,0,1,154.21,43.23Z"/><path class="a" d="M104.73,49.15V43.76l-1.31-.53a1,1,0,1,1,.74-1.85l2.25.9,22.38-9,22.4,9,2.27-.91a1,1,0,0,1,1.3.55.91.91,0,0,1,.08.39v0a1,1,0,0,0-.63-.93l-25.05-10a1.21,1.21,0,0,0-.37-.07c-.2,0-.2,0-25.43,10.11a1,1,0,0,0-.63.92v6.08Z"/><path class="a" d="M128.81,53.33h0a1,1,0,0,1-.52-.15l-.48-.2v5.6c.88-.35.93-.35,1-.35a1.21,1.21,0,0,1,.37.07l.63.25V53l-.44.18a1,1,0,0,1-.51.15Z"/><path class="a" d="M153.46,41.38l-2.27.91-22.38,9,.4.16a1,1,0,0,1,.55,1.3,1,1,0,0,1-.41.48l.44-.18,23.05-9.23,1.37-.55a1,1,0,0,0,.63-.9h0a.91.91,0,0,0-.08-.39A1,1,0,0,0,153.46,41.38Z"/><path class="a" d="M128.79,53.34h0a1.12,1.12,0,0,1-.35-.06l-.19-.08A1,1,0,0,0,128.79,53.34Z"/><path class="a" d="M128.27,53.19l.19.08a1.12,1.12,0,0,0,.35.06h0a1,1,0,0,0,.51-.15,1,1,0,0,0,.41-.48,1,1,0,0,0-.55-1.3l-.4-.16-22.4-9-2.25-.9a1,1,0,1,0-.74,1.85l1.31.53L127.79,53Z"/><path class="a" d="M70.73,61.15V57.76l-1.31-.53a1,1,0,1,1,.74-1.85l2.25.9,22.38-9,22.4,9,2.27-.91a1,1,0,0,1,1.3.55,1.09,1.09,0,0,1,.08.39v0a1,1,0,0,0-.63-.92l-15.48-6.2-2-.8-7.57-3a1.21,1.21,0,0,0-.37-.07c-.2,0-.2,0-25.43,10.11a1,1,0,0,0-.63.92v4.08Z"/><path class="a" d="M120.84,61.35v-5a1,1,0,0,1-.63.9l-1.37.55v4.37Z"/><path class="a" d="M95.35,67.19a1,1,0,0,1-.51.15h0a1,1,0,0,1-.52-.15l-.48-.2v4.57l.62-.25a1.21,1.21,0,0,1,.37-.07c.07,0,.12,0,1,.35V67Z"/><path class="a" d="M94.81,65.25l.4.16a1,1,0,0,1,.55,1.3,1,1,0,0,1-.41.48l.44-.18,23-9.23,1.37-.55a1,1,0,0,0,.63-.9h0a1.09,1.09,0,0,0-.08-.39,1,1,0,0,0-1.3-.55l-2.27.91Z"/><path class="a" d="M94.79,67.34h0a1.12,1.12,0,0,1-.35-.06l-.19-.08A1,1,0,0,0,94.79,67.34Z"/><path class="a" d="M94.27,67.19l.19.08a1.12,1.12,0,0,0,.35.06h0a1,1,0,0,0,.51-.15,1,1,0,0,0,.41-.48,1,1,0,0,0-.55-1.3l-.4-.16-22.4-9-2.25-.9a1,1,0,1,0-.74,1.85l1.31.53L93.79,67Z"/><path class="a" d="M188.21,56.23l-1.37.55v4.37l2-.8v-5A1,1,0,0,1,188.21,56.23Z"/><path class="a" d="M152.84,48.15l-15.48,6.2a1,1,0,0,0-.63.92v6.08l2,.8V56.76l-1.31-.53a1,1,0,1,1,.74-1.85l2.25.9,22.38-9,22.4,9,2.27-.91a1,1,0,0,1,1.3.55.91.91,0,0,1,.08.39v0a1,1,0,0,0-.63-.93l-25.05-10a1.21,1.21,0,0,0-.37-.07c-.14,0-.19,0-7.95,3.11Z"/><path class="a" d="M162.81,66.33h0a1,1,0,0,1-.51-.15l-.49-.19v5.59c.89-.35.93-.35,1-.35a1.21,1.21,0,0,1,.37.07l.63.25V66l-.44.18a1,1,0,0,1-.51.15Z"/><path class="a" d="M187.46,54.38l-2.27.91-22.38,9,.4.16a1,1,0,0,1,.55,1.3,1,1,0,0,1-.41.48l.44-.18,23.05-9.23,1.37-.55a1,1,0,0,0,.63-.9h0a.91.91,0,0,0-.08-.39A1,1,0,0,0,187.46,54.38Z"/><path class="a" d="M162.79,66.34h0a1.12,1.12,0,0,1-.35-.06l-.18-.08A1,1,0,0,0,162.79,66.34Z"/><path class="a" d="M161.79,66l.49.19.18.08a1.12,1.12,0,0,0,.35.06h0a1,1,0,0,0,.51-.15,1,1,0,0,0,.41-.48,1,1,0,0,0-.55-1.3l-.4-.16-22.4-9-2.25-.9a1,1,0,1,0-.74,1.85l1.31.53Z"/><path class="a" d="M129.16,58.31a1.21,1.21,0,0,0-.37-.07c-.07,0-.12,0-1,.35s-2.92,1.15-7,2.76l-2,.8-15.48,6.2a1,1,0,0,0-.63.92v5.08l2,.8V70.76l-1.31-.53a1,1,0,1,1,.74-1.85l2.25.9,22.38-9,22.4,9,2.27-.91a1,1,0,0,1,1.3.55.91.91,0,0,1,.08.39v0a1,1,0,0,0-.63-.93l-15.48-6.19-2-.8-6.94-2.79Z"/><path class="a" d="M154.21,70.23l-1.37.55v4.37l2-.8v-5A1,1,0,0,1,154.21,70.23Z"/><path class="a" d="M129.35,80.19a1,1,0,0,1-.51.15h-.05a1,1,0,0,1-.52-.15l-.48-.2v5a4.38,4.38,0,0,1,1.1-.38.94.94,0,0,1,.37.07l.53.21V80Z"/><path class="a" d="M128.81,78.25l.4.16a1,1,0,0,1,.55,1.3,1,1,0,0,1-.41.48l.44-.18,23.05-9.23,1.37-.55a1,1,0,0,0,.63-.9h0a.91.91,0,0,0-.08-.39,1,1,0,0,0-1.3-.55l-2.27.91Z"/><path class="a" d="M128.79,80.34h0a1.12,1.12,0,0,1-.35-.06l-.19-.08A1,1,0,0,0,128.79,80.34Z"/><path class="a" d="M127.79,80l.48.2.19.08a1.12,1.12,0,0,0,.35.06h0a1,1,0,0,0,.51-.15,1,1,0,0,0,.41-.48,1,1,0,0,0-.55-1.3l-.4-.16-22.4-9-2.25-.9a1,1,0,1,0-.74,1.85l1.31.53Z"/><path class="a" d="M222.21,154.23l-1.37.55v32.94L197.79,197v1.47a1,1,0,0,1-1,1,1,1,0,0,0,.37-.07l21.13-8.46c4.55-1.82,4.55-1.82,4.55-2.5V153.33A1,1,0,0,1,222.21,154.23Z"/><path class="a" d="M195.79,198.43V197l-6.95-2.79v2.16l7.58,3a.9.9,0,0,0,.37.07A1,1,0,0,1,195.79,198.43Z"/><path class="a" d="M212.63,150.67l6.56,2.62,2.27-.91a1,1,0,0,1,1.3.55.91.91,0,0,1,.08.39v0a1,1,0,0,0-.63-.93l-6.89-2.75Z"/><path class="a" d="M197.79,198.43V164l-.45.18a1.11,1.11,0,0,1-.5.14h-.05a1.07,1.07,0,0,1-.5-.14l-.5-.2v34.43a1,1,0,0,0,2,0Z"/><path class="a" d="M221.46,152.38l-2.27.91-22.38,9,.4.16a1,1,0,0,1,.55,1.3,1,1,0,0,1-.42.49l.45-.18,23.05-9.24,1.37-.55a1,1,0,0,0,.63-.9h0a.91.91,0,0,0-.08-.39A1,1,0,0,0,221.46,152.38Z"/><path class="a" d="M196.46,164.27l-.17-.07a1.07,1.07,0,0,0,.5.14h0A1.12,1.12,0,0,1,196.46,164.27Z"/><path class="a" d="M188.84,159.9c0,.39,0,.56-.86,1l7.81,3.13.5.2.17.07a1.12,1.12,0,0,0,.35.06h0a1.11,1.11,0,0,0,.5-.14,1,1,0,0,0,.42-.49,1,1,0,0,0-.55-1.3l-.4-.16-8-3.19Z"/><path class="a" d="M161.79,212.43V211l-6.85-2.75v2.16l7.48,3a.9.9,0,0,0,.37.07A1,1,0,0,1,161.79,212.43Z"/><path class="a" d="M188.84,194.17V167.33a1,1,0,0,1-.63.9l-1.37.55v32.94L163.79,211v1.47a1,1,0,0,1-1,1,1,1,0,0,0,.37-.07l21.13-8.46c4.55-1.82,4.55-1.82,4.55-2.5v-8.23Z"/><path class="a" d="M178.63,164.67l6.56,2.62,2.27-.91a1,1,0,0,1,1.3.55.91.91,0,0,1,.08.39v0a1,1,0,0,0-.63-.93l-6.89-2.75Z"/><path class="a" d="M163.79,212.43V178l-.45.18a1.11,1.11,0,0,1-.5.14h-.05a1.07,1.07,0,0,1-.5-.14l-.5-.2v34.43a1,1,0,0,0,2,0Z"/><path class="a" d="M188.84,167.32a.91.91,0,0,0-.08-.39,1,1,0,0,0-1.3-.55l-2.27.91-22.38,9,.4.16a1,1,0,0,1,.55,1.3,1,1,0,0,1-.42.49l.45-.18,23.05-9.24,1.37-.55a1,1,0,0,0,.63-.9Z"/><path class="a" d="M162.46,178.27l-.17-.07a1.07,1.07,0,0,0,.5.14h0A1.12,1.12,0,0,1,162.46,178.27Z"/><path class="a" d="M163.76,177.71a1,1,0,0,0-.55-1.3l-.4-.16-7.87-3.15v.2c0,.48,0,.62-1.62,1.31l8.47,3.39.5.2.17.07a1.12,1.12,0,0,0,.35.06h0a1.11,1.11,0,0,0,.5-.14A1,1,0,0,0,163.76,177.71Z"/><path class="a" d="M59.78,198.43V197l-23.05-9.24c0-4.21,0-26.86,0-32.94l-1.38-.55a1,1,0,0,1-.62-.9c0,1.28,0,35.07,0,35.07,0,.68,0,.68,4.55,2.5l21.13,8.46a1,1,0,0,0,.37.07A1,1,0,0,1,59.78,198.43Z"/><path class="a" d="M36.11,152.38l2.27.91,6.56-2.62-2.69-1.08-6.89,2.76a1,1,0,0,0-.62.92v0a.9.9,0,0,1,.07-.39A1,1,0,0,1,36.11,152.38Z"/><path class="a" d="M68.73,194.17l-7,2.79v1.47a1,1,0,0,1-1,1,1,1,0,0,0,.38-.07l7.57-3Z"/><path class="a" d="M61.78,198.43V164l-.49.19a1,1,0,0,1-.51.15h-.05a1,1,0,0,1-.5-.15l-.45-.17v34.41a1,1,0,0,0,2,0Z"/><path class="a" d="M35.36,154.23l1.38.55,23,9.24.45.17a.94.94,0,0,1-.42-.48,1,1,0,0,1,.55-1.3l.4-.16-22.38-9-2.27-.91a1,1,0,0,0-1.3.55.9.9,0,0,0-.07.39h0A1,1,0,0,0,35.36,154.23Z"/><path class="a" d="M60.76,164.33h0a1,1,0,0,0,.51-.15l-.18.08A1.12,1.12,0,0,1,60.76,164.33Z"/><path class="a" d="M68.73,159.9v-.84l-8,3.19-.4.16a1,1,0,0,0-.55,1.3.94.94,0,0,0,.42.48,1,1,0,0,0,.5.15h0a1.12,1.12,0,0,0,.35-.06l.18-.08.49-.19,7.81-3.13C68.74,160.46,68.73,160.29,68.73,159.9Z"/><path class="a" d="M93.78,212.43V211l-23-9.24c0-4.21,0-26.86,0-32.94l-1.38-.55a1,1,0,0,1-.62-.9c0,.87,0,16.75,0,26.84v8.23c0,.68,0,.68,4.55,2.5l21.13,8.46a1,1,0,0,0,.37.07A1,1,0,0,1,93.78,212.43Z"/><path class="a" d="M102.84,208.13,95.78,211v1.47a1,1,0,0,1-1,1,1,1,0,0,0,.38-.07l7.68-3.07Z"/><path class="a" d="M76.25,163.59l-6.89,2.76a1,1,0,0,0-.62.92v0a.9.9,0,0,1,.07-.39,1,1,0,0,1,1.3-.55l2.27.91,6.56-2.62Z"/><path class="a" d="M95.78,212.43V178l-.49.19a1,1,0,0,1-.51.15h0a1,1,0,0,1-.5-.15l-.45-.17v34.41a1,1,0,0,0,2,0Z"/><path class="a" d="M93.81,177.71a1,1,0,0,1,.55-1.3l.4-.16-22.38-9-2.27-.91a1,1,0,0,0-1.3.55.9.9,0,0,0-.07.39h0a1,1,0,0,0,.62.9l1.38.55,23,9.24.45.17A.94.94,0,0,1,93.81,177.71Z"/><path class="a" d="M94.76,178.33h0a1,1,0,0,0,.51-.15l-.18.08A1.12,1.12,0,0,1,94.76,178.33Z"/><path class="a" d="M103.47,174.23l-.13-.06c-.27-.16-.39-.24-.45-1.18l-8.13,3.26-.4.16a1,1,0,0,0-.55,1.3.94.94,0,0,0,.42.48,1,1,0,0,0,.5.15h0a1.12,1.12,0,0,0,.35-.06l.18-.08.49-.19,8.55-3.43Z"/><path class="a" d="M127.89,225.83v-1.48l-23-9.23v-33l-1.32-.53a1,1,0,0,1-.56-1.3,1,1,0,0,1,1.3-.56l2.25.91,6.53-2.62L110.35,177l-6.89,2.76a1,1,0,0,0-.62.93v29.69c0,6,0,6,.5,6.31l.13.06,25.05,10a.94.94,0,0,0,.37.07A1,1,0,0,1,127.89,225.83Z"/><path class="a" d="M154.94,208.21V180.73a1,1,0,0,1-.63.9l-1.37.55v32.94l-23.05,9.23v1.48a1,1,0,0,1-1,1,1,1,0,0,0,.37-.07l21.14-8.46c4.54-1.82,4.54-1.82,4.54-2.5v-7.59Z"/><path class="a" d="M144.73,178.06l6.56,2.63,2.28-.92a1,1,0,0,1,1.3.56,1.06,1.06,0,0,1,.07.38v0a1,1,0,0,0-.63-.93L147.42,177Z"/><path class="a" d="M129.89,225.83V191.41l-.45.18a1,1,0,0,1-.5.15h-.05a1,1,0,0,1-.51-.15l-.49-.2v34.44a1,1,0,0,0,2,0Z"/><path class="a" d="M154.94,180.71a1.06,1.06,0,0,0-.07-.38,1,1,0,0,0-1.3-.56l-2.28.92-22.38,9,.4.16a1,1,0,0,1,.13,1.78l.45-.18,23.05-9.23,1.37-.55a1,1,0,0,0,.63-.9Z"/><path class="a" d="M128.57,191.66l-.19-.07a1,1,0,0,0,.51.15h0A.83.83,0,0,1,128.57,191.66Z"/><path class="a" d="M129.87,191.11a1,1,0,0,0-.56-1.3l-.4-.16-22.4-9-2.25-.91a1,1,0,0,0-1.3.56,1,1,0,0,0,.56,1.3l1.32.53,23,9.23.49.2.19.07a.83.83,0,0,0,.34.07h0a1,1,0,0,0,.5-.15A1,1,0,0,0,129.87,191.11Z"/><path class="a" d="M222.84,145.9V110.83a1,1,0,0,1-.63.9l-1.37.55v32.94l-23.05,9.24v1.47a1,1,0,0,1-1,1,1,1,0,0,0,.37-.07l15.47-6.19,2.69-1.08,3-1.19C222.84,146.58,222.84,146.58,222.84,145.9Z"/><path class="a" d="M195.79,155.93v-1.47l-6.95-2.79v2.16l7.58,3a.9.9,0,0,0,.37.07A1,1,0,0,1,195.79,155.93Z"/><path class="a" d="M212.63,108.17l6.56,2.62,2.27-.91a1,1,0,0,1,1.3.55.91.91,0,0,1,.08.39v0a1,1,0,0,0-.63-.93l-6.89-2.75Z"/><path class="a" d="M197.79,121.51l-.44.18a1,1,0,0,1-.51.15h-.05a1,1,0,0,1-.51-.15l-.49-.19v34.43a1,1,0,0,0,2,0V121.51Z"/><path class="a" d="M221.46,109.88l-2.27.91-22.38,9,.4.16a1,1,0,0,1,.55,1.3,1,1,0,0,1-.41.48l.44-.18,23.05-9.23,1.37-.55a1,1,0,0,0,.63-.9h0a.91.91,0,0,0-.08-.39A1,1,0,0,0,221.46,109.88Z"/><path class="a" d="M196.46,121.77l-.18-.08a1,1,0,0,0,.51.15h0A1.12,1.12,0,0,1,196.46,121.77Z"/><path class="a" d="M188.84,117.4c0,.39,0,.56-.86,1l7.81,3.13.49.19.18.08a1.12,1.12,0,0,0,.35.06h0a1,1,0,0,0,.51-.15,1,1,0,0,0,.41-.48,1,1,0,0,0-.55-1.3l-.4-.16-8-3.19Z"/><path class="a" d="M161.79,169.93v-1.47l-6.85-2.75v2.16l7.48,3a.9.9,0,0,0,.37.07A1,1,0,0,1,161.79,169.93Z"/><path class="a" d="M188.84,124.83a1,1,0,0,1-.63.9l-1.37.55v32.94l-23.05,9.24v1.47a1,1,0,0,1-1,1,1,1,0,0,0,.37-.07l15.47-6.19,2.69-1.08,3-1.19c1.94-.78,3.05-1.22,3.69-1.53.85-.41.86-.58.86-1V124.83Z"/><path class="a" d="M178.63,122.17l6.56,2.62,2.27-.91a1,1,0,0,1,1.3.55.91.91,0,0,1,.08.39v0a1,1,0,0,0-.63-.93l-6.89-2.75Z"/><path class="a" d="M163.79,135.51l-.44.18a1,1,0,0,1-.51.15h-.05a1,1,0,0,1-.51-.15l-.49-.19v34.43a1,1,0,0,0,2,0V135.51Z"/><path class="a" d="M187.46,123.88l-2.27.91-22.38,9,.4.16a1,1,0,0,1,.55,1.3,1,1,0,0,1-.41.48l.44-.18,23.05-9.23,1.37-.55a1,1,0,0,0,.63-.9h0a.91.91,0,0,0-.08-.39A1,1,0,0,0,187.46,123.88Z"/><path class="a" d="M162.46,135.77l-.18-.08a1,1,0,0,0,.51.15h0A1.12,1.12,0,0,1,162.46,135.77Z"/><path class="a" d="M162.28,135.69l.18.08a1.12,1.12,0,0,0,.35.06h0a1,1,0,0,0,.51-.15,1,1,0,0,0,.41-.48,1,1,0,0,0-.55-1.3l-.4-.16-7.87-3.15v.2c0,.48,0,.62-1.62,1.3l8.47,3.4Z"/><path class="a" d="M36.11,109.88l2.27.91,6.56-2.62-2.69-1.08-6.89,2.76a1,1,0,0,0-.62.92v0a.9.9,0,0,1,.07-.39A1,1,0,0,1,36.11,109.88Z"/><path class="a" d="M68.73,153.83v-2.16l-7,2.79v1.47a1,1,0,0,1-1,1,1,1,0,0,0,.38-.07Z"/><path class="a" d="M44.94,150.67l15.47,6.19a1,1,0,0,0,.37.07,1,1,0,0,1-1-1v-1.47l-23.05-9.24c0-4.21,0-26.86,0-32.94l-1.38-.55a1,1,0,0,1-.62-.9c0,1.27,0,35.07,0,35.07,0,.68,0,.68,4.55,2.5l3,1.19Z"/><path class="a" d="M61.78,155.93V121.49l-.48.2a1,1,0,0,1-.52.15h-.05a1,1,0,0,1-.51-.15l-.44-.18v34.42a1,1,0,0,0,2,0Z"/><path class="a" d="M35.36,111.73l1.38.55,23,9.23.44.18a1,1,0,0,1-.41-.48,1,1,0,0,1,.55-1.3l.4-.16-22.38-9-2.27-.91a1,1,0,0,0-1.3.55.9.9,0,0,0-.07.39h0A1,1,0,0,0,35.36,111.73Z"/><path class="a" d="M60.76,121.83h0a1,1,0,0,0,.52-.15l-.19.08A1.12,1.12,0,0,1,60.76,121.83Z"/><path class="a" d="M60.76,121.83a1.12,1.12,0,0,0,.35-.06l.19-.08.48-.2,7.81-3.12c-.85-.41-.86-.58-.86-1v-.84l-8,3.19-.4.16a1,1,0,0,0-.55,1.3,1,1,0,0,0,.41.48,1,1,0,0,0,.51.15Z"/><path class="a" d="M78.94,164.67l15.47,6.19a1,1,0,0,0,.37.07,1,1,0,0,1-1-1v-1.47l-23-9.24c0-4.21,0-26.86,0-32.94l-1.38-.55a1,1,0,0,1-.62-.9c0,.86,0,16.74,0,26.84v8.23c0,.39,0,.56.86,1,.64.31,1.75.75,3.69,1.53l3,1.19Z"/><path class="a" d="M70.11,123.88l2.27.91,6.56-2.62-2.69-1.08-6.89,2.76a1,1,0,0,0-.62.92v0a.9.9,0,0,1,.07-.39A1,1,0,0,1,70.11,123.88Z"/><path class="a" d="M95.78,169.93a1,1,0,0,1-1,1,1,1,0,0,0,.38-.07l7.68-3.07v-2.16l-7.06,2.83Z"/><path class="a" d="M94.78,135.84h0a1,1,0,0,1-.51-.15l-.44-.18v34.42a1,1,0,0,0,2,0V135.49l-.48.2A1,1,0,0,1,94.78,135.84Z"/><path class="a" d="M93.78,135.51l.44.18a1,1,0,0,1-.41-.48,1,1,0,0,1,.55-1.3l.4-.16-22.38-9-2.27-.91a1,1,0,0,0-1.3.55.9.9,0,0,0-.07.39h0a1,1,0,0,0,.62.9l1.38.55Z"/><path class="a" d="M95.3,135.69l-.19.08a1.12,1.12,0,0,1-.35.06h0A1,1,0,0,0,95.3,135.69Z"/><path class="a" d="M94.36,133.91a1,1,0,0,0-.55,1.3,1,1,0,0,0,.41.48,1,1,0,0,0,.51.15h0a1.12,1.12,0,0,0,.35-.06l.19-.08.48-.2,8.55-3.42-.86-.34c-.34-.15-.5-.22-.57-1.24l-8.14,3.26Z"/><path class="a" d="M128.52,184.26a.94.94,0,0,0,.37.07,1,1,0,0,1-1-1v-1.48l-23-9.23v-33l-1.32-.53a1,1,0,0,1-.56-1.3,1,1,0,0,1,1.3-.56l2.25.91,6.53-2.62-2.69-1.08-6.89,2.76a1,1,0,0,0-.62.93v29.69c0,2.82,0,4.31,0,5.13s.18,1,.45,1.18l.13.06.86.34,6,2.41,2.69,1.08Z"/><path class="a" d="M153.57,137.27a1,1,0,0,1,1.3.56,1.06,1.06,0,0,1,.07.38v0a1,1,0,0,0-.63-.93l-6.89-2.75-2.69,1.07,6.56,2.63Z"/><path class="a" d="M154.94,165.71V138.23a1,1,0,0,1-.63.9l-1.37.55v32.94l-23.05,9.23v1.48a1,1,0,0,1-1,1,1,1,0,0,0,.37-.07l15.47-6.2,2.69-1.07,3-1.19c1.32-.54,2.26-.91,2.92-1.19,1.61-.69,1.62-.83,1.62-1.31v-7.59Z"/><path class="a" d="M129.89,183.33V148.91l-.45.18a1,1,0,0,1-.5.15h-.05a1,1,0,0,1-.51-.15l-.49-.2v34.44a1,1,0,0,0,2,0Z"/><path class="a" d="M154.94,138.21a1.06,1.06,0,0,0-.07-.38,1,1,0,0,0-1.3-.56l-2.28.92-22.38,9,.4.16a1,1,0,0,1,.13,1.78l.45-.18,23.05-9.23,1.37-.55a1,1,0,0,0,.63-.9Z"/><path class="a" d="M128.57,149.16l-.19-.07a1,1,0,0,0,.51.15h0A.83.83,0,0,1,128.57,149.16Z"/><path class="a" d="M127.89,148.89l.49.2.19.07a.83.83,0,0,0,.34.07h0a1,1,0,0,0,.5-.15,1,1,0,0,0-.13-1.78l-.4-.16-22.4-9-2.25-.91a1,1,0,0,0-1.3.56,1,1,0,0,0,.56,1.3l1.32.53Z"/><path class="a" d="M222.21,69.23l-1.37.55v32.94L197.79,112v1.47a1,1,0,0,1-.61.93l15.45-6.19,2.69-1.08,3-1.19c4.55-1.82,4.55-1.82,4.55-2.5V68.33A1,1,0,0,1,222.21,69.23Z"/><path class="a" d="M186.84,61.15l-15.48,6.2a1,1,0,0,0-.63.92v6.08l2,.8V69.76l-1.31-.53a1,1,0,1,1,.74-1.85l2.25.9,22.38-9,22.4,9,2.27-.91a1,1,0,0,1,1.3.55.91.91,0,0,1,.08.39v0a1,1,0,0,0-.63-.93l-25.05-10a1.21,1.21,0,0,0-.37-.07c-.14,0-.19,0-7.95,3.11Z"/><path class="a" d="M196.79,114.43a1,1,0,0,1-.39-.07h0A.9.9,0,0,0,196.79,114.43Z"/><path class="a" d="M197.18,114.36a1,1,0,0,1-.39.07,1,1,0,0,0,.37-.07Z"/><path class="a" d="M188.84,111.33l7.56,3a1,1,0,0,1-.61-.93V112l-6.95-2.79Z"/><path class="a" d="M196.81,79.33h0a1,1,0,0,1-.51-.15l-.49-.19v34.43a1,1,0,0,0,.61.93h0a1.12,1.12,0,0,0,.78,0h0a1,1,0,0,0,.61-.93V79l-.44.18a1,1,0,0,1-.51.15Z"/><path class="a" d="M221.46,67.38l-2.27.91-22.38,9,.4.16a1,1,0,0,1,.55,1.3,1,1,0,0,1-.41.48l.44-.18,23.05-9.23,1.37-.55a1,1,0,0,0,.63-.9h0a.91.91,0,0,0-.08-.39A1,1,0,0,0,221.46,67.38Z"/><path class="a" d="M196.79,79.34h0a1.12,1.12,0,0,1-.35-.06l-.18-.08A1,1,0,0,0,196.79,79.34Z"/><path class="a" d="M195.79,79l.49.19.18.08a1.12,1.12,0,0,0,.35.06h0a1,1,0,0,0,.51-.15,1,1,0,0,0,.41-.48,1,1,0,0,0-.55-1.3l-.4-.16-22.4-9-2.25-.9a1,1,0,1,0-.74,1.85l1.31.53Z"/><path class="a" d="M163.16,71.31a1.21,1.21,0,0,0-.37-.07c-.07,0-.11,0-1,.35s-2.92,1.15-6.95,2.76l-2,.8-15.48,6.2a1,1,0,0,0-.63.92V87.7l2,.81V83.76l-1.31-.53a1,1,0,1,1,.74-1.85l2.25.9,22.38-9,22.4,9,2.27-.91a1,1,0,0,1,1.3.55.91.91,0,0,1,.08.39v0a1,1,0,0,0-.63-.93l-15.48-6.19-2-.8-6.94-2.79Z"/><path class="a" d="M163.16,128.36h0a1,1,0,0,1-.39.07A1,1,0,0,0,163.16,128.36Z"/><path class="a" d="M161.79,127.43V126l-6.85-2.75v2.16l7.46,3A1,1,0,0,1,161.79,127.43Z"/><path class="a" d="M162.42,128.36a.9.9,0,0,0,.37.07,1,1,0,0,1-.39-.07Z"/><path class="a" d="M188.21,83.23l-1.37.55v32.94L163.79,126v1.47a1,1,0,0,1-.61.93l15.45-6.19,2.69-1.08,3-1.19c2-.78,3.05-1.22,3.69-1.53.85-.41.86-.58.86-1V82.33A1,1,0,0,1,188.21,83.23Z"/><path class="a" d="M161.79,127.43a1,1,0,0,0,.61.93h0a1.12,1.12,0,0,0,.78,0h0a1,1,0,0,0,.61-.93V93l-.44.18a1,1,0,0,1-.51.15h-.05a1,1,0,0,1-.51-.15l-.49-.19v34.43Z"/><path class="a" d="M162.81,91.25l.4.16a1,1,0,0,1,.55,1.3,1,1,0,0,1-.41.48l.44-.18,23.05-9.23,1.37-.55a1,1,0,0,0,.63-.9h0a.91.91,0,0,0-.08-.39,1,1,0,0,0-1.3-.55l-2.27.91Z"/><path class="a" d="M162.79,93.34h0a1.12,1.12,0,0,1-.35-.06l-.18-.08A1,1,0,0,0,162.79,93.34Z"/><path class="a" d="M161.79,93l.49.19.18.08a1.12,1.12,0,0,0,.35.06h0a1,1,0,0,0,.51-.15,1,1,0,0,0,.41-.48,1,1,0,0,0-.55-1.3l-.4-.16-22.4-9-2.25-.9a1,1,0,1,0-.74,1.85l1.31.53Z"/><path class="a" d="M36.11,67.38l2.27.91,22.4-9,22.38,9,2.25-.9a1,1,0,0,1,.75,1.85l-1.32.53v5.39l2-.8V68.27a1,1,0,0,0-.63-.92l-15.48-6.2-2-.8c-7.76-3.1-7.81-3.11-8-3.11a1.21,1.21,0,0,0-.37.07l-25,10a1,1,0,0,0-.62.92v0a.9.9,0,0,1,.07-.39A1,1,0,0,1,36.11,67.38Z"/><path class="a" d="M61.16,114.36h0a1,1,0,0,1-.39.07A1,1,0,0,0,61.16,114.36Z"/><path class="a" d="M60.41,114.36a1,1,0,0,0,.37.07,1,1,0,0,1-.38-.07Z"/><path class="a" d="M44.94,108.17l15.45,6.19a1,1,0,0,1-.61-.93V112l-23.05-9.24c0-4.21,0-26.86,0-32.94l-1.38-.55a1,1,0,0,1-.62-.9c0,1.27,0,35.07,0,35.07,0,.68,0,.68,4.55,2.5l3,1.19Z"/><path class="a" d="M68.73,109.17l-7,2.79v1.47a1,1,0,0,1-.61.93l7.56-3Z"/><path class="a" d="M60.78,114.43a1,1,0,0,0,.39-.07h0a1,1,0,0,0,.61-.93V79l-.48.2a1,1,0,0,1-.52.15h-.05a1,1,0,0,1-.51-.15L59.78,79v34.42a1,1,0,0,0,.61.93h0A1,1,0,0,0,60.78,114.43Z"/><path class="a" d="M35.36,69.23l1.38.55,23,9.23.44.18a1,1,0,0,1-.41-.48,1,1,0,0,1,.55-1.3l.4-.16-22.38-9-2.27-.91a1,1,0,0,0-1.3.55.9.9,0,0,0-.07.39h0A1,1,0,0,0,35.36,69.23Z"/><path class="a" d="M60.76,79.33h0a1,1,0,0,0,.52-.15l-.19.08A1.12,1.12,0,0,1,60.76,79.33Z"/><path class="a" d="M60.76,79.33a1.12,1.12,0,0,0,.35-.06l.19-.08.48-.2,23.06-9.23,1.32-.53a1,1,0,0,0-.75-1.85l-2.25.9-22.4,9-.4.16a1,1,0,0,0-.55,1.3,1,1,0,0,0,.41.48,1,1,0,0,0,.51.15Z"/><path class="a" d="M76.25,121.09l2.69,1.08,15.45,6.19a1,1,0,0,1-.61-.93V126l-23-9.24c0-4.21,0-26.86,0-32.94l-1.38-.55a1,1,0,0,1-.62-.9c0,.86,0,16.74,0,26.84v8.23c0,.39,0,.56.86,1,.64.31,1.75.75,3.69,1.53Z"/><path class="a" d="M94.41,128.36a1,1,0,0,0,.37.07,1,1,0,0,1-.38-.07Z"/><path class="a" d="M95.16,128.36h0a1,1,0,0,1-.39.07A1,1,0,0,0,95.16,128.36Z"/><path class="a" d="M69.36,81.35a1,1,0,0,0-.62.92v0a.9.9,0,0,1,.07-.39,1,1,0,0,1,1.3-.55l2.27.91,22.4-9,22.38,9,2.25-.9a1,1,0,0,1,.75,1.85l-1.32.53v4.83l2-.8V82.27a1,1,0,0,0-.63-.92l-15.48-6.2-2-.8c-4-1.61-6-2.39-6.94-2.76s-.94-.35-1-.35a1.21,1.21,0,0,0-.37.07l-.62.25-7,2.79-2,.8Z"/><path class="a" d="M95.78,127.43a1,1,0,0,1-.61.93l7.67-3.07v-2.16L95.78,126Z"/><path class="a" d="M94.78,128.43a1,1,0,0,0,.39-.07h0a1,1,0,0,0,.61-.93V93l-.48.2a1,1,0,0,1-.52.15h0a1,1,0,0,1-.51-.15L93.78,93v34.42a1,1,0,0,0,.61.93h0A1,1,0,0,0,94.78,128.43Z"/><path class="a" d="M69.36,83.23l1.38.55,23,9.23.44.18a1,1,0,0,1-.41-.48,1,1,0,0,1,.55-1.3l.4-.16-22.38-9-2.27-.91a1,1,0,0,0-1.3.55.9.9,0,0,0-.07.39h0A1,1,0,0,0,69.36,83.23Z"/><path class="a" d="M95.3,93.19l-.19.08a1.12,1.12,0,0,1-.35.06h0A1,1,0,0,0,95.3,93.19Z"/><path class="a" d="M94.76,91.25l-.4.16a1,1,0,0,0-.55,1.3,1,1,0,0,0,.41.48,1,1,0,0,0,.51.15h0a1.12,1.12,0,0,0,.35-.06l.19-.08.48-.2,23.06-9.23,1.32-.53a1,1,0,0,0-.75-1.85l-2.25.9Z"/><path class="a" d="M128.52,141.76a.94.94,0,0,0,.37.07,1,1,0,0,0,.37-.07l15.47-6.2,2.69-1.07,3-1.2c1.33-.53,2.26-.9,2.92-1.19,1.61-.68,1.62-.82,1.62-1.3V95.67a1,1,0,0,0-.63-.93l-15.58-6.23-2-.81-6.94-2.78-.53-.21a.94.94,0,0,0-.37-.07,4.38,4.38,0,0,0-1.1.38c-1,.39-3,1.18-7,2.77l-2,.8-15.38,6.15a1,1,0,0,0-.62.93v29.69c0,2.78,0,4.28.06,5.13.07,1,.23,1.09.57,1.24l.86.34,6,2.41,2.69,1.08Zm-23.68-11.64v-33l23,9.23v33Zm24-43.4,22.4,9-22.38,9-22.4-9Zm24.05,23.78v19.62l-23.05,9.23V106.41l23.05-9.23V110.5Z"/><g class="b"><path class="c" d="M163.48,16.41l-1.88.75v6l2.74-1.1V15.17A1.36,1.36,0,0,1,163.48,16.41Z"/><path class="c" d="M95.79,24.5V17.13L94,16.41a1.37,1.37,0,1,1,1-2.54l3.08,1.23L128.7,2.84l30.65,12.28,3.11-1.25a1.37,1.37,0,0,1,1.78.76,1.39,1.39,0,0,1,.1.53v-.07a1.35,1.35,0,0,0-.86-1.26L129.21.1a1.32,1.32,0,0,0-.51-.1c-.27,0-.27,0-34.79,13.83a1.36,1.36,0,0,0-.86,1.27v8.31Z"/><path class="c" d="M128.73,30.23h0A1.37,1.37,0,0,1,128,30l-.66-.26v7.65A5.26,5.26,0,0,1,128.7,37a1.52,1.52,0,0,1,.51.09l.86.35v-7.6l-.6.24a1.34,1.34,0,0,1-.71.21Z"/><path class="c" d="M162.46,13.87l-3.11,1.25L128.73,27.38l.54.22a1.37,1.37,0,0,1,.77,1.78,1.39,1.39,0,0,1-.57.65l.6-.24L161.6,17.16l1.88-.75a1.36,1.36,0,0,0,.86-1.24h0a1.39,1.39,0,0,0-.1-.53A1.37,1.37,0,0,0,162.46,13.87Z"/><path class="c" d="M128.7,30.24h0a1.27,1.27,0,0,1-.47-.09L128,30A1.37,1.37,0,0,0,128.7,30.24Z"/><path class="c" d="M128,30l.27.11a1.27,1.27,0,0,0,.47.09h0a1.34,1.34,0,0,0,.71-.21,1.39,1.39,0,0,0,.57-.65,1.37,1.37,0,0,0-.77-1.78l-.54-.22L98.08,15.1,95,13.87a1.37,1.37,0,1,0-1,2.54l1.81.72,31.54,12.64Z"/><path class="c" d="M49.26,40.93V36.29l-1.8-.72a1.37,1.37,0,1,1,1-2.54l3.09,1.23L82.17,22l30.65,12.28L115.94,33a1.37,1.37,0,0,1,1.78.76,1.39,1.39,0,0,1,.1.53v-.07A1.37,1.37,0,0,0,117,33c-.14,0-11.56-4.62-21.17-8.48l-2.74-1.09L82.68,19.26a1.25,1.25,0,0,0-.51-.1c-.26,0-.26,0-34.79,13.82a1.37,1.37,0,0,0-.86,1.27v5.58Z"/><path class="c" d="M117.82,41.2V34.33a1.39,1.39,0,0,1-.86,1.24l-1.88.75v6Z"/><path class="c" d="M83,49.19a1.36,1.36,0,0,1-.71.2h-.07a1.32,1.32,0,0,1-.7-.2l-.67-.27v6.26l.86-.35a1.45,1.45,0,0,1,.51-.1,6.07,6.07,0,0,1,1.37.48V49Z"/><path class="c" d="M82.21,46.54l.54.21a1.37,1.37,0,0,1,.76,1.78,1.35,1.35,0,0,1-.56.66l.59-.24,31.54-12.63,1.88-.75a1.39,1.39,0,0,0,.86-1.24h0a1.39,1.39,0,0,0-.1-.53,1.37,1.37,0,0,0-1.78-.76l-3.12,1.25Z"/><path class="c" d="M82.17,49.39h0a1.63,1.63,0,0,1-.48-.09l-.26-.11A1.32,1.32,0,0,0,82.17,49.39Z"/><path class="c" d="M81.47,49.19l.26.11a1.63,1.63,0,0,0,.48.09h0a1.37,1.37,0,0,0,1.27-.86,1.37,1.37,0,0,0-.76-1.78l-.54-.21L51.56,34.26,48.47,33a1.37,1.37,0,1,0-1,2.54l1.8.72L80.8,48.92Z"/><path class="c" d="M210,34.2l-1.88.75v6l2.74-1.1V33A1.39,1.39,0,0,1,210,34.2Z"/><path class="c" d="M161.6,23.14l-21.17,8.48a1.36,1.36,0,0,0-.86,1.27V41.2l2.74,1.09V34.92l-1.81-.72a1.37,1.37,0,1,1,1-2.54l3.08,1.23,30.62-12.26,30.65,12.28L209,31.66a1.37,1.37,0,0,1,1.88,1.28v-.06a1.39,1.39,0,0,0-.87-1.27L175.73,17.89a1.25,1.25,0,0,0-.51-.1c-.18,0-.25,0-10.88,4.25Z"/><path class="c" d="M175.26,48h0a1.33,1.33,0,0,1-.7-.21l-.67-.26v7.65a6.31,6.31,0,0,1,1.37-.48,1.45,1.45,0,0,1,.51.1l.86.35v-7.6l-.6.24a1.33,1.33,0,0,1-.7.21Z"/><path class="c" d="M209,31.66l-3.12,1.25L175.26,45.17l.54.22a1.37,1.37,0,0,1,.76,1.78,1.35,1.35,0,0,1-.57.65l.6-.24L208.13,35,210,34.2a1.39,1.39,0,0,0,.86-1.24v0A1.37,1.37,0,0,0,209,31.66Z"/><path class="c" d="M175.22,48h0a1.36,1.36,0,0,1-.48-.09l-.26-.11A1.33,1.33,0,0,0,175.22,48Z"/><path class="c" d="M173.85,47.56l.67.26.26.11a1.36,1.36,0,0,0,.48.09h0a1.45,1.45,0,0,0,1.27-.86,1.37,1.37,0,0,0-.76-1.78l-.54-.22L144.6,32.89l-3.08-1.23a1.37,1.37,0,1,0-1,2.54l1.81.72Z"/><path class="c" d="M129.21,37a1.52,1.52,0,0,0-.51-.09,5.26,5.26,0,0,0-1.37.47c-1.32.51-4,1.57-9.51,3.78l-2.74,1.09L93.91,50.77A1.37,1.37,0,0,0,93.05,52v7l2.74,1.09v-6L94,53.36a1.37,1.37,0,0,1,1-2.54l3.08,1.23L128.7,39.79l30.65,12.27,3.11-1.24a1.35,1.35,0,0,1,1.78.76,1.37,1.37,0,0,1,.1.52V52a1.37,1.37,0,0,0-.86-1.27l-21.17-8.48-2.74-1.09-9.5-3.81Z"/><path class="c" d="M163.48,53.36l-1.88.75v6L164.34,59V52.12A1.36,1.36,0,0,1,163.48,53.36Z"/><path class="c" d="M129.47,67a1.33,1.33,0,0,1-.71.2h-.06A1.36,1.36,0,0,1,128,67l-.66-.27v6.88a6.22,6.22,0,0,1,1.51-.52,1.24,1.24,0,0,1,.5.1l.73.28V66.74Z"/><path class="c" d="M128.73,64.33l.54.21a1.36,1.36,0,0,1,.2,2.44l.6-.24L161.6,54.11l1.88-.75a1.36,1.36,0,0,0,.86-1.24v0a1.37,1.37,0,0,0-.1-.52,1.35,1.35,0,0,0-1.78-.76l-3.11,1.24Z"/><path class="c" d="M128.7,67.18h0a1.28,1.28,0,0,1-.47-.1L128,67A1.36,1.36,0,0,0,128.7,67.18Z"/><path class="c" d="M127.33,66.71,128,67l.27.1a1.28,1.28,0,0,0,.47.1h0a1.33,1.33,0,0,0,.71-.2,1.36,1.36,0,0,0-.2-2.44l-.54-.21L98.08,52.05,95,50.82a1.37,1.37,0,0,0-1,2.54l1.81.72Z"/><path class="c" d="M256.53,168.3l-1.88.75v45.08l-31.53,12.63v2a1.37,1.37,0,0,1-1.37,1.37,1.32,1.32,0,0,0,.51-.1l28.92-11.58c6.21-2.49,6.21-2.49,6.21-3.42v-48A1.37,1.37,0,0,1,256.53,168.3Z"/><path class="c" d="M220.38,228.78v-2L210.87,223v3l10.37,4.15a1.25,1.25,0,0,0,.51.1A1.37,1.37,0,0,1,220.38,228.78Z"/><path class="c" d="M243.43,163.41l9,3.6,3.11-1.25a1.37,1.37,0,0,1,1.88,1.28V167a1.37,1.37,0,0,0-.86-1.27l-9.42-3.77Z"/><path class="c" d="M223.12,228.78v-47.1l-.62.25a1.38,1.38,0,0,1-.69.19h-.06a1.38,1.38,0,0,1-.69-.19l-.68-.27v47.12a1.37,1.37,0,0,0,2.74,0Z"/><path class="c" d="M255.51,165.76,252.4,167l-30.62,12.26.54.22a1.37,1.37,0,0,1,.76,1.78,1.34,1.34,0,0,1-.58.66l.62-.25,31.53-12.63,1.88-.75a1.37,1.37,0,0,0,.86-1.24v0a1.37,1.37,0,0,0-1.88-1.28Z"/><path class="c" d="M221.3,182l-.24-.1a1.38,1.38,0,0,0,.69.19h0A1.63,1.63,0,0,1,221.3,182Z"/><path class="c" d="M210.87,176.05c0,.53,0,.76-1.18,1.33l10.69,4.28.68.27.24.1a1.63,1.63,0,0,0,.48.09h0a1.38,1.38,0,0,0,.69-.19,1.34,1.34,0,0,0,.58-.66,1.37,1.37,0,0,0-.76-1.78l-.54-.22-10.91-4.37Z"/><path class="c" d="M173.85,247.94v-2l-9.37-3.76v3l10.23,4.1a1.54,1.54,0,0,0,.51.1A1.38,1.38,0,0,1,173.85,247.94Z"/><path class="c" d="M210.87,223V186.22a1.39,1.39,0,0,1-.86,1.24l-1.88.75v45.07l-31.54,12.64v2a1.37,1.37,0,0,1-1.37,1.37,1.49,1.49,0,0,0,.51-.1l28.92-11.59c6.22-2.49,6.22-2.49,6.22-3.41V223Z"/><path class="c" d="M196.91,182.57l9,3.59,3.12-1.25a1.38,1.38,0,0,1,1.88,1.29v-.06a1.39,1.39,0,0,0-.87-1.27l-9.41-3.77Z"/><path class="c" d="M176.59,247.94v-47.1l-.62.25a1.34,1.34,0,0,1-.68.19h-.07a1.34,1.34,0,0,1-.68-.19l-.69-.28v47.13a1.37,1.37,0,0,0,2.74,0Z"/><path class="c" d="M210.87,186.2a1.38,1.38,0,0,0-1.88-1.29l-3.12,1.25-30.61,12.26.54.22a1.37,1.37,0,0,1,.76,1.78,1.34,1.34,0,0,1-.59.67l.62-.25,31.54-12.63,1.88-.75a1.39,1.39,0,0,0,.86-1.24Z"/><path class="c" d="M174.78,201.18l-.24-.09a1.34,1.34,0,0,0,.68.19h0A1.17,1.17,0,0,1,174.78,201.18Z"/><path class="c" d="M176.56,200.42a1.37,1.37,0,0,0-.76-1.78l-.54-.22-10.78-4.31v.27c0,.66,0,.86-2.21,1.79l11.58,4.64.69.28.24.09a1.17,1.17,0,0,0,.48.09h0a1.41,1.41,0,0,0,1.27-.86Z"/><path class="c" d="M34.28,228.78v-2L2.74,214.13V169.05L.86,168.3A1.37,1.37,0,0,1,0,167.06v48c0,.93,0,.93,6.22,3.42l28.92,11.58a1.24,1.24,0,0,0,.5.1A1.36,1.36,0,0,1,34.28,228.78Z"/><path class="c" d="M1.88,165.76,5,167l9-3.6-3.68-1.47L.86,165.71A1.37,1.37,0,0,0,0,167v.07a1.39,1.39,0,0,1,.1-.53A1.37,1.37,0,0,1,1.88,165.76Z"/><path class="c" d="M46.52,223,37,226.76v2a1.37,1.37,0,0,1-1.37,1.37,1.25,1.25,0,0,0,.51-.1l10.37-4.15Z"/><path class="c" d="M37,228.78V181.66l-.67.27a1.41,1.41,0,0,1-.7.19h-.06a1.41,1.41,0,0,1-.7-.19l-.6-.25v47.1a1.37,1.37,0,1,0,2.73,0Z"/><path class="c" d="M.86,168.3l1.88.75,31.54,12.63.6.25a1.32,1.32,0,0,1-.57-.66,1.37,1.37,0,0,1,.76-1.78l.54-.22L5,167l-3.11-1.25a1.37,1.37,0,0,0-1.78.76,1.39,1.39,0,0,0-.1.53H0A1.37,1.37,0,0,0,.86,168.3Z"/><path class="c" d="M35.61,182.12h0a1.41,1.41,0,0,0,.7-.19l-.25.1A1.63,1.63,0,0,1,35.61,182.12Z"/><path class="c" d="M46.52,176.05V174.9l-10.91,4.37-.54.22a1.37,1.37,0,0,0-.76,1.78,1.32,1.32,0,0,0,.57.66,1.41,1.41,0,0,0,.7.19h0a1.63,1.63,0,0,0,.48-.09l.25-.1.67-.27,10.69-4.28C46.53,176.81,46.52,176.58,46.52,176.05Z"/><path class="c" d="M80.8,247.94v-2L49.26,233.28V188.21l-1.88-.75a1.36,1.36,0,0,1-.85-1.24c0,1.19,0,22.91,0,36.73v11.26c0,.92,0,.92,6.22,3.41l28.92,11.59a1.49,1.49,0,0,0,.51.1A1.37,1.37,0,0,1,80.8,247.94Z"/><path class="c" d="M93.19,242.05l-9.65,3.87v2a1.38,1.38,0,0,1-1.37,1.37,1.54,1.54,0,0,0,.51-.1L93.19,245Z"/><path class="c" d="M56.81,181.1l-9.43,3.77a1.37,1.37,0,0,0-.85,1.27v.06a1.19,1.19,0,0,1,.09-.52,1.37,1.37,0,0,1,1.78-.77l3.12,1.25,9-3.59Z"/><path class="c" d="M83.54,247.94V200.81l-.68.27a1.29,1.29,0,0,1-.69.2H82.1a1.32,1.32,0,0,1-.69-.2l-.61-.24v47.1a1.37,1.37,0,0,0,2.74,0Z"/><path class="c" d="M80.83,200.42a1.37,1.37,0,0,1,.76-1.78l.55-.21L51.52,186.16l-3.12-1.25a1.37,1.37,0,0,0-1.78.77,1.19,1.19,0,0,0-.09.52v0a1.36,1.36,0,0,0,.85,1.24l1.88.75L80.8,200.84l.61.24A1.39,1.39,0,0,1,80.83,200.42Z"/><path class="c" d="M82.14,201.28h0a1.29,1.29,0,0,0,.69-.2l-.25.1A1.37,1.37,0,0,1,82.14,201.28Z"/><path class="c" d="M94.05,195.66l-.17-.08c-.37-.21-.54-.32-.62-1.61l-11.12,4.46-.55.21a1.37,1.37,0,0,0-.76,1.78,1.39,1.39,0,0,0,.58.66,1.32,1.32,0,0,0,.69.2h0a1.37,1.37,0,0,0,.47-.1l.25-.1.68-.27,11.69-4.68Z"/><path class="c" d="M127.47,266.27v-2L95.93,251.62c0-5.06,0-29.93,0-45.11l-1.8-.72a1.37,1.37,0,1,1,1-2.54l3.08,1.23,8.93-3.58-3.68-1.47-9.42,3.77a1.37,1.37,0,0,0-.86,1.27V245.1c0,8.24,0,8.24.69,8.63l.17.08,34.28,13.73a1.25,1.25,0,0,0,.51.1A1.37,1.37,0,0,1,127.47,266.27Z"/><path class="c" d="M164.48,242.16V204.55a1.36,1.36,0,0,1-.86,1.24l-1.88.75v45.08L130.2,264.25v2a1.36,1.36,0,0,1-1.36,1.37,1.24,1.24,0,0,0,.5-.1L158.27,256c6.21-2.49,6.21-2.49,6.21-3.42V242.16Z"/><path class="c" d="M150.52,200.9l9,3.6,3.11-1.25a1.37,1.37,0,0,1,1.88,1.28v-.06a1.37,1.37,0,0,0-.86-1.27l-9.42-3.77Z"/><path class="c" d="M130.2,266.27v-47.1l-.6.25a1.41,1.41,0,0,1-.7.19h-.06a1.41,1.41,0,0,1-.7-.19l-.67-.28v47.13a1.37,1.37,0,1,0,2.73,0Z"/><path class="c" d="M164.48,204.53a1.37,1.37,0,0,0-1.88-1.28l-3.11,1.25-30.62,12.26.54.21a1.37,1.37,0,0,1,.76,1.78,1.3,1.3,0,0,1-.57.67l.6-.25,31.54-12.63,1.88-.75a1.36,1.36,0,0,0,.86-1.24Z"/><path class="c" d="M128.4,219.52l-.26-.1a1.41,1.41,0,0,0,.7.19h0A1.51,1.51,0,0,1,128.4,219.52Z"/><path class="c" d="M130.17,218.75a1.37,1.37,0,0,0-.76-1.78l-.54-.21L98.22,204.48l-3.08-1.23a1.37,1.37,0,1,0-1,2.54l1.8.72,31.55,12.63.67.28.26.1a1.51,1.51,0,0,0,.47.09h0a1.41,1.41,0,0,0,.7-.19A1.3,1.3,0,0,0,130.17,218.75Z"/><path class="c" d="M257.39,156.9v-48a1.36,1.36,0,0,1-.86,1.23l-1.88.75V156L223.12,168.6v2a1.37,1.37,0,0,1-1.37,1.36,1.52,1.52,0,0,0,.51-.09l21.17-8.49,3.68-1.47,4.07-1.63C257.39,157.82,257.39,157.82,257.39,156.9Z"/><path class="c" d="M220.38,170.63v-2l-9.51-3.81v3l10.37,4.16a1.44,1.44,0,0,0,.51.09A1.36,1.36,0,0,1,220.38,170.63Z"/><path class="c" d="M243.43,105.26l9,3.59,3.11-1.25a1.37,1.37,0,0,1,1.78.76,1.42,1.42,0,0,1,.1.53v-.06a1.37,1.37,0,0,0-.86-1.27l-9.42-3.77Z"/><path class="c" d="M223.12,123.53l-.61.24a1.42,1.42,0,0,1-.7.2h-.06a1.42,1.42,0,0,1-.7-.2l-.67-.27v47.13a1.37,1.37,0,0,0,2.74,0v-47.1Z"/><path class="c" d="M255.51,107.6l-3.11,1.25-30.62,12.26.54.22a1.37,1.37,0,0,1,.76,1.78,1.32,1.32,0,0,1-.57.66l.61-.24,31.53-12.64,1.88-.75a1.36,1.36,0,0,0,.86-1.23v0a1.42,1.42,0,0,0-.1-.53A1.37,1.37,0,0,0,255.51,107.6Z"/><path class="c" d="M221.3,123.87l-.25-.1a1.42,1.42,0,0,0,.7.2h0A1.36,1.36,0,0,1,221.3,123.87Z"/><path class="c" d="M210.87,117.9c0,.53,0,.76-1.18,1.32l10.69,4.28.67.27.25.1a1.36,1.36,0,0,0,.48.09h0a1.42,1.42,0,0,0,.7-.2,1.32,1.32,0,0,0,.57-.66,1.37,1.37,0,0,0-.76-1.78l-.54-.22-10.91-4.37Z"/><path class="c" d="M173.85,189.78v-2L164.48,184v3l10.23,4.09a1.32,1.32,0,0,0,.51.1A1.37,1.37,0,0,1,173.85,189.78Z"/><path class="c" d="M210.87,128.06a1.39,1.39,0,0,1-.86,1.24l-1.88.75v45.08l-31.54,12.63v2a1.37,1.37,0,0,1-1.37,1.37,1.29,1.29,0,0,0,.51-.1l21.18-8.48,3.68-1.47,4.06-1.63c2.66-1.06,4.17-1.67,5-2.09,1.17-.57,1.18-.8,1.18-1.33v-48Z"/><path class="c" d="M196.91,124.42l9,3.59,3.12-1.25a1.37,1.37,0,0,1,1.78.76,1.39,1.39,0,0,1,.1.53V128a1.37,1.37,0,0,0-.87-1.26l-9.41-3.78Z"/><path class="c" d="M176.59,142.68l-.6.24a1.33,1.33,0,0,1-.7.21h-.07a1.33,1.33,0,0,1-.7-.21l-.67-.26v47.12a1.37,1.37,0,0,0,2.74,0v-47.1Z"/><path class="c" d="M209,126.76,205.87,128l-30.61,12.26.54.22a1.37,1.37,0,0,1,.76,1.78,1.3,1.3,0,0,1-.57.65l.6-.24,31.54-12.63,1.88-.75a1.39,1.39,0,0,0,.86-1.24h0a1.39,1.39,0,0,0-.1-.53A1.37,1.37,0,0,0,209,126.76Z"/><path class="c" d="M174.78,143l-.26-.11a1.33,1.33,0,0,0,.7.21h0A1.36,1.36,0,0,1,174.78,143Z"/><path class="c" d="M174.52,142.92l.26.11a1.36,1.36,0,0,0,.48.09h0a1.33,1.33,0,0,0,.7-.21,1.3,1.3,0,0,0,.57-.65,1.37,1.37,0,0,0-.76-1.78l-.54-.22L164.48,136v.28c0,.65,0,.85-2.21,1.79l11.58,4.64Z"/><path class="c" d="M1.88,107.6,5,108.85l9-3.59-3.68-1.47L.86,107.56A1.37,1.37,0,0,0,0,108.83v.06a1.46,1.46,0,0,1,.1-.53A1.37,1.37,0,0,1,1.88,107.6Z"/><path class="c" d="M46.52,167.74v-3L37,168.6v2A1.36,1.36,0,0,1,35.64,172a1.44,1.44,0,0,0,.51-.09Z"/><path class="c" d="M14,163.41l21.18,8.49a1.43,1.43,0,0,0,.5.09,1.36,1.36,0,0,1-1.36-1.36v-2L2.74,156V110.89l-1.88-.75A1.36,1.36,0,0,1,0,108.9v48c0,.92,0,.92,6.22,3.41l4.06,1.63Z"/><path class="c" d="M37,170.63V123.5l-.66.26a1.34,1.34,0,0,1-.71.21h-.06a1.37,1.37,0,0,1-.71-.21l-.59-.23v47.1a1.37,1.37,0,0,0,2.73,0Z"/><path class="c" d="M.86,110.14l1.88.75,31.54,12.64.59.23a1.29,1.29,0,0,1-.56-.65,1.37,1.37,0,0,1,.76-1.78l.54-.22L5,108.85,1.88,107.6a1.37,1.37,0,0,0-1.78.76,1.46,1.46,0,0,0-.1.53H0A1.36,1.36,0,0,0,.86,110.14Z"/><path class="c" d="M35.61,124h0a1.34,1.34,0,0,0,.71-.21l-.26.11A1.36,1.36,0,0,1,35.61,124Z"/><path class="c" d="M35.61,124a1.36,1.36,0,0,0,.48-.09l.26-.11.66-.26,10.69-4.28c-1.17-.56-1.18-.79-1.18-1.32v-1.16l-10.91,4.37-.54.22a1.37,1.37,0,0,0-.76,1.78,1.29,1.29,0,0,0,.56.65,1.37,1.37,0,0,0,.71.21Z"/><path class="c" d="M60.49,182.57l21.17,8.48a1.29,1.29,0,0,0,.51.1,1.37,1.37,0,0,1-1.37-1.37v-2L49.26,175.13V130.05l-1.88-.75a1.36,1.36,0,0,1-.85-1.24c0,1.18,0,22.92,0,36.73v11.26c0,.53,0,.76,1.18,1.33.87.42,2.38,1,5,2.09l4.07,1.63Z"/><path class="c" d="M48.4,126.76,51.52,128l9-3.59-3.68-1.48-9.43,3.78a1.35,1.35,0,0,0-.85,1.26v.07a1.21,1.21,0,0,1,.09-.53A1.37,1.37,0,0,1,48.4,126.76Z"/><path class="c" d="M83.54,189.78a1.37,1.37,0,0,1-1.37,1.37,1.32,1.32,0,0,0,.51-.1l10.51-4.21V183.9l-9.65,3.86Z"/><path class="c" d="M82.17,143.13H82.1a1.4,1.4,0,0,1-.71-.21l-.59-.24v47.1a1.37,1.37,0,0,0,2.74,0V142.66l-.66.26A1.4,1.4,0,0,1,82.17,143.13Z"/><path class="c" d="M80.8,142.68l.59.24a1.43,1.43,0,0,1-.56-.65,1.37,1.37,0,0,1,.76-1.78l.55-.22L51.52,128l-3.12-1.25a1.37,1.37,0,0,0-1.78.76,1.21,1.21,0,0,0-.09.53h0a1.36,1.36,0,0,0,.85,1.24l1.88.75Z"/><path class="c" d="M82.88,142.92l-.27.11a1.35,1.35,0,0,1-.47.09h0A1.4,1.4,0,0,0,82.88,142.92Z"/><path class="c" d="M81.59,140.49a1.37,1.37,0,0,0-.76,1.78,1.43,1.43,0,0,0,.56.65,1.4,1.4,0,0,0,.71.21h0a1.35,1.35,0,0,0,.47-.09l.27-.11.66-.26L95.23,138l-1.18-.47c-.47-.2-.68-.3-.78-1.69l-11.13,4.46Z"/><path class="c" d="M128.33,209.39a1.44,1.44,0,0,0,.51.09,1.36,1.36,0,0,1-1.37-1.36v-2L95.93,193.46c0-5.06,0-29.93,0-45.1l-1.8-.73a1.37,1.37,0,0,1,1-2.54l3.08,1.24,8.93-3.58-3.68-1.48-9.42,3.78a1.37,1.37,0,0,0-.86,1.27V187c0,3.85,0,5.89.07,7,.08,1.29.25,1.4.62,1.61l.17.08,1.18.47,8.24,3.3,3.68,1.47Z"/><path class="c" d="M162.6,145.09a1.37,1.37,0,0,1,1.78.76,1.42,1.42,0,0,1,.1.53v-.07a1.36,1.36,0,0,0-.86-1.26l-9.42-3.78-3.68,1.48,9,3.59Z"/><path class="c" d="M164.48,184V146.4a1.35,1.35,0,0,1-.86,1.23l-1.88.76v45.07L130.2,206.09v2a1.36,1.36,0,0,1-1.36,1.36,1.43,1.43,0,0,0,.5-.09l21.18-8.49,3.68-1.47,4.07-1.63c1.82-.73,3.09-1.24,4-1.63,2.2-.93,2.21-1.13,2.21-1.79V184Z"/><path class="c" d="M130.2,208.12V161l-.6.24a1.42,1.42,0,0,1-.7.2h-.06a1.42,1.42,0,0,1-.7-.2l-.67-.27v47.13a1.37,1.37,0,0,0,2.73,0Z"/><path class="c" d="M164.48,146.38a1.42,1.42,0,0,0-.1-.53,1.37,1.37,0,0,0-1.78-.76l-3.11,1.25L128.87,158.6l.54.22a1.36,1.36,0,0,1,.76,1.78,1.32,1.32,0,0,1-.57.66l.6-.24,31.54-12.63,1.88-.76a1.35,1.35,0,0,0,.86-1.23Z"/><path class="c" d="M128.4,161.36l-.26-.1a1.42,1.42,0,0,0,.7.2h0A1.27,1.27,0,0,1,128.4,161.36Z"/><path class="c" d="M127.47,161l.67.27.26.1a1.27,1.27,0,0,0,.47.09h0a1.42,1.42,0,0,0,.7-.2,1.32,1.32,0,0,0,.57-.66,1.36,1.36,0,0,0-.76-1.78l-.54-.22L98.22,146.33l-3.08-1.24a1.37,1.37,0,0,0-1,2.54l1.8.73Z"/><path class="c" d="M256.53,52l-1.88.75V97.81l-31.53,12.64v2a1.37,1.37,0,0,1-.84,1.26l21.15-8.47,3.68-1.47,4.07-1.63c6.21-2.49,6.21-2.49,6.21-3.42v-48A1.37,1.37,0,0,1,256.53,52Z"/><path class="c" d="M208.13,40.93,187,49.4a1.37,1.37,0,0,0-.86,1.27V59l2.73,1.1V52.71L187,52a1.37,1.37,0,1,1,1-2.54l3.08,1.23,30.62-12.26L252.4,50.7l3.11-1.25a1.37,1.37,0,0,1,1.88,1.28v-.06a1.37,1.37,0,0,0-.86-1.27L222.26,35.68a1.32,1.32,0,0,0-.51-.1c-.18,0-.26,0-10.88,4.25Z"/><path class="c" d="M221.75,113.84a1.41,1.41,0,0,1-.54-.11h0A1.25,1.25,0,0,0,221.75,113.84Z"/><path class="c" d="M222.28,113.73a1.32,1.32,0,0,1-.53.11,1.32,1.32,0,0,0,.51-.1Z"/><path class="c" d="M210.87,109.59l10.34,4.14a1.36,1.36,0,0,1-.83-1.26v-2l-9.51-3.81Z"/><path class="c" d="M221.78,65.81h0a1.32,1.32,0,0,1-.7-.2l-.67-.27v47.13a1.36,1.36,0,0,0,.83,1.26h0a1.41,1.41,0,0,0,.54.11,1.32,1.32,0,0,0,.53-.11h0a1.37,1.37,0,0,0,.84-1.26V65.37l-.61.24a1.32,1.32,0,0,1-.7.2Z"/><path class="c" d="M255.51,49.45,252.4,50.7,221.78,63l.54.22a1.36,1.36,0,0,1,.76,1.77,1.32,1.32,0,0,1-.57.66l.61-.24,31.53-12.63,1.88-.75a1.37,1.37,0,0,0,.86-1.24v0a1.37,1.37,0,0,0-1.88-1.28Z"/><path class="c" d="M221.75,65.81h0a1.63,1.63,0,0,1-.48-.09l-.25-.11A1.32,1.32,0,0,0,221.75,65.81Z"/><path class="c" d="M220.38,65.34l.67.27.25.11a1.63,1.63,0,0,0,.48.09h0a1.4,1.4,0,0,0,1.27-.86,1.36,1.36,0,0,0-.76-1.77l-.54-.22L191.13,50.68l-3.08-1.23A1.37,1.37,0,1,0,187,52l1.8.72Z"/><path class="c" d="M175.73,54.83a1.45,1.45,0,0,0-.51-.1,6.31,6.31,0,0,0-1.37.48c-1.31.51-4,1.57-9.51,3.78l-2.74,1.09-21.17,8.48a1.37,1.37,0,0,0-.86,1.27v7.43l2.74,1.1V71.87l-1.81-.73a1.37,1.37,0,0,1,1-2.54l3.08,1.24,30.62-12.26,30.65,12.27L209,68.6a1.38,1.38,0,0,1,1.88,1.29v-.06a1.39,1.39,0,0,0-.87-1.27l-21.17-8.48L186.1,59l-9.51-3.8Z"/><path class="c" d="M175.73,132.9h0a1.32,1.32,0,0,1-.53.11A1.49,1.49,0,0,0,175.73,132.9Z"/><path class="c" d="M173.85,131.63v-2l-9.37-3.76v3l10.21,4.09A1.38,1.38,0,0,1,173.85,131.63Z"/><path class="c" d="M174.71,132.9a1.54,1.54,0,0,0,.51.1,1.32,1.32,0,0,1-.53-.11Z"/><path class="c" d="M210,71.14l-1.88.76V117l-31.54,12.64v2a1.37,1.37,0,0,1-.83,1.26l21.15-8.47,3.68-1.48,4.06-1.63c2.66-1.06,4.17-1.67,5-2.09,1.17-.56,1.18-.79,1.18-1.32v-48A1.38,1.38,0,0,1,210,71.14Z"/><path class="c" d="M173.85,131.63a1.38,1.38,0,0,0,.84,1.26h0a1.33,1.33,0,0,0,1.06,0h0a1.37,1.37,0,0,0,.83-1.26V84.53l-.6.24a1.32,1.32,0,0,1-.7.2h-.07a1.32,1.32,0,0,1-.7-.2l-.67-.27v47.13Z"/><path class="c" d="M175.26,82.11l.54.22a1.36,1.36,0,0,1,.19,2.44l.6-.24L208.13,71.9l1.88-.76a1.38,1.38,0,0,0,.86-1.23v0A1.38,1.38,0,0,0,209,68.6l-3.12,1.25Z"/><path class="c" d="M175.22,85h0a1.36,1.36,0,0,1-.48-.09l-.26-.1A1.32,1.32,0,0,0,175.22,85Z"/><path class="c" d="M173.85,84.5l.67.27.26.1a1.36,1.36,0,0,0,.48.09h0a1.32,1.32,0,0,0,.7-.2,1.36,1.36,0,0,0-.19-2.44l-.54-.22L144.6,69.84l-3.08-1.24a1.37,1.37,0,0,0-1,2.54l1.81.73Z"/><path class="c" d="M1.88,49.45,5,50.7,35.65,38.42,66.26,50.68l3.09-1.23a1.37,1.37,0,0,1,1,2.54l-1.8.72v7.37L71.29,59V50.67a1.37,1.37,0,0,0-.86-1.27L49.26,40.93l-2.74-1.1c-10.62-4.25-10.69-4.25-10.88-4.25a1.24,1.24,0,0,0-.5.1L.86,49.4A1.37,1.37,0,0,0,0,50.67v.07a1.39,1.39,0,0,1,.1-.53A1.36,1.36,0,0,1,1.88,49.45Z"/><path class="c" d="M36.15,113.74h0a1.41,1.41,0,0,1-.54.11A1.25,1.25,0,0,0,36.15,113.74Z"/><path class="c" d="M35.14,113.74a1.24,1.24,0,0,0,.5.1,1.4,1.4,0,0,1-.53-.11Z"/><path class="c" d="M14,105.26l21.15,8.47a1.36,1.36,0,0,1-.83-1.26v-2L2.74,97.81V52.74L.86,52A1.37,1.37,0,0,1,0,50.75v48c0,.93,0,.93,6.22,3.42l4.06,1.63Z"/><path class="c" d="M46.52,106.64,37,110.45v2a1.36,1.36,0,0,1-.83,1.26l10.34-4.14Z"/><path class="c" d="M35.64,113.84a1.41,1.41,0,0,0,.54-.11h0a1.36,1.36,0,0,0,.83-1.26V65.34l-.66.27a1.33,1.33,0,0,1-.71.2h-.06a1.36,1.36,0,0,1-.71-.2l-.59-.24v47.1a1.36,1.36,0,0,0,.83,1.26h0A1.4,1.4,0,0,0,35.64,113.84Z"/><path class="c" d="M.86,52l1.88.75L34.28,65.37l.59.24a1.36,1.36,0,0,1,.2-2.43l.54-.22L5,50.7,1.88,49.45a1.36,1.36,0,0,0-1.78.76,1.39,1.39,0,0,0-.1.53H0A1.37,1.37,0,0,0,.86,52Z"/><path class="c" d="M35.61,65.81h0a1.33,1.33,0,0,0,.71-.2l-.26.11A1.63,1.63,0,0,1,35.61,65.81Z"/><path class="c" d="M35.61,65.81a1.63,1.63,0,0,0,.48-.09l.26-.11.66-.27L68.56,52.71l1.8-.72a1.37,1.37,0,0,0-1-2.54l-3.09,1.23L35.61,63l-.54.22a1.36,1.36,0,0,0,.51,2.63Z"/><path class="c" d="M56.81,122.94l3.68,1.48,21.15,8.47a1.37,1.37,0,0,1-.84-1.26v-2L49.26,117V71.9l-1.88-.76a1.35,1.35,0,0,1-.85-1.23c0,1.18,0,22.91,0,36.73V117.9c0,.53,0,.76,1.18,1.32.87.42,2.38,1,5,2.09Z"/><path class="c" d="M81.66,132.9a1.49,1.49,0,0,0,.51.1,1.32,1.32,0,0,1-.53-.11Z"/><path class="c" d="M82.68,132.9h0a1.32,1.32,0,0,1-.53.11A1.54,1.54,0,0,0,82.68,132.9Z"/><path class="c" d="M47.38,68.56a1.37,1.37,0,0,0-.85,1.27v.06a1.19,1.19,0,0,1,.09-.52,1.37,1.37,0,0,1,1.78-.77l3.12,1.25L82.17,57.58l30.62,12.26,3.08-1.24a1.37,1.37,0,0,1,1,2.54l-1.81.73v6.6l2.74-1.09V69.83a1.37,1.37,0,0,0-.86-1.27L95.79,60.08,93.05,59c-5.52-2.21-8.19-3.27-9.51-3.78a6.07,6.07,0,0,0-1.37-.48,1.45,1.45,0,0,0-.51.1l-.86.35L71.29,59l-2.73,1.1Z"/><path class="c" d="M83.54,131.63a1.38,1.38,0,0,1-.84,1.26l10.49-4.2v-3l-9.65,3.87Z"/><path class="c" d="M82.17,133a1.32,1.32,0,0,0,.53-.11h0a1.38,1.38,0,0,0,.84-1.26V84.5l-.66.27a1.49,1.49,0,0,1-.71.2H82.1a1.49,1.49,0,0,1-.71-.2l-.59-.24v47.1a1.37,1.37,0,0,0,.84,1.26h0A1.32,1.32,0,0,0,82.17,133Z"/><path class="c" d="M47.38,71.14l1.88.76L80.8,84.53l.59.24a1.4,1.4,0,0,1-.56-.66,1.37,1.37,0,0,1,.76-1.78l.55-.21L51.52,69.85,48.4,68.6a1.37,1.37,0,0,0-1.78.77,1.19,1.19,0,0,0-.09.52v0A1.35,1.35,0,0,0,47.38,71.14Z"/><path class="c" d="M82.88,84.77l-.27.1a1.35,1.35,0,0,1-.47.09h0A1.49,1.49,0,0,0,82.88,84.77Z"/><path class="c" d="M82.14,82.12l-.55.21a1.37,1.37,0,0,0-.76,1.78,1.4,1.4,0,0,0,.56.66,1.49,1.49,0,0,0,.71.2h0a1.35,1.35,0,0,0,.47-.09l.27-.1.66-.27,31.54-12.63,1.81-.73a1.37,1.37,0,0,0-1-2.54l-3.08,1.24Z"/><path class="c" d="M128.33,151.23a1.25,1.25,0,0,0,.51.1,1.24,1.24,0,0,0,.5-.1l21.18-8.48,3.68-1.48,4.07-1.62c1.82-.73,3.09-1.24,4-1.63,2.2-.94,2.21-1.14,2.21-1.79V88.16a1.37,1.37,0,0,0-.86-1.27l-21.31-8.53-2.74-1.1c-4.38-1.75-8-3.21-9.5-3.81l-.73-.28a1.24,1.24,0,0,0-.5-.1,6.22,6.22,0,0,0-1.51.52l-9.51,3.79-2.74,1.09-21,8.42a1.37,1.37,0,0,0-.86,1.27v40.63c0,3.8,0,5.86.08,7,.1,1.39.31,1.49.78,1.69l1.18.47,8.24,3.3,3.68,1.48Zm-32.4-15.92c0-3.73,0-18.21,0-31.64V90.2l31.55,12.63v45.11Zm32.91-59.4,30.65,12.28-30.62,12.26L98.22,88.17Zm32.9,32.54V135.3L130.2,147.94V102.86l31.54-12.63v18.22Z"/></g></svg>