<?xml version="1.0" encoding="utf-8"?>
<!-- Generator: Adobe Illustrator 22.0.1, SVG Export Plug-In . SVG Version: 6.00 Build 0)  -->
<svg version="1.1" id="Layer_1" xmlns="http://www.w3.org/2000/svg" xmlns:xlink="http://www.w3.org/1999/xlink" x="0px" y="0px"
	 viewBox="0 0 532.1 138.6" style="enable-background:new 0 0 532.1 138.6;" xml:space="preserve">
<style type="text/css">
	.st0{display:none;}
	.st1{display:inline;}
	.st2{fill:#FFFFFF;}
</style>
<g id="aRW4Wz.tif" class="st0">
	<g class="st1">
		<g>
			<path class="st2" d="M457.6,110c-3.7,0-7.3,0-11,0c0-7.3,0-14.5,0-21.8c-0.7,0-1.4,0-2.1,0c0,5.5,0,11,0,16.5
				c-5.7-5.3-8.3-12.4-13.6-17.2c-0.4,0.3-0.9,0.5-1.3,0.8c0,7.2,0,14.5,0,21.7c-1.3,0-2.7,0-4,0c-3-7.5-5.9-15-8.9-22.4
				c-0.6,0.1-1.3,0.2-1.9,0.2c-3.1,7.4-6.1,14.8-9.2,22.2c-3.7,0-7.3,0-11,0c0-3.3,0-6.5,0-9.7c9.1-0.7,11.7-2.5,10.9-7.3
				c-0.7-4.5-5-5.9-12.9-4.2c0,7.1,0,14.2,0,21.3c-2,0-4,0-6,0c0-7.2,0-14.5,0-23.3c-7.1,4.9-6.1,13.1-10.6,18.2
				c-1.4-3.3-2.7-6.5-4-9.6c-2.8-7-2.8-7-6.4-6.7c0,7.1,0,14.2,0,21.4c-3.7,0-7.3,0-11,0c0.7-0.6,1.5-1.2,2.2-1.8
				c4.9-3.7,6.2-9.6,3.5-14.6c-2.7-4.8-8.5-6.9-13.8-4.9c-5.4,2-8.7,7.6-6.6,13.3c1.1,3.1,4.4,5.4,6.7,8.1c-4.7,0-9.3,0-14,0
				c1.6-0.9,3.2-1.7,4.9-2.6c-0.5-0.8-1-1.6-1.5-2.4c-5,3.2-10,4.9-14.1-0.4c-2.4-3.2-2.7-6.9-0.6-10.3c3.7-6,8.9-4.8,14.4-2.1
				c-0.5-1.4-0.9-2.3-1.6-2.7c-6.5-4.1-15.4,0.3-16.3,7.9c-0.8,6,2.5,9.6,6.9,12.7c-7.7,0-15.3,0-23,0c-1.9-8.7,3.4-14.9,7.7-21.5
				c-0.5-0.3-1-0.7-1.5-1c-2.4,3.4-4.7,6.7-7.5,10.6c-1.4-2.4-2.5-4.4-3.8-6.2c-1.1-1.5-2.4-2.7-3.6-4c-0.4,0.3-0.8,0.6-1.2,0.9
				c4.7,6.3,9,12.8,7.9,21.2c-4.3,0-8.7,0-13,0c4.9-2.6,3.2-6.7,3-10.5c-2.5,0-4.7,0-6.8,0c0,0.3-0.1,0.6-0.1,0.9
				c1.6,0.4,3.2,0.8,4.7,1.1c0,1.9,0,3.5,0,5.2c-4.4,2.1-9,2.3-12-1.5c-1.7-2.2-2.6-6.4-1.7-9.1c2.5-8,9-6.6,15.4-4.4
				c-5.4-5.9-14.2-4.4-17.4,2.4c-2.8,5.9-1,10.8,5.9,15.9c-3.3,0-6.7,0-10,0c-3.7-1-7.4-2-11.4-3c0-1.9,0-4.3,0-6.8
				c3.5-0.2,6.6-0.4,9.7-0.5c0-0.5,0-0.9,0-1.4c-3.2-0.2-6.3-0.3-9.7-0.5c0-2.6,0-5,0-7.5c3.7-0.3,7-0.5,10.4-0.7
				c0-0.4-0.1-0.8-0.1-1.2c-4.2,0-8.3,0-12.9,0c0,7.4,0,14.5,0,21.7c-3.3,0-6.7,0-10,0c0-6.6,0-13.2,0-19.6c3-0.4,5-0.6,7-0.9
				c0-0.3-0.1-0.6-0.1-0.9c-5.2,0-10.4,0-15.6,0c0,0.3,0,0.7,0,1c2.2,0.2,4.3,0.4,6.8,0.6c0,6.8,0,13.2,0,19.7c-2.3,0-4.7,0-7,0
				c-3-7.5-5.9-15-8.9-22.4c-0.6,0.1-1.3,0.2-1.9,0.2c-3.1,7.4-6.1,14.8-9.2,22.2c-0.3,0-0.7,0-1,0c-1.8-3.1-3.7-6.3-5.6-9.6
				c3.8-2.1,6.5-5.1,4.1-9.2c-2.9-5.1-8.1-2.6-12.5-3.1c0,7.7,0,14.8,0,21.9c-3.7,0-7.3,0-11,0c0-6.6,0-13.2,0-19.6
				c3-0.4,5-0.6,7-0.9c0-0.3-0.1-0.6-0.1-0.9c-5.2,0-10.4,0-15.6,0c0,0.3,0,0.7,0,1c2.2,0.2,4.4,0.4,6.8,0.6c0,6.8,0,13.2,0,19.7
				c-4,0-8,0-12,0c4.6-5.5,4.3-9.2-0.9-11.5c-1.1-0.5-2.5-0.6-3.2-1.3c-1.3-1.3-2.2-3-3.3-4.6c1.9-0.8,3.8-2,5.8-2.4
				c1.1-0.2,2.4,0.8,3.6,1.2c0.1-0.4,0.3-0.9,0.4-1.3c-2.5-2.4-5.7-3-8.7-1.4c-1.7,0.9-3.9,3.9-3.4,5.1c0.8,2.2,3.3,3.9,5.3,5.7
				c0.4,0.4,1.5,0.2,1.8,0.6c1.1,1.7,2.1,3.5,3.1,5.2c-2.1,0.7-4.3,1.7-6.4,2c-1.1,0.1-2.3-1.1-3.5-1.7c-0.7,0.8-1.4,1.6-2.1,2.4
				c1.5,0.6,3,1.3,4.5,1.9c-7,0-14,0-21,0c1.1-0.9,2.3-1.7,3.4-2.7c3.6-3.2,4.5-7.4,3.1-11.8c-1.2-4.1-4.3-6.8-8.6-7.3
				c-2.9-0.4-5.9-0.1-8.9-0.1c0,7.7,0,14.8,0,21.9c-3.3,0-6.7,0-10,0c4.2-5,5.6-16.5,2.1-22.8c-0.2,2.5-0.4,4-0.4,5.6
				c-0.1,3.3,0.1,6.7-0.2,9.9c-0.3,3.1-2.1,5.3-5.5,5.3c-3.4,0-5.2-2.2-5.5-5.3c-0.3-3.8-0.1-7.6-0.2-11.4c0-1.1-0.5-2.1-0.7-3.2
				c-0.5,0.1-1,0.2-1.5,0.3c0.8,7.3-2.6,15.2,3.9,21.6c-5,0-10,0-15,0c0.7-0.6,1.5-1.2,2.2-1.8c4.9-3.7,6.2-9.6,3.5-14.6
				c-2.7-4.8-8.5-6.9-13.8-4.9c-5.4,2-8.7,7.6-6.6,13.3c1.1,3.1,4.4,5.4,6.7,8.1c-3,0-6,0-9,0c-3.1-1-6.2-2-10.3-3.3
				c0-5.6,0-12.1,0-18.5c-0.6,0-1.1,0-1.7,0c0,7.3,0,14.5,0,21.8c-2.7,0-5.3,0-8,0c1.6-0.9,3.2-1.7,4.9-2.6c-0.5-0.9-1-1.7-1.5-2.6
				c-5,3.7-10,5-14.1-0.2c-2.5-3.1-2.7-6.9-0.6-10.3c3.7-6,8.9-4.8,14.4-2.1c-0.5-1.4-0.9-2.3-1.6-2.7c-6.5-4.1-15.4,0.3-16.3,7.9
				c-0.8,6,2.5,9.6,6.9,12.7c-6,0-12,0-18,0c-0.8-0.7-1.6-1.8-2.5-1.9c-2.7-0.2-5.5-0.1-8.2-0.1c0-3,0-5.4,0-7.8
				c3.4-0.2,6.5-0.4,9.6-0.6c0-0.5,0-0.9,0-1.4c-3.3-0.1-6.6-0.3-9.7-0.4c0-2.9,0-5.1,0-7.6c3.7-0.2,7.1-0.3,10.6-0.5
				c0-0.4,0-0.8-0.1-1.2c-4.2,0-8.5,0-12.8,0c-0.1,1.5-0.2,2.8-0.2,4.1c0.1,5.8,0.2,11.6,0.3,17.4c-2,0-4,0-6,0c0-7.3,0-14.5,0-21.8
				c-0.6,0-1.1,0-1.7-0.1c-0.2,3.3-0.3,6.5-0.5,9.6c-4,0-7.5,0-11.1,0c-0.3-3.4-0.6-6.5-0.9-9.7c-0.6,0-1.2,0.1-1.8,0.1
				c0,7.3,0,14.5,0,21.8c-3.3,0-6.7,0-10,0c0-6.6,0-13.2,0-19.7c2.7-0.3,4.8-0.5,6.9-0.7c-0.1-0.4-0.1-0.7-0.2-1.1
				c-5.2,0-10.4,0-15.6,0c0,0.4-0.1,0.7-0.1,1.1c2.1,0.3,4.2,0.5,7,0.9c0,6.7,0,13.1,0,19.6c-5.3,0-10.7,0-16,0c0-45,0-89.9,0-135
				c170.7,0,341.3,0,512,0c0,31.3,0,62.6,0,93.9c-2.5-0.1-5-0.3-7.5-0.3c-165.3,0-330.5,0-495.8,0c-1.7,0-3.3-0.1-5,0.1
				c-1,0.1-1.9,0.8-2.8,1.2c0,0.5,0,1.1,0.1,1.6c2.2,0.2,4.5,0.6,6.7,0.6c165.9,0,331.9,0,497.8,0c2.2,0,4.3-0.2,6.5-0.3
				c0,12.7,0,25.3,0,38c-9.7,0-19.3,0-29,0c-1.2-8.5,3.5-15,8-21.5c-0.6-0.4-1.2-0.7-1.7-1.1c-2.3,3.5-4.5,6.9-7.1,10.8
				c-1.5-2.4-2.6-4.4-4-6.3c-1.1-1.5-2.4-2.8-3.6-4.1c-0.4,0.3-0.8,0.6-1.2,0.9C454.5,95.1,459.4,101.4,457.6,110z M428.1,56
				C428.1,56,428.1,56,428.1,56c10.8,0,21.7,0,32.5,0c0.5,0,1,0,1.5,0c11.1-0.3,20.5-7,23.9-17.3c3.5-10.3-0.1-20.8-9.1-28
				c-1.6-1.3-3-3.4-3.7-5.4c-3.6-10.3-13.3-17.5-24.1-16.7c-3.7,0.3-6-0.7-8.6-3.2c-10.2-9.7-22.4-12.1-35.6-7.4
				c-13.3,4.7-20.7,14.5-22.4,28.6c-0.2,1.5-1.4,3.3-2.6,4.3c-9.1,7.4-12.4,17.7-8.9,28c3.5,10.1,13,16.9,24.1,17
				C406.1,56.1,417.1,56,428.1,56z M142.2,54c9.6,0.2,18.6-1.9,26.5-7.3c11.4-7.7,17-18.6,15.7-32.4c-1.3-12.8-8.9-21.2-20.6-25.9
				c-12-4.8-24.3-5.3-36.6-1.3c-20.4,6.6-30.6,27.3-22.4,45.4C112.1,48.4,125.9,53.5,142.2,54z M27.7-13.7
				c10.1,0.3,11.5,8.9,14.7,15.4C49.9,17.3,57.2,33,64.6,48.6c0.9,2,2.3,3.8,3.9,6.5c1.7-2.8,2.9-4.5,3.9-6.4
				c7.9-15.9,15.7-31.9,23.7-47.8c3-6,4.5-13.4,13.4-14.4c-6.6-0.6-12.8-0.6-19-0.6c-0.7,0-1.4,0.2-2.9,0.4c6.7,2.8,6.9,2.8,4.1,9.2
				c-5.9,13.4-12,26.7-18,40c-0.7,1.5-1.6,2.9-2.8,5.1C63,22.9,55.5,6,48-11.2c2.6-0.8,4.3-1.3,6-1.9c-0.1-0.2-0.2-0.4-0.3-0.6
				C45-13.7,36.4-13.7,27.7-13.7z M294.6-11.5c-6.7,18-14.9,34.8-23.4,52.5c-7.9-18.1-15.3-35-22.9-52.3c2.6-0.7,4.3-1.2,5.9-1.6
				c0-0.2-0.1-0.5-0.1-0.7c-8.7,0-17.3,0-26,0c9.1,0.2,10.9,7.4,13.9,13.7c7.5,16.1,15.1,32.1,22.8,48.2c1,2.1,2.4,4,4.1,6.9
				c1.7-2.9,3-4.6,3.9-6.5c8-16.1,15.9-32.2,23.9-48.2c2.9-5.9,4.5-13.1,12.9-13.9c-7,0-13.9,0-20.9,0c0,0.3,0,0.5,0,0.8
				C290.3-12.4,291.8-12.1,294.6-11.5z M-3.1-10c4.8,0,9.1-0.1,13.4,0c4.8,0.2,9.9,0.2,11.7,6.8c0.5-3.7,1-7.5,1.5-10.7
				c-15.1,0-29.8,0-44.4,0c7.9,3.7,7.9,3.7,7.9,13.3c0,14.2-0.1,28.3-0.2,42.5c0,4.7,0.1,9.4-6.6,10.3c1.5,0.5,2.7,0.7,3.9,0.8
				C-4.8,52.9,6.4,53,17.6,53c7.1,0,10.2-4.9,7.2-12.4c-0.9,5.4-3.9,8.1-8.9,8.3c-4.2,0.1-8.3,0.2-12.5,0c-3.2-0.1-6.2-1.3-6.3-5
				C-3.2,35.8-3,27.7-3,19.6c4.6,0,8.7,0,12.8,0c4.6,0,9,0.2,10.5,6c0.5-4,1-8,1.4-11.2c-8.4,0-16.5,0-24.8,0
				C-3.1,6.6-3.1-1.4-3.1-10z M356.7-13.9c-15.3,0-29.9,0-44.5,0c-0.3,0.5-0.5,1-0.8,1.5c6.4-0.7,9,1.9,8.9,7.8
				c-0.3,15.5-0.1,31-0.4,46.4c-0.1,4.4,0.9,9.8-6.6,10.3c1.7,0.6,2.7,0.8,3.8,0.8c11.2,0.1,22.3,0.1,33.5,0.1
				c7.3,0,10.2-4.3,7.6-12.5c-1.3,5.4-4.2,8.4-9.4,8.5c-4,0.1-8,0.4-12-0.1c-2.2-0.3-5.8-2.1-5.9-3.3c-0.5-8.7-0.3-17.4-0.3-25.9
				c4.4,0,8.4-0.1,12.3,0c4.5,0.1,9.3-0.3,9.5,7.1c0.4-0.3,0.8-0.7,1.2-1c0.4-4.1,0.9-8.1,1.2-11.3c-8.5,0-16.4,0-24.5,0
				c0-7.9,0-16,0-24.4c4.6,0,8.9-0.1,13.2,0c4.8,0.2,9.8,0.3,11.6,6.7C355.6-6.9,356.2-10.5,356.7-13.9z M187.1-13.7
				c7.7,3.1,7.9,3.1,7.9,11.7c0.1,14.5-0.1,29-0.2,43.5c0,4.7,0.7,10-6.8,10.7c1.5,0.6,2.4,0.8,3.3,0.8c12.7,0.1,25.3,0.1,38,0.1
				c7,0,10.1-5.3,7.8-10.8c-3.1,2.1-6.1,5.6-9.7,6.4c-4.9,1.1-10.3,0.4-15.4,0.1c-4.3-0.2-6.6-2.4-6.6-7
				c-0.1-14.3-0.4-28.6-0.5-42.9c-0.1-5.5-1.1-11.7,7.3-12.5C203.7-13.7,195.4-13.7,187.1-13.7z M476.7,93.8c2.1,0,4,0,5.7,0
				c0-1.7,0-3.5,0-6.6c-1.3,2-1.9,3-2.6,4.3c-1-1.2-1.8-2.2-3.1-3.8C476.7,90.4,476.7,92.3,476.7,93.8z"/>
			<path d="M488.6,72c-2.2,0.1-4.3,0.3-6.5,0.3c-165.9,0-331.9,0-497.8,0c-2.2,0-4.5-0.4-6.7-0.6c0-0.5,0-1.1-0.1-1.6
				c0.9-0.4,1.8-1,2.8-1.2c1.6-0.2,3.3-0.1,5-0.1c165.3,0,330.5,0,495.8,0c2.5,0,5,0.2,7.5,0.3C488.6,70,488.6,71,488.6,72z"/>
			<path d="M365.6,110c0-7.1,0-14.3,0-21.4c3.5-0.3,3.5-0.3,6.4,6.7c1.3,3.2,2.6,6.4,4,9.6c4.5-5.1,3.5-13.3,10.6-18.2
				c0,8.8,0,16,0,23.3c-0.7,0-1.3,0-2,0c0-5.5,0-11.1,0-16.6c-0.4-0.1-0.8-0.2-1.1-0.3c-2,5.6-3.9,11.3-5.9,16.9c-0.7,0-1.3,0-2,0
				c-2.3-5.4-4.5-10.9-6.8-16.3c-0.4,0.1-0.8,0.3-1.2,0.4c0,5.3,0,10.6,0,15.9C366.9,110,366.3,110,365.6,110z"/>
			<path d="M346.6,110c-2.3-2.7-5.6-5-6.7-8.1c-2.1-5.7,1.2-11.3,6.6-13.3c5.3-1.9,11.1,0.1,13.8,4.9c2.8,5,1.4,10.9-3.5,14.6
				c-0.8,0.6-1.5,1.2-2.2,1.8C351.9,110,349.3,110,346.6,110z M350.6,90c-4.8-0.1-8.8,3.9-9,8.7c-0.2,4.8,3.7,9.1,8.5,9.3
				c5.1,0.2,9.2-3.8,9.2-9C359.3,94,355.5,90.1,350.6,90z"/>
			<path d="M94.6,110c-2.3-2.7-5.6-5-6.7-8.1c-2.1-5.7,1.2-11.3,6.6-13.3c5.3-1.9,11.1,0.1,13.8,4.9c2.8,5,1.4,10.9-3.5,14.6
				c-0.8,0.6-1.5,1.2-2.2,1.8C99.9,110,97.3,110,94.6,110z M98.4,90c-4.8,0-8.8,4.1-8.8,9c0,4.9,3.9,9,8.7,9c5.1,0.1,9.1-4,9-9.2
				C107.2,93.8,103.3,89.9,98.4,90z"/>
			<path d="M429.6,110c0-7.2,0-14.5,0-21.7c0.4-0.3,0.9-0.5,1.3-0.8c5.3,4.8,7.9,11.9,13.6,17.2c0-5.5,0-11,0-16.5
				c0.7,0,1.4,0,2.1,0c0,7.3,0,14.5,0,21.8c-1,0-2,0-3,0c-3.7-5.8-7.3-11.6-11-17.4c-0.3,0.1-0.7,0.2-1,0.3c0,5.7,0,11.4,0,17.1
				C430.9,110,430.3,110,429.6,110z"/>
			<path d="M135.6,110c0-7.1,0-14.2,0-21.9c3,0,6-0.3,8.9,0.1c4.3,0.6,7.4,3.2,8.6,7.3c1.3,4.4,0.5,8.6-3.1,11.8
				c-1.1,1-2.2,1.8-3.4,2.7C142.9,110,139.3,110,135.6,110z M137.8,107.7c4.6,0.6,9.4,0.8,11.6-3.7c1.3-2.7,1.4-6.9,0.3-9.7
				c-2.1-4.9-7-4.7-11.9-4.2C137.8,96.1,137.8,101.8,137.8,107.7z"/>
			<path d="M277.6,110c-6.9-5-8.7-9.9-5.9-15.9c3.2-6.8,12.1-8.3,17.4-2.4c-6.4-2.3-12.8-3.7-15.4,4.4c-0.8,2.7,0,6.9,1.7,9.1
				c2.9,3.8,7.5,3.5,12,1.5c0-1.7,0-3.3,0-5.2c-1.5-0.4-3.1-0.8-4.7-1.1c0-0.3,0.1-0.6,0.1-0.9c2.1,0,4.3,0,6.8,0
				c0.2,3.8,1.9,7.9-3,10.5C283.6,110,280.6,110,277.6,110z"/>
			<path d="M199.6,110c0-7.1,0-14.2,0-21.9c4.4,0.4,9.6-2.1,12.5,3.1c2.3,4.1-0.4,7.2-4.1,9.2c2,3.3,3.8,6.5,5.6,9.6c-1,0-2,0-3,0
				c-2.5-3.5-2.8-9.1-9-10.2c0,4,0,7.1,0,10.2C200.9,110,200.3,110,199.6,110z M201.7,99.2c3.4-1.5,6-2.4,8.3-3.8
				c0.5-0.3,0.3-3.2-0.2-3.4c-2.4-1.2-5.1-1.8-8.1-2.8C201.7,92.8,201.7,95.1,201.7,99.2z"/>
			<path d="M214.6,110c3.1-7.4,6.1-14.8,9.2-22.2c0.6-0.1,1.3-0.2,1.9-0.2c3,7.5,5.9,15,8.9,22.4c-1,0-2,0-3,0
				c-0.1-3.3-0.3-6.1-4.9-6.1c-7.9,0-7.9-0.2-9.1,6.1C216.6,110,215.6,110,214.6,110z M224.7,90.7c-1.8,4.5-3,7.6-4.4,11
				c3.1,0,5.6,0,8.7,0C227.6,98.2,226.4,95.1,224.7,90.7z"/>
			<path d="M405.6,110c3.1-7.4,6.1-14.8,9.2-22.2c0.6-0.1,1.3-0.2,1.9-0.2c3,7.5,5.9,15,8.9,22.4c-1,0-2,0-3,0
				c-0.1-3.3-0.3-6.1-4.9-6.1c-7.9,0-7.9-0.2-9.1,6.1C407.6,110,406.6,110,405.6,110z M415.7,90.8c-1.7,4.3-3,7.4-4.4,11
				c3.1,0,5.6,0,8.8,0C418.7,98.2,417.4,95.1,415.7,90.8z"/>
			<path class="st2" d="M18.6,110c-4,0-8,0-12,0c0.2-3.2,0.4-6.5,0.6-9.7c4,0,7.6,0,11.4,0C18.6,103.7,18.6,106.9,18.6,110z"/>
			<path class="st2" d="M431.6,110c0-5.7,0-11.4,0-17.1c0.3-0.1,0.7-0.2,1-0.3c3.7,5.8,7.3,11.6,11,17.4
				C439.6,110,435.6,110,431.6,110z"/>
			<path d="M253.6,110c0-7.1,0-14.2,0-21.7c4.5,0,8.7,0,12.9,0c0,0.4,0.1,0.8,0.1,1.2c-3.4,0.2-6.7,0.5-10.4,0.7c0,2.5,0,4.9,0,7.5
				c3.4,0.2,6.6,0.3,9.7,0.5c0,0.5,0,0.9,0,1.4c-3.1,0.2-6.2,0.3-9.7,0.5c0,2.5,0,4.9,0,6.8c4,1.1,7.7,2.1,11.4,3
				C262.9,110,258.3,110,253.6,110z"/>
			<path d="M18.6,110c0-3.1,0-6.3,0-9.7c-3.8,0-7.4,0-11.4,0c-0.2,3.2-0.4,6.4-0.6,9.7c-0.7,0-1.3,0-2,0c0-7.3,0-14.5,0-21.8
				c0.6,0,1.2-0.1,1.8-0.1c0.3,3.1,0.6,6.3,0.9,9.7c3.6,0,7.1,0,11.1,0c0.2-3.1,0.3-6.4,0.5-9.6c0.6,0,1.1,0,1.7,0.1
				c0,7.3,0,14.5,0,21.8C19.9,110,19.3,110,18.6,110z"/>
			<path d="M57.6,110c-4.5-3-7.7-6.7-6.9-12.7c1-7.6,9.9-12,16.3-7.9c0.7,0.4,1.1,1.4,1.6,2.7c-5.5-2.7-10.7-3.9-14.4,2.1
				c-2.1,3.4-1.9,7.2,0.6,10.3c4.1,5.2,9.1,4,14.1,0.2c0.5,0.9,1,1.7,1.5,2.6c-1.6,0.9-3.2,1.7-4.9,2.6C62.9,110,60.3,110,57.6,110z
				"/>
			<path d="M324.6,110c-4.5-3-7.7-6.7-6.9-12.7c1-7.6,9.9-12,16.3-7.9c0.7,0.4,1.1,1.4,1.6,2.7c-5.5-2.7-10.7-3.9-14.4,2.1
				c-2.1,3.4-1.9,7.1,0.6,10.3c4.1,5.3,9.1,3.6,14.1,0.4c0.5,0.8,1,1.6,1.5,2.4c-1.6,0.9-3.2,1.7-4.9,2.6
				C329.9,110,327.3,110,324.6,110z"/>
			<path d="M26.6,110c-0.1-5.8-0.2-11.6-0.3-17.4c0-1.3,0.1-2.6,0.2-4.1c4.4,0,8.6,0,12.8,0c0,0.4,0,0.8,0.1,1.2
				c-3.5,0.2-6.9,0.3-10.6,0.5c0,2.5,0,4.8,0,7.6c3.1,0.1,6.4,0.3,9.7,0.4c0,0.5,0,0.9,0,1.4c-3.1,0.2-6.2,0.4-9.6,0.6
				c0,2.4,0,4.8,0,7.8c2.7,0,5.5-0.2,8.2,0.1c0.9,0.1,1.6,1.2,2.5,1.9C35.3,110,30.9,110,26.6,110z"/>
			<path d="M117.6,110c-6.6-6.4-3.2-14.3-3.9-21.6c0.5-0.1,1-0.2,1.5-0.3c0.3,1.1,0.7,2.1,0.7,3.2c0.1,3.8-0.1,7.6,0.2,11.4
				c0.3,3.1,2.1,5.3,5.5,5.3c3.4,0,5.2-2.2,5.5-5.3c0.3-3.3,0.1-6.6,0.2-9.9c0-1.5,0.2-3.1,0.4-5.6c3.5,6.4,2,17.8-2.1,22.8
				C122.9,110,120.3,110,117.6,110z"/>
			<path d="M167.6,110c-1.5-0.6-3-1.3-4.5-1.9c0.7-0.8,1.4-1.6,2.1-2.4c1.2,0.6,2.4,1.9,3.5,1.7c2.2-0.3,4.3-1.3,6.4-2
				c-1-1.8-2-3.6-3.1-5.2c-0.3-0.4-1.4-0.2-1.8-0.6c-1.9-1.8-4.4-3.4-5.3-5.7c-0.4-1.2,1.7-4.2,3.4-5.1c3-1.6,6.2-1.1,8.7,1.4
				c-0.1,0.4-0.3,0.9-0.4,1.3c-1.2-0.5-2.5-1.5-3.6-1.2c-2,0.4-3.9,1.6-5.8,2.4c1.1,1.5,2,3.3,3.3,4.6c0.7,0.8,2.1,0.8,3.2,1.3
				c5.2,2.3,5.4,5.9,0.9,11.5C172.3,110,169.9,110,167.6,110z"/>
			<path d="M392.6,110c0-7.1,0-14.2,0-21.3c7.9-1.7,12.2-0.2,12.9,4.2c0.8,4.8-1.8,6.7-10.9,7.3c0,3.2,0,6.5,0,9.7
				C393.9,110,393.3,110,392.6,110z M394.8,98.9c3-1.1,5.6-1.7,7.7-3c0.6-0.3,0.5-3.5-0.1-3.9c-2.2-1.2-4.8-1.8-7.6-2.7
				C394.8,92.9,394.8,95.3,394.8,98.9z"/>
			<path d="M299.6,110c1.1-8.4-3.2-14.8-7.9-21.2c0.4-0.3,0.8-0.6,1.2-0.9c1.2,1.3,2.6,2.6,3.6,4c1.3,1.8,2.4,3.8,3.8,6.2
				c2.7-3.9,5.1-7.2,7.5-10.6c0.5,0.3,1,0.7,1.5,1c-4.3,6.6-9.6,12.8-7.7,21.5C300.9,110,300.3,110,299.6,110z"/>
			<path d="M457.6,110c1.8-8.6-3.1-14.8-7.7-21.2c0.4-0.3,0.8-0.6,1.2-0.9c1.2,1.4,2.6,2.7,3.6,4.1c1.3,1.8,2.5,3.9,4,6.3
				c2.6-3.9,4.8-7.4,7.1-10.8c0.6,0.4,1.2,0.7,1.7,1.1c-4.5,6.5-9.2,13-8,21.5C458.9,110,458.3,110,457.6,110z"/>
			<path class="st2" d="M408.6,110c1.2-6.3,1.2-6.1,9.1-6.1c4.6,0,4.9,2.8,4.9,6.1C417.9,110,413.3,110,408.6,110z"/>
			<path class="st2" d="M217.6,110c1.2-6.3,1.2-6.1,9.1-6.1c4.6,0,4.9,2.8,4.9,6.1C226.9,110,222.3,110,217.6,110z"/>
			<path class="st2" d="M367.6,110c0-5.3,0-10.6,0-15.9c0.4-0.1,0.8-0.3,1.2-0.4c2.3,5.4,4.5,10.9,6.8,16.3
				C372.9,110,370.3,110,367.6,110z"/>
			<path d="M-7.4,110c0-6.5,0-12.9,0-19.6c-2.8-0.4-4.9-0.6-7-0.9c0-0.4,0.1-0.7,0.1-1.1c5.2,0,10.4,0,15.6,0
				c0.1,0.4,0.1,0.7,0.2,1.1c-2.1,0.2-4.2,0.4-6.9,0.7c0,6.5,0,13.1,0,19.7C-6.1,110-6.7,110-7.4,110z"/>
			<path d="M186.6,110c0-6.5,0-12.9,0-19.7c-2.5-0.2-4.6-0.4-6.8-0.6c0-0.3,0-0.7,0-1c5.2,0,10.4,0,15.6,0c0,0.3,0.1,0.6,0.1,0.9
				c-2,0.2-4,0.5-7,0.9c0,6.4,0,13,0,19.6C187.9,110,187.3,110,186.6,110z"/>
			<path class="st2" d="M377.6,110c2-5.6,3.9-11.3,5.9-16.9c0.4,0.1,0.8,0.2,1.1,0.3c0,5.5,0,11.1,0,16.6
				C382.3,110,379.9,110,377.6,110z"/>
			<path d="M241.6,110c0-6.5,0-12.9,0-19.7c-2.5-0.2-4.6-0.4-6.8-0.6c0-0.3,0-0.7,0-1c5.2,0,10.4,0,15.6,0c0,0.3,0.1,0.6,0.1,0.9
				c-2,0.2-4,0.5-7,0.9c0,6.4,0,13,0,19.6C242.9,110,242.3,110,241.6,110z"/>
			<path d="M73.6,110c0-7.3,0-14.5,0-21.8c0.6,0,1.1,0,1.7,0c0,6.5,0,12.9,0,18.5c4,1.3,7.2,2.3,10.3,3.3
				C81.6,110,77.6,110,73.6,110z"/>
			<path class="st2" d="M201.6,110c0-3.1,0-6.2,0-10.2c6.2,1.1,6.5,6.7,9,10.2C207.6,110,204.6,110,201.6,110z"/>
			<path d="M428.1,56c-11,0-22,0.1-33,0c-11.1-0.1-20.6-6.9-24.1-17c-3.5-10.3-0.2-20.6,8.9-28c1.2-1,2.4-2.8,2.6-4.3
				c1.7-14.1,9.1-23.9,22.4-28.6c13.1-4.7,25.4-2.3,35.6,7.4c2.6,2.5,4.9,3.5,8.6,3.2c10.8-0.8,20.5,6.4,24.1,16.7
				c0.7,2,2.1,4.1,3.7,5.4c9,7.1,12.6,17.6,9.1,28c-3.4,10.2-12.8,17-23.9,17.3c-0.5,0-1,0-1.5,0C449.8,56,438.9,56,428.1,56
				C428.1,56,428.1,56,428.1,56z M437,26.6c4.9-0.6,9.4-0.8,13.7-1.9c5.7-1.4,8.7-6,8.7-11.9c-0.1-6.1-3.1-10.9-8.9-11.7
				c-8.5-1.1-17.1-1.1-25.6-1.5c0,15.5,0,29.9,0,44.1c4.2,0,7.9,0,12.1,0C437,37.7,437,32.1,437,26.6z M416.7,43.9
				c0-7.7,0-14.8,0-22c0-7.2,0-14.5,0-21.6c-4.6,0-8.3,0-12.4,0c0,7.5,0,14.6,0,21.8c0,7.2,0,14.5,0,21.8
				C408.7,43.9,412.4,43.9,416.7,43.9z"/>
			<path d="M142.2,54c-16.3-0.5-30.1-5.6-37.4-21.5c-8.2-18.1,2-38.8,22.4-45.4c12.3-4,24.7-3.5,36.6,1.3
				c11.7,4.7,19.3,13.1,20.6,25.9c1.4,13.8-4.3,24.7-15.7,32.4C160.8,52.1,151.8,54.2,142.2,54z M173.7,20.7
				c0-19.5-12.6-32.7-31.3-32.6c-18.1,0.1-29.4,11-29.6,28.6c-0.2,19.8,13.3,33.5,33,33.4C163,50,173.7,38.8,173.7,20.7z"/>
			<path d="M27.7-13.7c8.7,0,17.3,0,26,0c0.1,0.2,0.2,0.4,0.3,0.6c-1.7,0.5-3.4,1.1-6,1.9C55.5,6,63,22.9,70.8,40.7
				c1.2-2.2,2.1-3.6,2.8-5.1c6-13.3,12.1-26.6,18-40c2.8-6.4,2.6-6.5-4.1-9.2c1.5-0.2,2.2-0.4,2.9-0.4c6.2,0,12.5,0,19,0.6
				c-8.9,1-10.4,8.4-13.4,14.4c-7.9,15.9-15.8,31.9-23.7,47.8c-0.9,1.9-2.2,3.6-3.9,6.4c-1.7-2.8-3-4.5-3.9-6.5
				C57.2,33,49.9,17.3,42.4,1.8C39.3-4.8,37.9-13.4,27.7-13.7z"/>
			<path d="M294.6-11.5c-2.8-0.6-4.4-0.9-5.9-1.2c0-0.3,0-0.5,0-0.8c7,0,13.9,0,20.9,0c-8.4,0.8-10,8.1-12.9,13.9
				c-8,16.1-15.9,32.2-23.9,48.2c-0.9,1.9-2.2,3.6-3.9,6.5c-1.7-2.9-3.1-4.8-4.1-6.9c-7.6-16-15.2-32.1-22.8-48.2
				c-2.9-6.2-4.8-13.5-13.9-13.7c8.7,0,17.3,0,26,0c0,0.2,0.1,0.5,0.1,0.7c-1.6,0.5-3.2,0.9-5.9,1.6C255.9,6,263.3,23,271.3,41
				C279.8,23.3,287.9,6.5,294.6-11.5z"/>
			<path d="M-3.1-10c0,8.7,0,16.6,0,24.4c8.3,0,16.4,0,24.8,0c-0.4,3.2-0.9,7.2-1.4,11.2c-1.6-5.8-6-6.1-10.5-6c-4.1,0-8.2,0-12.8,0
				c0,8.2-0.2,16.2,0.1,24.3c0.1,3.8,3.2,4.9,6.3,5c4.2,0.2,8.3,0.1,12.5,0c5-0.2,7.9-2.9,8.9-8.3c3,7.5-0.1,12.4-7.2,12.4
				c-11.2,0-22.3-0.1-33.5-0.1c-1.2,0-2.4-0.2-3.9-0.8c6.7-0.9,6.6-5.6,6.6-10.3c0-14.2,0.1-28.3,0.2-42.5c0-9.6,0-9.6-7.9-13.3
				c14.6,0,29.2,0,44.4,0c-0.4,3.2-1,7-1.5,10.7c-1.8-6.6-6.8-6.6-11.7-6.8C6-10.2,1.7-10-3.1-10z"/>
			<path d="M356.7-13.9c-0.5,3.4-1,7-1.6,10.6c-1.7-6.5-6.8-6.5-11.6-6.7c-4.3-0.2-8.6,0-13.2,0c0,8.4,0,16.5,0,24.4
				c8.1,0,16.1,0,24.5,0c-0.3,3.1-0.8,7.2-1.2,11.3c-0.4,0.3-0.8,0.7-1.2,1c-0.2-7.3-5-7-9.5-7.1c-4-0.1-8,0-12.3,0
				c0,8.6-0.2,17.3,0.3,25.9c0.1,1.3,3.7,3,5.9,3.3c3.9,0.5,8,0.2,12,0.1c5.2-0.1,8.1-3.1,9.4-8.5c2.6,8.2-0.2,12.5-7.6,12.5
				c-11.2,0-22.3-0.1-33.5-0.1c-1.1,0-2.1-0.1-3.8-0.8c7.5-0.5,6.6-5.9,6.6-10.3c0.3-15.5,0.1-31,0.4-46.4c0.1-5.8-2.5-8.5-8.9-7.8
				c0.3-0.5,0.5-1,0.8-1.5C326.8-13.9,341.4-13.9,356.7-13.9z"/>
			<path d="M187.1-13.7c8.3,0,16.6,0,25,0c-8.4,0.8-7.3,7-7.3,12.5c0.1,14.3,0.4,28.6,0.5,42.9c0,4.6,2.4,6.8,6.6,7
				c5.1,0.3,10.5,1,15.4-0.1c3.6-0.8,6.6-4.3,9.7-6.4c2.3,5.5-0.8,10.8-7.8,10.8c-12.7,0-25.3-0.1-38-0.1c-0.9,0-1.8-0.2-3.3-0.8
				c7.4-0.7,6.7-6,6.8-10.7c0.1-14.5,0.3-29,0.2-43.5C195-10.6,194.8-10.6,187.1-13.7z"/>
			<path d="M476.7,93.8c0-1.4,0-3.4,0-6.1c1.3,1.6,2.1,2.6,3.1,3.8c0.7-1.2,1.4-2.2,2.6-4.3c0,3.1,0,4.9,0,6.6
				C480.7,93.8,478.8,93.8,476.7,93.8z"/>
			<path class="st2" d="M350.6,90c4.9,0.1,8.7,4.1,8.7,9c0,5.2-4.2,9.2-9.2,9c-4.8-0.2-8.6-4.4-8.5-9.3
				C341.8,93.8,345.8,89.9,350.6,90z"/>
			<path class="st2" d="M98.4,90c4.9,0,8.8,3.8,8.9,8.8c0.1,5.2-3.9,9.3-9,9.2c-4.8-0.1-8.7-4.2-8.7-9C89.6,94.1,93.6,90,98.4,90z"
				/>
			<path class="st2" d="M137.8,107.7c0-5.9,0-11.7,0-17.5c4.9-0.6,9.8-0.7,11.9,4.2c1.2,2.8,1.1,7-0.3,9.7
				C147.3,108.5,142.5,108.3,137.8,107.7z"/>
			<path class="st2" d="M201.7,99.2c0-4.1,0-6.4,0-9.9c3,1,5.7,1.6,8.1,2.8c0.5,0.3,0.7,3.1,0.2,3.4
				C207.7,96.8,205.1,97.7,201.7,99.2z"/>
			<path class="st2" d="M224.7,90.7c1.7,4.4,2.9,7.5,4.3,11c-3.1,0-5.6,0-8.7,0C221.7,98.3,222.9,95.2,224.7,90.7z"/>
			<path class="st2" d="M415.7,90.8c1.7,4.3,3,7.4,4.4,11c-3.1,0-5.7,0-8.8,0C412.7,98.2,414,95.1,415.7,90.8z"/>
			<path class="st2" d="M394.8,98.9c0-3.6,0-6,0-9.6c2.8,0.9,5.4,1.5,7.6,2.7c0.6,0.3,0.7,3.5,0.1,3.9
				C400.4,97.2,397.8,97.8,394.8,98.9z"/>
			<path class="st2" d="M437,26.6c0,5.5,0,11.1,0,17.1c-4.2,0-8,0-12.1,0c0-14.2,0-28.6,0-44.1c8.5,0.5,17.1,0.5,25.6,1.5
				c5.7,0.7,8.8,5.6,8.9,11.7c0.1,5.9-2.9,10.5-8.7,11.9C446.4,25.8,441.9,26,437,26.6z M437.2,23.5c3.5-1.9,7.6-2.7,8.2-4.6
				c1.2-3.6,1.2-8.2,0-11.8c-0.6-1.9-4.8-2.6-8.2-4.3C437.2,10.2,437.2,16,437.2,23.5z"/>
			<path class="st2" d="M416.7,43.9c-4.3,0-7.9,0-12.4,0c0-7.3,0-14.5,0-21.8c0-7.1,0-14.3,0-21.8c4.1,0,7.9,0,12.4,0
				c0,7.1,0,14.4,0,21.6C416.7,29.1,416.7,36.2,416.7,43.9z"/>
			<path class="st2" d="M173.7,20.7c0,18.1-10.7,29.4-27.9,29.4c-19.6,0-33.2-13.7-33-33.4c0.2-17.6,11.5-28.5,29.6-28.6
				C161-12,173.7,1.2,173.7,20.7z"/>
			<path d="M437.2,23.5c0-7.6,0-13.3,0-20.7c3.4,1.7,7.5,2.4,8.2,4.3c1.2,3.6,1.2,8.2,0,11.8C444.8,20.8,440.7,21.7,437.2,23.5z"/>
		</g>
	</g>
</g>
<g>
	<path class="st2" d="M532.1,98.5c-0.5,1.2-1.4,1.7-2.7,1.7c-0.6,0-1.1,0-1.7,0c-174.5,0-349,0-523.4,0c-0.5,0-1,0-1.6,0
		c-1.2,0-2.2-0.4-2.7-1.7c0-0.2,0-0.4,0-0.6c0.5-1.2,1.4-1.7,2.7-1.7c0.6,0,1.1,0,1.7,0c174.4,0,348.8,0,523.2,0c0.6,0,1.2,0,1.8,0
		c1.3,0,2.2,0.5,2.7,1.7C532.1,98.1,532.1,98.3,532.1,98.5z"/>
	<path class="st2" d="M171.8,81.3c-7.5,0.2-14.8-1.1-21.6-4.3c-11.7-5.6-18.8-14.8-20.5-27.8c-1.3-9.6,2.1-18,8.3-25.2
		c6.7-7.9,15.6-12.1,25.7-13.7c10.4-1.6,20.7-0.7,30.5,3.3c9.4,3.9,16.5,10.1,19.8,20c4.3,12.8,0.1,27.7-10.4,36.8
		c-7.2,6.3-15.8,9.5-25.2,10.6C176.2,81.2,174,81.2,171.8,81.3z M141.1,43c-0.1,1.8,0,3.7,0.3,5.6c1.3,9.5,5.5,17.4,13.6,22.8
		c8.7,5.9,18.4,7.2,28.5,4.7c10.7-2.6,17.3-9.6,19.7-20.4c1.2-5.3,1.3-10.6,0.4-15.9c-1.7-10.1-6.7-18.1-16-22.7
		c-10-5-20.3-4.9-30.5-0.9c-6.7,2.6-11.3,7.5-13.9,14.1C141.6,34.3,141,38.6,141.1,43z"/>
	<path class="st2" d="M305.8,67.6c1.1-2.2,2.2-4.3,3.1-6.4c6.5-13.7,12.9-27.3,18.7-41.3c0.5-1.3,1-2.6,1.4-4c0.6-1.9-0.1-2.9-2.1-3
		c-0.8-0.1-1.7-0.1-2.5-0.2c-0.6-0.1-1.4-0.1-1.4-0.9c0-0.7,0.7-0.8,1.3-0.8c1.2-0.1,2.4-0.2,3.5-0.1c5.1,0.3,10.2,0.3,15.3,0
		c0.8,0,1.6,0.1,2.4,0.2c0.4,0,0.9,0.2,0.9,0.7c0,0.6-0.4,0.8-0.9,0.9c-0.5,0.1-1,0.2-1.5,0.2c-3.1,0-5.4,1.5-7.1,4
		c-2.3,3.5-3.8,7.5-5.7,11.2c-7.3,14.6-14.5,29.3-21.8,43.9c-1.2,2.5-2.6,4.8-3.9,7.2c-1.5,2.7-3.1,2.8-4.5,0
		c-2.3-4.5-4.5-9.1-6.7-13.6c-5.6-11.8-11.2-23.6-16.8-35.3c-1.8-3.9-3.8-7.7-5.5-11.7c-1.8-3.9-4.8-5.8-9-5.8c-0.7,0-1.3-0.1-2-0.2
		c-0.5-0.1-0.9-0.4-0.9-0.9c0-0.5,0.4-0.7,0.9-0.7c2.2-0.4,4.4-0.2,6.7-0.1c4.8,0.2,9.6,0.2,14.5,0c1.8-0.1,3.7-0.2,5.5,0.1
		c0.5,0.1,1.1,0.1,1.1,0.8c0,0.8-0.6,0.9-1.2,0.9c-0.7,0.1-1.3,0.1-2,0.1c-2.8,0.2-3.5,1.2-2.4,3.8c1.3,3.1,2.7,6.2,4.1,9.4
		c6.1,13.6,12.1,27.2,18.2,40.8C305.5,67,305.6,67.2,305.8,67.6z"/>
	<path class="st2" d="M97.4,67.6c1.8-3.7,3.4-7,5-10.3c6-12.6,11.9-25.2,17.1-38.2c0.4-1,0.8-2.1,1.1-3.2c0.6-1.9-0.1-2.9-2.1-3.1
		c-0.9-0.1-1.9-0.1-2.8-0.2c-0.5-0.1-1.1-0.3-1.1-0.9c0-0.6,0.6-0.7,1-0.8c1.2-0.3,2.5-0.2,3.7-0.2c5.3,0.3,10.6,0.3,15.9,0
		c0.7,0,1.4,0.1,2.1,0.2c0.4,0.1,0.7,0.3,0.7,0.8c0,0.4-0.3,0.7-0.7,0.8c-0.6,0.1-1.3,0.2-2,0.3c-2.9,0.1-5.1,1.4-6.7,3.7
		c-2,2.9-3.3,6.2-4.9,9.3c-8.7,17.7-17.2,35.5-26.5,52.9c-0.6,1.1-1,2.5-2.5,2.6c-1.6,0-2.1-1.4-2.7-2.6c-3.6-7.5-7.2-15-10.8-22.5
		C75.7,44.3,70,32.4,64.4,20.5c-0.4-0.9-0.9-1.8-1.3-2.7c-1.6-3.4-4.4-4.9-8.1-5c-0.8,0-1.6-0.1-2.4-0.1c-0.5-0.1-0.9-0.3-1-0.9
		c0-0.6,0.4-0.8,0.9-0.8c2.1-0.3,4.2-0.2,6.4-0.1c4.9,0.2,9.8,0.2,14.7,0c1.8-0.1,3.6-0.2,5.4,0.1c0.6,0.1,1.3,0.1,1.2,0.9
		c0,0.7-0.7,0.8-1.3,0.9c-0.8,0.1-1.7,0.1-2.5,0.2c-2.1,0.2-2.7,1.1-2,3.1c1.8,4.3,3.6,8.5,5.5,12.7c5.4,12.3,10.9,24.5,16.4,36.8
		C96.6,66.1,96.9,66.6,97.4,67.6z"/>
	<path class="st2" d="M367,28.3c0,3.7,0.1,7.5,0,11.2c0,1.4,0.3,1.9,1.8,1.9c5.9-0.2,11.8,0.2,17.7-0.3c1.8-0.1,3.5-0.4,4.8-1.7
		c0.4-0.4,0.8-0.7,1.4-0.4c0.6,0.3,0.5,0.9,0.4,1.4c-0.8,3.2-1,6.4-1.2,9.7c-0.1,0.9,0.1,2.4-1.2,2.3c-1.3,0-0.9-1.4-1-2.3
		c-0.3-2.3-1.1-3.2-3.3-3.8c-2.9-0.8-5.8-0.5-8.7-0.7c-3-0.2-6,0-8.9-0.1c-1.2,0-1.6,0.4-1.6,1.6c0,7.2,0,14.5,0,21.7
		c0,5,1.7,6.9,6.7,7.1c4.9,0.3,9.7,0.4,14.6-0.2c3.9-0.5,6.1-2.5,6.9-6.3c0.1-0.3,0.1-0.6,0.2-0.8c0.2-0.6,0.5-1.1,1.2-1
		c0.7,0.1,0.9,0.7,0.8,1.3c-0.1,3.3-0.6,6.5-1.6,9.6c-0.5,1.4-1.7,1.9-3,1.9c-5.2,0.1-10.4,0-15.6-0.1c-6.7-0.1-13.3-0.7-20-0.3
		c-2.1,0.1-4.3,0.1-6.4,0.1c-0.7,0-1.5,0-1.5-0.9c-0.1-0.9,0.8-0.9,1.4-1c4.5-0.5,4.8-0.7,5.5-5.2c0.5-3.4,0.6-6.9,0.6-10.3
		c0-14,0-27.9,0-41.9c0-1.5-0.1-2.9-0.3-4.4c-0.2-1.9-1.2-2.9-3.1-3.4c-1.3-0.3-2.5-0.2-3.8-0.3c-0.7-0.1-1.7,0-1.7-1
		c0-1,1.1-0.9,1.8-0.9c1.9-0.1,3.9,0.1,5.8,0.1c11.2,0.1,22.3,0.1,33.5,0c1.5,0,3.1-0.2,4.6-0.7c1.1-0.3,1.7,0.1,1.4,1.1
		c-0.8,3.1-0.8,6.4-1.3,9.5c0,0.3-0.1,0.6-0.2,0.8c-0.2,0.5-0.6,0.8-1.1,0.7c-0.6-0.1-0.8-0.5-0.8-1c-0.1-0.5-0.1-1-0.2-1.5
		c-0.4-2.6-1.2-3.3-3.8-3.9c-3-0.7-6.1-0.7-9.2-0.8c-3.2-0.1-6.3,0-9.5-0.1c-1.2,0-1.7,0.3-1.7,1.6C367,20.6,367,24.4,367,28.3z"/>
	<path class="st2" d="M20.2,28.3c0,3.8,0,7.7,0,11.5c0,1.3,0.4,1.7,1.7,1.6c6-0.2,12,0.2,18-0.3c1.8-0.1,3.5-0.4,4.8-1.7
		c0.4-0.4,0.8-0.7,1.4-0.4c0.6,0.3,0.4,0.9,0.3,1.4c-0.7,3.3-1,6.7-1.2,10.1c0,0.4-0.1,0.8-0.3,1.2c-0.1,0.4-0.5,0.7-1,0.7
		c-0.6-0.1-0.8-0.4-0.8-1c0-0.9-0.1-1.8-0.4-2.6c-0.4-1.2-1.2-2-2.4-2.3c-1.1-0.3-2.3-0.6-3.5-0.6c-5-0.3-9.9-0.3-14.9-0.4
		c-1.2,0-1.7,0.4-1.7,1.6c0,7.2,0,14.4,0,21.6c0,1,0.1,2,0.3,3c0.4,1.9,1.4,3.2,3.3,3.7c1.4,0.4,2.8,0.7,4.2,0.7
		c4.5,0,9,0.3,13.5-0.3c4.1-0.5,6.1-2.3,7-6.3c0,0,0-0.1,0-0.1c0.3-0.8,0.3-2,1.5-1.7c1,0.2,0.8,1.3,0.7,2.2
		c-0.3,2.5-0.7,5.1-1.3,7.5c-0.5,2.2-1.4,3-3.6,3c-5.3,0.1-10.7,0-16-0.1c-6.6-0.1-13.1-0.7-19.7-0.2c-2,0.2-4.1,0.1-6.1,0.1
		c-0.7,0-1.5,0-1.4-1c0-0.8,0.7-0.8,1.4-0.9c4.6-0.5,5.1-1.1,5.6-5.8c0.4-4,0.5-8,0.5-12c0.1-11.7,0.1-23.5,0-35.2
		c0-2.5-0.1-5.1-0.3-7.6c-0.2-3.4-1.6-4.6-4.9-4.8c-0.9,0-1.9-0.1-2.8-0.2c-0.5-0.1-1.1-0.3-1.1-0.9c0-0.7,0.6-0.9,1.1-0.9
		c1.6-0.1,3.2-0.2,4.8-0.1c11.8,0.4,23.6,0.2,35.5,0.1c1.4,0,2.9-0.2,4.3-0.6c1.3-0.3,1.8,0.1,1.5,1.3c-0.8,2.9-0.9,6-1.2,9
		c0,0.3-0.1,0.7-0.2,1c-0.2,0.6-0.6,1-1.3,0.9c-0.6-0.1-0.8-0.6-0.9-1.1c-0.1-0.8-0.2-1.6-0.3-2.4c-0.3-1.4-1.2-2.2-2.5-2.6
		c-1.6-0.5-3.3-0.7-5-0.9c-5-0.4-9.9-0.3-14.9-0.4c-1.2,0-1.6,0.4-1.6,1.6C20.3,20.5,20.2,24.4,20.2,28.3z"/>
	<path class="st2" d="M257.7,80.4c-10,0-19.2-0.7-28.4-0.5c-2.4,0-4.8,0.2-7.2,0.3c-0.5,0-1,0-1.6,0c-0.6,0-1.5,0-1.5-0.9
		c0-0.9,0.8-0.9,1.4-1c0.7-0.1,1.4-0.2,2.1-0.3c1.7-0.1,2.6-1.2,2.9-2.8c0.6-2.4,0.8-4.9,0.9-7.3c0.2-16.2,0.2-32.3,0-48.5
		c0-1.1-0.1-2.2-0.3-3.2c-0.3-1.6-1.2-2.6-2.8-3c-1.1-0.3-2.2-0.2-3.2-0.4c-0.9-0.1-2.5,0.3-2.5-1.1c0-1.2,1.5-0.9,2.5-0.9
		c3,0,6,0.1,9.1,0.2c4.6,0.1,9.2-0.1,13.7-0.2c0.9,0,2.3-0.3,2.3,0.9c0.1,1.3-1.4,0.7-2.2,0.9c-1,0.2-2.1,0.2-3.1,0.4
		c-1.7,0.4-2.6,1.5-2.8,3.1c-0.2,1.2-0.3,2.4-0.3,3.7c0,14.4,0,28.8,0.1,43.3c0,2.8,0.2,5.7,0.8,8.4c0.4,1.9,1.6,3.1,3.4,3.5
		c2.5,0.7,5.1,0.9,7.7,0.9c4,0,8,0.2,12-0.3c4-0.5,6.5-2.7,7.6-6.6c0.2-0.8,0.3-2.2,1.6-2c1.3,0.2,0.9,1.5,0.8,2.4
		c-0.3,2.8-0.8,5.5-1.5,8.2c-0.4,1.4-1.3,2.2-2.8,2.4C263.3,80.6,260.1,80.3,257.7,80.4z"/>
	<path class="st2" d="M414.6,133.4c1.4-3.5,2.8-6.9,4.1-10.2c0.9-2.1,1.7-4.2,2.6-6.3c0.4-1.1,2.8-1.7,3.8-1c0.4,0.3,0.3,0.7,0.3,1
		c0,6.6,0,13.2,0,19.9c0,0.8-0.3,1.2-1.2,1.2c-0.9,0-1.2-0.4-1.2-1.3c0-5.2,0-10.3,0-15.5c0-0.5,0-1-0.3-1.5
		c-1.5,3.6-3,7.1-4.5,10.7c-0.9,2.1-1.8,4.3-2.7,6.4c-0.2,0.6-0.4,1.2-1.2,1.2c-0.8,0-1-0.6-1.2-1.2c-2.4-5.7-4.7-11.3-7.3-17
		c0,0.4-0.1,0.8-0.1,1.3c0,5.2,0,10.3,0,15.5c0,0.9-0.1,1.6-1.3,1.5c-1.1,0-1.1-0.8-1.1-1.5c0-5.2,0-10.3,0-15.5c0-1-0.1-2,0-3
		c0.1-0.8-0.6-1.9,0.8-2.2c1.8-0.4,2.8,0,3.4,1.4c2,4.9,4.1,9.9,6.1,14.8C414,132.5,414,132.9,414.6,133.4z"/>
	<path class="st2" d="M387,138.5c-6.8,0-11.6-4.8-11.6-11.7c0-6.9,4.8-11.7,11.7-11.7c6.7,0,11.6,5,11.7,11.8
		C398.7,133.6,393.7,138.5,387,138.5z M386.9,136.2c4.9,0.3,9-3.4,9.1-9.4c0.1-5.4-3.8-9.5-8.9-9.6c-5.2-0.1-9.1,4-9.1,9.5
		C378,132.4,381.6,136.2,386.9,136.2z"/>
	<path class="st2" d="M123.2,115.1c6.7,0,11.6,5.1,11.6,11.9c0,6.6-5.1,11.5-11.8,11.5c-6.8,0-11.6-4.9-11.6-11.8
		C111.5,119.9,116.3,115.1,123.2,115.1z M123,136.2c4.9,0.3,9-3.4,9.1-9.4c0-5.4-3.9-9.5-9-9.5c-5.2,0-9,4-9,9.6
		C114.1,132.4,117.7,136.2,123,136.2z"/>
	<path class="st2" d="M485.8,133.8c0-2.9,0-5.8,0-8.8c0-2.7,0-5.4,0-8.1c0-0.8,0.2-1.4,1.1-1.4c1,0,1.3,0.5,1.3,1.4
		c0,6.4,0,12.8,0,19.1c0,0.6,0.4,1.6-0.6,1.8c-1,0.2-2.2,0.4-2.9-0.7c-1.5-2.2-3-4.4-4.6-6.7c-2.5-3.6-4.9-7.2-7.5-11
		c-0.3,0.6-0.2,1.1-0.2,1.6c0,5.1,0,10.2,0,15.3c0,0.7,0.2,1.5-0.9,1.6c-1.2,0.1-1.5-0.4-1.5-1.5c0-3.9,0-7.8,0-11.8
		c0-2.4,0-4.7,0-7.1c0-0.6-0.3-1.6,0.6-1.8c1.1-0.2,2.2-0.5,3.1,0.8c2.2,3.2,4.4,6.4,6.6,9.6c1.8,2.6,3.5,5.1,5.3,7.7
		C485.5,133.8,485.6,133.8,485.8,133.8z"/>
	<path class="st2" d="M167.1,115.7c2.4,0,4.8-0.1,7.1,0.8c4.4,1.7,7.1,5.6,7.1,10.5c0,4.6-2.8,8.5-7.1,10.1
		c-1.5,0.6-3.1,0.9-4.7,0.9c-1.9,0-3.9-0.1-5.8,0c-1.2,0-1.8-0.3-1.8-1.7c0.1-6.3,0.1-12.7,0-19c0-1.2,0.4-1.7,1.6-1.6
		C164.8,115.8,166,115.7,167.1,115.7z M164.4,126.8c0,2.5,0,4.9,0,7.4c0,1,0.3,1.5,1.4,1.5c1.6-0.1,3.1,0,4.7-0.1
		c4.7-0.3,8.3-4.1,8.3-8.8c0-4.7-3.6-8.5-8.3-8.8c-1.5-0.1-2.9,0-4.4-0.1c-1.2-0.1-1.7,0.4-1.7,1.6
		C164.4,122,164.4,124.4,164.4,126.8z"/>
	<path class="st2" d="M323.9,131.5c0,1.1-0.1,2.3,0,3.4c0.1,1.2-0.4,1.8-1.4,2.3c-5,2.2-11.7,2-15.5-2c-3.1-3.3-4.1-8.8-2.2-13.1
		c2-4.6,5.6-6.8,10.6-6.9c2.7-0.1,5.2,0.5,7.3,2.1c0.5,0.4,1.2,0.8,0.5,1.6c-0.5,0.6-1,1.2-2,0.5c-4.2-3.1-10.1-2.4-12.9,1.6
		c-3.2,4.5-2.2,11.1,2.3,14c3.2,2.1,6.7,1.7,10.1,0.4c0.5-0.2,0.8-0.6,0.8-1.2c0-1.6,0-3.1,0-4.7c0-0.8-0.3-1.1-1.1-1.1
		c-1,0-2.1,0-3.1,0c-0.7,0-1-0.3-1-1c0-0.7,0.2-1.1,1-1.1c1.9,0,3.8,0,5.7,0c0.8,0,1,0.5,1,1.2C323.8,128.8,323.8,130.2,323.9,131.5
		C323.9,131.5,323.9,131.5,323.9,131.5z"/>
	<path class="st2" d="M231.3,132.9c0,1.2,0,2.4,0,3.5c0,0.9-0.1,1.6-1.3,1.5c-1.1,0-1.2-0.7-1.2-1.5c0-4.3,0-8.6,0-12.9
		c0-2.1,0-4.3,0-6.4c0-1.1,0.3-1.6,1.4-1.5c2.3,0.1,4.5-0.1,6.8,0.1c4.1,0.2,6.3,2.6,6.1,6.6c-0.1,2.3-1.6,4.1-4.2,4.9
		c-1,0.3-1.2,0.6-0.6,1.5c1.6,2.4,3.1,4.9,4.6,7.3c0.3,0.5,1.2,1,0.5,1.8c-0.4,0.5-2.4,0-2.8-0.6c-1-1.6-2-3.2-3-4.8
		c-0.7-1.2-1.4-2.3-2.1-3.5c-0.4-0.7-0.8-1.2-1.7-1.2c-2.6-0.1-2.6-0.1-2.6,2.5C231.3,131.1,231.3,132,231.3,132.9z M231.4,121.6
		c0,1,0,2,0,3c0,0.5,0.1,1,0.7,1c2.2,0.1,4.5,0.1,6.6-0.7c1.4-0.5,2.2-1.9,2.1-3.4c-0.1-1.7-0.9-2.8-2.4-3.3c-1-0.3-2.1-0.5-3.2-0.5
		C231.3,117.8,231.3,117.8,231.4,121.6z"/>
	<path class="st2" d="M246.8,138c-1.2,0.1-1.5-0.3-1-1.3c2.9-6.6,5.8-13.3,8.6-19.9c0.4-0.8,0.9-1.1,1.8-1.1c0.9,0,1.3,0.4,1.7,1.2
		c2.8,6.5,5.6,12.9,8.3,19.4c0.2,0.5,0.9,1.3,0.1,1.6c-0.8,0.3-1.9,0.5-2.5-0.6c-0.6-1.2-1.1-2.5-1.6-3.8c-0.3-0.9-0.9-1.2-1.8-1.2
		c-2.9,0-5.8,0-8.6,0c-1,0-1.6,0.4-1.9,1.3c-0.4,1.1-0.9,2.2-1.3,3.3C248.2,137.7,247.7,138.2,246.8,138z M256.1,118.7
		c-1.5,3.7-2.9,7-4.3,10.3c-0.3,0.7-0.1,1,0.7,1c2.4,0,4.8,0,7.2,0c0.9,0,0.9-0.4,0.7-1.1C259,125.6,257.6,122.3,256.1,118.7z"/>
	<path class="st2" d="M465.1,138c-0.8,0.1-1.3-0.3-1.6-1.1c-0.5-1.2-1-2.4-1.5-3.7c-0.3-0.7-0.7-1-1.5-1c-3,0-6.1,0-9.1,0
		c-0.8,0-1.3,0.3-1.6,1.1c-0.4,1.2-1,2.4-1.4,3.5c-0.3,0.8-0.9,1.1-1.7,1.1c-1.2,0-1.4-0.4-0.9-1.4c1.2-2.7,2.4-5.5,3.6-8.2
		c1.6-3.7,3.2-7.5,4.8-11.2c0.4-0.9,0.8-1.5,1.9-1.5c1.1,0,1.4,0.7,1.8,1.5c2.8,6.4,5.5,12.8,8.3,19.3
		C466.6,137.8,466.5,138,465.1,138z M455.8,118.6c-1.5,3.7-2.9,7-4.3,10.3c-0.3,0.7,0.1,0.9,0.7,0.9c2.4,0,4.8,0,7.2,0
		c0.7,0,0.9-0.3,0.7-1C458.8,125.6,457.4,122.3,455.8,118.6z"/>
	<path class="st2" d="M42.3,126.9c0,3.2,0,6.4,0,9.6c0,0.8-0.1,1.5-1.2,1.5c-1.1,0-1.2-0.6-1.2-1.4c0-2.6,0-5.1,0-7.7
		c0-1-0.3-1.4-1.4-1.4c-3.1,0-6.2,0-9.4,0c-1.1,0-1.4,0.4-1.4,1.4c0,2.5,0,5,0,7.5c0,0.9,0,1.6-1.2,1.6c-1.1,0-1.2-0.7-1.2-1.5
		c0-6.4,0-12.9,0-19.3c0-0.8,0-1.5,1.2-1.5c1.2,0,1.2,0.7,1.2,1.6c0,2.1,0,4.3,0,6.4c0,1.1,0.3,1.5,1.5,1.5c3.1,0,6.1,0,9.2,0
		c1.1,0,1.5-0.5,1.4-1.5c-0.1-2.2,0-4.3,0-6.5c0-0.9,0.2-1.4,1.3-1.4c1,0,1.2,0.6,1.1,1.4C42.3,120.3,42.3,123.6,42.3,126.9z"/>
	<path class="st2" d="M48.2,126.8c0-3.2,0-6.3,0-9.5c0-1.1,0.3-1.6,1.5-1.6c3.7,0.1,7.4,0,11.1,0c0.8,0,1.4,0.1,1.4,1.1
		c0,1-0.6,1.2-1.4,1.2c-2.8,0-5.7,0-8.5,0c-1.2,0-1.8,0.3-1.7,1.6c0.1,1.5,0.1,2.9,0,4.4c0,1.1,0.4,1.4,1.4,1.4c2.6,0,5.3,0,7.9,0
		c0.7,0,1.4,0,1.4,1.1c0,1.1-0.7,1-1.5,1c-2.6,0-5.3,0-7.9,0c-1.1,0-1.4,0.4-1.4,1.4c0.1,1.8,0.1,3.6,0,5.4c0,1,0.4,1.4,1.4,1.4
		c3,0,6,0,9.1,0c0.8,0,1.5,0.1,1.4,1.2c0,0.7-0.3,1.1-1,1.1c-4.1,0-8.1,0-12.2,0c-1,0-1.1-0.6-1.1-1.4
		C48.2,133.3,48.2,130,48.2,126.8z"/>
	<path class="st2" d="M286.3,126.9c0-3.2,0-6.4,0-9.6c0-1.2,0.4-1.6,1.6-1.6c3.6,0.1,7.3,0,10.9,0c0.8,0,1.5,0,1.5,1.1
		c0,1.1-0.7,1.2-1.5,1.2c-2.8,0-5.7,0-8.5,0c-1.2,0-1.6,0.4-1.6,1.6c0.1,1.5,0.1,3,0,4.5c0,0.9,0.3,1.3,1.3,1.2c2.7,0,5.4,0,8.1,0
		c0.7,0,1.4,0,1.5,1c0,1.1-0.7,1.1-1.4,1.1c-2.6,0-5.2,0-7.8,0c-1.1,0-1.6,0.3-1.6,1.5c0.1,1.7,0.1,3.5,0,5.2c0,1.1,0.4,1.5,1.5,1.5
		c3,0,6,0,8.9,0c0.8,0,1.5,0.1,1.5,1.2c0,0.8-0.3,1.1-1.1,1.1c-4,0-8,0-12,0c-1.1,0-1.2-0.6-1.2-1.5
		C286.3,133.3,286.3,130.1,286.3,126.9z"/>
	<path class="st2" d="M156.1,124.1c0,2.1,0,4.3,0,6.4c-0.1,4.9-3.3,8.1-8.3,8.1c-5,0-8.2-3.1-8.3-8.1c0-4.4,0-8.8,0-13.2
		c0-0.9,0-1.6,1.2-1.6c1.3,0,1.2,0.8,1.2,1.6c0,3.5,0,7.1,0,10.6c0,1.2,0.1,2.4,0.3,3.5c0.5,3.2,2.5,4.8,5.7,4.7
		c3.1,0,5-1.7,5.5-4.8c0.2-1.2,0.3-2.3,0.3-3.5c0-3.6,0-7.3,0-10.9c0-0.8,0.2-1.3,1.2-1.3c1,0,1.2,0.5,1.2,1.3
		C156.1,119.4,156.1,121.8,156.1,124.1z"/>
	<path class="st2" d="M85.2,138.5c-6.8,0-11.5-4.8-11.5-11.7c0-6.8,4.8-11.6,11.6-11.7c2.7,0,5.1,0.7,7.2,2.5
		c0.4,0.4,1.2,0.8,0.4,1.5c-0.6,0.5-1.1,1.4-2.1,0.4c-2.6-2.6-5.7-2.8-8.9-1.5c-3.4,1.3-5,4.1-5.4,7.6c-0.5,4.4,1.4,8.1,4.8,9.8
		c3.5,1.8,7.3,1.2,10-1.6c0.8-0.8,1.3-0.3,1.9,0.1c0.8,0.6,0.2,1.1-0.2,1.5C90.9,137.7,88.3,138.7,85.2,138.5z"/>
	<path class="st2" d="M364.8,138.5c-6.2,0-11-4.2-11.6-10c-0.7-6.7,3-12.1,9.3-13.2c3.3-0.6,6.4-0.1,9.1,2.1
		c0.5,0.4,1.5,0.9,0.7,1.8c-0.6,0.7-1.3,1.2-2.4,0.2c-3.3-3.1-9.2-2.5-12,1.1c-3.1,3.9-2.8,9.9,0.6,13.4c3.2,3.3,8.9,3.3,12.1,0
		c0.8-0.9,1.4-0.5,2,0.1c0.8,0.6,0.1,1.1-0.3,1.5C370.6,137.5,368.1,138.5,364.8,138.5z"/>
	<path class="st2" d="M200.2,115.1c2.1-0.1,3.9,0.4,5.5,1.7c0.5,0.4,1.2,0.8,0.4,1.6c-0.6,0.6-1.1,1.3-2.1,0.4c-1.8-1.7-4-1.9-6.3-1
		c-1.5,0.6-2.3,1.8-2.3,3.4c0,1.5,0.8,2.5,2.2,3.2c1.7,0.8,3.5,1.2,5.2,1.9c2.3,0.9,4.1,2.4,4.2,5.2c0.2,4.1-2.3,6.8-6.4,7
		c-2.6,0.2-5.1-0.3-7.1-2.1c-0.5-0.4-1.4-0.9-0.5-1.7c0.7-0.6,1.3-1.4,2.3-0.3c1.8,2,4.1,2.4,6.6,1.5c1.6-0.6,2.6-1.8,2.7-3.5
		c0.1-1.7-0.7-2.9-2.3-3.6c-1.2-0.5-2.4-0.9-3.6-1.3c-1-0.3-2-0.7-2.9-1.2c-2.1-1.2-2.9-3-2.8-5.3c0.1-2.3,1.2-3.8,3.1-4.9
		C197.3,115.3,198.8,115.1,200.2,115.1z"/>
	<path class="st2" d="M431.3,126.7c0-3.2,0-6.3,0-9.5c0-1.1,0.3-1.5,1.5-1.5c2.1,0.1,4.3,0,6.4,0.1c4.1,0.2,6.4,2.6,6.2,6.5
		c-0.1,2.3-1.5,4-3.9,4.9c-2,0.7-4.1,0.6-6.2,0.5c-1.2,0-1.7,0.4-1.6,1.6c0.1,2.3,0,4.6,0,6.9c0,0.9,0.1,1.7-1.2,1.7
		c-1.3,0-1.2-0.8-1.2-1.6C431.3,133.1,431.3,129.9,431.3,126.7z M433.7,121.7c0,0.9,0,1.8,0,2.7c0,0.9,0.4,1.2,1.3,1.2
		c1.6,0,3.1-0.1,4.6-0.3c2-0.3,3.3-1.8,3.3-3.7c0-1.9-1-3.1-3.1-3.6c-0.6-0.1-1.3-0.2-2-0.3C433.7,117.7,433.7,117.7,433.7,121.7z"
		/>
	<path class="st2" d="M333.4,132.2c0.6-2.5-0.5-4.9-2.3-7.3c-1.7-2.3-3.3-4.9-4.8-7.3c-0.3-0.5-1.2-1-0.6-1.8
		c0.4-0.5,2.5-0.1,2.9,0.6c0.8,1.1,1.5,2.3,2.2,3.5c1.1,1.8,2.2,3.5,3.3,5.3c0.5,0.9,0.8,0.8,1.3,0c1.7-2.7,3.4-5.4,5-8
		c0.2-0.4,0.4-0.8,0.7-1c0.8-0.7,1.8-0.6,2.5-0.2c0.6,0.4-0.2,1.1-0.5,1.5c-2.2,3.3-4.3,6.7-6.6,10c-0.5,0.8-0.8,1.6-0.7,2.5
		c0,2.2,0,4.3,0,6.5c0,0.9,0,1.6-1.2,1.6c-1.2,0-1.2-0.8-1.2-1.6C333.4,135.2,333.4,134,333.4,132.2z"/>
	<path class="st2" d="M499.4,132.3c0.7-2.6-0.6-5.1-2.4-7.5c-1.8-2.5-3.4-5.2-5.2-7.8c-0.6-0.9-0.5-1.3,0.7-1.3
		c1.2-0.1,1.9,0.4,2.5,1.4c1.6,2.7,3.3,5.4,5,8.1c0.5,0.9,0.8,0.9,1.4,0c1.7-2.8,3.4-5.5,5.2-8.3c0.2-0.4,0.5-0.8,0.8-1
		c0.7-0.4,1.7-0.5,2.3,0c0.5,0.5-0.3,1.1-0.6,1.5c-2.2,3.4-4.4,6.7-6.6,10.1c-0.4,0.7-0.6,1.3-0.6,2.1c0,2.3,0,4.6,0,6.9
		c0,0.8-0.1,1.4-1.1,1.4c-1,0-1.3-0.5-1.3-1.4C499.4,135.4,499.4,134.1,499.4,132.3z"/>
	<path class="st2" d="M275.3,128c0,2.8,0,5.7,0,8.5c0,0.8,0,1.5-1.1,1.5c-1.2,0-1.3-0.6-1.3-1.5c0-5.6,0-11.1,0-16.7
		c0-1.3-0.4-1.8-1.7-1.7c-1.5,0.1-3,0-4.5,0c-0.8,0-1.4-0.2-1.4-1.2c0-1,0.6-1.1,1.4-1.1c4.9,0,9.8,0,14.7,0c0.8,0,1.4,0.1,1.4,1.1
		c0,1-0.6,1.2-1.4,1.2c-1.4,0-2.8,0-4.3,0c-1.9,0-1.9,0-1.9,1.9C275.3,122.6,275.3,125.3,275.3,128z"/>
	<path class="st2" d="M215.9,128c0-2.8-0.1-5.6,0-8.4c0-1.3-0.4-1.7-1.7-1.6c-1.5,0.1-3,0-4.5,0c-0.8,0-1.4-0.2-1.4-1.2
		c0-1,0.6-1.1,1.4-1.1c4.9,0,9.8,0,14.7,0c0.8,0,1.4,0.1,1.4,1.1c0,1-0.5,1.2-1.4,1.2c-1.6,0-3.1,0.1-4.7,0c-1.2,0-1.6,0.4-1.5,1.6
		c0,5.6,0,11.2,0,16.9c0,0.6,0.2,1.4-0.8,1.5c-1,0.1-1.6-0.1-1.6-1.3C215.9,133.7,215.9,130.9,215.9,128z"/>
	<path class="st2" d="M12.1,128c0-2.7-0.1-5.5,0-8.2c0-1.4-0.5-1.8-1.8-1.8c-1.5,0.1-2.9,0-4.4,0c-0.8,0-1.4-0.2-1.4-1.2
		c0-1,0.6-1.1,1.4-1.1c4.9,0,9.8,0,14.7,0c0.7,0,1.3,0.1,1.3,1c0,0.9-0.4,1.3-1.3,1.3c-0.4,0-0.9,0-1.3,0c-1.6,0.1-3.6-0.7-4.6,0.4
		c-1,1.1-0.3,3.1-0.3,4.7c0,4.4,0,8.9,0,13.3c0,0.6,0.2,1.4-0.8,1.5c-1,0.1-1.6-0.1-1.6-1.3C12.2,133.8,12.1,130.9,12.1,128z"/>
	<path class="st2" d="M97.6,126.8c0-3.1,0-6.1,0-9.2c0-0.9-0.2-1.9,1.2-1.8c1.4,0,1.1,1,1.1,1.8c0,5.3,0,10.6,0,15.9
		c0,2.3,0,2.3,2.4,2.3c2.2,0,4.3,0,6.5,0c0.8,0,1.5,0.1,1.5,1.2c0,1.1-0.7,1.1-1.5,1.1c-3.3,0-6.5,0-9.8,0c-1.2,0-1.6-0.4-1.5-1.6
		C97.6,133.2,97.6,130,97.6,126.8z"/>
	<path class="st2" d="M524.4,117.9c-0.4,1.1-0.9,2.1-1.4,3.2c-0.1,0.3-0.2,0.7-0.6,0.7c-0.4,0-0.5-0.4-0.6-0.7
		c-0.5-1.1-0.9-2.1-1.7-3.1c0,0.9,0,1.8,0,2.8c0,0.4,0.1,1-0.4,1.1c-0.6,0-0.4-0.6-0.4-1c0-1.4,0-2.8,0-4.3c0-0.4-0.1-0.9,0.5-1
		c0.6-0.1,0.8,0.4,1,0.8c0.6,1.2,0.9,2.6,1.7,3.8c0.8-1.2,1.1-2.5,1.6-3.7c0.2-0.5,0.4-1.1,1-0.9c0.6,0.2,0.5,0.8,0.5,1.2
		c0,1.5,0,2.9,0,4.4c0,0.3,0,0.6-0.3,0.7c-0.5,0-0.5-0.4-0.5-0.7c0-1.1,0-2.1,0-3.2C524.6,118,524.5,118,524.4,117.9z"/>
	<path class="st2" d="M518.1,115.7c-1.9,0.8-1.9,0.8-1.9,2.9c0,0.9,0,1.8,0,2.7c0,0.2,0,0.5-0.3,0.6c-0.4,0-0.5-0.3-0.5-0.6
		c0-0.9-0.1-1.8-0.1-2.7c0-2.1,0-2.1-1.7-2.9C515.1,115.4,516.6,115.4,518.1,115.7z"/>
	<g>
		<path class="st2" d="M518.6,35.3c-1-0.6-1.5-1.4-1.8-2.5c-1.4-5.9-4.5-10.8-9.4-14.4c-5.9-4.4-12.5-6.1-19.8-5
			c-1.7,0.3-2.5-0.4-3.5-1.5c-5-5.6-11.2-9.1-18.5-10.9c-2.3-0.6-4.7-0.7-7-1.1c-1.2,0-2.5,0-3.7,0c-0.3,0.1-0.6,0.2-1,0.2
			c-5.1,0.3-9.9,1.7-14.3,4.1c-11.1,6.2-17.5,15.4-18.5,28.2c-0.1,1.4-0.6,2.4-1.9,3.4c-8.9,6.3-12.7,15-11.2,25.8
			c0.9,6.3,4.1,11.5,8.9,15.6c4.7,4,10.2,6.4,16.6,6.4c23.8,0,47.7,0,71.5,0c6.7,0,12.5-2.5,17.4-7C535.3,65,533.4,44.5,518.6,35.3z
			 M455.4,71.3c-3.3-0.1-6.6-0.1-9.9,0c-1.2,0-1.7-0.3-1.7-1.7c0-14.2,0-28.3,0-42.5c0-1.3,0.5-1.7,1.7-1.7c3.4,0.1,6.7,0.1,10.1,0
			c1.4,0,1.8,0.5,1.7,1.8c-0.1,7,0,14.1,0,21.1c0,7,0,14.1,0,21.1C457.3,70.9,456.8,71.4,455.4,71.3z M497.6,48.8
			c-2.5,2.1-5.6,2.9-8.7,3.5c-2.9,0.5-5.8,0.3-8.6,0.3c-1.3,0-1.8,0.4-1.8,1.7c0.1,5.1,0,10.1,0.1,15.2c0,1.4-0.4,1.9-1.9,1.9
			c-3.4-0.1-6.7-0.1-10.1,0c-1.4,0-1.8-0.5-1.8-1.8c0-7,0-14.1,0-21.1c0-7,0-14,0-21c0-1.9,0-1.9,1.9-1.9c6.6,0,13.2,0,19.9,0
			c2.4,0,4.7,0.4,7,1.2c4.5,1.6,7.3,4.6,8,9.4C502.3,40.9,501.7,45.4,497.6,48.8z"/>
		<path class="st2" d="M483.5,30.2c-1.2-0.3-2.4-0.2-3.7-0.4c-1-0.1-1.4,0.3-1.4,1.4c0.1,2.6,0,5.2,0,7.8c0,2.6,0,5.2,0,7.8
			c0,0.5-0.1,1.1,0.7,1.3c3.6,1,7.6-1.2,8.6-4.8c0.8-2.9,0.8-5.8,0.1-8.7C487.3,32.4,485.9,30.8,483.5,30.2z"/>
	</g>
</g>
</svg>
