<?xml version="1.0" encoding="utf-8"?>
<!-- Generator: Adobe Illustrator 22.0.1, SVG Export Plug-In . SVG Version: 6.00 Build 0)  -->
<svg version="1.1" id="Layer_1" xmlns="http://www.w3.org/2000/svg" xmlns:xlink="http://www.w3.org/1999/xlink" x="0px" y="0px"
	 viewBox="0 0 446.8 125" style="enable-background:new 0 0 446.8 125;" xml:space="preserve">
<style type="text/css">
	.st0{fill:#FFFFFF;}
	.st1{font-family:'ElectrofiedBold';}
	.st2{font-size:16px;}
</style>
<g id="Ox7YI8.tif">
	<g>
		<path class="st0" d="M73,108c-8.7,0-17.4,0.1-26.1,0c-2.7,0-5.4-0.2-8.1-0.5c-4.5-0.5-8.9-1.5-13-3.5c-3.9-1.9-7.4-4.2-10.6-7.1
			c-4.3-4-7.6-8.6-9.9-14c-1.4-3.4-2.4-7-3.3-10.6C1.6,69.6,1,67,0.7,64.5C0.4,62.7,0,60.9,0,59.1c0-4.1-0.3-8.2,0.4-12.2
			c0.3-1.6,0.6-3.1,0.9-4.7c0.7-3.1,1.2-6.2,2-9.3c1.2-4.3,2.8-8.5,5-12.5c2.2-4,5.1-7.3,8.6-10.2c3.9-3.2,8.3-5.3,13-7
			c2.8-1,5.7-1.6,8.6-2.1C40.3,1,42,0.8,43.7,0.7c13.8-0.9,27.6-0.1,41.5-0.4C90,0.1,94.7,0.1,99.5,0c1.9,0,3.1,0.6,4.1,2.2
			c4.5,7.1,9.2,14.2,13.8,21.3c2,3.1,4,6.1,5.9,9.2c0.7,1.1,0.9,1.1,1.5,0c2.7-4.2,5.4-8.4,8.1-12.6c2.1-3.2,4.2-6.5,6.3-9.7
			c2-3.1,4-6.1,5.9-9.2c0.7-1.1,1.6-1.2,2.6-1.2c3.1,0,6.3,0.2,9.4,0.2C161.5,0.1,165.8,0,170,0c0.8,0,1.8-0.2,2.2,0.5
			c0.4,0.6-0.5,1.3-0.9,1.8c-3.9,6-7.9,12-11.9,18c-3.6,5.5-7.3,10.9-11,16.4c-3.3,4.9-6.6,9.9-9.9,14.8c-0.5,0.8-0.5,1.3,0,2.1
			c3.9,5.6,7.7,11.2,11.5,16.9c3.7,5.5,7.4,11.1,11.1,16.6c4.4,6.5,8.8,13,13.2,19.4c0.2,0.3,0.7,0.7,0.4,1.1
			c-0.2,0.4-0.7,0.3-1.1,0.3c-8.4,0-16.8,0-25.2,0c-0.8,0-1.3-0.3-1.7-1c-4.4-7.3-8.9-14.6-13.4-22c-2.6-4.3-5.2-8.6-7.8-12.9
			c-0.6-1-0.8-1.1-1.5-0.1c-4.6,7.2-9.1,14.4-13.7,21.6c-2.9,4.5-5.8,9-8.7,13.5c-0.5,0.7-1.1,0.8-1.9,0.8c-8.6,0-17.2,0-25.8,0
			C73.8,108,73.4,108,73,108C73,108,73,108,73,108z M57.9,63.1c-9.9,0-19.8,0-29.7,0c-1.5,0-1.6,0.1-1.5,1.5c0.3,3.8,0.8,7.6,2,11.3
			c1.7,5.3,5.2,9,10.4,11.1c3.8,1.5,7.7,1.8,11.7,1.9c11.6,0.1,23.3,0,34.9,0.1c1.2,0,1.9-0.4,2.5-1.3c4.1-6,8.3-12,12.5-18
			c3.4-4.8,6.8-9.6,10.3-14.4c0.5-0.7,0.6-1.2,0.1-2c-4.3-6.4-8.6-12.7-12.9-19.1c-3-4.4-5.9-8.8-8.8-13.2c-0.8-1.2-1.6-1.7-3.1-1.7
			c-11.4,0.1-22.8,0-34.1,0.1c-2.1,0-4.3,0.1-6.4,0.5c-4.2,0.8-8.1,2.2-11.3,5.2c-2.9,2.7-4.7,5.9-5.7,9.6c-0.7,2.5-1.3,5.1-1.6,7.7
			c-0.2,1.4-0.2,1.4,1.2,1.4c0.3,0,0.7,0,1,0c19.4,0,38.8,0,58.2,0c2,0,2,0,2,2c0,5.1,0,10.1,0,15.2c0,2,0,2-2,2
			C77.6,63.1,67.8,63.1,57.9,63.1z"/>
		<path class="st0" d="M177.6,54.4c0-17.1,0-34.3,0-51.4c0-2.8,0-2.9,2.9-2.9c15.9,0,31.8-0.1,47.7,0c6.3,0.1,12.7,0.1,18.9,1.3
			c4.4,0.8,8.7,2.1,12.5,4.6c5.8,3.8,9.9,9.1,12.1,15.7c1.7,5,2.4,10.2,2.2,15.5c-0.3,7.1-1.7,13.9-5.9,19.8
			c-3.9,5.4-8.9,9.3-15.3,11.3c-2.4,0.8-4.9,1.2-7.5,1.5c-8.7,1.2-17.5,1.3-26.3,1.3c-4.4,0-8.7-0.3-13.1-0.4
			c-1.2,0-2.5,0.1-3.7,0.2c-0.6,0-0.9,0.3-0.9,0.9c0,0.4,0,0.7,0,1.1c0,11.1,0,22.3,0,33.4c0,1.9,0,1.9-1.9,1.9
			c-6.6,0-13.2,0-19.8,0c-1.9,0-1.9,0-1.9-2C177.6,88.8,177.6,71.6,177.6,54.4z M212.4,19.7c-4.1,0-7.1,0-10.1,0
			c-1.4,0-1.5,0.1-1.5,1.5c0,4.7,0,9.5,0,14.2c0,1.1,0,2.2-0.1,3.3c-0.1,3.9-0.2,7.9-0.4,11.8c0,0.6,0.2,1,0.9,1
			c1.8,0,3.6,0,5.4-0.1c4.7-0.3,9.4-0.2,14.1-0.1c5.9,0.2,11.8,0.3,17.6-1.4c4.5-1.3,7.5-4.2,9.1-8.5c1.7-4.6,1.4-9.2-0.7-13.6
			c-1.3-2.7-3.2-4.9-6.2-6c-3.4-1.2-6.9-1.8-10.5-1.8C223.9,20,217.6,19.5,212.4,19.7z"/>
		<path class="st0" d="M310.5,82.8c-7.2,0-14.4,0-21.6,0c-1.1,0-1.7,0.4-2.1,1.5c-2.9,7.6-5.7,15.2-8.5,22.9
			c-0.2,0.7-0.7,0.9-1.3,0.9c-7.6,0-15.1,0-22.7,0c-1.1,0-1.3-0.3-0.8-1.3c2.6-6.2,5.2-12.3,7.8-18.5c2.4-5.7,4.8-11.4,7.3-17.1
			c2.5-5.9,5.1-11.8,7.6-17.8c2.4-5.7,4.8-11.4,7.2-17.1c3.2-7.5,6.4-15,9.5-22.6c1.6-3.9,3.2-7.7,5-11.5c0.6-1.3,1.3-1.9,3-2
			c6.9-0.3,13.9,0,20.8-0.2c1.1,0,1.6,0.5,2,1.5c1.8,4.3,3.6,8.6,5.4,12.9c2.7,6.3,5.4,12.7,8.1,19c2.4,5.7,4.9,11.5,7.3,17.2
			c2.4,5.5,4.8,11,7.1,16.6c2.4,5.4,4.7,10.9,7.1,16.3c3.3,7.7,6.6,15.5,9.9,23.2c0.5,1.1,0.3,1.3-0.9,1.3c-7.8,0-15.6,0-23.4,0
			c-0.8,0-1.2-0.2-1.5-1.1c-3-7.8-6.1-15.5-9-23.3c-0.3-0.8-0.9-0.9-1.6-0.9c-4,0-8,0-11.9,0C317.2,82.8,313.8,82.8,310.5,82.8z
			 M310.2,21.8c-0.3,0.6-0.4,0.9-0.6,1.3c-2.8,7.4-5.6,14.9-8.4,22.3c-2,5.4-4.1,10.7-6.2,16c-0.6,1.6-0.6,1.6,1.1,1.6
			c2.6,0.1,5.2-0.2,7.8-0.2c7.1,0,14.3-0.1,21.4,0.2c1.2,0,1.3-0.1,0.8-1.3c-1.2-2.8-2.4-5.5-3.6-8.3c-3.4-8.2-6.7-16.5-9.7-24.8
			C312.1,26.5,311.2,24.3,310.2,21.8z"/>
		<path class="st0" d="M421.7,108c-7.4,0-14.8,0.1-22.2,0c-2.7,0-5.5-0.5-8.2-1.1c-3.3-0.7-6.5-1.8-9.5-3.2
			c-3.1-1.4-5.9-3.3-8.5-5.5c-3.4-2.8-6.1-6.1-8.4-9.9c-2-3.2-3.5-6.7-4.7-10.3c-1-3.1-1.7-6.4-2.1-9.6c-0.4-3.5-1-7-0.5-10.4
			c0.6-4,0.1-8.1,0.4-12.1c0.2-2.1,0.4-4.2,0.7-6.4c0.3-1.7,0.6-3.3,0.9-5c0.6-3.2,1.6-6.2,2.9-9.1c2.2-5,5.1-9.5,9-13.3
			c3.8-3.6,8.3-6.3,13.2-8.1c5.2-1.9,10.6-3,16.1-3.4c3.3-0.2,6.7-0.4,10-0.4c11.1-0.1,22.3,0,33.4,0c1.9,0,1.9,0,1.9,1.9
			c0,5.2,0,10.4,0,15.5c0,1.8,0,1.8-1.9,1.8c-13,0-26-0.1-39,0.1c-4.6,0.1-8.8,1.6-12.6,4.4c-3.9,2.8-5.8,6.9-7.4,11.2
			c-0.9,2.4-1.4,5-1.9,7.6c-1.2,6.4-0.8,12.8-0.7,19.2c0,2,0.3,4.1,0.7,6.1c0.4,2.7,1,5.3,1.8,7.8c2.1,6,6.1,9.8,12.2,11.6
			c3.5,1,7.1,1.3,10.8,1.3c12-0.1,24,0,36,0c1.8,0,1.9,0,1.9,1.8c0,5.4,0,10.8,0,16.2c0,1.4-0.1,1.5-1.5,1.5
			C437.1,108,429.4,108,421.7,108C421.7,108,421.7,108,421.7,108z"/>
		<path class="st0" d="M175,52.3c0,15.9,0,31.7,0,47.6c0,0.6,0.3,1.4-0.3,1.6c-0.6,0.2-0.9-0.7-1.2-1.1c-1.6-2.3-3.2-4.6-4.7-6.9
			c-2.9-4.3-5.7-8.6-8.5-12.9c-3.8-5.7-7.5-11.3-11.3-17c-2.3-3.3-4.6-6.6-7-9.9c-0.5-0.8-0.7-1.4-0.1-2.2c1.9-2.7,3.9-5.5,5.8-8.2
			c2.7-3.9,5.3-7.8,8-11.7c2-3,4-6.1,6-9.1c4-6.1,7.9-12.2,11.9-18.3c0.2-0.3,0.4-0.6,0.6-0.8c0.1-0.2,0.3-0.5,0.6-0.4
			c0.4,0.1,0.3,0.4,0.3,0.7c0,0.4,0,0.7,0,1.1C175,20.6,175,36.5,175,52.3z"/>
	</g>
</g>
<text transform="matrix(1 0 0 1 183.249 122.9029)" class="st0 st1 st2">prE prEss sErvice group</text>
</svg>
