<?xml version="1.0" encoding="utf-8"?>
<!-- Generator: Adobe Illustrator 22.0.1, SVG Export Plug-In . SVG Version: 6.00 Build 0)  -->
<svg version="1.1" xmlns="http://www.w3.org/2000/svg" xmlns:xlink="http://www.w3.org/1999/xlink" x="0px" y="0px"
	 viewBox="0 0 353 471" style="enable-background:new 0 0 353 471;" xml:space="preserve">
<style type="text/css">
	.st0{fill:#F8C330;}
</style>
<g id="Layer_3">
</g>
<g id="Layer_1">
	<path class="st0" d="M344.7,120.1c-0.7-3.8-4.5-7-6.8-10.1c-9.8-9.6-22.2-15.2-34.9-20c-4.6-1.4-9.3-2.5-13.8-4.1
		c1.6-2.5,3.6-4.5,5-7.2c0.9-2.1,1.4-4.3,2.1-6.5c2-0.5,4.6-0.5,6.2-1.9c4.8-3.9,6.1-11.2,3.2-16.6c3-8.5,0.4-16.8-4.1-24.3
		c-2.8-4.5-7-7.1-11.6-9.5c-5.6-3.2-12.8-2.7-18.8-1.2c-5.5-1.1-12.9-2-17.7,1.5c-2.5,2.2-3.4,5.8-5.8,8.2c-1.8,2.1-5,2.5-6.7,4.5
		c-0.6,3.8,4.2,7.3,6.5,9.7c0,1.4-0.1,2.8-0.1,4.2c-3.6,1.1-6.4,4.1-5.8,8c-0.2,4.7,4,7.6,7.4,10c0.9,4.9,1.3,10.4,3.3,14.9
		c-0.8,0.2-1.7,0.4-2.5,0.6c-0.9,1.2-1.8,2.4-2.7,3.6c-3.6,0.3-7.2,0.2-10.8,0.5c-14.5,3.5-27.8,10-42,14.2c-1.6-3-2.2-6.6-2.9-9.9
		c-1-6.8-2.4-13.5-3.7-20.2c-1.1-4.8-1.8-9.4-3.7-14c2.8-3.2,5.9-6.1,8.7-9.3c2.4-2.7,3.3-5.8,5.1-8.9c1.4-2.5,3.1-5.1,4.1-7.8
		c-0.1-2.1-1.7-3.6-3.7-3.9c-3.2,1-6,3.5-7.8,6.3c-1.4,1.9-2.6,3.8-5.2,3.9c-0.7-9.7,0-19.5-1-29.2c-0.1-1.7-0.7-3.2-1.4-4.8
		c-0.8-0.1-1.6-0.1-2.4,0c-3.4,2.1-1.7,7.8-3.1,11.2c-1.2-4-0.9-7.9-2.6-11.8L174.3,0h-3.8c-1.6,4.7-0.1,10.1-1,15.1
		c-0.8-2.5-1.2-5.1-1.9-7.6c-0.9-2.3-4.4-2.3-5,0.2c-1,3.8-0.2,8.2-0.1,12.1c-1.7-1.7-1.7-6.5-4.6-6.4c-2.8,1.9-1.8,4.8-2,7.7
		c-0.3,11.5,2.1,22.1,4.8,33.2c-1.8,1.7-3.5,3-3.4,5.8c-0.1,10,1.5,20.1,2.6,30c0.6,7.2,2.1,14.4,3.3,21.5c0.3,2.6,0.9,5,1.8,7.4
		c-14.5-7.9-29.5-16.2-44-24c-4.2-1.9-8.6-5.9-13.1-6.4c-3.8-0.2-6.3,2.8-5.9,6.5c2.5,13.5,5.3,26.4,8.2,39.8
		c1.5,8.8,3.6,17.5,5.5,26.3c1.4,5.5,1.7,11.1,3.5,16.6c-3.8-2.2-6.9-4.7-11.2-5.9c-1.4,0-2.6,0.9-3.8,1.5
		c-23.5,13.7-47.5,27.3-71.1,40.9c-7.7,4.1-14.8,8.9-20.2,15.8C5.1,239.1,0.7,251.3,0,263.3v113.6c2.5,2.9,5.9,4,9.2,5.9
		c9.6,5.5,19.4,10.5,28.9,16.1c1.1,0.5,2.5,1.5,3.7,1.1c1.5-1.3,1.5-3.2,2-5.1c1.5-5.6,3.5-11.2,5.3-16.8c1.5-6.6,3.8-12.9,5.7-19.4
		c1.8-7.3,4.5-14.5,6.5-21.7c2-8,5.1-15.8,7.1-23.8c1.7-6.4,4.5-12.8,9.7-17.1c3-3,6.8-4.3,10.3-6.7c18.3-11,36.9-21.7,55.1-32.8
		c2-1,3.9-2.1,5.5-3.7c0.7-12.5,0-25.2,0.6-37.7c2.4,1.3,4.7,2.7,7,4.1c-1.6,1.5-2.8,2.2-2.7,4.6c0.2,4.6,0.2,9.8,1.7,14.2
		c3.6,3.4,7.7,4.9,12,7.1c15.2,8.8,30.6,17.5,45.9,26.2c1.3,0.6,2.6,1.7,4.2,1.2c6.5-1.8,12.8-6.2,18.4-9.9
		c14.1,8,28.4,15.6,42.6,23.5c2.8,1.8,5.9,0.5,8-1.6c0.9-2.8,0.5-5.4-0.1-8.2c-2.7-12.3-4.5-24.4-7.4-36.7c7.7-4,15.1-8.4,22.5-12.9
		c-0.4,3.4,0,6.7-0.1,10c-0.4,9.5,3.5,19.5,2.9,29c-0.1,2.7-0.5,5.2-2,7.4c-3.8,5.7-8.9,10.6-13.1,16
		c-13.1,14.9-26.4,29.5-40.1,43.9c-4.8,5-9.6,9.7-14.1,15c-4.1,5.5-3.3,14.1-4.5,20.7c-1.2,9.7-5.9,16.9-10.5,25.3
		c-3,4.7-5.8,9.6-8.7,14.4c-3.3,5.7-1.8,13-5.5,18.4c-1,1.5-2.5,1.4-4.1,1.6c-3.1,0.3-6.5-0.6-9.6-1.3c-6.2-1.5-13.3-3.5-18.5-7.3
		c-2.5-2.3-1.6-4.8-1.4-7.9c1.7-10.5,4.7-20.4,6.9-30.8c3.2-11.5,6-23.2,9.4-34.6c2.5-9.1,4.9-19.1,9.6-27.3c3-5,6.1-9.8,9.5-14.5
		c4.9-8,10.7-15.3,15.7-23.3c0.9-1.5,3.6-3.3,2.7-5c-2.6,1.1-4.2,4.5-6.2,6.6c-8.9,9.8-18.5,19-29,27c-3.9,3.1-10.3,5-12,10
		c-1.6,5.4-1.8,11.2-3.3,16.7c-4.5,12.9-13.3,22.3-20.6,33.4c-3.3,6.5-5.9,13.6-8.6,20.3c-2.4,4.7-5.1,9.8-10.6,11.3
		c-7,1.8-12.2-1.1-18.5-3.3c-3.5-1.6-7-3.6-9.7-6.4c-1.9-2.8-4.3-6.6-3.4-10.1c0.7-5.3,3.9-10.6,6.1-15.5
		c6.4-13.5,15.7-26.6,20.3-40.7c4.6-10.9,7.1-22.2,12.2-32.9c4.7-8.5,11.8-12.8,18.9-19.2c6.8-5.9,13.8-11.8,20.4-17.8l-0.3-1.2
		c-3.1,0.8-4.7,3-7.1,5c-6.5,5.5-12.8,11.3-19.3,16.7c-4.6,4.3-9.7,8-13.2,13.8c-2.5,4.7-4.5,9.7-6.3,14.8c-2,6.8-4.8,13.2-7,19.9
		c-5.2,14.6-13.4,26.3-20.1,40c-3,5.5-5.8,11.8-6.9,18c-0.5,2.7,1.4,5.3,2.5,7.7c-4,7.3-6.8,14.3-12.6,20.3c-2.5,2.5-5.4,5.2-9,5.8
		c-6.9,0.9-14.1,0.2-21,1.3c-4.3,0.6-8.2,6.7-5.9,10.6c3.7,4.6,9.3,6.7,14.9,8.1c7.1,1.6,13.4,0.4,19.8,3.3
		c4.6,1.7,8.9,4.2,13.7,5.5c2.4,0.6,5.2,0.9,7.2-0.8c2.8-2.8,4.7-6.2,6.2-9.8c4.5-9.4,8.1-19.1,12.6-28.4c0.9-2.7,5.1-1.7,7.4-2.8
		c4-1.7,7.3-5.8,9.3-9.6c2.8-6,5.3-12.2,7.6-18.4c1.5-4,4.2-7,6.4-10.6c6.3-8.1,12.5-17,16.3-26.6c1.9-5.6,1.5-11.9,3.5-17.4
		c1.2-2.8,3.5-4.6,6.2-5.9c9.9-5.6,17-13.4,25.2-20.7c-7.2,10.9-16.4,22.7-20.7,35.3c-2,7-4.2,14-6.2,21c-2.3,9.8-5.6,19.3-7.7,29.2
		c-3.1,11.6-6.1,23-7.6,35c-0.4,2.2,0.4,3.8,1.3,5.7c-2,4.8-4,9.8-6.7,14.3c-2.9,4.9-8.7,5.2-13.7,6.4c-6.4,1.6-13.1,2.9-19.1,5.8
		c-1.9,0.9-3.5,2.5-3.1,4.8c0.2,4.1,3.9,6.3,7.4,7.7c10.8,4.3,21.8,9.5,33.3,11.4h7.8c2.1-0.5,4.1-1.2,5.4-3c3.4-3.5,3-9.3,4.3-13.8
		c2.8-8.1,7.8-15.3,11.1-23.1c3.6-0.6,7.3,0.6,9.8-3c3.1-5.8,2.5-14.1,6.1-19.8c5.8-10.1,12.7-19.9,16.9-31.2
		c1.8-4.9,2.1-10.5,2.6-15.6c0.4-3,0.1-6.5,1.5-9.2c1.6-3,3.9-5.5,6.2-7.9c18.7-19,36.7-38.7,54.1-58.9c3.5-4.5,8.4-9.2,10.4-14.5
		c1.8-8.4-0.4-18.1-2-26.4c9.9,2,20-1.6,27.2-8.4c3.3-3.6,4-8.1,5.3-12.6c1.1-5.5,2.2-11,2.7-16.6c2.8-20.2,4.2-40.8,5.2-61.2
		C344.6,137.3,345.2,128.5,344.7,120.1z M120.1,425.1c-2.7,5.6-4.2,10.9-7.9,16c-1.5,2.2-3.3,3.1-6,2.7c-5.4-1.3-10.6-3.9-15.6-6.2
		c-5.7-2.2-12.6-1.9-18.5-2.6c-3-0.5-6-1.9-8.8-3.2c-2.5-1.5-5.1-2.7-5.8-5.8c0.8-3.1,2.1-5.6,5.6-6c7.7-1,17.3,0.5,24.5-2.7
		c8.9-5.8,13.9-15.5,18.2-24.9c2.5,2.2,3.8,4.7,6.8,6.1c5.4,2.4,11.2,5.2,17,6.1C125.5,410.8,123.2,418.5,120.1,425.1z M186.6,449.6
		c-2.5,4.7-1.6,9.5-3.5,14.4c-1.3,2.6-3.9,5.1-7,4.6c-4-0.2-7.4,0.3-11-0.7c-7.1-1.9-14-4.4-20.8-7.3c-4.4-1.8-10.7-3.2-13.1-7.7
		c-0.9-3.1,2.3-4.1,4.5-5.2c8.2-2.7,16.8-4.3,25.2-6.7c2.5-0.7,4.2-2.5,5.5-4.7c2.7-4.5,5.1-9.3,6.6-14.3c7.2,5.2,15.4,6.7,23.8,8.7
		C192.9,436.8,190,443.3,186.6,449.6z M242.5,33.9c2.5-1.4,5-2.2,7-4.4c2.9-2.5,2.5-6.1,5.9-8c4.4-2.5,10.9-1.2,15.6-0.4
		c3.8-0.5,7-2,11-1.3c7.6,1.4,14.8,5.5,18.8,12.4c3,6.4,5.2,12.7,3.1,19.8c-1.9-0.6-3.1-1.4-5-0.1c-3.3,2.5-3.3,6.8-5.4,10.5
		c-0.5-0.5-0.8-1-0.9-1.5c-0.6-3.7-0.5-7.3-1.5-10.9c-0.6-2.4-2.6-4.3-5.1-4.5c-7.5-0.8-15.5,1.4-23,1.5c-4.1,0-8.3-2.7-12.1-4.2
		c-0.5,2.5-1.1,5-1.4,7.6c-0.2-2.5-0.2-6-0.1-8.6C247.1,39.4,243.8,37,242.5,33.9z M250.5,63.5c-2.2-1.4-4.4-2.6-6.1-4.7
		c-0.1-2.4-0.8-5.1-0.2-7.5c0.9-1,2-1.8,3.1-2.5c0.3,3.4,0,7,0.8,10.2c1.6,1.8,2.9-0.5,2.9-2.1c0.9-3.8,0.9-7.6,1.1-11.4
		c4.8,2.9,10.4,3.9,15.9,3.1c5.9-0.8,12.1-1.2,18-1.1c1.9,0.2,2.8,1.1,3.3,2.9c0.8,4,0.6,8.3,1.8,12.3c1,1.9,2.7,1.8,4.1,0.4
		c1.6-3.2,2.3-7.4,5.2-9.9c1.3-0.2,2.2,0.2,3,1.2c2.5,4.2,2,10-1.4,13.5c-1.7,2-4.2,1.9-6.6,2.6c-1.8,1.5-1.9,4.7-3.2,6.6
		c-1.6,2.4-3,4.9-4.9,7.1c-1.2,3.9,0.2,8.7,0.7,12.6c-2.4,1.6-6.2,1.1-9,1.1c-5.9-0.8-12-2-17.8-3.3c-0.7-1.6,0.3-4,0.2-5.8
		c-1.2-1.8-3.5-2.7-4.6-4.7C252.8,78.5,251.5,70.3,250.5,63.5z M252,82.1c0.8,0.6,1.5,1.4,2.1,2.1c-1.3,0-2.6,0-3.9,0
		C249.6,82.7,251.1,82.8,252,82.1z M237,86.8c5.9-0.2,12-0.7,17.9,0c1.3,0.8,2.6,1.8,3.9,2.7c-0.1,2.2-0.2,4.4-0.3,6.6
		c4.1,1.8,8.3,2.5,12.7,3.4c5.3,1.2,11,1.7,16.3,0.9c3-1.2,2.7-3.5,2.3-6.3c9,2.5,17.5,7.7,25.4,12.7c3.5,1.9,6.5,4.6,9.3,7.4
		c-2,0.1-3.8-0.1-5.8,0.7c-6.4,2.9-10.7,7.6-15,13c-3.7,5.4-5.3,11.6-5.8,18.2c-0.7,10.5-2,21-2.6,31.5c-0.5,3.2-0.4,7.4-3.2,9.6
		c-6.4,5-14,8.5-20.8,13c-0.9-6.4-2.5-12.7-3.7-19.1c-0.7-3.6-2.2-7.2-5.7-9c-13.7-7.8-27.8-15-41.4-23c0.7-11,1.3-22.2,3.3-33.1
		c2.9-9.4,5.3-18.4,10.4-26.6C235,88.5,235.8,86.7,237,86.8z M259.1,233.8c-0.1-1.2,0.9-2.5,1.3-3.7c0.4-4.1,0-8.4-2.7-11.7
		c-1.9-2-4.3-2-6.7-3.2c5.7-4.7,12.8-7.8,19-11.9c1.9,11.9,4.8,23.6,6.9,35.4c-5,2.4-10.7,5.1-16.3,5.5
		C260.6,240.7,261.2,236.8,259.1,233.8z M218.5,148.3c-3.1-1.8-6.2-3.7-9.4-5.3c-4-1.9-7.5-4.5-11.6-6.1c6.4-0.8,12.8-2.1,19.1-3.4
		c1-0.3,2-0.6,3-0.9C219.5,137.8,218.1,143,218.5,148.3z M225.3,217.1c-3.3,3.6-8,3.7-11.7,6.5c-2.4,2.2-5.4,4.6-6.9,7.5
		c-1.1,1.8,0.5,2.9,2.1,2.5c2.9-0.8,5.5-2.3,8.4-3.2c2.3-0.3,4.7-0.3,7-0.4c-5,2.7-9.8,6.3-10.7,12.3c-12.5-7.6-25.3-14.6-37.9-22.1
		c6.1-3.7,12-7.8,18-11.6c3.1-1.6,4.9-3.8,8.3-4.5C209.7,208.5,217.4,212.9,225.3,217.1z M220.4,151.5c11.9,6.9,24.2,13.1,36.2,19.9
		c2.5,1.4,4.8,2.2,6.8,4.3c1.7,1.8,1.8,4,2.3,6.3c1.3,6.4,2.6,12.8,4,19.2c-4,2.1-7.8,4.5-11.6,6.8c-3.6,2.1-7.1,3.3-9.3,7.1
		c-5.5-0.9-11.1-0.3-16.7-0.6c-1.6-0.1-3.2,0.7-4.7,1.2c-2.5-1.2-5-2.5-7.3-4C219.8,191.7,220.1,171.6,220.4,151.5z M218.4,247.7
		c1.5,0.9,3.3,1.7,4.2,3.2c-1,1.2-1.9,1.4-3,0.5c-16.3-8.9-32.7-18-49-26.9c-3.2-1.7-6-3.9-9.5-4.9c0.2-2.2,3-1.8,4.5-1.1
		c2.6,1.2,5.3,2.1,7.9,3.2C188.3,230.3,203.4,239,218.4,247.7z M215.3,243.3c4.7-0.4,7-4.2,11.4-5.5c1-0.4,2.1-0.8,3.1-1.2
		c-1.3,1.5-2.9,2.7-4.4,4c-1.4,2.1-1.8,5.2-1.8,7.7C221.1,246.4,218.2,244.9,215.3,243.3z M234.1,244.1c0.8-0.4,1.6-0.8,2.4-1.3
		c-0.9,1.4-1.7,2.8-2.7,4.1c-2,1.1-4,2-6,3c-1.1,0.7-1.9-0.3-2.8-0.9C228.9,248.6,230.5,245.3,234.1,244.1z M238.6,243.6
		c0.8-1.2,1.8-2.2,1.6-3.7c-4.7-0.7-10.4,4.8-14.4,6.6c0.7-2.5,1.2-4.6,3.4-6.3c1.5-1.7,5.3-4,5-6.5c-2.2-0.5-4.9,0.8-7,1.4
		c-4.1,1.3-7.1,4.4-11.2,5.6c1.3-3.2,4.2-5.8,7.1-7.6c2.4-0.9,4.9-1.6,7-3.1l-0.3-1.6c-4.1-0.7-8.6-0.9-12.8-0.5
		c-2.9,0.9-5.4,2.6-8.2,3.7c1.2-2.1,2.9-3.6,4.7-5.1c3.4-3.2,8.4-3.8,12.1-6.9c1.9-1.5,3.8-2.7,6.4-2.8c5.7-0.2,11.4-0.1,17.1,0.5
		c2.7,0.1,5.8,0.8,7.7,2.8c1.8,1.5,1.5,4.7,1.7,6.8c0.1,5.7-3.7,10.3-8.3,13.1c-3.5,1.5-6.6,4.1-8.9,7.2c-1.7,2.2-4.4,3.6-6.5,5.3
		C234.9,249.2,236.7,246.2,238.6,243.6z M159.7,40.5c-1.7-8.2-2.2-16.8-1.6-25.2c2.7,3.3,2.6,8,4.7,11.7l1.8-1.8
		c0.1-4.8-0.7-9.5-0.6-14.3c0-1.4,0.3-2.8,1.1-4c2.2,3,1.8,7.5,2.8,11c0.7,2.3,0.3,6.2,2.4,7.7c0.5-0.7,0.9-1.6,1-2.5
		c0.8-6,0.6-12.2,0.3-18.2c0-1.4,0.2-2.8,0.6-4.1c0.7,1,1.4,1.9,1.6,3.2c0.8,5.7,1.9,11.3,2.5,16.9c0.3,1.5,0.5,3,2.4,2.5
		c0.3-4.5,0.1-9.1,0.9-13.6c0.4-2.2,0.1-5.1,1.5-6.9l0.8,1c1.3,9.7,0.4,20.1,1.2,30c0.1,1.1,0.4,2.1,0.9,3.2
		c2.4-0.3,4.8-0.8,6.3-2.8c2.2-3,4.4-5.7,7.7-7.6c0.6,0.4,1.2,0.9,1.9,1.3C196,35,193,43.9,186.8,48.8c-3.1,2.9-5.5,6.7-8.8,9.2
		c-4,2-9.5,1.7-13.4-0.3C161.6,52.3,160.6,46.5,159.7,40.5z M164.3,105c-2.6-15.1-4.7-30.7-4.8-46c0.5-0.9,1.1-1.8,1.6-2.7
		c2,2.2,3.7,4.2,6.9,4.4c4.1,0,7.8,0.7,11.5-1.2c1-0.8,1.9-1.8,2.9-2.7c0.6,2,1.2,4,1.8,6c2.3,11.4,4.1,22.9,6.8,34.2
		c0.5,1.7,0.9,3.8,3,4c5.6-0.7,11.2-3.7,16.4-5.4c3.7-1.2,7.3-2.8,11-4.1c3.8-1.6,7.8-2.3,11.5-3.8c-4.3,6.6-6.8,14.6-9.4,22.2
		c-2.5,6.8-2.7,13.5-3.8,20.6c-8.3,1.6-16.5,3.3-24.8,4.3c-1.4,0.2-2.8-1.1-4-1.7c-8-4.3-16-8.6-23.8-13.1
		C166.5,114.9,165.1,110,164.3,105z M190.3,135.2c-4.1,0.4-8.2,0.6-12.4,0.4c-1.7-0.2-3.7-0.5-5.1-1.5c-2.5-3-3.7-7.4-5.1-11
		c3.2,1.4,6.2,3.2,9.2,4.9C181.4,130.5,186.1,132.5,190.3,135.2z M57.5,202.5c16.6-9.5,33.9-19.5,50.4-28.9
		c3.9,2.3,7.9,4.4,11.8,6.6c0.9,4.5,1.9,8.9,2.9,13.4c0.6,2.5,0.5,4.7,2,6.9c1.2,2,3.1,2.5,5,3.7c-15.1,9-30.6,17.8-45.5,26.7
		c-13.3-6.9-26.9-13.8-40.3-20.7C48.7,208.1,52.8,204.9,57.5,202.5z M122,181.4c8,4.7,16.2,8.9,24.2,13.5c-5.1,2.2-9.5,5.3-14.3,7.9
		c-2.8-0.6-5.9-3.2-6.6-6.1c-1-4.2-1.9-8.3-2.6-12.5C122.5,183.3,122.3,182.3,122,181.4z M14.7,383.3c-4.2-2.3-9-4.4-12.7-7.5
		c-0.1-33.2,0.4-66.5,0.1-99.7c12.6,7,25.5,13.6,38,20.8c-0.1,28.7,0,57.3,0,86c0.1,4.9-0.1,9.8,0.2,14.7
		C31.9,392.6,23.1,388.3,14.7,383.3z M40.1,294.4c-12.7-6.8-25.3-13.9-38-20.6c0-3.9,0.1-7.9,0.2-11.8c0.8-14.3,7.6-27.8,18.4-37.2
		c6.3-5.4,14.1-9.1,21.2-13.3c2.4,1.7,4.9,2.8,7.6,3.9C60.3,221,71.2,226.5,82,232c-6.9,4.1-14,7.8-20.5,12.5
		c-7.6,6-13.5,13.8-17.3,22.7C40.8,276,39.9,285.1,40.1,294.4z M44.4,272.4c4-12.6,12.5-23.5,23.9-30.1c4.6-3,9.5-5.3,14.1-8.4
		c-0.3,9.8-0.5,19.6-1,29.4c-3.3,3.1-7.2,5.5-10.7,8.4c-7.2,5.4-14.3,11.1-21.6,16.4c-2.2,2-4.5,3.6-7,5.2
		C42.2,286.2,42.2,279.4,44.4,272.4z M147.5,250.6c0.1,1.5-1.8,2.2-2.9,3c-20.9,12.7-42.3,25-63.3,37.7c-5.6,3.1-9.9,8.7-12.6,14.4
		c-2,7.2-4.5,14.2-6.6,21.4c-2,8.1-5.1,15.8-7.1,23.9c-2.1,7.7-5.1,15.2-7,23c-1.9,6.3-3.9,12.6-5.6,18.9c-0.5-5.3,0.1-10.6-0.2-16
		c0-25.7-0.1-51.4,0-77c-0.6-3.1,3-4,4.9-5.8c12.5-9.8,25.4-19.2,37.6-29.3c0.5-10.9,0.8-21.8,1.2-32.7c15.2-9,30.5-18,45.8-26.8
		c5.1,3.2,10.7,5.7,15.8,8.9C147.6,226.4,147.7,238.5,147.5,250.6z M133.7,204.1c4.8-2.2,9-5.5,13.8-7.8c-0.3,3.6,0.3,7.2,0,10.8
		c-0.2,1.6,0,3.1,0.3,4.7C143,209.3,138.4,206.6,133.7,204.1z M149.5,212.8c-0.1-6.1,0.2-12.5-0.4-18.6
		c-9.1-5.3-18.5-10.2-27.6-15.6c-1.5-8-3.7-15.9-4.9-24c-3.7-16.2-6.7-32.5-10.3-48.8c-0.8-4.1-2.2-8.5-1.9-12.6
		c0.5-2.9,4.2-3.3,6.1-1.6c18.2,10,36.7,20.1,54.9,30.1c0.9,2.2,1,4.7,2,6.9c1.2,3,2.9,7.5,6.4,8.5c6,1.2,12.1,0.8,18.1,0.3
		c1.3-0.2,2.6,0.1,3.8,0.8c7.5,4.3,15.1,8.2,22.6,12.5c-1,15.4-0.4,30.9-0.8,46.4c0.2,4.5-0.6,9,0.1,13.5c-3-1.7-6.2-3.1-9.1-5.1
		c-2-1.3-4.3-2.7-6.7-3.1c-4,0-6.4,2.9-9.9,4.9c-6.3,3.7-12.6,8.7-19.1,11.8c-3.5-1.3-7.2-3.8-11.1-3.4c-1.2,0.5-2,1.6-2.9,2.5
		C156,216,152.6,214.7,149.5,212.8z M216,270.1c-3.7-1.5-7.1-3.6-10.5-5.7c-15.1-8.5-30.1-17.4-45.4-25.6c-4.6-1.9-2.5-8.2-4.1-12.1
		c2-0.3,2.7-0.1,4.3,1c4.5,3,9.4,5.1,14,8c13.5,7.5,27.4,15.5,41,23.1C216.3,262.2,216.6,266.6,216,270.1z M216.2,256.9
		c-15.8-9-32.1-18.2-48-27.1c-3.8-2.2-8-5.3-12.5-5.8c0.9-1.5,1.9-2.5,3.3-3.6c20,11.5,40.5,22.3,60.7,33.5
		C218.5,254.9,217.4,255.9,216.2,256.9z M227,266.1c-2.7,1.8-5.9,2.6-8.6,4.4c0.8-3.8-0.1-8-0.8-11.7c1.3-1.3,2.6-2.7,4.3-3.5
		c4.2,2.1,8.2,4.4,12.2,6.6C231.7,263.2,229.3,264.5,227,266.1z M236,260.6c-4.2-2.6-8.6-5-13-7.2c0.4-1,1-1.6,1.9-1.8
		c2.8,1.4,4.8-0.8,7.6-1.5c0.1,1.9,0.8,3.2,1.7,4.8c1.7-0.1,3-1.5,4.3-2.4c1.9-1.6,3.9-2.6,5.3-4.7c1.6-2.3,3.4-3.9,6-5.1
		c2.5-1.1,4.2-2.9,6.2-4.7c0.8-0.8,1.6-1.6,2.4-2.4c-0.6,3.7,1.7,10.5-1.7,13.1C250.2,253.2,242.7,256.4,236,260.6z M284,275
		c0.4,2.3,1.2,4.7,1,7c-0.5,2-2.7,4.1-4.8,2.8c-11.3-6.3-22.8-12.6-34.2-18.8c-2.5-1.5-4.9-3.1-7.7-4.1c6.3-4,13.2-7,19.3-11.3
		c1.7-1,2.1-2.6,2.9-4.3c6-0.6,11.4-2.5,16.7-5.3C279.5,252.3,282.1,263.6,284,275z M278.8,237.6c-2.2-11.6-4.5-23.7-7-35.3
		c7.4-4.5,15-8.6,21.9-13.6c2.4-1.9,2.9-5.8,3.4-8.7c1.2-11,2.2-22,3.1-33c0.5-5.5,1.1-11.7,4.4-16.4c3.7-5.8,9.2-11.8,15.9-14.1
		c3.2-1.2,6.5,1.3,7.9,4.1c4.3,8.1,3,16.5,3.7,25.4c0.9,11.4,0.1,22.6-0.4,34c-0.6,7.5-1,15.5-2.9,22.8c-1.4,4.8-5.7,6.6-9.2,9.8
		C306.7,221.9,293.1,230.6,278.8,237.6z M329.3,235.3c-5.5,5.4-13.9,7.7-21.4,8.2c-1.5,0.1-3-0.7-4.4-1.2c-1-3.2,2-3.2,4-4.8
		c8.5-5.6,16.9-11,25.5-16.5c0.8-0.5,1.6-1,2.5-1.5C333.7,224.7,333.6,231.6,329.3,235.3z M342.6,134c-0.5,6.4-0.2,12.8-0.8,19.2
		c-0.6,5.7-0.3,11.3-1.1,17c-1.2,15.6-2.3,31.2-4.9,46.6c-10.5,7.3-21.8,13.9-32.3,21.2c0.1-4,0.3-8,0-12c7.2-5,14.5-9.4,21.4-15.1
		c2.2-2,4.6-3.7,5.5-6.7c2.2-6.7,2.3-14.2,2.9-21.2c0.8-10.3,0.8-20.7,1.1-31c-0.8-9,0-18.4-2.2-27.2c-1.1-4.5-4.4-8.2-6.6-12.4
		c-2.8-3.6-7.5-6.1-11.3-8.7c-7.8-4.8-15.5-9.4-24.3-11.8c-0.6-0.8-0.9-1.9-0.9-3.4c8.6,2.1,16.9,5.2,25.2,8.2
		c9.1,4.2,17.4,9.3,24.1,16.8c1.9,2.3,3.9,4.5,4.1,7.7C342.8,125.4,342.8,129.8,342.6,134z"/>
</g>
<g id="Layer_2">
	<path class="st0" d="M32.7,322.2c-4.1-2.6-8.3-5.1-12.6-7.3c-3.3-2-6.4-4.1-10.2-5.2c-2,0.1-3.6,1.3-3.8,3.4
		c1.8,11.4,4.9,22.6,6.9,34c0.6,2.6,1,5.4,2,7.9c1.5,1.6,3.6,1.7,5.4,0.5c1.3-1.8,2.3-3.8,3.2-5.8c3.2-8.2,7.7-16.1,10.6-24.6
		C34.3,323.7,33.9,322.8,32.7,322.2z M23.5,344.5c-2,3.2-2.9,7.4-5.6,10c-0.8-0.5-1.3-1.1-1.6-1.8c-3.2-13.2-5.3-26.3-8.1-39.6
		c0.5-1.2,1.4-1.6,2.6-1c7.1,4,14.5,7.7,21.3,12.1C30.2,331.2,26.2,337.7,23.5,344.5z"/>
	<circle class="st0" cx="275.8" cy="57.5" r="3.7"/>
	<circle class="st0" cx="258.3" cy="55.7" r="3.7"/>
</g>
</svg>
