<?xml version="1.0" encoding="utf-8"?>
<!-- Generator: Adobe Illustrator 22.0.1, SVG Export Plug-In . SVG Version: 6.00 Build 0)  -->
<svg version="1.1" xmlns="http://www.w3.org/2000/svg" xmlns:xlink="http://www.w3.org/1999/xlink" x="0px" y="0px"
	 viewBox="0 0 367 487" style="enable-background:new 0 0 367 487;" xml:space="preserve">
<style type="text/css">
	.st0{fill:#F8C334;}
</style>
<g id="Layer_1">
	<path class="st0" d="M352.4,107.4c2.7-5.8,6.2-11.1,6.9-17.4c-2.7,1.2-4.3,0.4-6,2.8c1.1-2.8,2.7-6.3,2.3-9.3
		c-0.1-0.5-0.3-1.6-1.1-2.6c-3.2,3-6.1,7.5-8.2,11.1c1.5-6.2,3.9-11.4,0.9-17.6c-3.5,3.7-5.5,8.2-7.4,12.8c0.2-3,0.7-6.1,0.3-9.1
		c-0.6-1.1-1.6-1.9-2.5-2.8c-4.9,8.4-5.7,18-10.2,26.5c-1.2-3.2-1.7-6.5-2.6-9.7c-0.7-2.7-2.6-4.5-4.8-6.2c-0.7,1.3-1.2,2.6-1.2,4.1
		c-0.2,5.5,0.1,11,0.1,16.6c-2.5-0.1-5-0.3-7.4-0.5c-2.7-2.2-5.6-4.2-8.6-6c-16-9.5-33.7-16.5-51.6-21.4c-7.2-1.7-13.8-4.2-21.2-4.3
		c-6.4-4.9-12.2-9.8-20.5-11.1c2.4-12.8,1.6-25.5,0.2-38.4c-0.1-6.3-2.4-11.4-7.2-15.5c-10.3-8.3-25.1-11.2-37.2-5.2
		C157.4,8.1,153,16.4,152.7,25c-0.9,11.6,5.2,23.2,11.5,32.6c2.1,3.3,2.4,6.9,2.9,10.7c-24.5,1.2-48.7,4.5-72.2,11.4
		c-2-3.1-4.5-7.2-8.4-8.2c-3.8-0.9-6.9,1-10.1,2.8C62.7,82.3,48.9,90.2,35,98c-3.6,2.1-7.7,4.5-9.5,8.5c-2,3.9-1.6,7.8-1.5,12.1
		c-4.9,5.3-9.7,10.7-13.5,16.9C2,149.1-2.2,166.3,1.8,182.1c3.4,15.3,12.6,28.6,23.9,39.3c8.3,8,17.9,14.2,27.7,20.1
		c-4.1,4.4-9.5,6-14.3,9.7c-16.2,11.6-30.8,27.1-36.4,46.7c-2.5,7.6-2.4,15.3-1.9,23.2c1.7,15.3,9.9,29.8,20.5,40.8
		c4.9,5.3,10.4,10,16.1,14.3c-0.2,5.7-0.6,10.7,3.2,15.4c5.8,7.2,17.4,5.9,24.1,0.7c18.7,8.4,38.3,14.1,58.4,17.9
		c0.1,4.2,0,8.4,0.6,12.5c0.4,2.5,2.3,4.5,3.8,6.5c-1,8.3-2.4,16.5-5.1,24.4c-1.1,3.5-2.6,8-0.1,11.2c2.8,3.2,6.7,5.3,9.4,8.8
		c5,5.4,9.3,12.3,17.2,13.6h14c2.5-1.2,5.2-2.4,6.4-5c1.3-2.5-0.5-5.1-2-7.1c-4.1-4.9-8.7-9.4-13-14c-2.5-2.7-5.6-5.6-6.7-9.2
		c-1.4-4.6-1.5-9.8-1.5-14.6c0-3.5-0.2-6.6,1.3-9.8c2.1-4.4,3.5-9,4.8-13.7c9.9,0.8,19.8,0.8,29.7,0.9c0.9,1.1,1.8,2.2,2.7,3.4
		c0.2,6.1,0.4,12.1-0.5,18.2c-0.4,3.9-1.1,9,2.3,11.9c3.5,2.8,8.8,3.3,12.8,5.2c3,1.2,4.5,5.1,6.4,7.6c3.1,5,9,6.9,14.7,6.8
		c3.7-0.1,8.1-1,10.5-4c2.3-3.1,1.6-7.4-0.8-10.2c-6.3-8-16-13.8-22-22.1c-3.8-5.7-3.5-12-1.4-18.3c19.3-2.4,38.4-6.1,57-12.2
		c2.1,2.6,3.5,5.2,6.9,6.3c4.7,1.9,9-0.5,13-2.8c12.9-7.8,26-15.4,39-23c3.9-2.1,7.1-4.9,9.4-8.7c2.7-4.7,2.5-9.5,1.8-14.7
		c9.9-11.5,16.3-25.6,17.2-40.8c0.7-14.5-4.2-28.4-12.4-40.2c-10.6-15.1-25.2-26.3-41.2-35.2c11.2-6.1,21.6-13.5,30.7-22.5
		c3.1,0.3,6,0.6,9-0.4c6-1.5,10.3-7.8,10.9-13.8c0.4-3.7-1.3-6.7-2.7-9.9c5.5-12.3,7.3-25.9,4.2-39.1c-2.3-10.4-7.4-19.7-13.9-28.1
		c3-1.4,6-2.8,8.3-5.3C347.7,118.5,349.7,112.5,352.4,107.4z M300.2,100.8c2.9,1.6,5.6,3.5,8.2,5.5c-3.6-0.4-6.6-1.2-9.7-3.1
		c-16-9.5-33.9-16.1-51.8-20.9c-5.6-1.2-10.7-1.9-15-6.1C255.7,80.8,279,88.9,300.2,100.8z M298.7,105.4c-7.2-0.2-14.4-1-21.7-1
		c-3.6,0-6.8-0.6-9.8-2.5c-9.5-5.5-18.2-12.5-26.9-19.3c1.1,0.3,2.2,0.6,3.3,0.9C262.9,88.5,281.5,95.1,298.7,105.4z M221.3,70.7
		c14.5,10.2,27.6,22.5,43.1,32c3.4,2,6.7,3.6,10.6,3.8c14.6,0.8,29.2,1.1,43.8,2.2c0.9,3.4,1.6,7.1,3.4,10.2c1.6,2.9,4,5,6.4,7.2
		c-12.8,1.6-25.6,3.4-38.5,4.2c-4.6,0.3-9.5,1-14,0.6c-3.5-0.3-6.6-1.7-9.7-3.1c-10.3-4.7-20.7-9.3-30.9-14.1
		c-4.6-2.2-9.2-4.3-14-6.1c-0.6,7.2-0.9,14.2-0.7,21.4c-0.5,18.3-1.5,36.7-1.9,55c-0.2,1.8,0,3.9-1.1,5.5
		c-5.4,8-13.1,12.5-21.8,16.2c-0.5-19.3-1.1-38.5-1.5-57.8c8-6.8,16.6-13.9,18.6-24.8c1.9-12.4,0.6-25.7-0.2-38.2
		c1.5-1.4,2.9-2.8,4.4-4.1c0.3-5.2-1.4-9.6-3.3-14.3C216.5,67.7,219,69,221.3,70.7z M219,221.4c0.6-0.7,1.2-1.4,1.9-2
		c2.7-0.1,5.5,0.8,8.1,1.2c20.1,3.7,39.8,9.9,58.4,18.4c-1.2,0.5-2.3,1-3.5,1.5C263.2,230.5,241.5,225.6,219,221.4z M282.1,241.8
		c-19.9,8.8-41.1,14.8-62.7,17.9c0.2-12,0.3-23.9,0.6-35.9C241.2,227.1,262.7,232.7,282.1,241.8z M220,217.2
		c0.5-35.6,2-71.1,3.3-106.6c13.3,6.2,26.6,12.1,39.9,18.2c4.5,1.9,8.8,4.3,13.8,4.4c8.5,0.2,17.1-0.9,25.6-1.6
		c0.6,7.7,0.9,15.2-1.3,22.6c-1.5-2-2.9-4-4.6-5.8l-0.9,1.5c1.2,2.3,2.9,4.5,4.4,6.6c-2.7,6-6.4,11.3-10.5,16.4
		c-4.1-2.9-7.9-7-12.9-7.8c3.4,3.8,7.5,6.4,11.5,9.4c-5.4,5.6-11.2,10.8-17.8,15c-3-0.5-6-0.9-9.1-0.8c2.1,1.1,4.2,2,6.3,3
		c-6.6,3.6-13.3,7.1-20.4,9.7c-4.5,1.8-9.2,2.7-13.8,4.2c-1.8,0.8-4,1-3.8,3.5c-0.1,2.5,2.2,3.2,4.3,2.9c5-0.6,10.1-2.5,14.9-4.1
		c10-3.5,19.3-8.6,28.1-14.6c13.1,3.3,26.3,5.9,39.4,9.1c0.6,5.6,1.8,9.2,5.4,13.6c-9.9,8.9-20.1,15.9-31.9,22
		C267.9,227.5,244,220.6,220,217.2z M304.5,132.7c-0.2-1.1,1.4-1.9,2-2.6c2.5,9.8,1.6,20.1-2.6,29.3c-2.2-5.4,0.7-9.1,1.1-14.4
		C305.5,140.8,304.7,136.9,304.5,132.7z M303.2,161.1c-2.4,4.8-5.4,10-9.4,13.6c-0.9,0.1-2,0.1-3,0.1c4.1-5.4,7.8-10.7,10.9-16.7
		C302.2,159.1,302.7,160.1,303.2,161.1z M272.8,190.4c6.2-4.4,11.8-9.6,17-15c0.8,0.6,1.5,1.2,2.3,1.8c-4.8,4.9-9.9,9.6-15.5,13.7
		C275.4,190.7,274.1,190.5,272.8,190.4z M274.4,192.4c-11.6,8.3-24.9,13.8-38.7,17.3c-1.9,0.2-3.6,1.3-4.8-0.9
		c2.9-1.7,6.4-2.4,9.7-3.3c9.6-2.6,18.6-6.7,27-11.9C269.8,192.1,271.9,192.3,274.4,192.4z M293.7,178.5
		c7.6,5.5,15.1,11.1,22.7,16.6l0.2,0.6c-0.3,1.5-0.6,2.9-0.9,4.4c-12.2-2.9-24.4-5.8-36.6-8.4C284.2,187.5,288.9,183,293.7,178.5z
		 M294.9,176.8c3.8-4.2,6.7-9,9.7-13.8c6.9,8.8,13,18.3,19.8,27.1c-2.4,0.9-4.8,1.9-7.1,3C309.7,187.8,302.5,182.1,294.9,176.8z
		 M305.7,160.3c1.8-4.7,3.4-9.3,3.9-14.3c0.6-5.1,0-10.1-0.7-15.1c6.2-0.8,12.4-1.4,18.5-2.3c5.8,7.1,10.8,14.7,13.7,23.4
		c4.5,12.4,3.8,26-1.2,38.1c-4.9-1.4-8.7-1.5-13.7-0.7C319.4,179.6,312.3,170.1,305.7,160.3z M128.1,222.3
		c-10.9,1.8-21.8,4.3-32.4,7.4c-4.6,1.3-8.9,3-13.7,3.7c1.4-1.8,2.1-3.2,4.4-3.8c16.4-5.1,33.4-9.5,50.5-11.2
		C135,222.5,131.8,221.5,128.1,222.3z M135.8,223.1c-0.4,12.3-0.4,24.7-1.1,37c-20.1-2.8-39.8-7.7-58.7-15.4c1.6-2.5,2.8-5.8,5-7.7
		c4.2-2.5,9.5-3.5,14.1-5C108.4,227.8,122,225.3,135.8,223.1z M136.2,186c0.1,10.2-0.8,20.3-0.3,30.5c-17.2,2.3-34.4,6-50.8,11.8
		c6.6-12.5,13.2-25,19.6-37.5c2.1-4.1,4.4-8.2,7-12.1c7.4-11.2,15.2-22.1,22.8-33.1c0.6-0.8,1.2-1.7,1.8-2.5
		C136,157.3,136.2,171.7,136.2,186z M128.8,149.8c-6.2,8.8-12.3,17.7-18.3,26.7C106,183.1,102.7,190,99,197
		c-8.1,15.8-16.4,31.5-25.1,47c-5.8-2.7-11.4-5.4-17-8.4c7.4-18.1,15-36.1,22.8-54c2.7-6.2,6.4-11.2,10-17
		c11.1-17.2,22.2-34.5,33.4-51.6c2.6-3.9,4.9-7.5,8.6-10.4c3.9-3.1,8.1-5.9,12.4-8.5c5.6,4.9,9.4,10.9,12.9,17.4
		c2.1-0.7,4.2-1.4,6.3-2.1c1.3,9.4,3.4,18.5,6.9,27.4c1.6,3.9,3.8,7.4,7.5,9.6c4.1,2.7,8.9,2.2,13.6,2.3c0.6,19.4,1.1,38.7,1.6,58
		c-10.8,2.7-21.8,3.7-32.8,2.5c-7.9-1-14.9-4.1-21.8-7.9c0-2.6,0-5.2-0.1-7.7c6.7,2.2,13.9,2.5,20.7,0.4c5.5-1.6,8.2-9.7,4-13.8
		c-2.6-2.8-6.7-1.4-10-1.3c-5.1,0.8-9.8,0.2-14.7-1.4c0.2-8.8-0.1-17.5,0.1-26.3c0.1-4.3-0.2-8.5-0.7-12.8
		C134.3,141.9,131.6,145.8,128.8,149.8z M170.6,99.5c-1.6-5.9-5.7-11.3-9-16.4c0.9-0.5,1.8-1,2.7-1.5c5,2.7,10.4,5.7,15.9,7
		c4.2,0.7,8.3,1.1,11.8-1.8c4.4-3.3,6-7.9,6.7-13.2c2.4,4.7,4.5,9.6,6.9,14.3c1.4-0.4,2.8-0.8,4.2-1.2c0.7,8.1,1.3,16.2,1.1,24.3
		c-0.1,6.1-0.4,13-3.4,18.4c-3,5.4-7.6,9.9-12.4,13.7c-3.3,2.8-8,2.7-12,2c-4.7-0.8-7.6-4.4-9.5-8.5c-3.9-9.2-5.8-18.7-7.4-28.6
		C168.2,105.5,171.8,103.2,170.6,99.5z M157.9,109.3c-3.1-6.3-7.1-11.6-12.1-16.5c4.7-2.9,9.3-5.7,14-8.5c3,4.3,6.4,8.8,8.4,13.7
		c0.5,1.6,1.3,3.6,0,5.1C165.7,106.1,161.4,107.8,157.9,109.3z M161.8,80.8c-10.2,6-20.3,12.2-30,19c-4,2.8-6.9,6.5-9.5,10.6
		c-13.2,20.1-26.3,40.4-39.2,60.7c-4.9,7.5-7.8,15.5-11.4,23.6c-5.6,13.3-11.3,26.5-16.6,39.9c-9.4-5.7-18.3-11.8-26.2-19.5
		c-8.8-8.5-16-18.5-19.6-30.3c-2.5-7.4-2.5-15.9-1.7-23.6c2.2-14.2,9.8-25.6,19.3-36c2.7,1.7,5.6,4,9.1,3.6c3.3-0.4,6.7-2.6,9.5-4.3
		c13-7.7,26.2-15.2,39.3-22.7c2.8-1.6,5.9-3.5,7.9-6.1c2.2-3.1,2.6-6.5,3.2-10.1c8.5-2.6,17-4.4,25.7-6.1c15-2.6,29.9-4.8,45.2-4.8
		C165.4,77,164.4,79.4,161.8,80.8z M138.2,179.4c4.6,1.5,9,2.3,13.8,1.6c2.7-0.1,6.3-1.1,8.9,0c4.1,2.4,1.7,9.2-2,10.6
		c-6.8,2.1-14,2-20.7-0.3C138.3,187.4,138.3,183.4,138.2,179.4z M138.1,215.6c15.4,7.9,32.9,10.8,49.9,7.4c11.4-2,22-7.7,30-16
		c-0.5,17.7-0.3,35.3-0.8,53c-5.4,0.7-10.8,1.4-16.3,1.9c-7.6,0.6-15.3,0.4-23,0.6c-13.7,0.3-27.3-0.1-40.9-2
		C137.3,245.5,137.9,230.6,138.1,215.6z M217.4,204.3c-3,4.2-7.5,7.5-11.9,10.1c-13.1,7.7-29.3,9-44.1,7c-8-1.5-16.3-4.3-23.2-8.5
		c-0.6-3.2-0.4-6.6-0.4-9.8c3.5,2,7.1,3.9,11,5.2c10.8,4,23.1,3.8,34.4,2.4c12.7-1.7,24.6-6.7,33.2-16.3c0.7-0.9,1.5-1.7,2.2-2.6
		C218,195.8,218.8,200.6,217.4,204.3z M211.2,65.3c1.7,3.7,3.5,7.6,4.1,11.7c0.3,4.7-5.5,7.1-8.8,9.2c-1.8-4.3-3.8-8.4-5.9-12.5
		C204.7,71.4,207.5,68,211.2,65.3z M154.7,27c0-7.4,2.8-14.9,9-19.3c4.4-3.3,9.9-4,15.3-4.2c8.7-0.1,18,3,24,9.4
		c2.9,3.1,3.8,6.9,5.1,10.8c-2.6,3.1-5.1,7-9.3,8c-6.7,1.5-14.1-0.7-20.7,0.4c-2.8,0.4-3.7,3.4-4.1,5.8c-0.5,4.4-0.3,8.9-0.8,13.3
		c-1.7-3.2-3-6.6-4.8-9.8c-1.5-2.6-3.6-4.2-5.8-6.1c-0.7,1.2-1.5,2.3-2.2,3.5c-0.3,2.8,0.1,5.7,0.3,8.5
		C157.3,41,154.7,34.5,154.7,27z M164.1,52c-1.5-4.5-2.1-9.3-2-14.1c1.2,1.1,2.5,2.2,3.5,3.6c2.2,2.9,3,7,5.2,9.8
		c0.9,1.3,3,1,4.4,1.6c0.4-4,0.6-7.9,0.8-11.9c0.2-2.3,0.1-4.6,1.5-6.5c7.2-1.2,15.1,1,22.4-0.6c3.2-0.8,5.9-4.1,8.2-6.3
		c1.3,9.7,1.6,19.7,0.7,29.5c-0.4,3.5-0.9,7.8-3.1,10.6c-2.2,2.8-6,3.7-9.2,4.9c-0.3,2.4-0.5,5.2-1.5,7.4c-2,4.2-6.2,7.2-10.9,7
		c-6.3-0.1-12.3-3.8-17.7-6.7c2.4-5.8,3.1-12.1,1.7-18.3C167.1,58.5,165.2,55.4,164.1,52z M101.9,79.8c9.3-2.1,18.6-4.4,28.1-5.7
		c12.2-1.8,25-3.9,37.3-2.9c-6.4,2.5-12.5,1.6-19.1,2.5c-12.1,1-24.1,3.1-36,5.6c-6,1.3-11.9,3.3-18,4C96.7,81.5,99,80.4,101.9,79.8
		z M78.6,75.5c2.9-1.5,5.8-2.6,9-1.1C92.1,77,93.8,82,93.4,87c-0.2,4.9-3,8.8-7.1,11.3c-14.1,8.5-28.8,16.3-42.8,24.9
		c1.6-5.1,2.9-9.8,1.2-15c-1.4-4.2-4.5-6.5-7.9-8.9C50.9,91.6,64.7,83.5,78.6,75.5z M26.8,108.8c1.1-3.4,4.4-5.8,7.2-7.8
		c3.2,1.5,6.3,2.8,7.8,6.2c2.5,5,1.5,10.2-0.5,15.1c-0.8,1.7-1.5,3.2-3.4,3.8c-3.5,1.4-6.5-0.8-9.6-2.2c1.5-1.6,3.1-3.2,4.6-4.8
		c1.1,0.4,2.2,0.8,3.3,1.2c1.6-2,3.5-3.6,3.4-6.3c0.2-2.7-2.8-6.1-5.6-5.2c-3,2.5-5.3,5.7-8.3,8.2C26,114.3,26,111.3,26.8,108.8z
		 M53.2,244.6c3,1.5,5.7,3.4,9,4.4c2.8,0.9,5.5,0.9,8.4,1c0.2,4.5,1.4,8.2,3.3,12.2c2.6,5.7,0.2,11.4-2.1,16.6
		c-1.3-5.7-1.3-10.9-5.8-15.2c-6.9,8.5-10.3,18.7-16.2,27.6c0.1-6.3,3.9-11.9,3.7-18.1c-5.5,4.8-6.9,11.6-11.8,17.2
		c1.2-8.1,6.2-14.1,8.3-21.8c-6,3.3-8.4,8.8-12.1,14.1c0.6-7.2,5.4-12.1,7.2-18.8c-4.6,1.5-7.1,7.7-10.3,11.1
		C38.4,263.1,45.4,253.9,53.2,244.6z M53.9,241.9c1,0.4,2.1,0.8,3.1,1.2c3.2,1.4,6.2,3,9,5C61.4,247,57.5,244.8,53.9,241.9z
		 M180,407.8c-8.8,0-17.5-0.4-26.3-0.7c0.9-3.3,1.8-6.6,2.6-9.9c6.2-25.4,12.8-50.2,16.2-76.2c2.5-14.4,4.7-28.8,7-43.2
		c0.7,11.4,0.9,22.8,1,34.2c0.3,7.7,0.8,15.3,0.5,23C180.2,359.4,178.7,383.3,180,407.8z M168.8,330.9c-1,8.8-3.1,17.3-5,26
		c-3.9,16.6-7.8,33.3-12.3,49.8c-8.7-0.6-17.4-1.5-26-3c1.2-20.4,3.7-40.5,6.9-60.7c0.8-5,1.7-9.9,2-15c1-20.3,1.8-40.6,2.4-61
		c14,2,28,2.5,42.2,2.5C175.3,290,172.3,310.5,168.8,330.9z M101.5,357.5c-6.2-2.2-12.2-5.2-17.8-8.6c1-0.3,2.1-0.7,3.1-0.9
		c2.7,0.8,5.2,2.5,7.7,3.6c4.4,2.3,9.1,3.6,13.7,5.4C105.8,357.5,103.8,358.4,101.5,357.5z M128.1,360.6c-0.3,0.9-0.7,1.7-1,2.6
		c-6.9-1.1-13.5-1.7-20.1-4.2C113.5,356.7,121.2,360.1,128.1,360.6z M82,348.2c-4-3-7.8-6.2-11-10.1c0.4-1,0.8-1.9,1.2-2.8
		c3.8,4.3,7.6,7.8,12.4,11.1C83.7,347,82.9,347.6,82,348.2z M69.6,336.3c-4.2-6.9-7.4-14-7.5-22.2l2-0.2c2,6.8,3,13.5,7.1,19.6
		C70.6,334.4,70.1,335.3,69.6,336.3z M69.8,339.6c3.4,3.8,6.9,6.9,11,9.8c-5.9,4.8-11.5,9.9-17.5,14.6c-2.8-0.2-5.6-0.3-8.4-0.3
		C60.1,355.9,64.9,347.7,69.8,339.6z M62.7,366.5c1.3,1.4,2.5,2.9,3.6,4.5c-1.6-1.1-3.2-2.2-4.8-3.4c-1.1-0.8-2.1-1.6-3.2-2.4
		C59.8,365.6,61.3,366,62.7,366.5z M65.3,365.5c5.8-5,11.4-10.2,17.4-14.8c6.1,3.3,12.2,6.4,18.8,8.7c-11.2,5-22.5,9.9-33.7,15.1
		C67.5,371.2,66.8,368.6,65.3,365.5z M68.5,376.6c9.5-4.2,19-8.5,28.4-12.7c2.6-1.2,5.1-2.3,7.8-3.1c7.5,1.7,14.9,3.4,22.6,4.5
		c-1.5,12.6-2.9,25.3-3.9,38c-18.7-3.4-37.5-8.7-54.8-16.9C68.2,383.1,68.5,379.8,68.5,376.6z M132.7,321
		c-0.6,12.5-2.8,25.2-4.8,37.5c-4.5-0.5-9-1.2-13.4-2.2c1.9-1,3.6-2.3,5.4-3.6c-0.9,0.4-1.9,0.4-2.9,0c-2.2,0.6-4.3,1.4-6.4,2.4
		c-8-1.9-15.5-5.2-22.6-9.2c4-3.4,8.3-6.6,11.8-10.5c-1.6-0.4-2.1-0.3-3.4,0.7c-3.5,2.7-6.8,5.8-10.2,8.6c-4.7-3.2-8.8-6.7-12.5-11
		c2-3.5,4.2-6.8,5.7-10.5c-3.9,1.6-5,5.1-7.2,8.5c-2.2-4.5-4.2-8.9-4.9-13.8c-0.4-1.6-0.5-4.2-1.8-5.3c-1.6-1.9-3.9,0.4-5.8,0.9
		c1.2,8.9,3.8,17,8.9,24.4c-5.6,8.9-10.8,18-16.5,26.9c-4.4,1.1-7.8,2.7-11.5,5.2c-11.7-9.3-22.1-19.2-28.4-33
		c-5.3-11.2-6.4-24.2-3.4-36.3c4.7-17.6,17.8-31.6,31.8-42.5c-2.4,4.6-5.8,9.5-6.9,14.6c-0.5,1.9,0.4,3.6,0.8,5.5
		c1.5-1.7,2.9-3.4,4.3-5.2c-0.9,2.5-2,5.3-2.2,8c0.6,1.5,1.4,2.9,2.2,4.4c2.1-3.5,4-7,6.5-10.3c-2,6.2-6.4,10.8-4,17.6
		c4.2-3,6.3-7.3,8.6-11.8c-1.2,4.4-2,8.3-0.8,12.9c2.3-1.8,4.2-3.8,5.5-6.4c3.9-7.3,7.4-14.7,11.8-21.8c2.1,5.5,2.2,11,5.6,15.9
		c3-4.5,5.3-10.2,5.1-15.7c-0.7-4.3-3.2-8.2-4.3-12.4c-0.3-1-0.6-2-0.9-3.1c20.4,7.7,41.3,13.6,62.9,16.3
		C134.4,284.8,133.7,302.9,132.7,321z M3.3,324.8c-1.2-11-1-23.5,3.8-33.8c7.2-16.9,21.7-31,36.9-40.9c1.3-0.8,2.6-1.5,4-2.3
		c-2.4,3.3-5.1,6.3-8.5,8.7c-12.9,9.6-24.7,22.3-30.6,37.4c-5.5,13.8-5,29.6,1.1,43c6.5,14.5,17.2,25.4,29.6,35
		c-0.5,0.8-1.1,1.5-1.6,2.3C21.7,361.8,7.2,345.6,3.3,324.8z M48.1,393.9c-8.3-2.1-11.1-13.1-7.1-20c1.8-3.4,5-5.2,8.6-6.2
		c4-1.1,7.8-1,11.2,1.5c5.9,3.7,7.2,11.2,4.8,17.3C63.1,392.9,54.2,395.5,48.1,393.9z M152.7,462.3c4.5,4.8,9.4,9.4,13.5,14.6
		c0.8,1.3,2.4,2.9,1.2,4.4c-1.9,3.2-6.9,4.1-10.3,4.1c-4.2-0.1-9.3-0.2-13.1-2.3c-6.1-4.1-10-11.6-16-16c-1.9-1.7-4.9-3.2-4.9-6
		c-0.3-4.8,2.4-9.5,3.5-14.2c1.2-5.6,2-11.3,3-17c2.1,0.7,4.2,1.4,6.4,1.8c2.6,0.3,5.5-0.6,8.1-1.3c-0.2,7.4-0.3,15.6,1.8,22.8
		C146.8,456.7,150.2,459.6,152.7,462.3z M144.4,427.4c-4.4,3.7-13.9,2.1-17.4-2.4c-2.3-4.1-1.7-10-1.7-14.6c8.2,1,16.4,2.3,24.6,3.1
		C148.3,418,147.4,423.6,144.4,427.4z M183.9,414.4c6.9-0.4,13.9-0.9,20.8-1.2c-1.3,2.3-2.1,5.9-5,6.6
		C193.4,421.5,188.5,418.4,183.9,414.4z M207.1,433.9c5.6,6.8,13.3,12.2,19.3,18.7c1.8,2,3.7,4.5,3.3,7.3c-0.2,2.3-2.1,3.8-4.2,4.5
		c-4.7,1.6-10.5,1.4-14.8-1.1c-4.3-2.7-5.5-8.1-9.1-11c-4.1-2.8-10.8-2.9-14.6-6.3c-2-2.3-1.4-6.2-1.2-9c0.9-5.9,0.8-11.8,0.5-17.7
		c1,0.5,2.1,0.9,3.2,1.4c4.3,2,8.3,1.5,12.7,0.3C203.1,425.7,204,430.1,207.1,433.9z M219,409.1c-13.7,1.8-27.2,3.5-41,3.2
		c-11.7,0.1-23.4-0.2-35-1.6c-26.5-2.8-53.4-9.3-77.6-20.7c0.8-0.5,1.7-1.1,2.5-1.5c2.6,0.7,5.1,2.1,7.6,3.1
		c25.5,10.5,52.1,15.3,79.5,17.5c37.7,2.4,76.6-2.1,112.3-14.8c3.4-1,4.5-3.6,6.6-6.2c1.7,2.1,3.1,3.7,2.1,6.5
		c-3.1,1.6-6.8,1.9-10.1,3.1C250.6,402.9,234.9,406.7,219,409.1z M215.9,319c-0.2,10.1-2.8,19.9-3.3,30c-2.3,19.1-3.4,38.1-6.8,57
		c-7.9,1-15.7,1.5-23.7,1.5c-1.1-21.9,0-43.9,0.8-65.5c0.6-24.4-0.5-48.2-1.4-72.5c11.9-0.1,23.9-1.3,35.7-2.8
		C216.7,284.2,216.9,301.6,215.9,319z M218.2,312c0.5-15.2,1-30.4,1.1-45.5c13.1-1.8,26-4.8,38.7-8.6c11-3.2,21.4-7.8,31.8-12.3
		c14.8,7.3,28.8,17.5,39.4,30.3c8.9,10.8,15.4,24.9,14.8,39.2c0,13.7-6.1,26.5-14.5,37.1c-2.4-0.9-5-2.1-7.5-2.1
		c-1.7,0.2-3.5,1.2-5,2c-13.5,7.9-27.2,15.5-40.8,23.2c-4.3,2.5-9.3,4.6-12,9.1c-2,3.1-2.2,6.4-2.6,10c-17.4,5.7-35.4,9.5-53.5,11.6
		c1.9-12.2,3.2-24.5,4.6-36.7c1-11.9,2.2-23.9,4-35.7C217.6,326.4,218,319.2,218.2,312z M327.9,374c-2.5,3.3-6.3,5.1-9.8,7.2
		c-12,7-23.9,14.1-35.9,21.1c-2.7,1.4-6,3.5-9.2,3.4c-3.9-0.3-5.7-3.1-8-5.8c3.7-1.2,7.6-1.5,11.2-2.6c2.8-2.8,2.5-9.8-2.2-10.3
		c-3.3-0.4-3.9,2.6-5.5,4.8c-1.7,0.6-3.3,1.2-5,1.8c0.8-3.4,1.4-7.5,3.9-10.2c2.8-2.9,6.9-4.7,10.3-6.7
		c13.9-7.9,27.6-15.6,41.5-23.6c3.8-2.8,9.5,0.6,11.6,4C333.1,362.8,331.5,369.3,327.9,374z M335.6,276.4
		c8.2,11.3,13.4,24.4,13,38.6c0.1,15.3-6.5,28.8-15.8,40.6c-0.7-0.6-1.4-1.1-2.1-1.7c9.3-11.8,15.4-25.6,15.2-40.8
		c-0.4-14.9-6.8-28.4-16.4-39.6c-10.6-12.6-23.7-21.3-37.9-29.3c1.1-0.4,2.2-0.8,3.3-1.2C310.7,251.4,325,262,335.6,276.4z
		 M310.7,230.7c-9,6.5-18.8,11.4-28.7,16.2c-40.4,17.6-84,22.4-127.7,19.9c-31.5-2-63.5-9.2-92-23.2c-12.7-6-24.9-14-35.2-23.6
		c-9.6-9.1-17.4-19.7-21.7-32.2c-2.8-8-3.1-16.4-2.5-24.8c1-12.8,7.4-25.1,15.4-34.9c5.2-6.7,11.6-11.9,17.5-18
		c2.6,2.9,1.6,4.8,1,8.3c-1.3-0.5-2.5-1-3.8-1.4c-9.6,8.5-17.9,18-23,29.9c-6.1,13.7-6.2,29.9-0.4,43.7
		c5.9,14.3,16.2,25.4,28.2,34.8C62.1,243.9,92,254.8,122,260c10.6,2.3,21.2,3.1,32,4.1c33.4,2,68.1-0.4,100.2-9.9
		c21.3-6.3,42.8-15.9,60.2-29.7c3.9-2.8,6.1-6.7,11.3-6.7C321.5,222.8,316,226.8,310.7,230.7z M344.3,209.2
		c-3,7.7-13.5,10.6-20.1,5.6c-4.5-3.1-5.1-7.8-6-12.8c1.5-2.6,2.8-5.8,4.9-7.9c4.4-3.8,11.3-4.2,16.3-1.4
		C344.6,196.3,346.9,203.3,344.3,209.2z M346.8,154.2c3.2,13,2.4,26.5-3.1,38.8c-0.7-0.6-1.5-1.2-2.2-1.7
		c4.5-11.2,5.9-23.5,2.8-35.3c-2.5-10.7-8.3-19.5-14.9-28.2c1.2,0.1,2.3,0.2,3.5,0.3C339.4,135.5,344,144.8,346.8,154.2z
		 M338.7,123.7c-3,1.6-7.2,2-10-0.3c-4.1-3.2-6.9-8.1-7.3-13.3c-0.7-7.2-0.8-14.7-0.5-21.9c3.7,5.5,2.2,11.7,7.1,16.6
		c5.5-8.5,6-18.2,10.4-27.1c0.1,5.4-0.7,10.8-1.3,16.2c0.6,0.4,1.2,0.8,1.9,1.1c2.5-6.1,4.2-12.2,8-17.6c-0.1,7.1-3.3,13.4-3.7,20.3
		c0.8,0.2,1.4,0.1,1.7-0.5c3.4-4.4,5.5-9.7,9-14.1c-0.8,6.6-4,12-6,18.2c1.9,0.8,2.8-1.4,3.8-2.5c2.1-3.2,2.8-4.2,5.3-6.2
		c-0.6,1.9-0.9,2.7-1.7,4.6c-2.5,5.7-5.6,11.2-8.3,16.8C345.1,117.8,342.5,121.6,338.7,123.7z"/>
</g>
<g id="Layer_2">
	<path class="st0" d="M82.3,83.7C71.2,89.4,60.5,95.9,49.7,102c1.2,3.4,1.9,7,2.5,10.5c8.6-4.3,16.8-9.5,25.3-14.1
		c2.3-1.3,4.9-2.5,6.8-4.4C85.7,90.2,84.3,87,82.3,83.7z M53.8,109.7c-0.5-2.3-1-4.7-1.6-7c9.9-5.5,19.6-11.2,29.6-16.5
		c0.3,2.2,0.7,4.3,1,6.5C73.4,98.8,63.4,103.8,53.8,109.7z"/>
	<path class="st0" d="M321,361.9c-11.1,5.9-22.1,12-32.9,18.5c1.5,3.4,2.1,6.9,2.6,10.5c8.9-4.8,17.5-10,26.4-14.9
		c2-1.2,4.3-2.4,5.9-4.1C324,368.2,322.5,365.2,321,361.9z M321.2,370.9c-0.9,0.9-2,1.5-3.1,2.2c-8.5,5-17.4,9.6-25.8,14.8
		c-0.4-2.4-0.9-4.7-1.4-7.1c9.8-5.5,19.4-11.3,29.4-16.3C320.9,366.6,321.4,368.7,321.2,370.9z"/>
	<circle class="st0" cx="188.1" cy="43.8" r="3.5"/>
	<circle class="st0" cx="203.9" cy="41" r="3.5"/>
</g>
</svg>
