<?xml version="1.0" encoding="utf-8"?>
<!-- Generator: Adobe Illustrator 22.0.1, SVG Export Plug-In . SVG Version: 6.00 Build 0)  -->
<svg version="1.1" xmlns="http://www.w3.org/2000/svg" xmlns:xlink="http://www.w3.org/1999/xlink" x="0px" y="0px"
	 viewBox="0 0 396 491" style="enable-background:new 0 0 396 491;" xml:space="preserve">
<style type="text/css">
	.st0{fill:#F8C332;}
</style>
<g id="Layer_1">
	<path class="st0" d="M199.9,94c-0.6-7.1-2-14.2-5.3-20.5c-2.1-4.1-5.8-6.9-9.5-9.5c-10.8-6.8-22.4-10.3-34.6-13.6
		c3.1-3.1,6.9-2.8,9.1-6.8c2.4-3.9,1.6-7.7,0.2-11.7c2.4-8.8-0.7-17.4-6.1-24.3c-3.6-4.2-9.7-6.4-14.9-7.3L137.7,0h-2.9
		c-2.9,0.7-5.8,1.4-8.8,1c-4.6-0.4-8.9-0.8-12.6,2.5c-3.6,3.4-5.1,9.4-7.4,13.6c-1.4,2.5-4,4.3-5.2,6.9c-0.6,2.5,1.4,4.2,2.7,6.1
		c-0.2,2.2-0.9,4.3,0.1,6.4c1.2,3,3.6,4.3,6.1,6c0.5,4.3,3.2,9.1,0.7,12.8c-0.6,1.4-1.3,2.8-1.9,4.2c-5,0.1-9.9,0.4-14.6,2.4
		c-9.6,4-19,9.7-27.9,15c-12.6,7.7-25,16-35.6,26.4c-7.3,7.5-12.4,17.6-17,27C7.8,142.6,2.1,154.4,0.4,168c-0.3,4.4,0.2,10,3.1,13.6
		c3.8,4.7,8.5,8.2,13.7,11.2c0.8-0.8,1.7-1.7,2.5-2.5c4.8,5.1,11,8.8,17.2,11.8c11.2,4.5,24.6,3.5,35.3-1.9c5-3,10-6.8,13.3-11.7
		c1.2-1.8,2.4-3.7,3.6-5.5c-4,21.9-6.2,44-8.9,66.1c-1,9.2-2.3,18.3-3,27.5C76,289.9,73.8,303.6,74,317c0,24.7-0.1,49.3,0.3,74
		c0.2,5.1,0.2,10.4,1.1,15.5c0.7,4.1,3.6,6.5,3.5,10.5c-0.1,4.8,0.5,9.9-0.4,14.5c-2.2,4.3-6.4,7.8-9.9,11.1
		c-4.1,4-9.6,6.9-11.8,12.2c-1.5,3.6-1.8,8.2,1.2,11.1c1.5,1.6,3.9,1.6,6,1.8c5.7,0.4,11.5-1.3,16-4.8c2.9-2.2,4.9-5.1,7.5-7.6
		c3.9-4,12.2-3.1,15.4-7.6c1-3.1,0.2-7-0.1-10.3c-0.9-6.7-0.6-13.3,0.1-20c0.3-2.6,1.7-4.5,2.7-6.8c1.2-2.8,1.7-6.1,2.2-9.1
		c3.2-18.7,6-37.6,7.5-56.5c0.5-5.7,0.2-11.3,0-17c-0.2-5.3,2.4-9.6,2.9-15c1.6-15.1,3.1-30.3,4.7-45.4c1.4,5.3,1.3,10.9,2.1,16.4
		c1.6,11.6,1.9,22.8,4.6,34.1c1.3,5.2,2.3,10.4,2.3,15.8c0.1,13.5,2.1,27.3,3.2,40.8c0.7,10.4,2,20.7,3.1,31c0.5,3.6,0.8,7.5,2,11
		c1,2.7,3.6,4.8,5.7,6.6c0.3,7.8-0.8,15.8-0.1,23.5c2.2,3.5,6.3,6.2,8.3,9.9c1.4,3.3,0.9,7.9,2.8,11.2c2.5,4.3,7.2,7,11.8,8.3
		c3.6,0.9,7.2,1.1,10.2-1.3c5.1-4.2,6.3-12.4,3-18c-2.3-4-5.2-7.5-7.3-11.6c-3.3-6.3-5.3-13.4-6.3-20.4c-0.4-2.3,0.3-4.3,1-6.5
		c1.5-4.5,1.3-9.7,1.4-14.5c0.3-40.7-0.2-81.3-0.7-122c-0.2-6.1,1.1-12,1.4-18.1c0.7,2.6,0.1,6.6,3.6,7.2c3.6-1.2,2.8-7.4,3.3-10.3
		c0.7,1.5,1.4,3,2.2,4.6c1.6-1,3.1-1.3,3.4-3.4c1.9-10.2,1.2-21.6,0.2-31.9c2.1-2.5,3.3-4.9,4-8.1c3.9-18,5.7-35.7,7.4-54
		c0.7-6.7,0.4-13.4,1.5-20C199.8,130,201.3,112.2,199.9,94z M102.2,25.1c2.3-2.7,5-5.1,6.4-8.4c1.8-3.9,3.4-9.4,6.9-12.1
		c4.1-2.9,8.9-1.2,13.5-1.3c4-0.4,7.2-1.8,11.3-0.6c5.1,1.5,10.4,4,13.5,8.6c3.4,5.5,5.4,11.7,4.4,18.2c-1.9,0.3-4.1-0.4-5.3,1.4
		c-1.7,2.6-2.6,5.8-4.2,8.5c-0.7-3.6-0.2-8-1.8-11.3c-2-3.4-6.5-2.2-9.7-1.8c-5.8,1.2-11.4,0.8-17.2,1.1c-3.8,0.1-7.2,2.1-10.9,2.2
		C105.8,29.4,104.3,27.2,102.2,25.1z M111.3,41.1c-1.9-1.3-4.6-2.6-5.7-4.7c-0.9-1.6-0.6-3.8-0.8-5.6c1.1,0.3,2.2,0.6,3.3,0.9
		c0.3,2.1,0.4,4,1,6l1.7,0.1c0.8-2.1,1.1-4.4,1.5-6.6c5.5-2.2,10.8-2,16.6-1.9c5,0.2,10.7-2.3,15.6-1c1.8,3.7,1.1,8,2.2,11.7
		c0.9,1.8,3.2,1.4,4-0.2c1.6-3.2,2.5-6.5,5.2-9.1c3.1,3.4,4,7.6,1.5,11.7c-1.6,3-4.2,3.3-7.2,4.2c-1.6,3.9-2.8,8.8-5.8,11.8
		c-4.4,4.3-10.3,6.9-16.5,6.7c-5,0.2-9.7-3-11.9-7.3C113.2,52.6,112.6,46.9,111.3,41.1z M134.8,76.9c1-1.5,2.4-2.3,3.9-3.2
		c-2.6,5-6.2,9.1-10,13.3c-1.1,0.1-2.2,0.2-3.3,0.3C129.6,84.6,132.1,80.8,134.8,76.9z M115.7,81c0.1-3.5,1.7-7,3.5-9.9
		c5,1.5,9.6,3,14.8,3.2c-2.3,3.8-4.9,7.2-7.9,10.4C122.5,84,118.2,84,115.7,81z M119.8,69.1c0-1.2,0-2.4,0-3.6
		c2.7,0.9,5.3,1.9,8.2,2c5.8-0.1,11.1-2.1,15.7-5.7c0.4,3.1,0.8,6.3,1.3,9.4C137,73.6,127.5,71.7,119.8,69.1z M112.5,55.4
		c1,1.6,1.9,3.3,2.9,4.9c-1.5-0.2-3.1-0.5-4.6-0.8C111.3,58.1,111.9,56.8,112.5,55.4z M101,61.8c5.3-0.7,11.9-1.1,16.8,1.3
		c0.9,5.5-1.7,9.2-3.5,14.1c-1.5,3.4-0.1,8.4,3.7,9.6c3.2,1.1,7.5,3,10.9,2.2c5-3.5,8.2-10,12.3-14.6c1.5-0.5,3.1-1,4.4-1.9
		c1-1.1,0.9-3.2,1.3-4.5c9,2.6,16.6,7.4,24.4,12.4c-3.7,0.6-7,1.2-9.5,4.4c-6.3,7.4-5.5,16-5.4,25.1c1.4,16.5,5,31.9,8.6,48
		c1.3,4.8-0.5,10.6-0.9,15.5c-0.6,3.7-0.4,8.5-1.8,11.8c-6.5,4.2-14.1,6.8-20.4,11.8c-7.4,5.2-14,11.2-20.1,17.9
		c-8.7-12-19.7-22.5-30.7-32.5c0.1-7.8,0-15.7-0.6-23.5c-0.5-7.5-3-14.5-3.7-22c-1-11.3-1.1-22.7-0.7-34c1-12.5,3.7-25.8,9.9-36.8
		C97.4,64.3,98.5,62,101,61.8z M19.6,122.6c3.5-6.5,7.6-12.9,12.8-18.2c8.4-8.2,18-14.7,27.7-21.3c11.6-7,22.9-14.2,35.4-19.6
		c-7.6,12-10,26.3-11.4,40.2c-7,3.4-14,6.8-21.1,10.2c-4.9,2.2-8.4,5.3-13.9,5.5c-10.2,0.7-20.3,4.7-27.5,12.2
		c-6,6.5-10.7,14.2-12.2,23c-1.5,0.6-2.9,1.3-4.4,1.9C9,144.8,14,133.5,19.6,122.6z M84.8,135c-3-2.6-5.8-5.5-8.9-7.9
		c-5.8-4.2-12.6-5.7-19.3-7.3c8.9-4.9,18.2-9,27.3-13.5C84,115.9,83.9,125.5,84.8,135z M51.3,121.4c-9.4,12.6-18.5,25.3-28.2,37.7
		c-3.3,4.3-6.4,8.6-10.2,12.4c-0.2-3.3-0.7-7.2,0.2-10.5c1.3-2.6,3.3-4.9,5-7.3c-2.7-1.5-3.6-1.4-6.5-0.6c2.3-7,5.5-13.5,10.6-18.9
		C29.8,126.2,40.2,121.3,51.3,121.4z M5.8,181.1c-5-6.1-3.4-14.8-1.5-21.8c3.4-1.6,6.8-3.2,10.2-4.7C11.4,159,8,162.2,8.3,168
		c0.2,6.3,4.4,9.4,8.9,13.1c-2.6-1.1-5.3-2.4-8-3c-0.5,0.7-0.5,1.5,0.2,2.4c1.5,2.3,4.2,3.9,6.4,5.4C11.9,184.8,8.4,184.5,5.8,181.1
		z M16.7,189.7c-1,0.7-2.8-0.5-2.2-1.7C15.4,187.2,17.3,188.6,16.7,189.7z M71.2,194.2c-2,3-5.8,4.7-8.4,7.2
		c-6.9,2.2-14.1,1.8-21,0.1c-2.7-0.7-5.5-1.6-7.2-4c-1.4-2.1-3-4.6-1.1-6.9c3.3-4.5,9.2-6.1,14.5-6.8c7-1.1,14.4,0.2,20.5,3.9
		C70.5,189,72.9,191.5,71.2,194.2z M73.5,195.9c0-2.3,0.8-4.7-0.6-6.8c-2.4-4.2-7-5.7-11.4-6.8c-7.1-1.9-14.4-1.2-21.3,1
		c-3.7,1.3-7.7,3.9-9.4,7.5c-1,1.7,0,4,0.3,5.8c-0.9-0.7-1.8-1.4-2.7-2.1c0.1-1.9-0.2-4,0.4-5.8c1.3-2.9,4-4.9,6.8-6.3
		c10.2-5,22.9-4.9,33.2-0.3c3.8,1.5,7.2,4.5,7.7,8.8C76.6,193.1,74.6,194.4,73.5,195.9z M89,177.8c-2.4,6-6.2,10.7-10.5,15.4
		c-0.2-3.3-0.4-6.3-2.8-8.9c-3.6-4-9.7-5.9-14.8-6.9c-10.5-1.9-23.3-0.3-31.6,6.8c-2.9,2.4-3.2,5.5-3.8,8.9
		c-1.4-2.1-2.5-4.6-4.4-6.3c-2.2-1.8-4.8-3.1-7.1-4.8c2.6,1,5,2.3,7.6,3.4c1.5,0.4,4.4,1.7,3.3-1.2c-2.9-3.1-7.1-5.1-10-8.2
		c-2-2.4,1.6-4.5,2.8-6.4c12.8-15.5,24.1-32.3,36.5-48.1c5.4,0.8,10.6,2.6,15.6,4.7c5.3,2.3,9.2,6.4,13.6,10.4
		c2.2,1.9,2.1,4.6,2.8,7.3c1.2,6.4,2.7,12.5,2.8,19C88.9,167.8,89.8,173.1,89,177.8z M90.7,184.7c7.5,6.7,14.6,13.8,21.5,21.1
		c3.4,3.8,6.4,8.1,9.6,12.1c6.3-6.3,11.9-12.7,19.3-17.7c6.7-5.3,14.2-8.6,21.6-12.6c-1,8.4-1.6,16.8-2.3,25.2
		c-6.8,2.5-13.4,5.5-19.6,9.1c-6.2,3.8-12.2,7.9-18.6,11.3c-4-3.1-7.8-6.5-12-9.3c-7.6-5.2-15-10.7-23.3-14.8
		C88.3,200.8,89.5,192.8,90.7,184.7z M101,446.9c-3.9,3.4-11.3,3-15.1,7c-3.8,4-6.6,8-12,10.2c-4.1,1.6-9.7,2.7-13.9,0.8
		c-2.8-1.3-2.6-4.4-2.2-7c0.6-3.9,3.5-6.4,6.2-8.8c4.5-3.7,9-7.7,12.9-12.1c1.8-2.1,3.5-4.1,3.7-7c0.3-5,0.1-10,0.1-15
		c3.3,1.5,6.4,2.9,10.1,3c3.5,0.1,6.6-0.9,9.9-1.8c-0.9,6.7-1.3,13.3-0.5,20C100.8,439.6,101.5,443.5,101,446.9z M175.7,451.3
		c2.6,4.3,6.4,8.1,5.9,13.6c-0.1,4.3-2.3,8.4-6.6,9.7c-6.1,0.6-12.8-2.2-16.2-7.4c-1.8-3.5-1.2-8.2-3.2-11.7
		c-1.8-3.5-5.1-5.7-7.3-8.8c-1.3-1.8-1-4.5-0.8-6.6c0.5-5.2,0.6-10.3,0.4-15.5c3.2,1.2,6.6,2.7,10.1,2.3c2.8-0.2,5.6-1.9,8-3.2
		C166.8,433.6,170.3,442.9,175.7,451.3z M167.6,279c0.8,42.7,1.4,85.6,0.9,128.3c-0.4,5,0.4,11.6-4.3,14.9c-5.9,4.6-14.7,2-19.6-2.8
		c-3.4-3.1-3.3-7.6-4-11.9c-2.5-21.8-4.8-43.6-6.4-65.5c-0.3-6.1,0-12-1.3-18c-1.2-5.7-2.6-11.4-3.2-17.2c-1.5-14.5-3.4-29-5-43.6
		c-0.4-2.3-0.4-5-1.7-7c-1.3,1.1-1.2,3.2-1.5,4.8c-1.9,17.6-3.9,35.3-5.5,53c-0.3,3.6-1.9,6.7-2.7,10.1c-0.4,2.6,0,5.3,0,7.9
		c0.4,7.5-0.4,14.7-1.1,22.2c-1.7,16.4-4.1,32.8-7,49c-0.5,2.6-1,5.5-2.2,7.8c-1.8,3.1-5.6,4.4-9,4.8c-4.7,0.4-10.2-0.7-13.9-3.9
		c-1.8-1.5-2.5-3.6-2.8-5.9c-0.8-6.6-0.9-13.3-1-20C76,363.7,76,341.3,76,319c0-5,0-10,0.4-15c2.7-31,6.7-61.9,10.5-92.8
		c12.4,6.9,24.3,15.2,35.2,24.3c4.5-2.5,9-5.1,13.3-8c7.6-5.2,16.2-9.2,24.8-12.5c-0.3,4.3-0.4,8.6,0,13c-3.3,2.5-6.4,5.2-8.6,8.8
		c-2.2,3.4-5.3,6.6-6.8,10.3c0,2.8,2.5,3.9,5,2.8c3.7-1.7,6-5.4,10-7c-0.1,9.1-2.2,18.1-2,27.2c-0.2,2.2,1.6,3.7,3.6,2.5
		c1.7-2,2.2-5.1,2.9-7.6c0.4,1.7,0.8,3.4,1.2,5.1c1.2-1.1,2.4-2.2,3.6-3.4C168.4,270.8,167.4,274.8,167.6,279z M181.6,262.1
		c-1.6-3.8-2.1-7.7-2.7-11.7c-0.9,1.4-2,2.4-2.2,4.1c-0.6,5-0.3,9.8-2.2,14.5c-0.8-4-1.1-8-1.6-12.1c-0.1-1.3-0.8-2.4-1.4-3.5
		c-1.5,4.9-0.8,9.3-4.9,13c-0.4-4.3,0.9-10-1.6-13.8c-2.1,6.4-1.9,12.5-5,18.5c-0.7-10.2,2.3-20,1.7-30.2c-1.5,0.2-2.9,0.2-4.4,0.6
		c-3.7,1.8-6.4,7-10.8,6.6c1.3-3.9,4.6-7.1,6.8-10.7c2.7-4.2,6.5-6.5,10.2-9.8c2.3-1.9,4-4,7.3-4.1c2.7-0.2,6.5-0.1,8.6,1.9
		c2.4,2.1,2.4,6.1,2.8,9C182.9,243.6,183.4,253.1,181.6,262.1z M193.7,162c-0.8,15.6-3,31.1-5.4,46.5c-1,6.3-2,12.6-4.3,18.6
		c-2.9-4.4-6.9-5.6-12-5.8c-4-0.3-7,2.7-10,4.8c0.1-10.9,1.1-21.8,2.3-32.6c0.6-8.2,1.5-16.5,2.6-24.7c0.4-3.4,1.2-6.6,0.5-10
		c-2.2-9.9-4.5-19.9-6.3-29.9c-1.2-8.7-3-17.1-2.5-26c-0.1-6.3,0.9-12.4,5.4-17.1c2.5-2.7,6.2-4,9.7-2.4c2.9,1.5,5.3,4.4,7.5,6.7
		c-3.2,0.3-6,0.1-8.6,2.3c-7.7,6.4-5.3,20.3,3.5,24.5c4.7,1.7,8.9,0.4,12.8-2.4C191.4,130.6,194.4,145.7,193.7,162z M172.2,104
		c0.2,4.5,2.5,7.8,4.8,11.5c-5.1-3.4-8-9.3-6.6-15.4c0.7-3.3,2.8-5.3,5.1-7.5C173.6,96.4,171.7,99.7,172.2,104z M176.6,111.5
		c-2.7-3.6-3-8.8-2-13c1-3.5,4.4-6.9,8.3-5.2c6.2,3.1,8.4,11.8,5.3,17.8c-1.3,2.5-3.7,3.2-6.1,4.5
		C180.2,114.3,177.9,113.2,176.6,111.5z M193.6,130.1c-1-5-1.7-10.1-2.8-15.1c-0.7-2.8,0.2-5.2,0.5-8c0.6-3.7-0.2-7.9-2.3-11
		c-2-2.7-5-4.3-6.9-7.1c-5.2-7.6-13.2-12.5-21-17c-4.7-2.8-9.9-4.4-15.1-6.1c-0.1-1.3-0.3-2.5-0.4-3.8c9.4,3,18.4,5.4,27,10.3
		c5.6,3.2,10.9,6.9,15.7,11.3c2.8,2.7,5.4,5.3,5.6,9.4C194.9,105.3,194.7,117.8,193.6,130.1z M195.4,145.3
		c-1.4-7.7,0.4-14.6,0.7-22.3c0.5-5.7,0.6-11.3,0.4-17c-0.1-5,0.3-10.7-1-15.5c-1.7-5.3-6-8.5-10.1-11.9
		c-11.2-9.4-25.4-15.3-39.6-18.1c1.8-2.6,3.4-5.2,4.9-8c13.5,4.1,29.8,8.5,40.1,18.8c4.8,5.6,6.1,14.6,7.1,21.7
		C199,110.3,198.1,128.1,195.4,145.3z"/>
	<path class="st0" d="M343.1,223.8c2.8-0.1,5,0.6,7.1-1.6c12.9-12.1,25-25.6,34.3-40.7c3.3-5,3.4-11.5,0.7-16.7
		c-3.3-6.6-6.9-13-10.6-19.5c-1.6-2.9-4-5.6-5.2-8.7c-0.8-5.1-0.5-9.8-4.2-13.9c-2.4-2.8-5.6-3.6-9.1-4.2c-1.7-1.8-3.7-3.7-4.8-5.9
		c-1-5-0.8-11.8-3.2-16.8c-1.3-1.4-3.5-2.2-5.3-2.8c-5.8-1.7-12.2-2.3-18.2-2.8c-1.1-7.9-2.6-16.3-1-24.1c0.9-4.7,1.9-9,0.9-13.7
		c-1-3.9-2.7-7.6-6.3-9.7c-2.6-1.7-5.2-1.5-8.2-1.7c-2.4-3-4.4-5.8-8.5-6.7c-5.8-1.1-12.4-1.6-18,0.3c-6.9,2.7-13.8,7-16.8,14.1
		c-3,7.1-2.5,16-1.3,23.5c1.2,6.7,1.6,13.5,2.2,20.2c-3.3,1-7.7,1.6-10.3,4c-1.7,2.5-1.4,6.3-2.3,9.1c-2.1,2.3-4.6,3.8-5.7,7
		c-7,18.3-13.4,36.9-19.6,55.6c-1.8,5-3.5,10-4.6,15.2c-2.9,13.2-6.1,26.5-8.4,39.8c-0.6,2.6,0.1,4.9,0.9,7.3
		c-1.6,4.2-3.2,8.1-3.4,12.6c-0.1,4.2-0.6,8.6,0.1,12.8c1.1,3.5,3.5,8.2,5.8,11.1c0.9,1.3,2.1,0.8,3.5,1c1,0.4,2.1,0.8,3.2,1.1
		c0.8-1,1.5-2,2.2-3c0.8,1.1,1.6,2.3,2.5,3.4c4.9-6.3-2.7-14.2,3.1-20.9c0.6,4.1,0.2,8.2,0.9,12.3c2.6,0.6,4.2-1.7,5.5-3.5
		c2.7-3.7,1.5-8.9,1.2-13.2c-0.3-4.5-2.4-8.1-4.6-11.9c4.5-11.1,7.6-22.5,11.3-33.9c2-6.1,3.3-12.4,5.5-18.5
		c1.9,5.8,2.5,11.5,2.2,17.5c-0.4,7,0.8,13-1,19.8c-1.9,7.7-2.1,16.2-2.6,24.2c-0.9,17.3-1.1,34.7-1.4,52c-0.1,14.5-1.8,29.1-0.6,44
		c0.5,5.8,2.2,11.3,2.8,17c2.2,18.9,3,38.2,5.9,57c1.2,6.2,1.3,11.9,6.5,16.3c0.2,5.7,0.5,11-1.5,16.5c-3.3,9.1-10,17.3-13.9,26.1
		c-1.1,2.7-2.1,5.6,0,8.1c2.8,3.8,7.3,4.2,11.6,3.4c3.9-1.2,7.5-3.6,9.8-7c3.8-5.2,6.2-10.5,11.6-14.4c3.5-2.8,7.2-4.9,7.1-10
		c-0.7-7.3-3.7-14.4-3.4-22.1c0.8-3.1,2.6-5.8,3-9.1c1.4-11.5,1.9-23.3,2.4-34.9c0.3-7.7,0.3-15.3-0.5-23c-0.7-9.4-2.4-17.8-1.7-27
		c1-17.1,1.9-34.2,3-51.2c3.7,21.8,5.5,45.5,11.4,67c2.1,10.1,3.7,20.4,5.1,30.7c2.5,15.8,5,31.6,7.8,47.4c0.5,3.2,1.7,5.4,3.7,8
		c-0.3,6.4-0.8,12.8-0.5,19.2c0.1,2.1,0.2,4.6,1.3,6.5c2,3.4,5.9,6,7.5,9.5c1.4,3.5,1,7.9,2.7,11.2c1.6,2.9,4.8,5.6,8.2,5.7
		c3.4,0.1,7.3,0.5,10.6-0.4c4.4-2.4,7.3-7.6,6.5-12.6c-0.6-3.1-2.8-6-4.4-8.7c-3.7-5.8-6-11.9-8.8-18.2c-2-4.5-3-9.3-4-14.1
		c1.5-1.7,3.5-3.4,4.5-5.5c0.7-3.4,0.4-7.1,0.3-10.5c-0.7-24.4-2.1-48.7-3.4-73c-2.5-35-6-70-7.4-105c0.1-2.4-0.6-5,1.1-7
		C338.3,229.9,340.8,227,343.1,223.8z M360.3,121.7c5.1,2.2,7.4,8.1,7,13.3c-0.6,3.3-3.2,4.7-6.4,4.4c-5.8-1.5-10.2-7.4-9.8-13.4
		c0.1-1.8,0.7-3.6,2.3-4.5C355.3,120.1,358.3,120.9,360.3,121.7z M359,141.7c-3.6-1-6.7-2.6-8.9-5.8c-2.8-3.8-2.5-8.1-1.1-12.3
		c0.4,3.3,0.3,7.4,2,10.4C352.8,137.3,356.2,139.3,359,141.7z M353.2,118.7c-2.5,1.5-5.2,2.4-6.4,5.4c-3.2,8,2.3,18.2,11.1,19.1
		c4.2,0.7,7.2-1.4,10.1-4c4.1,6.6,8.1,13.2,11.7,20.1c2,4,4.8,8.3,5.5,12.8c0.2,3.6-2.1,7.4-3.9,10.4c-8.8,13.5-19.5,25.8-31.2,36.8
		c-1.4,1-3.1,3.3-5,2.6c-4.3-1.2-8-5-10.1-8.8c-1.5-2.6-0.2-4.6,0.9-7c6.9-12.5,15.8-22.9,24.8-33.9c-4.5-6.1-9.6-11.7-13.9-18
		c-4-5.3-8.2-10.5-11.9-16.1c-2.5-3.8-5.5-7.1-4.8-12c0.7-6.6,5.5-14.7,12.8-15C347.1,111.2,350.4,116,353.2,118.7z M307.7,242.5
		c2.9-4.4,7.1-7.4,10.3-11.5l-1-1.4c-5.4,2.5-9.2,7.3-14.6,10c2.5-4.1,5.6-7.7,8.8-11.4c2.9-3.5,6.4-5.7,8.3-9.9
		c-3.8-0.2-7.6-0.1-11.4-0.2c7.7-5.6,15.2-2.6,24.2-5.4c1.6,2.8,3.4,5.1,5.6,7.4c-6.1,5.9-11.3,12.6-17.1,18.8
		c-1.4,1.4-3,2.6-4.7,3.7c1.8-2.3,3.8-4.4,5.4-6.9C316.4,236.2,312.5,240.6,307.7,242.5z M350.1,170.9c-0.4,4.1,1,10.1-1.9,13.3
		c-6.5,8.6-12.9,17-16.7,27.2c-0.6-3.2-1.4-6.4-1.9-9.6c-0.8-3.8,0.7-8,1.4-11.8c2.9-14,6-28,8.7-42.1c3,4.1,6.2,8.1,9.1,12.3
		c1.6,2.1,1.4,4.3,1.6,6.9c-0.7,0.6-1.3,1.2-2,1.7C349,169.5,349.6,170.2,350.1,170.9z M352,179.3c0.1-4.8,0.2-9.6,0.3-14.4
		c1.9,2.4,3.8,4.8,5.6,7.2C355.9,174.5,354,176.9,352,179.3z M319.2,102.8c-3.1-0.6-5.9-0.4-8.1-2.9c6.9-0.1,13.9,0.2,20.8,0.9
		c5.5,0.6,9.7,3.3,14.2,6.2c1.6,1,2.6,2.4,3.6,3.9C339.7,107.3,329.5,104.6,319.2,102.8z M299,111.9c0.7-1.3,2.2-1.8,3.3-2.6
		c-2.5,4.2-4.5,10.4-9,12.8C295.2,118.7,297,115.2,299,111.9z M292.7,118.9c-2.4,1.1-6.5,0.8-8.3-1.2c-1.3-2.1-0.5-5.4,0.5-7.5
		c4.1,0.2,8.2,0.8,12.3,0.7C295.8,113.5,294.5,116.4,292.7,118.9z M297,108.7c-5.1,0.1-9.9,0.2-14.4-2.4c1.4-2.5,4-4.8,3-8
		c-1.3-4.3-6.4-6.5-7.8-11.1c-2.3-7.4-3.7-15.5-3.1-23.2c1.7-4.5,6.9-7.6,11.5-8.5c4.2-0.4,8.8-0.5,13,0.2
		c3.1,4.6,4.8,10.1,7.9,14.7c1.3-2.9,2.5-5.9,3.9-8.7c1.7,3.1,3.8,7.4,2.8,11c-1.7,2.2-4.6,3.4-5,6.2c-1,4.2-1.6,8.7-1.6,13.1
		c0.1,4.3,2,7.5,4.1,11.1C306.8,105.9,302.5,108.4,297,108.7z M260.8,103.8c1.6-1.1,3.2-2.3,5.1-2.9c5.3-2.3,11.8-0.5,17.7-0.8
		l-0.1,1.2C275.8,101.2,268.3,101.6,260.8,103.8z M325,92.2c6.5,0.9,13.8,1.3,19.8,3.9c3.5,1.3,3.1,7.1,3.6,10.1
		c-4-2.6-7.6-5.1-12.2-6.5c-7.9-2.5-17.2-1.5-25.4-2.2c5-0.3,9.9-0.5,14.8-1.2C325.4,95,325.2,93.6,325,92.2z M269,49
		c2.9-6.1,8.2-9.2,14.2-11.8c5.4-2.5,12.2-2,17.9-0.5c3.6,0.8,5.6,4,8,6.6c2,0.1,4.2,0,6.1,0.6c3.2,1.2,5.6,4,6.7,7.3
		c1.5,4.2,0.8,8.4-0.1,12.6c-2.3,10.1-0.2,20.9,1.5,31c-4.6,0.2-9.2,0.5-13.7,0.8c-0.5-5.9,0-11.5,1.4-17.3c2.6-2,5.3-3.4,5.3-7.1
		c-0.1-3.6-1.3-9.6-5.2-11c-2.2,0.8-3.2,3.5-4.4,5.3c-1.4-2.9-2.7-5.9-4.1-8.9c-0.8-1.3-1.1-2.7-2.9-2.9c-3.8-0.6-7.8-0.5-11.6-0.3
		c-5.5,0.2-10.9,3.1-14.2,7.5c-1.2,1.6-1.7,3.1-1.6,5.1c0.2,7.2,1.1,14.6,3.3,21.5c1.3,4.6,5.2,7.2,8.2,10.8
		c-4.6-0.2-9.1-0.8-13.7-1.2c-0.5-7.7-0.9-15.4-2.1-23C266.6,66.2,265.5,56.3,269,49z M258.1,100c0.3-4.3,6.6-4.4,9.7-5.5
		c0.1,1.2,0.2,2.4,0.3,3.5c-4.7,1.5-7.6,3.6-11.1,7.1C257.3,103.4,257.7,101.7,258.1,100z M240.7,252c-0.2,2.8-1.9,4.6-3.4,6.8
		c-0.1-5.2,0.3-9.8-3.2-14.1c-1.9,3.3-3.5,6.4-3.5,10.3c0.1,3.7,1,7.4,1.2,11.2c-2-2.5-3.1-5.4-4.8-8.1l-1.2-0.4
		c-0.4,3.3,0.3,6.4,0.7,9.7c-1.6-2.2-3.2-4.4-4.8-6.6c-0.2,1.5-0.3,3.1-0.5,4.6c-2.2-4-5.4-8.6-5.2-13.3c-0.3-8.5,0.6-16.6,5.2-23.9
		c2.2-1.3,6.1-0.9,8.7-0.7c4.3,0.6,5.8,4.8,7.6,8.2C240.2,240.6,241.1,246.3,240.7,252z M241,216c-1.3,4.1-2.8,8.2-4.2,12.2
		c-2.5-1.4-4.8-2.9-7.8-3.3c-3.8-0.5-7.2,0.5-10.7,1.8c2.9-16.4,6.5-32.7,10.6-48.8c6.7-21.7,14.6-43.1,22.4-64.5
		c1.4-5.4,8.5-6.8,13-8.6c-3.5,8.2-6,16.6-8.5,25.1c-2.3,8.6-4.9,17.1-5.5,26c-0.4,6.6,1,12.9,3,19.1
		C249.6,188.9,245.3,202.4,241,216z M259,207c0.1-9.1,0.3-19.1-2.2-27.8c-1.7-6.3-4.3-12.6-4.6-19.2c-0.3-6,1-11.5,2.4-17.2
		c2.8-11.1,6-22.2,10-33c1-2.3,1.6-5.1,4.5-5.6c4.2-0.8,8.7-0.9,13-1.3c-0.6,0.9-1.3,1.9-1.9,2.8c0.9,1.1,1.9,2.2,2.8,3.2
		c-1,3.5-2,6.7-0.3,10.2c1.1,3.3,4.4,3.1,7.3,3.8c2.3,0.3,5.2,1.1,7-1c2.6-3.1,4.4-7,6.5-10.5c1.7-3.6,6.5-5.2,9.7-7.5
		c8.6,1.2,17.2,3.2,25.6,5.6c-4.5,2.8-7.9,6.4-9.5,11.6c-1.1,4.2-1.5,9.7,1.1,13.4c2.5,3.9,5.3,7.5,7.9,11.3
		c-3.4,16.3-7,32.6-10.1,49c-1.4,5.6,0.6,10.6,1.4,16.4c-6.5,1.1-14.8,0.2-20.5,3.6c-1.7,1-3.8,2.9-1.8,4.8c2.9,0.7,6,0.3,9,0.3
		c-4.6,4.5-8.8,9.2-12.7,14.3c-2.3,3-2.8,6.2-5.6,8.3c-2.5,2.1-5,4-7.4,6.2c-5.6-5.5-11.4-10.9-17.5-15.8c-5-4-10.7-5.9-16.6-8.1
		C257.2,218.9,259.1,213.3,259,207z M288,444c0.6,2.4,1.6,5.4,0.9,7.9c-1.4,3-5.1,5.2-7.6,7.4c-5.1,4-7.7,10.5-11.8,15.2
		c-3,3.5-7.7,5.5-12.3,5c-2.3-0.3-5.3-2-5.6-4.5c0-2,0.8-4,1.7-5.8c4.3-8.1,10.1-16,13.4-24.6c2.2-5.5,1.9-11,1.6-16.8
		c5.9,1.4,11.2,1.1,17-0.2C285.6,433.2,286.5,438.6,288,444z M290,312c-0.2,8-0.9,16-1.3,24c-0.3,7.2,0.9,13.8,1.4,21
		c1.6,15.7,0.5,32.2-0.2,48c-0.3,5-0.6,9.9-1.5,14.8c-0.6,2.5-1.2,5.1-4.2,5.5c-5.8,1.2-13.6,1.7-18.7-1.9c-1.9-2.3-2.3-6.1-3-8.9
		c-3.6-20.6-4.2-41.8-6.8-62.5c-0.7-5.4-2.6-10.5-2.8-16c-0.9-17.2,0.8-33.9,1-51c0.3-9.1,0.1-18.3,0.6-27.4
		c5.1,0.3,10.4,2.1,15.2,3.6c7.6,2.6,15.2,5.4,22.5,8.8C291.8,284,290.5,298,290,312z M349.2,462.8c1.8,4,4.9,7.4,6.4,11.5
		c1.6,5.1-2.3,11.9-7.8,12.4c-4.5,0.2-8.7-0.1-11.9-3.5c-3.3-3.1-2.1-9-4-12.9c-1.8-3.5-5.3-6.3-7.5-9.6c-1.4-2-1.3-4.2-1.4-6.5
		c0-5.9,0.3-11.8,0.6-17.6c5.2,0.2,10.1-0.6,15.1-2C340.2,444.5,345,453.6,349.2,462.8z M339.7,339c0.7,9.3,1.1,18.6,1.6,28
		c1,20.4,2.3,40.8,2.3,61.3c-1.8,1.5-3.5,3-5.9,3.5c-4.7,1.2-10,2.3-14.8,1.4c-2.1-0.7-2.4-4.4-2.9-6.2c-3.5-19.4-6.4-39-9.5-58.5
		c-1.2-7.9-2.3-15.8-4.5-23.6c-3.5-14.4-5-30-7.5-44.4c-1.5-9.8-2.5-19.7-4.3-29.5c12.7-5.9,25.4-10.9,39.2-13.1
		C335.3,284.9,337.5,312,339.7,339z M332.6,233.8c0.1,7.4,0.6,14.7,0.8,22.1c-14,2.2-26.4,7.5-39.4,12.8c-0.9-3.9-0.2-9.6-3.2-12.5
		c-0.1,3.8,0.4,7.5,1.1,11.3c-3.4-1.5-6.9-2.9-10.4-4.2c-8.9-3.4-17.4-6.8-27-7.8c0.4-9.5,0.8-18.9,1.6-28.4
		c6.3,2.5,12.2,4.9,17.4,9.3c5.8,4.8,11.4,9.8,16.7,15.3c2.9-2.2,5.5-4.6,8.3-7c3.2-2.8,6.8-4.6,10.4-6.9c-1,1.8-3.6,3.8-2.7,6
		c3.3,0.9,5.1-0.9,7.7-2.5c-0.6,1.5-1.1,3-1.6,4.5c2.4-0.6,4.7-1.1,6.6-2.8c7.6-6.2,13.1-15,20.3-21.7c0.8,0.4,1.5,0.8,2.3,1.2
		C338.7,226.3,335.6,230,332.6,233.8z"/>
</g>
<g id="Layer_2">
	<path class="st0" d="M97.2,94.8c-2.3-0.5-5.9-1.8-6.8,1.4c-1,6.8-1.3,14-1.4,20.8c0,2.5,1,3.1,3.1,3.9c16.8,4.4,33.7,9.3,50.6,13.9
		c1.9-9,2.9-18,5.2-26.9C131.3,102.7,114,99.5,97.2,94.8z M141.5,132.1c-7.8-2.1-15.6-4.3-23.3-6.4c-9-2.7-18.2-4.7-27.2-7.6
		c0.4-7.3,0.5-14.6,1.4-21.9c6.9,1,13.6,3.4,20.5,4.9c10.9,2.3,21.5,5.5,32.3,8.1C144.1,116.9,142.5,124.4,141.5,132.1z"/>
	<path class="st0" d="M28.7,140.4c-1.4-2.3-4.2-2.1-6.4-1.1c-4.3,2.1-5.8,9.6-2.8,13.3c1,1.5,3.1,1.1,4.6,0.7
		C28.8,151.4,31.3,144.8,28.7,140.4z M27.7,144.8c-0.4,3.8-2.7,5.6-5.9,7.4c-1.2-2.1-2.4-3.7-1.8-6.3c0.5-3.1,2.9-4.4,5.1-6.2
		C26.2,141.4,28.2,142.7,27.7,144.8z"/>
	<circle class="st0" cx="119.4" cy="37" r="3.8"/>
	<circle class="st0" cx="136.3" cy="37" r="3.7"/>
	<circle class="st0" cx="281" cy="67.6" r="3.1"/>
	<circle class="st0" cx="294.2" cy="66.9" r="3.2"/>
	<path class="st0" d="M266,136.2c-2,0-4.1-0.1-6,0.5c-1.5,1.1-1.4,4.1-1.8,5.8c-0.5,6.2-1.2,12.4-1.3,18.5c0,2.2,2.2,2.6,4,2.7
		c15,0.3,30,0.4,45,0.7c3,0,6.1,0.2,9-0.3c1-2.4,1.3-5.1,1.8-7.6c1-6.2,2.5-12.3,3.2-18.5C302.1,137,284,136.8,266,136.2z
		 M313.8,162.4c-9.6,0.2-19.2-0.1-28.8-0.2c-8.7-0.2-17.2-0.1-25.9-0.6c0.3-7.7,0.9-15.3,1.8-23c13.2-0.4,26.1,0.6,39.1,0.8
		c5.9,0.1,11.8,0.3,17.8,0.6C316.6,147.4,315,154.9,313.8,162.4z"/>
</g>
</svg>
