<svg xmlns="http://www.w3.org/2000/svg" viewBox="0 0 88.26 116.61"><defs><style>.a{fill:#fefefe;}.b{fill:#e2ae34;}.c{fill:#3e0b41;}</style></defs><title>learn</title><path class="a" d="M65.08,97.9c.94.79,1,1.91,1.16,3s-.11,2.31.77,3.25,2.06.59,3.1.17a4.91,4.91,0,0,1,3.26-.34,10.69,10.69,0,0,0,5.3-.24c1.4-.3,1.66-1.21.84-2.48-.7-.88-1.76-.81-2.7-1-2.12-.47-4.29-.73-6.19-1.89l-.22-.22c-1.09-1.84-1-4-1.59-5.94a1.43,1.43,0,0,1,1,.3c3.3,1.7,3.3,1.7,6.42-.49.3-.2.75-.37.72-.74-.08-1.08.74-1.37,1.44-1.79,1.27-.75,2.52-1.54,3.81-2.25.66-.35.81-.61.37-1.33-2.45-4-5-7.9-7.17-12-1.8-3.42-4.1-6.09-7.76-7.48a1.52,1.52,0,0,1-1-1.1,5.08,5.08,0,0,0-3.23-3.55,10.5,10.5,0,0,1-1.45-.84c-.25-.16-.7-.17-.69-.55s.45-.4.72-.55Q69.59,55.42,77.21,51c.3-.18.84-.2.74-.77h0c.84-.13.61-.81.61-1.29,0-3,0-6-.12-9a1.76,1.76,0,0,1,1-1.88c2.43-1.3,4.8-2.7,7.18-4.09.33-.2.89-.23.89-.81h0c.56.15.56-.26.58-.62.21-4.23.13-8.47.11-12.71,0-1.1-.45-1.34-1.44-.77-1.47.82-2.91,1.68-4.35,2.54-.3.18-.67.31-.67.76h0c-.26,0-.39.12-.49.33l-.65.38c-.38.08-.89-.08-1,.5h0c-.49-.14-.83.2-1.2.41-2.28,1.32-4.49,2.8-6.86,3.93-2.13,1-3.13,2.36-2.7,4.73.17,1,.14,1.92-1.34,1.32a.93.93,0,0,0-.58.08,9.52,9.52,0,0,0-4.08,2.18,1.53,1.53,0,0,1-1.36.61,4,4,0,0,0-2.62.62c-1.64.83-3.37,1.5-4.93,2.45-2,1.19-4,1.08-6.13.9-3.79-.33-7.52-1.54-11.39-.92,0,0,0-.11-.13-.27,1.28-.33,2-1.65,3.49-1.7,1.15-.05,1.21-.59.54-1.65-.56-.88-1-1.73,0-2.66a2.08,2.08,0,0,0,.3-2.05,11.74,11.74,0,0,0-1.56-4c-.17-.28-.24-.72-.74-.63h0a.65.65,0,0,0-.47-.84A15,15,0,0,0,33.83,25,9.73,9.73,0,0,0,29.3,26c-.61.31-.86.18-1.16-.44-1.19-2.43-2.46-4.83-3.7-7.24-.8-1.56-5.09-3.6-6.78-3.22a2.76,2.76,0,0,0-.79.28C11.78,18.29,6.68,21.2,1.61,24.15a3.09,3.09,0,0,0-1.6,3c.25,3.18.54,6.36.82,9.55q.65,7.4,1.3,14.79.74,8.59,1.46,17.19a2.08,2.08,0,0,0,1.17,1.82c.61.29,1.19.65,1.79,1a1.32,1.32,0,0,1,.38,1.19,22.77,22.77,0,0,0,0,3A2.93,2.93,0,0,1,5.22,79c-.54.27-1.27.48-1.45,1.24h0c-1,0-1.34.65-1.34,1.57,0,3.08,0,6.16-.06,9.23a2.27,2.27,0,0,0,1.33,2.3c2.18,1.17,4.31,2.45,6.5,3.58a1.33,1.33,0,0,1,.8,1.62c-.23,1.38-.38,2.77-.64,4.14a1.69,1.69,0,0,0,.92,2c1.18.66,2.33,1.38,3.5,2.08,5.16,3.11,10.33,6.21,15.48,9.35a2.1,2.1,0,0,0,2.72,0,19.83,19.83,0,0,1,2.33-1.46c2-1.15,3.82-2.64,6-3.5,2.36-1,4.79-1.76,7.18-2.66.33-.13.84-.07.93-.61a.36.36,0,0,0,.18-.07c2.21-.41,2.73-1.19,2.16-3.22s-1-3.84-1.69-5.72c-.38-1.07.17-1.52.93-1.77s.71.64.89,1.05c.79,1.76,1.11,3.74,2.4,5.28,1.25,1.29,1.34,3,1.64,4.63.12.69.2,1.44,1,1.82a26.54,26.54,0,0,0,7,2.87,6.13,6.13,0,0,0,5-.93,1.17,1.17,0,0,0,0-1.92c-.7-1.23-2.06-1.44-3.18-2a28.31,28.31,0,0,1-5-2.56,3.32,3.32,0,0,1-1.41-2.76,21.22,21.22,0,0,0-.14-2.87c-.33-2.17-.56-4.36-.84-6.53-.09-.68,1-1.89,1.94-2s.65.68.83,1.06c1,2,1.73,4.15,3.7,5.48Zm9.5-75c.73-.1.65-.71.67-1.18,0-.76-.09-1.52-.07-2.28.16-5.95,0-11.91,0-17.86,0-1.66-.53-2-1.94-1.18C68.36,3.14,63.56,6.07,58.63,8.8c-2.81,1.55-5.5,3.37-8.33,4.91a2.85,2.85,0,0,0-1.66,2.87c.06,6.35,0,12.71,0,19.07,0,2,.39,2.19,2.06,1.24q11.55-6.6,23.09-13.21c.3-.18.82-.21.75-.78Z"/><path class="b" d="M87.55,33.22c0,.58-.56.61-.89.81-2.38,1.39-4.75,2.79-7.18,4.09a1.76,1.76,0,0,0-1,1.88c.09,3,.11,6,.12,9,0,.48.23,1.16-.61,1.29a40.49,40.49,0,0,0,.13-7.05,21.47,21.47,0,0,0-.16-4.12l-7,4c-1.91,1.09-2,1-2.13-1.22,0,0-.09-.09-.18-.16C65.82,43.33,63,45,60.15,46.59a1.09,1.09,0,0,0-.51,1.12c0,3.71,0,7.43,0,11.15,0,1,.7,1.41,1.57.91,1.6-.9,3.19-1.83,4.78-2.74l12-6.76c.1.57-.44.59-.74.77Q69.59,55.44,62,59.8c-.27.15-.7.19-.72.55s.44.39.69.55a10.5,10.5,0,0,0,1.45.84,5.08,5.08,0,0,1,3.23,3.55,1.52,1.52,0,0,0,1,1.1c3.66,1.39,6,4.06,7.76,7.48,2.18,4.13,4.72,8,7.17,12,.44.72.29,1-.37,1.33-1.29.71-2.54,1.5-3.81,2.25-.7.42-1.52.71-1.44,1.79,0,.37-.42.54-.72.74-3.12,2.19-3.12,2.19-6.42.49a1.43,1.43,0,0,0-1-.3c.61,2,.5,4.1,1.59,5.94l-.19.17a2.21,2.21,0,0,1-.71-1.22c-.7-2-.9-4.19-1.4-6.27-1.28-5.34-2.62-10.66-4.33-15.89-.86-2.63-3.21-3.52-5.23-4.6-1-.52-2,1.07-3.12,1.6a8.64,8.64,0,0,0-1.41.9,1.67,1.67,0,0,1-2.09.07c-2.11-1.22-4.24-2.4-6.36-3.6-2-1.11-2-3.14-.06-4.28L47,64.11c-.8-.38-1.45-.76-2.14-1a1.88,1.88,0,0,1-1.33-1.88,90.54,90.54,0,0,1,.24-10.29,10.36,10.36,0,0,0-.94-5.58c-.67-1.27-1.49-2.46-2.17-3.72-.84-1.54-2-1.68-3.52-1.36-1,.22-1.3,1-.73,1.88.41.68.78,1.38,1.17,2.07a1.35,1.35,0,0,1-.49,2c-1.31.82-2.34.93-2.91.13C33.21,45,32,43.75,31.47,42l-5.76,3c3.36,1.82,5,4.33,5.06,8.1.05,3.28-.9,6.67.79,10.16a3.68,3.68,0,0,1-1.42-2.8c0-2.87.2-5.75.08-8.63a7.12,7.12,0,0,0-3.06-5.43c-1.72-1.38-2.69-1-3,1.21a66.27,66.27,0,0,0-.31,14.83,4.18,4.18,0,0,0,.63,2.15l-.18.26c-.2-.25-.56-.49-.56-.74,0-1.81-1.51-2.25-2.68-3-.58-.36-1.15-.73-1.75-1a1.83,1.83,0,0,1-1-1.26C16,49.87,13.57,40.91,11.19,32a2.22,2.22,0,0,1,1.24-2.88Q17,26.45,21.6,23.86c1.29-.74,1.69-.6,2.31.72s1.26,2.72,1.93,4.18c.63-.63.83-1.13.39-1.91-.92-1.63-1.75-3.31-2.56-5-.45-.94-1-1.11-1.9-.6Q15.92,24.66,10,28a1.27,1.27,0,0,0-.7,1.48q.88,5,1.74,10,1.89,11,3.77,22a1.62,1.62,0,0,0,.82,1.24Q22.76,66.85,29.85,71l.77.43c.15.12.25.49.49.22s-.19-.28-.31-.4l-.68-.5c-.12-.14-.24-.27-.35-.41l.24-.22a6.45,6.45,0,0,1,1.1.78c1.13,1,2.23,2.08,4,1.53a.65.65,0,0,1,.87.4l-2.69.27a.88.88,0,0,0,0-.15v0l.07.09a.13.13,0,0,1,.1.14l-.21.22C27.23,70,21.3,66.52,15.36,63.08a2.11,2.11,0,0,1-1-1.68Q11.68,45.49,8.92,29.57a1.56,1.56,0,0,1,.82-1.89c4-2.29,8-4.59,11.94-6.86,1.13-.64,1.66-.44,2.29.76.85,1.62,1.67,3.26,2.54,4.87.16.28.11,1.07.82.62.5-.31.94-.6.48-1.4a32.24,32.24,0,0,1-2.55-5A7.54,7.54,0,0,0,20,15.84a4.19,4.19,0,0,0-3.64.26C11.76,18.78,7.14,21.39,2.53,24,.59,25.17.31,25.91.52,28.17q.86,9.26,1.59,18.51c.28,3.5.31,7,.79,10.49.41,3,.64,5.94.86,8.91.16,2.23.37,4.29,2.89,5.13,0,0,0,.06.07.09l-.18.2c-.59-.32-1.17-.68-1.78-1a2.08,2.08,0,0,1-1.17-1.82q-.73-8.59-1.46-17.19-.64-7.4-1.3-14.79C.55,33.54.26,30.36,0,27.18a3.09,3.09,0,0,1,1.6-3c5.07-2.95,10.17-5.86,15.26-8.78a2.76,2.76,0,0,1,.79-.28c1.69-.38,6,1.66,6.78,3.22,1.24,2.41,2.51,4.81,3.7,7.24.3.62.55.75,1.16.44A9.73,9.73,0,0,1,33.83,25a15,15,0,0,1,4.05,1.09.65.65,0,0,1,.47.84,4.84,4.84,0,0,0-5.77-.26c-.15.08-.31.29-.49,0,.22-.72,1-.71,1.44-1.22l.17-.09-.09-.05-.06.16c-1.17-.32-1.95.57-2.89,1-.19-.11.07-.63-.42-.46a6.41,6.41,0,0,0-3.35,2.07c-1.75,2.37-1.07,5-.7,7.55.24-.52.36-1.14.82-1.45.81-.53.79-1.26.74-2.07a6.42,6.42,0,0,1,1.6-4.62c.19-.24.28-.81.84-.55-1.24,1.64-2.25,3.37-2,5.55a1.68,1.68,0,0,1-.71,1.83c-.86.61-1,2.57-.37,3.41a2.29,2.29,0,0,0,2.92.44c.2-.09.33-.38.62-.2-.36.9-1.16.93-2,1s-1.41-.51-2.21-1c.45,2.1,0,4-.23,5.92l-.06.17.14-.07a26.4,26.4,0,0,0,3.49-1.74c1.9-1,1.92-1,1.45-3.12-.08-.4.15-1.12-.65-1.17,0-.1-.06-.23,0-.32.68-1.91.51-2.52-1.09-3.85a1.06,1.06,0,0,1-.33-.46c-.51-1.64.65-4.79,2.18-5.94.24.45-.22.6-.39.85a7.38,7.38,0,0,0-1.38,4.13,1.58,1.58,0,0,0,1.63,1.74c3-.08,4.34-1.06,5.16-3.38.12-.34.22-.68.34-1,.22-.64.58-.69,1-.22A3.87,3.87,0,0,1,39,32.07a20.13,20.13,0,0,1-.12,4.78c0,.26-.25.57,0,.78s.6.07.89-.07.42-.23.64-.35c-.26-.42-.53-.81-.75-1.23-.36-.68-.72-1.45-.06-2.1a2.58,2.58,0,0,0,.5-2.66A16.57,16.57,0,0,0,38.34,27c.5-.09.57.35.74.63a11.74,11.74,0,0,1,1.56,4,2.08,2.08,0,0,1-.3,2.05c-1,.93-.57,1.78,0,2.66.67,1.06.61,1.6-.54,1.65-1.54,0-2.21,1.37-3.49,1.7.08.16.12.27.13.27,3.87-.62,7.6.59,11.39.92C50,41,52,41.13,54,39.94c1.56-.95,3.29-1.62,4.93-2.45a4,4,0,0,1,2.62-.62,1.53,1.53,0,0,0,1.36-.61,9.52,9.52,0,0,1,4.08-2.18.93.93,0,0,1,.58-.08c1.48.6,1.51-.37,1.34-1.32-.43-2.37.57-3.72,2.7-4.73,2.37-1.13,4.58-2.61,6.86-3.93.37-.21.71-.55,1.2-.41-.05.29-.31.35-.51.46-3,1.73-5.92,3.46-8.91,5.15a1.41,1.41,0,0,0-.9,1.5,5.34,5.34,0,0,1,0,1.44c-.24,1.67.15,2.86,2.06,3.1a1.12,1.12,0,0,1,.63.32c.54.53,1,.34,1.58,0q5.55-3.21,11.12-6.38c.29-.17.73-.67,1-.14.19.36-.4.52-.69.68-3,1.72-6,3.36-8.91,5.16C74.18,36.07,72.29,37,70,36.58l-.24,0c-.32,0-.43.14-.43.42v3.8c2.45-1.42,4.71-2.68,6.91-4,1.92-1.17,2.41-1.22,2.26,1.24,0,0,0,0,.14.18.87-.5,1.75-1,2.65-1.51C83.38,35.54,85.34,34.15,87.55,33.22Zm-55,10.09,0-.16h-.1l.1.15c.55.82,1.13,1.62,1.65,2.46a1.23,1.23,0,0,0,1.83.48c.57-.29,1.47-.37,1.29-1.28a5.73,5.73,0,0,0-1.29-2.49s-.15,0-.2.07C34.87,43.28,33.63,43,32.56,43.31Zm13,16.31c-.78.21-.93-.82-1.7-.82,0,.84,0,1.66.13,2.48,0,.41,0,.93.51,1.13,1.42.55,2.7,1.9,4.42.8.15.42-.24.43-.43.55-1,.6-2,1.17-3,1.76a1.87,1.87,0,0,0,.07,3.27c2.1,1.21,4.24,2.37,6.33,3.61a1.73,1.73,0,0,0,2.08,0c2.16-1.44,4.35-2.82,6.55-4.18.33-.2.59-.7,1.11-.41-.74.92-2,1.24-2.81,2.09a24.6,24.6,0,0,0,2.28,1.45,6.44,6.44,0,0,1,3.26,4c1.69,5.06,3,10.24,4.18,15.42.1.39.12.75.57,1,1.08.51,2.13,1.08,3.19,1.63l.28,0-.1-.26Q67.35,80.79,62.21,68.41c-.11-.28-.17-.63-.59-.63,0-.55.69-.73.54-1.42a2.07,2.07,0,0,0-2.88-1.43c-1,.61-2,1.25-3.08,1.83-4.9,2.75-2.81,2.66-7.8,0-1.27-.66-1.26-1,0-1.75,2-1.22,4-2.43,6.06-3.68-.73-.69-1.31-.22-1.9,0-1.24.54-2.18,1.67-3.62,1.83.14-.63-.67-.7-.72-1.22,1.76,1.13,2.8-.34,4.24-1.07-2.54-1.47-4.88-2.84-7.23-4.19-.32-.19-.67-.66-1-.42s-.19.82-.25,1.24.26.63.5.88S45.36,59,45.55,59.62ZM71,70c0-.47.71-.38.67-.9l-4.44-2.4c.48,1.19.82,2,1.17,2.86.62,1.52.62,1.52,2,.67.2-.13.37-.32.64-.24,0,.67-.6.72-1,1-.69.41-.75.82-.44,1.54Q73,80.66,76.43,88.94c.36.89.62.94,1.38.44a41.73,41.73,0,0,1,3.69-2.2c.72-.39,1-.7.45-1.52q-4.42-7.25-8.73-14.55C72.67,70.19,72.26,69.3,71,70ZM40.56,40.35c-.06,0-.15-.12-.19-.1s-.08.18,0,.28A26.44,26.44,0,0,1,43.59,46a1,1,0,0,0,1,.71c2.64.06,5.27.16,7.9.26a3.81,3.81,0,0,0,2.06-.47A75.15,75.15,0,0,0,61.4,42c.32-.23.76-.51.83-.83.4-1.79,1.6-1.52,2.88-1.28a3.28,3.28,0,0,0,3.16-1.28c-.59-.28-1,.11-1.47.11-1,0-1.29-.9-.51-1.79-.3,1.32.24,1.53,1.23,1.14a1.56,1.56,0,0,1,.58-.15c.83,0,.85-.6.71-1.15-.17-.72-.76-.38-1.18-.32s-.7.56-1.35.4a3,3,0,0,1,1.86-1c.29,0,.66.13.7-.38s-.06-.74-.55-.9a2.34,2.34,0,0,0-1.63,0,9,9,0,0,0-3.62,2,1.85,1.85,0,0,1-1.7.68,3.16,3.16,0,0,0-2.06.43c-2.07,1-4.16,2-6.22,3.08a5.61,5.61,0,0,1-2.87.62C47,41.29,43.78,40.6,40.56,40.35ZM23.23,61.93c0-.4,0-.52,0-.63a72.19,72.19,0,0,1,.42-13.63,3.32,3.32,0,0,1,1.56-2.8,1.08,1.08,0,0,0,.52-.88,17,17,0,0,0,.17-6.75,16.46,16.46,0,0,1-.34-7.58,1.15,1.15,0,0,0-.2-.79c-.64-1.37-1.3-2.74-1.88-4.13-.37-.89-.84-1-1.66-.56q-4.56,2.64-9.15,5.21A2,2,0,0,0,11.65,32c2.38,8.87,4.71,17.76,7.08,26.64a1.25,1.25,0,0,0,.49.92C20.52,60.29,21.8,61.07,23.23,61.93Zm36-2.63c0-4,0-7.75,0-11.5a1.7,1.7,0,0,1,1-1.72c2.44-1.36,4.79-2.88,7.27-4.16A2.2,2.2,0,0,0,68.71,39,4.83,4.83,0,0,1,64,40.2c-.41-.11-1-.1-1.06.49a2.58,2.58,0,0,1-1.28,1.66,65.89,65.89,0,0,1-7,4.58,3.67,3.67,0,0,1-1.94.47c-2.2-.1-4.39-.18-6.59-.24-1.84,0-1.84,0-1.81,1.83a4.33,4.33,0,0,1,0,.72,1.4,1.4,0,0,0,.9,1.6c1.66.88,3.27,1.85,4.89,2.78Zm-15-5.51C44,55.54,44,55.54,45.31,56.3c2.21,1.29,4.41,2.58,6.63,3.85.3.18.68.5,1,.44,1.08-.27,1.83.37,2.65.82,1.86,1,3.69,2.07,5.54,3.11,1.46.83,1.6,1.12,1.31,2.87a1.48,1.48,0,0,0,.25.89q5,12,10,24c.16.37.17,1.3.94.78.58-.39,1.87-.34,1.26-1.78q-5.3-12.54-10.49-25.13a2.7,2.7,0,0,0-1.23-1.39c-1.88-1.06-3.73-2.16-5.6-3.24Zm.06-2.52a2.11,2.11,0,0,0,1.17,2.78c6,3.38,11.88,6.88,17.83,10.31a3.52,3.52,0,0,1,1.6,1.82q5.1,12.31,10.27,24.57c.15.35,0,1.26.89.91.71-.28.68-.9.47-1.52-.11-.3-.25-.59-.37-.88C72.88,81.5,69.62,73.76,66.47,66c-.72-1.78-1.54-3.28-3.44-4-1.07-.39-1.84-1.62-3.23-1.14a.44.44,0,0,1-.55-.35c0-1-.79-1.11-1.38-1.45-2-1.15-3.95-2.27-5.92-3.4Zm-7-21.5c-.16,1.47-1.43,2.44-1.49,3.92,0,.23-.25.44-.39.4-1.28-.37-2.35.58-3.56.56-.32,0-.45,0-.46.5,0,2.17.6,4.24.75,6.37,0,.35,0,.75.34,1,1,.55,1.93.13,2.88-.13.8-.22.69-.89.61-1.47-.14-1,0-1.7,1.1-2a1.64,1.64,0,0,0,.91-.9c1.17-2.22.83-4.54.41-6.84A1.81,1.81,0,0,0,37.2,29.77ZM59.63,64.22c-1.53-.87-2.88-1.63-4.22-2.41a.86.86,0,0,0-1,0c-2,1.22-3.94,2.42-5.92,3.6-.57.34-.72.57,0,.93,1.06.55,2.1,1.14,3.13,1.75a1.35,1.35,0,0,0,1.47,0Zm18.23-27.9-2,1.19-6,3.49c-.4.24-.77,1.89-.44,2.13.51.36.87-.16,1.25-.37,2-1.13,4-2.39,6-3.41C78,38.68,78.32,37.81,77.86,36.32Zm-6.13-.22.06-.18c-.57-.23-1.14-.47-1.72-.67-.24-.08-.61-.38-.73.13s.11.73.62.72ZM68.4,38.36s0,0,0,.07.1.1.15,0a.1.1,0,0,0,0-.07Z"/><path class="c" d="M87.55,33.22c-2.21.93-4.17,2.32-6.27,3.44-.9.49-1.78,1-2.65,1.51-.1-.13-.14-.16-.14-.18.15-2.46-.34-2.41-2.26-1.24-2.2,1.35-4.46,2.61-6.91,4V37c0-.28.11-.45.43-.42l.24,0c2.3.44,4.19-.51,6.09-1.67C79,33.11,82,31.47,85,29.75c.29-.16.88-.32.69-.68-.26-.53-.7,0-1,.14q-5.58,3.16-11.12,6.38c-.56.33-1,.52-1.58,0a1.12,1.12,0,0,0-.63-.32c-1.91-.24-2.3-1.43-2.06-3.1a5.34,5.34,0,0,0,0-1.44,1.41,1.41,0,0,1,.9-1.5c3-1.69,6-3.42,8.91-5.15.2-.11.46-.17.51-.46h0a1.42,1.42,0,0,0,1-.5l.65-.38c.2-.06.42-.09.49-.33h0a54.22,54.22,0,0,0,4.76-2.68c1.24-.68,1.23-.69,1.24.76,0,3.43,0,6.85,0,10.28a7.41,7.41,0,0,1-.25,2.44Zm-14.75-1,.54-.3,11.72-6.72a5.29,5.29,0,0,0,.5-.32c.13-.1.24-.23.14-.4a.31.31,0,0,0-.41-.13c-.25.12-.49.27-.73.41L73.25,31.27a8.18,8.18,0,0,0-.69.45.26.26,0,0,0-.07.41C72.56,32.21,72.7,32.21,72.8,32.25Zm13-5.27c-.09-.14-.13-.28-.22-.31-.25-.11-.45.07-.65.18L73,33.7c-.24.14-.72.24-.46.65s.51,0,.74-.1l11.93-6.83A6.84,6.84,0,0,0,85.76,27Z"/><path class="c" d="M49.59,107.81a.36.36,0,0,1-.18.07c-.76.17-1.08-.08-1.31-.9-2.07-7.21-4.23-14.4-6.3-21.61a80.29,80.29,0,0,1-2.27-8.24,4.89,4.89,0,0,0,2.07.77c.7,0,1.58-.47,2,0s.52,1.38.76,2.1c.06.19.14.37.19.56a6.25,6.25,0,0,0,2.91,4.18,1.65,1.65,0,0,1,.68,1.21,63,63,0,0,0,2.64,9.15c.35,1,.37,1.65-.71,2.07-.68.27-.75.73-.53,1.43.6,1.85,1.11,3.73,1.65,5.6.58,2,.57,2-1.25,3.21A3.13,3.13,0,0,0,49.59,107.81Z"/><path class="b" d="M39.53,77.13a80.29,80.29,0,0,0,2.27,8.24C43.87,92.58,46,99.77,48.1,107c.23.82.55,1.07,1.31.9-.09.54-.6.48-.93.61-2.39.9-4.82,1.71-7.18,2.66-2.16.86-4,2.35-6,3.5A19.83,19.83,0,0,0,33,116.11a2.1,2.1,0,0,1-2.72,0C25.12,113,20,109.87,14.79,106.76c-1.17-.7-2.32-1.42-3.5-2.08a1.69,1.69,0,0,1-.92-2c.26-1.37.41-2.76.64-4.14a1.33,1.33,0,0,0-.8-1.62C8,95.8,5.89,94.52,3.71,93.35a2.27,2.27,0,0,1-1.33-2.3c.07-3.07.06-6.15.06-9.23,0-.92.34-1.52,1.34-1.57-.4.44-.49.72.19,1.06,2.38,1.22,4.72,2.5,7.06,3.78.89.49,1.81,1.27,2-.57,0-.21.25-.4.39-.6.81-1.13,1.58-2.3,2.46-3.38.56-.69.35-1-.34-1.27-1.47-.7-3-1.4-4.36-2.24a2.31,2.31,0,0,0-2.92.21,23.29,23.29,0,0,1-4.52,3c.18-.76.91-1,1.45-1.24A2.93,2.93,0,0,0,7,75.67a22.77,22.77,0,0,1,0-3,1.32,1.32,0,0,0-.38-1.19l.17-.2c.69.16.66.69.65,1.23,0,1.57,0,3.14,0,5.13C9,75.55,10.52,76.05,12.14,77c1.27.76,2.62,1.36,3.95,2,.25.13.53.44.83.06.75-.95,1.51-.55,2.32-.07,4.75,2.8,9.49,5.61,14.27,8.35a3.48,3.48,0,0,1,1.74,2.4c1.71,6.76,3.47,13.5,5.18,20.26.17.67.34.87,1,.61,1.94-.74,3.89-1.44,5.85-2.14.55-.19.71-.41.52-1q-4.39-14.89-8.73-29.81A2.14,2.14,0,0,0,38,76.31c-1.63-.94-3.23-1.91-4.84-2.87l.21-.22c2.14,1.17,4.43,2.12,6.17,3.93ZM30.86,116,27.51,93.14a1.78,1.78,0,0,0-.86-1.36q-6.13-3.63-12.24-7.29c-.61-.37-.88-.14-1,.42A7.67,7.67,0,0,0,13.15,86c-.78,5.52-1.54,11-2.35,16.57a1.67,1.67,0,0,0,.92,1.94c4.33,2.55,8.63,5.17,12.94,7.76Zm3.64-27.3c-2.12,1.13-4.11,2.21-6.13,3.25a.81.81,0,0,0-.48,1c.34,1.88.58,3.78.86,5.68Q30,107,31.21,115.33c.14.93.48,1.14,1.32.6,2.32-1.47,4.66-2.93,7-4.33.61-.37.64-.71.48-1.34-1.21-4.54-2.36-9.09-3.53-13.64C35.84,94,35.18,91.38,34.5,88.68Zm-.3-.36L18.63,79.18a1,1,0,0,0-1.52.38c-.83,1.17-1.65,2.36-2.53,3.49-.47.58-.41.83.24,1.22,4.1,2.39,8.17,4.83,12.24,7.27a.85.85,0,0,0,1,.11C30,90.56,32,89.49,34.2,88.32ZM2.83,81.18V91.75a1.16,1.16,0,0,0,.72,1c2.3,1.28,4.6,2.55,6.89,3.85.53.3.7.29.79-.4.42-3.08.89-6.15,1.35-9.22a.6.6,0,0,0-.34-.77C9.16,84.59,6.09,82.93,2.83,81.18Z"/><path class="b" d="M74.59,22.9c.07.57-.45.6-.75.78Q62.31,30.3,50.75,36.89c-1.67,1-2.06.71-2.06-1.24,0-6.36,0-12.72,0-19.07a2.85,2.85,0,0,1,1.66-2.87c2.83-1.54,5.52-3.36,8.33-4.91C63.56,6.07,68.36,3.14,73.28.41c1.41-.78,1.94-.48,1.94,1.18,0,6,.12,11.91,0,17.86,0,.76.09,1.52.07,2.28,0,.47.06,1.08-.67,1.18a5.28,5.28,0,0,0,.24-1.63q0-9.6,0-19.19a4.27,4.27,0,0,0,0-.95c-.13-.57-.3-.88-1-.46Q62,7.51,50.2,14.25a2,2,0,0,0-1.11,1.91c0,6.56,0,13.11,0,19.67,0,1.36.14,1.44,1.32.77Q57.2,32.73,64,28.88C67.5,26.87,71,24.89,74.59,22.9Z"/><path class="b" d="M64.86,97.68c-2-1.33-2.74-3.46-3.7-5.48-.18-.38,0-1.19-.83-1.06s-2,1.36-1.94,2c.28,2.17.51,4.36.84,6.53a21.22,21.22,0,0,1,.14,2.87,3.32,3.32,0,0,0,1.41,2.76,28.31,28.31,0,0,0,5,2.56c1.12.56,2.48.77,3.18,2l-.19.17a7.81,7.81,0,0,0-2.64-1.58,35,35,0,0,1-5.25-2.58,4,4,0,0,1-1.93-3.62,20.24,20.24,0,0,0-.19-3.1,102.58,102.58,0,0,0-3.59-18.86,6,6,0,0,0-2.65-3.52c-3.09-2-6.22-3.89-9.43-5.67-.23-.13-.45-.37-.8-.15,0,.7.46,1.1.91,1.54l-.23.24c-.28-.23-.72-.41-.79-.69-.38-1.39-1.46-1.4-2.55-1.41a1.42,1.42,0,0,1-1.25-.57l.26-.21a2.15,2.15,0,0,0,1.24.32,11.94,11.94,0,0,1,5.27,1.55c3.74,2.37,7.74,4.36,10.89,7.58.12.12.42.22.12.42-.1.06-.31,0-.46-.05s-.15-.13-.19-.12-.09.2,0,.3c.38,1.34.81,2.67,1.12,4,.55,2.37,1,4.76,1.53,7.13.06.24,0,.84.43.66a4.93,4.93,0,0,0,1.69-1.08c.36-.35-.08-.81-.21-1.2-1-3-1.55-6.09-3.16-8.93.71.06.78.57,1,.93a36.83,36.83,0,0,1,1.88,5.41C60.93,90.66,62,94.56,65,97.49Z"/><path class="b" d="M49.59,107.81a3.13,3.13,0,0,1,.39-.42c1.82-1.17,1.83-1.17,1.25-3.21-.54-1.87-1-3.75-1.65-5.6-.22-.7-.15-1.16.53-1.43,1.08-.42,1.06-1.09.71-2.07a63,63,0,0,1-2.64-9.15,1.65,1.65,0,0,0-.68-1.21,6.25,6.25,0,0,1-2.91-4.18c-.05-.19-.13-.37-.19-.56-.24-.72-.29-1.62-.76-2.1s-1.34,0-2,0a4.89,4.89,0,0,1-2.07-.77l0,0-.26-1c.1-.07.2-.11.28,0,.78,1.48,2.14,1.26,3.45,1.12.39,0,.8-.24.81-.73,0-1.34.18-2.72-.87-3.82l.23-.24c1.28,1.06,1.31,2.55,1.08,4a5,5,0,0,0,.3,2.52,18.67,18.67,0,0,1,.72,2.27,4.66,4.66,0,0,0,2.08,2.81,3.14,3.14,0,0,1,1.32,2,87,87,0,0,0,5.78,17.15l-.19.18c-1.29-1.54-1.61-3.52-2.4-5.28-.18-.41,0-1.34-.89-1.05s-1.31.7-.93,1.77c.66,1.88,1.15,3.81,1.69,5.72S51.8,107.4,49.59,107.81Z"/><path class="b" d="M87.54,33.22a7.41,7.41,0,0,0,.25-2.44c0-3.43,0-6.85,0-10.28,0-1.45,0-1.44-1.24-.76a54.22,54.22,0,0,1-4.76,2.68c0-.45.37-.58.67-.76,1.44-.86,2.88-1.72,4.35-2.54,1-.57,1.43-.33,1.44.77,0,4.24.1,8.48-.11,12.71C88.1,33,88.1,33.37,87.54,33.22Z"/><path class="b" d="M68.94,111.82a6.13,6.13,0,0,1-5,.93,26.54,26.54,0,0,1-7-2.87c-.76-.38-.84-1.13-1-1.82-.3-1.64-.39-3.34-1.64-4.63l.19-.18a4.65,4.65,0,0,1,1.63,3.57c.12,1.67.66,3,2.45,3.48a18.62,18.62,0,0,1,2.28,1c2.6,1.13,5.23,1.65,7.92.29Z"/><path class="b" d="M79.51,101.25c.82,1.28.56,2.19-.84,2.49a10.69,10.69,0,0,1-5.3.24,4.91,4.91,0,0,0-3.26.34c-1,.42-2.12.8-3.1-.17l.18-.18a3.33,3.33,0,0,0,3-.1,4.37,4.37,0,0,1,3-.35,10.75,10.75,0,0,0,4.95-.06c1.45-.23,1.65-.64,1.19-2Z"/><path class="b" d="M70.62,98.36c1.9,1.16,4.07,1.42,6.19,1.89.94.2,2,.13,2.7,1l-.19.19c-1.16-.72-2.52-.69-3.79-1-1.76-.46-3.63-.59-5.09-1.87Z"/><path class="b" d="M67,104.15c-.88-.94-.58-2.16-.77-3.25s-.22-2.21-1.16-3l.2-.19a2.44,2.44,0,0,1,1.17,1.83c.35,1.46.16,3,.74,4.43Z"/><path class="b" d="M69,109.9a1.17,1.17,0,0,1,0,1.92c-.06-.06-.13-.12-.19-.19a1.37,1.37,0,0,0,0-1.56Z"/><path class="b" d="M80.64,23.12a1.42,1.42,0,0,1-1,.5C79.75,23,80.26,23.2,80.64,23.12Z"/><path class="b" d="M81.78,22.41c-.07.24-.29.27-.49.33C81.39,22.53,81.52,22.37,81.78,22.41Z"/><path class="b" d="M70.4,98.14a2.28,2.28,0,0,0,.22.22l-.18.2-.23-.25Z"/><path class="b" d="M65.08,97.9l-.22-.22.17-.19.25.22Z"/><path class="c" d="M33.17,73.44c1.61,1,3.21,1.93,4.84,2.87a2.14,2.14,0,0,1,1.07,1.35q4.34,14.91,8.73,29.81c.19.63,0,.85-.52,1-2,.7-3.91,1.4-5.85,2.14-.67.26-.84.06-1-.61-1.71-6.76-3.47-13.5-5.18-20.26a3.48,3.48,0,0,0-1.74-2.4C28.73,84.64,24,81.83,19.24,79c-.81-.48-1.57-.88-2.32.07-.3.38-.58.07-.83-.06-1.33-.66-2.68-1.26-3.95-2-1.62-1-3.14-1.47-4.77.64,0-2,0-3.56,0-5.13,0-.54,0-1.07-.65-1.23,0,0,0-.08-.07-.09-2.52-.84-2.73-2.9-2.89-5.13-.22-3-.45-5.94-.86-8.91-.48-3.47-.51-7-.79-10.49Q1.36,37.42.52,28.17c-.21-2.26.07-3,2-4.13,4.61-2.65,9.23-5.26,13.81-7.94A4.19,4.19,0,0,1,20,15.84a7.54,7.54,0,0,1,5.28,4.83,32.24,32.24,0,0,0,2.55,5c.46.8,0,1.09-.48,1.4-.71.45-.66-.34-.82-.62-.87-1.61-1.69-3.25-2.54-4.87-.63-1.2-1.16-1.4-2.29-.76-4,2.27-8,4.57-11.94,6.86a1.56,1.56,0,0,0-.82,1.89q2.78,15.9,5.47,31.83a2.11,2.11,0,0,0,1,1.68C21.3,66.52,27.23,70,33.17,73.44Z"/><path class="c" d="M65.28,97.71,65,97.49c-3-2.93-4.1-6.83-5.32-10.66a36.83,36.83,0,0,0-1.88-5.41c-.18-.36-.25-.87-1-.93,1.61,2.84,2.15,6,3.16,8.93.13.39.57.85.21,1.2a4.93,4.93,0,0,1-1.69,1.08c-.46.18-.37-.42-.43-.66-.52-2.37-1-4.76-1.53-7.13-.31-1.35-.74-2.68-1.12-4l.22-.18c.15,0,.36.11.46.05.3-.2,0-.3-.12-.42-3.15-3.22-7.15-5.21-10.89-7.58a11.94,11.94,0,0,0-5.27-1.55,2.15,2.15,0,0,1-1.24-.32A18.6,18.6,0,0,0,34,65.62l4.36,4.48a1.42,1.42,0,0,0,1.25.57c1.09,0,2.17,0,2.55,1.41.07.28.51.46.79.69,1,1.1.91,2.48.87,3.82,0,.49-.42.69-.81.73-1.31.14-2.67.36-3.45-1.12-.08-.14-.18-.1-.28,0v0a1.36,1.36,0,0,0-1.45-1.45h0a3.94,3.94,0,0,0-1.92-1.94h0a.65.65,0,0,0-.87-.4c-1.74.55-2.84-.57-4-1.53a6.45,6.45,0,0,0-1.1-.78l-.51-.46-.4-.38a.65.65,0,0,0-.16-.17l-.24-.25-.24-.24-.23-.23c-.15-.15-.27-.49-.52-.25s.08.33.25.43l.24.24.23.25.24.24.24.24.34.32.51.48.36.41-.27.25q-7.08-4.12-14.18-8.23a1.62,1.62,0,0,1-.82-1.24q-1.86-11-3.77-22-.86-5-1.74-10A1.27,1.27,0,0,1,10,28q5.88-3.33,11.73-6.74c.89-.51,1.45-.34,1.9.6.81,1.69,1.64,3.37,2.56,5,.44.78.24,1.28-.39,1.91-.67-1.46-1.29-2.82-1.93-4.18s-1-1.46-2.31-.72Q17,26.44,12.43,29.07A2.22,2.22,0,0,0,11.19,32c2.38,9,4.79,17.92,7.15,26.88a1.83,1.83,0,0,0,1,1.26c.6.32,1.17.69,1.75,1,1.17.73,2.66,1.17,2.68,3,0,.25.36.49.56.74a.54.54,0,0,0,.15.15c.15.16.27.5.52.26s-.08-.33-.25-.43l-.24-.24a4.18,4.18,0,0,1-.63-2.15,66.27,66.27,0,0,1,.31-14.83c.31-2.19,1.28-2.59,3-1.21a7.12,7.12,0,0,1,3.06,5.43c.12,2.88,0,5.76-.08,8.63a3.68,3.68,0,0,0,1.42,2.8c-1.69-3.49-.74-6.88-.79-10.16-.05-3.77-1.7-6.28-5.06-8.1l5.76-3c.53,1.78,1.74,3,2.72,4.42.57.8,1.6.69,2.91-.13a1.35,1.35,0,0,0,.49-2c-.39-.69-.76-1.39-1.17-2.07-.57-.92-.28-1.66.73-1.88,1.48-.32,2.68-.18,3.52,1.36.68,1.26,1.5,2.45,2.17,3.72a10.36,10.36,0,0,1,.94,5.58,90.54,90.54,0,0,0-.24,10.29,1.88,1.88,0,0,0,1.33,1.88c.69.26,1.34.64,2.14,1L45.5,65c-1.93,1.14-1.9,3.17.06,4.28,2.12,1.2,4.25,2.38,6.36,3.6A1.67,1.67,0,0,0,54,72.83a8.64,8.64,0,0,1,1.41-.9c1.08-.53,2.14-2.12,3.12-1.6,2,1.08,4.37,2,5.23,4.6,1.71,5.23,3,10.55,4.33,15.89.5,2.08.7,4.24,1.4,6.27a2.21,2.21,0,0,0,.71,1.22l.23.25c1.46,1.28,3.33,1.41,5.09,1.87,1.27.32,2.63.29,3.79,1,.46,1.38.26,1.79-1.19,2a10.75,10.75,0,0,1-4.95.06,4.37,4.37,0,0,0-3,.35,3.33,3.33,0,0,1-3,.1c-.58-1.42-.39-3-.74-4.43A2.44,2.44,0,0,0,65.28,97.71Z"/><path class="c" d="M23.23,61.93c-1.43-.86-2.71-1.64-4-2.4a1.25,1.25,0,0,1-.49-.92C16.36,49.73,14,40.84,11.65,32a2,2,0,0,1,1.06-2.58q4.59-2.58,9.15-5.21c.82-.47,1.29-.33,1.66.56.58,1.39,1.24,2.76,1.88,4.13a1.15,1.15,0,0,1,.2.79,16.46,16.46,0,0,0,.34,7.58A17,17,0,0,1,25.77,44a1.08,1.08,0,0,1-.52.88,3.32,3.32,0,0,0-1.56,2.8,72.19,72.19,0,0,0-.42,13.63C23.27,61.41,23.26,61.53,23.23,61.93Z"/><path class="c" d="M78,50.27,66,57c-1.59.91-3.18,1.84-4.78,2.74-.87.5-1.56.1-1.57-.91,0-3.72,0-7.44,0-11.15a1.09,1.09,0,0,1,.51-1.12C63,45,65.82,43.33,68.63,41.7c.09.07.17.12.18.16.11,2.24.22,2.31,2.13,1.22l7-4a21.47,21.47,0,0,1,.16,4.12,40.49,40.49,0,0,1-.13,7.05ZM62.39,52.39l.57-.31,11.62-6.66.31-.19c.19-.13.48-.25.34-.53s-.4-.16-.61,0l-.52.3L63.51,51c-.45.26-.9.52-1.34.79-.12.08-.27.18-.22.38S62.15,52.42,62.39,52.39Zm-.46,2.09c.45.32.77,0,1.09-.21q5.76-3.29,11.5-6.61c.29-.17,1-.27.66-.76s-.71.09-1,.26q-5.67,3.23-11.31,6.48C62.51,53.84,62,53.94,61.93,54.48Zm13.46-11.8-.3-.53L61.83,49.74l.31.54Z"/><path class="c" d="M59.18,59.3l-9.13-5.21c-1.62-.93-3.23-1.9-4.89-2.78a1.4,1.4,0,0,1-.9-1.6,4.33,4.33,0,0,0,0-.72c0-1.86,0-1.88,1.81-1.83,2.2.06,4.39.14,6.59.24a3.67,3.67,0,0,0,1.94-.47,65.89,65.89,0,0,0,7-4.58,2.58,2.58,0,0,0,1.28-1.66c.1-.59.65-.6,1.06-.49A4.83,4.83,0,0,0,68.71,39a2.2,2.2,0,0,1-1.28,2.94c-2.48,1.28-4.83,2.8-7.27,4.16a1.7,1.7,0,0,0-1,1.72C59.2,51.55,59.18,55.3,59.18,59.3Z"/><path class="c" d="M40.56,40.35c3.22.25,6.39.94,9.63,1.08a5.61,5.61,0,0,0,2.87-.62c2.06-1.06,4.15-2.05,6.22-3.08a3.16,3.16,0,0,1,2.06-.43,1.85,1.85,0,0,0,1.7-.68,9,9,0,0,1,3.62-2,2.34,2.34,0,0,1,1.63,0c.49.16.58.45.55.9s-.41.37-.7.38a3,3,0,0,0-1.86,1c.65.16.94-.34,1.35-.4s1-.4,1.18.32c.14.55.12,1.13-.71,1.15a1.56,1.56,0,0,0-.58.15c-1,.39-1.53.18-1.23-1.14-.78.89-.45,1.79.51,1.79.46,0,.88-.39,1.47-.11a3.28,3.28,0,0,1-3.16,1.28c-1.28-.24-2.48-.51-2.88,1.28-.07.32-.51.6-.83.83a75.15,75.15,0,0,1-6.8,4.47,3.81,3.81,0,0,1-2.06.47c-2.63-.1-5.26-.2-7.9-.26a1,1,0,0,1-1-.71,26.44,26.44,0,0,0-3.24-5.43Z"/><path class="c" d="M71,70c1.29-.65,1.7.24,2.25,1.16Q77.53,78.42,82,85.66c.51.82.27,1.13-.45,1.52a41.73,41.73,0,0,0-3.69,2.2c-.76.5-1,.45-1.38-.44q-3.37-8.28-6.87-16.51c-.31-.72-.25-1.13.44-1.54.38-.23,1-.28,1-1Z"/><path class="c" d="M44.18,53.79l13.36,7.76c1.87,1.08,3.72,2.18,5.6,3.24a2.7,2.7,0,0,1,1.23,1.39q5.22,12.57,10.49,25.13c.61,1.44-.68,1.39-1.26,1.78-.77.52-.78-.41-.94-.78q-5-12-10-24a1.48,1.48,0,0,1-.25-.89c.29-1.75.15-2-1.31-2.87-1.85-1-3.68-2.08-5.54-3.11-.82-.45-1.57-1.09-2.65-.82-.27.06-.65-.26-1-.44-2.22-1.27-4.42-2.56-6.63-3.85C44,55.54,44,55.54,44.18,53.79Z"/><path class="c" d="M44.24,51.27,52,55.67c2,1.13,3.95,2.25,5.92,3.4.59.34,1.38.5,1.38,1.45a.44.44,0,0,0,.55.35C61.19,60.39,62,61.62,63,62c1.9.68,2.72,2.18,3.44,4,3.15,7.79,6.41,15.53,9.63,23.29.12.29.26.58.37.88.21.62.24,1.24-.47,1.52-.87.35-.74-.56-.89-.91Q69.94,78.5,64.84,66.18a3.52,3.52,0,0,0-1.6-1.82c-6-3.43-11.86-6.93-17.83-10.31A2.11,2.11,0,0,1,44.24,51.27Z"/><path class="c" d="M61.63,67.77c-.52-.29-.78.21-1.11.41-2.2,1.36-4.39,2.74-6.55,4.18a1.73,1.73,0,0,1-2.08,0c-2.09-1.24-4.23-2.4-6.33-3.61a1.87,1.87,0,0,1-.07-3.27c1-.59,2-1.16,3-1.76.19-.12.58-.13.43-.55l0,0c1.44-.16,2.38-1.29,3.62-1.83.59-.26,1.17-.73,1.9,0-2.06,1.25-4.07,2.46-6.06,3.68-1.21.74-1.22,1.09,0,1.75,5,2.63,2.9,2.72,7.8,0,1-.58,2-1.22,3.08-1.83a2.07,2.07,0,0,1,2.88,1.43c.15.69-.58.87-.54,1.42Z"/><path class="c" d="M32.09,26.75c.18.25.34,0,.49,0a4.84,4.84,0,0,1,5.77.26h0a16.57,16.57,0,0,1,1.8,4.25,2.58,2.58,0,0,1-.5,2.66c-.66.65-.3,1.42.06,2.1.22.42.49.81.75,1.23-.22.12-.43.25-.64.35s-.61.31-.89.07-.06-.52,0-.78A20.13,20.13,0,0,0,39,32.07a3.87,3.87,0,0,0-1.24-2.52c-.46-.47-.82-.42-1,.22-.12.34-.22.68-.34,1-.82,2.32-2.12,3.3-5.16,3.38a1.58,1.58,0,0,1-1.63-1.74A7.38,7.38,0,0,1,31,28.3c.17-.25.63-.4.39-.85h0c.52,0,.79-.19.73-.73Z"/><path class="c" d="M37.2,29.77a1.81,1.81,0,0,1,1.1,1.36c.42,2.3.76,4.62-.41,6.84a1.64,1.64,0,0,1-.91.9c-1.09.31-1.24,1-1.1,2,.08.58.19,1.25-.61,1.47-1,.26-1.9.68-2.88.13-.38-.21-.32-.61-.34-1-.15-2.13-.77-4.2-.75-6.37,0-.51.14-.51.46-.5,1.21,0,2.28-.93,3.56-.56.14,0,.38-.17.39-.4C35.77,32.21,37,31.24,37.2,29.77Zm.12,3.61c.3-.05.53-.22.52-.54a.48.48,0,0,0-.54-.5.46.46,0,0,0-.47.46C36.8,33.12,37,33.3,37.32,33.38Z"/><path class="c" d="M72.3,93.37c-1.06-.55-2.11-1.12-3.19-1.63-.45-.21-.47-.57-.57-1-1.22-5.18-2.49-10.36-4.18-15.42a6.44,6.44,0,0,0-3.26-4,24.6,24.6,0,0,1-2.28-1.45c.86-.85,2.07-1.17,2.81-2.09h0c.42,0,.48.35.59.63q5.15,12.38,10.27,24.75Z"/><path class="c" d="M59.63,64.22l-6.54,3.87a1.35,1.35,0,0,1-1.47,0c-1-.61-2.07-1.2-3.13-1.75-.7-.36-.55-.59,0-.93,2-1.18,4-2.38,5.92-3.6a.86.86,0,0,1,1,0C56.75,62.59,58.1,63.35,59.63,64.22Z"/><path class="c" d="M33.53,25.53c-.39.51-1.22.5-1.44,1.22v0a.79.79,0,0,0-.73.73h0c-1.53,1.15-2.69,4.3-2.18,5.94a1.06,1.06,0,0,0,.33.46c1.6,1.33,1.77,1.94,1.09,3.85,0,.09,0,.22,0,.32h0c-.29-.18-.42.11-.62.2a2.29,2.29,0,0,1-2.92-.44c-.61-.84-.49-2.8.37-3.41a1.68,1.68,0,0,0,.71-1.83c-.27-2.18.74-3.91,2-5.55h0a.5.5,0,0,0,.49-.49h0c.94-.39,1.72-1.28,2.89-1Z"/><path class="c" d="M45.55,59.62c-.19-.58-.77-.77-1.15-1.17s-.56-.43-.5-.88-.11-1,.25-1.24.71.23,1,.42c2.35,1.35,4.69,2.72,7.23,4.19-1.44.73-2.48,2.2-4.24,1.07v0a2,2,0,0,0-1.69-1.45h0c0-.64-.47-.83-1-1Z"/><path class="c" d="M30.65,38c.8,0,.57.77.65,1.17.47,2.11.45,2.13-1.45,3.12a26.4,26.4,0,0,1-3.49,1.74l-.09-.1c.2-1.92.69-3.82.24-5.92.8.45,1.39,1,2.21,1s1.59-.08,2-1Z"/><path class="c" d="M77.86,36.32c.46,1.49.13,2.36-1.2,3-2.07,1-4,2.28-6,3.41-.38.21-.74.73-1.25.37-.33-.24,0-1.89.44-2.13l6-3.49Z"/><path class="c" d="M30.19,27c-.56-.26-.65.31-.84.55a6.42,6.42,0,0,0-1.6,4.62c.05.81.07,1.54-.74,2.07-.46.31-.58.93-.82,1.45-.37-2.57-1.05-5.18.7-7.55a6.41,6.41,0,0,1,3.35-2.07c.49-.17.23.35.42.46h0c-.45-.12-.66,0-.49.49Z"/><path class="c" d="M48.17,62c0,.52.86.59.72,1.22l0,0c-1.72,1.1-3-.25-4.42-.8-.49-.2-.47-.72-.51-1.13-.09-.82-.09-1.64-.13-2.48.77,0,.92,1,1.7.82h0c0,.64.46.83,1,1h0A3.38,3.38,0,0,0,48.18,62Z"/><path class="c" d="M32.56,43.31c1.07-.36,2.31,0,3.3-.77,0,0,.18-.09.2-.07A5.73,5.73,0,0,1,37.35,45c.18.91-.72,1-1.29,1.28a1.23,1.23,0,0,1-1.83-.48c-.52-.84-1.1-1.64-1.65-2.46Z"/><path class="c" d="M71,69.94c-.27-.08-.44.11-.64.24-1.35.85-1.35.85-2-.67-.35-.84-.69-1.67-1.17-2.86l4.44,2.4c0,.52-.67.43-.67.9Z"/><path class="c" d="M39.29,76.17l.26,1c-1.74-1.81-4-2.76-6.17-3.93a.13.13,0,0,0-.1-.14h0L36,72.82h0c.27,1,1.11,1.46,1.92,1.94h0l1.45,1.45Z"/><path class="c" d="M71.73,36.1H70c-.51,0-.75-.23-.62-.72s.49-.21.73-.13c.58.2,1.15.44,1.72.67Z"/><path class="c" d="M30.12,70.74l.68.5-.18.18L29.85,71Z"/><path class="c" d="M30.8,71.24c.12.12.46.23.31.4s-.34-.1-.49-.22Z"/><path class="c" d="M72.48,93.16l.1.26-.28,0Z"/><path class="c" d="M33.55,25.55l.06-.16.09.05-.17.09Z"/><path class="c" d="M68.4,38.36h.07a.1.1,0,0,1,0,.07q-.08.15-.15,0S68.39,38.38,68.4,38.36Z"/><path class="c" d="M40.35,40.53c-.06-.1-.15-.21,0-.28s.13.07.19.1Z"/><path class="c" d="M33.28,73.08,33.21,73v0a.88.88,0,0,1,0,.15Z"/><path class="c" d="M32.58,43.3l-.1-.15h.1l0,.16Z"/><path class="c" d="M26.36,44.05l-.14.07.06-.17A.39.39,0,0,0,26.36,44.05Z"/><path class="b" d="M72.8,32.25c-.1,0-.24,0-.31-.12a.26.26,0,0,1,.07-.41,8.18,8.18,0,0,1,.69-.45l11.31-6.48c.24-.14.48-.29.73-.41a.31.31,0,0,1,.41.13c.1.17,0,.3-.14.4a5.29,5.29,0,0,1-.5.32L73.34,32Z"/><path class="b" d="M85.76,27a6.84,6.84,0,0,1-.58.44L73.25,34.25c-.23.13-.55.39-.74.1s.22-.51.46-.65l11.92-6.85c.2-.11.4-.29.65-.18C85.63,26.7,85.67,26.84,85.76,27Z"/><path class="c" d="M30.86,116l-6.2-3.74c-4.31-2.59-8.61-5.21-12.94-7.76a1.67,1.67,0,0,1-.92-1.94C11.61,97,12.37,91.49,13.15,86a7.67,7.67,0,0,1,.22-1.06c.16-.56.43-.79,1-.42q6.11,3.67,12.24,7.29a1.78,1.78,0,0,1,.86,1.36Z"/><path class="c" d="M34.5,88.68c.68,2.7,1.34,5.32,2,7.94,1.17,4.55,2.32,9.1,3.53,13.64.16.63.13,1-.48,1.34-2.37,1.4-4.71,2.86-7,4.33-.84.54-1.18.33-1.32-.6Q30,107,28.75,98.65c-.28-1.9-.52-3.8-.86-5.68a.81.81,0,0,1,.48-1C30.39,90.89,32.38,89.81,34.5,88.68Z"/><path class="c" d="M34.2,88.32C32,89.49,30,90.56,28,91.65a.85.85,0,0,1-1-.11C23,89.1,18.92,86.66,14.82,84.27c-.65-.39-.71-.64-.24-1.22.88-1.13,1.7-2.32,2.53-3.49a1,1,0,0,1,1.52-.38Z"/><path class="c" d="M2.83,81.18c3.26,1.75,6.33,3.41,9.41,5a.6.6,0,0,1,.34.77c-.46,3.07-.93,6.14-1.35,9.22-.09.69-.26.7-.79.4-2.29-1.3-4.59-2.57-6.89-3.85a1.16,1.16,0,0,1-.72-1Z"/><path class="c" d="M3.77,80.26a23.29,23.29,0,0,0,4.52-3A2.31,2.31,0,0,1,11.21,77c1.4.84,2.89,1.54,4.36,2.24.69.32.9.58.34,1.27-.88,1.08-1.65,2.25-2.46,3.38-.14.2-.36.39-.39.6-.22,1.84-1.14,1.06-2,.57C8.69,83.81,6.35,82.53,4,81.31c-.68-.34-.59-.62-.19-1.06Z"/><path class="c" d="M74.59,22.9c-3.55,2-7.09,4-10.63,6Q57.2,32.72,50.45,36.6c-1.18.67-1.32.59-1.32-.77,0-6.56,0-13.11,0-19.67a2,2,0,0,1,1.11-1.91Q62,7.5,73.73.68c.72-.42.89-.11,1,.46a4.27,4.27,0,0,1,0,1q0,9.6,0,19.19a5.28,5.28,0,0,1-.24,1.63ZM52.18,21.35c.23-.12.52-.25.8-.4L68,12.3c1.17-.67,2.36-1.34,3.52-2,.34-.21,1-.35.71-.9s-.85-.1-1.22.11q-9.31,5.32-18.6,10.67a3.65,3.65,0,0,0-.69.47.5.5,0,0,0-.11.41C51.71,21.23,51.89,21.34,52.18,21.35Zm20.18-4.87c-.24-.63-.64-.43-1-.2l-19.11,11c-.28.16-.77.32-.52.78s.68.22,1,0l4.58-2.62,14.23-8.17C71.84,17.08,72.25,17,72.36,16.48Zm0-3.51c-.36-.67-.81-.29-1.2-.07L52.36,23.69c-.33.2-1,.35-.64.91s.78.11,1.13-.09c2.15-1.22,4.3-2.46,6.44-3.7l12.16-7C71.81,13.63,72.29,13.51,72.36,13Z"/><path class="c" d="M68.76,110.07a1.37,1.37,0,0,1,0,1.56c-2.69,1.36-5.32.84-7.92-.29a18.62,18.62,0,0,0-2.28-1c-1.79-.52-2.33-1.81-2.45-3.48a4.65,4.65,0,0,0-1.63-3.57A87,87,0,0,1,48.69,86.1a3.14,3.14,0,0,0-1.32-2,4.66,4.66,0,0,1-2.08-2.81A18.67,18.67,0,0,0,44.57,79a5,5,0,0,1-.3-2.52c.23-1.4.2-2.89-1.08-4-.45-.44-.94-.84-.91-1.54.35-.22.57,0,.8.15,3.21,1.78,6.34,3.69,9.43,5.67a6,6,0,0,1,2.65,3.52,102.58,102.58,0,0,1,3.59,18.86,20.24,20.24,0,0,1,.19,3.1,4,4,0,0,0,1.93,3.62,35,35,0,0,0,5.25,2.58A7.81,7.81,0,0,1,68.76,110.07Z"/><path class="c" d="M55.47,79.89c-.06-.1-.12-.22,0-.3s.12.08.19.12Z"/><path class="b" d="M38.37,70.1,34,65.62a18.6,18.6,0,0,1,4.62,4.27Z"/><path class="b" d="M37.86,74.75c-.81-.48-1.65-.93-1.92-1.94A3.94,3.94,0,0,1,37.86,74.75Z"/><path class="b" d="M39.3,76.19l-1.45-1.45A1.36,1.36,0,0,1,39.3,76.19Z"/><path class="b" d="M29.5,69.65l.51.46-.24.22-.52-.48Z"/><path class="b" d="M28,68.56c-.17-.1-.39-.31-.25-.43s.37.1.52.25Z"/><path class="b" d="M24.72,64.84c.17.1.39.31.25.43s-.37-.1-.52-.26Z"/><path class="b" d="M29.1,69.27l.4.38-.25.2-.34-.32Z"/><path class="b" d="M24.45,65a.54.54,0,0,1-.15-.15l.18-.26.24.24Z"/><path class="b" d="M28.23,68.38l.23.23-.26.19L28,68.56Z"/><path class="b" d="M28.46,68.61l.24.24-.27.2-.23-.25Z"/><path class="b" d="M28.7,68.85l.24.25-.27.19-.24-.24Z"/><path class="b" d="M28.94,69.1a.65.65,0,0,1,.16.17l-.19.26-.24-.24Z"/><path class="b" d="M62.39,52.39c-.24,0-.39,0-.44-.2s.1-.3.22-.38c.44-.27.89-.53,1.34-.79L74.1,45l.52-.3c.21-.12.47-.25.61,0s-.15.4-.34.53l-.31.19L63,52.08Z"/><path class="b" d="M61.93,54.48c.08-.54.58-.64.93-.84q5.64-3.26,11.31-6.48c.3-.17.74-.69,1-.26s-.37.59-.66.76Q68.78,51,63,54.27C62.7,54.46,62.38,54.8,61.93,54.48Z"/><path class="b" d="M75.39,42.68l-13.25,7.6-.31-.54,13.26-7.59Z"/><path class="b" d="M31.37,27.46a.79.79,0,0,1,.73-.73C32.16,27.27,31.89,27.49,31.37,27.46Z"/><path class="b" d="M37.32,33.38c-.32-.08-.52-.26-.49-.58a.46.46,0,0,1,.47-.46.48.48,0,0,1,.54.5C37.85,33.16,37.62,33.33,37.32,33.38Z"/><path class="b" d="M30.18,27c-.17-.5,0-.61.49-.49A.5.5,0,0,1,30.18,27Z"/><path class="b" d="M48.18,62a3.38,3.38,0,0,1-1.69-1.45A2,2,0,0,1,48.18,62Z"/><path class="b" d="M46.5,60.59c-.5-.15-1-.34-1-1C46,59.76,46.49,60,46.5,60.59Z"/><path class="b" d="M52.18,21.35c-.29,0-.47-.12-.53-.32a.5.5,0,0,1,.11-.41,3.65,3.65,0,0,1,.69-.47q9.3-5.34,18.6-10.67c.37-.21.86-.76,1.22-.11s-.37.69-.71.9c-1.16.69-2.35,1.36-3.52,2L53,21C52.7,21.1,52.41,21.23,52.18,21.35Z"/><path class="b" d="M72.36,16.48c-.11.47-.52.6-.85.79L57.28,25.44,52.7,28.06c-.34.19-.75.49-1,0s.24-.62.52-.78l19.11-11C71.72,16.05,72.12,15.85,72.36,16.48Z"/><path class="b" d="M72.36,13c-.07.54-.55.66-.91.87l-12.16,7c-2.14,1.24-4.29,2.48-6.44,3.7-.35.2-.81.64-1.13.09s.31-.71.64-.91L71.16,12.9C71.55,12.68,72,12.3,72.36,13Z"/></svg>