<svg xmlns="http://www.w3.org/2000/svg" viewBox="0 0 408.02 186.79"><defs><style>.a{fill:#5f0d68;}.b{fill:#fcc530;}</style></defs><title>hackwcu</title><path class="a" d="M297.94,84.25a38.85,38.85,0,0,1-11.78-1.84A29.65,29.65,0,0,1,270,70a34.18,34.18,0,0,1-5.33-18c-.1-2.77-.14-5.62-.17-8.13a2.09,2.09,0,0,0-1.19-2.13v-.1c-.08-7-.16-14.87,3-22C271,9.31,279.05,3.15,290.26,1.35a9.4,9.4,0,0,1,1.19-.11,8.93,8.93,0,0,0,2.24-.33h4.57l1.7.21c1.24.14,2.53.29,3.76.51,6.89,1.18,12.27,3.79,16.44,8a25.63,25.63,0,0,1,7.19,15.3,27.66,27.66,0,0,1,.23,4.62c0,1.4-.41,1.79-1.71,1.8l-6.95,0-7.32,0c-1,0-1.35-.2-1.51-1.43-.06-.53-.12-1.05-.17-1.58A17.84,17.84,0,0,0,308.47,22a11,11,0,0,0-8.07-6.29,22.43,22.43,0,0,0-4.46-.49,13.94,13.94,0,0,0-4.09.58c-5.3,1.6-7.61,5.91-8.88,9a25.73,25.73,0,0,0-1.7,9.52c0,1.69,0,3.39,0,5.09v1.88a2.13,2.13,0,0,0,1.2,2.26c0,.06,0,.36,0,.45,0,.86,0,1.72,0,2.58,0,1.52,0,3.09,0,4.65.18,5.41,1.39,9.48,3.81,12.79,2.85,3.9,6.29,5.8,10.49,5.8h.49c.38,0,.76,0,1.15,0a17,17,0,0,0,4.44-.46c4.32-1.22,6.92-4.32,7.93-9.48a19.38,19.38,0,0,0,.29-3.18l0-.67c.06-1.54.35-1.82,1.91-1.82h13.44a3,3,0,0,1,1.92.39,2.83,2.83,0,0,1,.36,1.87,30.13,30.13,0,0,1-2,10.91c-3.15,7.84-9.11,13-17.72,15.37A42,42,0,0,1,297.94,84.25Z"/><path class="a" d="M73.2,184.47H66.37c-1.25,0-1.33-.14-1.62-1.2l-11-39.76a2.28,2.28,0,0,0-2-2,1.71,1.71,0,0,1-.09-.27c-.18-.62-.35-1.24-.53-1.87L50.74,138l-.84-.17-.9-.19-.46,1.56c-.16.54-.33,1.08-.47,1.63l0,.18a1.94,1.94,0,0,0,.06,1.66,1.58,1.58,0,0,0,.73.64s0,0,0,.06q-1.68,6.12-3.38,12.25l-2.73,9.81q-2.44,8.79-4.88,17.58c-.38,1.4-.43,1.44-1.78,1.45H22.48c-1.28,0-1.39-.1-1.69-1.36L11.66,144l-.06-.26a2.42,2.42,0,0,0-2-2.25L3.37,114.8c-.73-3.12-1.45-6.23-2.18-9.35a1.76,1.76,0,0,1,.11-1.4,1.65,1.65,0,0,1,1.23-.41c2.34,0,4.69,0,7,0q3.8,0,7.58,0c.87,0,1.25.14,1.53,1.46q1.53,7.29,3,14.59l2.6,12.44c.64,3.08,1.29,6.16,1.93,9.24a2.26,2.26,0,0,0,1.92,2.12c0,.06.06.35.08.43.33,1.53.64,3.07.95,4.61l.54,2.61.91-.11A1.51,1.51,0,0,0,32,149.71c.55-1.94,1.07-3.84,1.56-5.74l.05-.15a1.8,1.8,0,0,0,0-1.54,1.4,1.4,0,0,0-.82-.63l10.05-36.77c.27-1,.51-1.25,1.76-1.26H54.91c1.3,0,1.49.16,1.85,1.45q2.15,7.68,4.25,15.35l5.75,21a2.51,2.51,0,0,0,2,2.09,2.63,2.63,0,0,1,.08.3c0,.09.05.18.07.27l.19.67A58.89,58.89,0,0,0,71,150.6l1.24,3.09,1-4.86c.36-1.79.73-3.57,1.09-5.36a1.45,1.45,0,0,0-1-1.79h-.06a3.59,3.59,0,0,1,.08-.35l.06-.28q3.73-18,7.48-35.94c.26-1.25.54-1.47,1.87-1.48H96.73c.79,0,1.34.15,1.54.41a2.24,2.24,0,0,1,0,1.68L90.09,141a1.85,1.85,0,0,0,.88,2.39c0,.09,0,.18-.07.26q-.62,2.78-1.28,5.53l-7.91,34c-.3,1.28-.41,1.37-1.67,1.38Z"/><path class="a" d="M119.55,82.94c-1.87,0-2.15-.28-2.15-2.14V44.56c0-.09,0-.2,0-.3a2.47,2.47,0,0,0-1.22-2.59.81.81,0,0,1,0-.16c0-.13,0-.26,0-.37V4.43c0-2.11.22-2.33,2.34-2.33H132c1.88,0,2.16.28,2.16,2.15,0,6.05,0,28.91,0,28.91,0,2.35.44,2.79,2.8,2.79h24.24c2.56,0,3-.44,3-3V4.56c0-2.28.18-2.46,2.45-2.46H180c1.89,0,2.17.28,2.17,2.14q0,6.35,0,12.67v24.3a2.26,2.26,0,0,0,1.22,2.36,1.55,1.55,0,0,0,0,.21c0,.12,0,.25,0,.36q0,7.56,0,15.11V67.7q0,6.51,0,13c0,2-.24,2.21-2.2,2.21H167.69c-2.08,0-2.29-.22-2.29-2.36V53.1c0-2.37-.45-2.81-2.79-2.81H138c-2.2,0-2.67.47-2.67,2.68V80.68c0,2.09-.17,2.26-2.24,2.26H119.55Z"/><path class="a" d="M385.57,83a2.23,2.23,0,0,1-2.16-1.2q-7.31-11.46-14.66-22.88l-3.92-6.1-.36-.54c-.19-.27-.37-.55-.54-.83A2.56,2.56,0,0,0,361.57,50h-.11q-.87,0-1.74,0c-.51,0-1,0-1.54,0H358a2.06,2.06,0,0,0-1.54.57,2.31,2.31,0,0,0-.57,1.74c0,2,0,4,0,6.07,0,0,0,18.18,0,22.47,0,1.84-.21,2-2.09,2H340.14c-1.93,0-2.18-.25-2.18-2.24V44a2.23,2.23,0,0,0-1.22-2.33c0-.06,0-.14,0-.19s0-.24,0-.35V4.45c0-2.13.22-2.35,2.32-2.35H352.4c2.09,0,2.3.22,2.31,2.37V31.58c0,2.1.41,2.56,2.42,2.71h.17l.45,0a4.07,4.07,0,0,0,3.68-2.16Q366,25,370.61,17.91c3-4.69,6.07-9.38,9.07-14.09a3.21,3.21,0,0,1,3-1.76c2.62,0,5.13.06,7.65.06l5.08,0h4.43a2.14,2.14,0,0,1,1.49.34c.59.51.26,1.26-.12,1.8Q397,10.13,392.78,16l-16,22.16a3.47,3.47,0,0,0-.25,3.21,3.16,3.16,0,0,0,2.13,2.1,2.1,2.1,0,0,1,1.29,1.08L383.61,50q3.51,5.19,7,10.36,3.84,5.67,7.71,11.31L404,80a12.09,12.09,0,0,1,.87,1.39,1.08,1.08,0,0,1,.07.92,1.07,1.07,0,0,1-.77.55,4.32,4.32,0,0,1-1.07.09h-9.24q-4.14,0-8.28,0Z"/><path class="a" d="M209.2,185.79a42.51,42.51,0,0,1-13.36-2.15c-10.94-3.6-17.24-11-18.71-22a48,48,0,0,1-.24-7.19c0-1.22,0-2.48,0-3.72,0-1.42,0-2.84,0-4.27,0-.89,0-1.78,0-2.68v-.17c0-1.16-.4-1.84-1.31-2a.39.39,0,0,1-.15,0,2.85,2.85,0,0,0,0-.48s0-28.93,0-35.63c0-1.53.29-1.82,1.83-1.82h13.78c2,0,2.32.34,2.32,2.29,0,6.61,0,34.55,0,34.55s0,.22,0,.33a2.43,2.43,0,0,0,1.47,2.7.86.86,0,0,0,0,.16c0,.14,0,.27,0,.39q0,2.67,0,5.34c0,3.06,0,6.13,0,9.19a12.85,12.85,0,0,0,2.57,7.88,12,12,0,0,0,8.55,4.73,32.94,32.94,0,0,0,3.66.23,20.76,20.76,0,0,0,3.8-.33c6.65-1.24,10.55-5.81,10.71-12.54.08-3.31.07-6.67.05-9.92,0-1.62,0-3.24,0-4.86a2.09,2.09,0,0,0-1.44-2.24v-.38c0-2.07,0-4.13,0-6.2V106c0-2.17.2-2.37,2.42-2.37h13.31c2,0,2.21.25,2.21,2.22q0,6,0,12V141a2.25,2.25,0,0,0,1.44,2.49h0c0,2.11,0,4.25,0,6.32a95.21,95.21,0,0,1-.28,11.57,24.51,24.51,0,0,1-8,16.17A29.59,29.59,0,0,1,222.08,184,47.74,47.74,0,0,1,209.2,185.79Z"/><path class="a" d="M407.05,146.56q0-1.86,0-3.72v-3.15q0-3.47,0-6.93a41.59,41.59,0,0,0-2.54-14.58c-2.95-8-8.42-13.23-16.25-15.6a30.33,30.33,0,0,0-8.78-1.31c-1,0-2,0-3,.15-8.64.85-14.95,4.42-19.29,10.91-3.49,5.22-5.23,11.42-5.46,19.53-.13,4.44-.1,9-.08,13.35q0,3.39,0,6.78a46.41,46.41,0,0,0,1.95,13.89c2.38,7.76,7,13.2,13.73,16.18a28.87,28.87,0,0,0,11.81,2.49,34,34,0,0,0,7.76-.93,23.53,23.53,0,0,0,15-10.6c3.12-4.94,4.73-10.74,5.08-18.23C407.11,152.06,407.08,149.27,407.05,146.56Zm-17.79,6.75c-.06,3.3-.13,7-1.45,10.62-1.55,4.21-4.34,6.25-8.53,6.25-.37,0-.76,0-1.17-.05-3.35-.28-6.26-2.93-7.4-6.75a26.5,26.5,0,0,1-1.12-7.37c0-3.14,0-6.29,0-9.43v-3.77c0-1.33,0-2.66,0-4,0-3,0-6.2,0-9.33a22.57,22.57,0,0,1,1.52-8.21,8.58,8.58,0,0,1,8.07-5.79,9.27,9.27,0,0,1,4.25,1c2.25,1.18,3.78,3.26,4.69,6.37a36.84,36.84,0,0,1,1.14,9.75C389.39,140,389.39,146.75,389.26,153.31Z"/><path class="a" d="M137.86,185.77a39,39,0,0,1-11.79-1.84A29.66,29.66,0,0,1,110,171.48c-3.3-5-5-10.92-5.33-18-.09-2.12-.11-4.28-.13-6.37,0-1.1,0-2.21,0-3.32v-.1a2,2,0,0,0-1.43-2.18c-.1-7.05.11-15.17,4-22.47,5-9.25,12.69-14.69,23-16.17a43.35,43.35,0,0,1,6.26-.46,37.89,37.89,0,0,1,15.06,3c9,3.86,14.28,10.92,15.65,21a25.61,25.61,0,0,1,.22,4.73c-.05,1.25-.42,1.61-1.64,1.64l-2.83,0h-11.3c-1.32,0-1.55-.22-1.72-1.6-.07-.51-.12-1-.17-1.52a17.8,17.8,0,0,0-1.4-6.15,11,11,0,0,0-8.15-6.37,23.65,23.65,0,0,0-4.57-.51,13,13,0,0,0-4.61.79c-3.71,1.39-6.4,4.29-8.23,8.85A27.18,27.18,0,0,0,121,137v4.45c0,1.13.43,1.79,1.32,1.94a.39.39,0,0,1,.15.05s0,.25,0,.42v.2c0,1.29,0,2.57,0,3.86a61.12,61.12,0,0,0,.24,7.74c.73,6.34,3.26,10.89,7.73,13.89a10.36,10.36,0,0,0,5.84,1.8l2.21,0a16.44,16.44,0,0,0,4.16-.43c4.43-1.17,7.09-4.26,8.13-9.45a20.47,20.47,0,0,0,.31-3.53v-.33c.06-1.61.35-1.9,2-1.9h13.43a2.93,2.93,0,0,1,1.89.39,2.72,2.72,0,0,1,.36,1.79,30,30,0,0,1-2,11c-3.13,7.8-9.06,13-17.62,15.33A41.74,41.74,0,0,1,137.86,185.77Z"/><path class="a" d="M257.76,183.26c-1.6,0-1.88-.28-1.89-1.88v-3.71c0-1.64,0-3.29,0-4.94a3.08,3.08,0,0,1,.88-2.24l3.65-3.87c2.64-2.78,5.37-5.66,8-8.55,1.87-2.06,3.83-4.12,5.71-6.11,3.75-4,7.62-8,11.1-12.37a33.76,33.76,0,0,0,5.09-8.14c1.89-4.52,1.71-8.62-.53-12.18a7.89,7.89,0,0,0-7.15-3.73,15.26,15.26,0,0,0-2.06.15c-4.43.61-7.46,4-8.12,9.09-.11.86-.21,1.64-.27,2.44-.11,1.69-.43,2-2.09,2s-3.52,0-5.28,0h-7.71a7.32,7.32,0,0,1-.81,0c-1.17-.11-1.55-.51-1.61-1.69a25.12,25.12,0,0,1,18.53-25,38.44,38.44,0,0,1,9.54-1.26,33.69,33.69,0,0,1,12.12,2.26c8.09,3.09,12.88,9,14.25,17.69,1.22,7.76-.81,14.86-6.21,21.7-3.57,4.53-7.52,9.13-11.73,13.66-2.25,2.43-4.47,4.89-6.69,7.35l-2.58,2.85a3.68,3.68,0,0,0-.36.49l-.23.35-1.06,1.57h28.9c2.48,0,2.6.12,2.61,2.66v2c0,2.48,0,5,0,7.45,0,1.72-.25,2-1.91,2H257.76Z"/><path class="a" d="M330.79,183.26H323.6c-1.31,0-1.69-.38-1.7-1.63,0-4.33,0-8.56,0-12.58,0-1.2.39-1.57,1.64-1.58l7.31,0,7.31,0c1.26,0,1.63.39,1.64,1.7,0,4.48,0,8.55,0,12.46,0,1.25-.39,1.61-1.7,1.63h-7.31Z"/><path class="a" d="M261.49,81.36c-.08-.31-.18-.61-.29-.91l-2.43-7c-1.37-4-2.75-7.94-4.11-11.92-1.09-3.15-6-17.36-6-17.36l-.09-.29c0-.06,0-.13-.05-.19a2.42,2.42,0,0,1-1.86-1.92L233.78,3.93c-.6-1.74-.72-1.83-2.53-1.83H217.81c-2.38,0-2.38,0-3.17,2.3q-2.46,7.2-4.94,14.41L201.75,41.9a1.67,1.67,0,0,1,.57.7,2.08,2.08,0,0,1-.17,1.69c0,.09-.08.17-.11.25-.32,1.05-.68,2.08-1,3.12l-3.43,10q-4,11.68-8,23.37a1.81,1.81,0,0,0-.07,1.51,2,2,0,0,0,1.49.44h14.63c1.31,0,1.49-.14,1.9-1.45s.84-2.64,1.25-3.95c1-3.05,2-6.2,2.91-9.32a2.69,2.69,0,0,1,2.91-2.13h0c3.62,0,7.25,0,10.88,0s7.21,0,10.86,0a2.76,2.76,0,0,1,3,2.2c1.29,4.26,2.67,8.57,4,12.74l.24.75c.34,1.06.46,1.15,1.59,1.16h6.43l5.68,0,3.11,0a1.06,1.06,0,0,0,1.17-1.56Zm-30.23-29.8c-1.56,0-3.12,0-4.68,0H217l.79-2.7c.29-.94.59-1.9.9-2.85s.54-1.7.79-2.51l.06-.16-1-.61,5.69-18.23,2.16,6.73q.88,2.82,1.79,5.65c.26.85.53,1.71.79,2.57l.66,2.16a3,3,0,0,1,2,2.37,2.92,2.92,0,0,0,.1.35c.26.79.5,1.58.75,2.37s.47,1.53.71,2.27l.85,2.64Z"/><path class="b" d="M0,104.51c.38-1.58,1.54-1.91,3-1.9,4.48,0,9,0,13.44,0,2.1,0,2.63.39,3.07,2.44,1.22,5.71,2.4,11.43,3.61,17.14q1.68,8,3.4,16c.29,1.38.58,2.76.88,4.16l1.43.12,1.75,8.14.2,0,2.19-7.92c-.36-.52-.87-.16-1.26-.52.65-2.5,1.29-5.06,2-7.6q4-14.67,8.09-29.34c.65-2.33,1.07-2.67,3.5-2.67,3.16,0,6.32,0,9.48,0,1.88,0,2.41.41,2.9,2.18q5,18.17,10,36.35a2.41,2.41,0,0,0,.58,1.23l1.22.11c.77,2.78,1.55,5.58,2.41,8.63l1.78-8.61-1.39-.17,3.1-14.94q2.39-11.43,4.77-22.86a2.1,2.1,0,0,1,2.32-1.91c4.8,0,9.6,0,14.39,0,2,0,2.79,1.15,2.34,3q-2.4,10.14-4.79,20.29-1.83,7.83-3.63,15.66a2,2,0,0,0,0,.55c.3.43.82.08,1.2.5-.5,2.22-1,4.51-1.54,6.81q-2.84,12.24-5.7,24.47c-.75,3.22-1.63,6.4-2.3,9.64a2,2,0,0,1-2.15,1.76c-4.8.06-9.6,0-14.4,0a2,2,0,0,1-2-1.69q-4.78-17.19-9.55-34.37c-.63-2.24-1.22-4.49-1.83-6.74-.44-.28-.94,0-1.51-.22L49.77,138l-1.25,4.24c.4.31.88,0,1.37.28-.81,2.95-1.61,5.93-2.44,8.9Q43.24,166.62,39,181.78a11,11,0,0,0-.52,1.82c-.15,1.41-1.15,1.76-2.27,1.77-4.71,0-9.43,0-14.15,0A2,2,0,0,1,20,183.67c-1.71-7.28-3.37-14.56-5.07-21.84q-2.07-8.85-4.2-17.69c-.13-.53,0-1.13-.48-1.65l-1.2-.1a13.4,13.4,0,0,1-1-3.78q-3-12.68-6-25.38c-.61-2.57-1.15-5.16-1.72-7.74-.05-.19-.05-.4-.26-.5Zm2,.09c3,12.66,5.9,25.22,8.83,37.77l1.47.13,9.59,40.93H36.66L48,142.51l-1.39-.18,3-10.88.27,0q1.53,5.46,3.05,10.91l1.45.08,11.38,40.95H80.59l9.53-40.83c-.52-.27-1,0-1.35-.35,2.91-12.51,5.83-25,8.77-37.64H82q-3.93,18.9-7.85,37.68c.49.29,1,0,1.37.34q-1.65,7.94-3.32,15.88l-.29,0q-2.24-8-4.45-16.05l-1.45-.1q-5.22-19-10.41-37.77H43.9q-5.16,18.89-10.3,37.68c.49.25.93,0,1.34.37-1.44,5.25-2.89,10.55-4.35,15.84l-.31-.05c-1.12-5.34-2.24-10.67-3.35-15.89-.58-.23-1.06,0-1.48-.29q-3.94-18.83-7.9-37.67Z"/><path class="b" d="M408,143.68c-.09,3.86.21,8.51-.24,13.14-.72,7.32-2.53,14.23-7.57,19.92a24.51,24.51,0,0,1-14.62,8c-8.26,1.43-16.11.46-23.11-4.51-5.65-4-8.74-9.72-10.37-16.33a49.66,49.66,0,0,1-1.4-11.51c-.05-6.8-.09-13.6.06-20.39a39.36,39.36,0,0,1,4.05-17.6c4.2-8,10.91-12.55,19.84-13.77a30.81,30.81,0,0,1,16.81,2c7.06,3.11,11.63,8.54,14.14,15.76A48,48,0,0,1,408,134.39Zm-19.66-.77c-.15-5,.21-10.07-.26-15.09a19.33,19.33,0,0,0-2.11-7.67c-2.54-4.65-9-4.55-11.74-2a11.49,11.49,0,0,0-3.18,6.45c-.85,4.34-.73,8.74-.69,13.13.06,6.52-.23,13,.2,19.54a19.84,19.84,0,0,0,1.63,7.32,7.43,7.43,0,0,0,6.94,4.66,7.32,7.32,0,0,0,7.28-4.45,19.8,19.8,0,0,0,1.69-7.06C388.53,152.82,388.21,147.87,388.34,142.91Zm11.17-31.66H359.13a24.23,24.23,0,0,0-4.26,8.09h15.94c3.54-6.46,13.41-6.53,17,0h16A25.33,25.33,0,0,0,399.51,111.25Zm-40.88,62.58h41.45a25.92,25.92,0,0,0,4-8.12H388.16c-1.89,3.62-4.74,5.52-8.8,5.5a9.33,9.33,0,0,1-8.77-5.41h-16A25.94,25.94,0,0,0,358.63,173.83Zm39.33,2.3H360.62C370.15,186.39,390.3,185.33,398,176.13ZM397.4,109c-9.5-9.69-29-8.26-36,0Zm-8.62,12.54a36.13,36.13,0,0,1,1.5,10H405.9c0-3.6-.7-8.33-1.5-10Zm-20.38,10a38.91,38.91,0,0,1,1.44-10H354.11a41.84,41.84,0,0,0-1.34,10Zm37.63,2.3H390.34v9H406Zm-53.36,9h15.67v-9H352.67Zm37.61,10.33H406v-8H390.28Zm-21.9-8H352.72v8h15.66Zm36.38,18.36a39.16,39.16,0,0,0,1.1-8.06H390.27A41.61,41.61,0,0,1,389,163.5Zm-35.06,0a39.84,39.84,0,0,1-1.28-8H352.76a39.33,39.33,0,0,0,1.25,8Z"/><path class="b" d="M281.7,168.14h28c2.22,0,3,.74,3,2.94q0,5.16,0,10.32c0,2-.74,2.78-2.74,2.78h-52.3c-2,0-2.73-.77-2.74-2.78,0-2.88,0-5.76,0-8.64a3.74,3.74,0,0,1,1-2.71c8.38-9,16.77-17.9,25.08-26.93a46.66,46.66,0,0,0,8.23-11.59,12.6,12.6,0,0,0,.73-9.88c-1.21-3.46-3.73-5-7.37-5.21-6-.32-8.58,4-9.23,8.12-.16,1-.19,2-.27,3-.15,1.74-.86,2.44-2.59,2.44q-7,0-14,0c-2,0-2.77-.77-2.79-2.86a25.8,25.8,0,0,1,20.79-25.91c8.18-1.76,16.26-1.25,23.77,2.8,7,3.75,10.76,9.78,11.85,17.57,1.18,8.43-1.61,15.6-6.74,22.14-5.61,7.16-11.89,13.7-18,20.41C284.21,165.39,283.05,166.65,281.7,168.14ZM256.92,182.2h53.74v-6.08H256.92Zm4.26-70.95a22.05,22.05,0,0,0-4.4,8.09H273.2a9.85,9.85,0,0,1,9-4.83c3.94,0,7,1.45,8.9,4.79h16.66a19.62,19.62,0,0,0-3.85-8Zm16.49,58.86-.14-.3,3.68-4.05H262.6c-1.59,1.71-3.2,3.55-4.94,5.25a2.72,2.72,0,0,0-.7,2.8h53.72v-3.7ZM263.41,109c3.12.25,37.37.14,38.27-.11C293.41,100.31,272.38,99.78,263.41,109Zm44.23,22.59a24.33,24.33,0,0,0,.48-10H292a15.05,15.05,0,0,1-.7,10Zm-17.37,2.25a61.9,61.9,0,0,1-6.4,9h17.67c2.09-2.79,4.2-5.58,5.38-9Zm.43,21.61H272.22l-7.51,8.07H283.3Zm9.06-10.34H281.88l-7.53,8.07H292.8C295.1,150.63,297.43,148,299.76,145.1Zm-43.6-23.52a23,23,0,0,0-.49,6.4h15.45a22.33,22.33,0,0,1,1-6.4Z"/><path class="b" d="M116.48,42.68l-1.09-.16a2.42,2.42,0,0,1-.1-.48q0-19.14,0-38.27c0-1.87.8-2.65,2.65-2.66q7.25,0,14.51,0c1.92,0,2.64.82,2.64,2.9V35h28.19V4.63c0-3,.56-3.53,3.59-3.53H180c2.36,0,3.09.72,3.09,3.07V42.48l1.2.21V80.6c0,2.64-.63,3.27-3.23,3.27H167.57c-2.39,0-3.09-.69-3.09-3.05V51.24h-28c-.31.42-.16.91-.16,1.37q0,14.1,0,28.2c0,2.38-.67,3.06-3.06,3.06h-13.8c-2.21,0-3-.73-3-3V42.68ZM181,42.49V3.11H165.22V37H133.16V3.11H117.34V42.44c.37.27.81,0,1.17.51V81.87h15.85V49.27h32.15v32.6H182.2V42.67Z"/><path class="b" d="M362.6,51H357a2.51,2.51,0,0,0-.16,1.44q0,14.16,0,28.32c0,2.45-.66,3.1-3.14,3.1H340c-2.27,0-3-.72-3-3v-38c-.3-.44-.74-.18-1.06-.39a2.15,2.15,0,0,1-.13-1.26q0-14.88,0-29.75c0-2.48,0-5,0-7.44,0-2.2.77-2.94,3-2.94,4.56,0,9.12,0,13.68,0,2.46,0,3.15.68,3.15,3.12V33.34h3.85l7.7-11.88Q373.34,12,379.44,2.53a2.94,2.94,0,0,1,2.69-1.44c5.92,0,11.84,0,17.76,0a2.46,2.46,0,0,1,2.49,1.08c.54,1,.07,1.91-.54,2.76q-12.12,16.75-24.22,33.54c-.31.42-.6.85-.92,1.32a19.15,19.15,0,0,0,1.77,2.72l1.26.12,6.77,10q9.38,13.77,18.76,27.55c.57.84,1,1.66.46,2.64a2.45,2.45,0,0,1-2.39,1.08c-6,0-11.91,0-17.87,0a3,3,0,0,1-2.74-1.56q-9.6-15-19.24-30Zm41.53,30.91L377.42,42.64l-1.29-.12c-.63-.94-1.23-1.82-1.82-2.71,8.84-12.26,17.63-24.43,26.51-36.73H381.39L360.52,35.29h-6.8V3.09H337.86V42.51l1.16.17V81.87H355V49.07h8.67l21.13,32.85Z"/><path class="b" d="M223.18,142.49l-1.18-.12a2.33,2.33,0,0,1-.15-1.32q0-17.52,0-35c0-2.76.63-3.39,3.37-3.39h13.32c2.44,0,3.12.69,3.12,3.15v36.41c.41.43.92.1,1.3.35,0,.06.11.13.11.2-.05,6.24.46,12.5-.26,18.7-1.29,10.94-7.34,18.44-17.55,22.29a42.86,42.86,0,0,1-32.84-.49c-9.77-4.15-15.22-11.75-16.26-22.35-.56-5.62-.11-11.27-.23-16.9,0-.48,0-.95,0-1.47l-1.28-.13c-.3-.38-.15-.84-.15-1.26q0-17.7,0-35.4c0-2.45.66-3.1,3.14-3.1h13.56c2.34,0,3,.67,3,3v36.75l1.27.15c.3.38.16.84.16,1.26,0,4.2,0,8.4,0,12.6a22.92,22.92,0,0,0,.53,5.35,10.52,10.52,0,0,0,7.19,7.86,19,19,0,0,0,12,0,10.44,10.44,0,0,0,7.73-10C223.39,153.92,223.18,148.28,223.18,142.49Zm.74-37.88v37.75l1.36.16c-.13,5.88.34,11.73-.26,17.54-.58,5.57-3.51,9.54-8.94,11.33a20.92,20.92,0,0,1-13.09.06,12.28,12.28,0,0,1-8.49-8.7,17.31,17.31,0,0,1-.71-4.73c-.06-4.75,0-9.51-.08-14.27,0-.42.14-.88-.16-1.27l-1.32-.13V104.61H176.48v37.77l1.32.1c0,.36,0,.67,0,1,0,4.8-.08,9.6,0,14.39.21,11.31,5.34,19.51,15.86,23.89,9.06,3.76,18.46,3.83,27.85,1.26,12.54-3.44,19.59-12.85,19.59-25.81,0-4.48,0-9,0-13.44,0-.42.14-.88-.17-1.28l-1.31-.11V104.61Z"/><path class="b" d="M263.72,42.68l-1.13-.17c-.28-8.62-.36-17.13,3.76-25C271.56,7.56,279.7,1.66,290.9.35c8-.93,15.74-.11,23,3.58C322,8.06,326.6,14.75,328.07,23.66a29.74,29.74,0,0,1,.46,5.73c0,2-.88,2.84-2.88,2.84-4.6,0-9.2,0-13.8,0-1.94,0-2.65-.72-2.73-2.66a20.48,20.48,0,0,0-.84-5.67c-1.58-4.76-5-7.36-10.2-7.68a16.55,16.55,0,0,0-5.94.36c-4.44,1.36-6.78,4.71-8.43,8.72A21.3,21.3,0,0,0,282.25,33c-.05,3.11,0,6.23,0,9.33.27.38.71.12,1,.32s.15.42.15.66c0,3-.06,5.92,0,8.88A20.31,20.31,0,0,0,287,63.37c3.08,4.42,7.36,6,12.59,5.52,2.6-.25,5.05-.84,7-2.67,2.27-2.1,3.15-4.84,3.49-7.81.12-1,.15-2.07.22-3.1a2,2,0,0,1,2.12-2.14q7.48-.06,15,0c1.39,0,2.1.86,2.15,2.37.35,11.93-5.3,22.52-17.19,27-9.59,3.58-19.41,3.79-28.9-.21-10.54-4.42-16.64-12.7-19-23.82a41.66,41.66,0,0,1-.77-8.7C263.73,47.45,263.72,45.13,263.72,42.68Zm16.53-.17c.18-4.72-.33-9.33.56-13.89a21.75,21.75,0,0,1,2.4-6.73c3.91-6.86,9.09-8.42,15.81-7.46s10,4.2,11.47,10.37a29.1,29.1,0,0,1,.6,5.41H326.5a16.45,16.45,0,0,0-.09-4.39c-.75-8.14-4.36-14.65-11.35-19C307.32,2,298.7,1.05,290,2.44,277,4.49,269.09,12.55,265.59,25c-1.58,5.66-1.12,11.5-1.11,17.29,0,.06.08.13.12.19.31.17.73-.09,1,.34,0,2.25,0,4.57,0,6.88a39.77,39.77,0,0,0,.77,8.58c2.47,11.24,8.93,19.13,19.84,23,6.35,2.27,12.95,2.23,19.53,1.06,11.45-2,19.68-9.6,21.49-20.89a25.7,25.7,0,0,0,.29-6.37H312.25a34.56,34.56,0,0,1-.51,5c-.94,4.74-3.25,8.38-8.1,9.94a18.36,18.36,0,0,1-3.88.75c-6.1.55-11.08-1.39-14.57-6.62a22.57,22.57,0,0,1-3.65-12c-.11-3.14,0-6.3,0-9.51Z"/><path class="b" d="M103.64,142.5l-1.32-.13c-.76-12,1-23,9.93-31.9a30.18,30.18,0,0,1,18.18-8.6,41.6,41.6,0,0,1,19.27,1.92c11.05,4,17.14,11.94,18.34,23.63a28.8,28.8,0,0,1,.17,3.47c-.05,2-.87,2.86-2.87,2.86-4.6,0-9.2,0-13.8,0-1.94,0-2.66-.71-2.74-2.66a20.53,20.53,0,0,0-.84-5.67c-1.57-4.75-5-7.36-10.19-7.68-2.39-.15-4.8-.29-7.09.73-3.72,1.66-5.83,4.73-7.29,8.35a21.73,21.73,0,0,0-1.46,7.73c-.05,2.59,0,5.18,0,7.81l1.25.12a2.31,2.31,0,0,1,.15,1.31c.11,4.08-.22,8.16.26,12.23a19.15,19.15,0,0,0,3.81,9.57c3,3.94,7.17,5.25,12,4.83,2.64-.23,5.13-.82,7.14-2.69A11.92,11.92,0,0,0,150,160c.13-1,.16-2.07.22-3.11a2.06,2.06,0,0,1,2.16-2.23q7.5-.06,15,0c1.34,0,2,.84,2.1,2.28.35,10.9-4.24,21.41-15.58,26.36a37.75,37.75,0,0,1-30.77.36c-10.43-4.44-16.42-12.73-18.71-23.77a42.74,42.74,0,0,1-.76-8.82C103.65,148.27,103.64,145.44,103.64,142.5Zm62.54-10.73a15.8,15.8,0,0,0-.05-4c-.95-10.89-6.59-18.24-16.76-22.12-4.89-1.87-10-2.23-15.2-2.19a29.64,29.64,0,0,0-27.35,18.29c-2.77,6.56-2.83,13.45-2.66,20.38,0,.07.08.13.14.21l1.26.12c0,2.87,0,5.7,0,8.53a40.1,40.1,0,0,0,.77,8.82c2.47,11.24,8.94,19.12,19.85,23,6.35,2.27,12.95,2.23,19.53,1.06,11.64-2.05,19.7-9.82,21.46-20.78a27.64,27.64,0,0,0,.32-6.48H152.16a34.35,34.35,0,0,1-.48,4.84c-.69,3.53-2.08,6.64-5.21,8.69-4.77,3.12-12.91,3-17.5-.44s-6.53-8.14-7.28-13.55c-.57-4.14-.18-8.31-.29-12.46,0-.42.14-.88-.17-1.28l-1.27-.11c.07-4.6-.34-9.16.83-13.63a21.31,21.31,0,0,1,2.16-5.44c3.92-6.75,9-8.3,15.76-7.34s10,4.22,11.46,10.38a28.31,28.31,0,0,1,.59,5.44Z"/><path class="b" d="M201.67,42.7l-1.08-.22c1.27-3.71,2.53-7.36,3.79-11l9.48-27.63c.85-2.46,1.21-2.73,3.78-2.73h13.68c2.07,0,2.55.34,3.22,2.3q6.56,19.08,13.1,38.17c.1.3.2.6.32.94l1.23.16q2.13,6.16,4.24,12.33Q257.7,67.47,262,79.92c.16.45.3.91.42,1.37a1.83,1.83,0,0,1-1.34,2.4,4.66,4.66,0,0,1-1.29.17h-14.4c-1.77,0-2.23-.34-2.77-2L238.1,67.7a1.37,1.37,0,0,0-.42-.79H213l-4.66,14.72c-.59,1.85-1.09,2.24-3,2.24H191.2c-2.48,0-3.28-1.12-2.49-3.43q6.38-18.51,12.74-37C201.51,43.23,201.57,43,201.67,42.7Zm2.06-.05c-4.51,13.1-9,26.14-13.49,39.22h16Q209,73.34,211.63,65h27.6c1.8,5.66,3.59,11.31,5.36,16.91h16L247.19,42.65l-1.25-.14L232.44,3.1H216.13c-4.52,13.16-9,26.27-13.55,39.42Z"/><path class="b" d="M330.81,184.19h-7.07c-2,0-2.77-.78-2.77-2.76q0-6.06,0-12.12c0-2.07.77-2.84,2.82-2.85q7.08,0,14.15,0c2,0,2.76.79,2.77,2.79q0,6.1,0,12.23c0,1.92-.8,2.69-2.7,2.71Zm7.85-8.09H323.05v6.09h15.61ZM323,173.77h15.61v-5.29H323Z"/><path class="b" d="M231,42.51l1.23.14,3.09,9.81H215.57l3.07-9.79-1.14-.17c2.22-7,4.41-14,6.61-20.91l.28,0Zm-2,0-4.76-15.11c-1.62,5.15-3.17,10-4.69,14.87.27.47.78.1,1,.56-.78,2.49-1.58,5-2.4,7.66H232.7c-.85-2.72-1.66-5.31-2.47-7.88Z"/></svg>