<?xml version="1.0" encoding="utf-8"?>
<!-- Generator: Adobe Illustrator 22.0.1, SVG Export Plug-In . SVG Version: 6.00 Build 0)  -->
<svg version="1.1" id="Layer_1" xmlns="http://www.w3.org/2000/svg" xmlns:xlink="http://www.w3.org/1999/xlink" x="0px" y="0px"
	 viewBox="0 0 1572.8 1338.9" style="enable-background:new 0 0 1572.8 1338.9;" xml:space="preserve">
<style type="text/css">
	.st0{fill:#FFFFFF;}
</style>
<g>
	<path class="st0" d="M1567.8,672.3c-3.1-10-6.1-20.1-9.2-30.1c-2.7-9.1-5.1-18.3-8.4-27.1c0-0.3-0.1-0.7-0.4-1
		c-0.7-5.5-3.8-10.4-4.9-15.7c-2.8-13.3-6.8-26.3-10.8-39.3c-0.2-1.3-0.4-2.6-0.6-3.8c0,0,0,0,0,0c0,0,0,0,0,0
		c0.2-0.5,0-0.9-0.6-1.1c-4.1-16.6-8.3-33.3-12.4-49.9c0,0,0,0,0,0c-2.3-10-4.5-20.1-6.8-30.1l0,0c-1.3-7.4-2.5-14.9-4.1-22.2
		c-1.7-8.2-2.6-16.6-5-24.6l0,0c-1.6-15.4-4.5-30.7-7.1-46c-0.7-6-1.4-12-2.1-18c0,0,0,0,0,0c0.5-7.2-3.7-11.7-8.6-16.2
		c-8.2-7.5-16.1-15.4-24-23.2c-14.1-13.9-28.1-27.8-42.1-41.7l0,0c-0.4-0.4-0.7-0.8-1.1-1.2c0,0,0,0,0,0c0,0,0,0,0,0
		c-5.9-6-11.9-12-17.8-18c0,0,0,0,0,0c-5.1-5.8-10.4-11.6-16.1-16.8c-4.8-5.5-9.6-11.1-15-16l0,0c0,0,0,0,0,0c0,0,0,0,0,0
		c0,0,0,0,0,0c-5.2-5.9-10.1-11.9-16-17.2c0,0,0,0,0,0c-0.4-0.6-0.9-1.1-1.3-1.7c-2.5-3.4-5.3-6.5-8.6-9.2c0,0,0,0,0,0
		c-1.5-2.8-3.7-5-6.1-6.9c0,0,0,0,0,0c-0.3-0.3-0.6-0.7-0.9-1c-11.8-13.6-23.6-27.3-35.6-40.8c-5.9-6.6-11.1-13.9-17.8-19.8
		c0,0,0,0,0,0c0,0,0,0,0,0c-13-16.6-26.7-32.5-40.5-48.5c0,0,0,0,0,0c-1.9-3.6-4.5-6-8.6-6.7c-8.8-1.6-17.5-3.5-26.3-5
		c-35.7-6-71.3-13.1-106.8-20.5c-44.9-9.4-89.3-20.8-133.4-33.7c-19.2-5.6-38.4-11.3-57.3-18c-2-1.4-4-1.4-5.9,0h0
		c-10.3,2.8-20.8,4.6-30.9,8.1c-8.7,1.8-17.3,3.5-26,5.4c-16,3.5-31.9,7.1-47.8,10.6c-8.5,1.9-17,3.7-25.5,5.5c-0.2,0-0.4,0-0.5,0
		c-0.4,0.1-0.9,0.2-1.3,0.4c-4.5-0.5-8.7,1.4-13.1,2.1c-9.3,1.5-18.7,2.8-28,4.6c-12.1,2.4-24.3,4.3-36.6,5.5
		c-1.8,0.1-3.7-0.7-5.2,0.8c0,0,0,0,0,0c-3.3,0.7-6.5,1.5-10,1.2c-1.7,0.2-3.6-0.6-5,0.8l0,0c-1.2,0.1-2.5,0.2-3.7,0.2
		c-1.8,0.1-3.7-0.7-5.3,0.7c0,0,0,0,0,0c-1,0.1-2,0.1-3,0.2c0,0,0,0,0,0c0,0,0,0,0,0c-1.7,0.2-3.5-0.6-5,0.8h0l0,0
		c-1.3,0.1-2.5,0.2-3.8,0.2c-1.8,0.1-3.7-0.7-5.2,0.8l0,0c-1.3,0.1-2.6,0.1-3.9,0.2c-2.1,0.2-4.3-0.8-6.1,0.8l0,0
		c-1.2,0.1-2.5,0.1-3.7,0.2c-2.1,0.2-4.3-0.8-6.3,0.8c-1.2,0.1-2.4,0.2-3.6,0.2c-2.1,0.1-4.4-0.8-6.4,0.7h0
		c-1.2,0.1-2.4,0.2-3.7,0.3c-2.1,0.1-4.4-0.8-6.3,0.7l0,0c-1.6,0.1-3.1,0.2-4.7,0.3c-2.1,0.1-4.4-0.8-6.3,0.7h0
		c-1.6,0.1-3.1,0.2-4.7,0.2c-2.5,0.2-5-0.9-7.3,0.8l0,0c-1.6,0.1-3.1,0.2-4.7,0.2c-2.8,0.2-5.7-1-8.3,0.8c-1.6,0.1-3.2,0.1-4.8,0.2
		c-3.7,0.3-7.6-1.1-11.2,0.8h0c-2,0.1-4,0.4-5.9,0.2c-4.9-0.6-8.3,1.3-11.5,4.9c-6.7,7.5-13.7,14.7-20.6,22c0,0,0,0,0,0l0,0
		c-18.3,17.9-36.7,35.8-55,53.8c-0.8,0.8-1.6,1.7-2.5,2.4c-6.7,5.1-12.3,11.2-18.5,16.9c0,0,0,0,0,0c0,0,0,0,0,0
		c-0.3,0.3-0.7,0.6-1,1c0,0,0,0,0,0v0c-7.8,5.8-14.8,12.6-22,19l0,0c0,0,0,0,0,0c-11.6,9.8-23.3,19.6-34.9,29.4c0,0,0,0,0,0
		c0,0,0,0,0,0c-4.4,3.5-8.7,7-13.1,10.5c-4.7,3.8-9.3,7.5-14,11.3c-2.4,0.4-2.9,3.2-5,4c0,0,0,0,0,0c-0.6-0.2-0.9,0.1-1,0.7
		c-1.5,1.6-4,1.9-5,4.1c0,0,0,0,0,0c0,0,0,0,0,0c-5.9,4.5-11.9,9-17.7,13.6c-8.1,6.4-16.2,12.9-24.3,19.4
		c-6.4,4.3-13.3,7.9-13.3,17.4c0,2.4,0.4,5.2-0.8,7.7c-1.6,1.8-0.6,4-0.8,6c0,0,0,0,0,0c0,0,0,0,0,0c-0.1,1-0.1,2-0.2,3
		c-1.5,1.6-0.7,3.5-0.7,5.3c0,0,0,0,0,0c0,0,0,0,0,0c-0.1,1.2-0.2,2.5-0.3,3.7c-1.5,1.6-0.7,3.5-0.7,5.3c0,0,0,0,0,0c0,0,0,0,0,0
		c-0.1,1.2-0.2,2.4-0.2,3.7v0c-1.6,1.8-0.6,4-0.8,6.1c0.1-0.2,0.2-0.5,0.4-0.7c-0.1,0.3-0.2,0.5-0.4,0.7c-0.1,1-0.1,1.9-0.2,2.9
		c-1.5,1.6-0.7,3.5-0.8,5.3c0,0,0,0,0,0c0,0,0,0,0,0c-0.1,1.2-0.2,2.5-0.3,3.7c-1.4,1.6-0.6,3.5-0.7,5.2c0,0,0,0,0,0c0,0,0,0,0,0
		c-0.1,1.3-0.2,2.5-0.3,3.8c-1.4,1.5-0.6,3.4-0.8,5.2c0,0,0,0,0,0c0,0,0,0,0,0c-0.1,0.9-0.1,1.9-0.2,2.8c-1.6,1.8-0.6,4-0.8,6
		c0,0,0,0,0,0c0,0,0,0,0,0c-0.1,1-0.1,2-0.2,3c-1.5,1.6-0.7,3.5-0.8,5.2c0,0,0,0,0,0c0,0,0,0,0,0c-0.1,1.3-0.2,2.5-0.3,3.8
		c-1.4,1.5-0.6,3.4-0.8,5.1c0,0,0,0,0,0c0,0,0,0,0,0c-0.1,1-0.1,1.9-0.2,2.9c-1.5,1.6-0.7,3.4-0.8,5.2c0,0,0,0,0,0c0,0,0,0,0,0
		c-0.1,0.9-0.1,1.9-0.2,2.8c-1.5,1.6-0.7,3.5-0.8,5.2c0,0,0,0,0,0c0,0,0,0,0,0c-0.7,6.3-1.5,12.5-2.2,18.8c-1.5,1.5-0.7,3.4-0.8,5.1
		c0,0,0,0,0,0c0,0,0,0,0,0c-0.4,3.3-0.8,6.6-1.2,9.9c-1.5,1.5-0.7,3.4-0.8,5.1c0,0,0,0,0,0c0,0,0,0,0,0c-0.3,1.1-0.9,2.1-1,3.2
		c-1,13.1-4.1,25.9-6.9,38.8c0,0,0,0,0,0c0,0,0,0,0,0c-0.4,0.9-0.8,1.8-1,2.7c-5,23.1-13.2,45.1-23.9,66.2c0,0,0,0,0,0l0,0
		c-6.7,12-6.7,12,5.1,18.9c0.5,0.3,1.1,0.6,1.7,0.9c0,0,0,0,0,0c0,0,0,0,0,0c0.3,0.1,0.5,0.2,0.8,0.2c0,0,0,0,0,0c0,0,0,0,0,0
		c2.9,3.1,6.6,4.9,10.1,6.9c18.7,12,37.3,24,56,36.1c1.6,1.1,3.1,2.2,4.8,3.1c6.6,3.6,12.1,9,19.2,11.7c0,0,0,0,0,0c0,0,0,0,0,0
		c0.3,0.4,0.7,0.8,1,1.2l0,0h0c0,0,0,0,0,0l0,0c5.7,3.7,11.3,7.3,17,11c7.5,5.2,15.1,10.3,23.1,14.8c0,0,0,0,0,0c0,0,0,0,0,0
		c7.2,5,14.4,10.2,22.2,14.2c0,0,0,0,0,0c0,0,0,0,0,0c1.9,1.8,3.9,3.6,6.7,4.2c0.3,0.4,0.5,0.9,0.9,1.2
		c13.4,8.6,26.8,17.2,40.2,25.8v0c0,0,0,0,0,0c4.2,2.6,8.7,4.9,12.5,8c3.2,2.7,6,2.4,9.4,1.4c16.6-5.2,33.2-10.3,49.8-15.5
		c31.1-9.6,62.2-19.2,93.3-28.8c27.8-8.5,55.7-17,83.6-25.2c6-1.8,10.1-4.3,9.5-11.4c-0.2-2.2,0.8-4.5,1.3-6.7
		c6.7-29,20.8-53.9,40.6-75.9c3.3-3.3,6.7-6.7,10-10l0,0c0.3-0.3,0.7-0.6,1-1c13.7-11.2,28-21.3,43.8-29.3
		c11.1-5.6,22.8-9.9,34.2-14.7c0,0,0,0,0,0c0,0,0,0,0,0c15.2-4.4,30.3-9,46-11.6c13.6-2.3,27.1-4.8,40.8-6.4
		c1.7-0.2,3.6,0.6,5.1-0.8h0c1.2-0.1,2.5-0.2,3.7-0.2c2.1-0.1,4.4,0.8,6.3-0.8l0,0c1.3-0.1,2.6-0.1,3.8-0.2c2.4-0.2,4.9,0.9,7.1-0.8
		l0,0c1,0,2,0,3-0.1c3-0.4,5.9-1,8.9-1c17.5,0,34.9-0.7,52.4,0.7c22.6,1.8,44.6,5.6,66.4,12c18.6,5.4,36,13.4,53.1,22.3
		c1.4,0.9,2.8,1.8,4.1,2.7c0,0,0,0,0,0c2.7,1.7,5.4,3.4,8.1,5c3.6,2.5,7.2,5,10.9,7.5c0,0,0,0,0,0v0c20.5,15.7,38.3,34.2,54,54.7
		c0,0,0,0,0,0c0,0,0,0,0,0c0.7,1.6,1.6,3.1,3,4.1c4,6.3,8,12.4,11.8,18.8c12.4,20.6,21.9,42.6,30.4,65c0.3,0.7,0.6,1.4,0.9,2.1l0,0
		c2.4,7.6,4.8,15.3,7.1,22.9c1.9,9.3,3.9,18.7,5.8,28c0.1,2.5,0.2,5,0.5,7.4c1.7,17.1,1.2,34.1-1.1,51.1c-1.7,12.4-5,24.5-8.2,36.5
		c-3.3,8.7-6.6,17.4-9.9,26.1v0l0,0c-0.7,1.6-1.4,3.2-2.1,4.8c-0.2,0-0.3,0-0.5,0c-0.8,0.5-1.2,1.3-1.3,2.3c0,0.5,0,1,0,1.5
		c-1.7,3.3-3.3,6.5-5,9.8c-0.6,0.7-1.3,1.4-1.9,2.1c-0.9,0.6-1.2,1.4-1.2,2.4c0.1,0.3,0.1,0.5,0.2,0.8c-6.5,10-13.1,20-19.6,30.1
		c-1.5,1.9-2.9,3.8-4.4,5.7c-0.4,0.3-0.7,0.5-1,0.9c-0.6,0.4-1,1-1.1,1.7c0,0.1,0,0.1,0,0.2c-6.6,7.4-13.1,14.7-19.7,22.1
		c-0.3,0-0.6,0-0.9,0.1c-1.2,0.4-2,1.1-2.2,2.5c0,0.2,0.1,0.3,0.1,0.5c-4.9,4.6-9.8,9.2-14.7,13.7c-4.1,3.5-8.2,7-12.3,10.5
		c-0.3,0-0.6,0-0.9,0c-1.3,0.2-2.1,1-2.5,2.2c-0.1,0.3-0.1,0.5-0.2,0.8c-5.9,4.2-11.9,8.5-17.8,12.7c-0.5,0.1-1,0.2-1.6,0.2
		c-3.4,1.5-7,2.9-9,6.4c0,0.1,0,0.2,0,0.3c-8.8,4.8-17.6,9.6-26.4,14.4c-0.4,0-0.9,0-1.4-0.1c-1.4,0.2-2.7,0.6-3.3,2.1
		c0,0.2-0.1,0.3-0.1,0.5c-2.5,1-5,2.1-7.5,3.1c0,0,0,0,0,0c-5.5,2.1-10.9,4.3-16.4,6.4c-0.6,0-1.3-0.1-1.9-0.2
		c-5.2,1.2-10.4,2.3-14.9,5.5c0,0.1,0,0.2,0,0.3c-21.2,5.4-42.5,9.2-64.6,8.9c-16.4-0.2-32.3-2.7-48.2-6.4l0,0c0,0,0,0,0,0
		c0,0,0,0,0,0c0,0,0,0,0,0c-15-5-29.6-10.6-43-19.2c0,0,0,0,0,0c-1.9-1.2-3.7-2.4-5.6-3.6c-14.6-10.5-27.5-22.8-38.8-36.8
		c-1.9-2.4-3.7-4.8-5.6-7.1c-3.3-5-6.7-10-10-15c0,0,0,0,0,0c0,0,0,0,0,0c-0.4-0.6-0.8-1.3-1.2-1.9c-5.6-9.9-11.5-19.7-16.3-30
		c-0.2-0.4-0.5-0.7-0.7-1.1l0,0c-3.5-8.7-7-17.4-10.5-26.1c-3-9.2-5.6-18.4-7.7-27.8v0c-0.3-0.7-0.5-1.4-0.8-2.1l0,0
		c-0.2-3.8-0.6-7.5-1.9-11.1c-0.1-1.3-0.2-2.6-0.3-4h0v0c0.2-0.7,0.3-1.5-0.4-2.1c-1.5-14.5-1.6-29-1.2-43.6l0,0
		c1.5-10.1,3.1-20.2,4.6-30.3c0.7-2.7,1.4-5.5,2-8.2c3-13.7,8.4-26.6,13.5-39.6c0.8-0.4,0.8-1.2,0.8-1.9v0l0,0c2-4.1,4-8.1,5.9-12.2
		l0,0c0.9-0.5,0.9-1.3,1.1-2.2c0,0,0,0,0,0c0,0,0,0,0,0c4-6.8,7.8-13.7,11.9-20.5c8.3-13.7,18.2-26.4,28-39.1
		c7.1-7,13.2-15.1,20.8-21.7c8.4-9.2,17.7-17.5,27-25.7c0,0,0,0,0,0c0,0,0,0,0,0c1.3-1.2,1.8-2.2,1.3-4.2c-2.3-10-4.3-20-6.4-30
		c-0.3-1.2-0.9-3-1.7-3.2c-1.6-0.4-2.3,1.4-3.1,2.5c-20.5,24.2-43.2,46.3-67,67.2c-6.1,3.7-11.4,8.4-17,12.8
		c-0.2,0.1-0.3,0.1-0.5,0.2c-20,13.6-40.7,26.1-63,35.6c-8.7,3.7-17.5,7-27.2,7.4c-2.4,0.2-5-0.9-7.3,0.7c-3.4,0-6.7,0-10.1,0
		c-2-1.3-4-1.3-5.9,0h0c-4.3,0.3-4.5,4.3-5.7,6.9c-4.3,9.3-8.1,18.8-12.1,28.3c-1.9,2.2-2,5.1-3.2,7.6c-9.1,18.7-16.9,38-26.8,56.3
		c0,0,0,0,0,0c-6,13.5-13.6,26.1-20.7,39.1c-4.5,8.2-9.6,16.1-14.5,24.1v0c0,0,0,0,0,0c-3.7,5.3-7.4,10.7-11,16c0,0,0,0,0,0
		c0,0,0,0,0,0c-1.9,3-4.7,5.5-5.9,9c-4.1,4.1-7,9.1-10.1,13.9l0,0l0,0c-2.6,1.8-3.7,4.8-5.4,7.2c-4.8,7-10.9,13.1-14.7,20.8
		c-4.3,4.1-7.8,8.9-10.9,14.1c0,0,0,0,0,0c-1.1,0.3-1.7,1-1.9,2.1v0l0,0c-2.3,3-4.6,5.9-6.9,8.9c-3,3.7-6,7.4-9,11
		c-1.5,2-3.9,3.7-2.8,6.8c2.7,7.6,4.2,15.5,6.1,23.2c3,11.9,6.3,23.7,8.6,35.8c2,10.1,4.4,20.1,6.7,30.1c0.2,1.3,0.3,2.6,0.5,3.9
		c-0.4,0.7,0,0.9,0.5,1.1c2.7,18,5.4,35.9,8.1,53.9c0.2,1.7-0.6,3.6,0.8,5.1c0.4,3.9,0.8,7.9,1.2,11.8c0.1,1.7-0.7,3.6,0.8,5.2
		c0.1,1.3,0.2,2.6,0.2,3.8c0.1,1.7-0.7,3.6,0.8,5.2c0.1,0.7,0.3,1.3,0.4,2c0,0.9-0.1,1.7-0.1,2.6c0,0,0,0,0,0c0,0,0,0,0,0
		c0.1,1.8-0.7,3.8,0.7,5.4c0.1,1.6,0.2,3.2,0.2,4.8c0,0,0,0,0,0c0,0,0,0,0,0c0.1,1.7-0.6,3.6,0.7,5.2c0.1,1.9,0.2,3.8,0.3,5.7
		c0.2,2.4-0.9,5,0.7,7.3c0.1,1.6,0.2,3.2,0.3,4.8c0.2,2.4-0.9,5,0.7,7.2c0,0,0,0,0,0c0,0,0,0,0,0c0.1,1.9,0.2,3.8,0.3,5.8
		c0.2,2.7-0.9,5.6,0.7,8.2c-0.4,5.2,0.6,9.5,6.5,11c0.6,0.1,1.1,0.6,1.7,0.9l0,0v0c5,2.4,10,4.8,15,7.2l0,0c0,0,0,0,0,0
		c1.9,1.9,4.6,2.2,7,3c7.8,4.7,15.8,8.9,24.1,12.6c0,0,0,0,0,0c0,0,0,0,0,0c2.1,1.6,4.4,2.8,6.9,3.4c0,0,0,0,0,0
		c2.4,1.8,5,3.3,7.9,4.1c6.1,4.1,12.4,7.6,19.1,10.6l0,0v0c7.3,4.1,14.6,8.3,21.9,12.4c0,0,0,0,0,0c0,0,0,0,0,0
		c2.7,1.5,5.4,3.1,8.1,4.6c9,5.5,18,10.9,26.9,16.4v0l0,0c8.3,5.3,16.6,10.7,25,16c11.4,7.5,22.7,15.1,34.1,22.6c2,1.4,4,2.9,6,4.3
		l0,0v0c1,0.7,2,1.3,3,2l0,0c4,2.6,7.4,6.3,12,8c0.5,2.1,2.7,2.4,4,3.3c5.5,3.4,9.9,8.4,16,10.7c0,0,0,0,0,0c2,2.9,4.7,4.8,8,6
		c2.5,3,5.9,4.8,9,7.1c0,0,0,0,0,0c0,0,0,0,0,0c2.3,0.9,3.2,3.9,6,4c1.1,2.7,2.9,1.7,4.9,1.1c12.7-3.5,25.4-6.9,38.2-10.2
		c25.6-6.5,51.3-12.8,76.9-19.2c12-2.7,24-5.3,36-8c1.2,0.2,2.1-0.2,3-0.9c0.7,0,1.4,0.1,2,0c21.4-4.6,42.8-8.7,64.3-12.5
		c24.4-4.3,49-8.1,73.5-11.6c8.1-1.1,16.4-1.6,24.3-3.7c0,0-0.1,0.1-0.1,0.1c10.3-1.2,20.6-2.4,30.9-3.5c0,0,0,0,0,0
		c1.2,0.2,2.2,0,3.1-0.8c4.7,0.5,9.2-0.6,13.8-1.2c8.5-1.1,17.3-0.9,25.6-3.7c0,0,0,0,0,0c0,0,0,0,0,0c3.3-1.9,5.2-5.2,7.4-8.2
		c0-0.9,0.3-1.6,0.7-2.3c-0.2,0.8-0.4,1.5-0.7,2.3c6-7.4,12.1-14.8,18.1-22.3c0,0,0,0,0,0c3.1-2.8,5.9-5.9,8.1-9.5
		c5.6-5.8,10.7-11.9,15.6-18.2c0.5-0.6,1-1.2,1.5-1.8c6.4-6.3,12-13.3,17.8-20.1c1-0.6,1.8-1.4,2.2-2.5c6.6-7.2,13.1-14.4,19.7-21.5
		c2.4-2.6,4.8-5.3,7.3-7.9l0,0c0,0,0,0,0,0l0,0c0,0,0,0,0,0c3.7-3.1,7-6.5,9.9-10.3h0c0,0,0,0,0,0c2.6-1.6,4.4-3.9,6.2-6.2
		c3.4-3.5,6.8-6.9,10.2-10.4c0,0,0,0,0,0c0.3-0.3,0.7-0.6,1-1c1.5-1.5,3-3,4.5-4.5c4-3.2,7.9-6.6,11.2-10.6c4.1-3.5,8.4-6.9,11.9-11
		c0,0,0,0,0,0c0,0,0,0,0,0c8.3-7.3,16.7-14.6,25-21.9c6.4-4.6,12.5-9.6,18.2-15c3.2-2,6.2-4.3,8.8-7c2.6-1.3,4.7-3.3,6.8-5.2
		c0,0,0,0,0,0c1.7-1.3,3.3-2.6,5-3.9c4.7-3.5,9.3-6.9,14-10.4c1.3-0.9,1.2-2.2,0.9-3.6c2.5-11.3,4.9-22.5,6.2-34
		c2.1-5.7,2.7-11.8,3.9-17.7c2.4-12.3,4.7-24.7,7.1-37.1c0,0,0,0,0,0c1.9-5.6,2.8-11.4,3.8-17.1c1.7-7.7,3.3-15.4,5-23c0,0,0,0,0,0
		c0,0,0,0,0,0c0.3-1.3,0.6-2.7,1-4c-0.3-0.6-0.4-1.3-0.3-1.9c0,0,0,0,0,0c0.1,0.6,0.2,1.3,0.3,2c3.8-16.6,7.6-33.3,11.4-49.9
		c0.2-0.4,0.4-0.7,0.6-1.1c0-0.5,0.1-0.9,0.1-1.4c0,0.5,0,0.9-0.1,1.4c1.9-7.6,3.8-15.3,5.8-22.9c4.5-16.7,9.1-33.3,13.6-49.9
		c2.2-7,4.4-14.1,6.5-21.1c4.1-12.9,8.2-25.9,12.3-38.8c0.1,0,0.2-0.1,0.2-0.4c0-0.1,0-0.2,0-0.3c1.6-4.7,2.8-9.7,5.1-14.1
		C1575.4,689.1,1571.7,680.7,1567.8,672.3z M287.9,343.2C287.9,343.2,287.9,343.2,287.9,343.2C287.9,343.2,287.9,343.2,287.9,343.2
		C287.9,343.2,287.9,343.2,287.9,343.2z M292.9,315.4c-0.4,0.1-0.7,0.2-1,0.3c0.1-0.2,0.2-0.5,0.3-0.7
		C292.5,315.1,292.8,315.2,292.9,315.4z M287.8,336c0,0,0,0.1,0,0.1c0,0-0.1,0-0.1,0C287.7,336,287.7,336,287.8,336z M270.9,475.2
		C270.8,475.1,270.8,475.1,270.9,475.2C270.8,475.1,270.8,475.1,270.9,475.2C270.8,475.1,270.8,475.1,270.9,475.2z M1055.9,44.1
		c0,0-0.1,0-0.1,0C1055.8,44.1,1055.8,44.1,1055.9,44.1C1055.8,44.1,1055.8,44.1,1055.9,44.1z M1108.9,57.1c-0.1,0-0.2-0.1-0.3-0.1
		c0,0,0.1-0.1,0.1-0.1C1108.7,57,1108.8,57.1,1108.9,57.1z M869.2,15.7c0-0.2,0.1-0.4,0.1-0.6c0.2,0,0.4,0,0.6,0
		C869.6,15.4,869.4,15.6,869.2,15.7z M666.9,49.1L666.9,49.1C666.9,49.1,666.9,49.1,666.9,49.1C666.9,49.1,666.9,49.1,666.9,49.1z
		 M666.9,49.1c-0.1,0.1-0.1,0.2-0.1,0.4c0-0.1,0-0.2-0.1-0.3C666.7,49.2,666.8,49.2,666.9,49.1z M1054.9,47.2
		C1054.9,47.2,1054.9,47.2,1054.9,47.2c0-0.1,0.1-0.1,0.1-0.1C1055,47.1,1054.9,47.1,1054.9,47.2z M1060.9,295.2
		C1060.9,295.2,1060.9,295.1,1060.9,295.2C1060.9,295.1,1060.9,295.2,1060.9,295.2C1060.9,295.2,1060.9,295.2,1060.9,295.2z
		 M1412.1,646.2c-0.6,0.1-1.2,0.2-1.9,0.3C1410.8,646.4,1411.4,646.3,1412.1,646.2z M1058.9,45.2
		C1058.8,45.2,1058.8,45.2,1058.9,45.2C1058.9,45.2,1058.9,45.2,1058.9,45.2C1058.9,45.2,1058.9,45.2,1058.9,45.2z M521.9,523.1
		c0.1-0.1,0.2-0.1,0.3-0.2c0,0.1,0,0.1,0,0.2C522.1,523.1,522,523.2,521.9,523.1z M1422.8,725.6c0.3-0.5,1.5-0.4,2.6-0.4
		c-1.2,0.6-2.4,1.2-3.6,1.9C1422.1,726.6,1422.5,726.1,1422.8,725.6z M1436,717.4c-0.2,0.2-0.4,0.3-0.6,0.5
		C1435.5,717.6,1435.7,717.5,1436,717.4z M663.7,47.6c0,0.1,0,0.2,0,0.3c-0.1,0-0.1,0-0.2,0C663.6,47.8,663.6,47.7,663.7,47.6z
		 M672.1,749.6c0.1,0.1,0.1,0.2,0.2,0.2c-0.1,0.1-0.3,0.1-0.4,0.2C672,749.9,672,749.7,672.1,749.6z M575.9,1015.1
		c0.1,0,0.2,0,0.3,0c-0.1,0-0.2,0.1-0.3,0.1C575.9,1015.2,575.9,1015.2,575.9,1015.1z M567.1,975.9c0.1,0,0.2-0.1,0.2-0.1
		c-0.1,0.3-0.1,0.5-0.2,0.8C567.2,976.3,567.2,976.1,567.1,975.9z M681.9,1217.3C682,1217.3,682,1217.3,681.9,1217.3
		c0.1,0,0.1,0,0.1,0C682,1217.3,682,1217.3,681.9,1217.3z M1530.3,826.7c0-0.2,0.1-0.4,0.1-0.6c-0.1,0.3-0.1,0.6-0.2,0.9
		C1530.2,826.9,1530.3,826.8,1530.3,826.7z"/>
	<path class="st0" d="M556,1103.2c-0.1-1.7-0.3-3.3-0.4-5c0,0,0,0,0,0c0-1.2,0.1-2.4,0.1-3.5c-0.2-2.5,0.9-5.1-0.7-7.5
		c-0.1-1.9-0.2-3.7-0.3-5.6c0,0,0,0,0,0c0,0,0,0,0,0c-0.1-1.8,0.7-3.7-0.7-5.4c-1.5-10-3-20-4.4-30c0.2-0.6-0.2-0.9-0.7-1.1
		c0-1.3,0.1-2.7-0.2-4c-2.3-10.7-4.8-21.3-7.2-32c-1.3-4.3-1.6-8.9-3.7-13.1c0-1.3-0.2-2.5-0.6-3.8c-3-10.3-5.8-20.7-8.6-31.1v0
		c-1.6-3.6-1.5-7.7-3.7-11.1c-0.2-0.3-0.4-0.7-0.6-1.1c0.2,0.4,0.4,0.7,0.6,1.1c-0.2-0.9-0.2-1.9-0.5-2.8
		c-2.8-9.7-5.7-19.4-8.5-29.1c0.1,0,0.2-0.1,0.3-0.3c2.2-2.4,4.2-4.8,5.8-7.6c0,0,0,0,0,0c0,0,0,0,0,0c4-4.3,7.8-8.8,10.9-13.9
		c0,0,0,0,0,0c0,0,0,0,0,0c7-7.6,12.7-16,19-24.1c0,0,0,0,0,0c0,0,0,0,0,0c0.7-1,1.3-1.9,2-2.9c0,0,0,0,0,0c5.3-7,10.7-14,16-21.1
		l0,0c0,0,0,0,0,0c6.9-9.1,14-18.2,20-27.9c5.6-7,10.6-14.3,15.1-22.1l0,0c0.6-1,1.3-2,1.9-3c1.4-1.5,2.4-3.1,3.1-5c0,0,0,0,0,0
		c2.6-4.7,5.2-9.3,7.9-14c10-17.6,18.3-36,25.9-54.7c5.3-13,10.1-26.2,15.2-39.4c0.8-0.7,1.2-1.6,0.4-2.4c-0.8-0.9-1.7-0.5-2.4,0.3
		c-31.1,10-62.2,19.9-93.4,29.9c-32.8,10.5-65.6,21-98.3,31.6c-2.5,0.8-4.2,0.9-6.4-0.6c-29.2-18.8-58.5-37.5-87.9-56.1
		c-12.6-8-24.9-16.6-38-23.8c0,0,0,0,0,0c0,0,0,0,0,0c-8-5.9-16.3-11.4-25.1-16c0,0,0,0,0,0c-0.3-1-1.3-0.8-2-1c0,0,0,0,0,0
		c0,0,0,0,0,0c-0.8-0.8-1.5-1.8-2.4-2.4c-22.9-14.7-45.8-29.3-68.7-44c-4.7-3-5.6-2.7-7.7,2.7c-4.4,11.3-8.7,22.7-13.1,34
		c-3.4,8.9-7.8,17.4-10.1,26.8c0,0,0,0,0,0c0,0,0,0,0,0c-1.1,1-1.5,2.3-2,3.7c-4.8,12.4-9.8,24.8-14.8,37.2
		c-4.3,11-8.6,22.1-12.9,33.1c0,0,0,0,0,0c0,0,0,0,0,0c-1.4,3.6-2.7,7.2-4.1,10.8c-0.6,1.7-1.3,3.4-1.9,5
		c-5.8,14.6-11.5,29.3-17.3,43.9c-4.7,12-9.5,23.9-14.2,36c-2.7,7-5.9,13.8-7.8,21.2v0c-0.6,0.8-1.3,1.5-1.7,2.3
		c-7.7,19.9-15.4,39.8-23.1,59.7c0,0,0,0,0,0c0,0,0,0,0,0c-3.7,9.3-7.3,18.6-11,28c-0.4,1.3-0.8,2.6-1.2,3.9c0,0,0,0,0,0
		c-1.4,3.3-3,6.6-4.2,10c-2.5,7.1-6,13.7-7.7,21.1c0,0,0,0,0,0c-2.5,3.3-3.2,7.4-4.8,11c-2.7,7-5.4,14-8.1,21.1
		c-2.4,6.3-5.4,12.3-7,18.9l0,0c0,0,0,0,0,0c-0.6,1-1.2,2-1.8,3c-6,15.4-12,30.7-18,46.1c0,0,0,0,0,0c0,0,0,0,0,0
		c-6,15.3-12,30.6-18.1,46c-4.3,11-8.6,22-13,33.1c0,0,0,0,0,0c0,0,0,0,0,0c-0.4,1.3-0.8,2.6-1.2,3.9c-2.5,6-4.9,12-7.5,18
		c-0.5,1.1-0.4,2.1,0.1,2.7c2.5,2.7,4.5,6.2,8.5,7.2c1.4,2.5,3.6,4.3,5.7,6.1c6.1,5.3,12.4,10.4,18.5,15.7
		c9.6,8.1,18.6,16.7,28.7,24.1c0.6,1.8,2.2,2.9,3.6,4c5.8,4.9,11.8,9.5,17.6,14.4c8.7,7.5,17.3,15.1,25.9,22.7c0,0,0,0,0,0
		c0,0,0,0,0,0c5,4.4,10,8.7,14.9,13.1c5,4.3,10,8.7,15,13c0,0,0,0,0,0c2.2,0.7,3.1,3,5,4c0.5,1.3,1.9,1.1,2.5,0.8
		c6.2-3.4,13.1-4.5,19.6-6.9c14.9-5.6,30-10.6,44.9-15.8c6.1-1,11.7-3.5,17.4-5.5c9.8-3.3,19.7-6.6,29.5-9.8
		c7.8-2.7,15.5-5.3,23.3-8c10.6-3.7,21.1-7.4,31.7-11.1c0,0,0,0,0,0c0,0,0,0,0,0c0.8,0.1,1.7,0.2,2.1-0.7c0,0,0,0,0,0
		c1.4-0.4,2.8-0.6,4.2-1.1c7.1-2.6,14.6-4.3,21.4-7.7c0.1-0.1,0.3-0.1,0.4-0.2c5-0.1,9.3-2.7,13.9-4.2c17.7-6,35.3-12,53-18l0,0
		c0,0,0,0,0,0c4.9-1.6,9.8-3.2,14.7-4.8c11.5-3.9,22.9-8.2,34.5-11.9c11.7-3.7,23.3-7.8,34.9-12c15.2-4.3,30-9.9,45-15l0,0h0
		c0.6-0.4,1.3-0.7,1.9-1.1l0,0v0c4.8-1.2,9.6-2.5,14-4.9c1.7-2.1,1.8-4.6,2.1-7.1c1.7-2.7,0.5-5.6,0.7-8.3c0,0,0,0,0,0c0,0,0,0,0,0
		c0-0.9-0.1-1.8-0.1-2.6c0.1-1.7,0.3-3.3,0.4-5c1.3-1.4,0.8-3.2,0.8-4.8c0-10.5,0-21,0-31.4C556.8,1106.3,557.3,1104.6,556,1103.2z
		 M545.9,1038.1c0,0-0.1,0-0.1-0.1c0,0,0.1,0,0.1,0C545.8,1038.1,545.9,1038.1,545.9,1038.1z M200.8,691.3c0-0.1,0-0.1,0-0.2
		c0,0,0,0,0,0l0,0c0.1,0,0.1,0.1,0.2,0.1C201,691.3,200.9,691.3,200.8,691.3z"/>
</g>
</svg>
