<svg xmlns="http://www.w3.org/2000/svg" viewBox="0 0 71.6 37">
  <defs><style>.a{stroke:#fff;opacity:.3;}</style></defs>
  <path d="M71.6 35a43.1 43.1 0 01-4.3-.2 24 24 0 01-12.5-5l-2.6-2.1a45.5 45.5 0 00-7.9-5.4 23.3 23.3 0 00-9.9-2.3c-8.2.2-13 4-17.6 7.7S7.8 34.9 0 35v2c8.4-.1 13.3-4 18-7.7s9-7.1 16.4-7.3a21.2 21.2 0 019 2.2 43.1 43.1 0 017.5 5l2.7 2.2a26 26 0 0013.5 5.5l4 .1h.6z" class="a"/>
  <path d="M18 19.3c4.6-3.7 9-7.1 16.4-7.3a21.2 21.2 0 019 2.2 43.1 43.1 0 017.5 5l2.7 2.2a26 26 0 0013.5 5.5l4 .1h.6v-2a43.1 43.1 0 01-4.3-.2 24 24 0 01-12.5-5l-2.7-2.2a45.5 45.5 0 00-7.8-5.3 23.3 23.3 0 00-10-2.3c-8.2.2-13 4-17.6 7.7S7.8 24.9 0 25v2c8.4-.1 13.3-4 18-7.8z" class="a"/>
  <path d="M0 17c8.4-.1 13.3-4 18-7.7S27 2.2 34.4 2a21.2 21.2 0 019 2.2 43.1 43.1 0 017.5 5l2.7 2.2a26 26 0 0013.5 5.5l4 .1h.6v-2a43.1 43.1 0 01-4.3-.2 24 24 0 01-12.6-5l-2.6-2.1a45.5 45.5 0 00-7.9-5.3A23.3 23.3 0 0034.4 0c-8.2.2-13 4-17.6 7.7S7.8 14.8 0 15z" class="a"/>
</svg>
