<?xml version="1.0" encoding="utf-8"?>
<!-- Generator: Adobe Illustrator 22.0.1, SVG Export Plug-In . SVG Version: 6.00 Build 0)  -->
<svg version="1.1" id="Layer_1" xmlns="http://www.w3.org/2000/svg" xmlns:xlink="http://www.w3.org/1999/xlink" x="0px" y="0px"
	 viewBox="0 0 800 280.2" style="enable-background:new 0 0 800 280.2;" xml:space="preserve">
<style type="text/css">
	.st0{fill:#CD9347;}
	.st1{fill:#FFFFFF;}
</style>
<path class="st0" d="M203,0c5.6,7.7,11.2,15.5,16.8,23.2c5.6,7.7,11.4,15.4,17,23.1c5.4,7.3,10.7,14.7,16,22
	c5.8,7.8,11.6,15.6,17.4,23.5c4.8,6.5,9.3,13.2,14,19.7c5.6,7.8,11.3,15.4,16.9,23.2c3.5,4.8,7,9.6,10.5,14.4
	c5.5,7.6,11.1,15.2,16.7,22.7c5.8,7.8,11.6,15.6,17.3,23.5c5.3,7.2,10.5,14.4,15.7,21.6c1.8,2.5,3.7,5,5.6,7.6
	c3.2,4.4,6.3,8.9,9.5,13.3c5.6,7.7,11.3,15.4,17,23.1c3.7,5.1,7.4,10.1,11.1,15.2c0.3,0.4,0.3,0.9,0.4,1.4
	c-3.7,0.8-255.8,1.3-267.8,0.6c-0.8,0-1.5-0.4-2-0.5c0-2.4,0-4.5,0-6.6c-0.1-5.3,0.7-10.5,1.8-15.7c1-4.6,1.1-9.5,2.3-14.1
	c2.9-11,6.2-21.8,10.8-32.2c4.8-10.8,10.6-20.8,17-30.6c4.2-6.3,8.9-12.3,14.1-17.9c3-3.1,5.6-6.5,8.7-9.6
	c7.9-7.8,16.5-14.8,25.5-21.3c5.2-3.7,11-6.6,16.6-9.9c1.5-0.9,2.9-2,4.5-3.2c-11.4-15.6-22.5-30.9-33.8-46.5
	c-2.9,3.7-5.6,7-8.1,10.4c-5.7,7.9-11.3,15.8-17,23.7c-3.3,4.5-6.8,8.8-9.8,13.6c-2.8,4.5-6.3,8.5-9.4,12.7
	c-5.6,7.6-11.1,15.2-16.7,22.8c-5.2,7.2-10.4,14.4-15.7,21.6c-5.5,7.6-11.1,15.1-16.7,22.7c-5.8,7.8-11.6,15.6-17.4,23.4
	c-5.2,7.1-10.2,14.2-15.3,21.3c-5.2,7.2-10.4,14.4-15.7,21.6c-3.4,4.7-6.9,9.3-10.6,14.2c-16.5,0-33.3,0-50.1,0c0-1,0-2,0-3
	c1.9-2.2,4.1-4.3,5.8-6.6c6.3-8.4,12.5-17,18.7-25.5c5.6-7.7,11.1-15.5,16.7-23.3c1.9-2.7,3.8-5.4,5.8-8
	c7.9-10.7,15.9-21.4,23.9-32.1c6.3-8.5,12.5-17,18.7-25.5c5.6-7.7,11.1-15.5,16.7-23.3c1.9-2.7,3.8-5.4,5.8-8
	c7.9-10.7,15.9-21.4,23.9-32.1c6.3-8.5,12.5-17,18.7-25.5c6.4-8.8,12.8-17.6,19.2-26.3c8.9-12.2,17.9-24.5,26.8-36.7
	c0.4-0.5,0.4-1.2,0.5-1.9C201.7,0,202.3,0,203,0z M261.8,151.3c-36.7,15.3-67.5,51.2-77,84.5c45.8,0,91.6,0,137.4,0
	c0.1,0,0.3-0.2,0.4-0.3c0.1-0.1,0.1-0.3,0.3-0.6C302.6,207.2,282.3,179.4,261.8,151.3z"/>
<path class="st1" d="M725.8,250.6c0-11.5,0-22.8,0-34.6c-1.5,0-2.8,0-4.1,0c-11.5,0-23,0-34.5,0c-1.6,0-3.2-0.3-4.9-0.5
	c0-5.6,0-10.7,0-15.8c3.6-0.8,54.5-1,60.5-0.2c0,19.6,0,39.2,0,59.3c-3,2.7-6.5,5.3-10.4,7.6c-0.9,0.5-1.7,0.9-2.6,1.5
	c-8.1,5.3-19.8,9.5-29.3,11.3c-9.6,1.8-19.2,0.9-28.8,0.7c-6.7-0.2-13.1-3-19.3-5.6c-12.6-5.3-22.2-13.9-30-25.1
	c-4.6-6.6-7.2-14.1-10-21.5c-1-2.7-0.8-5.8-1.5-8.7c-1.1-5.1-0.9-10.2-1-15.3c-0.1-4.8,1.3-9.5,1.6-14.2c0.6-8.8,4.7-16.1,8.5-23.6
	c4.3-8.4,10.8-15,18-21c3.6-3,7.4-5.7,11.5-7.7c7.7-3.8,15.9-6.1,24.4-7.4c4.8-0.7,9.6-0.9,14.3-0.7c5.9,0.2,11.8,1.1,17.5,2.8
	c2.8,0.8,5.9,1.2,8.5,2.4c5.1,2.3,10.1,4.8,14.9,7.7c3.1,1.8,5.8,4.4,8.6,6.6c-0.1,3.6-3.4,4.8-5.1,7.1c-1.7,2.2-3.5,4.3-5.5,6.8
	c-2.5-1.7-4.8-2.9-6.8-4.6c-7-6-15.3-9.1-24.1-10.7c-15.3-2.9-29.9-1.3-43.2,7.8c-11.9,8.2-19,19.6-23.1,33c-1,3.4-0.8,7.2-1.2,10.8
	c-0.1,1.1-0.3,2.3-0.5,3.4c-0.2,1-0.5,2-0.4,2.9c0.4,4.1,1,8.1,1.5,12.2c0.3,2,0.5,3.9,0.9,5.8c2.1,8.5,5.9,16,11.6,22.7
	c8,9.5,18,15,30.1,17.3c6.6,1.3,13.3,1.5,19.8,0.7c8.4-1,16.9-2.4,24.3-7.3C719.4,254.5,722.8,253.1,725.8,250.6z"/>
<path class="st1" d="M593.2,277.7c-6.7,0-12.8,0-19.1,0c-5.5-12.5-11.1-24.9-16.7-37.6c-26,0-51.9,0-78.2,0
	c-5.7,12.4-11.5,24.8-17.2,37.2c-4.1,0.8-13.7,0.8-17.8,0c0-0.2-0.1-0.3-0.1-0.5c2.4-5.6,4.7-11.3,7.2-16.8
	c5.2-11.3,10.9-22.3,15.7-33.8c4.4-10.4,9.4-20.4,14-30.7c2.9-6.5,5.5-13.1,8.4-19.6c2.1-4.7,4.3-9.3,6.4-13.9
	c3.5-7.3,7-14.6,10.4-22c1.3-2.8,2.4-5.8,3.8-9.2c2.6,0,5.4-0.1,8.2-0.1c2.7,0,5.3,0,8.4,0c2.2,4.6,4.3,9.3,6.4,13.9
	c2.3,5,4.6,9.9,6.8,14.9c3.7,8,7.3,15.9,11,23.9c2.4,5.1,5,10.1,7.1,15.3c5.6,14.5,12.9,28.3,19.2,42.4
	C582.4,253.2,587.6,265.1,593.2,277.7z M549.9,223c-10.4-23.4-20.9-46.9-31.5-70.7c-3.7,8.1-7.5,16.2-11.1,24.3
	c-3.6,8-7,16.1-10.5,24c-2.6,5.7-5.4,11.4-8,17.1c-0.7,1.5-1.1,3.1-1.8,5.2C508,223,528.8,223,549.9,223z"/>
<path class="st1" d="M799.8,277.8c-6.1,0-11.7,0-17.5,0c0-48.5,0-96.7,0-145.2c2.7-1.3,5.7-0.4,8.6-0.6c2.8-0.1,5.6,0,8.1,0
	c0.4,0.4,0.6,0.5,0.7,0.7c0.1,0.1,0.2,0.3,0.2,0.4c0.1,47.5,0.1,94.9,0.1,142.4C800,276.1,799.9,276.7,799.8,277.8z"/>
</svg>
