<svg xmlns="http://www.w3.org/2000/svg" id="Layer_1" x="0" y="0" version="1.1" viewBox="0 0 838.4 518.5" xml:space="preserve">
  <style>
    .st0{fill:#fff}
  </style>
  <path d="M678.5 148c-5.4 20.2-18.5 30.3-41.1 32.4-25.5 2.4-50.9.5-76.4-1.1-5.2-.3-6.4 1.1-6.7 6-.9 15.5-2.4 30.9-3.6 46.3-.1 1.8-1.3 4.1.1 5.2 1.8 1.4 3.6-.9 5.3-1.6 33.3-13.5 67.1-15.6 100.7-2.4 27.1 10.7 40.3 32.6 43.2 61a77.5 77.5 0 01-10.7 51.8 77.9 77.9 0 01-46.5 32.2c-31.1 8.6-61.9 8-91.9-4.9a60.7 60.7 0 01-27.6-23c-3.9-6.2-5.5-12.9-1.7-19.8.6-1.1 1.6-2.5 2.7-2.7 1.9-.4 1.4 1.8 2.1 2.8a67.9 67.9 0 0040.9 30.6 95.2 95.2 0 0060.8-1.8c20.5-7.3 31.4-22.7 34.4-43.9a72.2 72.2 0 00-3.5-37.4 51.5 51.5 0 00-40.1-32.4c-22.1-4.5-43-.7-62.7 10.2a39.4 39.4 0 00-9.4 7.4c-1.4 1.5-2.1 4-4.7 4-4.7 0-9.3.2-14-.2-2.1-.2-1.1-2.4-1-3.8a7001 7001 0 013.5-47.3c1.6-20.8 3.3-41.5 4.8-62.3.3-4.2 1.5-5.1 5.8-4.3a324 324 0 0062.2 4.5c25 .3 49.9.1 75.1-5.5zM325.1 366.8c7.2.2 17-.9 26.8 1.1 25.2 5 34.5 29.3 18.8 49.9a60.8 60.8 0 01-31.5 20 99 99 0 01-59 1c-3.4-1-6.5-2.5-9.5-4.3-11.9-7.1-14.9-18.2-8.4-30.3a55.7 55.7 0 0113.5-15.9c2-1.6 2.1-2.4-.4-3.8-10-5.8-11.4-10.5-6.8-21a75 75 0 0112.5-18.6c1.7-2 1.7-3.1-.5-4.7-14.8-10.7-18.8-25.4-14.5-42.4 4.1-16.2 15.9-24.7 31.3-29a60.7 60.7 0 0126.8-1.1c16.2 2.9 32.5 2.3 48.8 2.1 2 0 4.4-1.1 5.1 2.3.7 3.6-2.2 3.3-4 3.8-6.4 1.9-12.8 3.5-19.3 5.2-2.9.7-3.4 1.5-1.5 4.3a40.7 40.7 0 01-30.8 63.1 50 50 0 01-22.7-2.3c-2.2-.9-3.2-.4-4.2 1.7-1.8 3.8-3.7 7.4-4.3 11.6-.7 4.4 1.2 6.6 5.6 7 8.6 1.2 17 .4 28.2.3zm-10.3 21h-14c-11 0-11 0-14.8 10.3-.5 1.2-.8 2.5-1.1 3.8-3.9 14.8 3.2 26.4 18.2 29.1a52.8 52.8 0 0030.4-2.9 30 30 0 0017.1-15.1c6-13.2 0-23.9-14.5-25.3-7-.6-14.2-.9-21.3.1zm-25.1-81.1a56 56 0 001.9 16.3c2.9 10 10.6 16.4 20 16.7 10.9.3 17.8-3.9 21.2-14.5 3.9-12 3.8-24.3-1.1-36.2-3.7-9.1-11.4-13.1-22.2-12.5-8.7.5-14.8 5.7-17.8 14.9-1.7 5-1.9 10.1-2 15.3zM745.2 260.1a46.1 46.1 0 0145.8-46.8c26.1-.2 47.1 20 47.4 45.8a46.4 46.4 0 01-45.7 47.5 46 46 0 01-47.5-46.5zM750.6 153.4a46.2 46.2 0 01-46.5-46.2A47.1 47.1 0 01752.4 60a47.2 47.2 0 0145.3 47.1 46.9 46.9 0 01-47.1 46.3zM616.9 518.5a46.7 46.7 0 11.3-93.5 46.7 46.7 0 01-.3 93.5zM617.2 93.4a46.2 46.2 0 01-47-46.2 46.6 46.6 0 1193.4-1.1 46.4 46.4 0 01-46.4 47.3zM796.8 411.8a45.4 45.4 0 01-45 46.2 46.4 46.4 0 11.1-92.7c25 .6 45.6 21.1 44.9 46.5zM425.2 330c0 12.2.2 24.3-.1 36.5-.1 4.6 1.3 7.3 6 8.1 2.4.4 4.8 1.5 7.2 2.1 2.1.5 2.5 1.9 2.4 3.8-.2 2.2-1.8 2-3.3 2-16-.5-32-.5-48 0-1.9.1-3.6 0-4.1-2.5-.6-2.8 1.6-2.8 3.2-3.5l.5-.2c12.9-4.2 12.8-4.2 12.8-17.7-.1-23-.2-46-.1-69 0-4.3-1.4-6.3-5.6-7-2.8-.4-5.5-1.4-8.2-2.2-1.7-.5-2.5-1.6-2.5-3.3 0-1.9 1.4-1.9 2.7-2.2l32.6-7.3c3.2-.7 4.5 0 4.5 3.6-.1 3.2-1.6 7.2 1 9.2.9.7 5.1-2.8 7.8-4.3a58.8 58.8 0 0134.7-8.8c17.7 1.4 29.6 13.2 30.1 31.1.4 14.3.3 28.7.2 43-.1 8.7.6 17.3 1.1 26 .2 3.6 1.9 5.5 5.1 6.4 3 .9 6 1.9 9.1 2.7 2.3.6 3.6 1.7 3.3 4.1-.3 2.6-2.4 1.8-3.9 1.8-15.7-.4-31.3-.5-47 .1-1.8.1-3.2 0-3.6-2.4-.4-2.3.7-3 2.5-3.4 1.8-.4 3.5-1 5.3-1.5 8.3-2.5 9.5-3.6 9.6-12.2.2-18.2.4-36.3 0-54.5-.4-16.2-9.5-24.9-25.6-26.1a55.1 55.1 0 00-26.6 5.2c-2.3 1-3.1 2.4-3.1 4.9V330zM91.6 331.2c0 10.2-.2 20.3.1 30.5.2 9.4 2.8 11.8 12.4 12.5 1.4.1 3.3-.7 4.2.9 1.2 2.1 1.5 4.1-1.5 5.1-6.2 2-12.3 4.2-18.8 5-7.1.8-12.9-1.6-16.2-8.2-1.7-3.4-3.2-2.7-5.6-1.1a50 50 0 01-43.7 7.6C9.2 379.5 1 369.9.1 357.6c-1.1-15.3 4.7-25.7 17.9-32 13.9-6.6 28.9-7.4 43.8-8.2 7.4-.4 6.8 1.5 7-7a41 41 0 00-.2-7c-1.5-12.7-7.4-19-20-21.2a76.5 76.5 0 00-31.6 2.6c-4.1 1-4.6-.7-5.8-3.7-1.3-3.2-.3-4.3 2.6-5.5a97.4 97.4 0 0145.2-8.3c19.4 1.7 32.3 14.9 32.8 34.3.3 9.8 0 19.6 0 29.5l-.2.1zm-41.7-3c-2.6.4-5.2.9-7.7 1.5-2.7.7-6 1.4-8.3 3a20.4 20.4 0 00-7.2 9.2c-2.8 7.2-2.7 16.9 2.9 22.8l1.3 1.2c8.2 6.7 29.1 6.6 37.7-.2 2.2-3.5 1-7.3 1-10.9-.1-8.3 1.1-16.7-.6-25v-1.2c.3-.5.1-.9-.4-1-5.6.1-11.3-.3-17 .4l-1.7.2zM160.9 285.9c.4 26.5.5 53-.3 79.5-.2 5.1.9 8.3 6.5 9.1 2.4.3 4.7 1.6 7.1 2.2 2.1.6 2.3 2.2 2.1 3.9-.2 1.9-1.7 1.8-3 1.7a773 773 0 00-50.5 0c-1.8.1-2.8-.5-3.2-2.3-.5-2.2.6-3 2.4-3.5 2.9-.8 5.7-1.9 8.6-2.5 4.7-1 6.3-3.5 6.5-8.4 1.8-45.5.9-90.9-.2-136.4-.3-12.3-.3-12.3-12-15.5l-3.4-.8a3 3 0 01-2.2-3c-.1-1.7 1.3-2.1 2.7-2.4l34.6-7.6c4.1-.9 4.3 1.3 4.3 4.4v81.6zM230.6 319.2c0 15.5.6 31-.4 46.4-.3 5 1.3 7.9 6.5 8.8 2.8.5 5.4 1.7 8.1 2.4 2.3.6 2.2 2.3 2 3.9-.2 1.9-1.7 1.7-3 1.7a847 847 0 00-50.4 0c-1.8.1-3.6.1-3.8-2.6-.3-2.8 1.6-2.9 3.3-3.4l5.2-1.6c9-2.8 9.2-2.8 9.3-12.3.3-24.5.5-48.9-.3-73.4-.1-3.9-1.5-5.7-5.3-6.3-2.9-.5-5.8-1.3-8.7-2.1-1.9-.5-3.4-1.6-3.2-3.8.2-2.3 2.2-1.6 3.5-1.9l31.2-6.9c5.8-1.3 6.3-1 6.3 4.8-.4 15.3-.3 30.8-.3 46.3zM230.3 224.3c0 8.7-5.7 14.6-14.2 14.5-8.3 0-13.6-5.4-13.6-13.8 0-8.6 5.8-14.3 14.5-14.2 8.4.2 13.3 5.2 13.3 13.5z" class="st0"/>
  <path d="M69 328.7l-.4-1c.5.1.7.4.4 1z" class="st0"/>
</svg>
