<?xml version="1.0" encoding="utf-8"?>
<!-- Generator: Adobe Illustrator 22.0.1, SVG Export Plug-In . SVG Version: 6.00 Build 0)  -->
<svg version="1.1" id="Layer_1" xmlns="http://www.w3.org/2000/svg" xmlns:xlink="http://www.w3.org/1999/xlink" x="0px" y="0px"
	 viewBox="0 0 836.8 212.1" style="enable-background:new 0 0 836.8 212.1;" xml:space="preserve">
<style type="text/css">
	.st0{fill:#FFFFFF;}
</style>
<path class="st0" d="M653.7,48.6c12.2,0.1,22.1,0.8,31.9,1.9c13.6,1.5,27,3.9,40.5,6c8.6,1.3,17.3,2.2,26,3c9.6,0.9,19.2,1,28.9,0.6
	c16.6-0.6,33.1-2.6,49.1-7.4c1.6-0.5,3.2-1.1,4.8-1.6c0.6-0.2,1.2,0,1.8-0.1c-0.1,0.7,0,1.5-0.3,2c-2.4,3.2-4.7,6.5-7.3,9.5
	c-7.7,8.7-16.7,16-25.9,22.9c-16.7,12.5-34.4,23.6-52.4,34.1c-0.6,0.4-1.2,0.6-1.2,1.6c-0.4,8.2-2.4,16.1-5,23.8
	c-5,15-12.1,29.1-20.3,42.5c-4.4,7.2-9.3,14.2-14,21.3c-0.5,0.8-1,2.2-2.2,1.8c-0.6-0.2-0.8-1.7-0.8-2.6c-0.8-7.6-1.6-15.1-3.8-22.5
	c-4.1-13.2-15.3-18.6-25.5-18.9c-6.7-0.2-13.2,1.3-19.6,3.2c-10.2,3-19.9,7.3-29.6,11.7c-17.2,7.8-34.6,15.3-52.5,21.5
	c-10.4,3.6-21,6.8-31.9,8.5c-1.9,0.3-3.8,0.6-5.7,0.7c-0.7,0-1.4-0.4-2-0.6c0.4-0.6,0.7-1.4,1.2-1.7c8.2-5,16.6-9.9,24.8-15.1
	c19.8-12.5,38.8-26,56.3-41.5c11.1-9.8,21.6-20.3,30-32.6c4.6-6.7,8.5-13.8,10.5-21.8c2.4-9.8,0.8-18.7-6.1-26.3
	c-4.4-4.8-9.8-8-15.6-10.6c-5.6-2.5-11.4-4.2-17.4-5.6c-0.8-0.2-2.1-0.2-2-1.3c0-0.5,1.1-1.2,1.8-1.4c6.8-2.5,13.9-3.9,21.1-4.4
	C646.1,48.9,651,48.7,653.7,48.6z"/>
<path class="st0" d="M262.3,148.4c-6.1,0-12.1,0-18.2,0c0-28.2,0-56.4,0-84.7c6,0,12,0,18.2,0c0,2.1,0,4.3,0,6.6
	c0.4-0.3,0.7-0.5,0.8-0.6c8.1-7.8,20.7-9,30.9-3.8c3.9,2,7.4,4.5,10.5,7.6c1-0.9,1.9-1.7,2.9-2.5c14.3-11.7,33.3-10.6,45.6,0.8
	c6.8,6.3,10.5,14.2,11,23.6c0.1,1.2,0.1,2.5,0.1,3.7c0,15.9,0,31.9,0,47.8c0,0.5,0,0.9,0,1.5c-6.1,0-12.1,0-18.3,0c0-0.5,0-1,0-1.4
	c0-16.2,0-32.4,0-48.6c0-4.8-1.3-9.1-4.6-12.7c-6.7-7-18.5-6-24.3,2.1c-2.2,3.1-3.3,6.6-3.3,10.4c0,16.3,0,32.5,0,48.8
	c0,0.5,0,1,0,1.5c-6.1,0-12.1,0-18.3,0c0-0.4,0-0.9,0-1.4c0-16.3,0-32.7,0-49c0-6.3-2.3-11.5-7.8-14.8c-9.4-5.7-22.2-0.1-24.7,10.7
	c-0.3,1.5-0.5,3-0.5,4.5c0,16.2,0,32.3,0,48.5C262.3,147.4,262.3,147.9,262.3,148.4z"/>
<path class="st0" d="M440.9,70.6c0-2.4,0-4.6,0-6.9c6.1,0,12.1,0,18.2,0c0,28.2,0,56.4,0,84.7c-6,0-12,0-18.1,0c0-2.2,0-4.4,0-6.9
	c-10.7,7.2-22.2,9.6-34.6,6.9c-12.4-2.8-21.8-9.8-28.2-20.8c-9.4-16.3-6.8-37.4,5.8-51C396.9,62.6,421.1,57,440.9,70.6z
	 M390.7,106.1c0,13.8,11.2,25.1,25.1,25.1c13.8,0,25.1-11.2,25.1-25.1c0-13.8-11.2-25.1-25.1-25.1C402,80.9,390.7,92.2,390.7,106.1z
	"/>
<path class="st0" d="M231.3,148.4c-6.1,0-12.1,0-18.2,0c0-2.3,0-4.4,0-6.9c-12.6,8.2-25.9,10.2-39.9,5.2
	c-9.2-3.2-16.5-9.2-21.7-17.4c-10.6-16.6-8.6-38,4.7-52.8c12.8-14.1,37.1-19.7,56.9-6.1c0-2.3,0-4.5,0-6.9c0.6,0,0.9-0.1,1.3-0.1
	c5.2,0,10.4,0,15.6,0c1,0,1.4,0.2,1.4,1.3c0,27.4,0,54.9,0,82.3C231.4,147.6,231.3,148,231.3,148.4z M188,131.2
	c13.9-0.1,25.1-11.3,25.1-25.1c0-13.9-11.4-25.2-25.3-25.1c-14.1,0.1-25,11.4-25,25.7C163,120,174.5,131.3,188,131.2z"/>
<path class="st0" d="M68.5,70.7c0-2.4,0-4.7,0-6.9c0.5,0,0.8-0.1,1.2-0.1c5.3,0,10.5,0,15.8,0c0.9,0,1.2,0.2,1.2,1.2
	c0,27.5,0,55,0,82.5c0,0.4,0,0.7-0.1,1.1c-6,0-12,0-18.1,0c0-2.2,0-4.5,0-6.9c-12.2,8.1-25.2,10.1-38.9,5.7
	c-9.4-3-16.9-8.9-22.4-17.2c-11-16.4-9.2-38.2,4.1-53.1C24,62.6,48.5,56.8,68.5,70.7z M43.3,131.2c13.7,0.1,25.1-11.2,25.2-25.1
	C68.6,92.5,57.3,81.1,43.4,81c-13.8-0.1-25.1,11.2-25.2,25.1C18.1,119.8,29.4,131.1,43.3,131.2z"/>
<path class="st0" d="M525.2,35.4c6.1,0,12.1,0,18.1,0c0,21.2,0,42.3,0,63.5c0.2,0.1,0.3,0.2,0.5,0.4c0.1-0.3,0.2-0.6,0.3-0.9
	c9.3-11.3,18.6-22.5,27.9-33.8c0.6-0.7,1.2-1,2.1-1c6.4,0,12.8,0,19.3,0c0.4,0,0.8,0,1.5,0c-1.5,1.9-2.8,3.5-4.2,5.1
	c-10,12.2-20.1,24.3-30.1,36.4c-0.7,0.8-0.5,1.2,0.1,1.9c11.1,13.4,22.2,26.9,33.3,40.4c0.2,0.3,0.4,0.6,0.7,1c-0.4,0-0.7,0.1-1,0.1
	c-6.6,0-13.2,0-19.9,0c-0.8,0-1.2-0.3-1.7-0.9c-9.2-11.2-18.4-22.3-27.6-33.5c-0.3-0.3-0.6-0.7-1-1.2c0,12,0,23.7,0,35.5
	c-6.1,0-12.1,0-18.2,0C525.2,110.8,525.2,73.2,525.2,35.4z"/>
<path class="st0" d="M143.8,81c-1.9,0-3.7,0-5.5,0c-11.2,0.2-19.4,7.8-20.4,18.9c-0.1,1.3-0.2,2.6-0.2,3.8c0,14.4,0,28.7,0,43.1
	c0,0.5,0,1,0,1.5c-6.1,0-12.1,0-18.2,0c0-28.2,0-56.4,0-84.7c6.1,0,12,0,18.2,0c0,2.3,0,4.5,0,7c3.7-3.4,7.7-5.6,12.2-6.9
	c4.5-1.3,9.2-1.1,13.9-1C143.8,68.9,143.8,74.8,143.8,81z"/>
<path class="st0" d="M516.1,62.9c0,6,0,12,0,18.1c-2.3,0-4.5,0-6.7,0c-10.6,0.3-19.3,9.2-19.4,19.9c0,15.4,0,30.7,0,46.1
	c0,0.4,0,0.9,0,1.4c-6.1,0-12.1,0-18.2,0c0-28.2,0-56.4,0-84.7c0.4,0,0.8-0.1,1.2-0.1c5.2,0,10.4,0,15.6,0c1.1,0,1.4,0.4,1.3,1.4
	c-0.1,1.8,0,3.6,0,5.7C497.6,63.8,506.5,62,516.1,62.9z"/>
<path class="st0" d="M742.5,49.5c-13.7,0-24.7-11.1-24.7-24.7c0-13.6,11.1-24.8,24.7-24.8c13.8,0,24.9,11.1,24.9,25.1
	C767.3,38.5,756.1,49.5,742.5,49.5z"/>
<path class="st0" d="M743.2,190.1c0,1.5,0,2.9,0,4.5c-0.5,0-1,0-1.7,0c0-1.2,0-2.4,0-3.5c0-1.2,0-2.4,0-3.6c2-0.6,2.4-0.4,3.1,1.5
	c0.4,0.9,0.7,1.8,1.2,3.1c0.5-1.2,0.9-2.1,1.2-3.1c0.8-1.9,0.7-1.9,3-1.6c0,2.4,0,4.8,0,7.2c-0.5,0-1,0-1.5,0c0-1.5,0-3.1,0-4.6
	c-0.1,0-0.2,0-0.3-0.1c-0.5,1.3-0.9,2.6-1.5,3.8c-0.2,0.4-0.6,0.9-0.9,0.8c-0.4-0.1-0.8-0.5-1-0.9c-0.5-1.2-0.9-2.5-1.4-3.7
	C743.5,190.1,743.4,190.1,743.2,190.1z"/>
<path class="st0" d="M738,194.7c-0.7,0-1.1,0-1.8,0c0-1.3,0-2.6,0-3.9c0-1.9,0-1.9-2-2.1c0-0.4,0-0.8,0-1.3c1.9,0,3.9,0,5.8,0
	c0,0.4,0,0.8,0,1.2c-0.1,0.1-0.2,0.1-0.2,0.1c-1.8,0.1-1.8,0.1-1.8,2C738,191.9,738,193.3,738,194.7z"/>
</svg>
