<?xml version="1.0" encoding="utf-8"?>
<!-- Generator: Adobe Illustrator 22.1.0, SVG Export Plug-In . SVG Version: 6.00 Build 0)  -->
<svg version="1.1" id="Layer_1" xmlns="http://www.w3.org/2000/svg" xmlns:xlink="http://www.w3.org/1999/xlink" x="0px" y="0px"
	 viewBox="0 0 504 150" style="enable-background:new 0 0 504 150;" xml:space="preserve">
<style type="text/css">
	.st0{fill:#FFFFFF;}
</style>
<g>
	<polygon class="st0" points="80.8,11 61.9,22 61.9,47.3 80.8,36.3 114.4,55.7 114.4,94.4 80.8,113.8 47.3,94.4 47.3,55.7 
		47.3,55.7 47.3,30.4 25.4,43 25.4,107.1 80.8,139.1 136.3,107.1 136.3,43 	"/>
	<path class="st0" d="M80.8,53.2L61.9,64.1v21.9l18.9,10.9l18.9-10.9V64.1L80.8,53.2z"/>
	<g>
		<path class="st0" d="M474.8,57h-1.5v-0.9h4.1V57h-1.5v4h-1.1V57z"/>
		<path class="st0" d="M477.8,56.2h1.5l1.2,3.4l0,0l1.1-3.4h1.5v5h-1v-3.5l0,0l-1.2,3.5h-0.8l-1.2-3.5l0,0v3.5h-1v-5H477.8z"/>
	</g>
	<g>
		<path class="st0" d="M158.6,45h9.4v15.4h0.1c2-2.9,4.4-4.4,7.9-4.4c7.7,0,11.2,5.6,11.2,19.2s-3.5,19.2-11.2,19.2
			c-3.7,0-6.3-1.4-8.3-4.8h-0.1v3.9h-9L158.6,45L158.6,45z M173,87.4c4.1,0,4.9-4.1,4.9-12c0-8-0.8-12-4.9-12c-4.1,0-5,4.1-5,12
			C168,83.2,168.8,87.4,173,87.4z"/>
		<path class="st0" d="M190.9,57h9V62h0.1c1.9-3.5,4.6-5.8,8.4-5.8c0.5,0,1.2,0.1,1.7,0.1v9c-1-0.1-2-0.1-2.9-0.1
			c-3.3,0-6.9,1.7-6.9,6.6v22h-9.4L190.9,57L190.9,57z"/>
		<path class="st0" d="M225.1,56c11.3-0.2,14.4,6.5,14.4,19.2c0,12.5-3.7,19.2-14.4,19.2c-11.3,0.2-14.4-6.5-14.4-19.2
			C210.7,62.9,214.3,56,225.1,56z M225.1,88.2c3.8,0,5-3.7,5-12.9c0-9.1-1.2-12.9-5-12.9c-4.6,0-5,5.4-5,12.9
			C220,82.9,220.5,88.2,225.1,88.2z"/>
		<path class="st0" d="M256,56c11.3-0.2,14.4,6.5,14.4,19.2c0,12.5-3.7,19.2-14.4,19.2c-11.3,0.2-14.4-6.5-14.4-19.2
			C241.6,62.9,245.3,56,256,56z M256,88.2c3.8,0,5-3.7,5-12.9c0-9.1-1.2-12.9-5-12.9c-4.6,0-5,5.4-5,12.9
			C251,82.9,251.4,88.2,256,88.2z"/>
		<path class="st0" d="M283.5,45v25.6h0.1l9.5-13.7h10.3l-10.5,14.4L305,93.6h-10.3l-7.8-15l-3.3,4.4v10.7h-9.4V45H283.5z"/>
		<path class="st0" d="M311.9,81.7v1.2c0,3.2,1.7,5.3,4.9,5.3c2.9,0,4.8-1.4,4.8-4.4c0-2.4-1.6-3.5-3.4-4.1l-6.6-2.4
			c-5.2-1.8-7.8-5-7.8-10.2c0-6.1,3.8-11,13.5-11c8.5,0,12.5,3.8,12.5,10.4V68h-8.4c0-3.7-1.1-5.5-4.1-5.5c-2.4,0-4.4,1.4-4.4,3.9
			c0,1.8,1,3.3,4.1,4.3l5.6,1.9c5.9,2,8.1,5,8.1,10.5c0,7.7-5.7,11.5-13.6,11.5c-10.5,0-13.5-4.6-13.5-11.6v-1.3
			C303.6,81.7,311.9,81.7,311.9,81.7z"/>
		<path class="st0" d="M346.7,56c11.3-0.2,14.4,6.5,14.4,19.2c0,12.5-3.7,19.2-14.4,19.2c-11.3,0.2-14.4-6.5-14.4-19.2
			C332.3,62.9,336,56,346.7,56z M346.7,88.2c3.8,0,5-3.7,5-12.9c0-9.1-1.2-12.9-5-12.9c-4.6,0-5,5.4-5,12.9
			C341.7,82.9,342.1,88.2,346.7,88.2z"/>
		<path class="st0" d="M383.3,89.4h-0.1c-2,3.6-5.4,5.2-9.3,5.2c-5.8,0-9.3-3.2-9.3-10.4V57h9.4v25.2c0,3.7,1.2,5.1,4,5.1
			c3.2,0,5-2,5-6.1V57h9.4v36.6h-9v-4.3H383.3z"/>
		<path class="st0" d="M396.8,57h9V62h0.1c1.9-3.5,4.6-5.8,8.4-5.8c0.5,0,1.2,0.1,1.7,0.1v9c-1-0.1-2-0.1-2.9-0.1
			c-3.3,0-6.9,1.7-6.9,6.6v22h-9.4L396.8,57L396.8,57z"/>
		<path class="st0" d="M435.4,70.2c0-3.5-0.7-7.3-4.2-7.3c-4.6,0-5.4,4.1-5.4,12.5c0,9,0.8,12.8,5,12.8c3.1,0,4.6-2.7,4.6-8.6h9
			c0,9.6-4,15-13.9,15c-9.4,0-14-4.6-14-19.2c0-15,6.2-19.2,14.8-19.2c8.6,0,13.1,5.5,13.1,14.1h-9V70.2z"/>
		<path class="st0" d="M455.5,76.8v2.9c0,4.3,1.2,8.5,4.6,8.5c3.1,0,4.4-2.4,5-6.9h8.4c-0.3,8.5-4.4,13.3-13.3,13.3
			c-13.6,0-14.1-10.5-14.1-19.6c0-9.8,1.9-18.9,14.6-18.9c10.9,0,13.4,7.3,13.4,18.6v2.1H455.5z M465.1,71.2
			c-0.2-5.6-0.9-8.7-4.8-8.7c-3.7,0-4.8,3.9-4.8,7.3v1.4C455.5,71.2,465.1,71.2,465.1,71.2z"/>
	</g>
</g>
</svg>
