<?xml version="1.0" encoding="utf-8"?>
<!-- Generator: Adobe Illustrator 22.0.1, SVG Export Plug-In . SVG Version: 6.00 Build 0)  -->
<svg version="1.1"
	 id="svg4136" inkscape:export-filename="C:\Projects\agi-meta\Logos\Cesium\cesium.png" inkscape:export-xdpi="97.829803" inkscape:export-ydpi="97.829803" inkscape:version="0.92.2 (5c3e80d, 2017-08-06)" sodipodi:docname="cesium-light.svg" xmlns:cc="http://creativecommons.org/ns#" xmlns:dc="http://purl.org/dc/elements/1.1/" xmlns:inkscape="http://www.inkscape.org/namespaces/inkscape" xmlns:rdf="http://www.w3.org/1999/02/22-rdf-syntax-ns#" xmlns:sodipodi="http://sodipodi.sourceforge.net/DTD/sodipodi-0.dtd" xmlns:svg="http://www.w3.org/2000/svg"
	 xmlns="http://www.w3.org/2000/svg" xmlns:xlink="http://www.w3.org/1999/xlink" x="0px" y="0px" viewBox="0 0 481.2 91.6"
	 style="enable-background:new 0 0 481.2 91.6;" xml:space="preserve">
<style type="text/css">
	.st0{fill:#FFFFFF;}
</style>
<sodipodi:namedview  bordercolor="#666666" borderopacity="1" gridtolerance="10" guidetolerance="10" id="namedview4319" inkscape:current-layer="surface22972" inkscape:cx="312.07116" inkscape:cy="-53.642363" inkscape:lockguides="true" inkscape:pageopacity="0" inkscape:pageshadow="2" inkscape:window-height="801" inkscape:window-maximized="1" inkscape:window-width="1536" inkscape:window-x="-8" inkscape:window-y="-8" inkscape:zoom="1" objecttolerance="10" pagecolor="#ffffff" showgrid="false" showguides="false">
	<inkscape:grid  id="grid3896" originx="-177.4336" originy="-1692.2189" type="xygrid"></inkscape:grid>
</sodipodi:namedview>
<g id="surface22972" transform="translate(-69.429688,-62.085938)">
	<path id="path4143" inkscape:connector-curvature="0" class="st0" d="M189.2,140.1c-3-0.6-5.4-1.7-7.1-3.3c-1.8-1.6-3-3.7-3.7-6.4
		c-0.7-2.7-1.1-6.1-1.1-10.3v-6.3c0-4.9,0.4-8.8,1.1-11.8c0.7-3,2-5.3,3.8-6.9c1.8-1.6,4.2-2.7,7.3-3.2c3-0.5,6.9-0.8,11.5-0.8h10.6
		c4.9,0,8.9,0.2,12.1,0.7c3.2,0.5,5.7,1.3,7.5,2.6c1.8,1.2,3.1,3,3.8,5.2c0.7,2.2,1.1,5.1,1.1,8.6h-12.4c0-1-0.1-1.8-0.4-2.6
		c-0.3-0.7-0.8-1.4-1.7-1.9c-0.9-0.5-2.1-0.9-3.8-1.1c-1.7-0.2-3.9-0.4-6.8-0.4h-9.2c-2.7,0-4.9,0.1-6.5,0.3
		c-1.7,0.2-2.9,0.7-3.8,1.5c-0.9,0.8-1.5,1.9-1.8,3.4c-0.3,1.5-0.4,3.6-0.4,6.3v5.5c0,2.4,0.1,4.4,0.4,5.8c0.3,1.4,0.9,2.6,1.7,3.3
		c0.9,0.8,2.1,1.3,3.7,1.5c1.6,0.2,3.7,0.4,6.3,0.4h9.8c2.6,0,4.8-0.1,6.4-0.2c1.7-0.1,2.9-0.5,3.8-0.9c0.9-0.5,1.5-1.2,1.8-2
		c0.3-0.9,0.5-2,0.5-3.4h12.4c0,3.3-0.3,6.1-0.8,8.3c-0.5,2.2-1.7,4-3.5,5.4c-1.7,1.3-4.3,2.3-7.5,2.9c-3.3,0.6-7.6,0.9-12.9,0.9
		h-10.9C196,141,192.2,140.7,189.2,140.1"/>
	<path id="path4145" inkscape:connector-curvature="0" class="st0" d="M295.5,91.1v9.9h-39.1v9.2h37.9v10h-37.9V131h39.1v10h-51.1
		V91.1H295.5z"/>
	<path id="path4147" inkscape:connector-curvature="0" class="st0" d="M343.9,91.1c6.3,0,10.9,1.1,14,3.4c3,2.3,4.5,5.8,4.5,10.6
		h-12.9c0-0.8-0.1-1.4-0.2-1.9c-0.2-0.5-0.5-1-0.9-1.3s-1.1-0.6-1.9-0.7c-0.8-0.1-1.8-0.2-3.1-0.2h-20.1c-1.7,0-3.1,0.3-4.2,0.9
		c-1.1,0.6-1.7,1.9-1.7,3.8c0,1,0.1,1.8,0.4,2.3c0.3,0.6,0.7,1,1.2,1.2c0.5,0.3,1.1,0.4,1.8,0.5c0.7,0.1,1.5,0.1,2.4,0.2l22.1,0.9
		c2.8,0.1,5.3,0.3,7.4,0.7c2.1,0.4,3.9,1.1,5.3,2.1c1.4,1,2.5,2.5,3.2,4.4c0.7,1.9,1.1,4.5,1.1,7.8c0,2.7-0.3,5-0.9,6.9
		c-0.6,1.9-1.5,3.5-2.8,4.7c-1.3,1.2-3.1,2.2-5.2,2.7c-2.2,0.6-4.8,0.9-7.9,0.9h-24.7c-3.2,0-5.8-0.3-8-0.9
		c-2.2-0.6-3.9-1.4-5.2-2.6c-1.3-1.2-2.3-2.6-2.8-4.4c-0.5-1.8-0.8-3.9-0.8-6.3h12.2c0,1.2,0.5,2.3,1.6,3c1.1,0.8,2.5,1.2,4.2,1.2
		h20c2.6,0,4.6-0.3,5.9-1c1.3-0.7,1.9-2,1.9-4c0-0.9-0.1-1.7-0.4-2.3c-0.2-0.6-0.7-1.2-1.3-1.7c-0.6-0.5-1.4-0.8-2.5-1
		c-1.1-0.2-2.5-0.4-4.2-0.5l-19.1-0.8c-3.4-0.1-6.3-0.4-8.6-0.7c-2.3-0.3-4.2-1-5.7-1.9c-1.5-0.9-2.5-2.3-3.2-4.1
		c-0.6-1.8-1-4.3-1-7.4c0-2.6,0.3-4.9,1-6.7c0.7-1.8,1.7-3.3,3.2-4.5c1.4-1.2,3.3-2,5.6-2.5s5-0.8,8.2-0.8H343.9z"/>
	<path id="path4149" inkscape:connector-curvature="0" class="st0" d="M370.8,91.1h11.9V141h-11.9V91.1z"/>
	<path id="path4151" inkscape:connector-curvature="0" class="st0" d="M403.1,122c0,1.7,0.2,3.2,0.6,4.3c0.4,1.2,1,2.1,1.8,2.7
		c0.8,0.7,2,1.2,3.3,1.4c1.4,0.3,3.1,0.4,5.1,0.4h13c1.9,0,3.5-0.1,4.9-0.4c1.3-0.3,2.4-0.8,3.2-1.5c0.8-0.7,1.4-1.6,1.8-2.8
		c0.4-1.2,0.6-2.6,0.6-4.3V91h12v32.1c0,3.3-0.3,6.1-1,8.3c-0.7,2.3-1.8,4.1-3.4,5.5c-1.6,1.4-3.7,2.4-6.3,3
		c-2.6,0.6-5.8,0.9-9.7,0.9h-17.7c-3.7,0-6.8-0.3-9.3-1c-2.5-0.7-4.6-1.7-6.3-3.1c-1.6-1.4-2.8-3.3-3.5-5.5c-0.7-2.3-1.1-5-1.1-8.1
		V91h11.9V122z"/>
	<path id="path4153" inkscape:connector-curvature="0" class="st0" d="M476.2,91.1l20.6,36.8l21.3-36.8H536V141h-12v-36.7L503.3,141
		h-12.9l-20.6-36.7V141h-11.9V91.1H476.2z"/>
	<path id="path4167" inkscape:connector-curvature="0" class="st0" d="M544.6,96h0.6c0.7,0,1.2-0.2,1.2-0.8c0-0.5-0.3-0.8-1.1-0.8
		c-0.3,0-0.5,0-0.7,0.1V96z M544.5,98.9h-1.2v-5.1c0.5-0.1,1.1-0.2,2-0.2c1,0,1.4,0.2,1.8,0.4c0.3,0.2,0.5,0.6,0.5,1.1
		c0,0.6-0.4,1-1.1,1.2v0.1c0.5,0.2,0.8,0.6,0.9,1.2c0.2,0.8,0.2,1.1,0.4,1.3h-1.3c-0.2-0.2-0.2-0.7-0.4-1.2
		c-0.1-0.6-0.4-0.8-1.1-0.8h-0.6V98.9z M541.4,96.3c0,2.3,1.7,4.1,4,4.1c2.2,0,3.9-1.8,3.9-4.1c0-2.3-1.7-4.1-3.9-4.1
		C543.1,92.2,541.4,94,541.4,96.3 M550.6,96.3c0,2.9-2.3,5.2-5.2,5.2c-2.9,0-5.3-2.3-5.3-5.2c0-2.8,2.3-5.1,5.3-5.1
		C548.3,91.2,550.6,93.4,550.6,96.3"/>
	<path id="path4171" inkscape:connector-curvature="0" class="st0" d="M157.4,101.1c-1.5,0-3,0.8-4.1,2.4l-14.4,19.1
		c-2.4,3.2-5.8,5-9.3,5h-0.1c-3.5,0-6.9-1.8-9.3-5l-14.4-19.1c-1.1-1.5-2.6-2.4-4.1-2.4c-1.5,0-3,0.8-4.1,2.4l-14.4,19.1
		c-2.4,3.1-5.7,4.9-9.2,5c7.3,15.5,23.1,26.2,41.4,26.2c25.3,0,45.8-20.5,45.8-45.8c0-1.8-0.1-3.6-0.3-5.3
		C159.7,101.6,158.6,101.1,157.4,101.1"/>
	<path id="path4173" inkscape:connector-curvature="0" class="st0" d="M130.6,91.2c-2.6,0-4.8-2.1-4.8-4.8s2.1-4.8,4.8-4.8
		c2.6,0,4.8,2.1,4.8,4.8S133.2,91.2,130.6,91.2 M115.3,62.1c-25.3,0-45.8,20.5-45.8,45.8c0,4,0.6,7.9,1.6,11.6
		c0.9,0.7,1.8,1.1,2.8,1.1c1.5,0,3-0.8,4.1-2.3l14.4-19.1c2.4-3.2,5.8-5,9.3-5c3.5,0,6.9,1.8,9.3,5l13.9,18.3l0.6,0.7
		c1.1,1.5,2.6,2.3,4.1,2.3c1.5,0,3-0.8,4.1-2.3l0.6-0.7l13.9-18.3c2.4-3.2,5.8-5,9.3-5c0.6,0,1.1,0.1,1.7,0.1
		C153.3,75.7,135.8,62.1,115.3,62.1"/>
</g>
</svg>
