<?xml version="1.0" encoding="utf-8"?>
<!-- Generator: Adobe Illustrator 22.0.1, SVG Export Plug-In . SVG Version: 6.00 Build 0)  -->
<svg version="1.1" id="Layer_1" xmlns="http://www.w3.org/2000/svg" xmlns:xlink="http://www.w3.org/1999/xlink" x="0px" y="0px"
	 viewBox="0 0 438.1 98.3" style="enable-background:new 0 0 438.1 98.3;" xml:space="preserve">
<style type="text/css">
	.st0{opacity:0.75;fill:#FFFFFF;}
	.st1{fill:#FFFFFF;}
</style>
<path class="st0" d="M286.3,60.6V37.9h1.5c8.9,0,17.7,0,26.5,0c5.2,0,8.8,2.4,10.5,6.8c1.8,4.7,0.6,10.1-3.1,13.5
	c-1.8,1.6-4.2,2.5-6.6,2.5c-9.3,0.1-18.7,0-28,0C286.9,60.6,286.7,60.6,286.3,60.6 M300.1,41.8v14.9c0.2,0.1,0.4,0.1,0.6,0.1
	c2,0,3.9,0,5.9,0c2.5,0,3.8-1,4-3.5c0.2-2.9,0.2-5.7,0.1-8.6c0.1-1.5-1-2.7-2.5-2.8C305.4,41.7,302.7,41.9,300.1,41.8"/>
<path class="st1" d="M198.8,38c0.7,0,1.2-0.1,1.7-0.1c9.6,0,19.1,0,28.7,0c1.3,0,2.6,0.2,3.8,0.6c2.2,0.6,3.8,2.6,3.9,4.9
	c0.2,2.1-0.9,4-2.8,5c-1.4,0.7-2.8,1.3-4.2,1.8l12.1,10.2c-0.9,0.1-1.4,0.1-1.8,0.1c-3.7,0-7.5,0.1-11.2,0c-0.8,0-1.6-0.3-2.3-0.8
	c-3.8-3.2-7.4-6.5-11.2-9.7c-1.2-1-0.8-2.2-0.8-3.6c1.4,0,2.8,0,4.1,0c0.8,0,1.6-0.1,2.4-0.3c1.1-0.3,2-0.9,2-2.2
	c0-1.2-1-2.1-2.1-2.1c0,0,0,0,0,0c-2.6-0.2-5.4-0.2-8-0.2c-0.6,0-0.8,0.8-0.8,1.5c0,5.2-0.1,10.4,0,15.6c0,1.5-0.5,1.9-1.9,1.9
	c-3.3-0.1-6.6,0-9.9,0c-0.5,0-1.1-0.1-1.6-0.1L198.8,38z"/>
<path class="st1" d="M173.1,38c3.1,0,6.2,0,9.3,0C188.7,38,193,42.5,193,49c0,6.7-4.3,11.5-10.6,11.5c-6.2,0.1-12.4,0.1-18.6,0
	c-6-0.1-10.9-5-10.8-11c0-0.5,0.1-1.1,0.1-1.6c0.8-6.5,4.7-10,11.2-10L173.1,38 M178.6,48.9c0-6.4-0.4-8.1-7.9-7.4
	c-1.7-0.1-3.1,1.2-3.1,2.8c0,0.1,0,0.2,0,0.3c-0.2,2.4-0.3,4.8-0.2,7.1c0.2,3.6,1.1,5.4,5.4,5.1c0.5,0,1,0,1.5,0
	c1.9,0.1,3.6-1.3,3.8-3.2C178.4,52.1,178.5,50.5,178.6,48.9"/>
<path class="st0" d="M377.5,56.8v3.8h-28.2c0.3-0.4,0.6-0.8,1-1.2c7.9-6.9,15.9-13.9,23.8-20.8c1.1-1,4.9-1.1,5.9-0.1
	c8,7.1,15.9,14.1,23.9,21.2c0.3,0.3,0.5,0.6,0.7,0.9c-0.8,0-1.3,0.1-1.8,0.1c-4.6,0-9.1,0-13.7,0c-0.9-0.1-1.7-0.4-2.4-0.9
	c-5-4.2-9.9-8.6-14.9-12.9c-0.4-0.3-0.8-0.6-1.2-1l-12.3,10.9H377.5z"/>
<path class="st1" d="M279,38v3.4c-0.6,0-1.2,0.1-1.8,0.1h-10.1c-8.6,0-8.6,0-8.6,8.7c0,1,0,2,0.1,2.9c0.5,2.8,1.7,3.8,4.5,3.8
	c4.6,0,9.2,0,13.8,0h1.9v3.6c-0.7,0-1.3,0.1-1.9,0.1h-21.6c-4.4,0-8-1.5-10.1-5.6c-2.1-3.9-1.9-8.7,0.5-12.4
	c1.6-2.8,4.5-4.5,7.7-4.5C261.9,37.9,270.3,38,279,38z"/>
<path class="st1" d="M148.3,39.7c0,1.3-0.1,1.7-1.5,1.7c-4.5,0-9.5,0-14,0c-3.8,0-4.9,1-5.1,4.7c-0.1,2.2-0.1,4.3,0.1,6.5
	c0.2,2.9,1.6,4.2,4.5,4.2c4.8,0,9.6,0,14.5,0c1.6,0,1.6,0.8,1.6,1.9s0,1.8-1.5,1.8c-7.8,0-15.4,0-23.1,0c-6.2-0.1-10.6-5-10.6-11.5
	c0-6.6,4.3-11.2,10.7-11.2c7.6,0,15.4,0,23.1,0C148.2,38,148.3,38.4,148.3,39.7z"/>
<path class="st0" d="M438.1,56.8v3.8h-22.2c-6.8,0-11-4.2-11.1-10.9c0-3.9,0-7.8,0-11.8h14.5v1.8c0,4.1,0,8.1,0,12.2s1.1,4.9,5,4.9
	H438.1z"/>
<rect x="332" y="37.9" class="st0" width="13.5" height="22.6"/>
<path class="st0" d="M23.3,48.7c0.2-1,0.7-2,1.5-2.7c2-2.3,4-4.5,6.1-6.7c1.6-1.7,3.4-1.8,5.2-0.1c2.4,2.3,4.8,4.7,7.1,7.1
	c1.9,2,1.8,3.7,0,5.7c-2.2,2.2-4.3,4.4-6.5,6.6c-1.9,1.8-3.7,1.8-5.5-0.1c-2.1-2.2-4.2-4.5-6.2-6.8C24,50.7,23.5,49.7,23.3,48.7z"/>
<path class="st0" d="M60.2,33.7c-0.2,1-0.8,2-1.5,2.7c-2.3,2.4-4.6,4.7-7,7c-1.3,1.4-3.5,1.5-4.9,0.1c-0.1-0.1-0.1-0.1-0.2-0.2
	c-2.5-2.4-4.9-4.8-7.3-7.2c-1.8-1.8-1.7-3.6,0.1-5.3c2.1-2,4.2-3.9,6.4-5.8c1.6-1.7,4.2-1.7,5.8-0.2c0.1,0.1,0.1,0.1,0.2,0.2
	c2.3,2,4.5,4.1,6.6,6.2C59.1,31.7,60.2,32.8,60.2,33.7z"/>
<path class="st0" d="M49.4,75c-1.1-0.2-2-0.7-2.8-1.5c-2.4-2.1-4.7-4.2-7-6.4c-1.5-1.1-1.7-3.2-0.6-4.7c0.1-0.2,0.3-0.3,0.5-0.5
	c2.3-2.4,4.6-4.7,7-6.9c1.2-1.4,3.3-1.6,4.7-0.4c0.1,0.1,0.2,0.2,0.4,0.4c2.6,2.5,5.2,5,7.7,7.7c1.3,1.2,1.3,3.3,0,4.6
	c-0.1,0.1-0.1,0.1-0.2,0.2c-2.3,2.2-4.6,4.3-7,6.3C51.4,74.4,50.5,74.9,49.4,75z"/>
<path class="st0" d="M53.6,49.2c0.2-1,0.7-1.9,1.5-2.6c2.2-2.3,4.4-4.5,6.6-6.8c2-2,3.6-1.9,5.6,0.1s4,4.3,6,6.5s1.9,4,0.1,6.1
	c-1.8,2.1-3.8,4.3-5.8,6.4c-1.7,1.8-3.5,1.9-5.3,0.1c-2.4-2.4-4.9-4.8-7.2-7.3C54.3,51.1,53.8,50.2,53.6,49.2z"/>
<path class="st1" d="M31.8,9.6c1.2,0.1,2.3,0.6,3.1,1.4c2.6,1.9,5.1,3.9,7.6,5.9c1.9,1.5,1.9,3.1,0,4.8c-2.2,2-4.4,4-6.6,5.9
	c-2,1.7-3.7,1.7-5.6-0.1c-2.3-2.2-4.6-4.4-6.8-6.6c-2.1-2.1-2-3.7,0.2-5.6c1.7-1.5,3.4-2.9,5.1-4.3C29.7,10.3,30.7,9.7,31.8,9.6z"/>
<path class="st1" d="M9.7,32.2c-0.1-0.6,0.1-1.3,0.5-1.8c2.1-2.6,4.2-5.4,6.6-7.8c1.1-1.1,2.7-0.5,3.7,0.6c2.5,2.5,4.9,4.9,7.3,7.5
	c1.6,1.7,1.5,3.5,0,5.3c-2,2.3-4,4.5-6,6.8c-1.6,1.7-3.2,1.7-4.6-0.1c-2.1-2.5-4.1-5.1-6-7.8C10.4,34.1,9.9,33.2,9.7,32.2z"/>
<path class="st0" d="M88.4,66.4c-0.2,1-0.6,1.9-1.2,2.6c-1.5,2-3.2,3.9-4.8,5.7c-1.4,1.6-2.9,1.8-4.4,0.3c-2.6-2.5-5.1-5.1-7.6-7.8
	c-1.3-1.2-1.3-3.2-0.1-4.5c0,0,0,0,0,0c2.1-2.5,4.3-4.9,6.6-7.4c0.8-1.1,2.4-1.4,3.6-0.5c0.2,0.2,0.4,0.3,0.5,0.5
	c2.2,2.7,4.3,5.5,6.4,8.3C88,64.5,88.3,65.5,88.4,66.4z"/>
<path class="st0" d="M66.4,88.4c-1.1-0.1-2.2-0.6-3.1-1.3c-2.6-1.9-5.1-3.9-7.6-5.9c-1.8-1.4-1.8-2.9-0.1-4.5
	c2.3-2.1,4.6-4.2,6.9-6.2c1.3-1.4,3.4-1.5,4.8-0.2c0.1,0.1,0.1,0.1,0.2,0.2c2.6,2.4,5,4.8,7.5,7.3c1.5,1.6,1.4,3.2-0.2,4.6
	c-1.9,1.7-3.8,3.3-5.8,4.8C68.3,87.9,67.4,88.3,66.4,88.4z"/>
<path class="st1" d="M10.5,65.2c0.2-1.1,0.6-2.1,1.3-3c1.7-2.5,3.6-4.9,5.4-7.3c1.4-1.8,3.1-1.9,4.6-0.2c2.2,2.4,4.4,4.8,6.5,7.2
	c1.4,1.3,1.5,3.6,0.2,5c-0.1,0.1-0.2,0.2-0.3,0.3c-2.2,2.3-4.3,4.6-6.6,6.8c-1.8,1.8-3.5,1.7-5-0.2s-3.2-3.7-4.7-5.6
	C11.3,67.3,10.8,66.3,10.5,65.2z"/>
<path class="st1" d="M33.4,87.6c-0.7,0-1.4-0.2-2-0.6c-2.8-2.2-5.3-4.1-8-6.5c-1-1-0.4-2.5,0.6-3.6c2.4-2.4,4.8-4.7,7.2-7
	c1.3-1.4,3.5-1.4,4.8-0.2c0.1,0,0.1,0.1,0.2,0.2c2.6,2.2,5.1,4.4,7.5,6.7c1.5,1.4,1.5,3-0.1,4.2c-2.6,2-5.2,4-7.9,5.9
	C35.1,87.3,34.2,87.6,33.4,87.6z"/>
<path class="st0" d="M75.4,19c0,1.2-1,2-1.7,2.7c-2.1,2.1-4.2,4.1-6.3,6.2c-1.9,1.8-3.6,1.9-5.6,0.2c-2.3-2-4.6-4.1-6.8-6.2
	c-1.8-1.7-1.8-3.2,0.2-4.7c2.3-1.8,4.6-3.5,7-5.2c1.8-1.6,4.4-1.5,6.1,0.1c1.9,1.5,3.8,3,5.6,4.6C74.4,17.3,75.4,18.2,75.4,19z"/>
<path class="st0" d="M78.7,45c-0.6,0-1.7-1-2.3-1.6c-2.1-2.2-4.2-4.5-6.2-6.8c-1.7-1.9-1.7-3.6,0-5.4c2.2-2.3,4.3-4.6,6.6-6.8
	c1.7-1.7,3.3-1.6,4.8,0.3s3,3.6,4.5,5.5c1.6,2,1.7,3.9,0.3,6c-1.8,2.5-3.6,5-5.5,7.4C80.4,44,79.4,45,78.7,45z"/>
<path class="st1" d="M0,47.3c0-0.9,0.3-1.9,0.8-2.7c1.3-2.4,2.7-4.7,4.1-7c1-1.5,2.3-1.7,3.3-0.4c2.3,3,4.6,6.1,6.8,9.2
	c1,1.5,0.9,3.4-0.2,4.8c-1.8,2.6-3.6,5.2-5.4,7.7c-1.1,1.5-2.5,1.7-3.3,0.3c-1.9-3-3.6-6.2-5.3-9.4C0.2,49.2,0,48.3,0,47.3z"/>
<path class="st1" d="M48.5,15.7c-1-0.1-2-0.6-2.8-1.3c-2.6-1.9-5.2-3.8-7.8-5.7c-2.1-1.6-2-2.8,0.2-4.2c2-1.2,4-2.3,5.9-3.5
	c2-1.3,4.5-1.4,6.6-0.2C53.5,2.3,56.3,4,59,5.6c1.7,1,1.8,2.3,0.2,3.4c-2.7,2-5.4,3.9-8.2,5.8C50.3,15.4,49.4,15.7,48.5,15.7z"/>
<path class="st1" d="M50.8,98.3c-1.2-0.1-2.4-0.4-3.4-1c-2.7-1.4-5.4-3-8-4.6c-1.9-1.2-2-2.5-0.1-3.8c2.5-1.8,5-3.6,7.6-5.3
	c1.6-1.2,3.9-1.2,5.5,0.1c2.7,1.9,5.4,3.9,8.1,5.9c1.9,1.4,1.8,2.8-0.1,4s-4.3,2.5-6.5,3.7C52.9,97.9,51.9,98.3,50.8,98.3z"/>
<path class="st0" d="M98.2,51.2c-0.2,1.2-0.7,2.3-1.4,3.3c-1.1,2-2.2,3.9-3.4,5.8c-1.1,1.7-2.3,1.8-3.6,0.2
	c-2.1-2.8-4.2-5.6-6.2-8.4c-1.1-1.5-1.2-3.5-0.1-5c1.8-2.7,3.7-5.4,5.7-8.1c0.8-1.2,2.1-1.6,2.9-0.3c2,3.2,3.8,6.6,5.6,10
	C98,49.5,98.2,50.3,98.2,51.2z"/>
<rect x="261.4" y="46.6" class="st1" width="17.6" height="3.3"/>
</svg>
