<?xml version="1.0" encoding="utf-8"?>
<!-- Generator: Adobe Illustrator 22.0.1, SVG Export Plug-In . SVG Version: 6.00 Build 0)  -->
<svg version="1.1" id="layer" xmlns="http://www.w3.org/2000/svg" xmlns:xlink="http://www.w3.org/1999/xlink" x="0px" y="0px"
	 viewBox="0 0 600.1 83" style="enable-background:new 0 0 600.1 83;" xml:space="preserve">
<style type="text/css">
	.st0{fill:#FFFFFF;}
</style>
<g>
	<path class="st0" d="M55.4,27.7c-0.1-1.7-0.2-2.5-0.5-3.6c-1.7-5.9-7.2-10.2-13.6-10.2H13.9v55.4h13.9V83H0V0h41.3
		c14,0,25.5,10.2,27.5,23.6c0.2,1.3,0.3,2.6,0.3,4.1H55.4z"/>
	<path class="st0" d="M69.2,41.5v13.7C69.2,70.5,56.3,83,41,83h0.6V69.2h-0.8c7.8,0,14.5-6.4,14.5-14.2V41.5H69.2z"/>
	<path class="st0" d="M184.2,34.4c0-6-4.6-9.4-10.6-9.4H163v32.4h10.6c5.9,0,10.6-3.4,10.6-9.4V34.4z M152.2,67.3V15h21.5
		c13.7,0,21.5,7.8,21.5,19.3V48c0,11.6-7.8,19.3-21.5,19.3H152.2z"/>
	<path class="st0" d="M239.3,33.6c0-6.1-4.6-9.4-10.6-9.4c-5.9,0-10.6,3.4-10.6,9.4v15.1c0,6,4.6,9.4,10.6,9.4
		c5.9,0,10.6-3.4,10.6-9.4V33.6z M228.8,68c-13.7,0-21.5-7.8-21.5-19.3V33.6c0-11.6,7.8-19.4,21.5-19.4c13.7,0,21.5,7.8,21.5,19.4
		v15.1C250.2,60.3,242.4,68,228.8,68"/>
	<polygon class="st0" points="291.9,38 282.7,67.3 270.9,67.3 260.5,15 271.4,15 278,50.4 288.6,15 295.3,15 305.9,50.4 312.5,15 
		323.4,15 312.9,67.3 301.2,67.3 	"/>
	<path class="st0" d="M376.2,15h10.9v37.3c0,10.4-6.3,15.7-16.9,15.7s-16.9-5.3-16.9-15.7h11c0.3,3.7,2.4,5.7,5.9,5.7
		c4.2,0,6-2.6,6-6V15z"/>
	<path class="st0" d="M432.4,33.6c0-6.1-4.6-9.4-10.6-9.4c-5.9,0-10.6,3.4-10.6,9.4v15.1c0,6,4.6,9.4,10.6,9.4
		c5.9,0,10.6-3.4,10.6-9.4V33.6z M421.8,68c-13.7,0-21.5-7.8-21.5-19.3V33.6c0-11.6,7.8-19.4,21.5-19.4s21.5,7.8,21.5,19.4v15.1
		C443.3,60.3,435.5,68,421.8,68"/>
	<polygon class="st0" points="499.5,67.3 488.6,67.3 467.5,33.6 467.5,67.3 456.6,67.3 456.6,15 467.5,15 488.6,48.7 488.6,15 
		499.5,15 	"/>
	<polygon class="st0" points="524.8,35.9 546,35.9 546,45.9 524.8,45.9 524.8,57.4 548.5,57.4 548.5,67.3 513.9,67.3 513.9,15 
		548.5,15 548.5,25 524.8,25 	"/>
	<path class="st0" d="M560,50.8h11.2c0.6,4.4,4.4,7.3,9.8,7.3c4.8,0,8.1-1.6,8.1-5.2c0-2.9-1.9-4.6-5.9-5.5l-9.6-2.4
		c-8.7-2.2-13-7.8-13-15.5c0-10.5,8.9-15.2,18.9-15.2c11.4,0,18.4,6.1,19.7,15H588c-1-3.5-5-5.1-8.6-5.1c-4.6,0-7.8,1.6-7.8,5.3
		c0,3.1,2.6,4.4,5.7,5.2l9.3,2.3c8.8,2.2,13.5,7.1,13.5,15.9c0,9.4-6.7,15.2-19,15.2C568.6,68,560.5,61.2,560,50.8"/>
</g>
</svg>
