<?xml version="1.0" encoding="utf-8"?>
<!-- Generator: Adobe Illustrator 22.0.1, SVG Export Plug-In . SVG Version: 6.00 Build 0)  -->
<svg version="1.1" id="Layer_1" xmlns="http://www.w3.org/2000/svg" xmlns:xlink="http://www.w3.org/1999/xlink" x="0px" y="0px"
	 viewBox="0 0 532.1 138.6" style="enable-background:new 0 0 532.1 138.6;" xml:space="preserve">
<style type="text/css">
	.st0{fill:#FFFFFF;}
	.st1{fill:#FF7100;}
</style>
<path class="st0" d="M532.1,98.5c-0.5,1.2-1.4,1.7-2.7,1.7c-0.6,0-1.1,0-1.7,0c-174.5,0-349,0-523.4,0c-0.5,0-1,0-1.6,0
	c-1.2,0-2.2-0.4-2.7-1.7c0-0.2,0-0.4,0-0.6c0.5-1.2,1.4-1.7,2.7-1.7c0.6,0,1.1,0,1.7,0c174.4,0,348.8,0,523.2,0c0.6,0,1.2,0,1.8,0
	c1.3,0,2.2,0.5,2.7,1.7C532.1,98.1,532.1,98.3,532.1,98.5z"/>
<path class="st0" d="M171.8,81.3c-7.5,0.2-14.8-1.1-21.6-4.3c-11.7-5.6-18.8-14.8-20.5-27.8c-1.3-9.6,2.1-18,8.3-25.2
	c6.7-7.9,15.6-12.1,25.7-13.7c10.4-1.6,20.7-0.7,30.5,3.3c9.4,3.9,16.5,10.1,19.8,20c4.3,12.8,0.1,27.7-10.4,36.8
	c-7.2,6.3-15.8,9.5-25.2,10.6C176.2,81.2,174,81.2,171.8,81.3z M141.1,43c-0.1,1.8,0,3.7,0.3,5.6c1.3,9.5,5.5,17.4,13.6,22.8
	c8.7,5.9,18.4,7.2,28.5,4.7c10.7-2.6,17.3-9.6,19.7-20.4c1.2-5.3,1.3-10.6,0.4-15.9c-1.7-10.1-6.7-18.1-16-22.7
	c-10-5-20.3-4.9-30.5-0.9c-6.7,2.6-11.3,7.5-13.9,14.1C141.6,34.3,141,38.6,141.1,43z"/>
<path class="st0" d="M305.8,67.6c1.1-2.2,2.2-4.3,3.1-6.4c6.5-13.7,12.9-27.3,18.7-41.3c0.5-1.3,1-2.6,1.4-4c0.6-1.9-0.1-2.9-2.1-3
	c-0.8-0.1-1.7-0.1-2.5-0.2c-0.6-0.1-1.4-0.1-1.4-0.9c0-0.7,0.7-0.8,1.3-0.8c1.2-0.1,2.4-0.2,3.5-0.1c5.1,0.3,10.2,0.3,15.3,0
	c0.8,0,1.6,0.1,2.4,0.2c0.4,0,0.9,0.2,0.9,0.7c0,0.6-0.4,0.8-0.9,0.9c-0.5,0.1-1,0.2-1.5,0.2c-3.1,0-5.4,1.5-7.1,4
	c-2.3,3.5-3.8,7.5-5.7,11.2c-7.3,14.6-14.5,29.3-21.8,43.9c-1.2,2.5-2.6,4.8-3.9,7.2c-1.5,2.7-3.1,2.8-4.5,0
	c-2.3-4.5-4.5-9.1-6.7-13.6c-5.6-11.8-11.2-23.6-16.8-35.3c-1.8-3.9-3.8-7.7-5.5-11.7c-1.8-3.9-4.8-5.8-9-5.8c-0.7,0-1.3-0.1-2-0.2
	c-0.5-0.1-0.9-0.4-0.9-0.9s0.4-0.7,0.9-0.7c2.2-0.4,4.4-0.2,6.7-0.1c4.8,0.2,9.6,0.2,14.5,0c1.8-0.1,3.7-0.2,5.5,0.1
	c0.5,0.1,1.1,0.1,1.1,0.8c0,0.8-0.6,0.9-1.2,0.9c-0.7,0.1-1.3,0.1-2,0.1c-2.8,0.2-3.5,1.2-2.4,3.8c1.3,3.1,2.7,6.2,4.1,9.4
	c6.1,13.6,12.1,27.2,18.2,40.8C305.5,67,305.6,67.2,305.8,67.6z"/>
<path class="st0" d="M97.4,67.6c1.8-3.7,3.4-7,5-10.3c6-12.6,11.9-25.2,17.1-38.2c0.4-1,0.8-2.1,1.1-3.2c0.6-1.9-0.1-2.9-2.1-3.1
	c-0.9-0.1-1.9-0.1-2.8-0.2c-0.5-0.1-1.1-0.3-1.1-0.9c0-0.6,0.6-0.7,1-0.8c1.2-0.3,2.5-0.2,3.7-0.2c5.3,0.3,10.6,0.3,15.9,0
	c0.7,0,1.4,0.1,2.1,0.2c0.4,0.1,0.7,0.3,0.7,0.8c0,0.4-0.3,0.7-0.7,0.8c-0.6,0.1-1.3,0.2-2,0.3c-2.9,0.1-5.1,1.4-6.7,3.7
	c-2,2.9-3.3,6.2-4.9,9.3c-8.7,17.7-17.2,35.5-26.5,52.9c-0.6,1.1-1,2.5-2.5,2.6c-1.6,0-2.1-1.4-2.7-2.6c-3.6-7.5-7.2-15-10.8-22.5
	C75.7,44.3,70,32.4,64.4,20.5c-0.4-0.9-0.9-1.8-1.3-2.7c-1.6-3.4-4.4-4.9-8.1-5c-0.8,0-1.6-0.1-2.4-0.1c-0.5-0.1-0.9-0.3-1-0.9
	c0-0.6,0.4-0.8,0.9-0.8c2.1-0.3,4.2-0.2,6.4-0.1c4.9,0.2,9.8,0.2,14.7,0c1.8-0.1,3.6-0.2,5.4,0.1c0.6,0.1,1.3,0.1,1.2,0.9
	c0,0.7-0.7,0.8-1.3,0.9c-0.8,0.1-1.7,0.1-2.5,0.2c-2.1,0.2-2.7,1.1-2,3.1c1.8,4.3,3.6,8.5,5.5,12.7c5.4,12.3,10.9,24.5,16.4,36.8
	C96.6,66.1,96.9,66.6,97.4,67.6z"/>
<path class="st0" d="M367,28.3c0,3.7,0.1,7.5,0,11.2c0,1.4,0.3,1.9,1.8,1.9c5.9-0.2,11.8,0.2,17.7-0.3c1.8-0.1,3.5-0.4,4.8-1.7
	c0.4-0.4,0.8-0.7,1.4-0.4s0.5,0.9,0.4,1.4c-0.8,3.2-1,6.4-1.2,9.7c-0.1,0.9,0.1,2.4-1.2,2.3c-1.3,0-0.9-1.4-1-2.3
	c-0.3-2.3-1.1-3.2-3.3-3.8c-2.9-0.8-5.8-0.5-8.7-0.7c-3-0.2-6,0-8.9-0.1c-1.2,0-1.6,0.4-1.6,1.6c0,7.2,0,14.5,0,21.7
	c0,5,1.7,6.9,6.7,7.1c4.9,0.3,9.7,0.4,14.6-0.2c3.9-0.5,6.1-2.5,6.9-6.3c0.1-0.3,0.1-0.6,0.2-0.8c0.2-0.6,0.5-1.1,1.2-1
	s0.9,0.7,0.8,1.3c-0.1,3.3-0.6,6.5-1.6,9.6c-0.5,1.4-1.7,1.9-3,1.9c-5.2,0.1-10.4,0-15.6-0.1c-6.7-0.1-13.3-0.7-20-0.3
	c-2.1,0.1-4.3,0.1-6.4,0.1c-0.7,0-1.5,0-1.5-0.9c-0.1-0.9,0.8-0.9,1.4-1c4.5-0.5,4.8-0.7,5.5-5.2c0.5-3.4,0.6-6.9,0.6-10.3
	c0-14,0-27.9,0-41.9c0-1.5-0.1-2.9-0.3-4.4c-0.2-1.9-1.2-2.9-3.1-3.4c-1.3-0.3-2.5-0.2-3.8-0.3c-0.7-0.1-1.7,0-1.7-1
	s1.1-0.9,1.8-0.9c1.9-0.1,3.9,0.1,5.8,0.1c11.2,0.1,22.3,0.1,33.5,0c1.5,0,3.1-0.2,4.6-0.7c1.1-0.3,1.7,0.1,1.4,1.1
	c-0.8,3.1-0.8,6.4-1.3,9.5c0,0.3-0.1,0.6-0.2,0.8c-0.2,0.5-0.6,0.8-1.1,0.7c-0.6-0.1-0.8-0.5-0.8-1c-0.1-0.5-0.1-1-0.2-1.5
	c-0.4-2.6-1.2-3.3-3.8-3.9c-3-0.7-6.1-0.7-9.2-0.8c-3.2-0.1-6.3,0-9.5-0.1c-1.2,0-1.7,0.3-1.7,1.6C367,20.6,367,24.4,367,28.3z"/>
<path class="st0" d="M20.2,28.3c0,3.8,0,7.7,0,11.5c0,1.3,0.4,1.7,1.7,1.6c6-0.2,12,0.2,18-0.3c1.8-0.1,3.5-0.4,4.8-1.7
	c0.4-0.4,0.8-0.7,1.4-0.4c0.6,0.3,0.4,0.9,0.3,1.4c-0.7,3.3-1,6.7-1.2,10.1c0,0.4-0.1,0.8-0.3,1.2c-0.1,0.4-0.5,0.7-1,0.7
	c-0.6-0.1-0.8-0.4-0.8-1c0-0.9-0.1-1.8-0.4-2.6c-0.4-1.2-1.2-2-2.4-2.3c-1.1-0.3-2.3-0.6-3.5-0.6c-5-0.3-9.9-0.3-14.9-0.4
	c-1.2,0-1.7,0.4-1.7,1.6c0,7.2,0,14.4,0,21.6c0,1,0.1,2,0.3,3c0.4,1.9,1.4,3.2,3.3,3.7c1.4,0.4,2.8,0.7,4.2,0.7
	c4.5,0,9,0.3,13.5-0.3c4.1-0.5,6.1-2.3,7-6.3v-0.1c0.3-0.8,0.3-2,1.5-1.7c1,0.2,0.8,1.3,0.7,2.2c-0.3,2.5-0.7,5.1-1.3,7.5
	c-0.5,2.2-1.4,3-3.6,3c-5.3,0.1-10.7,0-16-0.1c-6.6-0.1-13.1-0.7-19.7-0.2c-2,0.2-4.1,0.1-6.1,0.1c-0.7,0-1.5,0-1.4-1
	c0-0.8,0.7-0.8,1.4-0.9c4.6-0.5,5.1-1.1,5.6-5.8c0.4-4,0.5-8,0.5-12c0.1-11.7,0.1-23.5,0-35.2c0-2.5-0.1-5.1-0.3-7.6
	c-0.2-3.4-1.6-4.6-4.9-4.8c-0.9,0-1.9-0.1-2.8-0.2C1.6,12.6,1,12.4,1,11.8c0-0.7,0.6-0.9,1.1-0.9c1.6-0.1,3.2-0.2,4.8-0.1
	c11.8,0.4,23.6,0.2,35.5,0.1c1.4,0,2.9-0.2,4.3-0.6c1.3-0.3,1.8,0.1,1.5,1.3c-0.8,2.9-0.9,6-1.2,9c0,0.3-0.1,0.7-0.2,1
	c-0.2,0.6-0.6,1-1.3,0.9c-0.6-0.1-0.8-0.6-0.9-1.1c-0.1-0.8-0.2-1.6-0.3-2.4c-0.3-1.4-1.2-2.2-2.5-2.6c-1.6-0.5-3.3-0.7-5-0.9
	c-5-0.4-9.9-0.3-14.9-0.4c-1.2,0-1.6,0.4-1.6,1.6C20.3,20.5,20.2,24.4,20.2,28.3z"/>
<path class="st0" d="M257.7,80.4c-10,0-19.2-0.7-28.4-0.5c-2.4,0-4.8,0.2-7.2,0.3c-0.5,0-1,0-1.6,0s-1.5,0-1.5-0.9s0.8-0.9,1.4-1
	c0.7-0.1,1.4-0.2,2.1-0.3c1.7-0.1,2.6-1.2,2.9-2.8c0.6-2.4,0.8-4.9,0.9-7.3c0.2-16.2,0.2-32.3,0-48.5c0-1.1-0.1-2.2-0.3-3.2
	c-0.3-1.6-1.2-2.6-2.8-3c-1.1-0.3-2.2-0.2-3.2-0.4c-0.9-0.1-2.5,0.3-2.5-1.1c0-1.2,1.5-0.9,2.5-0.9c3,0,6,0.1,9.1,0.2
	c4.6,0.1,9.2-0.1,13.7-0.2c0.9,0,2.3-0.3,2.3,0.9c0.1,1.3-1.4,0.7-2.2,0.9c-1,0.2-2.1,0.2-3.1,0.4c-1.7,0.4-2.6,1.5-2.8,3.1
	c-0.2,1.2-0.3,2.4-0.3,3.7c0,14.4,0,28.8,0.1,43.3c0,2.8,0.2,5.7,0.8,8.4c0.4,1.9,1.6,3.1,3.4,3.5c2.5,0.7,5.1,0.9,7.7,0.9
	c4,0,8,0.2,12-0.3s6.5-2.7,7.6-6.6c0.2-0.8,0.3-2.2,1.6-2c1.3,0.2,0.9,1.5,0.8,2.4c-0.3,2.8-0.8,5.5-1.5,8.2
	c-0.4,1.4-1.3,2.2-2.8,2.4C263.3,80.6,260.1,80.3,257.7,80.4z"/>
<path class="st0" d="M414.6,133.4c1.4-3.5,2.8-6.9,4.1-10.2c0.9-2.1,1.7-4.2,2.6-6.3c0.4-1.1,2.8-1.7,3.8-1c0.4,0.3,0.3,0.7,0.3,1
	c0,6.6,0,13.2,0,19.9c0,0.8-0.3,1.2-1.2,1.2c-0.9,0-1.2-0.4-1.2-1.3c0-5.2,0-10.3,0-15.5c0-0.5,0-1-0.3-1.5c-1.5,3.6-3,7.1-4.5,10.7
	c-0.9,2.1-1.8,4.3-2.7,6.4c-0.2,0.6-0.4,1.2-1.2,1.2c-0.8,0-1-0.6-1.2-1.2c-2.4-5.7-4.7-11.3-7.3-17c0,0.4-0.1,0.8-0.1,1.3
	c0,5.2,0,10.3,0,15.5c0,0.9-0.1,1.6-1.3,1.5c-1.1,0-1.1-0.8-1.1-1.5c0-5.2,0-10.3,0-15.5c0-1-0.1-2,0-3c0.1-0.8-0.6-1.9,0.8-2.2
	c1.8-0.4,2.8,0,3.4,1.4c2,4.9,4.1,9.9,6.1,14.8C414,132.5,414,132.9,414.6,133.4z"/>
<path class="st0" d="M387,138.5c-6.8,0-11.6-4.8-11.6-11.7c0-6.9,4.8-11.7,11.7-11.7c6.7,0,11.6,5,11.7,11.8
	C398.7,133.6,393.7,138.5,387,138.5z M386.9,136.2c4.9,0.3,9-3.4,9.1-9.4c0.1-5.4-3.8-9.5-8.9-9.6c-5.2-0.1-9.1,4-9.1,9.5
	C378,132.4,381.6,136.2,386.9,136.2z"/>
<path class="st0" d="M123.2,115.1c6.7,0,11.6,5.1,11.6,11.9c0,6.6-5.1,11.5-11.8,11.5c-6.8,0-11.6-4.9-11.6-11.8
	C111.5,119.9,116.3,115.1,123.2,115.1z M123,136.2c4.9,0.3,9-3.4,9.1-9.4c0-5.4-3.9-9.5-9-9.5c-5.2,0-9,4-9,9.6
	C114.1,132.4,117.7,136.2,123,136.2z"/>
<path class="st0" d="M485.8,133.8c0-2.9,0-5.8,0-8.8c0-2.7,0-5.4,0-8.1c0-0.8,0.2-1.4,1.1-1.4c1,0,1.3,0.5,1.3,1.4
	c0,6.4,0,12.8,0,19.1c0,0.6,0.4,1.6-0.6,1.8s-2.2,0.4-2.9-0.7c-1.5-2.2-3-4.4-4.6-6.7c-2.5-3.6-4.9-7.2-7.5-11
	c-0.3,0.6-0.2,1.1-0.2,1.6c0,5.1,0,10.2,0,15.3c0,0.7,0.2,1.5-0.9,1.6c-1.2,0.1-1.5-0.4-1.5-1.5c0-3.9,0-7.8,0-11.8
	c0-2.4,0-4.7,0-7.1c0-0.6-0.3-1.6,0.6-1.8c1.1-0.2,2.2-0.5,3.1,0.8c2.2,3.2,4.4,6.4,6.6,9.6c1.8,2.6,3.5,5.1,5.3,7.7
	C485.5,133.8,485.6,133.8,485.8,133.8z"/>
<path class="st0" d="M167.1,115.7c2.4,0,4.8-0.1,7.1,0.8c4.4,1.7,7.1,5.6,7.1,10.5c0,4.6-2.8,8.5-7.1,10.1c-1.5,0.6-3.1,0.9-4.7,0.9
	c-1.9,0-3.9-0.1-5.8,0c-1.2,0-1.8-0.3-1.8-1.7c0.1-6.3,0.1-12.7,0-19c0-1.2,0.4-1.7,1.6-1.6C164.8,115.8,166,115.7,167.1,115.7z
	 M164.4,126.8c0,2.5,0,4.9,0,7.4c0,1,0.3,1.5,1.4,1.5c1.6-0.1,3.1,0,4.7-0.1c4.7-0.3,8.3-4.1,8.3-8.8s-3.6-8.5-8.3-8.8
	c-1.5-0.1-2.9,0-4.4-0.1c-1.2-0.1-1.7,0.4-1.7,1.6C164.4,122,164.4,124.4,164.4,126.8z"/>
<path class="st0" d="M323.9,131.5c0,1.1-0.1,2.3,0,3.4c0.1,1.2-0.4,1.8-1.4,2.3c-5,2.2-11.7,2-15.5-2c-3.1-3.3-4.1-8.8-2.2-13.1
	c2-4.6,5.6-6.8,10.6-6.9c2.7-0.1,5.2,0.5,7.3,2.1c0.5,0.4,1.2,0.8,0.5,1.6c-0.5,0.6-1,1.2-2,0.5c-4.2-3.1-10.1-2.4-12.9,1.6
	c-3.2,4.5-2.2,11.1,2.3,14c3.2,2.1,6.7,1.7,10.1,0.4c0.5-0.2,0.8-0.6,0.8-1.2c0-1.6,0-3.1,0-4.7c0-0.8-0.3-1.1-1.1-1.1
	c-1,0-2.1,0-3.1,0c-0.7,0-1-0.3-1-1s0.2-1.1,1-1.1c1.9,0,3.8,0,5.7,0c0.8,0,1,0.5,1,1.2C323.8,128.8,323.8,130.2,323.9,131.5
	L323.9,131.5z"/>
<path class="st0" d="M231.3,132.9c0,1.2,0,2.4,0,3.5c0,0.9-0.1,1.6-1.3,1.5c-1.1,0-1.2-0.7-1.2-1.5c0-4.3,0-8.6,0-12.9
	c0-2.1,0-4.3,0-6.4c0-1.1,0.3-1.6,1.4-1.5c2.3,0.1,4.5-0.1,6.8,0.1c4.1,0.2,6.3,2.6,6.1,6.6c-0.1,2.3-1.6,4.1-4.2,4.9
	c-1,0.3-1.2,0.6-0.6,1.5c1.6,2.4,3.1,4.9,4.6,7.3c0.3,0.5,1.2,1,0.5,1.8c-0.4,0.5-2.4,0-2.8-0.6c-1-1.6-2-3.2-3-4.8
	c-0.7-1.2-1.4-2.3-2.1-3.5c-0.4-0.7-0.8-1.2-1.7-1.2c-2.6-0.1-2.6-0.1-2.6,2.5C231.3,131.1,231.3,132,231.3,132.9z M231.4,121.6
	c0,1,0,2,0,3c0,0.5,0.1,1,0.7,1c2.2,0.1,4.5,0.1,6.6-0.7c1.4-0.5,2.2-1.9,2.1-3.4c-0.1-1.7-0.9-2.8-2.4-3.3c-1-0.3-2.1-0.5-3.2-0.5
	C231.3,117.8,231.3,117.8,231.4,121.6z"/>
<path class="st0" d="M246.8,138c-1.2,0.1-1.5-0.3-1-1.3c2.9-6.6,5.8-13.3,8.6-19.9c0.4-0.8,0.9-1.1,1.8-1.1c0.9,0,1.3,0.4,1.7,1.2
	c2.8,6.5,5.6,12.9,8.3,19.4c0.2,0.5,0.9,1.3,0.1,1.6s-1.9,0.5-2.5-0.6c-0.6-1.2-1.1-2.5-1.6-3.8c-0.3-0.9-0.9-1.2-1.8-1.2
	c-2.9,0-5.8,0-8.6,0c-1,0-1.6,0.4-1.9,1.3c-0.4,1.1-0.9,2.2-1.3,3.3C248.2,137.7,247.7,138.2,246.8,138z M256.1,118.7
	c-1.5,3.7-2.9,7-4.3,10.3c-0.3,0.7-0.1,1,0.7,1c2.4,0,4.8,0,7.2,0c0.9,0,0.9-0.4,0.7-1.1C259,125.6,257.6,122.3,256.1,118.7z"/>
<path class="st0" d="M465.1,138c-0.8,0.1-1.3-0.3-1.6-1.1c-0.5-1.2-1-2.4-1.5-3.7c-0.3-0.7-0.7-1-1.5-1c-3,0-6.1,0-9.1,0
	c-0.8,0-1.3,0.3-1.6,1.1c-0.4,1.2-1,2.4-1.4,3.5c-0.3,0.8-0.9,1.1-1.7,1.1c-1.2,0-1.4-0.4-0.9-1.4c1.2-2.7,2.4-5.5,3.6-8.2
	c1.6-3.7,3.2-7.5,4.8-11.2c0.4-0.9,0.8-1.5,1.9-1.5s1.4,0.7,1.8,1.5c2.8,6.4,5.5,12.8,8.3,19.3C466.6,137.8,466.5,138,465.1,138z
	 M455.8,118.6c-1.5,3.7-2.9,7-4.3,10.3c-0.3,0.7,0.1,0.9,0.7,0.9c2.4,0,4.8,0,7.2,0c0.7,0,0.9-0.3,0.7-1
	C458.8,125.6,457.4,122.3,455.8,118.6z"/>
<path class="st0" d="M42.3,126.9c0,3.2,0,6.4,0,9.6c0,0.8-0.1,1.5-1.2,1.5c-1.1,0-1.2-0.6-1.2-1.4c0-2.6,0-5.1,0-7.7
	c0-1-0.3-1.4-1.4-1.4c-3.1,0-6.2,0-9.4,0c-1.1,0-1.4,0.4-1.4,1.4c0,2.5,0,5,0,7.5c0,0.9,0,1.6-1.2,1.6c-1.1,0-1.2-0.7-1.2-1.5
	c0-6.4,0-12.9,0-19.3c0-0.8,0-1.5,1.2-1.5s1.2,0.7,1.2,1.6c0,2.1,0,4.3,0,6.4c0,1.1,0.3,1.5,1.5,1.5c3.1,0,6.1,0,9.2,0
	c1.1,0,1.5-0.5,1.4-1.5c-0.1-2.2,0-4.3,0-6.5c0-0.9,0.2-1.4,1.3-1.4c1,0,1.2,0.6,1.1,1.4C42.3,120.3,42.3,123.6,42.3,126.9z"/>
<path class="st0" d="M48.2,126.8c0-3.2,0-6.3,0-9.5c0-1.1,0.3-1.6,1.5-1.6c3.7,0.1,7.4,0,11.1,0c0.8,0,1.4,0.1,1.4,1.1
	s-0.6,1.2-1.4,1.2c-2.8,0-5.7,0-8.5,0c-1.2,0-1.8,0.3-1.7,1.6c0.1,1.5,0.1,2.9,0,4.4c0,1.1,0.4,1.4,1.4,1.4c2.6,0,5.3,0,7.9,0
	c0.7,0,1.4,0,1.4,1.1s-0.7,1-1.5,1c-2.6,0-5.3,0-7.9,0c-1.1,0-1.4,0.4-1.4,1.4c0.1,1.8,0.1,3.6,0,5.4c0,1,0.4,1.4,1.4,1.4
	c3,0,6,0,9.1,0c0.8,0,1.5,0.1,1.4,1.2c0,0.7-0.3,1.1-1,1.1c-4.1,0-8.1,0-12.2,0c-1,0-1.1-0.6-1.1-1.4
	C48.2,133.3,48.2,130,48.2,126.8z"/>
<path class="st0" d="M286.3,126.9c0-3.2,0-6.4,0-9.6c0-1.2,0.4-1.6,1.6-1.6c3.6,0.1,7.3,0,10.9,0c0.8,0,1.5,0,1.5,1.1
	s-0.7,1.2-1.5,1.2c-2.8,0-5.7,0-8.5,0c-1.2,0-1.6,0.4-1.6,1.6c0.1,1.5,0.1,3,0,4.5c0,0.9,0.3,1.3,1.3,1.2c2.7,0,5.4,0,8.1,0
	c0.7,0,1.4,0,1.5,1c0,1.1-0.7,1.1-1.4,1.1c-2.6,0-5.2,0-7.8,0c-1.1,0-1.6,0.3-1.6,1.5c0.1,1.7,0.1,3.5,0,5.2c0,1.1,0.4,1.5,1.5,1.5
	c3,0,6,0,8.9,0c0.8,0,1.5,0.1,1.5,1.2c0,0.8-0.3,1.1-1.1,1.1c-4,0-8,0-12,0c-1.1,0-1.2-0.6-1.2-1.5
	C286.3,133.3,286.3,130.1,286.3,126.9z"/>
<path class="st0" d="M156.1,124.1c0,2.1,0,4.3,0,6.4c-0.1,4.9-3.3,8.1-8.3,8.1s-8.2-3.1-8.3-8.1c0-4.4,0-8.8,0-13.2
	c0-0.9,0-1.6,1.2-1.6c1.3,0,1.2,0.8,1.2,1.6c0,3.5,0,7.1,0,10.6c0,1.2,0.1,2.4,0.3,3.5c0.5,3.2,2.5,4.8,5.7,4.7c3.1,0,5-1.7,5.5-4.8
	c0.2-1.2,0.3-2.3,0.3-3.5c0-3.6,0-7.3,0-10.9c0-0.8,0.2-1.3,1.2-1.3s1.2,0.5,1.2,1.3C156.1,119.4,156.1,121.8,156.1,124.1z"/>
<path class="st0" d="M85.2,138.5c-6.8,0-11.5-4.8-11.5-11.7c0-6.8,4.8-11.6,11.6-11.7c2.7,0,5.1,0.7,7.2,2.5
	c0.4,0.4,1.2,0.8,0.4,1.5c-0.6,0.5-1.1,1.4-2.1,0.4c-2.6-2.6-5.7-2.8-8.9-1.5c-3.4,1.3-5,4.1-5.4,7.6c-0.5,4.4,1.4,8.1,4.8,9.8
	c3.5,1.8,7.3,1.2,10-1.6c0.8-0.8,1.3-0.3,1.9,0.1c0.8,0.6,0.2,1.1-0.2,1.5C90.9,137.7,88.3,138.7,85.2,138.5z"/>
<path class="st0" d="M364.8,138.5c-6.2,0-11-4.2-11.6-10c-0.7-6.7,3-12.1,9.3-13.2c3.3-0.6,6.4-0.1,9.1,2.1c0.5,0.4,1.5,0.9,0.7,1.8
	c-0.6,0.7-1.3,1.2-2.4,0.2c-3.3-3.1-9.2-2.5-12,1.1c-3.1,3.9-2.8,9.9,0.6,13.4c3.2,3.3,8.9,3.3,12.1,0c0.8-0.9,1.4-0.5,2,0.1
	c0.8,0.6,0.1,1.1-0.3,1.5C370.6,137.5,368.1,138.5,364.8,138.5z"/>
<path class="st0" d="M200.2,115.1c2.1-0.1,3.9,0.4,5.5,1.7c0.5,0.4,1.2,0.8,0.4,1.6c-0.6,0.6-1.1,1.3-2.1,0.4c-1.8-1.7-4-1.9-6.3-1
	c-1.5,0.6-2.3,1.8-2.3,3.4c0,1.5,0.8,2.5,2.2,3.2c1.7,0.8,3.5,1.2,5.2,1.9c2.3,0.9,4.1,2.4,4.2,5.2c0.2,4.1-2.3,6.8-6.4,7
	c-2.6,0.2-5.1-0.3-7.1-2.1c-0.5-0.4-1.4-0.9-0.5-1.7c0.7-0.6,1.3-1.4,2.3-0.3c1.8,2,4.1,2.4,6.6,1.5c1.6-0.6,2.6-1.8,2.7-3.5
	c0.1-1.7-0.7-2.9-2.3-3.6c-1.2-0.5-2.4-0.9-3.6-1.3c-1-0.3-2-0.7-2.9-1.2c-2.1-1.2-2.9-3-2.8-5.3c0.1-2.3,1.2-3.8,3.1-4.9
	C197.3,115.3,198.8,115.1,200.2,115.1z"/>
<path class="st0" d="M431.3,126.7c0-3.2,0-6.3,0-9.5c0-1.1,0.3-1.5,1.5-1.5c2.1,0.1,4.3,0,6.4,0.1c4.1,0.2,6.4,2.6,6.2,6.5
	c-0.1,2.3-1.5,4-3.9,4.9c-2,0.7-4.1,0.6-6.2,0.5c-1.2,0-1.7,0.4-1.6,1.6c0.1,2.3,0,4.6,0,6.9c0,0.9,0.1,1.7-1.2,1.7
	c-1.3,0-1.2-0.8-1.2-1.6C431.3,133.1,431.3,129.9,431.3,126.7z M433.7,121.7c0,0.9,0,1.8,0,2.7c0,0.9,0.4,1.2,1.3,1.2
	c1.6,0,3.1-0.1,4.6-0.3c2-0.3,3.3-1.8,3.3-3.7c0-1.9-1-3.1-3.1-3.6c-0.6-0.1-1.3-0.2-2-0.3C433.7,117.7,433.7,117.7,433.7,121.7z"/>
<path class="st0" d="M333.4,132.2c0.6-2.5-0.5-4.9-2.3-7.3c-1.7-2.3-3.3-4.9-4.8-7.3c-0.3-0.5-1.2-1-0.6-1.8
	c0.4-0.5,2.5-0.1,2.9,0.6c0.8,1.1,1.5,2.3,2.2,3.5c1.1,1.8,2.2,3.5,3.3,5.3c0.5,0.9,0.8,0.8,1.3,0c1.7-2.7,3.4-5.4,5-8
	c0.2-0.4,0.4-0.8,0.7-1c0.8-0.7,1.8-0.6,2.5-0.2c0.6,0.4-0.2,1.1-0.5,1.5c-2.2,3.3-4.3,6.7-6.6,10c-0.5,0.8-0.8,1.6-0.7,2.5
	c0,2.2,0,4.3,0,6.5c0,0.9,0,1.6-1.2,1.6s-1.2-0.8-1.2-1.6C333.4,135.2,333.4,134,333.4,132.2z"/>
<path class="st0" d="M499.4,132.3c0.7-2.6-0.6-5.1-2.4-7.5c-1.8-2.5-3.4-5.2-5.2-7.8c-0.6-0.9-0.5-1.3,0.7-1.3
	c1.2-0.1,1.9,0.4,2.5,1.4c1.6,2.7,3.3,5.4,5,8.1c0.5,0.9,0.8,0.9,1.4,0c1.7-2.8,3.4-5.5,5.2-8.3c0.2-0.4,0.5-0.8,0.8-1
	c0.7-0.4,1.7-0.5,2.3,0c0.5,0.5-0.3,1.1-0.6,1.5c-2.2,3.4-4.4,6.7-6.6,10.1c-0.4,0.7-0.6,1.3-0.6,2.1c0,2.3,0,4.6,0,6.9
	c0,0.8-0.1,1.4-1.1,1.4s-1.3-0.5-1.3-1.4C499.4,135.4,499.4,134.1,499.4,132.3z"/>
<path class="st0" d="M275.3,128c0,2.8,0,5.7,0,8.5c0,0.8,0,1.5-1.1,1.5c-1.2,0-1.3-0.6-1.3-1.5c0-5.6,0-11.1,0-16.7
	c0-1.3-0.4-1.8-1.7-1.7c-1.5,0.1-3,0-4.5,0c-0.8,0-1.4-0.2-1.4-1.2s0.6-1.1,1.4-1.1c4.9,0,9.8,0,14.7,0c0.8,0,1.4,0.1,1.4,1.1
	s-0.6,1.2-1.4,1.2c-1.4,0-2.8,0-4.3,0c-1.9,0-1.9,0-1.9,1.9C275.3,122.6,275.3,125.3,275.3,128z"/>
<path class="st0" d="M215.9,128c0-2.8-0.1-5.6,0-8.4c0-1.3-0.4-1.7-1.7-1.6c-1.5,0.1-3,0-4.5,0c-0.8,0-1.4-0.2-1.4-1.2
	s0.6-1.1,1.4-1.1c4.9,0,9.8,0,14.7,0c0.8,0,1.4,0.1,1.4,1.1s-0.5,1.2-1.4,1.2c-1.6,0-3.1,0.1-4.7,0c-1.2,0-1.6,0.4-1.5,1.6
	c0,5.6,0,11.2,0,16.9c0,0.6,0.2,1.4-0.8,1.5s-1.6-0.1-1.6-1.3C215.9,133.7,215.9,130.9,215.9,128z"/>
<path class="st0" d="M12.1,128c0-2.7-0.1-5.5,0-8.2c0-1.4-0.5-1.8-1.8-1.8c-1.5,0.1-2.9,0-4.4,0c-0.8,0-1.4-0.2-1.4-1.2
	s0.6-1.1,1.4-1.1c4.9,0,9.8,0,14.7,0c0.7,0,1.3,0.1,1.3,1s-0.4,1.3-1.3,1.3c-0.4,0-0.9,0-1.3,0c-1.6,0.1-3.6-0.7-4.6,0.4
	s-0.3,3.1-0.3,4.7c0,4.4,0,8.9,0,13.3c0,0.6,0.2,1.4-0.8,1.5s-1.6-0.1-1.6-1.3C12.2,133.8,12.1,130.9,12.1,128z"/>
<path class="st0" d="M97.6,126.8c0-3.1,0-6.1,0-9.2c0-0.9-0.2-1.9,1.2-1.8c1.4,0,1.1,1,1.1,1.8c0,5.3,0,10.6,0,15.9
	c0,2.3,0,2.3,2.4,2.3c2.2,0,4.3,0,6.5,0c0.8,0,1.5,0.1,1.5,1.2c0,1.1-0.7,1.1-1.5,1.1c-3.3,0-6.5,0-9.8,0c-1.2,0-1.6-0.4-1.5-1.6
	C97.6,133.2,97.6,130,97.6,126.8z"/>
<path class="st0" d="M524.4,117.9c-0.4,1.1-0.9,2.1-1.4,3.2c-0.1,0.3-0.2,0.7-0.6,0.7c-0.4,0-0.5-0.4-0.6-0.7
	c-0.5-1.1-0.9-2.1-1.7-3.1c0,0.9,0,1.8,0,2.8c0,0.4,0.1,1-0.4,1.1c-0.6,0-0.4-0.6-0.4-1c0-1.4,0-2.8,0-4.3c0-0.4-0.1-0.9,0.5-1
	s0.8,0.4,1,0.8c0.6,1.2,0.9,2.6,1.7,3.8c0.8-1.2,1.1-2.5,1.6-3.7c0.2-0.5,0.4-1.1,1-0.9s0.5,0.8,0.5,1.2c0,1.5,0,2.9,0,4.4
	c0,0.3,0,0.6-0.3,0.7c-0.5,0-0.5-0.4-0.5-0.7c0-1.1,0-2.1,0-3.2C524.6,118,524.5,118,524.4,117.9z"/>
<path class="st0" d="M518.1,115.7c-1.9,0.8-1.9,0.8-1.9,2.9c0,0.9,0,1.8,0,2.7c0,0.2,0,0.5-0.3,0.6c-0.4,0-0.5-0.3-0.5-0.6
	c0-0.9-0.1-1.8-0.1-2.7c0-2.1,0-2.1-1.7-2.9C515.1,115.4,516.6,115.4,518.1,115.7z"/>
<g>
	<path class="st1" d="M518.6,35.3c-1-0.6-1.5-1.4-1.8-2.5c-1.4-5.9-4.5-10.8-9.4-14.4c-5.9-4.4-12.5-6.1-19.8-5
		c-1.7,0.3-2.5-0.4-3.5-1.5c-5-5.6-11.2-9.1-18.5-10.9c-2.3-0.6-4.7-0.7-7-1.1c-1.2,0-2.5,0-3.7,0c-0.3,0.1-0.6,0.2-1,0.2
		c-5.1,0.3-9.9,1.7-14.3,4.1c-11.1,6.2-17.5,15.4-18.5,28.2c-0.1,1.4-0.6,2.4-1.9,3.4c-8.9,6.3-12.7,15-11.2,25.8
		c0.9,6.3,4.1,11.5,8.9,15.6c4.7,4,10.2,6.4,16.6,6.4c23.8,0,47.7,0,71.5,0c6.7,0,12.5-2.5,17.4-7C535.3,65,533.4,44.5,518.6,35.3z
		 M455.4,71.3c-3.3-0.1-6.6-0.1-9.9,0c-1.2,0-1.7-0.3-1.7-1.7c0-14.2,0-28.3,0-42.5c0-1.3,0.5-1.7,1.7-1.7c3.4,0.1,6.7,0.1,10.1,0
		c1.4,0,1.8,0.5,1.7,1.8c-0.1,7,0,14.1,0,21.1s0,14.1,0,21.1C457.3,70.9,456.8,71.4,455.4,71.3z M497.6,48.8
		c-2.5,2.1-5.6,2.9-8.7,3.5c-2.9,0.5-5.8,0.3-8.6,0.3c-1.3,0-1.8,0.4-1.8,1.7c0.1,5.1,0,10.1,0.1,15.2c0,1.4-0.4,1.9-1.9,1.9
		c-3.4-0.1-6.7-0.1-10.1,0c-1.4,0-1.8-0.5-1.8-1.8c0-7,0-14.1,0-21.1s0-14,0-21c0-1.9,0-1.9,1.9-1.9c6.6,0,13.2,0,19.9,0
		c2.4,0,4.7,0.4,7,1.2c4.5,1.6,7.3,4.6,8,9.4C502.3,40.9,501.7,45.4,497.6,48.8z"/>
	<path class="st1" d="M483.5,30.2c-1.2-0.3-2.4-0.2-3.7-0.4c-1-0.1-1.4,0.3-1.4,1.4c0.1,2.6,0,5.2,0,7.8s0,5.2,0,7.8
		c0,0.5-0.1,1.1,0.7,1.3c3.6,1,7.6-1.2,8.6-4.8c0.8-2.9,0.8-5.8,0.1-8.7C487.3,32.4,485.9,30.8,483.5,30.2z"/>
</g>
</svg>
