<svg xmlns="http://www.w3.org/2000/svg" id="Layer_1" x="0" y="0" version="1.1" viewBox="0 0 446 130.7" xml:space="preserve">
  <style>
    .st0{fill:#fff}
  </style>
  <g id="Ox7YI8.tif">
    <path d="M72.9 108c-6.3 0-12.5-.1-18.8.1-6.8.2-13.8 0-20.5-1.6a43.3 43.3 0 01-31-31.2 74.6 74.6 0 01-2-29c1-8.9 3.3-17.9 7.9-25.7 4.9-8.5 13-14.3 22.2-17.4C40.4-.1 50.3.3 60.4.3c8.3 0 16.6.4 24.8 0L99.5 0c1.9 0 3.1.6 4.1 2.2l13.8 21.3 5.9 9.2c.7 1.1.9 1.1 1.5 0l8.1-12.6 6.3-9.7 5.9-9.2c.7-1.1 1.6-1.2 2.6-1.2l9.4.2L170 0c.8 0 1.8-.2 2.2.5.4.6-.5 1.3-.9 1.8l-11.9 18-11 16.4-9.9 14.8c-.5.8-.5 1.3 0 2.1L150 70.5l11.1 16.6 13.2 19.4c.2.3.7.7.4 1.1-.2.4-.7.3-1.1.3h-25.2c-.8 0-1.3-.3-1.7-1l-13.4-22-7.8-12.9c-.6-1-.8-1.1-1.5-.1l-13.7 21.6-8.7 13.5c-.5.7-1.1.8-1.9.8H73.9c-.2.2-.6.2-1 .2zM57.8 63.1H28.1c-1.5 0-1.6.1-1.5 1.5.3 3.8.8 7.6 2 11.3 1.7 5.3 5.2 9 10.4 11.1 3.8 1.5 7.7 1.8 11.7 1.9l34.9.1c1.2 0 1.9-.4 2.5-1.3l12.5-18 10.3-14.4c.5-.7.6-1.2.1-2L98.1 34.2 89.3 21c-.8-1.2-1.6-1.7-3.1-1.7l-34.1.1c-2.1 0-4.3.1-6.4.5-4.2.8-8.1 2.2-11.3 5.2a19.8 19.8 0 00-5.7 9.6c-.7 2.5-1.3 5.1-1.6 7.7-.2 1.4-.2 1.4 1.2 1.4h59.2c2 0 2 0 2 2V61c0 2 0 2-2 2l-29.7.1zM177.5 54.4V3c0-2.8 0-2.9 2.9-2.9h47.7c6.3.1 12.7.1 18.9 1.3a29.6 29.6 0 0124.6 20.3c1.7 5 2.4 10.2 2.2 15.5a35.6 35.6 0 01-5.9 19.8 29.4 29.4 0 01-15.3 11.3 37 37 0 01-7.5 1.5c-8.7 1.2-17.5 1.3-26.3 1.3-4.4 0-8.7-.3-13.1-.4l-3.7.2c-.6 0-.9.3-.9.9v34.5c0 1.9 0 1.9-1.9 1.9h-19.8c-1.9 0-1.9 0-1.9-2V54.4zm34.8-34.7l-10.1.1c-1.4 0-1.5.1-1.5 1.5v14.2l-.1 3.3-.4 11.8c0 .6.2 1 .9 1 9.2 0 18.5.2 27.8-.4 5-.3 10.3-1 14.3-4a14 14 0 005.5-10.3c.3-4-1.2-8.1-4-11.1-4.4-4.7-11.4-6.1-17.9-6.1-4.7-.2-9.6-.1-14.5 0zM310.4 82.8h-21.6c-1.1 0-1.7.4-2.1 1.5l-8.5 22.9c-.2.7-.7.9-1.3.9h-22.7c-1.1 0-1.3-.3-.8-1.3l7.8-18.5 7.3-17.1 7.6-17.8 7.2-17.1 9.5-22.6c1.6-3.9 3.2-7.7 5-11.5.6-1.3 1.3-1.9 3-2 6.9-.3 13.9 0 20.8-.2 1.1 0 1.6.5 2 1.5l5.4 12.9 8.1 19 7.3 17.2 7.1 16.6 7.1 16.3 9.9 23.2c.5 1.1.3 1.3-.9 1.3h-23.4c-.8 0-1.2-.2-1.5-1.1-3-7.8-6.1-15.5-9-23.3-.3-.8-.9-.9-1.6-.9h-11.9l-9.8.1zm-.3-61l-.6 1.3-8.4 22.3-6.2 16c-.6 1.6-.6 1.6 1.1 1.6 2.6.1 5.2-.2 7.8-.2 7.1 0 14.3-.1 21.4.2 1.2 0 1.3-.1.8-1.3l-3.6-8.3a578 578 0 01-9.7-24.8l-2.6-6.8zM421.6 108h-22.2a40.7 40.7 0 01-35.5-21.6c-4.5-8.4-6.4-18-6.5-27.5-.3-15.9 1.8-35.2 14-46.8 3.8-3.6 8.3-6.3 13.2-8.1 5.2-1.9 10.6-3 16.1-3.4 3.3-.2 6.7-.4 10-.4h33.4c1.9 0 1.9 0 1.9 1.9v15.5c0 1.8 0 1.8-1.9 1.8-13 0-26-.1-39 .1-4.6.1-8.8 1.6-12.6 4.4a22.4 22.4 0 00-7.4 11.2c-.9 2.4-1.4 5-1.9 7.6-1.2 6.4-.8 12.8-.7 19.2a49.2 49.2 0 002.5 13.9c2.1 6 6.1 9.8 12.2 11.6a39 39 0 0010.8 1.3h36c1.8 0 1.9 0 1.9 1.8v16.2c0 1.4-.1 1.5-1.5 1.5-7.4-.2-15.1-.2-22.8-.2z" class="st0"/>
    <path d="M174.9 52.3v47.6c0 .6.3 1.4-.3 1.6s-.9-.7-1.2-1.1l-4.7-6.9-8.5-12.9-11.3-17-7-9.9c-.5-.8-.7-1.4-.1-2.2l5.8-8.2 8-11.7 6-9.1 11.9-18.3.6-.8c.1-.2.3-.5.6-.4.4.1.3.4.3.7v1.1l-.1 47.5z" class="st0"/>
  </g>
  <path d="M183.4 114.5c1.8 0 3.2.5 4.2 1.5s1.5 2.4 1.6 4.1c0 .8 0 1.6-.2 2.3-.2.8-.5 1.5-1 2.1-.6.8-1.3 1.3-2.1 1.5-.8.2-1.7.3-2.6.3h-2.7v4.3h-3.1v-16.1h5.9zm-2.9 2.6v6.8h.6c1.4 0 2.6-.1 3.5-.4.9-.3 1.3-1.4 1.3-3.3 0-1.6-.5-2.5-1.4-2.7-.9-.2-1.9-.4-3.1-.3h-.5l-.4-.1zM196.4 114.5c1.7 0 2.7.4 2.9 1.2s.4 1.8.4 3.1v.8h-3v-.2-.2c0-1.1-.1-1.7-.3-1.9-.2-.2-.8-.3-1.9-.3h-.4v9.6H191v-11.9h5.4zM204.5 126.1a4 4 0 01-2.1-1.3 4 4 0 01-1-1.8l-.4-2.1v-.2-.2-.3-.3c0-.7.2-1.3.4-2s.6-1.2 1-1.7c.6-.7 1.3-1.1 2.1-1.3l2.4-.3h4.6v2.5h-4.1c-.9 0-1.6.1-2.1.4-.5.2-.8.9-.8 1.9h7.1v2.5h-7.1c0 1 .3 1.7.8 1.9.5.2 1.2.3 2.1.3h4.2v2.5H207l-2.5-.5zM220.3 118.9v2.8h-7.6v-2.8h7.6zM228.3 114.5c1.8 0 3.2.5 4.2 1.5s1.5 2.4 1.6 4.1c0 .8 0 1.6-.2 2.3s-.5 1.5-1 2.1c-.6.8-1.3 1.3-2.1 1.5-.8.2-1.7.3-2.6.3h-2.7v4.3h-3.1v-16.1h5.9zm-2.9 2.6v6.8h.6c1.4 0 2.6-.1 3.5-.4.9-.3 1.3-1.4 1.3-3.3 0-1.6-.5-2.5-1.4-2.7-.9-.2-1.9-.4-3.1-.3h-.5l-.4-.1zM241.3 114.5c1.7 0 2.7.4 2.9 1.2.3.8.4 1.8.4 3.1v.8h-3v-.2-.2c0-1.1-.1-1.7-.3-1.9-.2-.2-.8-.3-1.9-.3h-.4v9.6h-3v-11.9h5.3zM249.4 126.1a4 4 0 01-2.1-1.3c-.5-.5-.8-1.1-1-1.8l-.4-2.1v-.2-.2-.3-.3c0-.7.2-1.3.4-2s.6-1.2 1-1.7a4 4 0 012.1-1.3l2.4-.3h4.6v2.5h-4.1c-.9 0-1.6.1-2.1.4-.5.2-.8.9-.8 1.9h7.1v2.5h-7.1c0 1 .3 1.7.8 1.9.5.2 1.2.3 2.1.3h4.2v2.5h-4.6l-2.5-.5zM264.9 123.9h.2l1-.2c.3-.1.5-.5.5-.9a1 1 0 00-.5-.9l-1-.3h-.1H262.2c-1.3 0-2.3-.2-3-.5-.7-.4-1.1-1.3-1.1-2.7 0-1.4.4-2.4 1.1-2.9a5 5 0 013.1-.9h6.7v2.5h-5.5-.1-.7l-.8.2a1 1 0 00-.5.6c-.1.5 0 .9.3 1.1.3.2.7.3 1.1.3h2.8c1.1 0 2 .3 2.8.8.8.5 1.1 1.4 1.2 2.6 0 1-.3 1.8-.8 2.6-.6.8-1.4 1.2-2.4 1.2h-8.1V124h6.6zM278.2 123.9c.1 0 .1 0 0 0h.2l1-.2c.3-.1.5-.5.5-.9a1 1 0 00-.5-.9l-1-.3h-.1H275.5c-1.3 0-2.3-.2-3-.5-.7-.4-1.1-1.3-1.1-2.7 0-1.4.4-2.4 1.1-2.9a5 5 0 013.1-.9h6.7v2.5h-5.5-.1-.7l-.8.2a1 1 0 00-.5.6c-.1.5 0 .9.3 1.1.3.2.7.3 1.1.3h2.8c1.1 0 2 .3 2.8.8.8.5 1.1 1.4 1.2 2.6 0 1-.3 1.8-.8 2.6-.6.8-1.4 1.2-2.4 1.2h-8.1V124h6.6zM300.3 123.9s.1 0 0 0h.2l1-.2c.3-.1.5-.5.5-.9a1 1 0 00-.5-.9l-1-.3h-.1H297.6c-1.3 0-2.3-.2-3-.5-.7-.4-1.1-1.3-1.1-2.7 0-1.4.4-2.4 1.1-2.9a5 5 0 013.1-.9h6.7v2.5h-5.5-.1-.7l-.8.2a1 1 0 00-.5.6c-.1.5 0 .9.3 1.1.3.2.7.3 1.1.3h2.8c1.1 0 2 .3 2.8.8.8.5 1.1 1.4 1.2 2.6 0 1-.3 1.8-.8 2.6-.6.8-1.4 1.2-2.4 1.2h-8.1V124h6.6zM310.1 126.1a4 4 0 01-2.1-1.3 4 4 0 01-1-1.8l-.4-2.1v-.2-.2-.3-.3c0-.7.2-1.3.4-2s.6-1.2 1-1.7a4 4 0 012.1-1.3l2.4-.3h4.6v2.5H313c-.9 0-1.6.1-2.1.4-.5.2-.8.9-.8 1.9h7.1v2.5H310c0 1 .3 1.7.8 1.9s1.2.3 2.1.3h4.2v2.5h-4.6l-2.4-.5zM324.4 114.5c1.7 0 2.7.4 2.9 1.2.3.8.4 1.8.4 3.1v.8h-3v-.2-.2c0-1.1-.1-1.7-.3-1.9-.2-.2-.8-.3-1.9-.3h-.4v9.6H319v-11.9h5.4zM331.9 114.5l3.3 8.4 3.5-8.4h3.4l-5.3 11.9h-3.4l-5-11.9h3.5zM343.4 113.2v-2.9h3.3v2.9h-3.3zm0 13.2v-11.9h3.3v11.9h-3.3zM355.8 123.9h3.3v2.5h-4.3l-2.4-.3c-.8-.2-1.5-.6-2.1-1.1-.5-.5-.9-1.1-1.2-1.7-.3-.7-.5-1.4-.5-2.1v-.3-.3-.4-.4c.1-.7.2-1.4.5-2s.7-1.2 1.2-1.7c.6-.6 1.3-1 2.1-1.1l2.4-.3h4.3v2.6h-3.3-.1H355.1l-.9.1c-.3 0-.6.1-.8.3-.6.3-.9.8-1.1 1.3a5 5 0 000 3.4c.2.5.6 1 1.1 1.3l.8.3.9.1h.7v-.2zM364.1 126.1a4 4 0 01-2.1-1.3c-.5-.5-.8-1.1-1-1.8l-.4-2.1v-.2-.2-.3-.3c0-.7.2-1.3.4-2s.6-1.2 1-1.7a4 4 0 012.1-1.3l2.4-.3h4.6v2.5H367c-.9 0-1.6.1-2.1.4-.5.2-.8.9-.8 1.9h7.1v2.5H364c0 1 .3 1.7.8 1.9.5.2 1.2.3 2.1.3h4.2v2.5h-4.6l-2.4-.5zM391.9 129.5c-.7.8-1.8 1.2-3.4 1.2h-6.1v-2.4h5.6a2 2 0 001.4-.5c.3-.3.5-.8.4-1.4h-2.5l-2.4-.2c-.7-.1-1.4-.5-2.1-1.1-.5-.5-.9-1.1-1.2-1.8-.3-.7-.5-1.4-.5-2.1v-.3-.3-.4-.4l.5-2c.3-.7.7-1.2 1.2-1.7.6-.6 1.3-1 2.1-1.1l2.4-.3h5.7V126c-.1 1.5-.4 2.7-1.1 3.5zm-3.7-5.6h1.6V117H388.4c-1 0-1.9.1-2.7.4-.8.3-1.3 1.1-1.4 2.4v.6l.2 1.7c.1.6.5 1 1 1.4l.9.4 1 .1h.6l.2-.1c-.1.1-.1.1 0 0zM400.8 114.5c1.7 0 2.7.4 2.9 1.2.3.8.4 1.8.4 3.1v.8h-3v-.2-.2c0-1.1-.1-1.7-.3-1.9-.2-.2-.8-.3-1.9-.3h-.4v9.6h-3.1v-11.9h5.4zM416.1 125c-.6.6-1.3 1-2.1 1.3-.8.3-1.6.4-2.5.4-.9 0-1.7-.1-2.5-.4-.8-.3-1.5-.7-2-1.2-.6-.6-1-1.3-1.3-2-.3-.8-.4-1.6-.4-2.5 0-.8.1-1.7.4-2.5.3-.8.7-1.5 1.3-2 .6-.6 1.3-1 2.1-1.2s1.6-.4 2.5-.4c.8 0 1.7.1 2.5.4.8.3 1.5.7 2.1 1.2.6.6 1 1.3 1.3 2 .3.8.4 1.6.4 2.5 0 .8-.1 1.7-.4 2.5-.3.6-.8 1.3-1.4 1.9zm-5.6-1.1l.3.1.3.1c.7.1 1.4 0 2-.4s1-.9 1.3-1.6l.2-.8.1-.9c0-.7-.2-1.3-.5-1.9-.3-.6-.7-1-1.4-1.3l-.4-.1-.4-.1c-.7-.1-1.3.1-1.9.5s-1 .9-1.2 1.6l-.2.8c-.1.3 0 .6 0 .8 0 .7.2 1.4.5 2s.7.9 1.3 1.2zM424.6 126.4c-1.5 0-2.7-.3-3.6-.9-.9-.6-1.3-1.7-1.3-3.4v-7.5h3.1v7.3c0 .8.1 1.3.4 1.6.3.3.8.4 1.6.4h2.5v-9.2h3.1v11.9h-5.8zM439.4 114.5c1.8 0 3.2.5 4.2 1.5s1.5 2.4 1.6 4.1c0 .8 0 1.6-.2 2.3-.2.8-.5 1.5-1 2.1-.6.8-1.3 1.3-2.1 1.5-.8.2-1.7.3-2.6.3h-2.7v4.3h-3.1v-16.1h5.9zm-2.9 2.6v6.8h.6c1.4 0 2.6-.1 3.5-.4.9-.3 1.3-1.4 1.3-3.3 0-1.6-.5-2.5-1.3-2.7-.9-.2-1.9-.4-3.1-.3h-.5l-.5-.1z" class="st0"/>
</svg>
