<?xml version="1.0" encoding="utf-8"?>
<!-- Generator: Adobe Illustrator 22.0.1, SVG Export Plug-In . SVG Version: 6.00 Build 0)  -->
<svg version="1.1" id="Layer_1" xmlns="http://www.w3.org/2000/svg" xmlns:xlink="http://www.w3.org/1999/xlink" x="0px" y="0px"
	 viewBox="0 0 1532.4 413.6" style="enable-background:new 0 0 1532.4 413.6;" xml:space="preserve">
<style type="text/css">
	.st0{fill:#FFFFFF;stroke:#000000;stroke-miterlimit:10;}
</style>
<g>
	<path class="st0" d="M228.4,0c27.2,0,54.5,0,81.7,0c59,0,107.9,45.5,112.3,104.4c2.4,32-7.3,59.9-28.5,83.7
		C342,246.5,290,304.7,237.9,363c-24.8,27.8-55.7,44.2-92.6,49.3C76.3,422,13.5,375.9,2,307.1c-1-6.3-1.6-12.6-1.6-19
		c0-48.1-1.2-96.3,0.4-144.3C2.7,86.7,30.3,44.1,80.4,16.6C101.7,5,124.9-0.1,149.2,0C175.6,0.1,202,0,228.4,0z M232.9,64.7
		c-27.8,0-55.7-0.1-83.5,0c-27.1,0.2-49.4,10.9-66.2,32.1c-18.9,23.7-21.5,51.2-15.6,79.5c7.7,36.8,40.3,63.8,77.9,64.7
		c31.4,0.7,62.9,0.2,94.3,0.3c3.5,0,7,0.1,10.4-0.2c15.3-1.1,27.8-16.2,26.2-31.5c-1.7-16.4-13.9-27.5-30.5-27.5
		c-32.4-0.1-64.8,0-97.2,0c-12,0-21.9-8.6-23.9-20.4c-0.7-4.1-0.5-8.1-0.4-12.2c0.1-15.2,10.6-25.7,25.9-25.7
		c55.9,0,111.8,0,167.7,0c1.8,0,3.6,0,5.4-0.1c16.1-1,28.9-16.1,27.1-32.1c-1.8-16-14-27-30.1-27C291.2,64.7,262,64.7,232.9,64.7z
		 M123.9,338.4c5.8,0,11.5,0,17.3,0c16.3-0.1,29.3-12.8,29.7-29.1c0.4-15.7-12.3-29.4-28.4-29.9c-12.5-0.4-25-0.4-37.4,0
		c-16.4,0.6-28.2,14-27.9,31c0.3,15.2,13.4,27.8,29.1,28C112.1,338.5,118,338.4,123.9,338.4z"/>
	<path class="st0" d="M1481.3,180.8c-11.9,0-23.8,0.1-35.6-0.1c-2.8,0-3.4,0.9-3.3,3.5c0.2,12,6.7,18.7,20.7,20.9
		c16.1,2.4,32,0.7,47.9-2.4c2.7-0.5,5.4-1.1,8.2-1.1c4.7,0.1,7.3,1.9,8.1,6.5c1,6.2,1,12.4,0,18.6c-0.8,4.8-4.1,7.3-8.5,8.8
		c-10,3.4-20.3,4.5-30.8,5c-14.8,0.8-29.5,0.3-43.9-3.8c-20.8-5.9-33.9-19.2-37-40.8c-2.7-19.2-3-38.6,0.4-57.7
		c4.1-22.9,18.3-36.9,41.1-41.8c15.9-3.5,32-3.6,47.7,1.1c17.2,5.1,28.3,16.6,33.1,33.9c3.3,12.2,4,24.6,1.8,37.1
		c-1.6,9.3-5,12.3-14.6,12.4C1504.8,180.9,1493.1,180.8,1481.3,180.8z M1469.8,151.1c8.3,0,16.5,0,24.8,0c1.2,0,2.7,0.4,2.8-1.7
		c0.3-8.6-1.7-17.1-12.5-21.1c-7.9-2.9-16.2-2.9-24.4-1.6c-12.2,2-18.1,9.2-18.1,21.5c0,2.4,0.8,3,3.1,3
		C1453.6,151,1461.7,151.1,1469.8,151.1z"/>
	<path class="st0" d="M688.4,168.1c0.2-9.8-0.4-19.1,1.5-28.4c4.7-22.9,18.5-37.1,41-42.7c18-4.5,36.2-4.2,54,0.9
		c19.6,5.6,31.6,18.7,35.3,38.6c3.6,19.3,3.6,39,0.5,58.3c-3.9,23.8-18.7,38.2-42.1,43.5c-16.1,3.7-32.4,3.5-48.5-0.2
		c-23.7-5.4-37.5-21.1-40.8-45.3C688.2,184.4,688.7,176,688.4,168.1z M785.2,167.6C785.2,167.6,785.2,167.6,785.2,167.6
		c0-6,0.2-12-0.1-18c-0.6-11.2-6-17.6-16.8-19.8c-9-1.8-18.1-1.8-27.1,0.4c-8.6,2.1-14.1,7.5-15,16.3c-1.6,13.9-1.6,28,0,41.9
		c1,8.5,6.3,13.8,14.5,16c8.8,2.4,17.8,2.4,26.7,0.8c11.8-2.2,17.3-8.5,17.8-20.4C785.4,179.1,785.2,173.3,785.2,167.6z"/>
	<path class="st0" d="M972.8,180.5c0,15.6,0,28.4,0,41.2c0,0.8,0,1.7,0,2.5c-0.4,9.7-3.8,13.1-13.5,13.2c-4.8,0-9.6,0.5-14.4-0.5
		c-5.4-1.1-7.9-3.7-8.5-9.2c-0.3-2.4-0.4-4.8-0.4-7.2c0-23.4,0-46.8,0-70.2c0-14.7-4.6-19.9-19.3-21.4c-5.5-0.6-11-0.5-16.5,0.3
		c-12.5,1.7-17.6,7.4-17.7,20.1c0,23.8,0,47.5,0,71.3c0,3,0,6-0.7,8.9c-0.9,4-3.3,6.4-7.2,7.1c-6.9,1.2-13.8,1.2-20.8,0.1
		c-4.3-0.7-6.7-3.4-7.6-7.6c-0.6-2.7-0.7-5.5-0.7-8.2c0-24.6-0.3-49.2,0.2-73.8c0.5-20.9,8.6-37.7,28.7-46.8
		c7.7-3.5,16-5.2,24.4-5.9c12.2-0.9,24.5-0.7,36.5,2.4c22.4,5.6,35,20.5,36.9,43.9C973.5,154.9,972.4,169.1,972.8,180.5z"/>
	<path class="st0" d="M1382.2,184.4c0,12.5,0,25,0,37.4c0,1.8,0,3.6-0.2,5.4c-0.6,6-3,8.9-9.1,9.8c-6.2,0.9-12.4,0.9-18.6-0.1
		c-5.1-0.8-7.6-3.5-8.3-8.5c-0.3-2.2-0.5-4.5-0.5-6.8c0-23.5,0-47,0-70.5c0-15.7-5.1-21.2-20.8-22.2c-5.5-0.4-11-0.3-16.5,0.6
		c-10.8,1.8-15.9,7.3-16,18.2c-0.2,24.8-0.1,49.7-0.2,74.5c0,2-0.1,4.1-0.5,6.1c-0.9,5.6-3,7.8-8.5,8.7c-6.5,1-13.1,1-19.7-0.2
		c-4.1-0.7-6.6-3.2-7.4-7.3c-0.3-1.8-0.6-3.6-0.6-5.3c0-26.2-0.3-52.3,0.2-78.5c0.5-23.6,12.5-39.8,33.7-47.3
		c5.9-2.1,12-3.2,18.3-3.7c14-1.2,27.8-0.8,41.3,3.3c19.2,5.9,29.6,19.3,32.6,38.9c0.7,4.5,0.9,9.1,0.9,13.6
		C1382.2,161.8,1382.2,173.1,1382.2,184.4z"/>
	<path class="st0" d="M537.5,180.3c0,15,0.2,30-0.1,45c-0.1,8.5-3.5,11.7-11.9,12c-5.3,0.2-10.6,0.6-15.8-0.5c-5-1-7.5-3.6-8.2-8.7
		c-0.4-2.7-0.6-5.5-0.6-8.2c0-44.3,0-88.6,0-132.8c0-7.8,0.7-15.6,2.8-23.1c5-17.5,17-26.9,34.5-30.1c11.3-2.1,22.7-2,34-0.1
		c8.8,1.5,12.4,5.7,12.8,14.6c0.1,3.2,0.1,6.5,0,9.7c-0.2,7.8-3.2,10.6-11.1,10c-5.5-0.5-11-1.2-16.5-1.1c-2.8,0-5.5,0.3-8.2,1
		c-7.8,2-11.3,6.3-11.6,14.3c-0.1,4.1,0.1,8.2-0.1,12.2c-0.1,2.3,0.8,2.8,2.9,2.8c8.3-0.1,16.6,0,24.8,0c1.2,0,2.4,0,3.6,0
		c9.7,0.4,12.6,3.1,13.4,12.6c0.3,3.8,0.2,7.7-0.2,11.5c-0.7,6.8-3.8,10-10.6,10.2c-9.8,0.3-19.7,0.3-29.5,0.1
		c-3.4-0.1-4.5,0.7-4.4,4.3c0.2,14.8,0.1,29.5,0.1,44.3C537.5,180.3,537.5,180.3,537.5,180.3z"/>
	<path class="st0" d="M1004.9,132.6c0-18.7,0-37.4,0-56.1c0-12.7,2.6-15.4,15.4-15.4c3.6,0,7.2-0.1,10.8,0.1
		c6.9,0.4,10.1,3.5,10.3,10.4c0.2,7.3,0.3,14.6,0.1,21.9c-0.1,3.3,1,4,4.1,3.9c9.4-0.2,18.7-0.1,28.1-0.1c1.6,0,3.1,0.1,4.7,0.2
		c7.4,0.9,10.2,3.6,10.6,11.1c0.3,4.1,0.3,8.2,0,12.2c-0.5,7.5-3.6,10.7-11.1,10.8c-10.7,0.3-21.3,0.2-32,0.1
		c-3.1,0-4.3,0.6-4.3,4.1c0.2,17,0.1,34.1,0.1,51.1c0,2.1,0.2,4.3,0.6,6.4c1.3,7.5,6.3,11.9,14.1,12.4c7.8,0.5,15.6-0.3,23.3-1.7
		c1.2-0.2,2.4-0.4,3.6-0.5c8.5-0.9,10.8,1.2,10.9,9.8c0.1,3.7,0.1,7.4-0.2,11.1c-0.5,6.5-3.7,11.3-10.1,12.9
		c-18.2,4.6-36.4,5.1-53.9-2.5c-14.2-6.1-20.8-18.1-23.5-32.7c-1-5.4-1.3-10.9-1.3-16.5C1004.9,168.1,1004.9,150.4,1004.9,132.6z"/>
	<path class="st0" d="M1112.5,127.7c0-23.5,0-47,0-70.5c0-1.1,0-2.2,0-3.2c0.3-8.8,3.6-12.2,12.3-12.4c4.4-0.1,8.9-0.1,13.3,0.1
		c6.5,0.4,9.5,3.2,10.4,9.7c0.3,2,0.3,4.1,0.3,6.1c0,43.1,0,86.1,0,129.2c0,3.6,0.2,7.2,1.2,10.7c1.6,5.7,4.7,8.2,10.6,8.3
		c10,0.3,11.4,1.8,11.4,11.9c0,4.3,0,8.6-0.3,12.9c-0.3,3.8-2.1,6.8-5.9,8.3c-14.7,5.6-37-1.4-45.8-14.4c-5.5-8.1-7.4-17.3-7.4-27
		C1112.4,174.2,1112.5,151,1112.5,127.7z"/>
	<path class="st0" d="M599.9,182.2c0-12.7,0-25.4,0-38.1c0-28.1,16-45.9,44-49.1c6.6-0.8,13.1-1.1,19.7-0.7
		c6.6,0.4,10.2,3.6,11.2,10c0.9,5.8,1,11.7,0.1,17.6c-0.8,4.8-2.8,6.7-7.7,6.9c-4.3,0.2-8.6-0.1-12.9,0.1
		c-12.7,0.6-17.7,5.7-17.7,18.4c0,24.5,0,48.9,0,73.4c0,2.2-0.1,4.3-0.4,6.5c-0.7,6.6-3,9.2-9.6,10.1c-5.5,0.8-11,0.7-16.5,0.1
		c-7.1-0.8-9.8-3.9-10.1-11.1c-0.2-4.8-0.1-9.6-0.1-14.4C599.9,201.9,599.9,192,599.9,182.2z"/>
	<path class="st0" d="M1227.9,167.5c0,18.4,0,36.7,0,55.1c0,1.3,0,2.6-0.1,4c-0.6,6.8-3.2,9.8-10,10.6c-5.9,0.7-12,0.8-17.9-0.3
		c-4.8-0.9-7.1-3.3-7.9-8c-0.4-2.4-0.6-4.8-0.6-7.2c0-36.1,0-72.2,0-108.3c0-12.8,3.1-16,15.9-16c3.8,0,7.7-0.2,11.5,0.5
		c5.2,0.9,7.6,3,8.6,8.2c0.4,1.9,0.5,3.8,0.5,5.7C1227.9,130.4,1227.9,148.9,1227.9,167.5z"/>
	<path class="st0" d="M636.3,306c0-11.1,0-22.3,0-33.4c0-5.7,4.7-8.5,9.9-5.9c2,1,1.9,2.9,1.9,4.7c0,24.8,0,49.6,0,74.5
		c0,1.6-0.1,3.1-0.4,4.7c-2.1,14.1-9.6,22.1-23.6,24.7c-7.5,1.4-15.1,1.3-22.5-0.5c-12-2.8-18.9-10.3-20.6-23.3
		c-1.3-10-1.3-20.2,0-30.1c2.1-15,10.2-22.5,25.4-24.3c3.2-0.4,6.5-0.4,9.7-0.2C623.9,297.2,630.9,299.5,636.3,306z M636.1,336.2
		c0-4.1,0.2-8.2,0-12.2c-0.6-8.8-4.8-13.5-13.4-15.4c-5.2-1.1-10.5-1.1-15.7-0.2c-9.1,1.6-13.2,5.5-14.3,14.6
		c-1,9.3-1.1,18.7,0.1,28c0.9,7.1,5.2,11.5,12.2,12.9c6.4,1.4,12.8,1.4,19.2-0.2c6.2-1.6,9.9-5.4,11.3-11.7
		C636.7,346.8,636.2,341.5,636.1,336.2z"/>
	<path class="st0" d="M537.7,340.8c-7.3,0-14.6,0.1-22,0c-2.2,0-3.1,0.6-2.9,2.8c0.1,0.9,0,1.9,0,2.9c0.2,10.6,5.4,16.3,15.9,17.8
		c9.4,1.3,18.6,0,27.8-2.1c2.1-0.5,4.6-2,5.9,1.2c1.5,3.7,0.1,8-3.1,9.2c-5.7,2.1-11.6,3-17.6,3.3c-7,0.4-13.9,0.2-20.7-1.6
		c-10.2-2.7-16.8-9.1-18.9-19.5c-2.2-11.5-2.2-23.2-0.3-34.7c2.3-13.9,10.5-21,24.4-22.9c5.4-0.7,10.8-0.6,16.1,0.2
		c12.4,2.1,20.4,10.1,22.3,22.5c0.9,5.4,0.7,10.7,0.1,16.1c-0.4,3.4-2,4.9-5.4,4.8C552.3,340.8,545,340.8,537.7,340.8z M533.6,330.9
		c6,0,12,0,18,0c1.1,0,2.3,0.3,2.7-1.5c2.1-10.1-3.6-19.3-13.7-21.5c-4.7-1-9.5-1-14.3,0c-8.5,1.8-13,7.2-13.4,15.8
		c-0.1,1.3,0.1,2.7-0.1,4c-0.3,2.5,0.5,3.4,3.1,3.3C521.8,330.8,527.7,330.9,533.6,330.9z"/>
	<path class="st0" d="M1042.7,336.3c0,5.4,0.4,10.8-0.6,16.2c-2.1,11.9-9.2,19.7-21,22.3c-8.2,1.8-16.5,1.8-24.6-0.1
		c-11.6-2.6-18.8-9.9-20.5-21.7c-1.5-10.7-1.5-21.6-0.1-32.3c1.8-13,9.4-20.5,22.3-23.1c7.1-1.4,14.3-1.4,21.5-0.1
		c14.3,2.6,22.3,11.8,23.1,26.6C1042.9,328.2,1042.7,332.2,1042.7,336.3z M986.8,335.8c0.2,5.1-0.3,10,0.6,14.9
		c1.3,6.8,5,11.3,11.8,13c6.4,1.6,12.8,1.6,19.2,0.2c7-1.6,11.2-6.1,12-13.1c1.2-9.7,1.1-19.4,0-29.1c-0.8-6.9-5-11.2-11.8-12.9
		c-5.7-1.4-11.5-1.4-17.1-0.4c-9.1,1.6-12.9,5.8-14.3,15C986.5,327.6,987,331.8,986.8,335.8z"/>
	<path class="st0" d="M868.6,336.6c0,4.7,0,9.4,0,14c0,14.8-6.1,22.1-20.7,24.5c-8.2,1.3-16.5,1.5-24.6-0.8
		c-10.8-3.1-16.3-10.6-16.1-22.2c0.2-11.2,5.4-17.6,16.5-20.5c8.2-2.1,16.7-1.6,25-1.7c1.7,0,3.4-0.1,5,0c2.6,0.3,3.4-0.9,3.2-3.3
		c-0.1-1.4,0-2.9,0-4.3c-0.1-9.6-4.1-14.1-13.7-15c-7.5-0.7-15.1-0.4-22.5,1.2c-2.2,0.5-4.9,1.5-5.8-2.1c-1.1-4.5,0.3-7.5,4-8.2
		c10.6-2.1,21.2-2.6,31.8-0.1c11.9,2.7,17.9,10.4,18,22.6C868.6,326,868.6,331.3,868.6,336.6z M857,346.5c0-1-0.1-1.9,0-2.9
		c0.5-3.2-0.6-4.5-4-4.2c-4.9,0.3-9.8,0.1-14.7,0.1c-3.6,0-7.2,0.1-10.6,1.2c-5.8,1.8-8.6,5.6-8.7,11.7c-0.1,6.2,2.8,10.2,8.6,12.2
		c4.6,1.5,9.2,1.3,13.9,1c11.4-0.6,15.5-5.1,15.6-16.5C857,348.2,857,347.4,857,346.5z"/>
	<path class="st0" d="M728.9,328.6c-0.4,7.3,0.7,16.3-0.6,25.3c-1.5,11.1-7.8,18.1-18.7,20.7c-8.7,2.1-17.6,2.1-26.4-0.2
		c-10.9-2.9-17.1-10-18.6-21.2c-0.3-2.1-0.5-4.3-0.5-6.4c0-14.3-0.1-28.6,0-42.8c0-5,1-5.8,6.4-5.8c4.6,0.1,5.5,1,5.5,5.9
		c0,14.2,0,28.3,0,42.5c0,2.5,0.1,5,0.7,7.5c1.2,4.7,4,7.9,8.6,9.3c7.3,2.2,14.7,2.2,22,0.1c5.4-1.5,8.3-5.4,9.2-10.9
		c0.3-1.9,0.4-3.8,0.4-5.7c0-14,0-28.1,0-42.1c0-6,3.7-8.4,9.5-6.2c2.3,0.9,2.3,2.8,2.4,4.8C729,311.1,728.9,319,728.9,328.6z"/>
	<path class="st0" d="M1059.4,344.1c0.5-7.7-0.9-17.1,0.7-26.4c1.7-9.8,7.3-16.3,16.8-19.1c9.5-2.8,19.2-2.8,28.8-0.3
		c11.9,3.1,17.9,11.6,18.2,25.7c0.3,15.1,0.1,30.2,0,45.4c0,4.3-1.2,5.2-6.2,5.1c-4.8-0.1-5.7-0.9-5.7-5.3c0-13.7,0-27.4,0-41
		c0-1.7,0-3.4-0.1-5c-0.4-8.8-4.2-13.2-12.8-14.8c-5.6-1-11.2-0.9-16.8,0.4c-6.4,1.5-9.8,5.4-10.8,11.9c-0.9,6-0.4,12-0.5,18
		c-0.1,10.3,0,20.6,0,31c0,4.1-1.1,5-6,4.9c-4.6,0-5.6-0.9-5.6-5C1059.4,361.6,1059.4,353.7,1059.4,344.1z"/>
	<path class="st0" d="M898.8,331.8c0,6.1-0.1,12.2,0,18.4c0.2,10.3,5.5,15.2,15.8,14.5c3.6-0.3,7.1-0.7,10.7-1.2
		c2.2-0.3,5-1.8,5.7,1.5c0.9,4.2,0.8,7.7-3,8.9c-1.9,0.6-3.9,1.1-5.9,1.4c-5.8,0.8-11.7,1.1-17.5-0.2c-8.7-1.9-14.1-7.3-16.4-15.8
		c-1.1-4-1.3-8.1-1.3-12.1c0-20.9,0-41.8,0-62.6c0-5.8,4.9-8.6,10.2-5.9c1.6,0.8,1.7,2.2,1.7,3.7c0,4.2,0.2,8.4,0,12.6
		c-0.1,2.6,0.5,3.5,3.3,3.5c7-0.2,13.9-0.1,20.9-0.1c4.8,0,5.6,0.8,5.5,5.7c0,4.6-0.9,5.5-5.4,5.5c-7,0-13.9,0.1-20.9-0.1
		c-2.6-0.1-3.5,0.5-3.4,3.3C898.9,319,898.8,325.4,898.8,331.8z"/>
	<path class="st0" d="M744.8,336.9c-0.2-6-0.7-12,0.7-17.9c2.2-9.9,8-16.8,17.7-20c9.6-3.1,19.4-3.2,29.1-0.4
		c4.6,1.3,6.6,5.8,4.8,10.2c-1.1,2.6-3.2,1.6-4.9,1.1c-6-2-12.2-2.3-18.5-1.7c-10.6,1-15.9,5.7-17,16.1c-0.9,8.5-1,17,0.2,25.5
		c1.2,8.7,5.7,13,14.5,14.5c7.2,1.2,14.3,0.8,21.4-0.9c2-0.5,4.5-2.3,5.9,1c1.5,3.7,0.1,8-3.1,9.3c-3.1,1.2-6.5,1.8-9.8,2.2
		c-6,0.6-12,0.4-17.9-0.6c-13.6-2.5-21.7-11.1-22.9-24.8C744.5,345.8,744.8,341.3,744.8,336.9z"/>
	<path class="st0" d="M1209.8,33.6c12.1,0.1,21.9,10.1,21.8,22.2c-0.1,11.9-10.1,21.8-21.9,21.7c-12.1,0-22-9.9-21.9-22
		C1187.8,43.3,1197.7,33.5,1209.8,33.6z"/>
	<path class="st0" d="M956.8,336.5c0,10.9,0,21.8,0,32.7c0,1.9,0.3,4.3-2.1,4.8c-2.8,0.7-5.7,1-8.4-0.5c-1.2-0.7-1.2-2.2-1.2-3.6
		c0-22.4,0-44.9,0-67.3c0-3.8,1.1-4.5,5.6-4.6c4.9,0,6,0.6,6.1,4.5C956.8,313.9,956.7,325.2,956.8,336.5
		C956.8,336.5,956.8,336.5,956.8,336.5z"/>
	<path class="st0" d="M1170.8,356.6c0,4.8,0,9.7,0,14.5c0,1.6,0.3,3.3-2.1,3.3c-2.4,0-2.1-1.8-2.1-3.3c0-6,0-12,0-18
		c0-1.8,0-3.7,2.5-4c2.3-0.2,4.1,0.4,4.9,2.7c1.6,4.6,3.1,9.3,4.6,14c0.1,0.4,0.4,0.9,0.9,2.2c1.5-4.7,2.9-8.7,4.2-12.7
		c0.4-1.4,0.8-2.8,1.3-4.1c0.8-2,2.7-2.2,4.5-2c2,0.2,2.4,1.7,2.4,3.4c0,6.2,0.1,12.5,0.1,18.7c0,1.6,0.1,3.3-2.3,3.2
		c-2.2-0.1-2-1.6-2-3.1c0-4.9,0-9.8-0.7-14.9c-1.2,3.6-2.2,7.3-3.6,10.8c-0.9,2.3-0.2,6.3-4.1,6.2c-3.8-0.1-3.1-4-4.1-6.3
		c-1.4-3.5-2.5-7.1-3.7-10.7C1171.3,356.5,1171.1,356.6,1170.8,356.6z"/>
	<path class="st0" d="M1149.7,363.5c0-1.3,0-2.6,0-4c0-6,0-6-5.9-6.6c-1.2-0.1-2.2-0.2-2.2-1.7c0-1.6,0.9-2.1,2.3-2.1
		c5.3,0,10.5,0,15.8,0c1.4,0,2.4,0.4,2.4,2c0,1.7-1.2,1.7-2.5,1.8c-5.6,0.4-5.6,0.4-5.6,6.2c0,4.2,0,8.4,0,12.6
		c0,1.6-0.2,2.9-2.3,2.8c-1.9-0.1-2-1.4-2-2.8C1149.8,369,1149.7,366.2,1149.7,363.5z"/>
	<path class="st0" d="M951,266.8c4.1,0,7.5,3.4,7.5,7.5c0.1,4.2-3.5,7.7-7.8,7.6c-4.2-0.1-7.7-3.5-7.6-7.5
		C943.1,270.2,946.6,266.8,951,266.8z"/>
</g>
</svg>
