<?xml version="1.0" encoding="utf-8"?>
<!-- Generator: Adobe Illustrator 22.0.1, SVG Export Plug-In . SVG Version: 6.00 Build 0)  -->
<svg version="1.1" id="Layer_1" xmlns="http://www.w3.org/2000/svg" xmlns:xlink="http://www.w3.org/1999/xlink" x="0px" y="0px"
	 viewBox="0 0 2858.2 775" style="enable-background:new 0 0 2858.2 775;" xml:space="preserve">
<style type="text/css">
	.st0{fill:#FFFFFF;}
</style>
<path class="st0" d="M1185.9,641.9h-1.3c0.6,0,1,0.6,1.5,0.7c0.1,0,0.3-0.1,0.4-0.1L1185.9,641.9z M1186.2,642.6
	c-6,0.1-20.9,3.1-36.7,3.1c-49.9,0-67.2-23-67.2-53.1V392.3H1184c5.8,0,10.2-5.1,10.2-12.2V271.4c0-5.8-5.1-10.9-10.2-10.9h-101.8
	v-135c0-5.1-3.2-8.3-9-8.3H935c-5.8,0-9,3.2-9,8.3v138.9c0,0-69.8,17.3-74.2,17.9c-5.1,1.3-8.3,5.8-8.3,10.9v87
	c0,7,5.1,12.2,10.9,12.2h71v209.9c0,156.2,108.8,172.2,183,172.2c33.9,0,74.9-10.9,81.3-14.1c3.8-1.3,5.8-5.8,5.8-10.2v-96
	C1195.5,647.8,1191.2,643.5,1186.2,642.6z M2702.7,501.8c0-115.8-46.7-131.2-96-126.1c-38.4,2.6-69.1,21.8-69.1,21.8v225.3
	c0,0,31.4,21.8,78.1,23C2681.6,647.7,2702.7,624,2702.7,501.8z M2858.2,491.5c0,219.5-71,282.2-195.2,282.2
	c-105,0-161.3-53.1-161.3-53.1s-2.6,29.4-5.8,33.3c-1.9,3.8-5.1,5.1-9,5.1h-94.7c-6.4,0-12.2-5.1-12.2-10.9l1.3-711
	c0-5.8,5.1-10.9,10.9-10.9h136.3c5.8,0,10.9,5.1,10.9,10.9v241.3c0,0,52.5-33.9,129.3-33.9l-0.6-1.3
	C2745,243.2,2858.2,272,2858.2,491.5z M2300.2,260.5h-0.6h-133.8c-7,0-10.9,5.1-10.9,12.2v348.2c0,0-35.2,25-83.2,25
	c-48,0-62.1-21.8-62.1-69.8V272c0-5.8-5.1-10.9-10.9-10.9h-137c-5.8,0-10.9,5.1-10.9,10.9v327c0,140.8,78.7,176,186.9,176
	c89,0,161.3-49.3,161.3-49.3s3.2,25,5.1,28.8c1.3,3.2,5.8,5.8,10.2,5.8h85.8c7,0,10.9-5.1,10.9-10.9l1.3-478.1
	C2312.3,265.6,2307.2,260.5,2300.2,260.5z M783.4,259.8H647c-5.8,0-10.9,5.8-10.9,12.8v469.8c0,12.8,8.3,17.3,19.2,17.3h122.9
	c12.8,0,16-5.8,16-17.3v-471v-0.6C794.2,265,789.1,259.8,783.4,259.8z M716.2,43.5c-49.3,0-88.3,39-88.3,88.3s39,88.3,88.3,88.3
	c48,0,87-39,87-88.3S764.2,43.5,716.2,43.5z M1771.5,27.5h-135c-5.8,0-10.9,5.1-10.9,10.9v261.8h-211.8V38.4
	c0-5.8-5.1-10.9-10.9-10.9h-136.3c-5.8,0-10.9,5.1-10.9,10.9v711c0,5.8,5.8,10.9,10.9,10.9h136.3c5.8,0,10.9-5.1,10.9-10.9v-304
	h211.8l-1.3,304c0,5.8,5.1,10.9,10.9,10.9h136.3c5.8,0,10.9-5.1,10.9-10.9v-711C1782.4,32.6,1777.3,27.5,1771.5,27.5z M563.8,342.4
	v367.4c0,2.6-0.6,7-3.8,8.3c0,0-80,57-211.8,57C188.8,775,0,725.1,0,396.2C0,67.2,165.1-0.6,326.4,0c139.5,0,195.8,31.4,204.8,37.1
	c2.6,3.2,3.8,5.8,3.8,9L508.2,160c0,5.8-5.8,12.8-12.8,10.9c-23-7-57.6-21.1-138.9-21.1c-94.1,0-195.2,26.9-195.2,238.7
	s96,236.8,165.1,236.8c58.9,0,80-7,80-7V471h-94.1c-7,0-12.2-5.1-12.2-10.9V342.4c0-5.8,5.1-10.9,12.2-10.9h239.4
	C558.7,331.5,563.8,336.6,563.8,342.4z"/>
</svg>
