<?xml version="1.0" encoding="utf-8"?>
<!-- Generator: Adobe Illustrator 22.0.1, SVG Export Plug-In . SVG Version: 6.00 Build 0)  -->
<svg version="1.1" id="Layer_1" xmlns="http://www.w3.org/2000/svg" xmlns:xlink="http://www.w3.org/1999/xlink" x="0px" y="0px"
	 viewBox="0 0 363.9 134.9" style="enable-background:new 0 0 363.9 134.9;" xml:space="preserve">
<style type="text/css">
	.st0{fill:#FFFFFF;}
</style>
<g id="CNoxyC.tif">
	<g>
		<path class="st0" d="M307.1,64.1c0,7,0,14,0,21.1c0,5.8-4.7,12.4-11.3,13.4c-1,0.1-1.7,0-2.3-1c-1.2-2.4-2.4-4.8-3.7-7.2
			c-0.4-0.8-0.2-1.2,0.4-1.7c1.1-0.8,2.3-1.5,3.2-2.5c0.6-0.6,0.9-1.3,1.1-2.1c0.6-3.1,0.6-6.2,0.3-9.3c0-0.6,0-1.1-0.1-1.7
			c0-10,0-20,0-30c0-2,0-2-1.9-2c-3.6,0-7.1,0-10.7,0c-1.5,0-1.4-0.1-1.3-1.5c0.4-3.1,0.8-6.1,1.1-9.2c0.1-1,0.5-1.3,1.4-1.3
			c3.3,0,6.6,0,9.9,0c1.2,0,1.5-0.4,1.5-1.5c-0.1-3.4-0.1-6.7,0.6-10.1c1.5-7.6,6.1-12.5,13.3-15.1c4-1.4,8.2-2,12.4-2.2
			c2.5-0.1,5.1,0,7.6-0.1c0.9,0,1.3,0.2,0.9,1.2c-1.1,3.2-2.1,6.4-3.1,9.6c-0.3,0.9-0.8,1.3-1.7,1.2c-3.6-0.1-7.2,0.1-10.7,1.2
			c-4.4,1.5-6.9,5-7,9.6c0,1.6,0,3.1,0,4.7c0,0.9,0.3,1.3,1.2,1.3c6.1,0.1,12.1-0.3,18.2-0.2c1.1,0,1.1-0.7,1.1-1.4
			c0.2-3.4,0-6.8,0.7-10.2c1.5-7.4,5.9-12.2,13-14.7c4.6-1.6,9.3-2.3,14.2-2.4c2.5-0.1,5-0.1,7.4-0.2c1,0,1.3,0.3,0.9,1.3
			c-1.1,3.4-2.2,6.8-3.3,10.2c-0.3,0.8-0.9,0.8-1.5,0.8c-3.2,0-6.5-0.1-9.7,0.7c-5.6,1.4-9,4-9.4,10.9c-0.1,1.2,0,2.4,0,3.6
			c-0.1,1.1,0.4,1.4,1.4,1.4c4.5,0,8.9,0,13.4,0c2.2,0,2.2,0,1.8,2.1c-0.5,2.9-0.6,5.8-1.1,8.7c-0.2,0.9-0.5,1.2-1.4,1.2
			c-4.2,0-8.4,0-12.6,0c-1.1,0-1.5,0.3-1.5,1.4c0,10.2-0.1,20.4,0.1,30.6c0.1,4.9,0.1,9.8,0.2,14.7c0.2,8.2-2,15.9-5.9,23
			c-2.8,5.2-6.3,9.9-10.8,13.7c-3.3,2.8-7.2,5-11.2,6.8c-5.8,2.6-12,3.9-18.3,3.9c-5.2,0-10.3-0.9-15.4-2.1
			c-3.5-0.8-7.1-1.7-10.6-2.7c-7.8-2.1-15.7-4.1-23.7-5.3c-4.3-0.7-8.6-1.2-12.9-1.4c-2.6-0.1-5.3-0.4-7.9-0.4
			c-3.6,0-7.1,0.3-10.7,0.4c-1,0-1.2,0.5-1.1,1.3c0.1,1.4,0.3,2.9,0.4,4.3c0,0.3,0.2,0.8-0.1,1c-0.3,0.2-0.6-0.2-0.8-0.4
			c-4.4-3.6-8.8-7.2-13.2-10.8c-0.6-0.5-0.8-0.9-0.2-1.6c3.8-3.9,7.5-7.9,11.3-11.8c0.2-0.2,0.4-0.6,0.7-0.6
			c0.4,0.1,0.3,0.6,0.3,0.9c0.2,1.1,0.2,2.2,0.2,3.4c0,1.8,0.3,2,2,1.8c3.9-0.4,7.9-0.4,11.8-0.4c7.8,0,15.5,0.5,23.2,1.7
			c9.5,1.4,18.7,3.8,27.8,6.5c4.9,1.5,9.9,3,15.1,3.6c4.4,0.6,8.8,0,13.1-1.3c5-1.5,9.6-3.8,13.5-7.1c2.5-2.1,4.4-5,6.1-7.9
			c3.2-5.4,4.5-11.4,4.7-17.7c0.4-13.5,0.1-26.9,0.2-40.4c0-2.1-0.3-4.2-0.1-6.2c0.1-0.8-0.5-0.8-1-0.8c-2.8,0-5.6-0.1-8.4,0
			c-3.2,0.2-6.3,0.1-9.5,0.1c-1.7,0-1.7,0-1.7,1.7C307.1,49.9,307.1,57,307.1,64.1C307.1,64.1,307.1,64.1,307.1,64.1z"/>
		<path class="st0" d="M32.2,125.2c-7.5,0-14-1.1-20.1-4c-3.6-1.7-6.6-4-9.1-7.2c-0.5-0.7-0.5-1.1,0.1-1.6c2.5-2,5-4.1,7.5-6.2
			c0.5-0.5,0.9-0.3,1.3,0.1c1.9,1.5,3.8,3.1,6,4.1c8.3,3.8,16.6,3.8,24.8-0.4c5.8-3,9.3-9.8,8.7-16.1c-0.1-1.1-0.7-0.5-1-0.3
			c-1.8,1.2-3.8,2.3-5.9,3c-6,2.1-12.2,2.4-18.5,1.6c-4.6-0.6-8.9-1.9-12.9-4.3c-5.8-3.4-9.5-8.6-11.5-15C0.5,75,0,70.9,0,66.9
			c0-4.3-0.2-8.7,0.5-13c1.1-6.9,4.3-12.6,9.6-17.1c4.9-4,10.5-6.3,16.7-7.1c7.5-1,14.9-0.1,21.7,3.5c1.3,0.7,2.5,1.5,3.6,2.4
			c1,0.8,1.3,0.4,1.7-0.5c1.5-3,3.8-5.4,6.8-6.9c1.6-0.8,3.3-1.1,4.9-1.5c0.9-0.2,0.9,0.4,1,1c0.4,2.6,0.7,5.3,1.3,7.9
			c0.5,2.2,0,3.7-2,5c-1.4,0.9-1.7,2.5-1.9,4c-0.4,2.6-0.5,5.2-0.5,7.8c0,8.4-0.1,16.8,0.1,25.1c0.1,6,0.2,11.9,0.2,17.9
			c0,4.3-0.7,8.5-2.4,12.4c-3.3,7.7-9,12.6-16.8,15.3C40.4,124.5,36,125.3,32.2,125.2z M51.2,64.3c0-1.6,0-3.3,0-4.9
			c0-1.7-0.3-3.4-0.9-4.9c-2.7-7.7-8.6-11.9-16.4-12.5c-6.1-0.4-11.7,1.1-16.2,5.5c-3.2,3.2-5.2,6.9-5.3,11.5c0,1.2,0,2.4-0.1,3.6
			c-0.3,2.9-0.2,5.7,0.3,8.5c1.1,6.1,4.8,10.3,10.3,13.1c3.4,1.7,7,1.8,10.7,1.8C41.1,85.8,47.8,81,50.2,74
			C51.4,70.8,51.3,67.6,51.2,64.3z"/>
		<path class="st0" d="M162.9,5c4.7,0,9.4,0.2,14.1-0.1c3.3-0.1,6.6-0.1,10,0.1c5.6,0.3,10.9,1.6,15.5,4.8c5.2,3.7,8,8.9,9,15.1
			c1,5.8,0.9,11.6-0.8,17.2c-2.3,7.3-7.1,12.2-14.4,14.7c-4.4,1.5-9,2.1-13.7,2.1c-7.1-0.1-14.2,0-21.3,0c-1.9,0-1.9,0-1.9,2
			c0,7.5-0.1,15.1,0,22.6c0.1,4.5-1.7,8.2-4.4,11.6c-1.8,2.4-4.2,4.1-6.4,6.1c-0.7,0.6-1.1,0.7-1.5-0.4c-1.3-3.5-2.8-6.9-4.2-10.3
			c-0.3-0.8-0.1-1.2,0.5-1.6c2.5-1.7,3.6-3.9,3.6-7c-0.1-14.2,0.1-28.4-0.1-42.6c-0.2-10.9-0.1-21.7-0.2-32.6c0-1.8,0-1.8,1.8-1.8
			C153.2,5,158.1,5,162.9,5C162.9,5,162.9,5,162.9,5z M159.2,31.9C159.3,31.9,159.3,31.9,159.2,31.9c0.1,4.3,0.1,8.6,0.1,12.9
			c0,1.6,0.1,1.6,1.6,1.6c7.3,0,14.7,0,22,0c2.9,0,5.7-0.3,8.4-1.2c3.9-1.2,6.6-3.7,7.7-7.7c0.8-3.2,0.7-6.3,0.1-9.5
			c-1.3-6.7-5.8-10.4-12.6-10.4c-3.1,0-6.2,0-9.3,0c-5.6-0.1-11.2,0.1-16.8,0.2c-0.6,0-1.1,0-1.1,0.9
			C159.3,23.1,159.2,27.5,159.2,31.9z"/>
		<path class="st0" d="M141,63.9c0.2,7-1.4,13.3-4.9,19.1c-3,4.9-6.9,8.9-12,11.7c-4.6,2.5-9.4,4.1-14.6,4.3
			c-3.6,0.2-7.1,0.1-10.6-0.6c-6.8-1.3-12.7-4.6-17.5-9.6c-4.5-4.7-7.5-10.3-8.7-16.9c-1.3-7.7-1.1-15.4,2-22.7
			c2.1-4.9,5.2-9.1,9.4-12.6c5-4.1,10.7-6.6,17.1-7.4c8.3-1.1,16.2,0.1,23.4,4.4c7.2,4.3,12.2,10.6,14.8,18.6
			C140.6,56.1,141.2,60,141,63.9z M106.2,41.6c-1.9-0.1-4,0.1-6.1,0.7c-7.7,2.3-12.8,7.3-14.9,15c-1.1,3.8-1.1,7.8-0.3,11.7
			c1.6,8.5,6.7,14.2,14.9,16.5c6.2,1.7,12.4,1.4,18.2-2c4.4-2.6,7.5-6.3,9.2-11.1c1.5-4.1,1.6-8.4,1-12.7c-0.6-4.4-2.4-8.3-5.5-11.5
			C118.3,43.7,112.9,41.4,106.2,41.6z"/>
		<path class="st0" d="M275.8,54.8c0,7.9,0,15.7,0,23.6c0,1.4,0.2,2.8,0.4,4.2c0.3,2.5,1.7,4.3,3.7,5.7c1,0.7,1.4,1.5,0.7,2.7
			c-1,2.1-1.9,4.3-2.8,6.5c-0.3,0.6-0.7,0.9-1.3,0.9c-3.2,0.3-5.6-1.1-7.7-3.4c-0.5-0.5-1-1-1.3-1.6c-0.6-1.1-1.2-1.1-2.2-0.4
			c-4.8,3.3-10.2,4.8-15.9,5.1c-4.6,0.2-9.2,0.3-13.8-0.4c-5.5-0.9-10.5-3.1-14.2-7.5c-3.2-3.8-4.8-8.3-5.2-13.2
			c-0.6-6.9-0.6-13.8-0.4-20.7c0.2-8.5-0.3-17.1-0.1-25.6c0-1.6,0.1-1.7,1.7-1.7c3.4,0,6.7,0,10.1-0.1c0.6,0,0.9,0.2,0.9,0.8
			c0,0.4,0,0.9,0,1.3c0,13.9,0,27.7,0.1,41.6c0,7.2,3.6,10.7,10.1,12c4.8,1,9.7,1.1,14.4-0.1c5.9-1.5,9.1-4.9,10.1-11
			c0.2-1.3,0.3-2.6,0.3-4c0-12,0-24,0-36c0-1.1-0.1-2.2-0.2-3.4c-0.1-1.1,0.3-1.6,1.5-1.6c3.2,0.1,6.5,0.1,9.7,0
			c1.2,0,1.5,0.4,1.5,1.5C275.8,38.5,275.8,46.7,275.8,54.8C275.8,54.8,275.8,54.8,275.8,54.8z"/>
	</g>
</g>
</svg>
