<svg xmlns="http://www.w3.org/2000/svg" id="Layer_1" x="0" y="0" version="1.1" viewBox="0 0 470.4 83.4" xml:space="preserve">
  <style>
    .st0{fill:#fff}
  </style>
  <path d="M54 0v12.1H23.5c-9.2.1-11.2 2.1-11.2 11.2v36.5c0 9.4 2.2 11.5 11.4 11.5h14c7.2-.2 9.9-2.8 10.1-10 .1-8.2 0-16.3 0-24.9H59c0 10.8.7 21.7-.2 32.3-.7 8.2-8 13.9-16.3 14.3-7.1.4-14.3.4-21.5.2C9.3 82.9 3 77.3.7 65.9.6 65.2.2 64.6 0 64V20C1.3 9.6 6.5 2.6 17 0h37zM240.9 83.1h-10V65 39c-.1-5.5-1.6-7-7.2-7.2-12.1-.4-12.2-.3-12.2 12V83h-10.4V72 39c-.1-5.4-1.8-7.1-7.2-7.3-13.2-.6-13.4-.4-13.4 12.9v38.3h-10.1l-.3-4.2V38.2c.1-12.6 4.7-17.2 17.2-17.2 6.5 0 13.2-.7 18.1 4.8 8.8-6.8 18.5-5.7 28.2-3.4 4.6 1.1 7.2 5.3 7.3 9.9.2 16.8 0 33.6 0 50.8zM144.7 39.8c.9-7.1 0-8.3-6.2-8.3h-34.2V21.3c13.3 0 26.6-.4 39.8.2 7 .3 11.3 5.7 11.5 13.5.3 11 .4 22 0 33-.3 9.3-7 15.3-16.2 15.4h-19c-9.2-.3-16.1-7-16.3-16.1-.1-5.1 0-10.4.9-15.4 1.5-7.8 6.6-11.7 14.5-11.9 8.3-.4 16.6-.2 25.2-.2zM129.5 73c16 0 16.5-.5 15.7-15.4-.3-5-2.3-7.2-7.4-7.5-3-.2-6-.1-9-.1-14 0-15.4 1.5-14.6 15.5.3 5.3 2.1 7.2 7.3 7.4 2.7.2 5.4.1 8 .1zM307.1 73v9.9c-13.2 0-26.1.4-39-.2-6.6-.3-11.9-7.1-12.1-14a587 587 0 010-32.5c.3-9 5.9-14.4 15.5-15 7-.4 14-.5 21 0a16.6 16.6 0 0114 22c-.5 1.3-2.3 2.2-3.8 2.8l-32.6 15.2c-2.5 1.1-5 1.9-4 5.7.9 3.6 2.4 6.1 6.6 6h28.5l5.9.1zm-41-21.3a1754 1754 0 0026-12.1c1.9-.9 5.3-1.5 3.8-4.6a8 8 0 00-5.5-3.7c-5.6-.5-11.3-.2-17-.2-4.6 0-7.1 2.5-7.3 7.1v13.5zM436.9 73v10.3h-16.4c-6.8 0-13.7.1-20.5-.3-7.7-.4-13.8-6-14.1-13.7a441 441 0 01.1-34.5c.3-7.7 5.2-12.6 13.6-13.4 7.9-.8 16-.9 23.9-.1 9.9 1 16.5 13.2 12.5 22.1-.5 1.1-2.2 1.9-3.4 2.5L400 61.1c-2.8 1.3-5 2.4-4 6.2.9 3.5 2.6 5.6 6.5 5.6H431l5.9.1zm-40.8-21.3l25.8-12c1.9-.9 5.4-1.4 3.8-4.5a8 8 0 00-5.5-3.8c-5.8-.5-11.6-.3-17.5-.1-3.5.1-6.3 1.6-6.6 5.4-.2 4.7 0 9.5 0 15zM371 83.1h-10.2v-8c0-12.2-.1-24.3.1-36.5.1-4.7-2-6.8-6.5-6.8-5.7-.1-11.3-.2-17 0-5.8.1-7.3 1.6-7.3 7.6v43.7h-10.2v-9c0-12.3-.1-24.6.1-37 .1-9.7 5.2-15.3 14.9-15.8 7.1-.4 14.3-.4 21.5 0 9.4.6 14.6 6.1 14.7 15.5l-.1 46.3zM470.4 30.8c-10.5 2.4-10.5 2.4-10.5 14V83h-10.3V69.5 40c0-15.6 4.7-19.9 20.7-18.8l.1 9.6zM94.9 21.2v9.5l-1 .6c-9.2.9-9.6 1.3-9.6 10.6v41H74V64.4 40c.1-15.4 4.8-19.8 20.9-18.8z" class="st0"/>
</svg>
