<svg xmlns="http://www.w3.org/2000/svg" id="Layer_1" x="0" y="0" version="1.1" viewBox="0 0 511.1 166.9" xml:space="preserve">
  <style>
    .st0{fill:#fff}
  </style>
  <path d="M164.4 58.8c5.5 1.7 8.6 2.6 9.4 2.6 2.1 0 3.6-.4 4.5-1.3.9-.9 1.6-2.2 2.2-3.9h3.2l1.1 33.9h-3.4c-3-7.8-6.1-13.6-9.3-17.4a28.3 28.3 0 00-22.5-10.1c-9.4 0-17.6 3.9-24.7 11.7S114.2 95 114.2 113c0 14.8 3.5 26.4 10.6 34.7a33.2 33.2 0 0032.5 11.9 37.6 37.6 0 0013.3-4.9c.9-.9 1.3-2.3 1.3-4V139c0-6.2-.8-10.1-2.4-11.6-1.6-1.5-5.1-2.5-10.5-2.8v-3h37.2v3c-3.6.3-6 .9-7.2 2-2 1.7-3 5.1-3 10.4v17.7c0 1.9-4.2 4.4-12.6 7.5a70 70 0 01-24.2 4.7 50.7 50.7 0 01-36.1-13.8 53.1 53.1 0 01-16.2-40.7c0-15 4.3-27.8 12.9-38.5a46 46 0 0137.7-17.7c5.9 0 11.4.9 16.9 2.6zM200.4 162.3c4.2-.4 6.8-1.3 7.9-2.7 1-1.4 1.6-4.6 1.6-9.6V97.8c0-4.2-.6-7-1.7-8.3-1.2-1.3-3.7-2.2-7.7-2.5v-2.3h30.3c6.3 0 11.6.9 15.8 2.7 8 3.3 12 9.5 12 18.4 0 6-1.8 10.6-5.3 13.8a29 29 0 01-14.5 6.4l22.6 30.7a16 16 0 004.2 4.1c1.4.9 3.2 1.4 5.4 1.6v2.2h-17.7l-27.4-37.2-4.8.3v23.8c0 4.5.6 7.3 1.8 8.5 1.2 1.2 3.9 2 8.1 2.4v2.2h-30.4v-2.3zm37.4-41.8c5.8-2.6 8.7-7.6 8.7-14.8 0-7-2.6-11.7-7.8-14.3a25 25 0 00-11.1-2.1c-3.1 0-5 .2-5.7.7-.7.5-1 1.6-1 3.4v29.7c7.9-.2 13.5-1.1 16.9-2.6z" class="st0"/>
  <path d="M267.6 164.6v-2.2a7.9 7.9 0 005.8-3.5c1.3-2 3.5-7.4 6.6-16.3l21-59.2h2l25.1 68.4c1.7 4.5 3 7.3 4 8.4 1 1.1 2.7 1.8 5 2.2v2.2h-25.6v-2.2c2.9-.3 4.8-.7 5.7-1.1.9-.5 1.3-1.6 1.3-3.3l-.5-3.1a31 31 0 00-1.4-4.7l-4-11.6h-26.5l-4.7 14.5a16 16 0 00-.8 4.1c0 2 .7 3.4 2.1 4.2.9.5 2.4.8 4.8 1.1v2.2h-19.9zm47.2-31l-12.6-33.2-12.6 33.2h25.2zM353.9 84.7v2.1c-2.7 0-4.6.2-5.6.6-1.7.6-2.6 1.9-2.6 3.9 0 1 .3 2.4.9 4.2a161 161 0 003.5 8.9l17.2 42 15.6-45.5 1.6-5.1c.4-1.4.5-2.5.5-3.4 0-2.4-.9-4-2.7-4.8-1.1-.5-2.8-.8-5.3-.8v-2.1h22.4v2.1c-2.3.4-4 1-5.1 2.1a24 24 0 00-5 9.2L365 166h-1.7l-27.1-66.4a38.1 38.1 0 00-5.5-10.5 9.2 9.2 0 00-6-2.4v-2.1h29.2z" class="st0"/>
  <path d="M399 162.3c4.5-.4 7.3-1.1 8.7-2.2 1.3-1.1 2-4 2-8.6V97.8c0-4.4-.7-7.3-2-8.6-1.3-1.3-4.2-2-8.7-2.3v-2.3h32.4V87c-4.5.2-7.4 1-8.7 2.3-1.3 1.3-2 4.1-2 8.6v53.7c0 4.6.7 7.5 2 8.6 1.3 1.1 4.2 1.8 8.7 2.2v2.2H399v-2.3zM494.5 85.2c4.2 1.3 6.5 2 7 2 1 0 2-.3 2.9-.9s1.6-1.6 1.9-3h2.3l1 27.1h-2.5a42.6 42.6 0 00-5.7-13 21.2 21.2 0 00-18.1-9.3c-7.7 0-13.9 3.3-18.8 10a46 46 0 00-7.3 27.6c0 10.8 2.6 19.4 7.7 25.8a23.9 23.9 0 0019.5 9.6 29 29 0 0015.7-4.5c2.7-1.7 5.8-4.2 9-7.6l2 2.2a36.3 36.3 0 01-29 15.4 34.4 34.4 0 01-28-12.4 43.3 43.3 0 01-9.6-28.7c0-11.7 3.4-21.6 10.1-29.6a34.5 34.5 0 0127.7-12.6c4 0 8 .7 12.2 1.9z" class="st0"/>
  <g>
    <path d="M91.6 157.9s0-.1 0 0l-8.9-2.5c-7.7-2.2-15.1-4.8-22.4-8.2a84.6 84.6 0 01-21.5-14 37.7 37.7 0 01-11.5-17.8 25.4 25.4 0 01.4-15.2 40 40 0 016.1-12 77.3 77.3 0 0116.6-16.7 158 158 0 0126.3-16.3c6.2-3.1 12.6-5.8 19-8.6 7.7-3.3 15.5-6.1 23.5-8.5 5.5-1.7 11-3.4 16.5-4.9l18.9-4.8c2.8-.7 5.7-1.2 8.5-1.8a437.4 437.4 0 0131.1-5.6l6.7-.9 8.8-1.2 6.2-.6c4.4-.5 8.7-1 13.1-1.3l16.8-1c7.4-.3 14.9-.7 22.3-.8 12-.3 24 .3 36 .9l5.9.5a227.4 227.4 0 0114.8 1.5l5.8.7 6.1.7 7.8 1.3 9.2 1.6c4.1.9 8.2 1.7 12.3 2.8 4.9 1.3 9.8 2.6 14.6 4.1 7.3 2.3 14.3 5.2 21.1 8.6 3.9 2 7.8 4 11.4 6.7 4.8 3.6 9 7.8 13.2 12.1l3 2.9-.3-.9a51.5 51.5 0 00-19.4-26.5 95 95 0 00-17.7-10.3 262 262 0 00-14.6-5.9c-4.9-1.8-10-3.2-15-4.7l-8.4-2.1-10.4-2.3a295 295 0 00-9.2-1.6L326.2 4l-10.4-1.2c-3.5-.4-7-.9-10.5-1.1-4.4-.4-8.9-.7-13.3-.9-6.9-.3-13.8-.8-20.8-.8-9.7-.1-19.4.1-29.1.2-3.1 0-6.2.3-9.4.4l-12.7.8-8.2.7-7.6.8-11.5 1.2c-3 .3-5.9.8-8.9 1.2l-9.2 1.3-7.7 1.3-7.4 1.2a218 218 0 00-8.6 1.7l-10.3 2.1-13.2 3.2-10.2 2.7-16.4 4.9c-4.6 1.4-9.2 2.9-13.7 4.6-6 2.2-11.8 4.6-17.7 7-7.7 3.2-15.1 6.9-22.4 10.9a149.1 149.1 0 00-27 18.6A65.8 65.8 0 004.3 83.9a32.4 32.4 0 00.3 33.1 56 56 0 0012.7 13.9c7.2 5.7 15.2 10 23.6 13.5a194.7 194.7 0 0037.9 11.8l9.2 1.5 3.6.2z" class="st0"/>
  </g>
</svg>
