<?xml version="1.0" encoding="utf-8"?>
<!-- Generator: Adobe Illustrator 22.0.1, SVG Export Plug-In . SVG Version: 6.00 Build 0)  -->
<svg version="1.1" id="Layer_1" xmlns="http://www.w3.org/2000/svg" xmlns:xlink="http://www.w3.org/1999/xlink" x="0px" y="0px"
	 viewBox="0 0 615.9 133.1" style="enable-background:new 0 0 615.9 133.1;" xml:space="preserve">
<style type="text/css">
	.st0{fill:#FFFFFF;}
</style>
<path class="st0" d="M66.1,132.8c-2.3-0.1-4.6-0.2-6.8-0.3c-1.5-0.1-2.9-0.4-4.4-0.7c-1.1-0.2-2.2-0.4-3.3-0.6c-1-0.2-2-0.6-3-0.8
	c-2-0.4-3.9-1.2-5.9-1.9c-1.3-0.4-2.5-1-3.8-1.5c-2.8-1.2-5.5-2.8-8.1-4.4c-2.8-1.7-5.5-3.7-7.9-5.9c-1.2-1-2.4-2-3.5-3.1
	c-4.2-4.2-7.8-8.8-10.7-13.9C6.7,96.1,5,92.4,3.6,88.5c-0.9-2.5-1.5-5.2-2.2-7.8c-0.3-1.2-0.6-2.4-0.8-3.6c-0.2-1.3-0.5-2.7-0.5-4.1
	C0.1,69.6-0.1,66.2,0,62.7c0.1-2.7,0.4-5.3,0.9-7.9c0.6-3.5,1.5-7,2.7-10.4C5.2,40.1,7,36,9.5,32.1c1.5-2.3,2.9-4.6,4.6-6.8
	c2.8-3.6,5.9-6.9,9.5-9.8c3.6-3,7.5-5.5,11.6-7.8c2.7-1.5,5.4-2.6,8.2-3.7c1.6-0.6,3.3-1,4.9-1.5c1.6-0.4,3.2-0.9,4.8-1.2
	c1.1-0.3,2.3-0.4,3.5-0.5c0.1,0,0.3,0,0.4,0c1.4-0.5,2.8-0.3,4.2-0.4c1.3-0.1,2.6-0.3,4-0.3c1.2,0,2.4,0.1,3.7,0.2
	c1.3,0.1,2.6,0.1,3.9,0.2c0.6,0,1.2,0.2,1.7,0.3c0.1,0,0.2,0.1,0.3,0.1c1.4-0.1,2.8,0.4,4.2,0.5c0.9,0.1,1.7,0.3,2.6,0.5
	c1.4,0.4,2.7,0.8,4.1,1.2c1.1,0.3,2.2,0.7,3.2,1c3.3,1.2,6.4,2.7,9.5,4.4c2.2,1.2,4.3,2.7,6.4,4.1c1.7,1.2,3.4,2.5,5,3.9
	c2.7,2.3,5.2,4.8,7.4,7.7c1.7,2.2,3.5,4.3,4.9,6.7c2.1,3.3,4,6.7,5.4,10.3c0.8,2,1.5,4.1,2.2,6.2c0.7,2.1,1.1,4.2,1.6,6.3
	c0.3,1.3,0.4,2.6,0.6,3.9c0.5,3.6,0.6,7.1,0.6,10.7c0,1.7,0.1,3.5-0.3,5.2c-0.3,1.5-0.2,3.1-0.7,4.6c-0.3,1-0.4,2-0.6,3
	c-0.1,0.7-0.3,1.4-0.5,2.1c-0.5,1.7-1.1,3.3-1.6,5c-1,3.4-2.5,6.6-4.2,9.7c-1.8,3.5-4,6.7-6.5,9.7c-1.7,2-3.4,4-5.2,5.9
	c-3.1,3.1-6.4,5.9-10,8.2c-3.7,2.4-7.5,4.5-11.5,6.1c-2.5,1-5,1.9-7.5,2.5c-1.5,0.4-3,0.8-4.5,1.2c-1.3,0.3-2.6,0.4-3.9,0.6
	c-0.3,0-0.6,0.1-0.9,0.1c-1.2,0.1-2.3,0.3-3.5,0.4C69.3,132.6,67.6,132.7,66.1,132.8z M125.8,66.3C125.8,66.3,125.8,66.3,125.8,66.3
	c0-1.2,0-2.4,0-3.6c0-1.2-0.1-2.5-0.3-3.7c-0.2-1.3-0.4-2.7-0.6-4c0-0.2,0-0.4-0.1-0.7c-0.3-1-0.5-2-0.8-3.1c-0.3-1.2-0.6-2.4-1-3.6
	c-0.6-1.7-1.4-3.5-2.1-5.2c-1.3-3-2.8-5.8-4.6-8.5c-0.9-1.3-1.8-2.6-2.7-3.9c-0.8-1.1-1.6-2.1-2.5-3.1c-1.5-1.6-2.9-3.3-4.6-4.6
	c-1.2-0.9-2.2-1.9-3.3-2.9c-1.9-1.7-4.1-3.1-6.3-4.5c-2.1-1.3-4.3-2.5-6.7-3.4c-1.6-0.6-3.2-1.2-4.8-1.8C84.2,9.4,83,9,81.9,8.6
	c-0.6-0.2-1.1-0.3-1.7-0.4C79.1,8,78,7.8,76.9,7.7c-0.1,0-0.3-0.1-0.4-0.1c-0.4-0.1-0.9-0.2-1.3-0.2c-1.8-0.1-3.5-0.6-5.3-0.5
	c-0.1,0-0.2,0-0.3-0.1c-0.6-0.4-1.3-0.3-2-0.3c-1.1,0-2.2,0-3.3,0c-0.4,0-0.8,0-1.2,0.1c-0.9,0.3-1.7,0.3-2.6,0.3
	c-0.8,0.1-1.5,0.2-2.3,0.3c-1.2,0.2-2.5,0.1-3.7,0.5c-1,0.3-2,0.3-3,0.6c-1.7,0.5-3.4,1.1-5.1,1.7c-1.4,0.5-2.9,1.1-4.3,1.7
	c-1.7,0.7-3.3,1.5-4.9,2.4c-1.7,1-3.4,2-5.1,3.1c-1,0.7-2,1.4-2.9,2.2c-1.6,1.4-3.2,2.8-4.8,4.3c-0.9,0.9-1.8,1.9-2.7,2.8
	c-1.4,1.4-2.7,3-3.8,4.6c-0.9,1.4-1.9,2.8-2.9,4.2c-1.6,2.2-2.7,4.7-3.8,7.2c-0.9,2.1-1.6,4.3-2.4,6.4c-0.8,2.2-1.2,4.5-1.6,6.9
	c-0.2,1.2-0.2,2.4-0.5,3.5c-0.6,2.3-0.3,4.6-0.6,6.8c-0.1,0.6,0.2,1.2,0.2,1.8c0.1,2.2,0,4.4,0.5,6.5c0.4,1.9,0.6,3.8,1.1,5.6
	C8.3,82,9,83.9,9.5,85.8c0.1,0.4,0.3,0.8,0.5,1.2c0.8,2,1.6,4.2,2.6,6.1c1.5,3,3.3,5.9,5.4,8.7c1.8,2.4,3.8,4.6,5.8,6.7
	c0.7,0.7,1.5,1.3,2.2,2c1.7,1.7,3.5,3.3,5.5,4.6c1.6,1.1,3.2,2.1,4.9,3.1c1.5,0.9,3.1,1.8,4.7,2.5c2.4,1.1,4.9,2,7.4,2.9
	c1.4,0.5,2.9,0.8,4.4,1.1c0.9,0.2,1.8,0.2,2.6,0.6c0.8,0.3,1.5,0.3,2.3,0.3c0.3,0,0.5,0,0.8,0.1c1.1,0.5,2.3,0.3,3.4,0.4
	c0.8,0,1.5,0.2,2.3,0.3c0.5,0.1,1,0.1,1.5,0.1c2.1-0.3,4.2-0.3,6.3-0.4c1.4-0.1,2.7-0.3,4-0.5c0.1,0,0.2-0.1,0.3-0.1
	c0.4-0.1,0.8-0.2,1.2-0.3c0.3-0.1,0.7,0,1-0.1c1.9-0.7,4-0.9,5.9-1.6c1.8-0.7,3.6-1.2,5.3-2c3.1-1.4,6-3,8.9-4.8
	c2.2-1.4,4.2-2.9,6.1-4.6c3.3-2.9,6.4-5.9,9.1-9.4c1-1.3,1.9-2.7,2.8-4.1c0.7-1.1,1.5-2.2,2.1-3.4c1.1-2.2,2.2-4.4,3.2-6.6
	c0.5-1.1,0.8-2.3,1.2-3.4c0.3-0.9,0.7-1.9,0.9-2.8c0.2-1,0.4-1.9,0.5-2.9c0-0.2,0-0.4,0.1-0.5c0.4-0.5,0.3-1,0.3-1.6
	c0-0.3,0-0.6,0.1-0.8c0.4-0.7,0.3-1.4,0.4-2.2c0-0.3,0-0.7,0.1-1c0.4-0.8,0.3-1.7,0.3-2.6C125.8,69.3,125.8,67.8,125.8,66.3z"/>
<path class="st0" d="M240,98.8c0,0-0.1-0.4-0.1-0.5"/>
<path class="st0" d="M240,33.9c0,0,4-0.1,6-0.1c0.5,1,1.1,2,1.6,3c2.4,4.8,4.8,9.5,7.3,14.3c1.6,3.1,3.2,6.2,4.7,9.2
	c2.8,5.5,5.5,11,8.3,16.5c1.1,2.1,2.1,4.3,3.2,6.4c0.5,0.9,1.9,3,1.9,3s0.4-0.5,0.5-0.8c1.3-2.7,2.6-5.4,3.9-8.1
	c3.6-7.3,7.3-14.6,11-21.9c2.7-5.5,5.5-10.9,8.3-16.4c0.7-1.5,1.5-2.9,2.2-4.3c0.2-0.3,0.4-0.6,0.6-0.9c2.1,0.1,4.2,0.2,6.2,0.3
	c0.1,0.1,0.1,0.1,0.1,0.1c0,0,0,0.1,0.1,0.1c0,0.2,0.1,0.4,0.1,0.7c0,21.2,0,42.5,0,63.7c0,0.1-0.1,0.2-0.1,0.3
	c-0.8,0.3-5.8,0.3-6.9,0c0-0.5-0.1-1-0.1-1.5c0-14.9,0-29.9,0-44.8c0-0.5,0-0.9-0.1-1.4c-0.1,0-0.2-0.1-0.3-0.1
	c-0.9,1.7-1.9,3.4-2.8,5.1c-5.3,10.5-10.6,21.1-15.9,31.6c-1.5,2.9-4.3,8.8-4.3,8.8l-5.4,0.1l-22.9-45c0,0,0,0.7,0,0.9
	c0,0.3,0,1,0,1s0,29.1,0,43.7c0,0.5,0,1,0,1.4c-0.8,0.4-7.1,0.2-7.1,0.2"/>
<path class="st0" d="M410.9,34.2c2,0,4,0,6.1,0c0.7,0.8,1.5,1.6,2.2,2.5c2.8,3.5,5.5,7.1,8.3,10.7c3.1,3.9,6.3,7.8,9.4,11.7
	c2.1,2.6,4.1,5.2,6.2,7.8c2.5,3.2,5.1,6.3,7.6,9.4c2.3,2.9,4.6,5.8,6.9,8.7c0.3,0.3,0.5,0.7,1,1.2c0.1-0.6,0.2-0.9,0.2-1.2
	c0-0.8,0-1.6,0-2.3c0-15.6,0-31.2,0-46.8c0-0.5,0-1,0-1.5c2.1-0.2,4.2-0.6,6.2,0c0.3,0.1,0.6,0.4,0.9,0.5c0.3,1,0.4,61.5,0.2,63.9
	c-2,0.5-4.1,0.2-6.2,0.1c-0.7-0.8-1.5-1.5-2.2-2.4c-1.8-2.3-3.6-4.6-5.4-6.9c-2.4-3-4.8-6.1-7.2-9.1c-2.6-3.2-5.1-6.5-7.7-9.7
	c-2.2-2.7-4.4-5.5-6.6-8.2c-1.8-2.3-3.5-4.5-5.3-6.8c-1.7-2.2-3.5-4.3-5.3-6.4c-0.4-0.5-0.8-1-1.3-1.5c-0.2-0.2-0.4-0.3-0.6-0.4
	c-0.5,0.4-0.3,0.9-0.3,1.3c0,3.9,0,7.9,0,11.8c-0.1,12.4-0.1,24.9-0.2,37.3c0,0.3,0,0.7,0,1.1c-2.2,0.1-4.4,0-6.5,0
	c-0.2-0.2-0.2-0.2-0.2-0.2c0,0,0-0.1-0.1-0.1c0-0.3-0.1-0.6-0.1-0.9c0-21,0-42,0-63C410.8,34.5,410.8,34.4,410.9,34.2z"/>
<path class="st0" d="M181,100.2c-9.4-0.1-17.5-3.5-24.1-10.1c-6.6-6.6-9.9-14.8-9.7-24.2c0.3-18.3,14.9-33,33.4-33.2
	c9.5-0.1,17.8,3.2,24.5,10c6.6,6.7,10,14.8,9.9,24.2C214.9,85.2,199.7,100.3,181,100.2z M180.6,39.7c-1.6-0.3-3.5,0.1-5.4,0.5
	c-2.2,0.5-4.3,1.2-6.3,2.3c-1.5,0.8-2.9,1.8-4.3,2.9c-2.2,1.7-4,3.7-5.6,6c-1.5,2.2-2.7,4.5-3.5,7c-0.3,1.2-0.8,2.3-1,3.5
	c-0.3,2.1-0.6,4.3-0.3,6.4c0.1,1.1,0.4,2.2,0.6,3.4c0.2,0.8,0.3,1.6,0.6,2.4c0.6,2,1.4,4,2.5,5.8c0.9,1.4,1.9,2.7,2.9,4
	c1.6,2,3.5,3.5,5.6,5c1.5,1,3.2,1.9,4.9,2.5c1.4,0.5,2.7,1,4.1,1.3c1.9,0.4,3.8,0.5,5.7,0.5c3.3,0,6.4-0.6,9.5-1.8
	c3.1-1.3,6-2.9,8.4-5.2c2-1.9,3.6-4,5-6.3c1.9-3.2,3.1-6.5,3.4-10.2c0-0.3,0.1-0.5,0.1-0.8c0-1.4,0.2-2.8,0.1-4.2
	c-0.2-2-0.5-4-1.2-6c-0.6-1.7-1.1-3.4-2-4.9c-1.5-2.7-3.4-5.1-5.7-7.2c-1.5-1.3-3.1-2.5-4.8-3.5c-2-1.1-4.2-2-6.4-2.5
	c-0.8-0.2-1.7-0.2-2.5-0.5c-0.7-0.2-1.4-0.3-2.1-0.3C182.3,39.7,181.6,39.7,180.6,39.7z"/>
<path class="st0" d="M336.4,34.1c1-0.2,44.3-0.3,45.5,0c0.2,2.1,0.1,4.2,0.1,6.4c-0.4,0-0.6,0.1-0.9,0.1c-0.7,0-1.5,0-2.2,0
	c-10.1,0.1-20.2,0.1-30.3,0.2c-1.5,0-3,0.2-4.4,0.3c-0.2,0-0.3,0.1-0.6,0.2c0,0.4-0.1,0.8-0.1,1.3c0,3.5,0,7,0,10.6
	c0,12.3,0.1,24.7,0.1,37c0,0.5,0,1,0,1.5c0.4,0,0.7,0.1,1,0.1c4.6,0.1,9.2,0.1,13.8,0.2c7.4,0,14.8,0,22.2,0c0.4,0,0.9,0,1.3,0
	c0.3,0.9,0.4,5.4,0.1,6.9c-1.1,0.1-2.1,0.2-3.2,0.2c-10.1,0-20.2,0-30.2,0.1c-3.6,0-7.1,0-10.7,0c-0.4,0-0.8,0-1.3,0
	c-0.1-0.4-0.2-0.6-0.3-0.9c0-0.3,0-0.6,0-0.9c0-20.1,0-40.2,0-60.3C336.3,36.1,336.4,35.1,336.4,34.1z"/>
<path class="st0" d="M501.7,40.7c0,0.6-0.1,1.1-0.1,1.6c0,10.8,0,21.6,0,32.4c0,5.3-0.1,10.6-0.2,15.9c0,0.4,0.1,0.9,0.1,1.4
	c0.6,0,1,0.1,1.5,0.1c11.7,0,23.4,0,35.1,0c0.5,0,1.1-0.2,1.6,0.4c0,2,0,4.1,0,6.3c-0.3,0.1-0.5,0.2-0.8,0.3c-0.3,0.1-0.6,0-0.9,0
	c-14,0-27.9,0-41.9,0c-0.4,0-0.8,0-1.3,0c0-0.5-0.1-0.8-0.1-1.2c0-3.7,0-7.3,0-11c0-17,0-34,0-51c0-0.5,0-1,0-1.5
	c0.3-0.1,0.5-0.1,0.8-0.2c0.3,0,0.5,0,0.8,0c14,0,27.9,0,41.9,0c0.5,0,1,0,1.4,0c0.3,0.9,0.3,5.4,0.1,6.5c-0.2,0-0.4,0.2-0.6,0.1
	c-1.5,0-3-0.1-4.4-0.2c-0.3,0-0.7,0-1,0c-10.2,0-20.5,0-30.7,0C502.6,40.6,502.2,40.7,501.7,40.7z"/>
<path class="st0" d="M615.9,34.3c0,2.1,0,4.2,0,6.4c-7.5,0-14.9,0-22.5,0c-0.1,0.6-0.1,1.1-0.1,1.5c0,8.5,0,17,0,25.5
	c0,9.9,0,19.9,0,29.8c0,0.5,0,1,0,1.4c-0.8,0.4-5.2,0.5-6.8,0.2c0-0.4-0.1-0.9-0.1-1.4c0-8.6,0-17.1,0-25.7c0-9.9,0-19.7,0-29.6
	c0-0.5,0.1-1.1-0.5-1.7c-3.6,0-7.3,0-11,0c-3.7,0-7.4,0-11.2,0c0-2.2,0-4.3,0-6.3C564.7,34.1,614.3,34.1,615.9,34.3z"/>
<path class="st0" d="M348.5,70.3c0-2.3,0-4.6,0-6.7c0.1-0.1,0.1-0.1,0.1-0.1c0,0,0.1,0,0.1-0.1c0.1,0,0.3-0.1,0.4-0.1
	c8.6,0,17.3,0,25.9,0c0.2,0,0.4,0,0.6,0c0.1,0,0.1,0.1,0.3,0.1c0.5,2.2,0.3,4.4,0.3,6.8c-0.4,0-0.7,0.1-1,0.1c-8.6,0-17.3,0-25.9,0
	C349.1,70.4,348.9,70.4,348.5,70.3z"/>
<path class="st0" d="M533.8,63.5c0,2.3,0,4.5,0,6.7c-0.4,0-0.7,0.1-1,0.1c-8.3,0-16.7,0-25,0c-0.3,0-0.6-0.1-0.9-0.1
	c0-2.3,0-4.5,0-6.8C515.9,63.5,524.8,63.5,533.8,63.5z"/>
<path class="st0" d="M45.7,34c0,9.9,0,19.6,0,29.2c0.2,0.2,0.2,0.2,0.2,0.2c0,0,0.1,0,0.1,0c13,0,26,0,39,0.1c0.2,0,0.4,0,0.7,0
	c0.1,0,0.2,0,0.3-0.1c0,0,0.1,0,0.1,0c0.1,0,0.1-0.1,0.3-0.2c0-9.5,0-19,0-28.7c-1.3-0.7-2.8-0.1-4.3-0.7c2.5-2.4,5.2-4.6,7.7-7
	c0.9,0.4,7.6,6.2,8.2,7.3c-1.4,0-2.8,0.1-4.2,0.1c-0.1,0.4-0.2,0.7-0.2,1c0,0.3,0,0.7,0,1c0,20.4,0,40.8,0,61.3c0,0.5,0,1-0.1,1.6
	c-2.4,0-4.8,0-7.2,0c-0.2-4.8,0.2-9.5,0.1-14.1c0-4.7,0-9.4,0-14c-0.1-0.1-0.1-0.1-0.2-0.1c0,0-0.1,0-0.1-0.1
	c-0.1,0-0.3-0.1-0.4-0.1c-13.1,0-26.2,0-39.4,0c-0.1,0-0.3,0-0.6,0.1c0,0.4-0.1,0.9-0.1,1.4c0,6,0,12,0,18c0,2.5,0,5,0,7.4
	c0,0.4,0,0.8,0,1.3c1.4,0.2,2.8,0,4.2,0.1c-0.4,0.8-5.1,5-7.6,6.9c-0.8-0.3-7.1-5.8-7.8-6.9c1.4-0.3,2.7,0,4.2-0.2
	c0-2.7,0-5.4,0-8.1c0-2.7,0-5.4,0-8.1c0-2.7,0-5.4,0-8.1s0-5.4,0-8.1c0-2.7,0-5.4,0-8.1c0-2.7,0-5.4,0-8.1s0-5.4,0-8.1
	c0-2.7,0-5.4,0-8.2C41.1,33.6,43.3,33.9,45.7,34z"/>
<g>
	<path class="st0" d="M348,111.5l9.7,21.2h-1.8l-2.2-4.8h-13.3l-2.1,4.8h-1.8l9.7-21.2H348z M341.2,126.4H353l-5.9-13.1L341.2,126.4
		z"/>
	<path class="st0" d="M385.2,111.5v13.2c0,1.2-0.2,2.3-0.6,3.3c-0.4,1-0.9,1.9-1.7,2.7c-0.8,0.8-1.7,1.3-2.8,1.8
		c-1.1,0.4-2.4,0.7-3.8,0.7c-1.4,0-2.7-0.2-3.8-0.7c-1.1-0.4-2-1-2.8-1.8c-0.8-0.8-1.3-1.6-1.7-2.7c-0.4-1-0.6-2.1-0.6-3.3v-13.2
		h1.6v13.1c0,1,0.2,1.9,0.5,2.8c0.3,0.8,0.8,1.6,1.4,2.2c0.6,0.6,1.4,1.1,2.3,1.4c0.9,0.3,1.9,0.5,3.1,0.5c1.2,0,2.2-0.2,3.1-0.5
		c0.9-0.3,1.7-0.8,2.3-1.4c0.6-0.6,1.1-1.3,1.4-2.2c0.3-0.8,0.5-1.8,0.5-2.8v-13.1H385.2z"/>
	<path class="st0" d="M395.4,111.5h16.9v1.6h-7.7v19.6H403v-19.6h-7.6V111.5z"/>
	<path class="st0" d="M419.5,122.1c0-1.5,0.3-2.9,0.9-4.3c0.6-1.3,1.4-2.5,2.4-3.5c1-1,2.2-1.8,3.5-2.4c1.3-0.6,2.8-0.9,4.3-0.9
		s2.9,0.3,4.3,0.9c1.3,0.6,2.5,1.4,3.5,2.4c1,1,1.8,2.2,2.4,3.5c0.6,1.3,0.9,2.8,0.9,4.3c0,1.5-0.3,2.9-0.9,4.3
		c-0.6,1.3-1.4,2.5-2.4,3.5c-1,1-2.2,1.8-3.5,2.3c-1.3,0.6-2.8,0.9-4.3,0.9s-3-0.3-4.3-0.9c-1.3-0.6-2.5-1.4-3.5-2.3
		c-1-1-1.8-2.1-2.4-3.5C419.8,125.1,419.5,123.6,419.5,122.1z M421.1,122.1c0,1.3,0.2,2.5,0.7,3.7c0.5,1.1,1.2,2.1,2,3
		c0.9,0.9,1.8,1.5,3,2c1.1,0.5,2.4,0.7,3.7,0.7c1.3,0,2.5-0.2,3.6-0.7s2.1-1.2,3-2c0.9-0.9,1.5-1.8,2-3c0.5-1.1,0.7-2.4,0.7-3.7
		c0-1.3-0.2-2.5-0.7-3.6c-0.5-1.1-1.2-2.1-2-3c-0.9-0.9-1.8-1.5-3-2c-1.1-0.5-2.4-0.7-3.6-0.7c-1.3,0-2.5,0.2-3.7,0.7
		c-1.1,0.5-2.1,1.2-3,2c-0.9,0.9-1.5,1.8-2,3C421.4,119.6,421.1,120.8,421.1,122.1z"/>
	<path class="st0" d="M452.8,132.7v-21.2h1.5l9.2,18.3l9.2-18.3h1.5v21.2h-1.6v-17.8l-8.6,17.1H463l-8.6-17.1v17.7H452.8z"/>
	<path class="st0" d="M485.5,122.1c0-1.5,0.3-2.9,0.9-4.3c0.6-1.3,1.4-2.5,2.4-3.5c1-1,2.2-1.8,3.5-2.4c1.3-0.6,2.8-0.9,4.3-0.9
		s2.9,0.3,4.3,0.9c1.3,0.6,2.5,1.4,3.5,2.4c1,1,1.8,2.2,2.4,3.5c0.6,1.3,0.9,2.8,0.9,4.3c0,1.5-0.3,2.9-0.9,4.3
		c-0.6,1.3-1.4,2.5-2.4,3.5c-1,1-2.2,1.8-3.5,2.3c-1.3,0.6-2.8,0.9-4.3,0.9s-3-0.3-4.3-0.9s-2.5-1.4-3.5-2.3c-1-1-1.8-2.1-2.4-3.5
		C485.8,125.1,485.5,123.6,485.5,122.1z M487.1,122.1c0,1.3,0.2,2.5,0.7,3.7c0.5,1.1,1.2,2.1,2,3c0.9,0.9,1.8,1.5,3,2
		c1.1,0.5,2.4,0.7,3.7,0.7c1.3,0,2.5-0.2,3.6-0.7c1.1-0.5,2.1-1.2,3-2c0.9-0.9,1.5-1.8,2-3c0.5-1.1,0.7-2.4,0.7-3.7
		c0-1.3-0.2-2.5-0.7-3.6c-0.5-1.1-1.2-2.1-2-3c-0.9-0.9-1.8-1.5-3-2c-1.1-0.5-2.4-0.7-3.6-0.7c-1.3,0-2.5,0.2-3.7,0.7
		c-1.1,0.5-2.1,1.2-3,2c-0.9,0.9-1.5,1.8-2,3C487.4,119.6,487.1,120.8,487.1,122.1z"/>
	<path class="st0" d="M514.8,111.5h16.9v1.6H524v19.6h-1.6v-19.6h-7.6V111.5z"/>
	<path class="st0" d="M543.7,111.5v21.2h-1.6v-21.2H543.7z"/>
	<path class="st0" d="M563.5,132.7l-9.7-21.2h1.8l8.8,19.5l8.8-19.5h1.8l-9.7,21.2H563.5z"/>
	<path class="st0" d="M585.1,111.5h14.5v1.6h-12.9v8.4h11v1.5h-11v8.1h12.9v1.6h-14.5V111.5z"/>
</g>
</svg>
