<?xml version="1.0" encoding="utf-8"?>
<!-- Generator: Adobe Illustrator 22.0.1, SVG Export Plug-In . SVG Version: 6.00 Build 0)  -->
<svg version="1.1" id="Layer_1" xmlns="http://www.w3.org/2000/svg" xmlns:xlink="http://www.w3.org/1999/xlink" x="0px" y="0px"
	 viewBox="0 0 220 45" style="enable-background:new 0 0 220 45;" xml:space="preserve">
<style type="text/css">
	.st0{fill:#FFFFFF;}
</style>
<title>logo</title>
<g>
	<path class="st0" d="M16.1,28.2c-0.1-1.7-1.6-3-3.3-3c-1.8,0-3.3,1.4-3.3,3.2c0,1.8,1.5,3.2,3.3,3.2c1.7,0,3.2-1.3,3.3-3
		c0-0.1,0-0.2,0-0.2C16.1,28.3,16.1,28.3,16.1,28.2L16.1,28.2z"/>
	<path class="st0" d="M22.3,0.9c-12,0-21.8,9.3-22.3,20.8v1.5c0.4,11.6,10.2,20.8,22.3,20.8c12.3,0,22.3-9.7,22.3-21.6
		C44.5,10.6,34.5,0.9,22.3,0.9z M22.3,40.8c-10.4,0-18.9-8.2-18.9-18.3c0-10.1,8.5-18.3,18.9-18.3c10.4,0,18.9,8.2,18.9,18.3
		C41.2,32.6,32.7,40.8,22.3,40.8z"/>
	<path class="st0" d="M31.7,13.3L31.7,13.3c-1.7,0-3.2,1.3-3.4,3v0.5c0.1,1.7,1.6,3,3.4,3c1.8,0,3.3-1.5,3.3-3.2
		C35.1,14.8,33.6,13.3,31.7,13.3z"/>
	<path class="st0" d="M22.3,13.3L22.3,13.3c-1.8,0-3.3,1.5-3.3,3.3v15h3.3c1.8,0,3.3-1.5,3.3-3.3v-12c0-1.8,0-3,0-3H22.3z"/>
	<path class="st0" d="M78.4,24.9c0,2.1-1.7,3.4-3.6,3.4s-3.6-1.4-3.6-3.4V13.3h-3.5v11.7c0,4,3.3,6.6,7,6.6c3.8,0,7-2.6,7-6.6V13.3
		h-3.4V24.9z"/>
	<path class="st0" d="M57.6,31.3c0,1.6-0.7,2.8-2.5,2.8c-0.2,0-1.5-0.1-2.2-0.3l-0.3,3c0.9,0.2,2,0.4,2.5,0.4c4.3,0,5.9-2.8,5.9-6
		V13.3h-3.4V31.3z"/>
	<path class="st0" d="M173.1,13.3l-6.9,18h3.7l1.7-4.4h6.9l1.7,4.4h3.6l-6.9-18H173.1z M172.7,24l2.3-6.9l2.3,6.9H172.7z"/>
	<path class="st0" d="M197,24.7c3.3-0.5,4.7-3.1,4.7-5.6c0-2.9-1.8-5.8-5.9-5.8h-7.4v18h3.4v-6.4h1.4l4.4,6.4h4.1L197,24.7L197,24.7
		z M191.8,21.9v-5.6h3.8c1.7,0,2.5,1.5,2.5,2.8c0,1.3-0.8,2.8-2.6,2.8H191.8z"/>
	<polygon class="st0" points="206.1,13.3 206.1,16.3 206.1,16.3 211.3,16.3 211.3,31.3 214.8,31.3 214.8,16.3 220,16.3 220,13.3 	
		"/>
	<polygon class="st0" points="150.6,16.3 155.8,16.3 155.8,31.3 159.3,31.3 159.3,16.3 164.5,16.3 164.5,13.3 150.6,13.3 	"/>
	<polygon class="st0" points="104.6,13.3 98.7,25.4 98.7,25.4 92.7,13.3 89.8,13.3 87.5,31.3 91,31.3 92.4,19.3 97.3,29.2 
		100.1,29.2 104.9,19.3 106.3,31.3 109.8,31.3 107.5,13.3 	"/>
	<path class="st0" d="M123.2,13.3h-7.5v18h3.4v-6.4h4.1c4.1,0,5.9-2.8,5.9-5.8S127.3,13.3,123.2,13.3z M123,21.9h-3.9v-5.6h4
		c1.7,0,2.5,1.5,2.5,2.8C125.6,20.4,124.8,21.9,123,21.9z"/>
	<path class="st0" d="M141.5,21l-2.3-0.7c-2-0.5-2.2-1.5-2.2-2.1c0-1.3,1.2-2.1,2.8-2.1c1.7,0,2.8,0.9,2.8,2.4h3.4
		c0-3.3-2.7-5.4-6.2-5.4c-3.4,0-6.2,2.1-6.2,5.3c0,1.6,0.6,3.9,4.7,5l2.3,0.6c1.8,0.5,2.6,1.3,2.6,2.5c-0.1,1.2-1.2,2.2-3.1,2.2
		c-2,0-3.1-1.2-3.2-2.5h-3.4c0,3.1,2.7,5.5,6.6,5.5c3.4,0,6.4-1.9,6.5-5.1C146.7,24.3,145.6,22.1,141.5,21z"/>
</g>
</svg>
