<svg xmlns="http://www.w3.org/2000/svg" viewBox="0 0 177.5 56.2">
  <path fill="#fff" d="M62.2 13.7l5.1-1.2v24.3c0 2.7.8 4.3 2.4 4.8-.8 1.5-2.1 2.2-4 2.2-2.3 0-3.4-1.6-3.4-4.8l-.1-25.3zM80 43.4V21.7h-7.9v4.1h2.8v17.5H80v.1zm-2.5-30c-.8 0-1.5.3-2.1.9a2.9 2.9 0 000 4.2 2.9 2.9 0 004.2 0 2.9 2.9 0 000-4.2c-.6-.7-1.3-.9-2.1-.9m27.4 30V30.1a9 9 0 00-2.2-6.5 8.2 8.2 0 00-6.1-2.3c-2.7 0-4.7.8-6.1 2.4l-.9-2H86v21.6h5.1V27.7c.5-.6 1.1-1.1 2-1.6.8-.4 1.6-.6 2.4-.6 1.6 0 2.8.4 3.5 1.3.7.8 1.1 2.2 1.1 4v12.5l4.8.1zm4-10.9c0 3.4.9 6.1 2.7 8.2 1.8 2.1 4.4 3.1 7.7 3.1 3.2 0 5.8-1 7.6-3.1 1.9-2 2.8-4.8 2.8-8.2 0-3.5-.9-6.2-2.7-8.2s-4.4-3-7.7-3c-3.1 0-5.6 1-7.5 3.1-2 2.1-2.9 4.8-2.9 8.1m5.3 0c0-2.2.5-4 1.4-5.2a4.6 4.6 0 013.8-1.9c3.4 0 5.1 2.4 5.1 7.1 0 2.3-.5 4.1-1.4 5.3s-2.2 1.9-3.7 1.9c-3.5 0-5.2-2.4-5.2-7.2m38.5 10.9V12.5l-5.1 1.2v8.7c-1.3-.7-2.8-1-4.5-1a10 10 0 00-7.5 3.2c-2 2.1-3 4.9-3 8.4 0 3.4.9 6.1 2.6 8a9.1 9.1 0 007.1 2.9c1.1 0 2.1-.2 3.1-.5s1.7-.7 2.1-1.2v1.3h5.2v-.1zm-5-5.2c-.2.3-.7.6-1.4.9-.7.3-1.3.4-1.8.4-4.3 0-6.5-2.2-6.5-6.7 0-2.3.5-4.1 1.6-5.3s2.6-1.8 4.7-1.8c1.2 0 2.3.4 3.4 1.3v11.2zm29.4-4.1c.3-1.3.4-2.2.4-2.8 0-2.9-.9-5.3-2.9-7.2a10.2 10.2 0 00-7.6-2.8c-3 0-5.5 1.1-7.6 3.2a11.3 11.3 0 00-3.2 8.3c0 3.5 1 6.2 2.9 8.1s4.5 2.9 7.8 2.9c3.5 0 6.2-.7 8-2.2l-2-3.9c-1.2 1.2-3 1.8-5.3 1.8-1.8 0-3.3-.5-4.4-1.4a5.6 5.6 0 01-1.8-4h15.7m-15.3-3.8c.7-3.2 2.5-4.7 5.4-4.7 3.2 0 4.9 1.6 5.3 4.7h-10.7M46.9 25l-1.1 7.9-.1.2-6 4.8H39.4l-2.2-1.6v-.8l2.1 1.5.3-3.3.4-4.1-6-3.8-1.3-.6-.1 3.3-.7-.4.1-3.4v-.2l.1-.1.1-.1 6.5-4h.3l7.7 4.3.1.1v.1l.1.2c0-.1 0-.1 0 0zm-.8.7l-.2.1-5.5 3.9-.5 6-.1 1.2 5.3-4.2 1-7zm-8.8 6.1l-.2 3.8v.8l-.2 3.7-.1.2-7.5 5.9h-.2L26 43.6v-.9l3 2.5v-7.6l-3.5-2.4-.3-6.5 3.8-2.3c.1-.1.3-.1.4 0l2.6 1.7.7.4 4.5 3 .1.1v.2zm-.8 3.3l.2-2.6-1.9 1.4-.6.4-4.7 3.4v7.6l6.7-5.4.2-4 .1-.8zM26 48.6l-.1.3-9.2 7.3h-.2l-.1-.1-7.2-7.6-.1-.2-1.9-8.4v-.1-.1l.1-.1 1.9-1.2 5.1 4.8h.4l6.6-4.5.6-.4.8-.6 2.7 2.2v.2l.1 2.5v.9l.5 5.1zM16 55l-.2-1.6-.8-5.8-6.8-6.7 1.5 7.4L16 55zm9.4-6.5l-.2-5.5v-.9l-.1-1.3-.9.5-.6.4-8.1 5.8 1.1 7.8 8.8-6.8zm.1-12.7l-.1.3-2.4 1.6-.8.6-.6.4-6.8 4.5h-.4l-5.1-4.8-2.9-2.7-.1-.2-2.3-11v-.1-.1-.1l.1-.1 3-1.4 4.7 3.7h.2l.1.2 8.8-4.6 3.8 2.5v.1l.1.1v.1l.2 3.8.3 6.5.2.7zM14.1 42l-.8-5.2v-.6l-.7-4.5-7.7-6.4 2.1 10 3.1 2.9 4 3.8zm10.7-6.4v-1l-.2-5.6-.2-3.7-11.1 6.3.6 3.9 1 6.7 6.5-4.4.6-.4.4-.2 2.4-1.6zm0-16l-.2.5-3.5 1.8-8.8 4.6-.1-.2H12l-4.8-3.6-4.1-3.2-.1-.2L0 4.6v-.1-.2l.1-.1L13.7 0h.2l9.9 4.8.1.1.2.3.7 14.4zm-13.2 5.7L9.5 10.7.7 5.2 3.5 19l4.4 3.4 3.7 2.9zm12.5-5.8l-.6-13.9-13.3 5.1 1.4 9.8.7 5 7.9-4.1 3.9-1.9z"/>
</svg>
