<svg xmlns="http://www.w3.org/2000/svg" id="Layer_1" x="0" y="0" version="1.1" viewBox="0 0 1427.5 310.6" xml:space="preserve">
  <style>
    .st0{fill:#fff}
  </style>
  <g id="L6FfUe.tif">
    <path d="M0 27.6a1204.6 1204.6 0 0180.7-.1c.8 0 1.8-.4 2.2.6.3.8-.6 1.3-1 1.9-7.7 9.7-15.6 19.2-21.5 30.2a142.4 142.4 0 00-14.7 94.2 140.2 140.2 0 00147.4 113.9 142.6 142.6 0 0078.4-30.3 139.5 139.5 0 0053.1-108.8c.3-6.6-.7-13.2-1.5-19.9a136.3 136.3 0 00-14.7-46.8 156.8 156.8 0 00-19.8-28.6c-1.2-1.4-2.2-2.9-3.3-4.4-.9-1.2-.8-1.9.9-2 8.1-.6 16.3-.8 24.4-.3 5 .3 10 .1 15-.1 13.5-.4 27-.6 40.5.2 1.1.1 1.5.5 1.5 1.5V31c0 66.7-.1 133.5.1 200.2a78.7 78.7 0 01-52.5 75c-3.1 1.1-6.1 2.4-9.4 3.1-.5.1-.9.4-.9 1H63.4c-1-1.9-3-1.6-4.5-1.9a80.1 80.1 0 01-56.3-51.8c-.9-2.4-1.2-5.1-2.6-7.3V27.6zM1427.5 128.6c-9.9 0-19.8-.1-29.7 0-2 0-3-.8-3.7-2.5-4-9.3-7.8-18.6-12.9-27.3-1.8-3-4.1-5.6-7-7.3-3-1.8-6.6-2-10.1-1.7-1.4.2-1 1.5-1 2.4-.4 10.8-.5 21.6-.5 32.5 0 3.9 0 3.9-3.8 3.9h-24.2c-2.4 0-2.9-.9-2.9-3.1V30.3c0-2.2.7-3.1 3-3.1 15.1.1 30.2-.2 45.2.1a46 46 0 0122.2 4.3c7.3 4 12.2 10 15 17.8 1.1 3.1 1.9 6.4 1.9 9.7a26 26 0 01-11.9 22.7c-2.6 1.8-2.6 1.8-.5 4a70.7 70.7 0 0113.5 21.7l7.5 16.1-.1 5zm-58.8-58c2.2 0 3.9.2 5.5 0 5-.9 10.4-1.1 12.3-7.3 1.5-4.9-.4-11.7-5.8-13.7-5.5-2.1-11.1-1.7-16.7-1.8-1.4 0-1.5.9-1.6 2-.5 4.6-.5 9.1-.4 13.7.1 2.3-1 5.2.6 6.7 1.6 1.4 4.4.3 6.1.4z" class="st0"/>
    <path d="M183.4 0A127 127 0 01312 131.3a127.2 127.2 0 01-126.2 124.2A127.3 127.3 0 0155.6 128.3 127 127 0 01183.4 0zm5.3 189.6c3.8.2 7.7-1.2 11-3.9 6.9-5.8 8.1-17.7.6-25a11500 11500 0 01-35-34.9c-6.2-6.2-12.4-12.6-18.8-18.7-4.5-4.3-10.9-4.5-14.2 3-.3.6-.2 1.1.2 1.6 1.7 2.5 3 5.1 5.2 7.3l48.7 48.7a23 23 0 013.2 3.8c.6 1.1.8 2.4-.1 3.3-.9.9-1.8-.2-2.6-.7a56.8 56.8 0 01-6.9-6.1c-13.1-13.2-26.2-26.6-39.5-39.7-5.7-5.7-12.3-8.7-20.7-5.6-7.3 2.7-12.2 13.3-9.3 20.5 1.8 4.4 4.5 8.1 7.8 11.4l39.4 39c1.6 1.6 3 3.3 4.5 5 1 1.2.8 2.7-.2 3.6-1.2 1.1-1.7-.5-2.3-1.1-8.4-7.9-16.7-15.8-24.8-23.9-7.7-7.8-15.5-15.6-23.4-23.2-5.2-4.9-11.5-6.9-18.6-4.2-4.4 1.6-10.2 8.1-10.2 13.6s.9 10.1 4.5 14.2c3.2 3.7 6.9 7 10.4 10.4l43.6 43.3c4.1 4.1 6.7 4.3 12 1.4 1.2-.7 1.6-1.4 1.6-2.7 0-4.1-1.7-7.5-4.6-10.4l-52-52.2c-.7-.7-2.2-1.5-.8-2.8 1.1-1.2 2.2-1.5 3.6 0 1.2 1.3 2.8 2.4 4.1 3.7l41.7 41.6c4.1 4.1 8.6 6.7 14.6 6.9a16 16 0 0016.6-14.2c.9-6.5-2.1-11.5-6.4-16-15.3-15.6-31.4-30.5-46-46.8-.5-.6-1.9-1.2-1.2-2.1.8-.9 2.2-1.2 3.4-.6l1.4 1.1c3.2 2.4 5.7 5.5 8.6 8.4 11.8 11.8 23.8 23.4 35.4 35.3 3.9 4.2 8.5 8 15.5 7.7zM195 81.5a32.1 32.1 0 0031.8 33c19 .3 33.7-13.7 33.5-33.6a32.1 32.1 0 00-32.4-32A31.5 31.5 0 00195 81.5zM427.3 72.8c-.8.9-.5 1.8-.5 2.6l-.2 50c0 3.2 0 3.2-3.3 3.2h-24c-1.8 0-2.4-.5-2.4-2.4V29.7c0-1.9.8-2.5 2.5-2.5 8.1-.1 16.2.2 24.2.5 1.5 0 2.4 1.1 3.3 2 6 6.5 11.3 13.6 17 20.3L454 62.4c.9 1.1 1.5 1.1 2.4 0l24.5-29.8c3-3.7 6.5-5.5 11.4-5.4 6.1.2 12.2.2 18.2 0 2.5-.1 3.3.7 3.3 3.2l.2 48-.3 45.7c0 4.4-.1 4.4-4.5 4.5-8.2 0-16.3-.1-24.5.1-2.2 0-2.9-.8-2.8-2.9l-.1-30-.2-18.7c0-.6.3-1.5-.5-1.8-.7-.2-1.1.6-1.5 1-5.5 6.5-11.1 12.8-16.1 19.7-2.3 3.2-5.3 5.7-8.1 8.5-1.1 1.1-1.8.6-2.6-.4l-19.3-23.9c-1.9-2.5-4.1-4.9-6.2-7.4zM590 129.7c-9-.1-19.6-1.5-29.3-6.8a48.6 48.6 0 01-23.3-27.4 51 51 0 01-2.7-24.4 48.3 48.3 0 0128-39.3c7.3-3.5 15.2-5 23.3-5.5 11.9-.8 23.5.5 34.5 5.4a46.5 46.5 0 0122.9 21.9 53.6 53.6 0 014.9 33.1 47.7 47.7 0 01-27.2 37.1 54.6 54.6 0 01-17.7 5.1c-3.9.4-7.7.7-13.4.8zm2.4-27c8.6-.1 16-2.7 20.8-10.4a25.6 25.6 0 003.2-22.1c-2.1-6.6-6-12.1-12.7-14.9-5.4-2.2-11-2.4-16.9-1.8-5.4.6-9.9 2.6-13.5 6.6a24.2 24.2 0 00-6.8 20.5c.6 5.3 2.3 10 5.8 14 5.3 6 12.2 8.2 20.1 8.1zM1082.3 60.8c0 9.9.5 19.9-.1 29.7-.7 11-5.4 20.4-14.2 27.5a48.1 48.1 0 01-18.8 9.3 68.8 68.8 0 01-27.1 1.8c-4.5-.7-9-1-13.4-2.3a45.6 45.6 0 01-16.7-8.5 39.8 39.8 0 01-13.1-18.4 47.6 47.6 0 01-2.5-12.9V30.3c0-1.8.6-2.4 2.4-2.5 8.7-.4 17.5 0 26.2 0 2 0 2.3.7 2.3 2.5V73c0 6 .6 12 3 17.6 4.1 9.4 11.3 13.2 21 12.4 9.7-.8 15.6-6.3 18.5-15.2 1.2-3.7 1.5-7.6 1.5-11.6V30.5c0-2.4.7-3.2 3.1-3.1h25c2.2 0 2.9.6 2.9 2.8v30.6zM1301.5 128.6h-11.7c-4.2 0-7.1-1.7-8.5-5.8l-4.1-11.4c-.7-2-1.6-2.8-3.9-2.9-12.1-.4-24.1-.3-36.2-.4-2.1 0-3.3.6-4.1 2.7-2.1 5.3-4.5 10.5-6.7 15.7-.6 1.4-1.4 2.1-3 2.1h-27.7c-1.7 0-2.2-.4-1.5-2.2 4.4-11.2 9.5-22.2 14.4-33.2l16.8-38.2 10.9-24.5c.9-2.1 2.3-2.8 4.6-2.9 9.4-.5 18.8-.3 28.2.1 2.2.1 3.5.8 4.4 2.8 5.3 11.1 9.9 22.4 14.8 33.6l21.4 48.3c2 4.5 3.7 9 5.6 13.5.8 1.9.4 2.7-1.8 2.6l-11.9.1zm-47-71.2l-3 6.2c-3.7 7.7-6.3 15.8-9.3 23.7-.5 1.4-.7 2.3 1.5 2.4 7.5.3 15 .3 22.4 0 1.8-.1 2.2-.7 1.6-2.3-3.6-9-7.2-18.1-11.2-27-.4-1-.4-2.4-2-3zM766.6 78.2V30.7c0-2.3.6-3 2.9-3.1 19.5-.8 39-.4 58.4-.1 3.9.1 7.8.2 11.7.1 1.7 0 2.4.6 2.3 2.3v16.2c.1 2.1-.7 2.5-2.6 2.5l-38.5.3c-2.4 0-3.1.7-3.2 3.1 0 3.7.2 7.3.1 11 0 2 .7 2.5 2.6 2.5H836c3.3 0 3.3 0 3.3 3.3v16c.1 2.1-.7 2.6-2.7 2.6l-36.5-.1c-2.2 0-2.9.6-2.8 2.8.2 4.6.1 9.2 0 13.7-.1 2 .6 2.5 2.5 2.5l40.2-.1c2.6 0 3.3.7 3.2 3.3-.2 5.2-.2 10.3 0 15.5.1 2.1-.7 2.9-2.7 3l-3.2.1-68.2.1c-2.3 0-2.8-.8-2.8-2.9.3-15.4.2-31.3.3-47.1zM955.4 47.6v11.7c0 2.6-.2 2.7-2.4 1.5a223 223 0 00-13.8-7c-3.8-1.8-8-2.3-12.1-2.6-9.2-.8-17.9.7-25.5 6.3a24.5 24.5 0 00-10.5 23.1c.9 11.4 8.2 17.8 18 22.1 6.7 3 13.9 2.9 20.8 1.7 6.8-1.1 13.2-4.2 19.5-7.2l4.5-2.1c1.1-.6 1.6-.1 1.6 1l-.1 23.2c0 1.7-1.4 2.6-2.8 3.2-13.6 6-27.8 8-42.5 6.9a59.3 59.3 0 01-32.5-11 43.3 43.3 0 01-15-19.5 56.5 56.5 0 01-3.9-26.6 45.5 45.5 0 0124.8-38.8 74.2 74.2 0 0145.2-6.6c6.6.8 13.2 2.2 19.5 4.5 1.6.5 3.2 1.1 4.8 1.2 2.1.2 2.6 1.3 2.6 3.2-.3 4-.2 7.9-.2 11.8zM429.1 299.4h-28.7c-3.4 0-3.4 0-3.4-3.2-.5-38.2-.1-76.5-.2-114.7l.2-28.2c0-1.9.5-2.6 2.5-2.6 15.8.1 31.7-.3 47.5.2 9.3.3 18.6 1 27.7 2.9a67.8 67.8 0 0153.6 55.1 89.4 89.4 0 01-3.5 45.1 67.6 67.6 0 01-44 41.5c-9.1 3.1-18.6 4-28.2 4l-23.5-.1c0 .1 0 0 0 0zm-19.5-73.5v60.2c0 2.3.5 3.2 3 3.2 13.2 0 26.3.6 39.4-.7a89 89 0 0025.5-5.2 58 58 0 0029.9-25.5 66.5 66.5 0 007-46.2c-1.1-4.8-2-9.7-4.3-14.2a62.5 62.5 0 00-38-32.3 68 68 0 00-19.5-3.2c-12.7 0-25.5 0-38.2.4-4.7.2-4.8.1-4.8 4.9v58.6zM1146.5 128.6c-11.8 0-23.7-.1-35.5.1-2.4 0-2.9-.8-2.9-3V30.5c0-2.6.8-3.2 3.3-3.2h26c2.4 0 3 .8 2.9 3l-.1 69.5c0 2.6.8 3.1 3.2 3.2 13.2.4 26.3.4 39.5.3 1.9 0 2.6.6 2.6 2.6v20.2c0 2.2-.8 2.6-2.8 2.6-12.1-.2-24.1-.1-36.2-.1zM1134.1 273.7l.8 12.6c0 1.1-.9 1.7-1.8 2.1-8 4.1-16.4 7.6-25.2 9.7a101.2 101.2 0 01-33.8 3 80.6 80.6 0 01-39.7-13.8 71.6 71.6 0 01-26-32 76.8 76.8 0 0143.2-101.1 58.4 58.4 0 0122.2-4.6c6.2 0 12.3-.2 18.5.1 4.9.2 9.7 1.6 14.6 2.7 5.7 1.3 11.3 3.1 16.7 5.2 2 .8 3.9 1.9 5.9 2.4 3.4 1 4.4 3.1 4 6.5-.3 2.4-.1 4.8-.1 7.2 0 1.9-.7 2.3-2.3 1.5a125.4 125.4 0 00-33.2-11.9 91.2 91.2 0 00-23.3-1.7 59 59 0 00-25.2 7.5 60.8 60.8 0 00-27.6 30.7 65.2 65.2 0 00-4.9 31.2 62.3 62.3 0 0049.9 56.7 77.5 77.5 0 0028 .3c13.5-2.2 25.9-7.4 37.9-13.6l1.4-.7zM669.5 78V30.5c0-2.2.7-2.8 2.8-2.8 8.5-.1 17-.6 25.5-.4 3.6.1 3.6 0 3.6 3.6v68.7c0 3.2 0 3.1 3.3 3.3 13 .6 26 .3 39 .3 2.2 0 2.9.7 2.8 2.9v20c0 2-.6 2.6-2.6 2.6h-72c-2.1 0-2.5-.8-2.5-2.6l.1-48.1zM599.7 237.8v-66.2c0-6.2.3-12.3.3-18.5 0-1.9.7-2.4 2.5-2.4h77.2c2 0 2.7.6 2.6 2.6-.1 2.2-.2 4.3 0 6.5.2 2.3-.8 2.8-2.9 2.8h-60.2c-5.9 0-5.8 0-5.9 5.9-.4 11.7-.5 23.3-.3 35 .1 4.5.4 9 .3 13.5 0 2.3.8 2.8 2.9 2.8h59.2c4.6 0 4.1-.6 4 3.9 0 2.2 1 5-.5 6.5-1.4 1.3-4.1.4-6.3.4l-54.5.2c-5.6 0-5.7.1-5.6 5.8l.2 49.5c0 2.2.8 2.9 2.9 2.8h54c3.9 0 7.8.1 11.7.4 1.7.1 2.2.7 2.1 2.3-.1 1.7-.2 3.3 0 5 .3 2.4-.5 3.1-3 3.1h-77.2c-2.5 0-3.2-.7-3.3-3.2-.6-22.3.1-44.4-.2-58.7zM1198.7 214.3c0-13.7-.1-27.3 0-41 0-6.8.3-13.7.4-20.5 0-1.6.6-2.1 2.2-2.1h77.5c1.8 0 2.3.6 2.2 2.3a50 50 0 000 6.7c.2 2.3-.7 2.8-2.9 2.8H1214.2c-1.7-.2-2.2.6-2.1 2.2v52.7c0 2.1 1.1 2.2 2.7 2.2h60.5c3.2 0 3.2 0 3.3 3.3 0 1.5-.1 3 .1 4.5.3 2.4-.5 3.2-3 3.2H1215c-2 0-2.8.5-2.8 2.6.1 17.7.1 35.3 0 53 0 2.2.9 2.6 2.8 2.6l49.2.1c5.7 0 11.3.4 17 .6 1.7 0 2.2.7 2.1 2.3-.2 2.5 1 5.7-.5 7.3-1.5 1.7-4.7.5-7.2.6l-73.5.1c-2.1 0-2.9-.5-2.9-2.7.1-6.7 0-13.3-.1-20-.6-21.2-.4-42-.4-62.8zM1382.1 301.6a72 72 0 01-36-11.3c-3.2-2-3.2-4.6-3.3-7.4-.2-2.6.1-5.3.3-8 .2-2.2 1.5-.9 2.2-.4 5.6 3.3 11.1 6.7 16.9 9.7a40 40 0 0025.4 4.3 28.4 28.4 0 0022.9-22.2c1.9-9.8-.7-17.9-7.8-24.5-4.9-4.6-11-7.7-17.3-10.2-8.8-3.4-17.8-6.3-26-11a33 33 0 01-16.9-21.1c-1.2-5-1.2-10.2-.6-15.4 1.8-15.5 11.1-24.9 24.5-31.3a45 45 0 0121.4-3.1 63.1 63.1 0 0130.1 8.4c.7.4 1.1 1.1 1.3 2 .7 3.6.4 7.1.4 10.7 0 1.5-.4 2.1-2.1 1.3-5.9-2.7-11.8-5.6-17.9-7.8-12.8-4.7-25-3.8-35.6 5.5-4.2 3.7-7 8.5-7.9 14.3a24 24 0 0012.6 25.7c8 4.5 16.7 7.6 25.2 11a55 55 0 0121.8 12.9c4.2 4.6 7.1 9.8 8.6 16 1.5 6 1.2 12.2.5 18.1a34.8 34.8 0 01-8.2 18.1 43.4 43.4 0 01-34.5 15.7zM797 272.4c2.2-3.9 3.7-8 5.4-12 7-16.5 13.9-33.1 20.7-49.6l16.3-39.4 8-19.2c.5-1.1 1.2-1.5 2.3-1.5h9.5c1.6 0 2 .4 1.4 2.1l-8.7 21.6-13.6 33-13.4 32a4528 4528 0 01-13.6 32.7L800.1 299c-.5 1.2-1.4 2-2.9 1.7-1.5-.3-3 .4-4-1.9a2356 2356 0 00-17.9-43.7c-7.1-17.1-14.5-34.2-21.7-51.3-6.6-15.8-13.3-31.5-19.7-47.3-1.9-4.8-3.7-5.8 3.6-5.7 7.8.1 8.7.7 11.8 8.6 5.5 14.3 11.7 28.4 17.7 42.5l15.4 36.7 14 33.2.6.6zM920.6 226.5v-65.2c0-2.7 0-5.5.5-8.2.3-1.9 1.1-2.5 2.9-2.4 2.2.1 4.5.2 6.7 0 2.4-.2 3.2.6 3.2 3-.2 7.6.2 15.1.2 22.7-.2 39.9-.2 79.8-.2 119.7 0 3.4 0 3.4-3.4 3.4h-6.7c-2.3.2-3-.7-3-3v-70h-.2z" class="st0"/>
  </g>
</svg>
