<svg xmlns="http://www.w3.org/2000/svg" viewBox="0 0 28.8 30">
  <path fill="#fff" d="M18.5.1L1.8 1.3c-1.3.1-1.8 1-1.8 2v18.2c0 .8.3 1.5 1 2.5l3.9 5.1c.6.8 1.2 1 2.5.9l19.3-1.2c1.6-.1 2.1-.9 2.1-2.2V6.2c0-.7-.3-.9-1-1.4l-.1-.1L22.4 1C21 0 20.5-.1 18.5.1zM7.8 5.9C6.2 6 5.9 6 5 5.3L2.7 3.5c-.2-.3-.1-.6.5-.6l16-1.2c1.3-.1 2 .4 2.6.8l2.7 2c.1.1.4.4.1.4L8 5.8l-.2.1zM6 26.5V9.1c0-.7.2-1.1.9-1.2l19-1.1c.6-.1.9.4.9 1.1v17.3c0 .8-.1 1.4-1.2 1.5l-18.1 1c-1.1.1-1.5-.3-1.5-1.2zM23.9 10c.1.5 0 1.1-.5 1.1l-.9.2v12.8c-.8.4-1.5.6-2 .6-.9 0-1.2-.3-1.9-1.2l-5.7-9v8.7l1.8.4s0 1-1.5 1l-4 .2c-.1-.2 0-.8.4-.9l1.1-.3V12.3l-1.5-.1c-.1-.5.2-1.3 1-1.3l4.3-.3 6 9.1v-8l-1.5-.2c-.1-.6.3-1.1.9-1.2l4-.3z"/>
</svg>
