<svg xmlns="http://www.w3.org/2000/svg" id="Layer_1" x="0" y="0" version="1.1" viewBox="0 0 1033.1 321" xml:space="preserve">
  <style>
    .st0{fill:#fff}
  </style>
  <path d="M362.2 0c-.1 1.8-.4 3.6-.4 5.4v216.9c0 6.8.1 13.7 1.2 20.4.4 2.7-.2 3.9-3.3 3.9a801 801 0 00-31 0c-2.8 0-3.8-1-4-3.6l-1.5-16.6a54 54 0 01-38.3 23.4 76.2 76.2 0 01-81.2-45.2c-15.9-35.6-9.8-78.9 15.9-105.3 22-22.6 48.9-28.3 78.9-19.3a48.2 48.2 0 0124.6 17.5V.1l39.1-.1zM235 163.9a67 67 0 003.2 20.7 41.8 41.8 0 0039.2 30.8c19.5.5 34.7-9.9 41.6-28.8a67 67 0 00.4-46.5c-5.9-16.7-17.5-26.9-35.5-28.4a41.2 41.2 0 00-42.5 22.9 60.4 60.4 0 00-6.4 29.3zM8.2 321c.1-7.5.2-15 .1-22.4-.1-2.9.9-3.6 3.7-3.6h148.2c2.9 0 3.7.9 3.7 3.7 0 7.5-.6 14.9.4 22.4L8.2 321zM490.2 174.2c-18.3 0-36.7.2-55-.1-5.1-.1-5.7 1.6-5 6A44.4 44.4 0 00470 217c21.7 1.7 38.2-7.1 45.1-26 1.1-2.9 2.8-2.2 4.7-1.6 8.7 2.8 17.4 5.7 26.2 8.3 3.4 1 3.6 2.3 2.5 5.3a70.5 70.5 0 01-53.5 46.2c-31.1 6.6-59 0-81.6-23.3-19.6-20.2-24.8-45.3-23.2-72.4 2.2-36 27-67.2 61.7-75.7 39.1-9.5 89.5 6.1 98.3 64.6 1.4 9.1 1.8 18.2 1.2 27.4-.3 3.4-1.3 4.4-4.8 4.4h-56.4zm-19.3-29c12 0 24-.2 36 .1 4.3.1 5-1.5 4.4-5.1a38 38 0 00-6.7-16.5c-10.6-13.8-25.3-16.5-41.2-14.2a39 39 0 00-31.9 30.6c-.7 3.5-.6 5.4 4 5.3 11.7-.5 23.5-.2 35.4-.2zM994.9 226.1a57.9 57.9 0 01-20.5 18.3 65 65 0 01-58.7.8 48.1 48.1 0 01-28-46.8c1.6-22.5 14.2-36.2 34.7-43.5 11.9-4.2 24.4-4.8 36.7-6.9 7.7-1.3 15.5-2.2 23.1-3.8 7.9-1.6 10.5-5.4 10-13.5-.4-6.5-3-11.9-8-16-14.1-11.7-40.6-8.2-51 6.7a29 29 0 00-5.1 12.4c-.4 2.9-1.2 4.2-4.7 3.3-9.5-2.5-19.1-4.5-28.7-6.5-3.4-.7-3.8-2.2-3.2-5.2a59.3 59.3 0 0140.8-45.3 89.6 89.6 0 0162.1.7 52.4 52.4 0 0136.5 50.5c1 29.6.3 59.3.4 89 0 7.1.3 14.3 1.6 21.4.6 3.5.2 5.1-4 5-9.5-.3-19-.2-28.5 0-3.2.1-4.3-1-4.7-4.1-.6-5-.6-10-.8-16.5zm-2.6-46.8c0-1.2-.2-2.4 0-3.5.8-4.7-1.3-5.6-5.5-4.8-7.5 1.4-15.1 2.2-22.7 3.5-7.7 1.3-15.6 1.5-23 4.5a20.8 20.8 0 00-13.9 21 21 21 0 0016.2 19.3c4.9 1.4 10 1.2 14.9.6 14.3-1.6 25.2-8.1 30.7-22.1a48.8 48.8 0 003.3-18.5zM0 163.9C-.2 120.8 25.5 87 65.2 77.7a85.5 85.5 0 01106.9 87.2c-1 31.9-13.1 58.2-41.3 74.7-48.2 28.3-120 6.8-129.8-62.2-.7-4.6-.8-9.2-1-13.5zm132-.3c.1-5.7-.7-11.3-2-16.8a44.2 44.2 0 00-37.8-34.9c-21.3-2.2-38.9 6.9-47.1 25.3a61.5 61.5 0 001.2 55 44.7 44.7 0 0072.6 9.3 54.7 54.7 0 0013.1-37.9zM642.1 75.4c17.6.4 34.8 4.8 48.2 19 6.5 6.9 10.9 15 13.2 24.3.6 2.6.2 3.6-2.3 4.2-9.1 2.5-18.3 5.1-27.3 7.8-2.5.7-3.3.2-4.1-2.4a29.7 29.7 0 00-39.1-20.1c-10.6 3.5-16.5 13-13.6 22.2 2.1 6.7 7.2 10.3 13.7 11.8 9.4 2.2 18.9 3.9 28.3 6a65.8 65.8 0 0133.7 17.3c20.5 21 16.3 56.6-8.7 74.3a69.3 69.3 0 01-43 11.8 72.3 72.3 0 01-48-16.7 56.2 56.2 0 01-17.7-28.4c-1-3.6-.4-5.7 3.9-6.6 8.7-2 17.4-4.5 26-7.1 2.9-.9 4-.6 4.7 2.6 4.8 24.2 31.4 28.5 46.1 22.1 7.8-3.4 11.6-9.3 11.4-17.1-.2-8.2-5.3-12.8-12.2-15.4-9.4-3.5-19.3-4.8-29.1-7a72.2 72.2 0 01-27.5-11.3c-25.7-18.6-26.2-55-1-76.3a65.7 65.7 0 0144.4-15zM795.6 75.4c19.3.3 36.3 4.7 49.8 18.5a55 55 0 0113.5 24.1c.8 2.7.4 4.2-2.7 5a870 870 0 00-26.4 7.5c-2.7.8-3.8.5-4.6-2.4-5.1-20-24.8-24.1-38.7-20-7.3 2.1-12.8 6.7-14.3 14.5-1.8 8.9 3.6 16.8 13.3 19.3 9.5 2.4 19.2 4 28.8 6.1a67 67 0 0131.2 14.8 49 49 0 01-1.8 73.6 67.9 67.9 0 01-47.4 15.1c-19.8-.5-37.8-5.8-51.9-20.6a54.8 54.8 0 01-13.8-25.6c-.6-2.7-.4-4.2 2.7-5 9.5-2.4 19-5.1 28.4-7.8 2.5-.7 3 0 3.6 2.3a33.3 33.3 0 0047.5 22.1c6.4-3.3 10.3-8.5 10.2-15.9 0-7.2-4-12.2-10.4-15.1-9.7-4.3-20.2-5.3-30.4-7.8a93 93 0 01-21.2-7.2A47.2 47.2 0 01748.3 95a63.4 63.4 0 0147.3-19.6z" class="st0"/>
</svg>
