<svg xmlns="http://www.w3.org/2000/svg" id="Layer_1" x="0" y="0" version="1.1" viewBox="0 0 1427.4 180.8" xml:space="preserve">
  <style>
    .st0{fill:#fff}
  </style>
  <g id="_x39_OjjbG.tif">
    <path d="M285.8 65.4l-11.4 22-40.4 77.4c-1.4 2.6-2.9 5.2-4 8-.8 2-2.2 2.7-4.2 2.9-2 .1-2.4-1.5-3.1-2.8-10.3-18.9-19.6-38.4-29.3-57.6l-48.2-95.7-6.4-13.2c-.8-1.7-.8-2.8 1.4-3.6 1.9-.6 3.7-.9 5.6-.9 8.2 0 16.5.1 24.7 0 2.1 0 3.1.8 4 2.5 6.3 12 12.1 24.3 18 36.6l33.1 67.9c.3.7.5 1.8 1.5 1.8s1.1-1.1 1.5-1.8c8.6-17 16.5-34.3 24.7-51.5l23-48.4 1.7-3c1.4-2.9 3.7-4.2 7-4.1h26.7c3.1 0 4.1 1.1 4.7 4.2.5 2.3.5 4.6.5 7v150.7c0 4.4-.7 8.8-.7 13.2 0 1.9-.8 2.7-2.9 2.8-5.6.3-11.3 1.1-16.9.4-2.1-.2-4.3-.2-6.4-.6-2.1-.4-3.4-1.7-3.6-3.9l-.3-5.7V69c.2-1 .4-2.1-.3-3.6zM42.1.1c10.7 0 21.5-.2 32.2 0 12.5.3 23.9 4 34.1 11.5a61.4 61.4 0 0121.8 30.5 60.2 60.2 0 01-36.9 73.7c-1.7.7-2 1.4-1.2 3.2 8 16.8 16.5 33.4 24.7 50.1 1.4 2.9 2.5 5.9 3.7 8.9.6 1.3.2 1.9-1.2 1.8-5.9-.3-11.7 1.2-17.7 1-3.4-.2-6.7-1-10.2-1.1-1.7 0-3.1-1.4-4-3-4.4-7.2-7.8-15-11.6-22.5-9-17.8-17.8-35.7-26.7-53.6l-2.5-5.7c-.6-1.3-.3-2.2 1.3-2.4 1.8-.3 3.6-.6 5.5-.6 6.9 0 13.8.1 20.7-.1A31 31 0 00103 73.7a33 33 0 002.7-19.2c-1-7.6-3.9-14.1-9.5-19.2a29.8 29.8 0 00-20.1-8.4c-17.9 0-35.8-.3-53.7.1-7.4.2-11.8-2.6-14.9-9.1L.4 4c-.9-1.9.1-2.6 1.4-2.8C4.2.8 6.6 0 9.1 0l33 .1zM1024.2 70.8l-11.2 22-13.9 27.7c-.7 1.5-1.7 2.8-2.7 4.2a5.4 5.4 0 01-8.4.4c-3.2-3.8-5.1-8.2-7.2-12.5C974 99 967.4 85.3 960 72c-.1-.3-.3-.5-1-.7v2.8l-.1 54c0 6.8-.1 6.8-6.7 6.8h-5.7c-2.1.2-2.7-.6-2.7-2.7l-.2-43.5c0-9.7.1-19.5-.3-29.2-.1-2.9.4-5.8.6-8.7.1-1.7 1-2.8 2.9-2.8l17.7-.1c1.5 0 1.9 1.1 2.4 2.1 7.8 15.5 15 31.4 23 46.8l.2.5c.7.8.6 2.4 1.8 2.5 1.4.1 1.5-1.6 1.9-2.5l19.3-39.8a37 37 0 012.5-4.3c1.8-2.8 4.1-4.5 7.8-4.2 4.7.3 9.5.2 14.2.1 1.9 0 2.4.7 2.4 2.5v81.2c0 1.8-.7 2.3-2.4 2.2h-10c-2.2.1-2.8-.6-2.8-2.8V82.7 71l-.6-.2zM441.2 91.6c0-13.3.1-26.7-.1-40 0-2.1.7-3.1 2.7-3.3l3-.3c12.6 0 25.2-.4 37.7.1a32 32 0 0120.5 7.2c7.7 6.9 9.1 16 7.8 25.8-.4 3.4-1.2 6.7-3 9.7a30.8 30.8 0 01-10.7 10.2c-3.9 2.5-3.8 2.4-1.1 6.3 5.3 7.8 11.3 15 15.9 23.3.5.9 1.5 1.7 1 2.7-.6 1.2-1.9.5-3 .6-3.8.2-7.6.9-11.4.1a6.1 6.1 0 01-3.2-1.6c-3.5-3.8-6.3-8.1-9.3-12.3-6.1-8.5-12.3-16.9-17.9-25.7-1.3-2-1.1-2.2 1.3-2.3 5.1-.2 10.3 0 15.4-.9 7.4-1.3 11.1-6.4 11.5-13.4.2-3-.2-5.8-1.5-8.5-2.2-4.4-6.3-6-10.7-6.1-8.9-.3-17.8-.1-26.7-.2-2.3 0-2.2 1.3-2.2 2.9l-.1 49.5v16c0 3.3-.2 3.5-3.6 3.6-2.9.1-5.8 0-8.7 0-3.3 0-3.3 0-3.3-3.3-.3-13.5-.3-26.8-.3-40.1zM854.1 85.5V60c0-3.4.6-6.8 1-10.2.2-1.5 1.1-1.9 2.4-1.9h14l40.5.1c2.4 0 3.2.8 3.1 3.2-.2 3.1-.2 6.2 0 9.2.1 2.2-1 2.6-2.8 2.8-5.8.6-11.6.6-17.5.6-7.1 0-14.2.1-21.2-.1-2.2 0-3.3.8-3.3 2.9l-.2 17c0 1.5.9 1.8 2.1 1.8 5 0 10 .1 15-.1 5.7-.2 11.5.2 17.2.3l1.2.1c5.4.4 5.4.4 5.9 5.8.1 1.7-.3 3.3-.6 4.9-.3 1.7-1.5 2.1-3.3 2.3-11.5 1.6-23 .4-34.4.7-2.5.1-3.3.8-3.2 3.3.2 5 .1 10 .1 15 0 2.2.7 3.2 3.2 3.2 13.7-.3 27.3.2 41 .7 1.7.1 2.4.6 2.3 2.3a141 141 0 000 9.2c0 1.7-.6 2.4-2.3 2.4l-57.2.1c-2.2 0-2.1-1.2-2.2-2.7-1-14.1-.7-28.5-.8-47.4zM1354.8 91.4c0-13.2.1-26.3-.1-39.5 0-2.6 1.2-3.7 3.5-3.8 3.2-.2 6.3-.3 9.5-.1 2.4.2 2.9 2.3 2.9 4.3l.1 25V83c0 1.6.5 2.4 2.3 2.5 12.2.4 24.3.4 36.5 0 2-.1 2.3-1.1 2.3-2.7V56.1c0-1.2-.1-2.3.1-3.5.4-3.6 1.5-4.6 5.1-4.6l8 .1c1.7 0 2.6.8 2.6 2.6l-.1 68.2c0 4.2-.3 8.5-.4 12.7 0 1.7-.6 2.4-2.4 2.3-3.2-.1-6.3 0-9.5.4-1.6.2-2.2-.4-2.5-2.2-1.3-9.5-.8-19.1-.8-28.7 0-2.4-.8-3.1-3.2-3.2-11.7-.4-23.3-.4-35 0-2.3.1-3 .8-3 3.1v27.5c0 2.7-1.4 3.6-3.6 4.1-3.5.9-7-.2-10.4-.2-1.7 0-1.7-1.6-1.7-2.8l-.1-19.2c-.2-7.1-.2-14.2-.1-21.3-.1 0-.1 0 0 0zM682.3 90.7V54.5c0-6.5.1-6.5 6.5-6.5 10.2 0 20.4-.4 30.5.1 9.9.5 19.1 3.6 25.7 11.7 3.8 4.6 5.7 10 6.1 15.9.3 4.6.3 9-.9 13.6a25 25 0 01-15.8 17.6 51.9 51.9 0 01-20.2 3.5H701c-2.3-.1-3.1.6-3 3 .1 5.7 0 11.3-.1 17v1.5c-.2 4.1-.2 4.1-4.3 4.1h-8.2c-1.7.1-2.3-.6-2.5-2.2-.3-3.2-.7-6.4-.7-9.7l.1-33.4c-.1 0-.1 0 0 0zm15.3-6h-.4v8.2c0 1.4.6 1.9 1.9 2 7.5.4 14.9 1.1 22.4-.1 5.4-.9 9.8-3.1 12-8.4 1.6-4 2.1-8.3 1.4-12.5-.5-3.2-1.8-6.1-4.6-8.3a24.1 24.1 0 00-10.3-4c-6.7-1.4-13.4-.6-20.1-.5-1.8 0-2.3 1-2.3 2.8v20.8zM589.2 90.5v-37c0-4.2 1.3-5.5 5.5-5.5 10.2 0 20.3-.3 30.5.1 9.8.4 18.9 3.3 26 10.7 3.8 4 6.1 8.9 6.6 14.2.6 6.5.9 13-1.6 19.4a25.8 25.8 0 01-14.6 14.4 50.6 50.6 0 01-19.9 3.4c-4.5.2-9 .2-13.5.1-2.4-.1-3.2.6-3.2 3.1.1 6.6.1 13.2-.6 19.7-.2 2-.7 2.8-2.8 2.7a141 141 0 00-9.2 0c-1.5 0-2.1-.3-2.3-2-1.9-12.4-.4-25-.9-37.4v-5.9zm15-8.5v10.2c0 1.8.5 2.7 2.6 2.7 7.3 0 14.6.8 21.9 0 5.2-.6 8.9-3 11.3-7.5 2.4-4.6 2.5-9.6 1.8-14.6-.3-2.4-1.7-4.4-3.4-6.2-4.5-4.5-10.3-5.1-16.1-5.6-4.9-.4-9.8 0-14.7-.1-2.1 0-3 .7-3 2.9 0 6.1-.7 12.2-.4 18.2zM1264.8 88.8a32.7 32.7 0 0024.2 30.9c7.4 1.7 14.5.7 21-3.4 2.7-1.7 5.6-3.2 8.3-5 1.5-.9 2.5-.8 3.6.6 1.8 2.4 3.8 4.7 5.7 6.9.9 1 .7 1.8-.2 2.7a42.2 42.2 0 01-21.7 12.3 47.1 47.1 0 01-18.3.6 42.3 42.3 0 01-21.7-10.1 41.6 41.6 0 01-13.4-19.4 48.2 48.2 0 014.5-39.4c6.4-9.4 15-16 26.2-18.9a44.6 44.6 0 0145.5 11.9c.7.7 1.1 1.4.3 2.3l-6.7 7.8c-.9 1.1-1.8 1.1-3 .3-5-3.4-10.2-6.1-16-7.9a29.6 29.6 0 00-35.6 15.1c-1.9 4.3-3 8.5-2.7 12.7zM1108.1 48.7c7-1.4 9.4 3.9 11.7 9.1l20.9 47.3 9.9 22.8.4 1.7c1.5 5.5 1.5 5.6-4.2 5.7-2.2 0-4.5-.2-6.7-.5-1.7-.2-2.6-1.7-3.5-3-3-4.3-4.7-9.3-6.9-14l-21.3-46.2a2 2 0 00-.4-.6c-.4-.5-.3-1.6-1.3-1.6-.9.1-.8.9-1.1 1.5l-7.6 16.7-18.3 41.3-1.4 2.6c-1.4 2.3-3.2 3.7-6.1 3.4-2.9-.2-5.8-.1-8.7-.1-1.6 0-2.1-.6-1.4-2.2 6.4-14.6 12.6-29.3 19.2-43.9 4.9-10.8 9.6-21.6 14.3-32.5l.4-.9c2.2-5.3 6.3-7.2 12.1-6.6zM1198.7 47.9h30.2c2 0 3 .4 3.3 2.6.4 2.8.4 5.6.2 8.5-.1 2.3-2.2 3.8-5.6 3.8-5.7.1-11.5.2-17.2.1-2.2 0-3.2.5-3.3 3-.6 10.9-.3 21.8-.4 32.7v30.7c0 4.8-1.7 6.3-6.4 5.9-2.1-.2-4.1-.4-6.2-.3-2.6.1-3.2-1.1-3.2-3.5-.6-21.7-.1-43.5-.3-65.2 0-3.3 0-3.3-3.2-3.3-6.2-.1-12.3-.2-18.5-.1-2.4 0-3.5-.8-3.3-3.4.2-2.6 0-5.2 0-7.7.1-2.9.8-3.7 3.8-3.7l30.1-.1c0 .1 0 .1 0 0zM803.9 134.4c-8.6-.7-17-.6-25.4-.6-1.6 0-2.4-.4-2.4-2.2V50.9c0-2.1 1.4-2.6 2.8-2.7 3.6-.2 7.2-.2 10.7-.2 1.5 0 1.4 1.1 1.4 2.1l.5 34.5.4 32c0 2 .7 2.6 2.6 2.6 11.2 0 22.5.2 33.7.8 2.1.1 3 .5 2.9 2.8-.2 3-.1 6 0 9 0 1.5-.4 2.2-2.1 2.2-8.5-.2-16.9-.2-25.1.4zM542.2 93.1V56.4l.1-3c.4-3.6 1.3-4.4 4.8-4.4h8.2c1.5 0 2 .6 2.1 2 .6 4.9.6 9.8.6 14.7l-.1 65.5c0 3.6 0 3.7-3.8 3.7-3 0-6-.1-9 .1-2.2.1-2.9-.7-2.9-2.9v-39z" class="st0"/>
  </g>
</svg>
