<svg xmlns="http://www.w3.org/2000/svg" id="Layer_1" x="0" y="0" version="1.1" viewBox="0 0 398.6 54.7" xml:space="preserve">
  <style>
    .st0{fill:#fff}
  </style>
  <path d="M0 .7h35v41.9h9.5c.3-.5.2-1 .2-1.4.1-5.1-.2-10.2.1-15.3.2-3.6 2.9-5.7 6.5-5.2 2 .3 3.5 1.9 3.8 4.2l.1 2.5v15.3h9.5l.1-.3c0-6.6.3-13.1-.2-19.7-.4-5.3-3.3-9.2-7.8-10.3-4.3-1.1-8.4-.7-11.8 2.7l-.4.2V.7h32.2v54h-77c.2-18 .2-36 .2-54zm21.5 41.9c.3-.5.2-.9.2-1.3v-9.6c0-1.9-.1-3.8.2-5.6.4-3.2 2.5-5.1 5.7-5.1h2.5v-8.9c-3.4-.4-6.1 1-8.6 3.4v-2.6h-9.4c-.2 2-.1 28.8.1 29.8l9.3-.1zM398.6 7.5c-.5.1-.4.6-.6.9a5.5 5.5 0 01-6.4 2.7 5.5 5.5 0 01-4.1-5.4c0-2.6 1.6-4.8 4.1-5.5 2.6-.7 5.1.4 6.4 2.6.2.3.1.9.6 1v3.7zm-.9-1.9c0-2.7-2-4.7-4.7-4.7a4.6 4.6 0 00-4.6 4.8c0 2.7 2 4.7 4.7 4.7s4.6-2.1 4.6-4.8zM118.1 42.7l-6-13.5-.6-1.4c-1.1-2.4-2.9-3.8-5.6-3.8h-4.8v18.6h-6V.8l.3-.1c5.2.1 10.4-.3 15.6.3 2.7.3 5.4.9 7.5 2.8 3.2 2.9 3.8 6.6 2.9 10.5-.8 3.7-3.4 5.8-6.9 7l-1.2.3-.1.1c1.9.8 3 2.4 3.9 4.2l7.6 16.1.2.6-6.8.1zm-17-24h5.8c1.4 0 2.7-.3 4-.7 2.9-1 4.4-3.2 4.3-6.1-.1-2.7-1.8-4.6-4.8-5.4-3.1-.8-6.2-.3-9.3-.5v12.7zM310.3.7h6.1v42h-6V23.6h-20v19h-6.1V.7h6.1v17.4h20L310.3.7zM167.5 38.5v4.1h-5.3V.7h5.5v15.6h.3c6-7.2 17.5-5.6 21.2 3a20.8 20.8 0 01-.4 17.1c-4.5 9.7-16.9 8.3-21.3 2.1zm.2-11.1c0 2.9.5 5.3 1.9 7.5 3.2 5.4 10.3 5.4 13.3 0 2.5-4.6 2.7-9.4.4-14.2a7.7 7.7 0 00-12.9-1.4c-2 2.5-2.7 5.4-2.7 8.1zM220.4 41.5c-4.9 2.1-10 2.6-15.2 1.2-4.1-1.1-7-3.8-8.5-7.8a21 21 0 01-.6-13.1c2-7 8.6-11 15.9-9.7 5.7 1 9 4.4 10.2 10.5l.5 3.6V29h-21.2a9.8 9.8 0 009.4 9.9c3.5.1 6.6-1.1 9.6-2.9l-.1 5.5zm-3.6-16.8c0-4.8-2.9-8.1-7-8.2-4.7-.1-8.1 3.2-8.3 8.2h15.3zM341.9 24.1c.4-4.7-2.1-7.5-6.8-7.6-3.4 0-4.4.3-9.3 2.9l-.3-4.7a18.5 18.5 0 0116-1.8c3.6 1.3 5.2 4.2 5.8 7.8.2 1.3.3 2.7.3 4.1.1 5.8-.2 11.7.2 17.5l-.1.4h-5.1v-3.4c-.4-.2-.5.1-.6.3-2.9 3.3-6.6 4.2-10.8 3.8-1.4-.2-2.8-.4-4-1a9 9 0 01-1.4-15.2c3.1-2.3 6.7-2.9 10.4-3l5.7-.1zm.1 4.5c-1.4-.3-2.7-.2-4-.2-2.4 0-4.8.3-7 1.4-1.9.9-3.1 2.5-2.9 4.7.2 2.2 1.6 3.5 3.6 4.2a7.7 7.7 0 0010.2-6.7l.1-3.4zM141.1 12c8.5 0 14.6 5.8 15.1 14.4.4 7.4-3.1 13.5-9.4 16a15.4 15.4 0 01-21.2-14.2c0-5.4 1.6-10 6-13.3 2.6-2 5.8-2.9 9.5-2.9zm-9.4 15.7c0 2.6.6 5 2 7.2a8.7 8.7 0 0014.8-.1c2.7-4.6 2.7-9.4 0-14a8.4 8.4 0 00-13.3-1.9 11.5 11.5 0 00-3.5 8.8zM366.3 12.7h4.2c.1-2 0-3.9.5-5.8 1-4.5 3.8-6.7 8.4-6.9 1.6 0 3.2-.1 4.9.3a22 22 0 01-.2 4.4c-2.3-.2-4.7-.8-6.5 1.1-1.7 1.9-1.4 4.3-1.4 6.7h7.8V17h-7.8v25.6h-5.6V17.2h-4.2l-.1-4.5zM252.5 12.8v-7l5.6-1.8v8.7h7.9v4.5h-7.6c-.4.4-.3.7-.3 1v15.3c0 3.1 1.6 5.2 4.2 5.4 1.4.1 2.8-.3 4.1-1v4.7c-2.9 1-5.7 1.2-8.7.3-3.4-1.1-5.2-3.8-5.3-7.8V18.7v-1.4h-4.5v-4.4l4.6-.1zM361.4 42.7h-5.5V.8h5.5v41.9zM234 42.7h-5.5V12.8h5.1v4c2.8-4 6.4-5.6 11.2-4.4v4.8l-2-.3c-3.3-.2-5.6 1.4-7.1 4.2a17.4 17.4 0 00-1.7 8.4v13.2z" class="st0"/>
  <path d="M391.1 2.4h2.7c.9 0 1.6.3 1.9 1.3.2.9-.1 1.6-.9 2.1l-.5.3 1.7 2.6c-.3.2-.6.1-1 .1l-1.7-2.7c-.4-.2-.8-.1-1.3-.1v2.7h-.9V2.4zm3.6 2.3c.1-1.5-.6-1.8-2.7-1.4v2c1-.1 2 .3 2.7-.6z" class="st0"/>
</svg>
