<?xml version="1.0" encoding="utf-8"?>
<!-- Generator: Adobe Illustrator 22.0.1, SVG Export Plug-In . SVG Version: 6.00 Build 0)  -->
<svg version="1.1" id="Layer_1" xmlns="http://www.w3.org/2000/svg" xmlns:xlink="http://www.w3.org/1999/xlink" x="0px" y="0px"
	 viewBox="0 0 171.6 91.8" style="enable-background:new 0 0 171.6 91.8;" xml:space="preserve">
<style type="text/css">
	.st0{fill:#FFFFFF;}
</style>
<path class="st0" d="M93.9,80.4c15.5,0,30.4,0,45.7,0c0,3.3,0,6.2,0,9.4c-19.1,0-38,0-57.3,0c0-29.2,0-58.3,0-87.8
	c18.8,0,37.7,0,57.1,0c0,3.1,0,6.3,0,10c-15.2,0-30.2,0-45.6,0c0,9.5,0,18.4,0,28c14.9,0,29.6,0,44.8,0c0,3.6,0,6.5,0,10
	c-14.9,0-29.6,0-44.7,0C93.9,60.2,93.9,69.9,93.9,80.4z"/>
<path class="st0" d="M0,77.2c2.2-2.8,4.3-5.4,6.1-7.8c5,3.1,9.5,6.5,14.5,9c7.3,3.6,15.1,3.9,22.8,1.7c6.8-1.9,11.1-7,11.4-13
	c0.4-5.5-2.9-10.3-9.8-13c-5.5-2.2-11.4-3.5-17.1-5.3c-3.9-1.3-8-2.4-11.7-4.1C9.1,41.5,3.9,36.4,3,28C1.9,18.5,5.4,11,13.2,5.6
	c14.3-9.9,39.7-6.4,51.4,7.3c-2.1,2.5-4.2,5-6.6,7.9c-1-0.8-2-1.5-3-2.4c-8.2-7.3-18-9-28.4-7.3c-2.9,0.5-6,2.3-8.2,4.4
	c-6.2,5.8-5.2,13.8,2.5,17.6c4.4,2.2,9.3,3.4,14,5c6.4,2.3,13,4.1,19.1,6.9c9.1,4.2,13,12,12.5,21.9c-0.5,9.4-5.2,16.3-13.6,20.6
	C36.8,96,12.5,91.3,0,77.2z"/>
<rect x="160.7" y="1.8" class="st0" width="10.9" height="88.1"/>
</svg>
