<?xml version="1.0" encoding="utf-8"?>
<!-- Generator: Adobe Illustrator 22.0.1, SVG Export Plug-In . SVG Version: 6.00 Build 0)  -->
<svg version="1.1" id="Layer_1" xmlns="http://www.w3.org/2000/svg" xmlns:xlink="http://www.w3.org/1999/xlink" x="0px" y="0px"
	 viewBox="0 0 1078.9 886.3" style="enable-background:new 0 0 1078.9 886.3;" xml:space="preserve">
<style type="text/css">
	.st0{display:none;}
	.st1{display:inline;fill:none;stroke:#FFFFFF;stroke-width:25;stroke-miterlimit:10;}
	.st2{display:inline;fill:#662D91;stroke:#FFFFFF;stroke-width:10;stroke-miterlimit:10;}
	.st3{fill:none;stroke:#FFFFFF;stroke-width:25;stroke-miterlimit:10;}
	.st4{fill:none;stroke:#FFFFFF;stroke-width:10;stroke-miterlimit:10;}
	.st5{fill:#FFFFFF;}
	.st6{fill:#F7C851;}
	.st7{opacity:0.8;fill:#FFFFFF;}
</style>
<g id="Background_-_OG_1_" class="st0">
	<path class="st1" d="M892,424.1c-81.4,201.1-180.4,449.6-180.4,449.6l-345.3-2.5L82.9,156.3h172.5L224.2,15l621.6-2.4l-54.5,152.9
		l206.1-1.3C997.3,164.1,948.9,283.5,892,424.1z"/>
	<path class="st2" d="M33.4,785.8c-9.3-92.9-18.6-185.2-27.9-278c356-38,711.9-38.2,1068-0.3c-9.3,92.7-18.6,185.2-27.9,278.3
		C708.2,750,370.9,749.1,33.4,785.8z"/>
</g>
<g id="Background_-_OG">
	<g>
		<path class="st3" d="M865.5,489.7c8.9-22.2,17.8-44.1,26.5-65.6c56.9-140.6,105.3-260,105.3-260l-206.1,1.3l54.5-152.9L224.2,15
			l31.3,141.3H82.9l132.2,333.5"/>
		<path class="st3" d="M323.5,763.4l42.7,107.8l345.3,2.5c0,0,17.5-44,43.9-110"/>
	</g>
	<path class="st4" d="M33.4,785.8c-9.3-92.9-18.6-185.2-27.9-278c356-38,711.9-38.2,1068-0.3c-9.3,92.7-18.6,185.2-27.9,278.3
		C708.2,750,370.9,749.1,33.4,785.8z"/>
</g>
<g id="STUDENT_GOVERNMENT">
	<path class="st5" d="M832.1,629.3c3.2-7.9,6.1-15.1,9-22.3c4.2-10.3,8.3-20.6,12.4-30.9c0.7-1.7,1.4-2.3,3.4-2.1
		c4.2,0.5,8.5,0.5,13.3,0.8c-1.9,32.8-3.9,65.5-5.8,98.5c-5.3-0.3-10.3-0.6-15.7-1c1-16.9,2-33.7,2.9-50.5c-0.2-0.1-0.4-0.1-0.6-0.2
		c-4.7,12-9.4,24-14.2,36.1c-3.8-0.2-7.5-0.3-11.2-0.7c-0.7-0.1-1.7-1.2-1.9-2.1c-2.8-11.5-5.6-23.1-8.3-34.6
		c-0.1-0.4-0.3-0.8-0.8-1.2c-1,16.9-1.9,33.9-2.9,51c-5.5-0.3-10.7-0.6-16.2-1c1.9-32.8,3.9-65.5,5.8-98.5c5.3,0.3,10.4,0.6,15.7,1
		C822,590.7,827,609.6,832.1,629.3z"/>
	<path class="st5" d="M782.4,668.5c-5.2-0.3-10.1-0.6-14.9-0.7c-1.7,0-1.6-1.2-1.9-2.2c-3.5-13.1-6.9-26.2-10.3-39.4
		c-1.2-4.6-2.4-9.2-4.1-13.7c-0.9,18-1.8,35.9-2.7,54.4c-5.2-0.2-10.4-0.5-15.7-0.7c1.6-33,3.2-65.7,4.8-98.6
		c6.2,0.3,12.2,0.6,18.1,1.1c0.6,0,1.3,1.2,1.5,1.9c3.7,13.4,7.2,26.9,10.8,40.3c0.2,0.8,0.5,1.6,1.2,2.4c0.7-14.6,1.4-29.2,2.2-44
		c5.3,0.3,10.3,0.5,15.7,0.8C785.6,602.8,784,635.5,782.4,668.5z"/>
	<path class="st5" d="M362.3,609.9c-0.8-14.6-1.6-29.2-2.4-43.9c5.3-0.3,10.3-0.6,15.7-0.9c1.8,32.8,3.6,65.5,5.4,98.5
		c-5.2,0.3-10.2,0.7-15.2,0.9c-0.6,0-1.4-1.2-1.7-2c-6.1-16.1-12.2-32.2-18.3-48.3c-0.4-0.9-0.7-1.9-1.5-2.7c1,17.9,2,35.8,3,54.2
		c-5.2,0.3-10.3,0.6-15.7,0.8c-1.8-32.9-3.6-65.5-5.4-98.5c4.9-0.3,9.5-0.6,14.2-0.9c5-0.2,5-0.2,6.8,4.5
		c4.7,12.3,9.4,24.5,14.1,36.8c0.2,0.5,0.4,1.1,0.6,1.6C361.9,610,362.1,609.9,362.3,609.9z"/>
	<path class="st5" d="M948.9,624.9c-1.3,17.8-2.7,35.6-4.1,53.8c-5.2-0.4-10.3-0.7-15.7-1.1c2.5-32.8,4.9-65.5,7.4-98.4
		c4.2,0.3,8.2,0.6,12.2,0.9c0.6,0,1.2,0.2,1.8,0.2c5.1,0.4,5.1,0.4,6.3,5.3c3.1,12.9,6.2,25.7,9.3,38.6c0.2,0.6,0.4,1.3,0.9,1.8
		c1.1-14.6,2.2-29.2,3.4-44.2c5.2,0.4,10.3,0.8,15.7,1.1c-2.5,32.8-4.9,65.4-7.4,98.4c-5.3-0.4-10.3-0.8-15.3-1.3
		c-0.5-0.1-1.2-1.1-1.3-1.8c-4-16.8-7.9-33.7-11.9-50.6c-0.2-0.9-0.5-1.8-0.7-2.7C949.3,624.9,949.1,624.9,948.9,624.9z"/>
	<path class="st5" d="M223,674.4c-2.5-32.8-4.9-65.3-7.3-98c0.8-0.2,1.4-0.4,2-0.4c10.5-0.8,21-1.6,31.5-2.2
		c7-0.4,11.2,3.7,11.7,10.7c1.7,22.7,3.4,45.4,5.1,68c0.2,2.9,0.5,5.8,0.6,8.7c0.2,5.9-3.9,10.3-9.7,10.8
		c-10.3,0.8-20.6,1.6-30.9,2.4C225,674.4,224.1,674.4,223,674.4z M250.4,656.7c-1.7-22.5-3.4-44.7-5-67.1c-4.4,0.4-8.6,0.7-12.9,1.1
		c1.7,22.4,3.3,44.6,5,67C241.9,657.3,246,657,250.4,656.7z"/>
	<path class="st5" d="M556.9,611.5c0,12.8,0,25.7,0,38.5c0,6.5-4.6,10.9-11.1,10.8c-7.6-0.1-15.2-0.2-22.8-0.2
		c-6-0.1-10.5-4.3-10.5-10.3c0.1-26,0.3-52,0.5-78.1c0.1-5.9,5-10.4,10.9-10.3c7.6,0.1,15.2,0.2,22.8,0.4c6.3,0.1,10.6,4.4,10.6,11
		c0,12.7,0,25.5,0,38.2C557.2,611.5,557.1,611.5,556.9,611.5z M528.5,644.9c4,0,8.2,0,12.8,0c0-22.4,0-44.7,0-66.9
		c-4.2,0-8.3,0-12.8,0C528.5,600.3,528.5,622.5,528.5,644.9z"/>
	<path class="st5" d="M719.7,665.3c-5.3,0-10.3,0-15.7,0c0.5-13.4,1-26.4,1.6-39.8c-4.4,0-8.5,0-13,0c-0.5,12.7-1.1,25.7-1.6,38.7
		c-5.3,0-10.3,0-15.7,0c1.3-33.1,2.6-65.8,3.9-98.7c2.1,0,4-0.1,5.9,0c8.5,0.3,16.9,0.7,25.4,1c6.6,0.3,11.1,4.9,10.8,11.5
		c-0.4,10.3-1,20.7-1.4,31c-0.1,3.6-1.5,6.4-4.9,8.3c5.4,3,6.3,7.6,6,13c-0.6,11-0.9,22-1.3,33.1
		C719.8,664.1,719.7,664.7,719.7,665.3z M704.2,609.6c0.4-8.7,0.8-17.4,1.1-26.1c0-0.5-0.8-1.4-1.2-1.5c-3.2-0.1-6.4-0.1-9.8-0.1
		c-0.4,9.2-0.7,18.3-1.1,27.6C697,609.6,700.5,609.6,704.2,609.6z"/>
	<path class="st5" d="M157.4,580.7c5.3-0.4,10.3-0.9,15.6-1.3c2.3,27.5,4.5,55,6.8,82.7c4.3-0.4,8.5-0.7,12.9-1.1
		c-2.3-27.6-4.5-54.9-6.8-82.6c5.1-0.4,10.3-0.9,15.6-1.3c0.4,4.9,0.8,9.5,1.2,14c1.3,16.1,2.7,32.2,4,48.3
		c0.7,8.6,1.5,17.2,2.1,25.8c0.4,5.9-4,10.6-10.4,11.1c-7.6,0.6-15.2,1.2-22.8,1.8c-5.6,0.4-10.5-3.5-11-9.1
		c-1.1-11.8-2.1-23.7-3-35.5c-1-11.5-1.9-23-2.8-34.5C158.3,593,157.9,587.1,157.4,580.7z"/>
	<path class="st5" d="M499.4,615.6c0,5.3,0,10.6,0,15.9c0,6,0.2,12,0.2,18c0,6.9-3.8,10.9-10.6,11.1c-7.8,0.3-15.6,0.4-23.4,0.4
		c-5.7,0-10.2-4.5-10.4-10.2c-0.1-4.9-0.1-9.8-0.1-14.6c-0.2-20.9-0.4-41.8-0.5-62.7c0-6.7,4.3-11,11-11.1
		c7.4-0.1,14.9-0.2,22.3-0.2c6.6,0,10.9,4.3,10.9,10.9c0,6.1,0,12.1,0,18.4c-5.1,0-10.2,0-15.6,0c0-4.5,0-8.9,0-13.5
		c-4.6,0-8.7,0-12.7,0c0,22.4,0,44.6,0,67c4.6,0,8.8,0,13.1,0c0-4.5,0-9,0-13.7c-1.7,0-3.2,0-5,0c0-5.3,0-10.3,0-15.7
		C485.4,615.6,492.2,615.6,499.4,615.6z"/>
	<path class="st5" d="M98.9,611.2c-5.2,0.5-10.1,0.9-15.4,1.4c-0.3-3.2-0.7-6.2-1.1-9.6c-4.2,0.4-8.3,0.8-12.8,1.2
		c0.8,8.2,1.5,16.2,2.3,24.6c5.2-0.5,10.3-1,15.4-1.4c2-0.2,4.2-0.4,6.1,0c4.5,0.9,7.6,4.7,8.1,9.5c1.2,12.4,2.3,24.9,3.4,37.3
		c0.5,5.7-3.9,10.5-9.8,11c-7.2,0.6-14.3,1.3-21.5,2c-8,0.7-12.7-3.4-13.2-11.4c-0.3-4.5-0.8-9-1.2-13.7c5.3-0.5,10.3-1,15.5-1.5
		c0.4,3.5,0.8,6.8,1.2,10.4c4.3-0.4,8.4-0.7,12.8-1.1c-0.8-8.9-1.7-17.7-2.5-26.7c-6,0.5-11.7,1-17.4,1.6
		c-6.2,0.7-11.4-3.2-12.1-9.4c-1.2-11.9-2.4-23.8-3.4-35.8c-0.5-5.3,3.3-10.1,8.7-10.6c8.3-0.9,16.7-1.7,25-2.3
		c5.4-0.4,9.7,3.3,10.4,8.8c0.6,4.7,1,9.5,1.5,14.3C99,610.2,98.9,610.6,98.9,611.2z"/>
	<path class="st5" d="M582.1,562.2c2.9,24.3,5.8,48.2,8.6,72.1c0.2,0,0.4,0,0.6,0c3.8-23.8,7.6-47.5,11.4-71.2c5.5,0,10.7,0,16.3,0
		c-5.6,32.9-11.1,65.5-16.6,98c-8,0-15.7,0-23.7,0c-4.3-33.1-8.5-66-12.7-98.9C571.4,562.2,576.6,562.2,582.1,562.2z"/>
	<path class="st5" d="M626.9,563.7c13.1,0.4,25.9,0.8,38.7,1.2c0,5.2,0,10.3,0,15.3c-7.9,0-15.5,0-23.4,0c-0.1,3.8-0.3,7.9-0.4,12
		c-0.1,3.5-0.1,7-0.4,10.5c-0.2,1.9,0.5,2.2,2.1,2.2c4.7,0,9.4,0,13.9,0c0,5.7,0,10.7,0,15.8c-5.6,0-11,0-16.5,0
		c-0.3,8.6-0.5,17.3-0.8,26.3c5.7,0.2,11.4,0.4,17,0.6c2.4,0.1,5.6-0.7,6.9,0.6c1.2,1.2,0.4,4.5,0.4,6.8c0,2.6-0.1,5.1-0.2,7.7
		c0,0.2-0.2,0.5-0.4,0.8c-13.2-0.4-26.4-0.8-39.9-1.2C624.9,629.5,625.9,596.9,626.9,563.7z"/>
	<path class="st5" d="M918.5,661.5c-0.3,5.3-0.7,10.4-1,15.7c-13.5-0.9-26.7-1.8-40.2-2.7c2.2-32.8,4.4-65.5,6.7-98.4
		c13,0.9,25.9,1.7,39,2.6c-0.4,5.2-0.7,10.3-1.1,15.7c-7.7-0.5-15.3-1-23.2-1.5c-0.3,3.4-0.5,6.6-0.7,9.8c-0.3,4.4-0.5,8.9-0.9,13.3
		c-0.2,1.9,1,1.9,2.2,2c3.5,0.2,7,0.4,10.5,0.6c1.1,0.1,2.2,0.2,3.5,0.4c-0.4,5.2-0.7,10.2-1,15.6c-5.5-0.4-10.8-0.7-16.4-1.1
		c-0.6,8.9-1.2,17.7-1.8,26.6C902.3,660.4,910.2,660.9,918.5,661.5z"/>
	<path class="st5" d="M291.9,610.9c5.4-0.3,10.6-0.6,16.3-0.9c0.4,5.2,0.7,10.3,1.1,15.6c-5.6,0.4-10.8,0.8-16.4,1.2
		c0.6,8.9,1.2,17.7,1.8,26.5c8.3-0.5,16.2-1,24.5-1.6c0.3,5.3,0.7,10.3,1,15.6c-13.4,0.9-26.6,1.8-40.1,2.7
		c-2.2-32.8-4.3-65.5-6.5-98.5c13.1-0.9,25.8-1.7,39-2.6c0.3,5.3,0.7,10.4,1,15.6c-7.9,0.5-15.4,1.1-23.3,1.6
		C290.8,594.4,291.3,602.5,291.9,610.9z"/>
	<path class="st5" d="M384.9,580.7c0-5.3,0-10.4,0-15.7c14.1-0.6,28.4-1.2,42.8-1.7c0.2,5.3,0.5,10.3,0.7,15.7
		c-4.6,0.2-9.1,0.4-13.8,0.6c1.1,27.6,2.2,55.1,3.3,83.1c-5.3,0-10.4,0-15.7,0c-0.2-4.9-0.4-10.2-0.6-15.4
		c-0.8-20.1-1.7-40.1-2.5-60.2c-0.3-6.8-0.2-6.8-7-6.6C390,580.4,387.8,580.6,384.9,580.7z"/>
	<path class="st5" d="M1016.2,684.8c-5.4-0.5-10.4-0.9-15.7-1.3c2.3-27.5,4.5-54.9,6.8-82.7c-4.6-0.4-9-0.8-13.7-1.2
		c0.4-5.2,0.8-10.3,1.2-15.6c14.4,1.2,28.7,2.4,43.2,3.6c-0.4,5.2-0.8,10.2-1.3,15.6c-4.5-0.3-8.9-0.6-13.8-1
		C1020.8,629.5,1018.5,657,1016.2,684.8z"/>
	<path class="st5" d="M120.5,599.8c-4.7,0.4-9.1,0.8-13.7,1.2c-0.5-5.2-0.9-10.2-1.4-15.6c14.4-1.3,28.6-2.5,43.2-3.8
		c0.5,5.2,0.9,10.3,1.4,15.6c-4.6,0.5-9.1,0.9-13.8,1.3c2.4,27.6,4.8,55,7.2,82.6c-5.3,0.5-10.3,0.9-15.6,1.4
		C125.4,654.9,122.9,627.5,120.5,599.8z"/>
</g>
<g id="ASSOCIATION">
	<path class="st6" d="M681.8,706.1c-0.4,10.4-0.8,20.8-1.2,31.6c-3-0.2-5.9-0.3-9-0.5c0.7-19.3,1.4-38.3,2.1-57.3
		c3.5,0,6.7-0.1,9.9,0.1c0.6,0,1.5,1.2,1.7,2c2.1,7.3,4.1,14.6,6.2,21.9c0.2,0.6,0.4,1.2,1.1,1.8c0.3-8.4,0.7-16.8,1-25.5
		c3,0.2,5.8,0.3,8.3,0.4c0,6,0.1,11.8,0,17.6c-0.3,12.5-0.8,25-1.2,37.4c-0.1,1.9-0.4,2.7-2.6,2.6c-6.8-0.2-6.8-0.1-8.7-6.6
		c-2.2-7.7-4.3-15.5-6.4-23.2c-0.2-0.8-0.5-1.6-0.7-2.4C682.1,706,681.9,706,681.8,706.1z"/>
	<path class="st6" d="M491.7,708.8c0,6.5,0,13,0,19.5c0,4-2,6.1-5.9,6.2c-4.5,0.2-9.1,0.3-13.6,0.4c-3.6,0-6.2-2.5-6.2-6.1
		c-0.2-15.2-0.4-30.4-0.5-45.7c0-3.6,2.4-6.1,6.1-6.1c4.5-0.1,9.1-0.1,13.6-0.1c3.6,0,5.9,2.3,6,5.9c0.1,8.6,0,17.3,0,25.9
		C491.4,708.8,491.5,708.8,491.7,708.8z M474.6,686.2c0,4.8,0,9.2,0,13.7c0,7.9,0,15.7,0.2,23.6c0,0.8,0.8,2.2,1.2,2.2
		c2.2,0,4.4-0.3,6.7-0.6c0.1,0,0.1-0.6,0.1-1c-0.1-10.8-0.2-21.5-0.3-32.3c0-1.9,0-3.7,0-5.6C479.6,686.2,477.2,686.2,474.6,686.2z"
		/>
	<path class="st6" d="M663.8,693.1c-0.4,12.5-0.7,25-1.1,37.5c-0.1,3.7-2.4,6.1-6.1,6.1c-4.5,0-9.1,0-13.6-0.3
		c-4-0.2-6.3-2.7-6.2-6.7c0.4-15.1,0.9-30.3,1.4-45.4c0.1-3.2,2.6-5.7,5.8-5.7c5,0,9.9,0.2,14.9,0.5c2.8,0.2,4.9,2.4,5,5.2
		C664,687.2,663.9,690.2,663.8,693.1C663.8,693.1,663.8,693.1,663.8,693.1z M654.2,727.4c0-6-0.1-11.8,0-17.6
		c0.1-6.5,0.4-13,0.5-19.5c0-0.8-0.7-2.3-1.3-2.4c-2.1-0.3-4.2-0.1-6.4-0.1c-0.4,13.4-0.7,26.4-1.1,39.6
		C648.6,727.4,651,727.4,654.2,727.4z"/>
	<path class="st6" d="M582.9,735.2c-3.3,0-6.3,0-9.2,0c-0.4-3.3-0.8-6.4-1.3-9.9c-2.8,0-5.4-0.1-8,0.1c-0.7,0.1-1.5,1.3-1.7,2.2
		c-0.5,2.4-0.7,4.9-1,7.4c-3.3,0-6.4,0-9.6,0c2.7-19.2,5.4-38.3,8.1-57.4c5.4,0,10.7,0,16.2,0C578.5,696.8,580.7,715.9,582.9,735.2z
		 M571.4,716.1c-1.1-9.4-2.1-18.6-3.1-27.8c-0.2,0-0.4,0-0.5,0c-1.2,9.2-2.4,18.4-3.6,27.7C566.7,716.1,568.9,716.1,571.4,716.1z"/>
	<path class="st6" d="M379.7,736.9c-0.4-2.6-0.8-5-1.1-7.5c-0.2-1.4-0.7-2.2-2.3-2.1c-2.5,0.2-4.9,0.4-7.6,0.5
		c-0.3,3.2-0.7,6.3-1,9.6c-3.2,0.2-6.2,0.4-9.5,0.6c0.4-4.2,0.7-8.2,1-12.1c1.1-12.4,2.3-24.8,3.5-37.3c0.2-2.3,0.3-4.6,0.7-6.9
		c0.1-0.7,1.1-1.7,1.8-1.8c4.3-0.3,8.7-0.5,13.1-0.5c0.6,0,1.6,1,1.7,1.6c3,17.7,5.9,35.4,8.7,53.1c0.1,0.8,0,1.7,0,2.7
		C385.8,736.9,382.9,736.9,379.7,736.9z M376.8,718.4c-1.5-9.5-3-18.7-4.4-27.9c-0.2,0-0.4,0-0.5,0c-0.8,9.3-1.5,18.6-2.3,27.9
		C372,718.4,374.2,718.4,376.8,718.4z"/>
	<path class="st6" d="M420,693.2c-2.9,0-5.7,0-8.7,0c-0.1-1.6-0.3-3.4-0.5-5.3c-2.1,0-4.2-0.1-6.3,0.1c-0.5,0-1.2,1-1.3,1.7
		c-0.1,1.9,0,3.8,0,5.6c0.1,2.4,0.3,4.8,0.5,7.1c3.3,0,6.5,0,9.7,0c4.8,0,7.1,2.2,7.2,7c0.1,6.8,0.4,13.7,0.5,20.5
		c0.1,4-2,6.3-6,6.5c-4.8,0.2-9.6,0.3-14.4,0.2c-2.7,0-5-2.1-5.3-4.7c-0.3-3.2-0.4-6.5-0.6-10.1c3.1,0,5.9,0,9.1,0
		c0.1,1.6,0.2,3.5,0.3,5.6c2.5,0,4.9,0,7.4,0c0-5.2,0-10.4,0-15.6c-3.4,0-6.5-0.1-9.6,0c-4.8,0.2-7.4-2.2-7.5-7
		c-0.1-6.4-0.4-12.8-0.5-19.2c-0.1-4.3,2-6.4,6.3-6.6c4.4-0.2,8.7-0.3,13.1-0.4c4-0.1,6.2,2,6.5,6c0.2,2.2,0.1,4.4,0.2,6.7
		C420.2,691.8,420.1,692.3,420,693.2z"/>
	<path class="st6" d="M431,720.8c2.8,0,5.6,0,8.6,0c0.1,0.6,0.2,1.2,0.2,1.8c0.1,4.5,0.2,4.6,4.7,4.1c0.9-0.1,1.9-0.2,3-0.4
		c0-5.1,0-10.1,0-15.5c-3.2,0-6.4,0-9.5,0c-5.4,0-7.4-2-7.5-7.4c-0.1-6.3-0.3-12.7-0.4-19c0-4.4,2.1-6.3,6.5-6.4
		c4.2-0.1,8.4-0.3,12.6-0.3c4.3,0,6.5,2,6.9,6.3c0,0.3,0,0.7,0,1c0,2.3,0,4.6,0,7.2c-2.8,0-5.7,0-9,0c0-1-0.1-2,0-3.1
		c0.2-1.9-0.6-2.5-2.4-2.3c-1.8,0.2-3.5,0.2-5.3,0.3c0,5,0,9.7,0,14.5c3.5,0,6.8,0,10.2,0c4.5,0,6.5,1.8,6.7,6.2
		c0.3,7.3,0.4,14.5,0.5,21.8c0,3.4-2.4,5.8-5.8,5.9c-4.3,0.2-8.5,0.3-12.8,0.4c-4.7,0.1-7.1-2.3-7.1-7
		C430.9,726.2,431,723.6,431,720.8z"/>
	<path class="st6" d="M527,694.3c-2.9,0-5.6,0-8.6,0c0-2.6,0-5.2,0-7.9c-2.8,0-5.3,0-7.8,0c0,13.2,0,26.2,0,39.4c2.6,0,5,0,7.7,0
		c0-2.6,0-5.2,0-7.9c3.1,0,5.8,0,8.8,0c0,4.2,0.2,8.5-0.1,12.7c-0.2,2.7-2.8,4.4-5.8,4.5c-4.6,0.1-9.2,0.1-13.9,0
		c-3.5-0.1-5.9-2.6-5.9-6.1c-0.1-15-0.1-30-0.1-44.9c0-4.4,2.4-6.8,6.8-6.9c4.1,0,8.2,0,12.3,0c4.2,0,6.6,2.3,6.6,6.5
		c0.1,3.2,0,6.3,0,9.5C527.2,693.4,527.1,693.7,527,694.3z"/>
	<path class="st6" d="M587.9,686.1c0-3.1,0-5.8,0-8.6c8.4,0,16.6,0,25,0c0,3.1,0,6,0,9.1c-2.7,0-5.2,0-8,0c-0.1,1.9-0.2,3.6-0.2,5.3
		c-0.2,13.7-0.5,27.4-0.6,41c0,1.9-0.6,2.6-2.5,2.5c-2-0.2-4.1-0.3-6.5-0.4c0-3.7-0.1-7.5,0-11.2c0.2-11.1,0.4-22.2,0.6-33.3
		c0.1-4,0-4-4-4.2C590.5,686.2,589.3,686.1,587.9,686.1z"/>
	<path class="st6" d="M545.4,677.2c0,19.4,0,38.4,0,57.6c-3,0-5.7,0-8.8,0c0-0.8-0.1-1.7-0.1-2.6c0-17.4,0.1-34.9,0.1-52.3
		c0-2.1,0.6-2.9,2.8-2.7C541.3,677.3,543.3,677.2,545.4,677.2z"/>
	<path class="st6" d="M619.5,678.6c3.1,0,5.8,0,8.8,0c0,4.5,0.1,9,0,13.4c-0.3,13.7-0.7,27.3-1,41c-0.1,3.4,0,3.4-3.3,3.2
		c-1.8-0.1-3.7,0-5.8,0C618.6,716.7,619,697.7,619.5,678.6z"/>
</g>
<g id="WEST_CHESTER_UNIVERSITY">
	<path class="st7" d="M360.1,503.1c-0.5,0.8-0.5,1-0.6,1c-4.6,0.6-4.9,3.8-4.7,7.5c0.5,9,0.7,17.9,1.1,26.9c0.2,3.7,1.1,4.7,4.8,5.4
		c0.3,0.1,0.5,0.3,0.8,0.4c0,0.3,0,0.5-0.1,0.8c-6.9,0.3-13.7,0.6-20.6,1c-0.1-0.2-0.2-0.4-0.2-0.6c0.8-0.3,1.6-0.8,2.4-1
		c1.9-0.5,2.9-1.8,2.9-3.7c0-5,0-10.1,0-14.9c-5.3,0-9.8-0.1-14.3,0.1c-0.5,0-1.4,1.2-1.4,1.9c0.1,4.4,0.2,8.7,0.5,13.1
		c0.2,2.4,1.5,4,4.1,4.1c0.5,0,1,0.3,1.5,0.4c0,0.3,0,0.6-0.1,0.8c-6.9,0.3-13.8,0.6-21.1,1c0.4-0.7,0.5-1,0.7-1.1
		c4.8-1.7,4.9-1.7,4.7-6.7c-0.3-9.2-0.7-18.5-1.1-27.7c-0.2-3.7-0.9-4.5-4.5-5.5c-0.4-0.1-0.7-0.3-1.1-0.4c0-0.3,0-0.5,0.1-0.8
		c6.8-0.3,13.6-0.6,20.5-0.8c0.1,0.2,0.1,0.4,0.2,0.7c-0.4,0.3-0.9,0.6-1.3,0.8c-3.2,0.9-3.8,1.6-3.7,4.8c0.1,4.2,0.2,8.5,0.4,12.4
		c5,0,9.5,0,14-0.1c0.4,0,1.2-1,1.2-1.5c-0.1-4.2-0.1-8.4-0.7-12.5c-0.2-1.2-1.9-2.3-3.1-3.3c-0.6-0.5-1.5-0.4-2.3-0.6
		c0-0.3,0-0.6,0-0.8C346,503.7,352.8,503.4,360.1,503.1z"/>
	<path class="st7" d="M41.6,528.3c5.9-0.7,11.7-1.4,17.6-2.1c0.1,0.2,0.1,0.4,0.2,0.6c-0.3,0.3-0.6,0.8-1,0.9
		c-2.6,0.6-2.9,2.4-2,4.3c3.3,7.1,6.8,14.1,10.9,21.2c0.3-1,0.7-1.9,0.9-2.9c1.1-4.3,2.1-8.6,3.2-12.9c1.3-5-1.5-9.5-6.5-10.6
		c-0.3-0.1-0.5-0.4-1.3-1c6.9-0.8,13.2-1.6,19.5-2.4c0.1,0.3,0.2,0.6,0.2,0.9c-0.7,0.3-1.3,0.6-2,0.8c-1.8,0.6-2.5,1.6-1.6,3.5
		c3.3,6.9,6.7,13.8,10,20.7c0.2,0,0.5,0,0.7,0c0.5-1.9,1-3.8,1.4-5.7c1-4.8,1.9-9.7,2.8-14.5c0.8-3.9,0.3-4.6-3.8-5.4
		c-0.3-0.1-0.5-0.4-1.3-1.1c4.2-0.5,7.7-0.9,11.8-1.4c-0.5,0.9-0.7,1.2-0.9,1.5c-1,1.6-2.6,3-3,4.8c-2.7,12.7-5.2,25.4-7.8,38.1
		c0,0.2-0.1,0.5-0.5,1.5c-0.9-1.1-1.6-1.7-2-2.5c-3.9-7.8-7.8-15.6-11.7-23.4c-0.4-0.9-1-1.7-1.8-3.3c-1.3,5-2.4,9.2-3.5,13.4
		c-1.4,5.4-2.7,10.7-4.1,16.1c-0.2,0.7-0.9,1.3-1.4,1.9c-0.5-0.5-1.1-1-1.4-1.6c-5.4-10.9-10.7-21.8-16.1-32.6
		c-1.2-2.5-2-5.4-5.8-5.6C41.4,529,41.5,528.7,41.6,528.3z"/>
	<path class="st7" d="M540.7,541.1c6.3-0.2,6-4.5,6-8.6c0-7.5,0-15.1,0-22.6c0-6.5,0-6.5-6-9.5c1.4-0.1,2.1-0.3,2.9-0.3
		c7.2,0,14.4,0.1,21.6,0.2c2,0.1,4.1,0.5,6,1c4.9,1.5,7.5,4.5,7.7,8.5c0.3,5.2-1.7,8.5-6.6,10.7c-1,0.5-2,0.8-3.5,1.4
		c5.3,6.8,9.6,14,15.5,20.3c-4.1,0-8.3,0.1-12.4-0.1c-0.6,0-1.3-1-1.8-1.7c-4.3-5.8-8.5-11.5-13.4-17.2c0,1.6,0,3.3,0,4.9
		c0,2.5,0,5,0,7.4c0,3.7,0.7,4.6,4.4,5.4c0.3,0.1,0.5,0.2,0.7,0.9c-6.9,0-13.8,0-20.6,0C541.1,541.6,540.9,541.3,540.7,541.1z
		 M556.8,521.2c2.7-0.5,4.9-0.8,7.1-1.3c2.6-0.6,4-2.5,4.2-4.9c0.3-2.4,0.4-5,0-7.4c-0.7-4.3-4.8-6.9-9-5.5c-1,0.3-2.2,1.6-2.3,2.5
		C556.7,509.9,556.8,515.2,556.8,521.2z"/>
	<path class="st7" d="M878.2,554.2c-3.8-0.2-7.7-0.4-11.7-0.8c-0.6-0.1-1.3-1-1.7-1.7c-3.5-5.4-6.9-10.8-10.4-16.2
		c-0.4-0.7-1-1.4-2-2c-0.3,4.6-0.7,9.2-0.8,13.8c0,1.9,1,3.4,3.1,3.8c0.7,0.1,1.3,0.5,1.9,0.8c-0.1,0.3-0.1,0.5-0.2,0.8
		c-6.9-0.5-13.8-0.9-21.1-1.4c0.5-0.7,0.6-1.1,0.8-1.1c4.7-0.9,5.2-1.3,5.6-6.3c0.5-6,0.8-11.9,1.2-17.9c0.2-3.2,0.4-6.5,0.5-9.7
		c0.1-4.1-0.1-4.3-4-5.6c-0.4-0.1-0.7-0.4-0.9-1.2c1.8,0,3.6-0.1,5.4,0c6.4,0.5,12.8,0.9,19.1,1.6c2.4,0.3,4.8,1.2,7,2.2
		c3.5,1.6,5.4,4.5,5.4,8.3c0,3.9-1.6,7.2-5.2,9c-1.7,0.9-3.4,1.4-5.7,2.3C869,540,873.5,546.9,878.2,554.2z M865.1,521.2
		c-0.1-4.8-1.8-7.9-5.4-8.6c-5.1-0.9-6.3-0.2-6.3,4.6c-0.1,3.7-0.3,7.3-0.7,11c-0.3,2.2,0.2,3.3,2.6,2.9c0.9-0.1,1.9,0,2.8-0.1
		c3.1-0.4,5.6-1.7,6.3-5C864.7,524.4,864.8,522.8,865.1,521.2z"/>
	<path class="st7" d="M531.5,500.7c0,3.8,0,7.8,0,11.7c-0.2,0-0.4,0.1-0.6,0.1c-0.3-0.6-0.7-1.2-0.8-1.9c-1.3-5.7-5.3-8-10.8-8.5
		c-7.7-0.7-8.2-0.2-8.2,7.4c0,2.9,0.1,5.8,0,8.7c-0.1,1.8,0.7,2.1,2.4,2c4.3-0.4,6.7-2.6,7.7-6.7c0.2-0.8,0.6-1.6,0.9-2.5
		c0.2,0,0.5,0.1,0.7,0.1c0,6.7,0,13.5,0,20.2c-0.2,0-0.4,0.1-0.7,0.1c-0.3-1.2-0.6-2.3-0.9-3.5c-1.2-4.1-4.3-6.3-8.4-6
		c-0.5,0-1.4,0.9-1.4,1.5c-0.1,4.6-0.1,9.2,0,13.9c0,2.5,1.7,3.4,3.9,3.5c7.6,0.4,13.8-1.8,17.5-9.1c0.4-0.8,0.9-1.5,1.8-2.9
		c0.2,1.2,0.4,1.8,0.3,2.2c-0.6,3.2-1.2,6.4-2,9.5c-0.2,0.7-1.1,1.6-1.7,1.6c-11.5,0.2-22.9,0.2-34.4,0.3c-0.2,0-0.4-0.2-1.3-0.7
		c1.2-0.3,1.8-0.5,2.4-0.7c2.3-0.5,3.6-1.9,3.6-4.3c0-8.6-0.1-17.1-0.1-25.7c0-1.5-0.1-2.9-0.1-4.4c0-3.5-0.5-4.2-4-5.1
		c-0.5-0.1-1.1-0.3-1.5-1.1C507.4,500.7,519.3,500.7,531.5,500.7z"/>
	<path class="st7" d="M107.9,520.5c11.7-1.2,23.5-2.4,35.6-3.6c0.4,4.3,0.8,8.2,1.2,12.2c-0.2,0.1-0.5,0.1-0.7,0.2
		c-0.3-0.3-0.7-0.6-0.8-1c-3.1-8.3-6.9-8.9-16-8c-3.5,0.3-3.9,1-3.6,4.5c0.3,4.5,0.9,9,1.4,13.5c7.4,0.7,9-4.4,9.9-10
		c0.3,0.1,0.6,0.2,1,0.3c0.7,6.7,1.4,13.4,2.1,20.1c-0.3,0.1-0.6,0.2-0.8,0.3c-0.5-1-1-1.9-1.4-2.9c-1.7-4.4-4.6-6.2-8.8-5.9
		c-1.3,0.1-1.8,0.6-1.7,1.9c0.5,4.5,0.9,9,1.4,13.5c0.2,2.2,1.4,3.4,3.8,3.3c9.7-0.3,14-3.9,17-10.8c0.3-0.7,0.7-1.4,1-2.1
		c0.2,0,0.5,0.1,0.7,0.1c0,0.8,0.2,1.6,0.1,2.3c-0.3,3.1-0.6,6.1-1,9.2c-0.1,0.6-0.8,1.4-1.2,1.5c-11.5,1.2-23,2.3-34.4,3.3
		c-0.1,0-0.3-0.2-0.9-0.5c0.9-0.4,1.4-0.7,2-0.9c2.4-0.6,3.3-2.3,3.1-4.6c-0.9-9.9-1.9-19.7-2.8-29.6c-0.3-3.7-2.4-5.4-6.4-5.1
		C107.6,521.3,107.8,520.9,107.9,520.5z"/>
	<path class="st7" d="M674.6,511.9c-0.2,5.4-0.4,10.7-0.6,16.1c-0.1,2.9-0.2,5.8-0.2,8.7c-0.1,3.6,0.8,4.8,4.2,6.1
		c0.4,0.2,0.8,0.4,1.8,0.9c-5.2,0-9.7,0-14.2,0c0-0.2-0.1-0.5-0.1-0.7c0.4-0.2,0.8-0.4,1.2-0.5c3.2-0.5,4.3-1.7,4.4-4.9
		c0.3-9.2,0.6-18.5,1-27.7c0.2-3-2-4.3-3.5-6.2c-0.4-0.5-1-0.8-1.8-1.4c0.7-0.3,1.1-0.6,1.5-0.6c3.6,0,7.2,0,10.8,0.3
		c0.8,0.1,1.8,0.9,2.3,1.6c5.7,7.4,11.4,14.8,17,22.2c0.7,0.9,1.5,1.8,2.2,2.7c0.4-0.2,0.6-0.3,0.6-0.4c0.2-6.2,0.6-12.5,0.6-18.7
		c0-2.7-1.1-4.8-4.1-5.4c-0.5-0.1-1-0.5-2-1.1c5,0,9.3,0,13.7,0c0,0.2,0.1,0.4,0.1,0.7c-0.3,0.2-0.6,0.5-0.9,0.6
		c-3.9,1.5-4.1,1.9-4.3,6.2c-0.3,11.4-0.7,22.7-1,34.1c0,0.6-0.1,1.1-0.6,1.9c-5.1-5.4-9.3-11.4-13.8-17.1
		c-4.6-5.8-9-11.8-13.6-17.6C675.1,511.7,674.9,511.8,674.6,511.9z"/>
	<path class="st7" d="M790.5,547.9c0.5-0.1,0.9-0.2,1.4-0.3c2.9-0.3,3.9-1.3,4.2-4.2c0.3-4.2,0.6-8.4,0.9-12.5c0.4-6,0.7-12,1-17.9
		c0.1-2.3-0.8-4-3.2-4.6c-0.6-0.2-1.2-0.4-1.7-1.3c2.5,0,5-0.1,7.5,0c8.5,0.4,16.9,1.1,25.4,1.4c2.4,0.1,3,0.8,2.8,3
		c-0.3,3.2-0.5,6.4-0.8,9.5c-0.2,0.1-0.5,0.1-0.7,0.2c-0.3-0.7-0.7-1.3-0.9-2c-1.4-6.1-4-8.5-10.3-9.3c-1.7-0.2-3.4-0.3-5.1-0.3
		c-2.1-0.1-3.2,1-3.3,3.1c-0.2,4.3-0.4,8.5-0.6,12.8c-0.1,1.6,0.5,2.1,2.1,2.1c4,0,6.3-1.6,8-5.6c0.4-1.1,0.9-2.1,1.4-3.2
		c0.3,0.1,0.6,0.2,0.9,0.2c-0.4,6.7-0.7,13.4-1.1,20.1c-0.3,0.1-0.5,0.1-0.8,0.2c-0.3-0.8-0.7-1.6-0.9-2.5c-0.9-5.3-4.1-7.7-9.9-7.3
		c-0.2,5.4-0.5,10.8-0.5,16.3c0,0.8,1.6,2.1,2.6,2.2c8.6,1.4,14.4-0.7,18.9-8c0.4-0.6,0.8-1.2,1.7-2.3c0.1,1.3,0.4,1.8,0.2,2.3
		c-0.8,3.1-1.7,6.1-2.4,9.2c-0.3,1.5-1.1,1.9-2.5,1.8c-6.6-0.4-13.1-0.7-19.7-1.1c-4.2-0.3-8.4-0.6-12.5-0.9
		c-0.7-0.1-1.4-0.2-2.1-0.3C790.5,548.4,790.5,548.1,790.5,547.9z"/>
	<path class="st7" d="M402,501.9c0.2,4.3,0.4,8.3,0.6,12.4c-0.3,0.1-0.5,0.2-0.8,0.3c-0.4-0.7-0.9-1.4-1.1-2.1
		c-2.1-6.1-4.9-8.1-11.4-8.2c-7.9-0.1-7.9-0.1-7.8,7.8c0.1,3.3,0,6.6,0,10c7.5,1,9.7-3.5,11-9.2c0.4,0.1,0.7,0.3,1.1,0.4
		c0,6.7,0,13.4,0,20.4c-0.4-0.7-0.8-1.4-1-2.1c-1.5-5.8-4.1-7.7-10.2-7.2c0,4,0,8,0,11.9c0,0.6,0.1,1.2,0.1,1.8
		c0.1,4.2,0.8,4.9,5,4.9c7.4-0.1,13.1-2.8,16.3-9.8c0.3-0.7,0.8-1.3,1.2-2c0.3,0.1,0.6,0.2,0.8,0.3c-0.4,3-0.8,6.1-1.4,9.1
		c-0.7,3.7-0.7,3.6-4.6,3.8c-10,0.3-20,0.7-30,1c-0.8,0-1.6-0.1-2.4-0.1c0-0.2-0.1-0.5-0.1-0.7c0.7-0.3,1.4-0.6,2.1-0.8
		c2.3-0.5,3.2-2,3.2-4.3c-0.3-9.9-0.5-19.8-0.8-29.8c-0.1-3.9-0.9-4.5-4.8-5.4c-0.4-0.1-0.7-0.2-1.1-0.4c0-0.3,0-0.5,0-0.8
		C377.9,502.7,389.8,502.3,402,501.9z"/>
	<path class="st7" d="M646.6,501.6c5.2,0,9.6,0,14.6,0c-0.8,0.7-1,1.1-1.3,1.2c-3.9,0.6-4.1,3.5-4.2,6.5c-0.1,6.1,0,12.2-0.3,18.2
		c-0.1,2.9-0.6,5.8-1.5,8.5c-1.8,5.2-5.9,8-11.3,8.1c-3.5,0.1-7.2-0.1-10.6-0.9c-5.8-1.5-9.1-6.1-9.2-12.1c0-6.7,0.3-13.3,0.3-20
		c0-4,1.5-8.8-4.7-10.1c6.8,0,13.7,0,20.5,0c0,0.3,0.1,0.5,0.1,0.8c-0.7,0.2-1.5,0.3-2.2,0.5c-3,0.7-3.9,1.7-4,4.8
		c-0.2,7.8-0.4,15.6-0.5,23.3c-0.1,7.4,3.1,11.3,9.1,11.5c6.4,0.1,10.8-4.2,11.1-11.2c0.3-7.3,0.4-14.7,0.5-22.1
		c0.1-3.9-0.8-5-4.8-6C647.9,502.4,647.6,502.1,646.6,501.6z"/>
	<path class="st7" d="M181.5,513.3c0.4,4.3,0.8,8.5,1.2,12.8c-0.2,0.1-0.4,0.2-0.6,0.3c-0.5-0.5-1-1-1.4-1.6c-1.7-2.1-3.1-4.5-5-6.4
		c-2.6-2.5-5.9-3-9.3-2c-2.7,0.7-4.3,2.6-4.6,5.3c-0.2,2.6,0.7,4.9,3.3,6.1c4,1.8,8,3.4,12,5.1c4.6,2,7.9,4.8,8.8,10.1
		c0.9,5.1-2.3,12.2-8.9,14.1c-4.4,1.3-8.7,1.4-13.1,0.3c-1.6-0.4-3.4-0.9-4.4,1.2c-0.1,0.1-1.6-0.1-1.6-0.3
		c-0.5-4.7-0.8-9.4-1.2-14.2c0.3-0.1,0.6-0.2,0.9-0.3c0.5,0.8,1,1.6,1.4,2.5c1.8,4.4,4.2,8.4,9.2,9.5c2.2,0.5,4.8,0.3,7-0.3
		c2.6-0.7,3.8-3,4.1-5.7c0.3-2.8-0.9-5.1-3.4-6.3c-3.7-1.8-7.5-3.2-11.3-4.9c-3.6-1.7-7-3.7-8.4-7.8c-2.8-8.2,2.9-16.3,11.8-16.6
		c2.2-0.1,4.4,0.2,6.6,0.5c2.1,0.3,4.4,1.5,5.6-1.5C180.3,513.2,181,513.3,181.5,513.3z"/>
	<path class="st7" d="M414.5,529.4c0.4,0.8,0.9,1.6,1.2,2.4c1.7,4.8,4.1,8.9,9.4,10.3c4.2,1.2,8.1-0.3,9.8-3.5
		c1.7-3.3,0.9-6.8-2.3-8.7c-2.5-1.5-5.3-2.7-7.9-4.2c-2.2-1.2-4.5-2.4-6.6-3.9c-4.3-3.2-5.6-8.2-3.9-13.3c1.7-5.2,5.7-8.3,11.1-8.3
		c2.5,0,5.1,0.2,7.6,0.8c2.5,0.6,4.9,1.9,6.6-1.7c0.2,0.2,0.4,0.3,0.6,0.5c0,4.5,0,8.9,0,13.4c-0.2,0-0.3,0.1-0.5,0.1
		c-0.5-1-0.9-2.1-1.4-3.1c-2.9-6.2-7.7-9.2-13-8.2c-2.6,0.5-4.3,2.1-5,4.6c-0.7,2.6,0.3,5.2,2.7,6.6c3,1.8,6.2,3.3,9.3,4.9
		c1.3,0.7,2.6,1.2,3.9,1.9c5.3,3.1,7.6,7.7,6.6,13.6c-0.9,5.1-5.2,9.1-10.9,10.2c-4.1,0.8-8,0.5-11.9-0.9c-1.6-0.6-3.3-1.3-4.5,0.9
		c-0.1,0.1-1.6-0.3-1.7-0.5c-0.1-4.6-0.1-9.1-0.1-13.7C414,529.5,414.3,529.5,414.5,529.4z"/>
	<path class="st7" d="M885.1,555.5c0.8-5.1,0.3-10.2,1.6-15.1c0.3,0,0.6,0,0.9,0c0.5,1.8,0.9,3.6,1.4,5.3c2,6.3,6.7,9.6,12.8,9.1
		c2.8-0.2,4.6-1.8,5.6-4.3c1-2.6,0.8-5.1-1.4-7.1c-1.5-1.4-3.3-2.4-5-3.6c-2.8-1.9-5.8-3.6-8.5-5.7c-4.4-3.5-5.7-8.2-3.9-13.3
		c1.9-5.4,5.6-8.3,11.3-8.3c2.4,0,4.7,0.5,7.1,1c2.8,0.6,5.5,3.4,8.4-0.3c0.2,0.2,0.3,0.4,0.5,0.6c-0.3,4.3-0.6,8.6-0.9,12.9
		c-0.3,0.1-0.5,0.1-0.8,0.2c-0.3-0.5-0.5-1-0.8-1.6c-1.3-2.5-2.4-5.3-4.1-7.6c-2-2.7-5-3.7-8.4-3.4c-2.7,0.2-4.8,1.6-5.6,4.2
		c-0.8,2.6-0.3,5.2,2.1,6.8c3.5,2.4,7,4.6,10.6,6.8c4.9,3,8,6.9,7.4,13c-0.6,6-5.4,10.9-11.4,11.4c-4.1,0.4-8.2,0.1-12-1.7
		c-1.9-0.9-3.8-1.8-5.4,0.6C886.3,555.6,885.7,555.5,885.1,555.5z"/>
	<path class="st7" d="M1019.8,524.9c-0.5,0.1-1,0.2-1.5,0.2c-3.9-0.1-4.6,0.8-3.1,4.5c1.5,3.7,3.1,7.4,4.7,11.1
		c0.6,1.5,1.2,2.9,2.2,5.3c3.8-5.5,7.4-10.4,10.6-15.4c1.2-1.9,0.2-3.3-2-4.1c-0.8-0.2-1.5-0.4-2.3-0.7c0-0.3,0.1-0.6,0.1-1
		c4.3,0.4,8.6,0.8,13.4,1.3c-8.4,5.3-12.1,14-18,20.6c-0.6,0.6-0.9,1.7-1,2.5c-0.4,3.6-0.8,7.3-1,11c-0.2,3.6,0.3,4.2,3.8,5.4
		c0.4,0.1,0.8,0.5,1.2,0.7c-0.1,0.2-0.1,0.5-0.2,0.7c-7-0.7-13.9-1.4-21.1-2.1c0.4-0.6,0.4-0.9,0.5-0.9c5-1.1,5-1.1,5.9-6.4
		c0.8-4.9,1.1-9.7-1.5-14.4c-2.2-3.9-3.6-8.3-5.3-12.5c-1.4-3.2-2.2-6.9-6.4-8.1c0.1-0.3,0.2-0.6,0.3-0.9c6.9,0.7,13.7,1.4,20.6,2.1
		C1019.8,524.2,1019.8,524.6,1019.8,524.9z"/>
	<path class="st7" d="M989.7,533.5c-0.3-0.6-0.7-1.1-0.8-1.7c-0.9-6.2-3.4-8.8-9.2-10c-1.6-0.3-2.2,0.2-2.3,1.7
		c-0.5,5.7-1,11.4-1.5,17.1c-0.4,4.6-0.7,9.2-1.1,13.8c-0.4,4.8-0.1,5.2,4.5,6.6c0.2,0.1,0.4,0.3,0.6,0.4c-0.1,0.3-0.1,0.6-0.2,0.9
		c-7.2-0.6-14.4-1.3-21.6-1.9c0-0.2,0-0.5,0-0.7c0.5-0.1,1-0.4,1.5-0.4c3.7-0.3,4.7-1.1,5.1-4.7c0.9-9.2,1.7-18.4,2.6-27.5
		c0.2-2,0.4-4,0.6-6.2c-3.4-0.7-6.6-0.5-8.9,1.7c-2.1,2-3.5,4.7-5.3,7.3c-0.1-0.6-0.3-1.1-0.3-1.6c0.2-2.8,0.4-5.6,0.6-8.4
		c0.1-1.6,0.8-2.2,2.5-2c11.1,1.1,22.3,2.1,33.4,3.1c0.5,0,1,0.3,1.6,0.4c-0.3,4-0.7,8-1,11.9C990.2,533.3,989.9,533.4,989.7,533.5z
		"/>
	<path class="st7" d="M224.6,552.7c-7.1,0.5-14.3,1-21.4,1.5c0-0.2-0.1-0.5-0.1-0.7c0.5-0.2,0.9-0.5,1.5-0.7
		c3.5-0.9,4.3-1.7,4.1-5.4c-0.5-8.5-1.2-17-1.8-25.6c-0.2-2.7-0.4-5.4-0.7-8.2c-7.6,0.2-11.2,4.2-11.9,11.5
		c-0.4-0.1-0.7-0.3-1.1-0.4c-0.3-3.9-0.7-7.9-1-12c12.5-0.9,24.7-1.8,37.3-2.8c0.4,4.1,0.7,8,1,12c-0.3,0.1-0.6,0.2-1,0.3
		c-0.4-0.8-0.9-1.6-1.2-2.5c-2.1-5.6-6.4-8-12.3-6.7c0.3,4.3,0.5,8.6,0.8,12.9c0.4,6,0.9,12.1,1.4,18.1c0.1,1,0.3,2,0.4,3
		c0.2,2.6,1.6,4,4.3,4.2c0.6,0,1.2,0.2,1.9,0.4C224.6,552.1,224.6,552.4,224.6,552.7z"/>
	<path class="st7" d="M465.3,502.9c-6.5-0.9-11.1,2.5-12.3,8.7c-0.1,0.6-0.6,1.2-0.9,1.7c-0.3-0.6-0.8-1.2-0.8-1.8
		c-0.1-3.5,0-7,0-10.8c5.1,0,10,0,14.8,0c6.7,0,13.4-0.1,20-0.2c1.9,0,2.6,0.6,2.5,2.5c-0.1,2.6,0.1,5.1,0.1,7.7
		c0,0.7-0.3,1.4-0.4,2.1c-0.2,0-0.5,0-0.7-0.1c-0.4-1.2-0.7-2.4-1.1-3.5c-1.7-4.7-5.4-7.2-10.3-6.8c-0.5,0-1.4,1-1.4,1.5
		c0.1,10.8,0.2,21.6,0.4,32.4c0.1,3.5,1.3,4.6,4.8,5.1c0.4,0.1,0.8,0.3,1.3,0.4c0,0.2,0,0.4-0.1,0.7c-7.2,0-14.4,0-21.6,0
		c-0.1-0.1-0.1-0.2-0.2-0.3c0.7-0.2,1.4-0.6,2.1-0.6c2.9-0.3,4.1-2.1,4.1-4.7c0-7.4-0.2-14.9-0.2-22.3
		C465.3,510.7,465.3,506.8,465.3,502.9z"/>
	<path class="st7" d="M306.9,539.9c-4.9,8-14.2,11.6-23.8,9.4c-8.9-2.1-15-9.1-16-18.1c-1.2-11.2,3.3-19.8,12.4-23.8
		c5-2.2,10.2-2.5,15.5-1c5.3,1.5,5.3,1.5,9.2-2.1c0.3,5,0.5,9.6,0.8,14.3c-0.3,0.1-0.5,0.2-0.8,0.3c-0.5-0.6-1.1-1.3-1.6-1.9
		c-2-2.3-3.7-5-6-7c-5.3-4.7-15.8-4.2-18,5.9c-1.6,7.1-1.5,14.1,0.4,21c3.8,13.6,15.9,11.7,22.6,5.7c1-0.9,1.9-2,2.9-2.9
		c0.5-0.4,1.4-0.4,2.1-0.6C306.8,539.3,306.8,539.6,306.9,539.9z"/>
	<path class="st7" d="M744.4,504.7c6.7,0.3,13.4,0.6,20,0.8c0,0.3,0,0.5,0.1,0.8c-0.6,0.1-1.1,0.3-1.7,0.4c-3.6,0.4-4.3,1.5-3,5
		c2.3,6.3,4.6,12.7,7,19c0.5,1.3,1,2.5,1.5,3.8c0.3-0.2,0.5-0.2,0.6-0.3c3.3-7.3,6.6-14.6,9.7-22c1.2-2.8,0.5-3.7-2.5-4.5
		c-0.7-0.2-1.4-0.5-2-1.2c4.1,0,8.3,0,13,0c-0.6,0.8-0.8,1.3-1.1,1.4c-2.9,0.7-4.2,3-5.3,5.5c-4.9,11.2-9.9,22.4-14.8,33.5
		c-0.4,0.8-1.2,1.5-1.8,2.2c-0.5-0.7-1.2-1.4-1.5-2.2c-4-10.6-7.9-21.3-12-31.9c-1.4-3.6-1.9-7.9-6.6-9.4
		C744.1,505.2,744.3,505,744.4,504.7z"/>
	<path class="st7" d="M714.4,544.9c0.5-0.1,1-0.3,1.5-0.4c3.2-0.4,4.4-1.5,4.6-4.7c0.4-9.6,0.8-19.3,1.1-28.9
		c0.1-4.3-0.2-4.7-4.3-5.9c-0.4-0.1-0.8-0.3-1.1-0.5c0-0.3,0-0.5,0.1-0.8c7.2,0.3,14.3,0.5,21.5,0.8c0,0.3,0.1,0.6,0.1,0.9
		c-0.6,0.1-1.3,0.2-1.9,0.3c-2.7,0.4-4,1.5-4.2,4.3c-0.4,10.3-0.8,20.7-1.1,31c-0.1,2.2,1,3.5,3.2,4c0.8,0.2,1.5,0.5,2.3,0.7
		c0,0.3-0.1,0.5-0.1,0.8c-7.2-0.3-14.3-0.5-21.5-0.8C714.4,545.5,714.4,545.2,714.4,544.9z"/>
	<path class="st7" d="M943.5,559.4c-7.4-0.6-14.4-1.2-21.4-1.8c0-0.3,0-0.6-0.1-0.9c0.6-0.1,1.2-0.3,1.8-0.3c2.7-0.2,4-1.3,4.3-3.8
		c0.6-5.8,1-11.6,1.5-17.3c0.3-3.9,0.7-7.8,1-11.7c0.4-4.5-0.2-5.3-4.5-6.5c-0.2-0.1-0.4-0.3-0.5-0.4c0-0.3,0.1-0.5,0.1-0.8
		c7.1,0.6,14.1,1.1,21.2,1.7c0,0.2,0,0.4,0,0.7c-0.3,0.2-0.5,0.4-0.8,0.4c-4.9,0.8-5,0.8-5.6,5.6c-0.8,7.3-1.3,14.6-1.9,21.9
		c-0.2,2.2-0.4,4.4-0.5,6.6c-0.1,3.6,0.3,4.2,3.8,5.3c0.3,0.1,0.6,0.2,0.9,0.4C943,558.4,943.1,558.7,943.5,559.4z"/>
</g>
<g id="EST_1998">
	<path class="st5" d="M451.1,813.3c-0.7,3.6-1.4,7-2,10.5c-0.2,1.3-0.8,1.9-2.2,1.9c-10.4-0.1-20.9,0-31.3-0.1
		c-0.6,0-1.1-0.5-1.7-0.7c0.5-0.4,0.9-1.2,1.5-1.2c2.9-0.4,3.7-2.3,3.7-4.9c0-8.7,0-17.5,0-26.2c0-3.7-0.3-4-3.8-5.2
		c-0.5-0.2-0.9-0.8-1.3-1.2c0.4-0.3,0.9-0.8,1.3-0.8c10.9,0,21.7,0,32.7,0c0,4.1,0,8,0,11.9c-0.2,0.1-0.4,0.3-0.7,0.4
		c-0.5-0.6-1.3-1.2-1.5-1.9c-1.7-7.7-7.7-8.3-15-7.7c-0.6,0.1-1.6,1.2-1.6,1.8c-0.1,4.3-0.1,8.7-0.1,13c4,0.7,6.6-0.7,7.9-4.1
		c0.2-0.6,0.3-1.4,0.6-1.9c0.4-0.6,1-1.1,1.5-1.7c0.3,0.6,0.8,1.3,0.8,1.9c0.1,5.1,0.1,10.3,0,15.4c0,0.6-0.5,1.3-0.7,1.9
		c-0.5-0.6-1.3-1-1.5-1.7c-1.5-4.6-3-6.1-6.9-6.2c-0.6,0-1.6,0.9-1.6,1.4c-0.1,4.2,0,8.4-0.1,12.6c0,2.5,1.8,2.7,3.5,2.8
		c6.8,0.3,12.3-1.8,15.5-8.3C448.9,813.1,449,813.2,451.1,813.3z"/>
	<path class="st5" d="M636,806.4c-1.7-1.6-3.5-2.9-4.8-4.5c-2.6-3-3.3-6.6-1.8-10.3c1.8-4.3,5.5-6.2,9.9-6.7
		c2.5-0.3,5.2-0.1,7.6,0.4c4.2,0.9,6.6,3.7,7.1,7.5c0.4,3.2-1.6,6.2-5.6,8.1c-0.5,0.3-1.1,0.5-1.8,0.9c1.4,1.1,2.6,2.1,3.8,3.2
		c4.2,3.7,5.4,8.3,3.6,13.5c-1.6,4.9-5.8,7-10.6,7.7c-3.4,0.5-6.8,0.2-10-1.5c-3.4-1.8-5.3-4.3-5.4-8.3c0-4,1.7-6.9,5.2-8.7
		C634.2,807.2,635,806.9,636,806.4z M638.4,808c-2.9,4-3.6,8.2-1.8,12.7c0.9,2.2,2.7,3.4,5.1,3c2.4-0.4,3.7-1.9,4-4.4
		C646.4,814.2,644.5,811.2,638.4,808z M644,800.2c2.7-3,2.7-6.4,1.6-9.9c-0.8-2.6-3.1-3.7-5.7-2.8c-2.3,0.8-3.5,3-2.9,5.5
		C638,796.7,641,798.5,644,800.2z"/>
	<path class="st5" d="M617.3,801.7c1.4,1.2,2.7,2.1,3.8,3.1c4.2,3.7,5.4,8.3,3.7,13.4c-1.6,5-5.7,7.1-10.6,7.8
		c-3.5,0.5-7,0.2-10.2-1.5c-3.3-1.8-5.2-4.3-5.2-8.2c0-3.9,1.5-6.8,4.9-8.6c1-0.5,2-1,3.1-1.5c-0.9-0.7-1.7-1.3-2.5-2
		c-3.8-3-5.9-6.8-4.5-11.6c1.4-5,5.4-7.1,10.2-7.8c2.4-0.3,5-0.2,7.4,0.3c4.5,0.9,7.1,3.9,7.4,7.7c0.3,3.2-1.8,6.1-5.8,8
		C618.5,801.2,618,801.4,617.3,801.7z M609.1,808c-3,4.1-3.6,8.4-1.6,12.9c0.9,2.1,2.8,3.1,5,2.7c2.2-0.4,3.6-1.8,3.9-4.2
		C617.2,814.3,615.1,811,609.1,808z M614.7,800.2c2.7-3,2.7-6.4,1.6-9.9c-0.8-2.6-3.2-3.7-5.7-2.8c-2.3,0.8-3.5,3-2.8,5.5
		C608.8,796.7,611.7,798.5,614.7,800.2z"/>
	<path class="st5" d="M454.5,826.9c0-5.2,0-9.9,0-14.5c0.2-0.2,0.4-0.4,0.5-0.6c0.6,0.5,1.4,1,1.8,1.6c1.6,2.7,2.7,5.7,4.7,8
		c2.3,2.7,5.7,3.2,9.2,2.4c2.7-0.6,4-2.5,4.6-5c0.5-2.3-0.6-4.2-2.5-5.5c-1.9-1.2-4.1-2.2-6.1-3.3c-2.5-1.4-5-2.6-7.3-4.2
		c-4.4-3.1-5.8-7.9-4.2-12.9c1.7-5.3,5.7-8.4,11.1-8.2c3,0.1,6,0.9,9,1.4c1.3,0.2,2.6,1,3.5-0.8c0.2-0.4,1.1-0.6,1.5-0.5
		c0.4,0.1,0.8,0.8,0.8,1.3c0.1,3.4,0.1,6.9,0,10.3c0,0.5-0.7,0.9-1.1,1.4c-0.5-0.4-1.1-0.7-1.4-1.2c-1.5-2.3-2.6-4.8-4.4-6.8
		c-2.2-2.4-5.2-3.2-8.5-2.3c-2.1,0.6-3.6,1.8-4,3.9c-0.4,2.3,0.1,4.4,2.2,5.6c3.7,2,7.4,3.9,11.1,5.8c4.2,2.2,7.3,5.2,7.7,10.1
		c0.5,7.4-4.8,13.4-12.3,13.6c-3.5,0.1-7.1-0.8-10.6-1.3c-1.3-0.2-2.6-1.1-3.5,0.8C456.5,826.5,455.5,826.6,454.5,826.9z"/>
	<path class="st5" d="M569.6,826.4c-0.9-2.5,0.3-2.8,1.8-3.2c6.4-1.7,10.8-5.7,12.9-12c0.1-0.4,0.2-0.8,0.3-1.4
		c-1,0.2-1.8,0.3-2.6,0.4c-7.8,0.7-12.3-3-13-11c-0.4-5.5,1.5-10.1,6.5-12.9c4.5-2.6,10.4-2.2,14.5,1c3.5,2.8,5.3,6.7,5.7,11.1
		c1,13.4-5.9,23.1-18.9,26.6C574.4,825.7,572,826,569.6,826.4z M586.2,799.5c0.1,0,0.1,0,0.2-0.1c-0.5-3.3-0.8-6.6-1.6-9.8
		c-0.3-1-1.9-2.3-2.9-2.3c-1,0-2.6,1.2-2.9,2.2c-1.5,5.1-1.1,10.3,0.8,15.3c0.2,0.6,0.8,1.1,1.3,1.6c2.1,1.6,4.4,0.8,4.7-1.9
		C586,802.9,586.1,801.2,586.2,799.5z"/>
	<path class="st5" d="M509.8,787.9c0,10.9,0,21.4,0,31.9c0,2.7,1.6,3.7,4.1,4c0.6,0.1,1,0.7,1.6,1.1c-0.6,0.2-1.1,0.7-1.7,0.7
		c-6,0.1-12,0.1-18,0c-0.6,0-1.1-0.5-1.7-0.7c0.5-0.4,1-1,1.5-1.1c3.5-0.8,4.1-1.4,4.1-5c0-9.5,0-19,0-28.5c0-0.7-0.1-1.5-0.1-2.2
		c-5.7-0.4-9.2,2.2-10.4,7.4c-0.2,0.7-1,1.3-1.5,1.9c-0.3-0.7-0.9-1.4-0.9-2c-0.1-3,0-6,0.1-9c0-0.2,0.1-0.5,0.2-0.9
		c11.8,0,23.5,0,35.4,0c0.2,3.5,0.4,6.9,0.4,10.2c0,0.6-0.7,1.1-1.1,1.7c-0.5-0.5-1.2-0.8-1.5-1.4c-0.8-1.6-1.2-3.4-2.1-4.9
		C516.4,788.3,513.3,787.9,509.8,787.9z"/>
	<path class="st5" d="M564.6,825.4c-7.4,0-14.9,0-22.3,0c0-0.2-0.1-0.5-0.1-0.7c1.1-0.2,2.1-0.6,3.2-0.7c2.5-0.2,3.7-1.8,3.7-4.1
		c0.1-8.7,0.1-17.4,0-26.2c0-2.3-1-3-3.4-2.5c-1.2,0.2-2.4,0.6-3.8,1c1.1-2.2,13.7-7.5,16.6-7.2c0,1,0,2,0,3c0,9.7,0,19.5,0,29.2
		c0,5.8,0,5.8,5.5,7.1c0.2,0,0.4,0.3,0.6,0.4C564.6,825,564.6,825.2,564.6,825.4z"/>
</g>
<g id="RAM">
	<polygon class="st5" points="405.8,284.8 542.3,289.5 584,372.9 576.4,481 388.7,480.1 	"/>
	<path class="st6" d="M759.8,365.7c3-1.9,5.5-3.3,7.8-5c25.7-18.6,51.4-37.3,77-56c7.1-5.2,14.5-9.3,23.4-10.3
		c4.5-0.5,8.9-0.1,13.1,1.5c7.2,2.8,10.6,10.2,8.6,18.4c-1.3,5.7-4.1,10.5-8.2,14.6c-3.7,3.8-7.5,7.6-11.5,11
		c-10.1,8.6-18.3,18.9-27,28.9c-15.2,17.5-26.6,37.7-39.7,56.7c-8.1,11.8-16,23.7-26,34c-8.4,8.6-17.9,15-30.2,16.5
		c-14.7,1.8-28.9,0-42.1-7c-9.7-5.1-19-10.8-28.2-16.7c-5.6-3.5-9-9.2-11.6-15.1c-3.9-8.8-7.8-17.7-10.5-26.9
		c-2.1-7.1-2.4-14.7-3.3-22c-1.5-12.2-3.1-24.4-4.4-36.7c-0.9-8.2-1.4-16.5-2.3-24.8c-1.2-11.6-2.5-23.1-3.8-34.7
		c-0.6-5.2-1.2-10.4-1.8-15.5c-0.1-0.6-0.2-1.3-0.4-2.2c-2.2,3.8-4.1,7.5-6.4,10.8c-2.5,3.6-5.5,6.7-8.2,10.2
		c-0.8,1-1.5,2.5-1.5,3.8c-0.4,7.8,0.1,15.7-1.1,23.3c-1.6,9.9-4.4,19.6-6.9,29.4c-0.5,2-0.5,3.7,0,5.7
		c6.6,23.4,13.2,46.8,19.6,70.2c0.5,1.8,1.4,2.9,2.9,4c21.1,15.1,42.1,30.3,63.1,45.4c0.4,0.3,0.7,0.6,1,0.8
		c-58.3-0.9-116.6-1.7-175.4-2.6c-4.6-25.8-2.6-52,0.3-78.7c6.7,4.4,12.9,8.4,18.7,12.2c-1.7-15.3-3.9-30.8-5.1-46.3
		c-1.2-15.6,1.5-31,5.9-46.5c-8.4,3.8-16.3,7.5-24.3,11.1c-0.1-0.2-0.3-0.3-0.4-0.5c4.3-7.4,8.5-14.7,13-22.4
		c-4.1,0.4-7.8,0.8-11.6,1.1c-10.1,0.8-20.1,1.8-30.2,2.4c-10.5,0.6-21,0.9-31.5,0.9c-6,0-12.1-0.8-18.1-1.5
		c-8.5-1-13.9-6.9-19.1-12.9c-1.7-1.9-2.9-4.2-4.7-6.7c-1.3,5.5-2.7,10.7-3.8,15.9c-3.5,17.5-5.8,35.1-6,52.9
		c-0.3,23.8,7.6,44.9,23.2,63c0.3,0.4,0.6,0.9,0.8,1.3c0.2-0.1,0.4-0.2,0.6-0.3c0-5.3,0-10.6,0-16c0.4,0.2,0.7,0.2,0.7,0.3
		c4.5,13.5,13.3,24.2,23,34.2c12.6,13,26.7,24.3,41.3,34.9c0.7,0.5,1.4,1.1,2.5,1.9c-42.9,0.9-85.3,1.8-128.4,2.7
		c2.1-25.1,4.2-50.1,6.4-75.6c-0.5,1-0.9,1.8-1.3,2.5c-3.7,6.7-7.1,13.6-11.2,20.1c-5.5,8.6-14,13.5-23.4,16.5
		c-29.6,9.7-57.8,6.4-84.6-9.5c-9.8-5.8-19-12.3-26.8-20.5c-7.6-7.9-12-17.8-15.8-27.9c-7-18.1-11.2-36.9-14.9-55.8
		c-3.6-19.1-5.8-38.4-5.2-57.9c0.6-17.6,2.8-34.9,6.3-52.1c3.2-15.8,6.7-31.6,12.5-46.7c10.3-26.5,25.3-49.9,45.1-70.3
		c23.9-24.7,52.8-40.6,86-48.9c18.2-4.6,36.8-5.4,55.6-4.1c28.4,2,55.4,9.9,81.6,20.4c12.2,4.8,22.4,13.2,32.8,20.9
		c6.2,4.6,12.3,9.3,18.3,14.1c1.6,1.3,2.8,1.4,4.7,0.3c12.9-7.4,25.9-14.7,38.9-21.8c8-4.4,16.9-6.3,25.9-7.8
		c11.1-1.9,22.3-4,33.6-3.2c8.9,0.6,17.8,2.4,26.6,4c13.8,2.6,27.6,5.4,41.4,8.4c10,2.2,18,8.1,25.2,15c9.1,8.6,14.5,19.6,19.4,30.8
		c6,13.7,9.4,28.2,10.8,43c1.8,18.4,3.6,36.8,4.4,55.2c0.7,16,0.1,32-0.2,48c-0.2,10.8-0.5,21.6-1.1,32.3
		c-0.7,12.7-1.9,25.4-2.9,38.1C760.7,352.4,760.3,358.7,759.8,365.7z M678.7,86.8c-3.5-0.7-7-1.4-10.5-2.1
		c-8.7-1.6-17.4-3.5-26.2-4.5c-5.6-0.7-11.5-0.3-17.2,0.1c-8.5,0.6-17,1.2-25.3,3.8c-18.1,5.6-34.4,14.5-49.5,25.9
		c-1.2,0.9-2.4,1.8-3.6,2.7c8.9,11.1,17.6,21.9,26.3,32.7c-0.2,0.3-0.4,0.6-0.6,0.9c-1.4-0.5-3-0.8-4.2-1.6
		c-1.9-1.3-3.4-3.2-5.1-4.6c-20-16.5-40.6-32.2-62.5-46.2c-15.1-9.6-30.3-18.7-47.6-24c-19.6-6-39.4-9.9-59.8-11.2
		c-19.4-1.2-38.2,1.7-56.6,7.4c-13.3,4.2-26.7,8.1-38.4,16c-21.2,14.3-39.9,31.2-54.2,52.6c-8,12-15.8,24.1-20.6,37.7
		c-6.4,18.3-9.3,37.5-11.2,56.7c-1.6,15.6-2.6,31.2-3.5,46.8c-0.4,7.4-0.1,14.8-0.1,22.2c1.1-4.4,2-8.8,2.9-13.2
		c8.3-39.3,21.2-77,40.2-112.5c10.8-20.2,22.7-39.4,40.4-54.5c12.8-11,26-21,43.3-24.3c16-3.1,31.8-5.6,47.9-1.2
		c12,3.2,22.9,8.1,31.2,17.7c6.2,7.2,12.5,14.4,18.6,21.6c1.2,1.4,2.4,2.1,4.3,2c5.8-0.1,11.6-0.1,17.5,0c0.6,0,1.2,0.1,1.8,0.2
		c-0.8,0.8-1.6,1.1-2.5,1.4c-10.1,3-19.5,6.9-27.6,14c-8,7-14.7,14.7-16.3,25.6c-0.7,4.7-0.8,9.5-1.1,13.7
		c-6.5-1.1-13.2-2.2-19.9-3.3c-0.1,0.3-0.2,0.5-0.3,0.8c3.7,6.3,7.4,12.7,11.2,19c0.3,0.5,1.6,0.9,2.2,0.7c3.3-1,6.5-2.2,9.6-3.5
		c0.6-0.3,1.2-1.1,1.5-1.7c2.9-6.8,6.9-12.3,14.3-14.8c13.6-4.4,27.4-5.5,41.5-4.2c3.5,0.3,7,1.4,10.3,2.8
		c5.6,2.3,10.8,5.6,16.4,7.8c16.2,6.2,32.5,12,48.8,17.8c2.1,0.7,4.6,0.7,6.8,0.4c6.3-0.8,11.6-3.8,16.5-7.8
		c2.7-2.2,5.6-2.7,8.9-1.9c6.5,1.7,11.8,5.4,16,10.6c1.8,2.2,3.5,4.5,5.4,6.8c1.6-2.4,3-4.6,4.4-6.7c1.3-1.9,3.1-2.9,5.3-2.3
		c2.4,0.6,4.7,1.5,6.9,2.5c3.3,1.6,4.3,1.3,4.9-2.5c0.1-0.8-0.2-1.8-0.4-2.7c-0.5-2.3-1.5-4.6-1.5-6.9c0-4,0.5-8,1.1-12
		c2.4-16.7,6.6-32.9,11.1-49.2c4.5-16.6,13.5-29.9,27.3-40.1C663.8,93.5,670.9,89.6,678.7,86.8z M751.6,363.3
		c0.4-5.7,0.8-11.1,1.1-16.6c0.6-9.5,1.1-19,1.7-28.4c0.8-13.8,2-27.7,2.3-41.5c0.3-17.1,0-34.2-0.3-51.4
		c-0.2-9.2-0.4-18.5-1.4-27.7c-1.2-11.9-3.4-23.7-4.8-35.5c-2.1-17.7-8-34.2-18-48.8c-10.7-15.7-24.8-25.6-45.1-21.2
		c-22,4.8-38.6,17.2-47.1,38c-8.6,20.9-12.9,43.1-15.6,65.6c-0.3,2.2,0,4.5,0,6.7c0.3,0.1,0.5,0.2,0.8,0.3c0.8-1,1.8-1.9,2.5-3
		c3.1-4.6,5.9-9.4,9.1-13.9c8.8-12.2,18.5-23.5,30.9-32.3c15.3-10.9,30.6-9.4,43.9,1.4c11.5,9.5,18.1,22.2,21.1,36.6
		c1.8,8.6,2.4,17.4,3.3,26.2c1.3,12.3,2.4,24.7,3.4,37c0.8,9.7,1.5,19.4,2.3,29.2c1,12.7,2,25.4,2.9,38.1
		c0.8,11.1,1.5,22.2,2.2,33.3c0.2,2.6,0.4,5.2,0.6,7.9C748.9,363.3,750.1,363.3,751.6,363.3z M694.9,449.3
		c8.8,6.4,17,12.7,26.6,16.7c1.5,0.6,3.1,1,4.7,1.1c5.1,0.3,10.3,0.5,15.4,0.5c9.2,0,17.6-2.6,24.3-9.2c9.2-9.2,17.7-19,25-29.9
		c11.6-17.3,23.5-34.5,35.6-51.5c10-14.1,21.2-27.1,33.4-39.3c6.5-6.5,12.8-13.1,19.1-19.7c1-1.1,1.8-2.5,2.3-3.9
		c1.1-3.1,0.2-5.9-2.1-8.2c-2.2-2.2-4.6-1.9-7.1-0.6c-2.5,1.3-5.1,2.4-7.4,4c-7.2,5-14.7,9.8-21.4,15.5
		c-18.4,15.7-36.5,31.6-54.5,47.7c-16.7,14.9-33,30.2-47.8,46.9C728.5,433.6,713.9,444.1,694.9,449.3z M291.1,228.3
		c-0.2,0.3-0.4,0.7-0.6,1c0.4,1,0.6,2.1,1.2,3c2.4,3.5,4.8,7.1,7.5,10.4c6.1,7.5,13.5,13.8,18.6,22.2c7.1,11.9,15.1,23.2,20.4,36.1
		c3.7,9,7.3,18.1,7.6,28c0.3,8.6,0.2,17.1,0.4,25.7c0.3,13.5-3.6,25.8-10.6,37.2c-9,14.8-20.6,27.5-33,39.5c-0.9,0.9-2,1.7-3.2,2.7
		c0.8,0.4,1,0.6,1.3,0.6c7.9,0.6,15.8,1.5,23.8,1.7c13.9,0.4,25.8-4.6,35-15.2c6.2-7.1,10.3-15.4,12.8-24.3
		c4.4-15.6,6.5-31.6,6.9-47.8c0.2-9.9-0.3-19.4-4.1-28.7c-5-12.6-11.4-24.3-20.3-34.5c-12.2-14-24.2-28.2-36.5-42.1
		c-5.1-5.7-10.7-10.9-18.1-13.6C297.3,229.2,294.2,228.9,291.1,228.3z M325.3,241.2c0.4-0.8,0.6-1.5,0.9-2.1
		c4.6-10.6,8.9-21.3,13.9-31.6c4-8.3,8.7-16.2,13.5-24.1c2.6-4.3,6.8-6.1,11.8-5.9c3.6,0.1,7.2,0.4,10.7,0.7
		c6.1,0.5,12.3,0.9,18.8,1.4c-2.8-6.4-6.2-11.9-10.7-16.6c-4.8-5-10.5-7.4-17.4-7.3c-6.9,0.1-13.4,1.6-19.7,4.2
		c-18.7,7.5-30.9,21.6-38.8,39.6c-3.3,7.5-5.6,15.5-8.3,22.9c5,2.9,9.7,5,13.7,8C317.9,233.5,321.3,237.4,325.3,241.2z M535.4,274.2
		c0.1,0,0.5-0.1,0.9-0.2c19.4-7.5,38.8-15,58.2-22.6c0.7-0.3,1.4-1.4,1.5-2.2c0.4-4.4,0.6-8.9,0.8-13.3c0.2-5.9-1-7.7-6.7-8.7
		c-6.5-1.2-13.2-1.9-19.8-2.8c-7.4-1-14.7-1.9-22.1-2.8c-0.9-0.1-2.2,0.1-2.8,0.7c-5.1,4.8-9.5,10.3-9.8,17.4
		C535,251.2,535.4,262.7,535.4,274.2z M295,247.9c-0.3,0.1-0.6,0.2-0.9,0.2c-0.8,9.3-1.7,18.5-2.5,27.8c-1.4,16.8-0.1,33.5,3.2,50
		c2.1,10.5,6.3,19.7,16.3,25.2c1-3.4,1.9-7,3.2-10.4c1.6-4.2,1.7-8.3,0.7-12.5c-0.4-1.7-0.6-3.5-0.7-5.3c-1.1-14-1.3-28.1,1-42
		c0.8-4.6-0.3-8.2-2.7-12.1C307.8,260.9,301,254.8,295,247.9z M576.3,283.9c0.1,0,0.2,0,0.3,0c0,2-0.1,3.9,0,5.9
		c0.5,6.6,1.6,12.9,6.2,18.1c1.5,1.7,2.9,2.6,5,1.1c5.7-3.9,11.4-7.8,17.1-11.7c7.3-5.1,10.2-12.1,9.1-20.9c-0.3-2.4-0.2-5.5-1.6-7
		c-3.9-4.2-6.9-5.6-12.3-3.2c-1.7,0.7-2.7,0.6-4-0.8c-0.8-0.9-2.2-1.6-3.5-1.9c-6.2-1.5-15.8,5-15.7,11.7
		C577,278.1,576.5,281,576.3,283.9z M626.8,242.1c-0.1,0-0.3,0-0.4-0.1c0-2.1,0-4.3,0-6.4c0.1-5.3-3.1-8.7-8.3-8.3
		c-2.8,0.2-5.5,0.9-8.2,1.6c-3,0.8-5,2.9-5.5,6.1c-0.2,1.2-0.6,2.3-0.8,3.5c-1.5,7-0.1,13,6.2,17.4c2.5,1.8,4.7,4,7,6.1
		c3.4,3.1,7.3,2.2,8.1-2.3C625.6,253.8,626.1,248,626.8,242.1z M468.7,220.1c-5.5,0.1-10.5-0.1-14.5-3.9c-3.9-3.8-4.1-8.9-4.3-14.2
		c-1,0-1.8,0-2.7,0c-3.9,0.1-4.3,0.5-5,4.3c-1.6,8.8,3.8,16.8,12.6,18.7C460,226.1,466,224.1,468.7,220.1z M361.7,182.6
		c4,2.6,7.8,4.7,11.1,7.3c8.8,6.7,14.8,15.5,19.1,25.6c0.7,1.7,1.6,3.2,2.4,4.9c0.3-0.1,0.7-0.2,1-0.2c-0.1-2.2,0.2-4.6-0.4-6.7
		c-2.6-9.6-7.7-17.9-14.8-24.8C375.3,183.7,369,182.2,361.7,182.6z"/>
	<path class="st5" d="M535.4,274.2c0-11.5-0.4-23,0.1-34.4c0.3-7.1,4.7-12.7,9.8-17.4c0.6-0.6,1.9-0.8,2.8-0.7
		c7.4,0.9,14.7,1.8,22.1,2.8c6.6,0.9,13.2,1.6,19.8,2.8c5.8,1,7,2.9,6.7,8.7c-0.2,4.4-0.4,8.9-0.8,13.3c-0.1,0.8-0.8,1.9-1.5,2.2
		c-19.4,7.6-38.8,15.1-58.2,22.6C535.9,274.1,535.5,274.2,535.4,274.2z"/>
	<path class="st5" d="M576.3,283.9c0.2-2.9,0.7-5.8,0.6-8.7c-0.1-6.7,9.5-13.3,15.7-11.7c1.2,0.3,2.6,0.9,3.5,1.9
		c1.3,1.4,2.3,1.6,4,0.8c5.4-2.4,8.4-1,12.3,3.2c1.4,1.5,1.3,4.6,1.6,7c1.2,8.8-1.7,15.8-9.1,20.9c-5.7,3.9-11.4,7.8-17.1,11.7
		c-2.1,1.4-3.5,0.6-5-1.1c-4.6-5.2-5.7-11.5-6.2-18.1c-0.1-2,0-3.9,0-5.9C576.5,283.9,576.4,283.9,576.3,283.9z"/>
	<path class="st5" d="M626.8,242.1c-0.7,5.8-1.2,11.7-2.2,17.5c-0.8,4.5-4.7,5.4-8.1,2.3c-2.3-2.1-4.4-4.3-7-6.1
		c-6.3-4.4-7.7-10.3-6.2-17.4c0.2-1.2,0.6-2.3,0.8-3.5c0.6-3.2,2.5-5.2,5.5-6.1c2.7-0.7,5.5-1.4,8.2-1.6c5.2-0.4,8.4,3,8.3,8.3
		c0,2.1,0,4.3,0,6.4C626.5,242.1,626.6,242.1,626.8,242.1z"/>
	<path class="st5" d="M678.7,86.8c-7.8,2.8-15,6.7-21.6,11.7c-13.8,10.2-22.8,23.5-27.3,40.1c-4.4,16.2-8.6,32.5-11.1,49.2
		c-0.6,4-1.1,8-1.1,12c0,2.3,1,4.6,1.5,6.9c0.2,0.9,0.5,1.8,0.4,2.7c-0.6,3.7-1.6,4.1-4.9,2.5c-2.2-1.1-4.5-2-6.9-2.5
		c-2.2-0.5-4,0.4-5.3,2.3c-1.4,2.1-2.8,4.3-4.4,6.7c-1.8-2.3-3.6-4.6-5.4-6.8c-4.2-5.2-9.4-8.9-16-10.6c-3.3-0.9-6.2-0.3-8.9,1.9
		c-4.9,3.9-10.2,6.9-16.5,7.8c-2.2,0.3-4.7,0.3-6.8-0.4c-16.3-5.8-32.6-11.6-48.8-17.8c-5.6-2.1-10.8-5.4-16.4-7.8
		c-3.3-1.4-6.8-2.4-10.3-2.8c-14.1-1.4-28-0.3-41.5,4.2c-7.4,2.4-11.4,8-14.3,14.8c-0.3,0.7-0.9,1.5-1.5,1.7
		c-3.2,1.3-6.4,2.4-9.6,3.5c-0.6,0.2-1.9-0.2-2.2-0.7c-3.8-6.3-7.5-12.6-11.2-19c0.1-0.3,0.2-0.5,0.3-0.8c6.7,1.1,13.4,2.2,19.9,3.3
		c0.3-4.2,0.4-9,1.1-13.7c1.6-10.9,8.3-18.6,16.3-25.6c8.1-7.1,17.6-11,27.6-14c0.9-0.3,1.7-0.6,2.5-1.4c-0.6-0.1-1.2-0.2-1.8-0.2
		c-5.8,0-11.7-0.1-17.5,0c-1.9,0-3.1-0.6-4.3-2c-6.1-7.3-12.3-14.4-18.6-21.6c-8.3-9.6-19.2-14.4-31.2-17.7
		c-16.2-4.4-32-1.9-47.9,1.2c-17.3,3.3-30.4,13.3-43.3,24.3c-17.7,15.1-29.6,34.3-40.4,54.5c-19,35.5-31.9,73.2-40.2,112.5
		c-0.9,4.4-1.8,8.8-2.9,13.2c0-7.4-0.4-14.8,0.1-22.2c0.9-15.6,1.9-31.2,3.5-46.8c2-19.2,4.8-38.3,11.2-56.7
		c4.8-13.7,12.6-25.8,20.6-37.7c14.3-21.4,32.9-38.3,54.2-52.6c11.8-7.9,25.1-11.8,38.4-16c18.4-5.8,37.3-8.7,56.6-7.4
		c20.4,1.3,40.2,5.3,59.8,11.2c17.4,5.3,32.5,14.4,47.6,24c21.9,13.9,42.5,29.7,62.5,46.2c1.8,1.5,3.3,3.3,5.1,4.6
		c1.2,0.8,2.8,1.1,4.2,1.6c0.2-0.3,0.4-0.6,0.6-0.9c-8.7-10.8-17.4-21.7-26.3-32.7c1.3-0.9,2.5-1.8,3.6-2.7
		c15.1-11.4,31.4-20.3,49.5-25.9c8.2-2.6,16.8-3.2,25.3-3.8c5.7-0.4,11.5-0.8,17.2-0.1c8.8,1,17.5,2.9,26.2,4.5
		C671.7,85.3,675.2,86.1,678.7,86.8z"/>
	<path class="st5" d="M751.6,363.3c-1.5,0-2.7,0-4.2,0c-0.2-2.7-0.5-5.3-0.6-7.9c-0.8-11.1-1.4-22.2-2.2-33.3
		c-0.9-12.7-1.9-25.4-2.9-38.1c-0.7-9.7-1.4-19.4-2.3-29.2c-1.1-12.3-2.2-24.7-3.4-37c-0.9-8.7-1.6-17.6-3.3-26.2
		c-3-14.4-9.6-27.2-21.1-36.6c-13.2-10.9-28.6-12.4-43.9-1.4c-12.4,8.8-22.1,20.2-30.9,32.3c-3.3,4.5-6.1,9.3-9.1,13.9
		c-0.7,1.1-1.7,2-2.5,3c-0.3-0.1-0.5-0.2-0.8-0.3c0-2.2-0.2-4.5,0-6.7c2.7-22.5,7-44.7,15.6-65.6c8.5-20.8,25.1-33.3,47.1-38
		c20.4-4.4,34.5,5.6,45.1,21.2c10,14.6,15.8,31.1,18,48.8c1.4,11.9,3.6,23.7,4.8,35.5c0.9,9.2,1.2,18.4,1.4,27.7
		c0.3,17.1,0.7,34.2,0.3,51.4c-0.3,13.8-1.5,27.7-2.3,41.5c-0.6,9.5-1.1,19-1.7,28.4C752.4,352.2,752,357.6,751.6,363.3z"/>
	<path class="st5" d="M694.9,449.3c19-5.2,33.6-15.7,46.1-29.8c14.8-16.7,31.1-32.1,47.8-46.9c18-16.1,36.1-32,54.5-47.7
		c6.7-5.7,14.2-10.5,21.4-15.5c2.3-1.6,4.9-2.7,7.4-4c2.5-1.3,4.9-1.5,7.1,0.6c2.3,2.3,3.2,5.1,2.1,8.2c-0.5,1.4-1.3,2.8-2.3,3.9
		c-6.3,6.6-12.7,13.2-19.1,19.7c-12.2,12.2-23.4,25.2-33.4,39.3c-12.1,17-24,34.2-35.6,51.5c-7.3,10.9-15.7,20.7-25,29.9
		c-6.7,6.6-15.1,9.2-24.3,9.2c-5.1,0-10.3-0.2-15.4-0.5c-1.6-0.1-3.2-0.5-4.7-1.1C711.9,462,703.7,455.7,694.9,449.3z"/>
	<path class="st5" d="M291.1,228.3c3,0.6,6.2,0.9,9.1,2c7.4,2.6,13.1,7.8,18.1,13.6c12.3,13.9,24.3,28.1,36.5,42.1
		c8.9,10.3,15.3,22,20.3,34.5c3.7,9.3,4.3,18.8,4.1,28.7c-0.4,16.3-2.5,32.2-6.9,47.8c-2.5,9-6.6,17.2-12.8,24.3
		c-9.2,10.7-21.1,15.6-35,15.2c-7.9-0.2-15.8-1.1-23.8-1.7c-0.2,0-0.4-0.2-1.3-0.6c1.2-1,2.3-1.8,3.2-2.7c12.4-12,23.9-24.7,33-39.5
		c7-11.4,10.8-23.7,10.6-37.2c-0.2-8.6-0.1-17.1-0.4-25.7c-0.4-9.9-3.9-19-7.6-28c-5.3-12.9-13.2-24.3-20.4-36.1
		c-5.1-8.4-12.5-14.7-18.6-22.2c-2.7-3.3-5.1-6.9-7.5-10.4c-0.6-0.9-0.8-2-1.2-3C290.7,228.9,290.9,228.6,291.1,228.3z"/>
	<path class="st5" d="M325.3,241.2c-4-3.8-7.4-7.7-11.5-10.8c-4.1-3-8.8-5.2-13.7-8c2.7-7.4,5-15.4,8.3-22.9
		c7.9-18,20.1-32.1,38.8-39.6c6.3-2.5,12.8-4.1,19.7-4.2c6.9-0.1,12.7,2.3,17.4,7.3c4.5,4.7,7.9,10.2,10.7,16.6
		c-6.6-0.5-12.7-1-18.8-1.4c-3.6-0.3-7.2-0.6-10.7-0.7c-5-0.2-9.3,1.7-11.8,5.9c-4.7,7.9-9.4,15.8-13.5,24.1
		c-5,10.4-9.3,21.1-13.9,31.6C325.9,239.7,325.7,240.4,325.3,241.2z"/>
	<path class="st5" d="M361.7,182.6c7.3-0.4,13.6,1.1,18.5,6c7.1,6.9,12.2,15.2,14.8,24.8c0.6,2.1,0.3,4.5,0.4,6.7
		c-0.3,0.1-0.7,0.2-1,0.2c-0.8-1.6-1.7-3.2-2.4-4.9c-4.3-10.1-10.3-18.9-19.1-25.6C369.5,187.3,365.8,185.2,361.7,182.6z"/>
</g>
</svg>
