<svg xmlns="http://www.w3.org/2000/svg" id="Layer_1" x="0" y="0" version="1.1" viewBox="0 0 1277.8 529.1" xml:space="preserve">
  <style>
    .st0{fill:#fefefe}
  </style>
  <path d="M533.9 58.3l-3.3 15.2-3.6 15.4-3.3 15.5-3.6 15.5-3.4 15.5-3.6 15.5-3.4 15a4084.1 4084.1 0 00-7 31.3l-3.6 15.7-3.4 15.3-3.6 15.7c-.8 3.6-1.7 7.1-2.4 10.7-.8 3.8-1.9 4.8-5.6 4.8-14.4 0-28.8.3-43.2-.3-4.4-.2-4.2-.3-5.1-4.7-1.4-6.8-3.1-13.6-4.6-20.4l-3.4-16.1-3.6-15.7-3.4-15.8-3.5-15.5-3.4-15.2a4084.1 4084.1 0 01-10.6-47.3l-3.4-15.3-3.6-16c-1.2-5.3-2.4-10.5-3.3-15.8-.3-1.7-.8-3.4-1.5-5.3-.7 1.5-.6 2.8-.6 4.1a41962.9 41962.9 0 00.3 187.4l-.2 7.7c-.1 2.6-1.1 3.6-3.7 3.7l-15 .1h-27c-3.7 0-3.7 0-3.7-3.7l-.1-159 .2-85.5c0-3.9 0-3.9 4-4 21.8-.5 43.7-.4 65.5-.4h.7c5.4.2 6.9 1.7 8.1 6.9 1.8 8.3 3.9 16.6 5.8 24.9l4.3 19.4 4.7 19.3 4.3 19.4 3.6 15 3.4 15 3.5 15L453 156l3.4 15 3.6 15.5 3.4 14.6c1.9-2.3 1.9-5.1 2.5-7.5l4.9-20.5c1.6-6.3 2.8-12.7 4.3-19.1l4.6-19.3 3.3-15 3.6-15.4 3.3-14.8 3.6-15.7 3.4-14.7 3.6-15.7 3.4-15.2L509 7.7c.4-1.4 1.6-1.3 2.6-1.3h14.5c13.3 0 26.7.1 40-.1 5.9-.1 11.8.8 17.7 1 1.4.1 2 .7 1.9 2v2.5l-.1 238c0 1.7 0 3.4-.3 5-.7 3.5-1.5 4.1-5.1 4.1h-42c-1.9 0-2.4-.6-2.4-2.4l-.3-29.7c.2-53.3.2-106.6.3-160 0-3.1-.6-6-1.1-9-.3.4-.5.4-.8.5zM175.6 82.9h-22.5c-1.8 0-3-.2-3.5-2.5-.8-4.2-1.6-8.4-3.4-12.4a36.3 36.3 0 00-21.8-19.5 79.6 79.6 0 00-34.9-3.8c-9.6.8-18.9 3.4-26.7 9.7a25.8 25.8 0 00-9.2 24.9c1.3 9.2 7.9 13.7 15.4 17 6.3 2.8 13.1 4.7 19.8 6.2 6.1 1.4 12.2 3.1 18.3 4.6l14.7 3.4 13.8 3.2c5.1 1.2 10.2 2.3 15.2 3.8a95.7 95.7 0 0137.5 17.9 54.6 54.6 0 0117.2 26.3 82 82 0 012.6 33.8c-1.3 9.6-4 18.6-8.9 26.9a79.3 79.3 0 01-34.8 31.8c-9.5 4.6-19.6 7.4-30 9.2a199.7 199.7 0 01-41.6 1.7 141 141 0 01-24.9-3.6 98.4 98.4 0 01-39.6-18.3A68.6 68.6 0 015 211.7c-3.3-9-5.1-18.3-5-28 0-1.9.5-2.7 2.5-2.7H48c1.9 0 2.7.6 3.1 2.6a51.4 51.4 0 009.3 23.3c4 5 9.1 8.2 14.9 10.4 12.5 4.5 25.4 5.7 38.5 4.5 4.2-.4 8.5-.6 12.6-1.5 11.3-2.4 22.1-6.3 27.8-17.4a25.2 25.2 0 00-.5-25.6c-2.8-4.8-7.8-7.2-12.5-9.5-7.1-3.5-14.8-5.5-22.6-7.4l-20.3-4.7c-5.2-1.2-10.5-2.1-15.8-3.3a458.5 458.5 0 01-31.7-9 68.5 68.5 0 01-33.6-21.1 59 59 0 01-10.3-19.9c-2.8-9-3.2-18.3-3-27.6a70.2 70.2 0 0120.4-48.1A79.7 79.7 0 0159.9 5.5c9.6-2.9 19.4-3.9 29.3-5 9.3-1 18.5-.4 27.7.3 6.6.5 13.1 2 19.5 3.6a99.4 99.4 0 0128.5 12.5 72.1 72.1 0 0134.2 50.3c.8 4.3 1.3 8.7 1.9 13 .3 2-.5 2.8-2.6 2.8l-22.8-.1zM1080.3 133l-.1-121.7c0-2.6.6-3.7 3.2-4 2-.2 4-.6 6-.6l164 .2c3.3 0 6.6.5 10 .6 1.4.1 1.8.7 1.8 2.1v41c0 1.6-.6 2.1-2.1 2h-127.4c-3.4 0-3.4 0-3.4 3.4v45.7c0 2.4.7 3.1 3.1 3.1h114.7c4.1 0 4.1 0 4.1 4.2v36.7c0 3.6 0 3.6-3.7 3.6H1136c-3.7 0-3.7 0-3.7 3.6l-.1 57.5c0 2.4.6 3.1 3 3.1l132.5.1c3.8 0 3.8 0 3.8 3.9V256c0 3.4 0 3.4-3.3 3.4H1089l-6.2-.2c-1.7-.1-2.5-.9-2.5-2.7v-9V133zM865.6 134.2V19.7c0-3.2.2-6.3.3-9.5 0-1.6.6-2.3 2.5-2.6 10.9-1.8 21.8-.3 32.7-.8 4.4-.2 8.8 0 13.2.2 3.4.2 4.4 1.2 4.7 4.6.2 3.2.3 6.3.3 9.5v190.7c0 1.1.4 1.7 1.6 1.7h2l118 .1c3.7 0 3.7 0 3.7 3.6 0 12.5.6 25-.3 37.5-.3 4.5-.2 4.6-4.7 4.6H869.2c-3.5 0-3.5 0-3.5-3.4l-.1-121.7zM108.4 365.5c-.6 1.7-.4 3-.4 4.2v151c0 3.8 0 3.8-3.8 3.9l-18.2.3c-3.3.1-3.3 0-3.3-3.3-.4-26.8-.5-53.7-.5-80.5V328.4c0-3.8 0-3.8 3.8-3.9 7.4 0 14.8.1 22.2-.1 2.2 0 3.5.8 4.7 2.5a17795 17795 0 0029.1 45.2l55.4 85.2c5.4 8.3 10.6 16.7 16.5 24.6l1.5 2c.8-1.1.5-2.1.5-3.1V329.1v-3c0-1.3.6-1.8 1.8-1.8l22.5-.1c1.2 0 1.7.5 1.6 1.7v194.7c0 3.7 0 3.7-3.9 3.8-7.5.1-15 .1-22.5.4-2.1.1-3.4-.7-4.5-2.4l-21.3-32.7-50.1-76.8-29.3-44.9-1.8-2.5zM1256.9 383.2c-3.3 0-6.7-.2-10 .1-2.4.1-3.2-.9-3.6-3a56 56 0 00-4.7-15.4 36 36 0 00-19.7-17.7 71.7 71.7 0 00-35.8-3.7 44 44 0 00-18.7 6.4c-10.9 6.6-14.4 16.7-13.8 28.9.5 10.2 7.1 15.4 15.2 19.5a98 98 0 0021.8 7.3c10 2.4 20.1 4.2 30 6.8 11.5 3 23 6.2 33.6 11.8a50 50 0 0123.2 24.8c1.5 3.4 2.4 7 2.8 10.8.6 6 .9 11.9.1 17.9a47.9 47.9 0 01-9.2 23 62.5 62.5 0 01-32.1 22.5 116.4 116.4 0 01-61.6 3.2c-9.6-2-18.7-5-27-10.1a61.1 61.1 0 01-30.2-55.6c0-1.7.4-2.4 2.2-2.4 6.8.1 13.7.1 20.5 0 1.7 0 2.2.5 2.5 2.2a56.9 56.9 0 006.2 21.3c5 8.5 12.2 14.4 21 18.4a83.2 83.2 0 0045 5 45.6 45.6 0 0027.8-12.5 30.8 30.8 0 008.3-22.7c-.1-12.7-7.4-20.3-18-25.5a111 111 0 00-26.4-8.3c-6.6-1.3-13.2-3.2-19.8-4.6a257 257 0 01-17.3-4.3 77 77 0 01-34.3-17.6 38 38 0 01-10.7-20.1 58.5 58.5 0 01.4-25 51.5 51.5 0 0124.9-33.1c6.6-3.9 13.5-7 21-8.7a110.6 110.6 0 0150.2-.3c20.4 5 36 15.9 44.1 35.8a61 61 0 014.4 20.3v.7c.4 4 .4 4-3.9 4.1-2.8-.2-5.6-.2-8.4-.2zM293.7 132.3V247c0 3.1-.3 6.2-.3 9.2 0 2-1.2 2.8-3 3l-3.5.2-42.7.1c-2.5 0-3.1-1-3.2-3.2-.5-11.7-.4-23.3-.4-35V14.6c0-7.1.7-7.7 7.7-7.7 13.9.1 27.8-.2 41.7.3 3.6.1 3.7.1 3.7 3.9v121.2zM955 424.3v-96c0-4 0-4 3.9-4l129.5.1h2.7c1.4-.1 2.2.5 2.1 2l-.1 19c0 1.3-.5 1.8-1.8 1.8H985.6c-3.4 0-3.4 0-3.4 3.4v56.5c0 2.4.6 3.1 3.1 3.1l97.2-.1c3.7 0 3.7 0 3.7 3.7V430c.1 2.5-.8 3.1-3.2 3.1l-96.7-.2c-3.9 0-3.9 0-3.9 3.9l-.1 61.2c0 2.6.8 3.2 3.3 3.2l105.2-.1c3.6 0 3.6 0 3.6 3.5v17c0 2.1-.7 2.7-2.7 2.7H959c-3.8 0-3.8 0-3.8-3.9-.2-31.9-.2-64-.2-96.1zM768.1 424.9c.4 5.7.2 12.4 1.4 19.1 3.2 18.4 9.4 35.3 24.1 47.8a57.6 57.6 0 0025.4 12.4c7 1.6 14.2 2.5 21.3 1.7a53 53 0 0047.2-34.6 79.3 79.3 0 004.9-21c.2-1.6.8-2.2 2.3-2.2 7.6.1 15.2-.1 22.7.3 1.8.1 2.3.5 2.1 2.6-1.2 11-3.8 21.5-8.3 31.5a74 74 0 01-52.9 43.5 114.8 114.8 0 01-30.9 2.7 87.4 87.4 0 01-51.3-17.9 84.3 84.3 0 01-26.6-36.3 131 131 0 01-7.2-27.5c-1.6-10.3-2.3-20.5-1.6-30.8.7-9.2 2.1-18.2 4.5-27.2 3-11.2 7.5-21.8 14.1-31.3a84.5 84.5 0 0139.2-31.6 99.4 99.4 0 0145.2-6.1c9.8.8 19.2 2.5 28.3 6.1a71 71 0 0145.7 57.2c.2 1.3-.2 1.7-1.4 1.7h-24c-1.2 0-1.6-.7-2-1.8-2.1-6.1-3.8-12.3-7.5-17.7a50.7 50.7 0 00-26-19.5 70 70 0 00-32.7-2.7 58.8 58.8 0 00-45.6 32.7c-3.6 6.8-6.1 14-7.9 21.4-2 8.8-2.5 17.6-2.5 27.5zM351.4 496.1l16.3-48.4 15-44.9 14.3-43.2c3.6-11 7.4-21.9 11.1-32.8.5-1.5 1.2-2.4 3.2-2.4l23 .1c2.8 0 2.9.3 2 2.8l-10.4 29.2-10.7 29.9-9.4 26.4-10.6 29.6-9.4 26.6-9.4 26.3-8.6 23.9-1.4 4c-.5 1.3-1.3 2.1-2.9 2l-25.7-.4c-1.7 0-2.7-.4-3.3-2.2-2.4-7.2-5-14.3-7.5-21.4l-8.6-24.4-7.4-21.4-6.4-18.2-7.6-21.7-8.5-24-8.4-24-8.4-24.1-6-16.8c-.5-1.5 0-1.9 1.3-1.9h26.2c.9 0 1.5.3 1.8 1.3a3768 3768 0 0010.1 31.2c3.8 11.7 7.8 23.3 11.7 35l12.3 37.7c4.1 12.6 8.5 25.1 12.6 37.6 2.7 8.3 5.2 16.7 8.3 24.9.2.9.7 2 1.4 3.7zM703.6 424.6v96.7c0 3.6 0 3.6-3.6 3.5l-20.2-.3c-3.4-.1-3.4-.1-3.4-3.5V401.8v-73.7c0-3.6 0-3.6 3.7-3.6h20.2c3.3 0 3.3 0 3.3 3.5v96.6zM35.9 424.5v96.2c0 3.7 0 3.7-3.7 3.7H13c-4.3 0-4.3 0-4.3-4.2v-95l-.1-95.7V326c0-1.1.6-1.7 1.7-1.7h24c1.1 0 1.7.5 1.6 1.6v98.6c.1 0 0 0 0 0zM819.6 54.5a59.1 59.1 0 00-14.5-24.6A74.8 74.8 0 00761 8.8c-10.7-1.6-21.6-2-32.4-2h-90.2c-4.3 0-4.3 0-4.3 4.2v244.2c0 4 0 4 4.1 4h45c3.3 0 3.4 0 3.4-3.4v-83.7c0-3.3 0-3.4 3.3-3.4l52.7-.3c10.4 0 20.7-1 30.8-3.9a84 84 0 0020.1-8.2 56 56 0 0025.7-32.7c2.5-8.1 3.8-16.4 4.4-24.9a118 118 0 00-4-44.2zm-48.2 38.7c-1 14-6.8 25-22.5 30a53.7 53.7 0 01-16 2.1l-43.2-.3c-2.3 0-3.2-.6-3.2-3.1l.1-30.5h-.4V65.2c0-3.8.4-7.6.4-11.5 0-1.6.7-2.1 2.2-2.2 14.8-.4 29.6-.5 44.5-.2 5.7.1 11.5.4 17 2.3a28 28 0 0119.3 19c2 6.9 2.3 13.7 1.8 20.6zM640.6 425a119.8 119.8 0 00-8.6-47.9 96 96 0 00-16.1-26.5 87.4 87.4 0 00-66-30.9 107 107 0 00-40.8 6.1 89 89 0 00-32 21.5 103.8 103.8 0 00-26.3 55.5c-1 5.8-1.1 11.6-1.2 17.4-.2 9-.1 18 1.4 26.9 1.4 8 3.7 15.7 6.6 23.3a92.6 92.6 0 0030.4 40.8 90 90 0 0049.4 17.6c14 1 27.9-.4 41.2-5.1a87 87 0 0039-27.5 103.5 103.5 0 0020.8-46.7 93.2 93.2 0 002.2-24.5zm-29.2 23.8c-4.1 16.9-10.9 32.5-25 43.7a59.6 59.6 0 01-28.2 12.8 83.8 83.8 0 01-22.9.6 58.7 58.7 0 01-32.7-14.3 75 75 0 01-21.6-33.5 124.7 124.7 0 01-4.9-37.3c.5-11 2.1-21.8 5.8-32.2a68 68 0 0129.3-37.5 72.8 72.8 0 0139-8.6 62.9 62.9 0 0138.9 16.2c9.4 8.5 15.3 19 19.2 30.6 3.9 11.4 6 23.1 5.3 35.6.7 7.9-.3 16-2.2 23.9z" class="st0"/>
</svg>
