<?xml version="1.0" encoding="utf-8"?>
<!-- Generator: Adobe Illustrator 22.0.1, SVG Export Plug-In . SVG Version: 6.00 Build 0)  -->
<svg version="1.1" id="Layer_1" xmlns="http://www.w3.org/2000/svg" xmlns:xlink="http://www.w3.org/1999/xlink" x="0px" y="0px"
	 viewBox="0 0 165 32" style="enable-background:new 0 0 165 32;" xml:space="preserve">
<style type="text/css">
	.st0{fill:#FFFFFF;}
</style>
<title>logo-vertexinc</title>
<g>
	<path class="st0" d="M28.6,7.2c-0.2-0.8-0.8-1.4-1.5-1.7c-1.3-0.6-2.7-0.3-3.7,0.6c0,0,0,0-0.1,0.1c0,0,0,0,0,0
		c-0.3,0.3-0.5,0.6-0.6,1L17.3,17V3.8c0.1-0.5,0.1-1,0-1.4c-0.2-0.8-0.8-1.4-1.5-1.7c-1.5-0.8-3.3-0.2-4.1,1.2L6,12.3v-4
		c0-1.7-1.3-3-3-3s-3,1.3-3,3v15.4c0,0.1,0,0.3,0,0.4c0,0.1,0,0.1,0,0.2c0,0,0,0,0,0.1c0.1,0.9,0.6,1.7,1.4,2.1c0,0,0.1,0,0.1,0.1
		c0.5,0.3,1,0.4,1.5,0.4c1.1,0,2.1-0.6,2.6-1.6l5.6-10.2V28c-0.2,1.2,0.3,2.5,1.4,3.1c0,0,0.1,0,0.1,0.1c0.5,0.3,1,0.5,1.6,0.4
		c1.1,0,2.1-0.6,2.6-1.6l5.5-10v3.7c0,1.7,1.3,3,3,3s3-1.3,3-3V9C28.7,8.4,28.7,7.8,28.6,7.2z"/>
	<path class="st0" d="M56.9,3.1H52c-0.3,0-0.6,0.3-0.6,0.6L47,23.8c-0.1,0.4-0.2,0.5-0.5,0.5c-0.3,0-0.5-0.2-0.5-0.5L41.6,3.6
		C41.5,3.3,41.2,3,40.9,3H36c-0.3,0-0.6,0.2-0.6,0.5v0.2c0,0,5.7,23.4,5.7,23.6c0.2,1,1.1,1.7,2.1,1.6h6.3c1,0.1,1.9-0.6,2.1-1.6
		c1.1-4.4,5.7-23.6,5.7-23.6h0.2l-0.1-0.1C57.4,3.3,57.2,3.1,56.9,3.1z"/>
	<path class="st0" d="M75.3,3H60.8c-0.4,0-0.7,0.3-0.7,0.7v24.5c0,0.4,0.3,0.7,0.7,0.7h14.5c0.4,0,0.7-0.3,0.7-0.7V25
		c0-0.4-0.3-0.7-0.7-0.7h-8.6c-0.4,0-0.7-0.3-0.7-0.7v-5.5h9c0.4,0,0.7-0.3,0.7-0.7v-3.3c0-0.4-0.3-0.7-0.7-0.7h-9v-5
		c0-0.4,0.3-0.7,0.7-0.7h8.6C75.7,7.7,76,7.4,76,7V3.7C76,3.3,75.7,3,75.3,3z"/>
	<path class="st0" d="M138.9,3h-14.6c-0.4,0-0.7,0.3-0.7,0.7v24.5c0,0.4,0.3,0.7,0.7,0.7h14.5c0.4,0,0.7-0.3,0.7-0.7V25
		c0-0.4-0.3-0.7-0.7-0.7h-8.6c-0.4,0-0.7-0.3-0.7-0.7v-5.5h9c0.4,0,0.7-0.3,0.7-0.7v-3.3c0-0.4-0.3-0.7-0.7-0.7h-9v-5
		c0-0.4,0.3-0.7,0.7-0.7h8.6h0.1c0.4,0,0.7-0.3,0.7-0.7V3.7C139.6,3.3,139.3,3,138.9,3z"/>
	<path class="st0" d="M164.9,28.1l-7.5-12.2l7.1-12.2c0.1,0,0.1-0.1,0.1-0.2c0-0.3-0.2-0.5-0.5-0.5H159c-0.3,0.1-0.6,0.3-0.8,0.6
		l-3.9,7l-4.3-7c-0.2-0.3-0.5-0.5-0.9-0.6h-5.6c-0.3,0-0.5,0.2-0.5,0.5l7.3,12L143,28c-0.1,0.1-0.1,0.2-0.1,0.3
		c0,0.3,0.2,0.5,0.5,0.5h5.1c0.4,0,0.8-0.3,0.9-0.7l4.1-7.1l4.6,7.4c0.2,0.3,0.5,0.5,0.9,0.5h5.5c0.2,0,0.5-0.2,0.5-0.4
		C165,28.4,165,28.2,164.9,28.1z"/>
	<path class="st0" d="M94.8,18.3c2.8-1.1,4.7-3.9,4.5-6.9V11c0-6.1-4.5-7.9-7.8-7.9H80.9c-0.4,0-0.7,0.3-0.7,0.7v24.5
		c0,0.4,0.3,0.7,0.7,0.7h4.5c0.4,0,0.7-0.3,0.7-0.7v-8.8H89l4.7,8.9c0.1,0.4,0.3,0.6,0.7,0.7h5.3c0.3,0,0.5-0.2,0.5-0.5
		c0-0.2-0.1-0.3-0.2-0.5L94.8,18.3z M93.4,11.4h-0.1v-0.1c0,1.9-0.5,3.2-4.1,3.2h-3.1V7.8h3.4c3,0,3.9,1.6,3.9,3.1V11.4z"/>
	<path class="st0" d="M119.7,3.1h-17.3c-0.4,0-0.6,0.3-0.7,0.6v3.6c0.1,0.3,0.3,0.6,0.7,0.6h5.7v20.3c0,0.4,0.3,0.7,0.7,0.7h4.6
		c0.4,0,0.7-0.3,0.7-0.7V7.9h5.7c0.3,0,0.6-0.3,0.6-0.6V3.7C120.3,3.4,120.1,3.1,119.7,3.1z"/>
</g>
</svg>
