<?xml version="1.0" encoding="utf-8"?>
<!-- Generator: Adobe Illustrator 22.0.1, SVG Export Plug-In . SVG Version: 6.00 Build 0)  -->
<svg version="1.1"
	 id="svg3073" inkscape:version="0.48.2 r9819" sodipodi:docname="wegmanslogo.svg" xmlns:cc="http://creativecommons.org/ns#" xmlns:dc="http://purl.org/dc/elements/1.1/" xmlns:inkscape="http://www.inkscape.org/namespaces/inkscape" xmlns:rdf="http://www.w3.org/1999/02/22-rdf-syntax-ns#" xmlns:sodipodi="http://sodipodi.sourceforge.net/DTD/sodipodi-0.dtd" xmlns:svg="http://www.w3.org/2000/svg"
	 xmlns="http://www.w3.org/2000/svg" xmlns:xlink="http://www.w3.org/1999/xlink" x="0px" y="0px" viewBox="0 0 493.5 169.4"
	 style="enable-background:new 0 0 493.5 169.4;" xml:space="preserve">
<style type="text/css">
	.st0{fill:#FFFFFF;}
</style>
<sodipodi:namedview  bordercolor="#666666" borderopacity="1" gridtolerance="10" guidetolerance="10" id="namedview3075" inkscape:current-layer="svg3073" inkscape:cx="252" inkscape:cy="57.385469" inkscape:pageopacity="0" inkscape:pageshadow="2" inkscape:window-height="711" inkscape:window-maximized="1" inkscape:window-width="1280" inkscape:window-x="0" inkscape:window-y="0" inkscape:zoom="0.98770471" objecttolerance="10" pagecolor="#ffffff" showgrid="false">
	</sodipodi:namedview>
<path id="path3083" inkscape:connector-curvature="0" class="st0" d="M153.9,168.7c-6.5-2-11.2-9.8-10-16.3c0.7-4,3.9-9.2,6.3-10.5
	c1.6-0.9,1.8-0.5,1.5,3.9c-0.3,4.1,0,5.2,2.2,7.4c6.4,6.4,19.4,0.8,30.5-13.2c4.4-5.5,14.9-22.9,16.8-27.8c0.6-1.7,0.4-1.7-2.2,0.3
	c-4,2.9-10.3,4.4-13.9,3.5c-4.3-1.1-7.5-6.3-7.5-12.3v-4.8l-6.8,5.1c-17.7,13.4-36.3,15.8-41.1,5.3c-3.8-8.3,1.5-22.4,11.9-31.8
	c16.5-15,39.6-18.1,39.2-5.3c-0.3,10.6-14,22.2-30.3,25.7c-4.5,1-4.9,1.3-4,3c1.8,3.3,9.4,2.6,18.1-1.8c5.9-2.9,10-6.3,20.5-16.5
	c14.6-14.2,20.4-17.8,28.7-17.8c2.6,0,6.2,0.7,7.9,1.6c2.9,1.5,3.2,1.5,4.3,0c1-1.4,2.7-1.6,9.2-1.4l8,0.3l-9.5,17.5
	c-5.2,9.6-13.1,24.2-17.6,32.5c-11.7,21.6-18,30.9-27.2,40.1c-9.8,9.7-16.7,13.5-25.9,14C159.8,169.5,155.6,169.3,153.9,168.7z
	 M205.2,99.2c4-3,7-7.1,11.4-15.1c4-7.3,3.4-9.6-2.5-10.1c-3.3-0.3-4.2,0.3-8.9,5c-5.7,5.7-10.7,14.5-10.7,18.8
	C194.5,103.3,199,103.9,205.2,99.2z M152.7,87.2c5.4-1.9,11.8-7.4,11.8-10.3c0-6.3-10.2-3.1-15.1,4.7c-2.9,4.5-3.6,7.1-2,7.1
	C147.8,88.8,150.2,88.1,152.7,87.2L152.7,87.2z M27.9,116.8c-6.2-2.7-7-11.3-2.4-25.2c1.6-4.9,3-9.3,3-9.8s-1.7-0.4-3.7,0.2
	c-4.9,1.4-15.5,0.2-21.2-2.3c-3.5-1.6-4.2-2.2-3-2.9c0.8-0.5,3.1-0.9,5-1c4.9,0,14.1-2.5,19.8-5.4c8-4,14.5-10.9,22.7-23.6l7.7-12
	h8.9c4.9,0,8.9,0.3,8.9,0.6s-3.1,6.1-6.9,12.8c-17.2,30.1-25.3,50.5-20.8,52.2c2.5,1,8.3-2.4,15.2-8.9C67,85.8,68.8,83,81,60.3
	l13.4-25l9.2-0.3c7.2-0.2,9.1,0,8.7,1c-0.3,0.7-6.9,13.2-14.6,27.8C86.2,85.3,83.5,91,83.5,94.3c0,2.2,0.5,4.6,1.2,5.2
	c6,6,26.5-12.4,37-33.3c3.8-7.6,7.6-20.4,8.8-30.3c2.2-16.8-3.4-28.7-13.9-29.5c-3.1-0.2-2.7-1.1,1.7-3.6c7.9-4.4,16.8-3.8,23.2,1.5
	c10.8,9.1,11.9,31.8,2.5,53.3c-13.2,30.5-46.2,59-68.8,59.4c-5.8,0.1-7-0.2-9.3-2.4c-1.5-1.4-3.2-4.3-3.8-6.6l-1.1-4.1l-4.7,3.4
	C46.4,114.6,33,119,27.9,116.8L27.9,116.8z M328.8,115.6c-4.7-1.2-6.4-4.5-6.4-12.3l0.1-6.6l-7.6,6.5c-11.7,10-21.1,13.9-24.3,10
	c-2.2-2.7-0.4-9,6.5-22.6c7.7-15.1,7.6-16.8-0.6-12c-8,4.7-7.8,4.5-16.3,20.4l-7.9,14.8H264c-4.7,0-8.3-0.4-8.3-1
	c0-0.5,3.8-8.1,8.5-16.8c7.7-14.3,9.9-20.2,7.8-20.2c-1.1,0-10.4,5.6-12.8,7.7c-1.2,1-5.6,8.2-9.8,16l-7.7,14.2h-7.9
	c-4.4,0-7.9-0.3-7.9-0.6c0-0.3,2.1-4.5,4.7-9.2c2.6-4.8,8.4-15.4,12.8-23.7l8.1-15l8.2-0.3c4.5-0.2,8.2,0.1,8.2,0.5s-0.9,2.3-2,4.1
	c-1.1,1.8-2,3.5-2,3.7s3.6-1.4,7.9-3.7c10-5.2,18.2-6.3,20.1-2.8c0.7,1.2,0.9,3.5,0.6,5.1s-0.4,2.9-0.1,2.9s2.6-1.3,5.2-2.9
	c10.4-6.4,21.5-8.9,24.3-5.6c2.1,2.5,0.5,9.1-4.9,20.1c-2.8,5.7-4.8,10.4-4.5,10.4c0.9,0,15.7-11.8,23.9-19.2
	c12.2-10.9,23.4-15.1,31-11.7c2,0.9,2.8,0.9,3.7,0c0.7-0.7,4.3-1.2,8.9-1.2h7.8L380.3,79c-7.1,13.7-10,20.6-8.7,20.6
	c0.3,0,4.7-3.1,9.7-6.9c9.5-7.2,13-11.4,18.5-21.8l3.3-6.2h7.9c8.7,0,9,0.3,5.8,5.6l-2.1,3.4l9.3-4.5c10.9-5.3,16.9-6,19.3-2.3
	c2.1,3.3,0.6,8.7-6.2,22c-3.1,6.2-5.9,11.6-6.1,12c-0.9,2.1,4.4-1.9,9.6-7.3c7.4-7.6,14.2-10.5,19.7-8.4c1.3,0.5,1.1,0.9-0.9,2.6
	c-2.9,2.3-6.5,8.8-6.5,11.8c0,5.7,7.1,12,11.7,10.3c5.7-2,6.6-6.2,3.3-15.6c-2.6-7.5-2.6-16.6,0-21.7c3.8-7.5,14.8-11.3,22-7.5
	c7.2,3.7,4,12.5-4.6,12.5c-2.2,0-2.3-0.3-1.5-1.9c2.4-4.4,0.1-8.9-3.9-7.6s-3.7,5.1,1.3,14.7c3.9,7.5,4.6,9.8,4.6,14.5
	c0,9.2-4,14.4-13.7,17.9c-5.7,2-17.9,1.8-22.9-0.5c-4.4-2-8.1-6-9.1-9.8c-0.3-1.3-0.8-2.3-1-2.3s-2.8,1.9-5.6,4.1
	c-9.3,7.4-17.6,9.8-21.3,6.2c-2.6-2.6-1.3-7.4,6.1-21.7c3.6-7.1,6.4-13.5,6.1-14.2c-0.7-1.9-4.8-0.3-10.8,4
	c-3.9,2.9-5.9,5.8-12.5,18l-7.8,14.6h-7.8c-5.1,0-7.8-0.4-7.8-1.1c0-0.6,1.4-3.5,3.1-6.5s2.8-5.4,2.4-5.4s-2.8,1.8-5.5,4
	c-6.9,5.8-15.9,11-19.1,11c-3,0-6.9-4-6.9-7.1c0-1.5-1-1.2-5.8,2.1C339.3,115.2,333.5,116.8,328.8,115.6L328.8,115.6z M348.1,99.9
	c5.3-3.8,8.9-8.3,12.5-15.4c3.9-7.8,3.6-10.2-1.4-10.6c-3.4-0.3-4.3,0.2-9,5c-8.2,8.3-13.6,21.5-9.5,23.1
	C343.1,103.1,344.2,102.7,348.1,99.9z"/>
</svg>
