<?xml version="1.0" encoding="utf-8"?>
<!-- Generator: Adobe Illustrator 22.0.1, SVG Export Plug-In . SVG Version: 6.00 Build 0)  -->
<svg version="1.1" id="Layer_1" xmlns="http://www.w3.org/2000/svg" xmlns:xlink="http://www.w3.org/1999/xlink" x="0px" y="0px"
	 viewBox="0 0 189.4 147.5" style="enable-background:new 0 0 189.4 147.5;" xml:space="preserve">
<style type="text/css">
	.st0{fill:#FFFFFF;}
</style>
<path class="st0" d="M189.4,147c-1.9,0-3.9,0-5.8,0c-0.5,0-0.7-0.2-0.8-0.7c-0.9-5.3-1.9-10.6-2.9-16.2c-0.1,0.4-0.2,0.5-0.3,0.7
	c-1.4,5.1-2.7,10.2-4.1,15.3c-0.2,0.7-0.4,0.9-1.1,0.9c-1.6-0.1-3.2,0-4.8,0c-1.8-5.7-3.5-11.3-5.3-17c-0.1,0-0.1,0-0.2,0
	c-1,5.6-2.1,11.3-3.1,16.9c-2.1,0-4.1,0-6.1,0c0.4-1.9,0.8-3.8,1.2-5.6c1.3-6.2,2.6-12.4,3.9-18.6c0.2-0.8,0.5-1.1,1.3-1.1
	c1.8,0.1,3.5,0.1,5.3,0c0.6,0,0.8,0.2,1,0.8c1.4,4.7,2.8,9.4,4.2,14c0.1,0.2,0.2,0.5,0.3,1c0.2-0.4,0.3-0.7,0.3-0.9
	c1.4-4.7,2.9-9.3,4.3-14c0.2-0.7,0.5-0.8,1.2-0.8c2,0,3.9,0,5.9,0c0.5,0,0.7,0.1,0.8,0.7c1.5,7.9,3.1,15.9,4.7,23.8
	c0,0.2,0.1,0.3,0.2,0.5C189.4,146.8,189.4,146.9,189.4,147z"/>
<path class="st0" d="M0,121.8c2,0,3.9,0,5.9,0c0.5,0,0.6,0.2,0.7,0.6c0.9,5.2,1.9,10.4,2.8,15.7c0,0.1,0,0.2,0.2,0.3
	c0.1-0.2,0.2-0.5,0.3-0.7c1.3-5,2.7-10,4-15c0.2-0.7,0.5-0.9,1.2-0.9c1.4,0.1,2.7,0,4.1,0c0.6,0,0.8,0.2,0.9,0.7
	c1.6,5.2,3.2,10.3,4.8,15.5c0.1,0.2,0.2,0.5,0.4,0.8c0.2-1,0.4-2,0.6-3c0.8-4.4,1.6-8.8,2.4-13.3c0-0.2,0.3-0.6,0.5-0.6
	c1.9,0,3.8,0,5.8,0c-1.8,8.5-3.5,16.8-5.3,25.2c-2.4,0-4.7,0-7.1,0c-1.6-5.2-3.1-10.3-4.7-15.5c-0.1,0-0.1,0-0.2,0
	c-0.1,0.3-0.2,0.5-0.3,0.8c-1.4,4.6-2.9,9.3-4.3,13.9c-0.2,0.7-0.5,0.9-1.2,0.9c-1.9-0.1-3.9,0-5.8,0c-0.5,0-0.8-0.1-0.9-0.7
	c-1.5-7.9-3.1-15.9-4.7-23.8c0-0.2-0.1-0.4-0.2-0.6C0,121.9,0,121.8,0,121.8z"/>
<path class="st0" d="M62.3,99.5c0.2-2.5,0.5-4.9,0.7-7.3c0.5-4.5,0.9-9,1.4-13.6c0-0.1,0-0.1,0-0.2c0.1-1.7,0.1-1.7-1.5-2
	c-6.6-1.4-13.1-2.9-19.7-4.3c-0.2-0.1-0.5-0.1-0.8-0.2c2.6-2.9,5.1-5.7,7.6-8.5c2.5-2.8,5-5.6,7.6-8.5c-5-5.6-10-11.3-15.2-17
	c7.4-1.6,14.8-3.2,22.3-4.9c-0.7-7.5-1.5-15-2.3-22.7c7,3.1,13.9,6.1,20.9,9.2C87,13.1,90.8,6.6,94.7,0c3.9,6.6,7.7,13.1,11.5,19.7
	c6.9-3,13.8-6.1,20.9-9.1c-0.8,7.6-1.5,15.1-2.3,22.7c7.4,1.6,14.8,3.2,22.3,4.9c-5.1,5.7-10.1,11.3-15.2,17
	c5.1,5.7,10.1,11.3,15.2,17c-2,0.4-3.9,0.9-5.8,1.3c-5.3,1.2-10.6,2.3-15.9,3.4c-0.5,0.1-0.6,0.4-0.6,0.8c0.5,4.9,1,9.9,1.5,14.8
	c0.2,2.4,0.5,4.7,0.7,7.2c-2-0.9-3.8-1.7-5.7-2.5c-4.8-2.1-9.6-4.2-14.4-6.3c-0.6-0.3-0.8-0.2-1.2,0.4c-3.5,6-7,12.1-10.6,18.1
	c-0.1,0.2-0.3,0.5-0.5,0.8c-0.2-0.3-0.4-0.5-0.5-0.8c-3.5-6-7.1-12.1-10.6-18.1c-0.3-0.6-0.6-0.7-1.2-0.4
	c-6.4,2.8-12.7,5.6-19.1,8.4C63,99.2,62.7,99.4,62.3,99.5z M77.4,30.9c0,0.3,0,0.5,0,0.7c0.1,5.1,0.3,10.2,0.4,15.4
	c0,0.5,0.2,0.7,0.7,0.9c4.7,1.6,9.5,3.2,14.2,4.8c0.2,0.1,0.3,0.1,0.5,0.1c0-0.2,0-0.4,0-0.5c0-5,0-10.1,0-15.1
	c0-0.6-0.3-0.7-0.7-0.9c-4.8-1.7-9.5-3.4-14.3-5.1C78,31.1,77.7,31,77.4,30.9z M96.2,52.8c0.2,0,0.3,0,0.4-0.1
	c4.8-1.6,9.6-3.3,14.5-4.9c0.5-0.2,0.6-0.5,0.6-1c0.1-5.1,0.3-10.1,0.4-15.2c0-0.2,0-0.5,0-0.8c-0.4,0.1-0.7,0.2-0.9,0.3
	c-4.7,1.7-9.4,3.4-14.1,5c-0.6,0.2-0.8,0.5-0.8,1.2c0,4.9,0,9.7,0,14.6C96.2,52.2,96.2,52.5,96.2,52.8z M97.2,55.7
	c0.2,0.3,0.3,0.5,0.4,0.7c2.9,3.9,5.7,7.7,8.6,11.6c0.4,0.5,0.7,0.6,1.2,0.4c2.9-0.9,5.9-1.7,8.8-2.6c2.1-0.6,4.3-1.3,6.4-1.9
	c-0.1-0.2-0.1-0.3-0.2-0.3c-3.2-4.2-6.5-8.4-9.7-12.6c-0.3-0.4-0.6-0.3-1-0.2c-3.9,1.3-7.9,2.6-11.8,4C99.1,55,98.1,55.3,97.2,55.7z
	 M92.3,55.7c-0.2-0.1-0.3-0.2-0.5-0.2c-4.8-1.6-9.6-3.2-14.3-4.8c-0.5-0.2-0.7,0-1,0.4c-1.8,2.4-3.7,4.8-5.5,7.1
	c-1.4,1.9-2.8,3.7-4.3,5.6c0.2,0.1,0.4,0.2,0.6,0.2c5,1.5,10,2.9,15,4.4c0.5,0.2,0.7-0.1,1-0.4c2.3-3.1,4.6-6.2,6.8-9.3
	C90.8,57.7,91.5,56.8,92.3,55.7z M94.7,84.1c0.2-0.2,0.3-0.3,0.3-0.4c3-4.3,5.9-8.6,8.9-12.9c0.3-0.4,0.2-0.7-0.1-1
	c-2.9-3.9-5.8-7.9-8.7-11.8c-0.1-0.2-0.3-0.3-0.4-0.5c-0.1,0.1-0.2,0.1-0.2,0.2c-3,4.1-6,8.1-9,12.2c-0.3,0.4-0.1,0.6,0.1,1
	c1.7,2.4,3.3,4.9,5,7.3C91.9,80.1,93.3,82.1,94.7,84.1z M107.5,72.3c0,0.2-0.1,0.3-0.1,0.5c-0.1,4.7-0.2,9.5-0.4,14.2
	c0,0.6,0.3,0.7,0.7,0.9c5,2.2,10.1,4.4,15.1,6.6c0.2,0.1,0.4,0.1,0.7,0.2c0-0.2,0-0.4,0-0.5c-0.6-5.5-1.1-11.1-1.7-16.6
	c-0.1-0.5-0.2-0.8-0.7-0.9c-2.9-0.9-5.8-1.8-8.6-2.7C110.9,73.4,109.2,72.9,107.5,72.3z M82,72.4c-0.3,0-0.3,0-0.4,0
	c-4.5,1.4-9.1,2.9-13.6,4.3c-0.4,0.1-0.5,0.4-0.6,0.8c-0.4,4.5-0.9,9-1.4,13.5c-0.1,1.2-0.2,2.4-0.4,3.8c0.3-0.1,0.5-0.2,0.7-0.2
	c5.1-2.2,10.1-4.5,15.2-6.7c0.5-0.2,0.6-0.5,0.6-1c-0.1-3.7-0.2-7.4-0.2-11.1C82,74.6,82,73.5,82,72.4z M115.4,48
	c0.1,0.1,0.2,0.1,0.3,0.2c4.4,1.6,8.9,3.3,13.3,5c0.5,0.2,0.7-0.1,0.9-0.3c2.5-2.8,5-5.6,7.5-8.4c1.3-1.5,2.6-2.9,4-4.5
	c-0.3-0.1-0.5-0.2-0.8-0.2c-5.4-1.2-10.8-2.4-16.2-3.6c-0.5-0.1-0.8,0.1-1,0.5c-2.5,3.6-5.1,7.2-7.6,10.8
	C115.7,47.6,115.5,47.8,115.4,48z M48,39.8c0.1,0.2,0.2,0.3,0.2,0.3c3.8,4.2,7.6,8.5,11.3,12.7c0.3,0.4,0.6,0.3,1,0.2
	c3-1.1,6-2.2,9-3.3c1.5-0.5,2.9-1.1,4.4-1.6c-0.1-0.2-0.1-0.3-0.2-0.4c-2.6-3.8-5.3-7.5-8-11.3c-0.1-0.2-0.6-0.3-0.9-0.3
	c-4.1,0.9-8.1,1.7-12.2,2.6C51.2,39.1,49.7,39.5,48,39.8z M94.7,6c-0.2,0.2-0.3,0.4-0.4,0.5c-2.8,4.8-5.6,9.6-8.4,14.4
	c-0.2,0.4-0.2,0.7,0.1,1c2.1,2.7,4.2,5.3,6.3,8c0.8,1,1.6,2,2.4,3.1c0.2-0.3,0.4-0.5,0.6-0.7c2.7-3.4,5.3-6.8,8-10.2
	c0.4-0.5,0.4-0.8,0.1-1.3c-2.8-4.7-5.5-9.4-8.2-14.1C95,6.5,94.9,6.3,94.7,6z M111.3,70.3c0.2,0.1,0.2,0.1,0.3,0.2
	c3.8,1.2,7.5,2.4,11.3,3.6c0.3,0.1,0.6,0.1,0.9,0c4.6-1,9.2-2,13.8-3c0.3-0.1,0.5-0.2,0.9-0.3c-0.4-0.1-0.5-0.2-0.7-0.3
	c-3.9-1.3-7.9-2.7-11.8-4c-0.5-0.2-1.1-0.2-1.6,0c-4.1,1.2-8.2,2.4-12.3,3.6C111.9,70.1,111.6,70.2,111.3,70.3z M78.2,70.4
	c-0.4-0.2-0.7-0.3-0.9-0.3c-4.1-1.2-8.3-2.5-12.5-3.6c-0.4-0.1-0.8-0.1-1.2,0c-4,1.3-8,2.7-12,4.1c-0.2,0.1-0.4,0.2-0.7,0.3
	c0.3,0.1,0.4,0.1,0.5,0.2c4.6,1,9.2,2,13.8,3c0.6,0.1,1.3,0.1,1.8-0.1c2.8-0.8,5.5-1.7,8.3-2.6C76.2,71,77.1,70.7,78.2,70.4z
	 M85.2,75.6c-0.1,0-0.1,0-0.2,0c0,0.2,0,0.4,0,0.6c0.1,3.7,0.1,7.4,0.3,11c0,0.5,0.2,1,0.4,1.5c2.3,4,4.6,7.9,6.9,11.9
	c0.1,0.2,0.3,0.4,0.5,0.8c0-0.3,0.1-0.5,0.1-0.6c0-4.3,0-8.7,0-13c0-0.3-0.2-0.7-0.3-1c-1-1.6-2.1-3.1-3.2-4.6
	C88.2,80,86.7,77.8,85.2,75.6z M104.3,75.5c-0.2,0.2-0.3,0.3-0.3,0.4c-2.5,3.7-5,7.3-7.5,11c-0.2,0.3-0.3,0.8-0.3,1.2
	c0,4.2,0,8.3,0,12.5c0,0.3,0,0.5,0.1,1c0.2-0.3,0.4-0.5,0.5-0.7c2.4-4,4.7-8.1,7.1-12.1c0.2-0.4,0.3-0.9,0.3-1.3
	c0.1-3.7,0.2-7.4,0.3-11C104.4,76,104.4,75.8,104.3,75.5z M114.8,43.6c0.1-0.1,0.1-0.2,0.2-0.2c2.2-3.1,4.4-6.2,6.5-9.3
	c0.2-0.3,0.3-0.6,0.3-1c0.4-4.2,0.9-8.5,1.3-12.7c0.1-0.7,0.1-1.4,0.2-2.2c-0.2,0.2-0.3,0.2-0.3,0.3c-2.6,3.5-5.1,6.9-7.7,10.4
	c-0.2,0.2-0.2,0.6-0.2,0.9c-0.1,2.8-0.2,5.6-0.3,8.4C114.8,40,114.8,41.8,114.8,43.6z M66.3,18.4c-0.1,0-0.1,0-0.2,0.1
	c0,0.1,0,0.3,0,0.4c0.4,4.3,0.8,8.5,1.3,12.8c0.1,1,0.1,2.1,0.8,3.1c2,2.7,4,5.6,5.9,8.4c0.1,0.2,0.3,0.4,0.5,0.7
	c0-0.3,0.1-0.4,0-0.5c-0.1-4.5-0.2-9-0.4-13.6c0-0.3-0.2-0.7-0.4-0.9c-1.7-2.3-3.4-4.7-5.2-7C68,20.6,67.1,19.5,66.3,18.4z
	 M50.1,67.8c0.3,0,0.3-0.1,0.4-0.1c4.1-1.4,8.2-2.8,12.4-4.2c0.3-0.1,0.5-0.4,0.7-0.6c2.6-3.4,5.2-6.7,7.8-10.1
	c0.1-0.2,0.3-0.4,0.5-0.7c-0.2,0.1-0.4,0.1-0.4,0.1c-3.6,1.3-7.2,2.7-10.8,4c-0.3,0.1-0.6,0.4-0.8,0.6c-2.1,2.4-4.3,4.8-6.4,7.2
	C52.4,65.2,51.3,66.4,50.1,67.8z M117.5,52c0.2,0.3,0.2,0.4,0.3,0.5c2.7,3.5,5.4,7,8.1,10.5c0.2,0.2,0.5,0.4,0.8,0.5
	c3.2,1.1,6.3,2.2,9.5,3.3c0.9,0.3,1.9,0.6,3,1c-0.2-0.2-0.2-0.3-0.3-0.4c-3.2-3.6-6.4-7.2-9.7-10.8c-0.2-0.2-0.5-0.4-0.9-0.5
	c-2-0.8-4-1.5-6-2.2C120.9,53.3,119.3,52.7,117.5,52z M68.7,16.6c0.1,0.3,0.2,0.4,0.2,0.4c2.5,3.4,5,6.8,7.5,10.1
	c0.2,0.3,0.5,0.5,0.9,0.6c2.6,0.9,5.1,1.8,7.7,2.7c1.7,0.6,3.3,1.2,5.2,1.8C90.1,32,90,31.9,90,31.8c-2.3-2.9-4.6-5.8-6.9-8.7
	c-0.2-0.3-0.5-0.4-0.8-0.6c-3.1-1.4-6.2-2.7-9.3-4.1C71.6,17.8,70.3,17.2,68.7,16.6z M120.6,16.8c0,0-0.1-0.1-0.1-0.1
	c-0.1,0.1-0.3,0.1-0.4,0.2c-4.4,1.9-8.7,3.8-13.1,5.8c-0.3,0.1-0.5,0.3-0.7,0.6c-2.2,2.8-4.4,5.7-6.7,8.5c-0.1,0.1-0.2,0.3-0.4,0.6
	c0.4-0.1,0.7-0.2,1-0.3c2.8-1,5.6-2,8.4-3c1.3-0.5,2.9-0.7,3.9-1.5c1.1-0.8,1.8-2.2,2.7-3.4c0-0.1,0.1-0.1,0.1-0.2
	C117.1,21.5,118.8,19.1,120.6,16.8z"/>
<path class="st0" d="M60.9,134.7c-0.2,1.4-0.4,3.1-0.8,4.7c-1.3,4.6-4.8,7.5-9.5,8c-2,0.2-4,0.2-6-0.3c-4.2-1-6.9-3.6-8.1-7.7
	c-1-3.4-1-6.8,0-10.1c1.3-4.5,4.5-7,9.1-7.7c2.2-0.3,4.4-0.3,6.5,0.2c4.7,1.1,7.4,4.1,8.4,8.8C60.7,131.8,60.7,133.1,60.9,134.7z
	 M42.6,134.3c0,1.8,0.2,3.5,1,5.1c0.9,2,2.4,3.1,4.7,3.1c2.3,0,3.8-1.1,4.7-3.1c1.4-3.3,1.4-6.7,0-10c-0.8-2-2.5-3.1-4.7-3.1
	c-2.2,0-3.8,1.1-4.7,3.1C42.8,130.9,42.6,132.6,42.6,134.3z"/>
<path class="st0" d="M104.7,121.8c0.1,0,0.2-0.1,0.3-0.1c4.3,0,8.5,0,12.8,0.1c1.7,0,3.3,0.6,4.7,1.7c2,1.6,2.3,3.7,2,6.1
	c-0.3,2.3-1.6,3.8-3.8,4.6c-0.2,0.1-0.5,0.2-0.9,0.3c2.5,1,2.6,3.4,3.4,5.3c0.9,2.2,1.6,4.4,2.4,6.6c0.1,0.2,0.1,0.3,0.1,0.6
	c-2.2,0-4.3,0-6.4,0c-0.2,0-0.5-0.3-0.6-0.6c-0.7-2-1.4-4.1-2-6.1c0-0.1-0.1-0.1-0.1-0.2c-1.1-2.7-2.3-3.4-5.3-3c0,3.3,0,6.5,0,9.9
	c-2.2,0-4.4,0-6.6,0C104.7,138.6,104.7,130.2,104.7,121.8z M111.3,132.2c1.7,0,3.3,0.2,4.9-0.4c1.1-0.4,1.7-1.2,1.7-2.5
	c0-1.2-0.5-2-1.6-2.4c-1.6-0.6-3.3-0.5-5-0.4C111.3,128.5,111.3,130.3,111.3,132.2z"/>
<path class="st0" d="M126.4,147c0.9-2.4,1.8-4.8,2.7-7.1c2.2-5.8,4.4-11.6,6.5-17.4c0.2-0.6,0.5-0.8,1.1-0.8c2.2,0,4.5,0,6.7,0
	c0.5,0,0.7,0.1,0.9,0.6c3.1,8.1,6.1,16.1,9.2,24.1c0.1,0.2,0.1,0.3,0.2,0.6c-2.3,0-4.6,0-6.8,0c-0.2,0-0.5-0.3-0.5-0.5
	c-0.5-1.4-1-2.8-1.5-4.2c-0.1-0.4-0.3-0.6-0.8-0.6c-2.8,0-5.5,0-8.3,0c-0.5,0-0.6,0.2-0.8,0.6c-0.6,1.6-1.2,3.2-1.8,4.8
	C130.9,147,128.8,147,126.4,147z M143,136.8c-1-3.4-2-6.6-3-9.8c-0.1,0-0.1,0-0.2,0c-1.1,3.2-2.1,6.5-3.2,9.8
	C138.9,136.8,140.9,136.8,143,136.8z"/>
<path class="st0" d="M91,136.8c0,3.5,0,6.8,0,10.2c-2.2,0-4.4,0-6.6,0c0-0.3,0-0.7,0-1c0-7.8,0-15.5,0-23.3c0-1,0-1,1-1
	c4.9,0,9.8,0,14.7,0c0.3,0,0.6,0,0.9,0c0,1.6,0,3.1,0,4.7c-3.3,0-6.6,0-10,0c0,1.9,0,3.7,0,5.6c3.2,0,6.3,0,9.6,0c0,1.6,0,3.1,0,4.7
	C97.4,136.8,94.3,136.8,91,136.8z"/>
<path class="st0" d="M64.6,121.8c2.2,0,4.3,0,6.5,0c0,6.7,0,13.5,0,20.3c3.5,0,6.9,0,10.4,0c0,1.7,0,3.3,0,4.9c-5.6,0-11.2,0-16.9,0
	C64.6,138.6,64.6,130.2,64.6,121.8z"/>
</svg>
