<?xml version="1.0" encoding="utf-8"?>
<!-- Generator: Adobe Illustrator 22.0.1, SVG Export Plug-In . SVG Version: 6.00 Build 0)  -->
<svg version="1.1" id="Layer_1" xmlns="http://www.w3.org/2000/svg" xmlns:xlink="http://www.w3.org/1999/xlink" x="0px" y="0px"
	 viewBox="0 0 300 130" style="enable-background:new 0 0 300 130;" xml:space="preserve">
<style type="text/css">
	.st0{fill:#FFFFFF;}
</style>
<g>
	<path class="st0" d="M131.3,17.7c-2.4-2.5-5-4.5-8-6.1c-5.7-3.8-12-6.3-18.5-8.5l0.9-0.2c7.8,0.7,15.2,5.9,22.1,9.4
		c2.1,1.7,4.2,4,6.6,5.2c4.3,1.3,9.5,0.4,13.9,0.1c-2.5-2.3-5.2-4.3-8.2-5.9c-2.8-1.6-5.6-3.2-8.6-4.4c-5.4-2.4-11.2-3.6-16.6-6
		c10.5,1.3,20.8,6,29.8,11.4c2.8,1.8,5.8,5,9.2,5.3c3.5,0.4,7.5,0.4,10.8-0.9c-2.6-2.2-5.5-3.9-8.6-5.4c-9.6-5.4-21.1-8.5-31.8-11.3
		L122.4,0h-15H81.8h-3.3C65.2,1.2,51.8,2.8,39.3,7.9c-4.6,1.4-8.8,3.7-12.9,6.2c-2.1,1.2-4,2.6-6,4c-2.6,1.8-4.8,4.1-6.7,6.5
		c-0.8,0.8-1.5,1.7-2.3,2.5c-1.6,1.8-2.8,3.8-4,5.9c-0.5,0.9-1,1.8-1.5,2.8c-0.9,1.9-1.7,3.9-2.2,5.9c-0.4,1.3-0.7,2.6-0.9,4
		c-0.5,2.5-0.8,5-1,7.6c0.9,1.9,2.1,4,4.1,4.7c1.9,0.6,4.1,0.6,6.1,0.6c13-0.1,26.1-0.1,39.1,0c2.1-0.1,4.7,0,6.6-1
		c2-1,3.2-2.8,4.3-4.7c0.4-1.6,0.8-3.2,1.1-4.8c0.3-1.3,0.6-2.7,0.9-4c0.4-1.4,0.8-2.8,1.3-4.1c0.6-1.7,1.2-3.4,2-5
		c0.9-2,1.9-4.1,3-6c0.9-1.6,1.8-3.3,2.9-4.8c1.1-1.4,2.2-2.8,3.3-4.1c1.2-1.4,2.5-2.8,3.9-4.1c2.8-2.4,5.8-4.6,8.7-6.7
		c2.4-1,4.6-2.3,6.8-3.7c5.6,0.1,11,4.4,15.6,7.4c2.2,1.7,4.6,4.7,7.5,5C123,18.5,127.3,18,131.3,17.7z"/>
	<path class="st0" d="M169.3,17.5c4,0.7,8.3,0.3,12.3,0c-2.7-2.6-6-4.4-9.5-5.9c-7.5-3.8-15.4-5.6-23.5-7.5c-3-0.7-6.1-1-9.1-1.2
		c7.4,3.5,15.2,5.4,22.2,9.8C164.3,14.3,166.6,16.4,169.3,17.5z"/>
	<path class="st0" d="M132.8,19.1c-4.5-0.9-9.4-0.1-14,0c2.2,3,4.3,6.4,7,9c1.8,0.7,4.2,0.5,6.1,0.6c2.4-0.1,5.6,0.3,7.8-1
		C139,24.3,135.7,20.9,132.8,19.1z"/>
	<path class="st0" d="M156.2,24.8c-1.7-2.2-3.8-4.5-6.4-5.7c-4.3-0.8-8.9-0.3-13.2,0c1.7,3.3,4.4,6.6,7.2,9.1
		c3.7,0.8,8.8,0.7,12.5,0.1C158.2,27.6,156.9,25.8,156.2,24.8z"/>
	<path class="st0" d="M166.9,19.1c-4.2-0.8-8.9-0.1-13.1,0c2.6,3,5,6.5,8.1,9.1c2.9,0.8,6.2,0.5,9.2,0.5c1.7-0.2,3.3,0.2,4.1-1.6
		C173.4,23.8,170.1,20.6,166.9,19.1z"/>
	<path class="st0" d="M127.2,30.3c1.5,3.8,3,7.8,5.2,11.3c3.2,0.5,6.4,0.3,9.6,0.3c1.8-0.2,3.5,0.3,4.8-1.1
		c-0.6-3.2-1.9-6.2-3.7-8.9c-0.9-1.5-1.5-1.6-3.2-1.7C135.8,30,131.5,30,127.2,30.3z"/>
	<path class="st0" d="M177.7,30.3c-4.6-0.5-9.3-0.2-14-0.1c1.1,3.9,3.5,8,5.7,11.4c4.6,0.5,9.3,0.2,14,0.1
		C182.7,37.7,180.9,33,177.7,30.3z"/>
	<path class="st0" d="M168.4,58.8c0.2-4.6-0.5-9.1-1.6-13.5c-4.8-0.1-9.7-0.4-14.5,0.2c0.2,4.5,1.3,8.9,1.8,13.3
		C158.9,58.7,163.7,58.7,168.4,58.8z"/>
	<path class="st0" d="M103.8,70.2c-5-3.8-11.6-4.4-17.6-3.7c-4,0.5-7.3,2.4-10.7,4.4c-0.2-1.2-0.4-2.4-0.6-3.6
		c-4.5,0-8.9,0-13.4-0.1c-0.2,20.8-0.1,41.6,0,62.4c5.1,0.1,10.3,0.2,15.4,0c-0.1-6.1-0.1-12.2,0.2-18.2c5.8,2.7,12,3.2,18.3,2
		c5.3-1.2,9.9-4.6,12.5-9.5c3.2-5.9,3.1-12.4,2.8-18.9C110.4,79.5,108.3,73.6,103.8,70.2z M90.8,100.8c-3.9,2.7-10.1,2-13.5-1.1
		c-0.8-5.7-0.6-11.9-0.2-17.6c-0.2-2.4,3.3-3.3,5.1-4c3.2-0.9,7.5-0.7,10.2,1.5c2.4,2.2,2.8,6.4,2.8,9.5
		C95.1,93,94.3,98.3,90.8,100.8z"/>
	<path class="st0" d="M248.4,84c-0.1-5-0.5-10.3-4.3-14.1c-3.7-3.6-9.2-4-14.1-3.6c-4.9,0.3-9,2.3-13.2,4.7
		c-2.3-1.8-4.3-3.8-7.3-4.4c-7-1.4-13.4,0.7-19.3,4.3c-0.2-1.2-0.5-2.4-0.7-3.7c-4.8,0-9.5,0-14.3,0c0,15.2,0,30.5,0,45.7
		c5,0.1,10,0.1,15.1,0.1c0.2-10.5,0-21,0.1-31.6c2.5-1.5,5.5-3.8,8.6-3.7c1.9,0.1,4,0.7,4.7,2.7c0.9,2.4,0.7,5.2,0.8,7.7
		c-0.1,8.3,0,16.6-0.1,24.8c4.8,0.2,9.6,0.3,14.4,0c0-10.6-0.2-21.2,0-31.8c2.4-3.2,8.2-4.4,11.6-2.5c2.5,1.4,2.4,4.9,2.6,7.4
		c0.1,9,0,17.9,0,26.9c5.1,0,10.1,0,15.2,0C248.5,103.3,248.4,93.6,248.4,84z"/>
	<path class="st0" d="M300,95.2V83.5c-1-4.1-2.3-8-5.4-11.1c-4.6-4.8-11.2-6.3-17.6-6.2c-6.7,0-13.4,1.7-17.9,6.9
		c-5.7,6.5-6.6,16.4-4.7,24.5c1.5,6.4,6,11.4,12.1,14c6.1,2.7,12.1,2.4,18.6,2.2c4.1-0.2,8.5-0.9,12.1-2.8c0.4-3.3,0.2-6.7,0.1-9.9
		c-7.5,2-16.6,3.4-24,0.6c-3.1-1.2-4.2-3.6-5.7-6.4C278.5,95,289.2,95.2,300,95.2z M267.7,85.8c0.5-2,0.7-4.5,1.9-6.2
		c1.7-2.2,4.9-2.7,7.4-2.9c2.6-0.1,6,0.4,7.9,2.3c1.8,2,1.5,4.5,1.7,7C280.3,86.1,274,86.3,267.7,85.8z"/>
	<path class="st0" d="M40.2,67.3c-2.3,3.5-3.5,7.9-5.2,11.8c-2.4,5.4-4.1,11.2-6.9,16.4C24,87.1,21,78.2,17.3,69.7
		c-0.4-0.9-0.9-1.7-1.5-2.4C10.5,66.9,5.2,67.3,0,67v1.2c2.6,4.2,4.5,8.8,6.5,13.3c4.3,9.4,8.5,18.8,12.8,28.2
		c1.7,3.2-0.7,5.7-3.1,7.4c-3.1,1.9-7.9,1-11.4,0.9c-0.1,3.2-0.3,6.6,0.1,9.9c1.3,1.2,3.6,1.6,5.3,2.1h9.4c4.1-1.4,8-3.2,10.9-6.6
		c6.6-7.6,9.1-16.8,13.1-25.9c4.2-10.1,8.3-20.2,12.5-30.3C50.8,67.2,45.5,66.9,40.2,67.3z"/>
	<path class="st0" d="M130,70c-0.4-0.9-0.7-1.9-1.1-2.8c-4.3,0.1-8.7-0.1-13,0.1c-0.4,2.9-0.3,5.9-0.3,8.8
		c0.1,12.3-0.1,24.6,0.1,36.9c5.1,0,10.2,0,15.3,0c0.3-8.6,0-17.3,0.2-25.9c0-4,3.5-7.6,7.3-8.4c2.8-0.4,5.9-0.1,8.7-0.3
		c0.3-3.7,0.2-7.5,0.1-11.2C141.2,67,135.6,67.1,130,70z"/>
	<path class="st0" d="M168.8,67.2c-5.1,0.1-10.3-0.2-15.4,0.1c-0.2,15.2,0,30.4-0.1,45.5c5.2,0.2,10.3,0.2,15.5,0
		C168.7,97.6,168.7,82.4,168.8,67.2z"/>
</g>
</svg>
